<svg xmlns="http://www.w3.org/2000/svg" xmlns:xlink="http://www.w3.org/1999/xlink" width="298" height="164"><style><![CDATA[.B{stroke-miterlimit:10}.C{stroke-linejoin:round}.D{fill:none}.E{stroke-opacity:.25}.F{stroke:rgb(12.156677%,46.665955%,70.587158%)}.G{stroke-linecap:square}.H{stroke:rgb(0%,0%,0%)}.I{fill:rgb(12.156677%,46.665955%,70.587158%)}.J{clip-path:url(#Ac)}.K{stroke-width:1.25}.L{stroke-width:.8}.M{stroke-opacity:.9}.N{stroke-opacity:.75}.O{stroke-dasharray:2.775,1.2}]]></style><defs><clipPath ><path d="M78 4.56h97v146.54H78zm0 0"/></clipPath><clipPath ><path d="M77 4.56h98v146.54H77zm0 0"/></clipPath><clipPath ><path d="M37 32h274.707v67H37zm0 0"/></clipPath><clipPath ><path d="M37 37h274.707v98H37zm0 0"/></clipPath><clipPath ><path d="M80.398 80.297h4.5v4.5h-4.5zm0 0"/></clipPath><clipPath ><path d="M93.598 98.785h4.5v4.5h-4.5zm0 0"/></clipPath><clipPath ><path d="M107.62 129.57h4.5v4.5h-4.5zm0 0"/></clipPath><clipPath ><path d="M120.27 126.07h4.5v4.5h-4.5zm0 0"/></clipPath><clipPath ><path d="M133 112.4h4v4.5h-4zm0 0"/></clipPath><clipPath ><path d="M132.645 112.4h4.5v4.5h-4.5zm0 0"/></clipPath><clipPath ><path d="M145.293 84h4.5v4h-4.5zm0 0"/></clipPath><clipPath ><path d="M145.293 83.727h4.5v4.5h-4.5zm0 0"/></clipPath><clipPath ><path d="M169 57.38h4v4.5h-4zm0 0"/></clipPath><clipPath ><path d="M168.668 57.38h4.5v4.5h-4.5zm0 0"/></clipPath><clipPath ><path d="M158 58.332h4v4.5h-4zm0 0"/></clipPath><clipPath ><path d="M157.668 58.332h4.5v4.5h-4.5zm0 0"/></clipPath><clipPath ><path d="M387 4.56h97v146.54h-97zm0 0"/></clipPath><clipPath ><path d="M386 4.56h98v146.54h-98zm0 0"/></clipPath><clipPath ><path d="M346.047 32h274.707v67H346.047zm0 0"/></clipPath><clipPath ><path d="M346.047 57h274.707v78H346.047zm0 0"/></clipPath><clipPath ><path d="M346.047 53h274.707v48H346.047zm0 0"/></clipPath><clipPath id="V"><path d="M696 4.56h97v146.54h-97zm0 0"/></clipPath><clipPath id="W"><path d="M695 4.56h98v146.54h-98zm0 0"/></clipPath><clipPath id="X"><path d="M655.094 35H929.8v86H655.094zm0 0"/></clipPath><clipPath id="Y"><path d="M655.094 35H929.8v87H655.094zm0 0"/></clipPath><clipPath id="Z"><path d="M655.094 66H929.8v35H655.094zm0 0"/></clipPath><clipPath id="a"><path d="M655.094 65H929.8v37H655.094zm0 0"/></clipPath><clipPath id="b"><path d="M655.094 62H929.8v44H655.094zm0 0"/></clipPath><clipPath id="c"><path d="M655.094 51H929.8v68H655.094zm0 0"/></clipPath><clipPath id="d"><path d="M655.094 67H929.8v56H655.094zm0 0"/></clipPath><clipPath id="e"><path d="M655.094 43H929.8v81H655.094zm0 0"/></clipPath><clipPath id="f"><path d="M655.094 37H929.8v78H655.094zm0 0"/></clipPath><clipPath id="g"><path d="M655.094 13H929.8v87H655.094zm0 0"/></clipPath><clipPath id="h"><path d="M655.094 66H929.8v46H655.094zm0 0"/></clipPath><clipPath id="i"><path d="M655.094 53H929.8v82H655.094zm0 0"/></clipPath><clipPath id="j"><path d="M655.094 46H929.8v55H655.094zm0 0"/></clipPath><clipPath id="k"><path d="M655.094 43H929.8v69H655.094zm0 0"/></clipPath><clipPath id="l"><path d="M655.094 55H929.8v59H655.094zm0 0"/></clipPath><clipPath id="m"><path d="M655.094 66H929.8v47H655.094zm0 0"/></clipPath><clipPath id="n"><path d="M655.094 52H929.8v61H655.094zm0 0"/></clipPath><clipPath id="o"><path d="M655.094 56H929.8v44H655.094zm0 0"/></clipPath><clipPath id="p"><path d="M655.094 44H929.8v63H655.094zm0 0"/></clipPath><clipPath id="q"><path d="M655.094 53H929.8v62H655.094zm0 0"/></clipPath><clipPath id="r"><path d="M655.094 65H929.8v41H655.094zm0 0"/></clipPath><clipPath id="s"><path d="M655.094 22H929.8v112H655.094zm0 0"/></clipPath><clipPath id="t"><path d="M655.094 67H929.8v59H655.094zm0 0"/></clipPath><clipPath id="u"><path d="M655.094 66H929.8v38H655.094zm0 0"/></clipPath><clipPath id="v"><path d="M655.094 44H929.8v63H655.094zm0 0"/></clipPath><clipPath id="w"><path d="M655.094 66H929.8v44H655.094zm0 0"/></clipPath><clipPath id="x"><path d="M655.094 62H929.8v60H655.094zm0 0"/></clipPath><clipPath id="y"><path d="M655.094 49H929.8v52H655.094zm0 0"/></clipPath><clipPath id="z"><path d="M655.094 33H929.8v67H655.094zm0 0"/></clipPath><clipPath id="AA"><path d="M655.094 24H929.8v76H655.094zm0 0"/></clipPath><clipPath id="AB"><path d="M655.094 53H929.8v57H655.094zm0 0"/></clipPath><clipPath id="AC"><path d="M655.094 66H929.8v55H655.094zm0 0"/></clipPath><clipPath id="AD"><path d="M655.094 35H929.8v66H655.094zm0 0"/></clipPath><clipPath id="AE"><path d="M655.094 61H929.8v45H655.094zm0 0"/></clipPath><clipPath id="AF"><path d="M655.094 35H929.8v64H655.094zm0 0"/></clipPath><clipPath id="AG"><path d="M655.094 68H929.8v53H655.094zm0 0"/></clipPath><clipPath id="AH"><path d="M655.094 66H929.8v35H655.094zm0 0"/></clipPath><clipPath id="AI"><path d="M697.168 67.148H704V74h-6.832zm0 0"/></clipPath><clipPath id="AJ"><path d="M697.168 67.148h6.906v6.906h-6.906zm0 0"/></clipPath><clipPath id="AK"><path d="M710.293 66H717v6.75h-6.707zm0 0"/></clipPath><clipPath id="AL"><path d="M710.293 65.844h6.9v6.906h-6.9zm0 0"/></clipPath><clipPath id="AM"><path d="M724.28 83H731v6.766h-6.72zm0 0"/></clipPath><clipPath id="AN"><path d="M724.28 82.86h6.906v6.906h-6.906zm0 0"/></clipPath><clipPath id="AO"><path d="M737.023 89h6.906v6h-6.906zm0 0"/></clipPath><clipPath id="AP"><path d="M737.023 88.695h6.906v6.906h-6.906zm0 0"/></clipPath><clipPath id="AQ"><path d="M750 95.027h6v6.906h-6zm0 0"/></clipPath><clipPath id="AR"><path d="M749.43 95.027h6.906v6.906h-6.906zm0 0"/></clipPath><clipPath id="AS"><path d="M762.027 92.082h6.906v6.906h-6.906zm0 0"/></clipPath><clipPath id="AT"><path d="M786 73.043h6v6.906h-6zm0 0"/></clipPath><clipPath id="AU"><path d="M785.418 73.043h6.9v6.906h-6.9zm0 0"/></clipPath><clipPath id="AV"><path d="M774.383 76.715h6.9v6.906h-6.9zm0 0"/></clipPath><clipPath ><path d="M78 170.004h97V222H78zm0 0"/></clipPath><clipPath ><path d="M77 170.004h98V222H77zm0 0"/></clipPath><clipPath ><path d="M37 178h274.707v36H37zm0 0"/></clipPath><clipPath ><path d="M387 170.004h97V222h-97zm0 0"/></clipPath><clipPath ><path d="M386 170.004h98V222h-98zm0 0"/></clipPath><clipPath ><path d="M346.047 178h274.707v36H346.047zm0 0"/></clipPath><clipPath id="Ac"><path d="M0 0h946v254H0z"/></clipPath><path id="Ad" d="M655.094 39.094V119.1l.273-.066.273-.062.277-.062.273-.062.277-.062.273-.062.273-.06.277-.06.273-.06.277-.055.273-.06.273-.055.277-.05.273-.05.277-.05.273-.055.273-.047.277-.05.273-.047.277-.05.547-.102.277-.05.273-.05.277-.055.273-.055.273-.06.277-.062.273-.062.277-.066.547-.14.277-.078.273-.082.277-.086.273-.1.273-.094.277-.098.273-.102.277-.11.547-.227.277-.12.273-.125.277-.13.547-.273.273-.14.277-.145.273-.148.277-.152.273-.152.273-.156.277-.16.273-.164.277-.164.273-.164.273-.168.277-.172.273-.168.277-.176.273-.172.273-.176.277-.18.273-.18.277-.18.547-.367.277-.184.273-.187.277-.19.273-.19.273-.195.277-.195.273-.2.277-.203.273-.207.273-.21.277-.21.273-.215.277-.22.824-.684.273-.234.277-.242.547-.492.277-.254.273-.258.277-.266.273-.266.55-.55.55-.574.273-.293.55-.605.55-.63.273-.324.273-.328.277-.336.273-.344.273-.352.277-.36.273-.363.277-.375.273-.38.273-.395.277-.398.273-.406.277-.418.273-.426.273-.437.277-.45.55-.922.273-.477.273-.488.277-.5.273-.508.277-.523.273-.527.273-.54.277-.55.55-1.133.273-.578.55-1.18.273-.605.277-.61.273-.617.55-1.25.273-.633.277-.637.273-.637.273-.64.277-.645.273-.64.277-.64.273-.645.273-.637.277-.633.273-.633.824-1.855.277-.602.273-.598.277-.586.273-.574.273-.562.277-.555.273-.54.277-.523.273-.512.273-.496.277-.48.273-.465.273-.44.277-.406.273-.195.277.035.273.055.273.043.277.03.273.016.277.008.273-.008.273-.02.277-.03.273-.043.277-.05.273-.062.273-.07.277-.078.273-.082.277-.1.273-.094.273-.102.277-.102.273-.102.277-.105.273-.102.273-.105.277-.102.273-.098.277-.094.273-.1.273-.086.277-.078.273-.07.277-.066.273-.055.273-.047.277-.04.273-.03.277-.016.273-.008h.273l.277.012.273.027.277.035.273.047.273.06.277.074.273.086.277.105.273.145.273.223.277.29.273.316.277.332.273.348.273.363.277.37.273.38.273.39.277.398.273.4.277.414.273.422.273.426.277.43.273.434.277.438.547.875.277.44.273.438.277.434.273.434.273.426.277.422.273.414.277.4.273.402.273.39.277.383.273.37.277.363.273.348.273.34.277.324.273.313.277.3.273.285.273.27.277.258.273.242.277.23.273.215.273.2.277.188.273.176.277.16.273.152.273.14.277.137.273.172.277.32.273.395.273.398.277.39.273.383.277.375.273.363.273.348.277.34.273.324.277.313.273.297.273.28.273.266.277.25.273.238.277.22.273.203.273.184.277.172.273.152.277.137.273.12.273.105.277.086.273.074.277.055.273.043.273.027.277.012h.273l.277-.012.273-.023.273-.04.277-.047.273-.055.277-.066.273-.07.273-.082.277-.086.273-.086.277-.094.547-.187.277-.1.273-.062.277.094.273.254.273.285.277.293 1.098 1.176.277.293.273.285.277.285.273.277.273.273.277.266.273.258.277.246.273.242.273.23.277.22.273.207.277.195.273.188.273.172.277.156.273.148.273.133.277.117.273.105.277.094.273.078.273.063.277.05.273.04.277.023.273.012h.273l.277-.012.273-.023.277-.035.273-.043.273-.055.277-.062.273-.066.277-.074.273-.06.273.082.277.28.273.31.277.31.273.297.273.293.277.28.273.266.277.258.273.242.273.223.277.21.273.19.277.172.273.156.273.133.277.113.273.1.277.066.273.047.273.023.277-.004.273-.027.277-.05.273-.074.273-.102.277-.125.273-.148.277-.172.273-.2.273-.223.277-.246.273-.27.277-.29.273-.312.273-.336.277-.352.273-.375.273-.39.277-.4.273-.426.277-.44.273-.453.273-.465.277-.473.273-.453.277-.266.273-.098.273-.086.277-.094.273-.105.277-.117.273-.13.273-.14.277-.156.273-.172.277-.184.273-.203.273-.215.277-.23.273-.25.277-.266.273-.28.273-.297.277-.312.273-.328.277-.348.273-.36.273-.375.277-.39.273-.406.277-.418.273-.43.273-.44.277-.453.273-.465.277-.473.273-.484.273-.488.277-.496.273-.5.277-.504.273-.504.273-.508.277-.508.273-.508.277-.504.273-.496.273-.492.277-.48.273-.44.277-.22.273-.06.273-.03.277-.02.273-.016.273-.008.277-.008.273-.004h.277l.547-.008.55-.016.277-.012.273-.016.273-.02.277-.03.273-.035.277-.04.273-.05.273-.06.277-.07.273-.078.277-.1.273-.098.273-.11.277-.12.273-.133.277-.14.273-.152.273-.168.277-.176.273-.187.277-.2.273-.207.273-.22.277-.227.273-.234.277-.242.273-.223.273.023.277.297.273.332.277.348.273.363.273.375.277.383.273.39.277.402.273.406.273.414.277.422.273.422.277.43.547.867.277.44.273.44.277.44.547.89.277.45.273.445.273.45.277.45.547.898.277.445.273.45.277.45.547.89.277.45.273.445.277.44.273.445.273.44.277.44.273.44.277.438.547.875.277.434.273.43.277.43.547.852.277.418.273.418.277.414.273.4.273.402.277.402.273.395.277.39.273.383.273.38.277.37.273.367.55.715.273.348.277.34.273.332.277.328.273.32.273.313.277.31.273.297.277.297.273.285.273.28.277.277.273.27.277.266.273.258.273.254.277.25.273.246.277.242.273.238.273.234.277.23.273.23.273.227.277.227.273.22.277.22.547.438.277.215.273.21.277.21.273.21.273.207.277.207.273.207.277.203.273.203.273.2.277.2.273.195.277.19.547.383.277.188.273.184.277.18.273.18.273.176.277.172.273.172.277.164.273.164.273.16.277.16.273.156.277.152.273.152.273.148.277.145.273.145.277.14.547.28.277.137.273.133.277.137.273.133.273.13.277.133.273.13.277.13.273.125.273.13.277.125.547.25.277.12.273.125.277.12.547.234.277.117.273.113.277.113.273.113.273.105.277.105.273.105.277.102.273.094.273.098.277.1.273.1.277.086.273.082.273.078.277.074.273.07.277.07.547.125.277.06.273.055.277.05.273.05.273.043.277.043.273.04.277.04.273.035.273.03.277.03.273.027.277.023.547.047.277.02.273.016.277.02.273.016.824.035.277.008.273.012.273.008 1.102.016h1.098l1.102-.016.273-.008.824-.023.277-.012.273-.008.277-.012 3.574-.152.273-.016.277-.008 1.648-.07.273-.008.277-.012 1.098-.047.277-.016.55-.023.547-.03.277-.012.55-.03.273-.012.273-.02.277-.012.824-.047.273-.012.277-.016.273-.012.277-.016.273-.012.273-.008.277-.012.547-.016.828-.012h.824l.55.008.547.016.277.012.824.035 1.648.094.277.02 1.648.094.277.012.824.035.273.008.824.023.828.012h1.098l.277-.004h.273l.824-.012.277-.008.547-.008.55-.016.277-.004.547-.016 1.375-.04.277-.012.273-.008.273-.012.277-.008.824-.035.273-.016.277-.012 1.648-.094.277-.02.273-.02.273-.016.277-.02.55-.04.273-.016.824-.06.277-.016 1.098-.062.277-.012.824-.035.273-.008.277-.008.273-.004.273-.008h.277l.55-.008h.273l.55.008h.273l.277.004.273.008.273.004.277.008.273.004 1.648.047.277.012.273.008.277.008.273.004.273.008.277.008.277.004.27.008.828.012h.273l.277.004h.27l.28.004h.55l.27-.004h.55l1.38-.02.27-.008.28-.004.27-.008 1.102-.03.277-.012.27-.008 1.383-.06.27-.016.277-.012.273-.012.277-.016.27-.016.28-.012.27-.016.28-.016.27-.016.28-.016.27-.012.277-.016.273-.016.277-.012.27-.016.28-.016.55-.023.27-.016.828-.035.273-.008.277-.012.27-.008.28-.012.27-.008 1.93-.055.27-.004.55-.016.28-.004.27-.008.28-.008.27-.004.55-.016.277-.004.82-.023.28-.004.27-.008.828-.023.273-.004.277-.008.27-.008.28-.008.27-.004.28-.008.55-.008.27-.008 1.38-.02h.27l.28-.004h.27l.28-.004h.547l.273-.004h.547l.28-.004h.27l.28-.004h.27l1.38-.02.27-.008 1.102-.03.828-.035.273-.016.277-.012.27-.016.28-.016.27-.016.28-.016.27-.016.28-.02.27-.016V36.72l-.27-.012-.28-.012-.27-.012-.28-.012-.27-.012-.28-.012-.547-.016-.273-.012-.277-.008-.55-.008-.27-.008h-.28l-.55-.008h-.82l-.277.004h-.27l-.28.004h-.27l-.28.004-2.2.03h-.27l-.28.004h-.27l-.28.004h-.547l-.273.004h-.547l-.28-.004h-.55l-.27-.004h-.28l-.27-.004h-.277l-.55-.008h-.27l-.28-.004-.27-.004h-.28l-.55-.008h-.27l-.277-.004h-.273l-.277-.004h-.27l-.28-.004h-.27l-.28-.004h-.27l-.28-.004h-.27l-.277-.004-.82-.012H910l-.27-.004-.28-.008-.55-.008-1.648-.047-.27-.012-.28-.008-.27-.012-.28-.012-.27-.012-.55-.023-.277-.016-.27-.012-.28-.016-.27-.012-.28-.016-.27-.012-.28-.016-.27-.016-.277-.012-.55-.03-.27-.012-.28-.016-.27-.012-.28-.016-.27-.012-.28-.012-.27-.016-1.38-.06-.27-.008-.28-.012-.27-.008-.28-.012-.547-.016-.273-.012-.277-.004-.27-.012-.28-.004-.27-.008-.28-.004-1.37-.02h-.277l-.27-.004h-.828l-.277.004h-.273l-.273.004h-.277l-1.098.016-.277.008-.824.012-.273.008-.277.004-.547.008h-.277l-.55.008h-1.098l-.277-.004-1.098-.016-.824-.023-.277-.012-.273-.008-1.926-.082-.273-.016-1.375-.06-.277-.008-.273-.012-.277-.008-.273-.012-.824-.023-.277-.004-.273-.008-1.375-.02h-.273l-.277-.004-.273-.004h-.277l-.273-.004h-.273l-.277-.004h-.547l-.277-.004h-.55l-.273-.004h-1.926l-.273.004h-.277l-.824.012-.55.016-.273.004-.273.012-.277.008-1.098.047-1.375.078-.277.02-.273.016-.277.02-.273.016-.273.02-1.652.094-.273.012-.277.008-.273.012-.824.023-.277.004-.273.004h-1.102l-.824-.012-.273-.008-.273-.004-2.477-.07-.273-.004-.277-.008-.55-.008-.273-.008-.273-.004h-.277l-.273-.004h-1.375l-.277.004h-.273l-.273.004h-.277l-2.473.035-.277.008-.55.008-.273.008-.273.004-.277.008-.273.004-1.102.03-.273.012-.277.008-.824.035-.273.016-.277.012-.273.016-.273.02-.277.016-.547.04-.277.02-.824.07-.273.027-.277.027-.547.055-.55.063-.277.035-.273.03-.273.04-.277.035-.273.04-.277.04-.547.086-.277.047-.273.047-.277.047-.547.11-.277.055-.273.06-.277.063-.273.063-.273.066-.277.07-.273.074-.277.074-.273.078-.273.082-.277.086-.273.1-.277.094-.273.094-.273.098-.277.102-.273.105-.277.11-.273.11-.273.113-.277.113-.273.12-.277.12-.273.12-.273.125-.277.125-.273.13-.277.13-.547.266-.277.133-.273.137-.277.137-.547.273-.277.137-.547.28-.277.14-.273.14-.277.14-.547.29-.277.145-.273.145-.277.148-.273.152-.273.148-.277.152-.273.156-.277.156-.273.156-.273.16-.277.164-.273.168-.277.168-.273.168-.273.176-.277.172-.273.18-.277.184-.547.367-.277.188-.273.19-.277.195-.547.39-.277.2-.273.203-.277.203-.547.406-.277.207-.273.207-.277.21-.273.207-.273.21-.277.21-.273.215-.277.21-.547.43-.277.215-.273.215-.277.22-.547.438-.277.223-.273.223-.273.227-.277.23-.55.465-.273.234-.273.242-.277.242-.55.504-.273.254-.55.527-.273.273-.277.273-.273.28-.273.285-.277.293-.273.293-.277.3-.547.617-.277.316-.273.32-.277.324-.273.328-.55.668-.273.336-.277.344-.273.344-.273.348-.277.348-.824 1.06-.273.355-.277.355-.273.36-.277.355-.273.36-.273.355-.277.36-.273.355-.277.36-.273.355-.273.36-.277.355-.273.355-.55.707-.273.355-.55.707-.277.352-.273.352-.273.355-.277.348-.547.703-.277.348-.547.695-.277.348-.273.344-.277.344-.273.344-.273.34-.277.336-.273.332-.277.332-.273.328-.273.324-.277.316-.273.316-.277.305-.273.305-.273.293-.277.285-.273.277-.277.238-.273-.023-.273-.266-.277-.277-.273-.27-.277-.25-.273-.234-.273-.22-.277-.195-.273-.18-.277-.156-.273-.137-.273-.117-.277-.094-.273-.07-.277-.047-.273-.023h-.273l-.277.023-.273.047-.277.07-.273.098-.273.12-.277.14-.273.168-.277.19-.273.215-.273.234-.277.258-.273.28-.277.3-.273.32-.273.34-.277.36-.273.375-.277.395-.273.406-.273.426-.277.434-.273.44-.273.438-.277.29-.273.1-.277.07-.273.07-.273.082-.277.098-.273.105-.277.12-.273.137-.273.148-.277.168-.273.184-.277.2-.273.215-.273.23-.277.254-.273.266-.277.285-.273.305-.273.32-.277.336-.273.355-.277.37-.273.387-.273.402-.277.418-.273.434-.277.445-.273.457-.273.47-.277.48-.55.992-.273.508-.273.512-.277.52-.273.523-.277.523-.547 1.055-.55 1.047-.277.52-.273.508-.273.477-.277.3-.273.086-.277.05-.273.043-.273.035-.277.027-.273.023-.277.02-.824.047-.273.012-.55.03-.273.02-.55.047-.273.027-.277.03-.273.04-.277.043-.273.047-.273.05-.277.06-.273.063-.277.07-.273.074-.273.082-.277.082-.273.094-.277.094-.273.098-.273.105-.277.105-.273.11-.277.113-.547.227-.277.117-.273.113-.277.113-.273.113-.273.105-.277.105-.273.094-.277.055-.273-.152-.273-.3-.277-.328-.273-.332-.277-.332-.273-.332-.273-.328-.55-.645-.277-.312-.273-.31-.273-.297-.277-.29-.273-.277-.277-.27-.273-.258-.273-.242-.277-.23-.273-.22-.277-.203-.273-.187-.273-.172-.277-.16-.273-.145-.273-.13-.277-.11-.273-.098-.277-.086-.273-.066-.273-.055-.277-.04-.273-.023-.277-.012h-.273l-.273.016-.277.023-.273.035-.277.047-.273.055-.273.063-.277.07-.273.078-.277.078-.273.082-.273.06-.277-.098-.273-.25-.277-.27-.273-.27-.273-.262-.277-.258-.273-.25-.277-.246-.273-.234-.273-.223-.277-.215-.273-.207-.277-.195-.273-.184-.273-.176-.277-.168-.273-.152-.277-.145-.273-.133-.273-.12-.277-.113-.273-.105-.277-.094-.273-.086-.273-.078-.277-.07-.273-.062-.277-.06-.273-.05-.273-.047-.277-.043-.273-.043-.277-.04-.547-.07-.273-.04-.277-.04-.273-.04-.277-.047-.273-.047-.273-.055-.277-.062-.273-.066-.277-.078-.273-.1-.273-.11-.277-.203-.273-.37-.277-.422-.273-.434-.55-.89-.273-.45-.277-.453-.273-.453-.273-.457-.277-.453-.273-.453-.277-.45-.547-.89-.277-.44-.273-.434-.277-.43-.273-.422-.273-.418-.277-.4-.273-.402-.277-.395-.273-.387-.273-.38-.277-.37-.273-.36-.277-.352-.273-.344-.273-.332-.277-.324-.273-.312-.277-.305-.273-.297-.273-.285-.277-.273-.273-.266-.277-.258-.273-.246-.273-.234-.277-.23-.273-.215-.277-.207-.273-.2-.273-.187-.277-.176-.273-.168-.273-.16-.277-.148-.273-.145-.277-.152-.273-.195-.273-.25-.55-.52-.277-.25-.273-.238-.273-.227-.277-.215-.273-.2-.277-.19-.273-.176-.273-.164-.277-.152-.273-.137-.277-.13-.273-.113-.273-.098-.277-.1-.273-.074-.277-.062-.273-.05-.273-.035-.277-.023-.273-.008-.277.008-.273.02-.273.035-.277.05-.273.066-.277.082-.273.098-.273.117-.277.13-.273.148-.277.168-.273.18-.273.203-.277.22-.273.234-.277.258-.273.273-.273.29-.277.31-.273.328-.277.344-.273.36-.273.375-.277.36-.273.13-.277-.078-.273-.113-.273-.137-.277-.148-.273-.168-.273-.18-.277-.2-.273-.207-.277-.227-.273-.238-.273-.25-.277-.266-.273-.273-.277-.29-.273-.297-.273-.305-.277-.316-.273-.324-.277-.332-.273-.34-.273-.344-.277-.352-.273-.352-.277-.36-.273-.36-.273-.363-.277-.363-.273-.363-.277-.367-.273-.363-.273-.36-.277-.36-.273-.36-.277-.355-.547-.695-.277-.34-.273-.34-.277-.328-.273-.328-.273-.32-.277-.316-.273-.31-.277-.3-.273-.297-.273-.29-.55-.566-.277-.273-.273-.266-.273-.262-.277-.258-.273-.25-.277-.25-.273-.242-.273-.238-.277-.23-.273-.23-.55-.45-.273-.22-.277-.22-.547-.422-.277-.21-.273-.203-.277-.203-.273-.203-.273-.2-.277-.195-.273-.195-.277-.195-.273-.187-.273-.19-.277-.187-.273-.187-.277-.184-.273-.18-.273-.184-.277-.176-.273-.18-.277-.176-.273-.176-.273-.172-.277-.172-.273-.168-.277-.168-.547-.336-.277-.168-.273-.164-.277-.164-.547-.328-.277-.164-.273-.164-.277-.164-.273-.164-.273-.16-.277-.164-.273-.164-.277-.164-.273-.16-.273-.164-.277-.164-.273-.164-.277-.16-.273-.164-.273-.16-.277-.164-.273-.156-.277-.16-.547-.312-.277-.152-.273-.152-.277-.148-.547-.29-.273-.14-.277-.137-.273-.133-.277-.133-.273-.125-.273-.12-.277-.117-.273-.117-.277-.11-.273-.105-.273-.102-.277-.102-.273-.094-.277-.1-.273-.1-.273-.086-.277-.078-.273-.082-.277-.074-.547-.148-.277-.07-.273-.07-.277-.066-.273-.07-.273-.066-.277-.066-.273-.066-.277-.066-.273-.07-.273-.066-.277-.07-.273-.07-.277-.074-.273-.07-.273-.074-.277-.074-.273-.078-.277-.078-.547-.156-.277-.082-.273-.082-.277-.082-.273-.082zm0 0"/><path id="Ae" d="M700.62 73.43c.75 0 1.47-.297 2-.828s.828-1.25.828-2-.297-1.47-.828-2-1.25-.828-2-.828-1.47.297-2 .828-.828 1.25-.828 2 .297 1.47.828 2 1.25.828 2 .828zm0 0"/><path id="Af" d="M713.746 72.125c.754 0 1.473-.297 2-.828s.832-1.25.832-2a2.83 2.83 0 0 0-2.832-2.828c-.75 0-1.47.3-2 .828s-.828 1.25-.828 2 .3 1.473.828 2 1.25.828 2 .828zm0 0"/><path id="Ag" d="M740.477 94.977c.75 0 1.47-.297 2-.828s.828-1.25.828-2-.3-1.47-.828-2-1.25-.828-2-.828-1.473.3-2 .828-.828 1.25-.828 2a2.82 2.82 0 0 0 2.828 2.828zm0 0"/><path id="Ah" d="M752.883 101.31c.75 0 1.47-.3 2-.828s.828-1.25.828-2a2.82 2.82 0 0 0-.828-2c-.53-.53-1.25-.828-2-.828s-1.47.297-2 .828a2.82 2.82 0 0 0-.828 2c0 .75.297 1.47.828 2s1.25.828 2 .828zm0 0"/><path id="Ai" d="M788.87 79.324a2.82 2.82 0 0 0 2-.828 2.83 2.83 0 0 0 0-4 2.82 2.82 0 0 0-2-.828c-.75 0-1.47.297-2 .828s-.828 1.25-.828 2 .3 1.47.828 2 1.25.828 2 .828zm0 0"/><path id="Aj" d="M134.242 86.437c.754 0 1.473-.297 2-.828a2.83 2.83 0 0 0 0-4c-.527-.53-1.246-.828-2-.828s-1.47.297-2 .828-.828 1.25-.828 2 .3 1.47.828 2 1.25.828 2 .828zm0 0"/></defs><path d="M11.5 154.54h274.707V8H11.5zm0 0" fill="rgb(100%,100%,100%)" class="J"/><g transform="translate(-643.594 3.441)"><g clip-path="url(#V)"><path d="M696.297 4.56v146.54h96.148V4.56zm0 0" fill="rgb(75.292969%,75.292969%,75.292969%)" fill-opacity=".25"/></g><g clip-path="url(#W)" class="B C D E"><path d="M696.297 4.56v146.54h96.148V4.56zm0 0" stroke="rgb(75.292969%,75.292969%,75.292969%)"/></g><g clip-path="url(#X)" class="I"><use xlink:href="#Ad" fill-opacity=".225"/></g><g clip-path="url(#Y)" class="B C D F"><use xlink:href="#Ad" stroke-opacity=".225"/></g></g><g class="D B C H"><path d="M11.5 154.54v3.5m68.676-3.5v3.5m68.676-3.5v3.5m68.675-3.5v3.5m68.68-3.5v3.5" class="J L"/><path d="M45.836 154.54v2m68.68-2v2m68.674-2v2m68.677-2v2" class="J" stroke-width=".6"/><path d="M11.5 154.54H8m3.5-36.638H8m3.5-36.632H8m3.5-36.634H8M11.5 8H8" class="J L"/><path d="M11.5 136.218h-2m2-36.632h-2m2-36.633h-2m2-36.633h-2" class="J" stroke-width=".6"/></g><g transform="translate(-643.594 3.441)" class="B C D"><g clip-path="url(#Z)" class="F G M"><path d="M655.094 79.094l13.746.367 5.227-.086 4.125-.297 3.3-.445 3.023-.62 2.75-.773 2.75-.992 2.75-1.215 3.023-1.582 4.676-2.754 3.023-1.684 1.926-.848 1.648-.48 1.375-.18 1.375.06 1.102.242 1.102.43 1.375.805 1.375 1.098 1.37 1.37 1.652 1.94 2.473 3.328 4.676 6.418 1.926 2.234 1.648 1.598 1.652 1.277 1.648.98 1.648.734 2.2.727 5.777 1.758 2.2.965 2.75 1.47 5.773 3.22 1.926.785 1.648.438 1.375.168 1.375-.047 1.375-.273 1.375-.516 1.375-.77 1.375-1.02 1.652-1.547 1.648-1.852 2.2-2.828 6.324-8.398 1.652-1.766 1.648-1.453 1.375-.95 1.375-.723 1.375-.504 1.648-.36 1.652-.133 1.926.05 2.75.324 5.773.988 4.95.734 4.398.414 4.676.195 6.05.02 12.37-.242 14.574-.504 11.824-.316 12.102-.062 15.125-.145 10.445.012 15.68.043 20.62-.176" stroke-width="1.5"/></g><g clip-path="url(#a)" class="E F G"><path d="M655.094 99.238l1.648-.367 1.926-.69 4.398-1.7 1.652-.348 1.375-.1 1.648.145 1.648.375 5.5 1.457 1.375.004 1.102-.203 1.098-.406 1.102-.62 1.375-1.082 1.375-1.395 1.648-2.035 2.2-3.137 7.152-10.578 2.473-3.074 2.2-2.398 2.2-2.105 2.203-1.79 1.648-1.086 1.648-.81 1.375-.4 1.102-.125 1.102.07 1.098.285 1.102.508 1.098.73 1.375 1.21 1.375 1.508 1.926 2.496 6.875 9.453 1.648 1.7 1.652 1.344 1.648 1.004 1.652.742 2.746.945 2.75 1.02 1.926.953 1.926 1.195 3.023 2.2 2.75 1.938 1.926 1.1 1.648.68 1.652.43 1.648.2 1.926.008 2.473-.223 2.75-.46 2.203-.582 1.648-.668 1.375-.77 1.375-1.012 1.375-1.27 1.648-1.863 1.926-2.56 6.324-8.816 1.375-1.418 1.375-1.098 1.375-.766 1.375-.453 1.375-.19 1.648.012 4.402.21 1.375-.2 1.375-.422 1.375-.668 1.37-.898 1.652-1.336 3.023-2.824 2.2-1.937 1.652-1.164 1.375-.7 1.375-.414 1.098-.12 1.375.094 1.375.336 1.652.637 3.574 1.727 2.2.93 1.926.574 1.926.344 2.473.184 4.676.29 2.2.383 2.477.68 3.297 1.172 6.05 2.39 2.2 1.102 1.648 1.047 1.652 1.305 1.648 1.598 1.652 1.895 2.2 2.887 4.95 6.684 1.648 1.766 1.375 1.14 1.102.672 1.098.445 1.102.23 1.375.02 1.375-.21 2.477-.676 2.2-.523 1.375-.12 1.375.113 1.375.37 1.375.625 1.648 1.012 5.227 3.5 1.375.52 1.098.18 1.102-.05 1.098-.293 1.102-.523 1.375-.96 1.375-1.238 1.922-2.043 4.398-4.793 1.652-1.465 1.648-1.18 1.652-.895 1.93-.75 2.47-.68 5.5-1.418 6.602-1.887 2.75-.484 4.95-.777"/></g><g clip-path="url(#b)" class="E F G"><path d="M655.094 89.746l2.2.844 2.75.793 3.574.78 2.477.355 1.922.07 1.648-.16 1.375-.34 1.375-.56 1.375-.793 1.375-1.03 1.652-1.535 1.926-2.125 3.297-4.078 2.75-3.266 1.926-1.95 1.648-1.37 1.652-1.082 1.648-.816 1.926-.703 7.7-2.473 5.773-2.38 1.375-.273 1.375-.027 1.102.19 1.102.406 1.098.625 1.102.852 1.375 1.352 1.648 1.984 2.2 3.05 4.125 5.813 1.926 2.293 1.648 1.617 1.652 1.285 1.648.977 1.926.86 3.574 1.25 2.75 1.098 2.2 1.113 3.023 1.81 3.852 2.277 2.2 1.023 1.926.648 1.926.395 1.922.156 1.926-.07 1.926-.297 1.648-.457 1.652-.695 1.375-.79 1.375-1.016 1.648-1.527 1.648-1.848 2.203-2.855 5.773-7.816 1.648-1.758 1.375-1.172 1.375-.883 1.375-.61 1.375-.36 1.652-.172 2.2.035 3.3.066 1.648-.184 1.648-.426 1.648-.7 1.652-.97 1.926-1.4 3.297-2.78 2.477-1.97 1.648-1.078 1.652-.816 1.375-.46 1.648-.3 1.648-.066 2.477.164 3.574.246 1.926-.098 1.926-.32 2.473-.652 3.574-.953 1.652-.203 1.375.03 1.375.254 1.375.484 1.375.71 1.648 1.113 2.2 1.8 5.227 4.43 1.922 1.29 1.926 1.004 1.926.75 2.75.79 4.676 1.305 3.023 1.133 6.324 2.484 2.477.664 7.148 1.676 1.648.797 1.375.898 1.375 1.14 1.652 1.684 1.926 2.348 6.047 8.375 1.93 2.273 1.367 1.332 1.383 1.043 1.367.73 1.102.355 1.102.156 1.098-.03 1.38-.29 1.37-.54 1.38-.762 1.652-1.176 1.648-1.434 1.922-1.988 1.93-2.32 1.918-2.652 2.203-3.422 2.75-4.727 5.227-9.12 1.922-2.88 1.648-2.094 1.652-1.7"/></g><g clip-path="url(#c)" class="E F G"><path d="M655.094 52.578l1.098-.27 1.102-.035 1.098.2 1.102.4 1.375.77 1.648 1.234 1.926 1.742 3.027 3.086 6.32 6.848 6.602 7.156 1.926 1.75 1.648 1.2 1.375.734 1.375.45 1.102.145 1.098-.047 1.102-.238 1.375-.53 1.648-.934 1.926-1.37 6.05-4.535 1.922-1.094 1.652-.703 1.648-.47 1.652-.223 1.648.03 1.375.238 1.375.44 1.375.668 1.375.9 1.375 1.148 1.648 1.688 1.926 2.34 2.2 3.063 5.5 7.855 1.652 1.895 1.375 1.285 1.37.996 1.375.72 1.375.46 1.652.277 2.2.105 2.75.145 1.648.31 1.652.56 1.648.828 1.926 1.262 3.023 2.336 2.2 1.602 1.652.922 1.375.492 1.098.176 1.102-.04 1.098-.262 1.102-.492 1.102-.71 1.37-1.184 1.652-1.785 1.926-2.46 4.398-6.18 2.477-3.23 1.922-2.195 1.926-1.86 1.926-1.52 1.648-1.035 1.652-.79 1.648-.53 1.375-.215 1.375.03 1.102.223 1.098.422 1.102.64 1.098.87 1.375 1.43 1.375 1.797 1.648 2.598 1.926 3.508 6.05 11.508 1.648 2.473 1.375 1.676 1.375 1.3 1.375.945 1.375.633 1.375.398 2.2.363 2.477.426 1.648.512 1.375.633 1.652 1.027 1.926 1.523 6.324 5.398 1.375.79 1.375.53 1.375.262 1.375-.012 1.375-.266 1.375-.484 1.648-.824 1.926-1.207 2.473-1.844 2.477-2.13 2.2-2.18 1.926-2.195 1.922-2.512 2.203-3.25 3.023-4.93 3.574-5.762 1.926-2.668 1.648-1.875 1.375-1.215 1.375-.87 1.102-.453 1.098-.242 1.102-.04 1.375.2 1.375.438 1.648.79 1.926 1.203 2.2 1.668 2.2 1.953 2.203 2.25 2.2 2.566 2.75 3.6 4.672 6.195 1.648 1.797 1.38 1.18 1.102.688 1.102.43 1.098.16 1.102-.117 1.098-.387 1.102-.637 1.37-1.102 1.648-1.672 2.75-3.207 2.75-3.1 1.652-1.562 1.648-1.27 1.648-.98 1.93-.852 3.3-1.12 2.473-.953 2.2-1.11 2.48-1.52.27-.18"/></g><g clip-path="url(#d)" class="E F G"><path d="M655.094 112.48l1.098.098 1.102-.094 1.098-.297 1.102-.496 1.102-.707 1.375-1.176 1.375-1.5 1.375-1.8 1.648-2.535 1.922-3.38 2.75-5.367 4.953-9.793 2.2-3.797 1.648-2.445 1.652-2.05 1.375-1.398 1.37-1.113 1.375-.855 1.375-.63 1.652-.504 1.926-.344 7.422-1.035 2.2-.656 3.3-1.258 2.75-.988 1.652-.39 1.375-.125 1.375.105 1.098.28 1.102.473 1.375.863 1.375 1.168 1.648 1.758 1.926 2.438 3.023 4.28 3.027 4.176 1.922 2.305 1.652 1.645 1.648 1.32 1.648 1.008 1.652.738 1.922.617 7.703 2.145 2.2 1.035 2.473 1.418 5.227 3.078 1.648.69 1.375.37 1.375.148 1.375-.105 1.375-.387 1.375-.668 1.375-.957 1.375-1.223 1.648-1.79 1.926-2.43 4.125-5.715 2.477-3.2 1.926-2.117 1.648-1.473 1.648-1.145 1.652-.832 1.648-.57 1.926-.414 2.75-.324 15.672-1.246 2.477.168 2.2.37 2.2.62 2.2.883 2.2 1.145 2.477 1.55 3.3 2.355 6.324 4.57 3.023 1.867 3.027 1.586 3.023 1.34 3.3 1.227 3.297 1 3.027.695 3.297.523 6.602.934 2.2.605 1.926.77 1.926 1.027 1.922 1.27 2.477 1.914 5.5 4.38 1.926 1.203 1.648.79 1.648.547 1.652.313 1.926.125 2.75-.1 3.023-.062 1.926.188 1.648.387 1.648.625 1.652.86 1.926 1.28 2.473 1.96 5.5 4.504 1.93 1.227 1.648.773 1.37.4 1.38.168 1.37-.1 1.38-.36 1.37-.633 1.38-.906 1.37-1.168 1.648-1.73 1.652-2.047 2.2-3.12 3.027-4.77 5.223-8.4"/></g><g clip-path="url(#e)" class="E F G"><path d="M655.094 93.137l1.922-2.094 1.652-1.48 1.375-.977 1.375-.73 1.375-.484 1.375-.254 1.375-.047 1.648.184 1.926.465 2.75.934 3.848 1.31 1.926.43 1.648.156 1.652-.098 1.375-.297 1.375-.516 1.375-.746 1.375-.98 1.648-1.47 1.648-1.762 2.203-2.72 3.297-4.523 3.3-4.44 1.926-2.27 1.648-1.64 1.375-1.105 1.375-.828 1.375-.53 1.102-.2 1.098.004 1.102.215 1.102.418 1.375.8 1.375 1.094 1.648 1.664 1.926 2.313 2.75 3.715 3.848 5.18 2.2 2.578 1.926 1.883 1.652 1.313 1.648 1.047 1.922.953 2.477.93 7.426 2.574 2.75 1.313 3.297 1.848 4.125 2.277 1.926.8 1.652.422 1.375.11 1.375-.148 1.098-.32 1.375-.664 1.375-.957 1.375-1.238 1.648-1.812 1.926-2.465 7.152-9.516 1.648-1.71 1.648-1.406 1.652-1.105 1.648-.824 1.648-.586 1.926-.43 1.926-.2 1.926.016 1.926.25 1.648.418 1.648.633 1.648.883 1.652 1.152 1.648 1.44 1.652 1.746 1.648 2.05 1.926 2.77 1.926 3.16 2.2 4.027 3.023 6.066 5.5 11.207 1.926 3.406 1.648 2.484 1.375 1.684 1.102 1.055 1.098.78 1.102.488 1.098.195 1.102-.098 1.102-.375 1.098-.64 1.102-.875 1.375-1.38 1.648-1.984 2.477-3.406 6.047-8.508 3.852-4.88 3.848-4.94 2.477-3.562 2.2-3.54 2.477-4.395 3.848-7.375 3.852-7.234 2.2-3.687 1.926-2.8 1.648-2.004 1.375-1.355 1.375-1.04 1.102-.586 1.098-.36 1.102-.12 1.098.12 1.102.367 1.102.617 1.098.86 1.375 1.402 1.375 1.734 1.652 2.457 2.2 3.715 4.398 7.586 1.648 2.38 1.38 1.605 1.102.988 1.098.695 1.102.387.82.082.828-.098 1.102-.395 1.098-.684 1.102-.945 1.37-1.504 1.648-2.18 2.2-3.332 9.082-14.242 4.12-5.78 3.578-4.652 2.47-2.855 1.652-1.625"/></g><g clip-path="url(#f)" class="E F G"><path d="M655.094 85.445l1.375.902 1.375.652 1.375.426 1.375.215 1.375.016 1.648-.21 1.648-.426 1.926-.734 2.2-1.082 3.023-1.773 7.977-4.86 2.75-1.348 2.75-1.117 3.574-1.2L695.238 73l3.027-1.254 3.848-1.87 3.027-1.383 1.648-.543 1.375-.262 1.375-.04 1.375.227 1.102.39 1.098.6 1.375 1.016 1.375 1.31 1.648 1.898 2.203 2.926 5.5 7.56 1.922 2.176 1.652 1.53 1.648 1.21 1.648.922 1.926.793 2.75.832 3.852 1.172 2.473 1.02 2.477 1.266 7.148 3.867 1.926.676 1.648.324 1.375.066 1.375-.145 1.375-.367 1.375-.594 1.375-.828 1.648-1.293 1.652-1.605 1.926-2.203 2.473-3.22 5.777-7.684 1.922-2.117 1.652-1.477 1.375-.95 1.375-.68 1.375-.398 1.098-.113 1.375.11 1.375.37 1.375.605 1.652.984 2.2 1.61 4.398 3.293 1.648.922 1.375.523 1.375.254 1.102-.016 1.098-.22 1.102-.426 1.102-.64 1.375-1.082 1.375-1.38 1.648-2.008 1.926-2.762 2.2-3.578 3.023-5.402 9.898-18.113 2.203-3.402 1.922-2.562 1.652-1.816 1.375-1.21 1.375-.9 1.375-.605 1.098-.262 1.102-.062 1.102.12 1.37.398 1.375.648 1.652 1.06 1.922 1.56 2.203 2.105 2.75 2.973 3.297 3.922 3.852 4.93 7.148 9.266 2.2 2.465 1.926 1.863 1.926 1.563 1.926 1.277 2.2 1.188 6.05 3.055 1.922 1.297 1.926 1.563 2.2 2.074 3.3 3.473 3.848 3.977 2.48 2.234 2.47 1.938 7.98 5.938 2.47 2.344 6.883 7.3 1.918 1.75 1.652 1.234 1.648.945 1.38.55 1.37.336 1.38.133 1.652-.078.27-.04"/></g><g clip-path="url(#g)" class="E F G"><path d="M655.094 69.234l6.047 2.82 1.652 1.13 1.648 1.387 1.926 1.918 2.75 3.11 3.023 3.363 1.648 1.55 1.375 1.04 1.375.766 1.102.395 1.102.2 1.098.004 1.375-.254 1.375-.508 1.648-.898 1.926-1.352 2.477-2.05 3.848-3.535 9.074-8.457 1.926-1.422 1.652-.94 1.375-.53 1.098-.227 1.102-.03 1.098.18 1.102.395 1.102.617 1.375 1.063 1.375 1.363 1.648 1.965 2.2 2.992 4.676 6.465 1.926 2.23 1.648 1.582 1.648 1.266 1.652.977 1.922.863 7.7 3.12 2.477 1.465 5.5 3.398 1.926.89 1.648.55 1.648.344 1.926.16 1.926-.062 2.2-.305 1.926-.47 1.926-.703 1.648-.848 1.648-1.133 1.652-1.453 1.648-1.79 1.926-2.465 2.477-3.582 3.574-5.187 1.648-2.023 1.375-1.37 1.375-1.023 1.102-.55 1.098-.305 1.102-.062 1.098.164 1.102.37 1.375.695 1.926 1.273 3.848 2.63 1.375.66 1.102.332 1.098.12 1.102-.11 1.098-.348 1.102-.6 1.102-.82 1.375-1.316 1.648-1.918 2.477-3.316 4.12-5.555 1.926-2.223 1.926-1.887 1.926-1.562 2.2-1.473 2.75-1.543 4.676-2.328 3.297-1.44 2.75-.957 3.852-1.05 2.477-.79 1.648-.75 1.375-.852 1.375-1.098 1.375-1.383 1.375-1.672 1.648-2.375 1.926-3.18 7.426-12.816 1.648-2.18 1.648-1.79 1.652-1.418 1.648-1.117 2.2-1.184 6.05-3.074 3.848-2.06 1.652-.61 1.375-.258 1.098.008 1.102.22 1.102.45 1.098.676 1.375 1.145 1.652 1.742 2.2 2.723 3.297 4.094 1.652 1.684 1.37 1.11 1.38.805 1.37.516 1.38.266 1.652.1 3.848.117 1.37.3 1.38.55 1.37.824 1.38 1.098 1.652 1.637 2.2 2.53 3.852 4.47 1.918 1.848 1.652 1.277 1.648 1.016 2.2 1.074 3.582 1.707.27.156"/></g><g clip-path="url(#h)" class="F G E"><path d="M655.094 85.688l1.922-.32 1.926-.54 1.926-.78 1.926-1.035 2.2-1.457 5.5-3.852 1.648-.79 1.375-.395 1.102-.12 1.098.063 1.375.328 1.375.574 1.926 1.098 4.125 2.473 1.375.527 1.098.22 1.102.012 1.102-.215 1.098-.437 1.102-.652 1.375-1.094 1.648-1.633 2.477-2.832 3.297-3.75 1.652-1.582 1.648-1.262 1.375-.762 1.375-.48 1.102-.176 1.098.004 1.375.262 1.375.527 1.375.78 1.375 1.023 1.652 1.523 1.922 2.11 2.477 3.105 7.977 10.45 1.648 1.688 1.648 1.37 1.375.883 1.375.652 1.375.438 1.648.29 2.203.14 3.297.207 1.652.344 1.375.488 1.375.688 1.648 1.086 2.2 1.773 3.574 2.95 1.375.86 1.102.473 1.102.238 1.098-.03 1.102-.312 1.098-.605 1.102-.887 1.375-1.473 1.375-1.805 1.926-2.906 4.398-6.81 1.648-2.12 1.652-1.738 1.375-1.14 1.375-.89 1.648-.797 2.2-.762 6.324-1.996 4.125-1.402 1.652-.336 1.375-.1 1.37.12 1.375.344 1.375.57 1.652.953 1.926 1.395 7.7 5.953 2.473 1.43 4.676 2.324 3.023 1.664 4.402 2.742 2.473 1.418 1.926.863 1.648.52 1.926.352 2.477.172 3.023.23 1.652.38 1.375.547 1.37.805 1.375 1.066 1.652 1.613 1.922 2.227 4.402 5.227 1.375 1.254 1.098.75 1.102.484 1.102.188.824-.062.824-.242 1.098-.594 1.102-.898 1.102-1.172 1.375-1.8 1.648-2.55 2.477-4.324 6.324-11.29 3.023-4.816 2.75-3.984 2.477-3.242 1.922-2.203 1.652-1.594 1.375-1.06 1.375-.773 1.098-.39 1.102-.172 1.098.047 1.102.266 1.098.473 1.38.86 1.652 1.344 2.2 2.152 5.5 5.582 2.47 2.11 3.582 2.69 3.02 2.375 2.2 1.996 2.75 2.84 4.13 4.305 1.652 1.38 1.367.86 1.102.457 1.102.223 1.098-.023 1.102-.273"/><path d="M655.094 96.238l.824.06 1.098-.184 1.102-.453 1.375-.87 1.648-1.352 4.676-4.008 1.652-1.074 1.922-.973 6.324-2.84 1.652-1.187 1.648-1.47 2.2-2.31 4.125-4.437 1.648-1.418 1.375-.914 1.375-.645 1.375-.39 1.652-.215 3.3-.07 1.922-.195 1.652-.4 1.648-.668 2.2-1.187 2.75-1.512 1.375-.523 1.102-.2 1.098.043 1.102.32 1.102.617 1.098.914 1.102 1.19 1.375 1.828 1.922 3 3.852 6.164 1.648 2.164 1.375 1.422 1.102.87 1.102.64 1.375.527 1.648.344 4.125.645 1.375.496 1.375.742 1.375.988 1.648 1.46 6.05 5.723 1.375.867 1.375.582 1.375.3 1.375.043 1.648-.203 2.477-.578 3.574-.82 5.773-1.16 1.375-.598 1.375-.863 1.375-1.176 1.375-1.488 1.648-2.176 2.203-3.37 3.574-5.578 1.648-2.125 1.375-1.38 1.102-.81 1.098-.535 1.102-.277 1.098-.043 1.375.21 1.926.578 2.477.723 1.375.152 1.098-.082 1.102-.293 1.098-.508 1.375-.914 1.652-1.4 3.848-3.453 1.102-.69 1.098-.422.828-.113.824.082.824.285.824.496 1.102.977 1.098 1.305 1.375 2.023 1.926 3.31 3.3 5.78 1.375 2.02 1.375 1.62 1.098.96 1.102.66 1.102.37 1.098.105 1.102-.105 1.648-.434 4.125-1.27 1.375-.156 1.375.06 1.648.328 2.203.715 2.473.773 1.375.23 1.375-.008 1.098-.207 1.375-.516 1.375-.773 1.652-1.187 4.676-3.543 1.375-.703 1.375-.426 1.098-.133 1.375.1 1.375.328 1.926.727 3.574 1.418 1.648.375 1.375.105 1.375-.094 1.652-.324 6.047-1.47 1.652-.02 1.648.215 2.2.535 2.75.66 1.375.133 1.375-.1 1.375-.36 1.375-.625 1.652-1.055 5.223-3.687 1.098-.383.832-.105.82.074.828.266.82.477.828.684 1.102 1.227 1.102 1.578 1.367 2.387 1.652 3.336 6.05 12.82 1.648 2.734 1.38 1.867 1.37 1.492 1.38 1.148 1.37.855 1.38.613 1.652.504 1.918.328 1.652.082 1.648-.145.55-.117"/></g><g clip-path="url(#i)" class="E F G"><path d="M655.094 54.258l1.648 1.637 1.648 1.336 2.75 1.867 2.75 1.926 1.926 1.602 2.2 2.117 4.95 4.89 1.652 1.223 1.375.734 1.098.37 1.102.184 1.375-.02 1.375-.25 1.926-.602 3.574-1.187 1.648-.3 1.648-.055 1.652.176 2.473.535 2.75.54 1.652.082 1.375-.14 1.375-.336 1.648-.633 5.5-2.367 1.102-.156 1.098.063 1.102.31 1.098.566 1.102.832 1.375 1.387 1.375 1.715 1.926 2.785 4.398 6.527 1.648 1.984 1.375 1.332 1.375 1.035 1.375.758 1.652.633 3.023.813 1.926.62 1.648.758 1.648 1.008 1.926 1.46 6.05 4.883 1.375.75 1.375.523 1.375.29 1.375.074 1.648-.125 2.477-.45 8.25-1.867 1.375-.582 1.375-.812 1.375-1.094 1.375-1.39 1.375-1.69 1.648-2.367 2.75-4.414 2.477-3.836 1.648-2.13 1.375-1.367 1.098-.78 1.102-.488 1.102-.203 1.098.066 1.102.297 1.375.62 2.2 1.293 2.2 1.238 1.375.55 1.375.293 1.098.027 1.102-.16 1.375-.437 1.648-.785 4.402-2.285 1.375-.398 1.098-.12 1.102.07 1.102.273 1.375.598 1.37.848 1.926 1.46 4.676 3.684 1.926 1.203 2.473 1.27 2.75 1.43 1.652 1.117 1.375 1.195 1.375 1.492 1.375 1.8 1.648 2.555 2.2 3.9 4.95 9.047 1.652 2.484 1.37 1.734 1.375 1.414 1.375 1.117 1.652 1.035 3.3 1.672 1.922 1.156 1.652 1.293 1.648 1.637 1.652 1.96 2.473 3.344 3.023 4.047 1.652 1.82 1.375 1.172 1.098.66 1.102.402 1.102.137 1.098-.125 1.102-.367 1.098-.582 1.375-.996 1.652-1.492 1.922-2.05 2.477-2.953 2.75-3.625 2.477-3.63 2.473-4.027 3.852-6.805 2.473-4.207 1.648-2.437 1.38-1.684 1.102-1.062 1.098-.793 1.102-.516 1.102-.246h1.098l1.102.207 1.648.578 3.3 1.266 1.102.19 1.098-.027 1.102-.293 1.098-.6 1.102-.898 1.102-1.2 1.367-1.883 1.652-2.7 6.328-10.953 1.37-1.73 1.38-1.328 1.102-.777.82-.418"/></g><g clip-path="url(#j)" class="E F G"><path d="M655.094 70.68l2.473.402 1.926.098 1.648-.137 1.652-.367 1.648-.613 1.652-.848 2.195-1.418 5.5-3.766 1.652-.77 1.375-.398 1.375-.13 1.098.098 1.375.37 1.375.637 1.652 1.06 2.2 1.742 4.125 3.348 1.648 1.02 1.375.605 1.375.352 1.375.082 1.375-.168 1.375-.39 1.648-.7 6.328-2.984 1.375-.293 1.375-.047 1.098.156 1.102.348 1.375.695 1.375.984 1.375 1.246 1.648 1.805 2.2 2.797 7.426 9.86 1.648 1.707 1.652 1.402 1.648 1.1 1.648.81 1.926.656 2.477.566 3.848.87 1.926.66 1.926.88 2.2 1.246 6.598 3.988 1.652.613 1.375.262 1.098.016 1.102-.172 1.102-.37 1.098-.574 1.375-.996 1.375-1.293 1.648-1.887 2.203-2.937 5.773-7.973 1.926-2.164 1.648-1.523 1.648-1.207 1.652-.9 1.648-.648 1.926-.5 2.2-.32 2.75-.164 3.3.04 3.023.266 2.477.438 2.2.598 2.2.824 2.2 1.1 2.2 1.36 2.203 1.625 2.746 2.32 5.227 4.477 1.926 1.3 1.648.824 1.375.438 1.375.188 1.375-.066 1.375-.31 1.375-.523 1.648-.848 2.75-1.715 3.3-2 1.926-.926 2.2-.79 6.324-1.97 1.375-.773 1.375-1.03 1.375-1.328 1.375-1.645 1.648-2.375 1.926-3.254 2.477-4.69 4.398-8.402 1.926-3.187 1.648-2.34 1.652-1.945 1.375-1.316 1.375-1.062 1.648-.973 1.648-.695 1.652-.46 1.922-.293 1.926-.04 1.652.176 1.648.395 1.648.645 1.652.918 1.648 1.2 1.652 1.465 1.922 2.008 2.754 3.242 6.05 7.28 2.75 2.9 3.02 2.867 3.3 2.828 2.75 2.098 1.93 1.238 1.648.824 1.37.47 1.38.234 1.37-.03 1.38-.3 1.37-.578 1.38-.82 1.648-1.254 2.473-2.203 2.75-2.484"/></g><g clip-path="url(#k)" class="E F G"><path d="M655.094 110.922l1.375-.105 1.375-.31 1.648-.613 1.926-.992 2.2-1.426 2.2-1.68 2.2-1.937 2.2-2.242 1.926-2.258 1.926-2.574 2.2-3.31 3.023-5.02 4.125-6.844 1.926-2.777 1.648-2.027 1.652-1.648 1.375-1.078 1.375-.824 1.648-.715 1.926-.56 6.598-1.63 3.578-1.344 2.2-.727 1.648-.305 1.375-.004 1.102.2 1.098.406 1.102.625 1.375 1.082 1.375 1.406 1.648 2.035 2.2 3.105 4.125 5.902 1.652 1.992 1.648 1.645 1.375 1.078 1.375.836 1.648.746 2.2.72 3.578 1.133 1.922.848 1.926 1.074 3.027 1.988 3.023 1.906 1.926.945 1.648.574 1.648.34 1.652.12 1.926-.086 2.2-.344 2.2-.566 1.926-.71 1.648-.824 1.648-1.086 1.652-1.39 1.648-1.715 1.652-2.027 2.2-3.086 5.223-7.562 1.652-1.887 1.375-1.21 1.098-.695 1.102-.43 1.098-.156 1.102.12 1.102.383 1.098.63 1.375 1.1 1.652 1.66 2.2 2.6 3.848 4.594 1.926 1.926 1.648 1.31 1.375.816 1.375.55 1.375.293 1.375.03 1.375-.22 1.375-.453 1.375-.676 1.648-1.086 1.652-1.363 1.926-1.898 2.473-2.812 5.777-6.812 1.648-1.547 1.375-1.008 1.375-.703 1.098-.32 1.102-.094 1.102.125 1.098.336 1.375.684 1.652 1.117 2.75 2.223 2.2 1.672 1.375.816 1.37.543 1.102.203 1.102-.023 1.098-.262 1.102-.496 1.098-.73 1.375-1.207 1.375-1.5 1.652-2.117 2.2-3.195 3.848-6.074 5.227-8.164 3.023-4.34 2.203-2.812 1.922-2.1 1.375-1.21 1.375-.918 1.102-.496 1.098-.262 1.102-.008 1.102.25 1.098.52 1.102.78 1.098 1.035 1.375 1.62 1.652 2.375 1.926 3.227 2.75 5.145 6.32 12.027 3.03 5.19 2.75 4.31 2.47 3.508 2.2 2.75 1.93 2.03 1.652 1.395 1.367.87 1.383.574 1.098.234 1.102.03 1.098-.172 1.102-.375 1.37-.727 1.38-.98 1.648-1.46 2.203-2.28 3.848-4.398 1.922-2.22"/></g><g clip-path="url(#l)" class="E F G"><path d="M655.094 90.602l2.473 1.207 2.2 1.13 1.375.918 1.375 1.18 1.375 1.477 1.375 1.79 1.652 2.492 5.496 8.723 1.102 1.266 1.102.934.824.445.824.21.824-.04.824-.297.828-.555.824-.805 1.098-1.445 1.102-1.828 1.375-2.738 1.926-4.453 6.598-15.984 1.926-3.84 1.926-3.31 1.926-2.81 1.922-2.39 1.926-2.023 1.648-1.445 1.652-1.14 1.375-.676 1.098-.328 1.102-.117 1.102.12 1.098.375 1.102.63 1.098.883 1.375 1.438 1.652 2.145 2.2 3.316 3.574 5.438 1.648 2.12 1.375 1.453 1.375 1.145 1.375.844 1.375.582 1.652.46 4.12 1.004 1.652.71 1.648 1.004 1.652 1.29 2.473 2.285 3.027 2.762 1.648 1.195 1.375.72 1.375.445 1.375.172 1.375-.06 1.648-.3 3.852-1.043 2.75-.582 4.398-.812 1.375-.5 1.375-.75 1.375-1.05 1.375-1.383 1.375-1.71 1.648-2.426 2.477-4.117 2.75-4.492 1.648-2.242 1.102-1.187 1.098-.89 1.102-.57.824-.207.824-.023.828.152 1.098.46 1.102.71 1.375 1.16 5.223 4.82 1.102.633 1.098.383 1.102.105 1.098-.184 1.102-.465 1.102-.72 1.375-1.207 1.648-1.766 4.95-5.555 1.652-1.395 1.37-.875 1.375-.602 1.375-.355 1.652-.156 1.926.07 4.95.547 6.047.703 2.203.56 1.922.71 2.477 1.16 4.398 2.13 1.926.668 1.926.418 2.2.223 3.848.336 1.375.34 1.375.56 1.375.816 1.375 1.1 1.652 1.64 2.2 2.582 3.3 3.895 1.375 1.297 1.098.79 1.102.523 1.098.227.828-.03 1.098-.305 1.102-.594 1.098-.844 1.375-1.324 2.477-2.777 2.2-2.34 1.375-1.164 1.102-.69 1.098-.445 1.102-.19 1.098.05 1.102.262 1.375.57 2.75 1.484 1.648.77 1.375.383 1.102.07 1.098-.184 1.098-.45 1.102-.72 1.102-.977 1.38-1.54 1.648-2.2 3.3-4.914 2.47-3.48 1.93-2.293 1.652-1.63 1.648-1.324 1.922-1.254 2.75-1.484 8.25-4.105 1.648-.555 1.38-.27 1.37-.06 1.102.113"/></g><g clip-path="url(#m)" class="E F G"><path d="M655.094 88.535l1.098-.652 1.375-1.113 1.926-1.918 3.3-3.336 1.375-1.094 1.375-.8 1.098-.39 1.102-.172 1.098.047 1.375.324 1.652.69 5.773 2.77 1.375.262 1.375-.004 1.375-.285 1.375-.55 1.375-.78 1.926-1.387 4.125-3.39 2.75-2.07 2.473-1.566 3.027-1.637 5.496-2.687 1.926-.742 1.652-.402 1.375-.098 1.098.12 1.102.316 1.098.535 1.102.758 1.375 1.25 1.375 1.56 1.926 2.555 6.047 8.395 1.652 1.77 1.375 1.195 1.375.934 1.648.832 1.926.703 4.398 1.516 1.926.97 1.926 1.238 2.75 2.1 2.75 2.04 1.648.992 1.648.73 1.375.38 1.375.184 1.652-.016 1.922-.254 3.027-.652 3.848-1.035 1.926-.734 1.648-.88 1.375-.973 1.375-1.23 1.375-1.496 1.652-2.133 2.2-3.27 4.125-6.293 1.648-2.062 1.375-1.344 1.102-.79 1.098-.508 1.102-.22 1.102.07 1.098.348 1.102.602 1.375 1.07 1.375 1.36 1.926 2.242 6.047 7.367 1.926 1.86 1.648 1.3 1.652 1.035 1.922.93 2.203.81 6.598 2.242 2.2 1.078 2.2 1.344 2.203 1.617 2.473 2.113 3.852 3.652 3.023 2.758 1.926 1.45 1.375.785 1.375.516 1.098.195 1.102-.023 1.102-.25 1.098-.477 1.102-.7 1.375-1.164 1.648-1.762 1.926-2.406 5.223-6.762 1.652-1.738 1.648-1.426 1.648-1.113 1.926-.988 5.5-2.516 1.648-1.152 1.652-1.477 1.648-1.8 2.2-2.805 4.676-6.125 1.375-1.43 1.375-1.11 1.102-.617 1.098-.363 1.102-.105 1.098.14 1.102.363 1.375.707 1.926 1.31 3.574 2.516 1.375.703 1.375.44 1.098.133 1.098-.07 1.102-.27 1.38-.598 1.652-1.027 2.2-1.68 3.02-2.285 1.648-.937 1.383-.5 1.098-.18 1.102.04 1.098.258 1.102.48 1.102.7 1.367 1.145 1.652 1.72 2.2 2.69 4.68 5.914 1.648 1.69 1.37 1.098 1.102.637 1.098.39 1.102.137.55-.03"/></g><g clip-path="url(#n)" class="E F G"><path d="M655.094 53.063l3.574-.187 1.926.11 1.648.32 1.375.473 1.375.68 1.648 1.102 1.648 1.387 2.203 2.195 6.047 6.305 1.926 1.56 1.652 1.05 1.648.8 1.926.66 2.2.508 3.848.617 4.402.547 2.2.066 1.926-.164 1.922-.426 1.926-.66 5.777-2.203 1.375-.172 1.098.063 1.102.27 1.098.496 1.102.73 1.375 1.23 1.375 1.547 1.926 2.563 6.047 8.5 1.652 1.813 1.648 1.45 1.652 1.102 1.648.816 2.2.813 4.125 1.477 2.2 1.063 2.477 1.465 6.047 3.754 1.926.883 1.926.62 1.926.352 1.922.102 1.926-.13 1.926-.344 1.926-.578 1.648-.715 1.648-.96 1.652-1.238 1.648-1.543 1.652-1.848 1.922-2.5 3.3-4.758 2.477-3.43 1.648-1.957 1.375-1.32 1.375-.988 1.102-.54 1.098-.305 1.102-.1 1.098.113 1.375.375 1.652.71 6.598 3.195 1.648.418 1.652.188 1.926-.02 2.473-.28 6.324-.844 6.602-.684 2.473-.523 3.578-1.023 3.297-.87 1.926-.3 1.926-.082 2.2.16 7.148.793 1.652-.168 1.648-.38 1.926-.664 5.223-1.973 1.375-.238 1.375-.004 1.102.195 1.098.383 1.375.746 1.375 1.03 1.652 1.574 1.922 2.207 2.477 3.207 8.523 11.695 9.902 13.508 1.648 1.695 1.375 1.1 1.102.617 1.098.375 1.102.113 1.098-.145 1.102-.402 1.098-.64 1.375-1.098 1.652-1.664 2.203-2.586 4.95-5.934 2.47-2.555 3.3-3.047 3.3-3.105 2.48-2.64 3.02-3.61 3.578-4.246 1.922-1.918 1.38-1.094 1.37-.812 1.098-.434 1.102-.234 1.102-.047 1.38.184.82.223"/></g><g clip-path="url(#o)" class="E F G"><path d="M655.094 78.727l1.648-.062 1.648.156 1.652.39 1.648.617 1.926.957 5.773 3.066 1.375.418 1.375.18 1.102-.05 1.098-.234 1.375-.547 1.375-.81 1.652-1.258 2.2-1.988 3.848-3.54 1.926-1.45 1.648-.96 1.652-.703 1.926-.54 2.473-.426 3.574-.613 2.2-.63 2.477-.96 3.852-1.56 1.648-.402 1.375-.1 1.102.13 1.098.332 1.102.55 1.098.77 1.375 1.258 1.652 1.887 1.922 2.586 5.777 8.043 1.648 1.824 1.652 1.473 1.375.953 1.648.875 1.922.75 5.5 1.977 2.203 1.125 6.87 4.242 1.926.94 1.926.695 1.926.453 1.926.22h1.922l1.926-.23 1.652-.398 1.648-.63 1.648-.902 1.375-.992 1.652-1.5 1.648-1.82 1.926-2.453 3.848-5.395 2.477-3.242 1.648-1.828 1.375-1.242 1.375-.953 1.375-.656 1.375-.367 1.375-.105 1.375.11 1.926.406 4.398 1.07 1.375.094 1.375-.125 1.375-.375 1.375-.633 1.375-.89 1.648-1.36 2.203-2.16 4.672-4.738 1.926-1.6 1.648-1.1 1.652-.855 1.926-.754 7.422-2.605 5.777-2.566 1.375-.293 1.098-.04 1.102.172 1.098.4 1.102.672 1.102.934 1.098 1.195 1.375 1.828 1.652 2.613 2.2 3.953 4.398 8.023 1.926 2.988 1.648 2.152 1.648 1.75 1.652 1.37 1.648 1.05 1.652.8 1.922.7 2.2.55 1.926.266h1.652l1.375-.207 1.375-.45 1.375-.73 1.375-1.043 1.375-1.367 1.375-1.687 1.648-2.383 2.2-3.625 4.676-7.848 1.648-2.328 1.652-1.93 1.375-1.277 1.375-.992 1.375-.734 1.648-.613 2.2-.54 7.977-1.492 1.652-.105 1.367.11 1.383.352 1.098.484 1.37.883 1.38 1.19 1.37 1.477 1.93 2.44 6.32 8.46 1.648 1.672 1.652 1.316 1.648.992 1.93.863 4.672 1.918"/></g><g clip-path="url(#p)" class="E F G"><path d="M655.094 71.398l1.922-1.582 3.027-2.547 1.375-.895 1.098-.504 1.102-.277 1.102-.04 1.098.2 1.102.422 1.37.78 1.926 1.406 3.027 2.246 1.375.766 1.375.484 1.098.156 1.102-.055 1.098-.254 1.375-.555 1.926-1.082 3.3-1.94 1.375-.574 1.375-.332 1.375-.062 1.375.203 1.375.434 1.926.852 3.023 1.375 1.648.473 1.375.145 1.375-.102 1.375-.328 1.926-.72 3.023-1.148 1.375-.258 1.102.016 1.102.25 1.098.512 1.102.79 1.098 1.047 1.375 1.633 1.926 2.723 4.676 6.895 1.648 1.95 1.375 1.293 1.375.984 1.375.703 1.652.566 4.945 1.438 1.652.84 1.648 1.125 1.926 1.613 4.95 4.355 1.375.875 1.375.613 1.375.34 1.375.074 1.375-.145 1.926-.457 5.5-1.488 5.223-1.113 1.375-.594 1.375-.87 1.375-1.184 1.375-1.523 1.375-1.844 1.926-3.016 4.95-8.14 1.375-1.758 1.102-1.094 1.098-.773.824-.355.828-.152.824.043.824.23 1.102.6 1.098.867 1.375 1.395 2.2 2.64 2.75 3.266 1.375 1.332 1.375 1.016 1.102.543 1.098.297 1.102.06 1.098-.164 1.375-.465 1.652-.832 6.05-3.383 1.922-.68 2.477-.594 3.574-.832 1.648-.613 1.652-.848 1.648-1.105 1.926-1.586 2.473-2.352 6.05-5.87 5.777-5.387 2.2-2.46 2.2-2.824 6.324-8.457 1.375-1.293 1.098-.738 1.102-.434.824-.105.824.1.828.285 1.098.676 1.102.988 1.375 1.613 1.648 2.348 5.5 8.234 1.375 1.566 1.375 1.242 1.375.93 1.375.668 1.926.664 2.473.875 1.375.746 1.102.82 1.098 1.07 1.102 1.348 1.375 2.082 1.375 2.512 1.648 3.488 2.477 5.852 3.574 8.47 1.926 3.95 1.652 2.832 1.37 1.926 1.38 1.54 1.37 1.176 1.38.855 1.37.582 1.38.363 1.648.19 1.652-.043 1.648-.285 1.37-.445 1.38-.676 1.37-.937 1.38-1.242 1.37-1.562 1.38-1.89 1.648-2.66 1.922-3.54 6.602-12.61 1.648-2.504.55-.738"/></g><g clip-path="url(#q)" class="E F G"><path d="M655.094 88.254l1.922 1.996 1.926 1.69 1.926 1.4 2.2 1.324 1.926.906 1.648.547 1.375.227h1.102l1.098-.203 1.102-.434 1.098-.687 1.102-.957 1.102-1.23 1.375-1.914 1.648-2.777 2.2-4.27 3.852-7.57 1.648-2.687 1.375-1.793 1.102-1.102 1.098-.793 1.102-.496 1.098-.23 1.102-.008 1.375.227 5.227 1.152 1.37-.06 1.375-.293 1.652-.61 4.95-2.117 1.102-.16 1.098.066 1.102.332 1.098.61 1.102.887 1.102 1.148 1.37 1.75 1.926 2.855 4.125 6.27 1.652 2.03 1.375 1.348 1.375 1.02 1.375.73 1.648.574 5.773 1.633 1.648.906 1.652 1.188 2.2 1.902 3.852 3.39 1.648 1.145 1.375.715 1.375.47 1.375.234 1.648.02 1.926-.23 4.676-.9 4.398-.937 1.648-.602 1.375-.738 1.375-1 1.375-1.293 1.375-1.582 1.652-2.234 2.473-3.78 2.75-4.168 1.652-2.113 1.375-1.402 1.098-.848 1.102-.6 1.098-.344 1.102-.113 1.375.113 1.648.387 3.027.746 1.375.066 1.098-.168 1.102-.395 1.098-.64 1.102-.887 1.375-1.406 1.648-2.027 4.125-5.258 1.375-1.305 1.102-.738 1.098-.422.828-.1.824.098.824.28 1.102.645 1.098.89 1.648 1.664 3.027 3.172 1.375 1.082 1.098.555.828.203.824-.004.824-.215.824-.43 1.102-.895 1.098-1.227 1.375-1.918 1.926-3.148 3.3-5.457 1.375-1.875 1.098-1.21 1.102-.922 1.102-.617 1.098-.312 1.102-.035 1.098.215 1.375.547 1.652.94 10.723 6.953 1.648 1.44 1.375 1.484 1.375 1.793 1.652 2.57 1.648 3 2.2 4.516 6.602 14 2.2 3.945 2.2 3.465 2.477 3.465 3.297 4.22 2.75 3.195 1.652 1.64 1.375 1.1 1.098.625 1.102.348.824.055.824-.137.828-.348.824-.562 1.098-1.1 1.102-1.47 1.098-1.832 1.38-2.727 1.922-4.437 5.5-13.277 1.648-3.223 1.38-2.23 1.37-1.805 1.38-1.414 1.37-1.102 1.93-1.2 3.57-2.117 1.648-1.273 1.652-1.55 1.93-2.113 4.668-5.305 1.383-1.19 1.367-.88 1.102-.445.55-.14"/></g><g clip-path="url(#r)" class="E F G"><path d="M655.094 97.56l3.574-6.25 1.926-2.89 1.375-1.723 1.375-1.375 1.098-.824 1.102-.566 1.098-.3 1.102-.035 1.098.215 1.102.453 1.375.855 1.648 1.375 2.2 2.18 3.027 2.98 1.648 1.285 1.102.625 1.098.39 1.102.133 1.098-.148 1.102-.44 1.102-.727 1.098-1.008 1.375-1.625 1.375-1.97 1.926-3.2 4.125-7.535 2.2-3.746 1.648-2.45 1.652-2.04 1.375-1.344 1.098-.816 1.102-.586 1.102-.348 1.098-.113 1.102.117 1.098.34 1.102.55 1.375.973 1.375 1.254 1.648 1.828 2.2 2.824 6.602 8.793 1.926 2.105 1.648 1.523 1.652 1.246 1.648.996 1.922.918 2.75 1.023 5.777 2.05 2.75 1.242 3.023 1.617 6.324 3.508 1.652.656 1.375.352 1.375.13 1.098-.1 1.102-.277 1.098-.473 1.102-.68 1.375-1.13 1.375-1.418 1.648-2.03 2.477-3.473 3.848-5.434 1.926-2.305 1.652-1.62 1.375-1.078 1.37-.84 1.652-.734 1.926-.582 7.148-1.824 2.477-1.03 7.148-3.195 1.922-.516 1.652-.242 1.648-.043 1.926.19 1.926.422 2.2.723 2.75 1.16 4.95 2.406 3.3 1.488 2.2.766 1.926.434 1.648.156 1.648-.07 1.652-.29 1.926-.578 3.023-1.215 2.477-.906 1.648-.355 1.375-.047 1.098.164 1.102.37 1.098.594 1.102.813 1.375 1.324 1.375 1.633 1.926 2.688 5.773 8.504 1.375 1.523 1.102.94 1.098.66 1.102.355.824.06.824-.12.824-.3 1.102-.66 1.102-.945 1.375-1.52 1.648-2.223 2.477-3.82 3.574-5.535 1.922-2.547 1.652-1.773 1.375-1.148 1.375-.82 1.098-.422 1.102-.21 1.102-.008 1.098.184 1.375.484 1.375.734 1.652 1.168 1.922 1.676 2.477 2.488 6.05 6.23 2.2 1.895 2.203 1.586 2.2 1.305 3.848 1.953 2.75 1.53 1.922 1.313 2.2 1.793 3.03 2.832 2.75 2.508 1.648 1.21 1.37.71 1.102.313 1.098.055 1.102-.23"/></g><g clip-path="url(#s)" class="E F G"><path d="M655.094 118.395l7.422 9.512 1.926 1.96 1.652 1.336 1.375.828 1.098.453 1.098.246 1.102.027 1.102-.2 1.098-.437 1.102-.684 1.098-.945 1.102-1.203 1.375-1.875 1.375-2.29 1.375-2.695 1.648-3.738 1.926-4.98 2.2-6.34 8.25-24.605 1.926-4.637 1.648-3.367 1.375-2.34 1.375-1.914 1.375-1.504 1.102-.914 1.098-.684 1.102-.457 1.102-.254 1.098-.066 1.375.168 1.375.418 1.375.656 1.375.89 1.652 1.36 1.648 1.656 1.926 2.254 2.473 3.258 5.5 7.387 1.926 2.113 1.648 1.46 1.648 1.13 1.652.824 1.648.574 5.777 1.367 1.922.69 2.203 1.055 6.598 3.863 1.926.86 1.648.484 1.375.2 1.375.004 1.375-.2 1.375-.406 1.375-.61 1.648-.996 1.652-1.277 1.926-1.82 1.922-2.133 2.477-3.105 7.7-10.02 1.648-1.625 1.375-1.05 1.102-.605 1.102-.363 1.098-.105 1.102.172 1.098.47 1.102.77 1.102 1.078 1.098 1.37 1.375 2.113 1.375 2.512 1.926 4.047 3.023 7.047 2.75 6.22 1.648 3.23 1.375 2.23 1.102 1.43 1.102 1.07.824.563.824.344.824.133.824-.07.828-.273 1.098-.645 1.102-.934 1.375-1.496 1.922-2.512 4.953-6.707 1.648-1.785 1.375-1.21 1.375-.953 1.648-.848 1.652-.586 3.023-.773 2.477-.73 1.922-.832 1.652-.945 1.926-1.375 2.2-1.855 4.12-3.863 8.25-7.926 1.926-2.273 1.652-2.27 1.648-2.625 1.648-3.004 1.926-3.965 2.2-5.047 8.25-19.613L875.63 31l1.648-2.633 1.375-1.79 1.375-1.406 1.102-.848 1.098-.594 1.102-.355 1.102-.113 1.098.117 1.102.34 1.098.543 1.375.95 1.375 1.22 1.652 1.762 2.2 2.723 8.25 10.68 1.922 1.965 2.2 1.914 3.03 2.29 2.75 2.137 1.918 1.777 1.652 1.81 1.648 2.117 1.93 2.832 6.32 10.418 1.652 2.348 1.38 1.64.82.816"/></g><g clip-path="url(#t)" class="E F G"><path d="M655.094 89.664l1.648-.652 2.2-1.14 3.574-1.87 1.926-.723 1.652-.37 1.648-.14 1.922.066 5.227.383 1.648-.2 1.375-.387 1.375-.613 1.375-.836 1.652-1.27 2.2-2.023 5.223-5 1.926-1.445 1.652-.957 1.648-.703 1.926-.547 2.75-.488 3.848-.695 6.602-1.39 1.375.03 1.098.207 1.102.406 1.102.617 1.098.84 1.375 1.34 1.648 1.988 1.926 2.695 5.227 7.547 1.648 1.887 1.375 1.258 1.375.97 1.375.72 1.648.613 3.027.813 2.2.69 1.648.723 1.926 1.105 3.023 2.082 2.477 1.61 1.648.848 1.652.6 1.375.277 1.648.082 1.926-.18 2.473-.492 3.578-.95 2.2-.797 1.648-.82 1.375-.898 1.375-1.145 1.375-1.414 1.648-2.062 1.926-2.844 6.324-9.89 1.375-1.54 1.102-.914 1.098-.594.828-.21.824-.012.824.203.824.418.824.63 1.102 1.156 1.102 1.5 1.375 2.32 1.648 3.336 1.926 4.44 5.773 13.766 1.648 3.164 1.375 2.148 1.102 1.348 1.098 1.004 1.102.656.824.262.824.078.828-.098 1.098-.37 1.102-.617 1.375-1.03 2.2-1.977 2.473-2.164 1.375-.93 1.102-.516 1.102-.273 1.098.008.824.2 1.102.53 1.102.832 1.098 1.113 1.375 1.754 1.648 2.52 2.477 4.277 3.023 5.156 1.652 2.39 1.375 1.625 1.098 1.012 1.102.742 1.102.465 1.098.2 1.098-.055 1.102-.277 1.375-.613 1.648-1.016 3.027-2.223 2.75-1.93 2.2-1.277 2.477-1.164 4.12-1.89 1.926-1.18 1.652-1.285 1.648-1.562 1.926-2.156 2.473-3.145 4.125-5.277 1.652-1.773 1.375-1.215 1.375-.934 1.375-.637 1.098-.297 1.375-.113 1.375.14 1.652.434 2.2.88 4.672 1.977 1.93.535 1.648.254 1.922.06 2.2-.2 3.3-.586 3.3-.53 2.2-.133 2.2.11 2.2.348 7.152 1.38 1.38-.05 1.37-.266 1.38-.52 1.37-.805 1.38-1.102.82-.8"/></g><g clip-path="url(#u)" class="E F G"><path d="M655.094 76.516l1.648.457 2.2.863 3.852 1.547 1.926.523 1.922.277 1.926.047 3.023-.184 3.027-.133 2.2.125 2.473.39 4.676.828 1.648.03 1.375-.172 1.375-.387 1.375-.613 1.375-.84 1.652-1.27 2.2-2.023 6.05-5.79 1.648-1.223 1.648-.937 1.375-.53 1.375-.297 1.375-.05 1.375.2 1.375.453 1.375.7 1.375.94 1.652 1.438 1.648 1.734 2.2 2.676 3.027 4.098 3.848 5.195 1.926 2.254 1.648 1.633 1.648 1.3 1.375.828 1.375.602 1.652.465 1.926.28 5.223.582 1.652.484 1.648.738 1.648.98 2.2 1.61 3.852 2.918 1.375.793 1.375.527 1.102.188 1.098-.06 1.102-.312 1.098-.578 1.102-.832 1.375-1.375 1.375-1.687 1.926-2.746 5.223-7.738 1.652-2 1.648-1.645 1.375-1.1 1.648-1 1.652-.73 2.2-.7 7.7-2.195 3.574-1.05 1.926-.34 1.648-.086 1.648.14 1.652.375 1.648.598 1.926.93 2.477 1.465 3.297 2.254 3.027 2.313 2.473 2.156 2.2 2.207 2.203 2.504 3.023 3.824 3.574 4.492 1.648 1.766 1.375 1.203 1.375.895 1.102.47 1.102.234h1.098l1.102-.23 1.098-.437 1.375-.8 1.652-1.25 3.023-2.668 2.473-2.07 1.652-1.133 1.648-.863 1.652-.582 1.648-.32 1.648-.098 2.203.11 3.574.46 7.148 1.16 5.773.984 1.652.047 1.375-.148 1.375-.37 1.375-.64 1.375-.934 1.375-1.234 1.375-1.52 1.648-2.137 2.75-4.008 2.75-3.895 1.648-1.94 1.375-1.25 1.102-.707 1.098-.434 1.098-.148 1.102.137 1.102.395 1.098.63 1.38 1.05 1.922 1.81 4.13 3.988 1.652 1.23 1.367.754 1.383.488 1.367.21 1.383-.04 1.367-.258 1.652-.535 2.2-.97 5.5-2.805 6.05-2.914"/></g><g clip-path="url(#v)" class="E F G"><path d="M655.094 104.664l6.598 1.332 1.926.03 1.648-.184 1.926-.45 2.473-.828 6.602-2.348 3.574-1.23 1.652-.793 1.375-.867 1.37-1.125 1.375-1.414 1.375-1.73 1.652-2.492 1.926-3.4 2.473-4.9 3.852-7.676 1.926-3.328 1.648-2.38 1.375-1.594 1.375-1.223 1.098-.703 1.102-.473 1.102-.25 1.098-.043 1.102.145 1.375.422 1.375.668 1.648 1.086 1.652 1.375 1.922 1.922 2.2 2.55 2.75 3.582 5.777 7.664 1.926 2.086 1.648 1.445 1.375.934 1.375.688 1.375.46 1.648.31 2.2.16 3.027.227 1.648.34 1.648.578 1.652.844 1.922 1.285 3.027 2.38 2.2 1.625 1.375.793 1.375.53 1.102.188 1.098-.047 1.102-.297 1.098-.555 1.102-.812 1.375-1.34 1.375-1.664 1.926-2.715 5.773-8.484 1.648-1.922 1.652-1.56 1.375-1.027 1.648-.934 1.648-.687 2.477-.754 11-2.887 1.922-.11 1.652.113 1.926.348 5.773 1.258 1.375.012 1.375-.203 1.375-.44 1.375-.684 1.648-1.098 1.926-1.566 5.227-4.4 1.648-1.05 1.648-.8 1.652-.566 2.2-.5 3.574-.8 1.648-.61 1.652-.855 1.648-1.117 1.926-1.574 4.95-4.234 1.648-1.03 1.375-.582 1.375-.31 1.375-.035 1.375.2 1.652.473 4.398 1.434 1.375.18 1.375-.06 1.375-.316 1.375-.582 1.648-.996 2.2-1.66 3.578-2.746 1.648-.977 1.375-.582 1.375-.352 1.375-.133 1.648.082 2.2.367 3.578.62 1.922.082 1.926-.16 2.2-.434 4.95-1.1 1.926-.148 1.93.082 2.47.36 3.3.477 1.648.043 1.652-.176 1.648-.406 2.2-.816 3.3-1.266 1.38-.293 1.102-.035 1.098.184 1.102.438 1.102.715 1.098 1.004 1.102 1.29 1.37 1.984 1.648 2.87 1.93 3.84 4.12 8.922"/></g><g clip-path="url(#w)" class="E F G"><path d="M655.094 96.965l1.375.98 1.648.89 1.926.75 2.75.793 3.848.863 2.2.31 1.652.03 1.375-.16 1.375-.38 1.375-.633 1.375-.914 1.375-1.207 1.375-1.488 1.648-2.133 1.926-2.87 3.297-5.422 3.027-4.86 1.926-2.742 1.922-2.34 1.652-1.668 1.648-1.37 1.926-1.28 2.2-1.176 3.023-1.332 2.75-.977 1.926-.465 1.652-.148 1.375.11 1.375.37 1.098.512 1.375.926 1.375 1.238 1.648 1.844 1.926 2.523 6.602 9.04 1.648 1.738 1.652 1.39 1.648 1.055 1.648.777 2.2.762 4.676 1.52 2.2 1.023 2.75 1.586 4.125 2.414 1.926.88 1.648.54 1.652.324 1.648.105 1.926-.105 1.926-.324 1.922-.543 1.926-.79 1.648-.93 1.652-1.207 1.648-1.52 1.652-1.836 1.922-2.492 2.75-3.984 3.027-4.312 1.648-1.996 1.375-1.363 1.375-1.027 1.102-.57 1.098-.328 1.102-.098 1.098.133 1.102.348 1.375.7 1.375.945 1.926 1.617 4.95 4.38 1.375.898 1.375.63 1.098.27 1.102.043 1.098-.19 1.102-.426 1.102-.645 1.375-1.094 1.648-1.648 2.2-2.555 3.574-4.2 1.652-1.63 1.375-1.102 1.375-.832 1.375-.54 1.375-.246 1.375.02 1.375.25 1.648.543 2.473 1.094 3.3 1.44 1.652.5 1.648.258h1.375l1.375-.21 1.375-.418 1.648-.742 1.926-1.137 6.324-3.996 1.375-.5 1.102-.207 1.098-.004 1.102.21 1.098.445 1.102.68 1.102.914 1.375 1.453 1.648 2.137 1.926 2.902 6.324 9.914 1.648 2.047 1.652 1.672 1.375 1.098 1.648 1.008 1.926.86 5.223 2.102 1.652 1.02 1.648 1.313 1.648 1.598 2.203 2.473 4.398 5.07 1.648 1.512 1.38.953 1.098.523 1.102.3 1.102.066 1.098-.156 1.102-.367 1.37-.72 1.648-1.172 2.2-1.9 8.25-7.508 3.582-3.21 2.2-2.3 1.918-2.348 1.93-2.7 2.203-3.504 2.75-4.855.27-.504"/></g><g clip-path="url(#x)" class="E F G"><path d="M655.094 67.53l1.922 3.148 1.926 2.723 1.652 1.96 1.648 1.605 1.648 1.27 1.652.977 1.926.86 3.023 1.035 3.297 1.18 2.477 1.12 5.773 2.766 1.375.375 1.375.137 1.102-.102 1.098-.305 1.102-.52 1.102-.738 1.375-1.215 1.375-1.508 1.922-2.492 6.875-9.398 1.652-1.648 1.375-1.05 1.375-.73 1.098-.348 1.102-.14 1.098.06 1.102.254 1.375.566 1.375.828 1.648 1.305 1.652 1.598 1.922 2.172 2.477 3.14 6.875 8.953 1.926 2.004 1.648 1.398 1.648 1.1 1.652.8 1.648.555 2.2.477 4.402.852 1.922.62 1.926.863 2.2 1.262 6.875 4.273 1.375.496 1.375.242 1.102-.023 1.098-.227 1.102-.45 1.102-.668 1.37-1.14 1.375-1.45 1.652-2.082 6.05-8.72 1.922-2.375 1.652-1.684 1.648-1.328 1.648-.992 1.652-.715 1.926-.594 3.297-.73 7.426-1.402 2.473-.223 2.477-.004 7.977.61 3.023-.008 9.898-.28 4.125.035 1.926-.238 1.648-.453 1.375-.598 1.375-.81 1.652-1.246 1.922-1.773 6.05-5.895 1.375-.906 1.102-.492 1.098-.25 1.102.004 1.098.273 1.102.54 1.098.805 1.375 1.344 1.375 1.68 1.652 2.375 2.2 3.586 11.273 19.1 4.676 7.13 3.852 5.508 2.746 3.57 2.477 2.84 2.2 2.184 2.2 1.867 2.203 1.563 2.2 1.293 2.2 1.03 1.926.684 1.922.453 1.93.203 1.648-.04 1.922-.293 1.93-.52 3.02-1.1 3.03-1.05 1.918-.45 1.93-.207 1.922.03 5.23.27 1.367-.28 1.102-.46 1.102-.72 1.098-1.02 1.102-1.352 1.098-1.707 1.102-2.07 1.38-3.1 1.652-4.39.27-.793"/></g><g clip-path="url(#y)" class="E F G"><path d="M655.094 80.273l3.023 2.79 3.023 2.69 1.652 1.2 1.375.777 1.375.53 1.375.273 1.37.016 1.375-.234 1.375-.457 1.652-.785 2.2-1.328 7.977-5.113 3.297-1.695 6.602-3.312 3.3-1.977 7.973-4.988 1.648-.71 1.375-.395 1.375-.176 1.375.074 1.102.258 1.375.578 1.375.875 1.375 1.152 1.648 1.72 1.926 2.363 3.023 4.16 3.578 4.855 1.922 2.285 1.652 1.676 1.648 1.37 1.648 1.074 1.652.79 1.648.563 2.2.5 4.95 1.012 1.926.668 1.926.906 2.2 1.313 6.05 3.82 1.375.54 1.375.297 1.098.023 1.102-.176 1.102-.39 1.098-.605 1.375-1.047 1.375-1.348 1.648-1.95 2.203-2.984 5.223-7.234 1.926-2.21 1.648-1.574 1.652-1.258 1.648-.96 1.648-.7 1.926-.55 2.477-.453 5.5-.9 2.2-.652 1.922-.816 1.926-1.086 1.926-1.38 1.926-1.668 2.2-2.25 2.477-2.89 4.125-5.27 3.023-3.727 2.2-2.352 1.648-1.46 1.652-1.148 1.375-.7 1.375-.46 1.375-.223 1.375-.004 1.375.2 1.648.46 1.926.773 2.75 1.38 6.05 3.113 2.473 1.008 2.2.68 2.2.438 1.926.172L849.23 58l2.2-.28 2.477-.57 6.87-1.758 1.652-.137 1.648.086 1.652.328 1.648.578 1.648.813 1.926 1.184 3.027 2.164 4.12 2.918 2.477 1.48 3.023 1.535 3.852 1.94 1.926 1.207 1.922 1.492 1.93 1.824 1.918 2.145 2.48 3.12 4.672 6 1.648 1.77 1.38 1.21 1.37.918 1.102.5 1.098.28 1.102.06 1.102-.16 1.098-.37 1.38-.723 1.37-.973 1.93-1.668 5.77-5.305 1.652-1.086 1.38-.625 1.102-.293 1.098-.1 1.102.117.82.22"/></g><g clip-path="url(#z)" class="E F G"><path d="M655.094 77.594l3.848-2.715 1.375-.7 1.102-.363 1.098-.14 1.102.102 1.102.355 1.098.61 1.102.852 1.37 1.348 1.926 2.27 3.852 4.695 1.375 1.336 1.098.828 1.102.582 1.102.316 1.098.047 1.102-.22 1.098-.46 1.375-.87 1.652-1.37 2.473-2.437 4.125-4.07 2.477-2.11 3.3-2.48 5.773-4.027 1.926-1.125 1.648-.7 1.375-.305 1.102-.02 1.098.207 1.102.457 1.098.707 1.102.957 1.375 1.52 1.648 2.195 2.75 4.152 2.75 4.03 1.652 2.05 1.375 1.414 1.375 1.13 1.375.855 1.648.734 5.223 1.617 1.652.727 1.648.945 1.926 1.363 6.598 4.992 1.652.828 1.648.55 1.648.28 1.652.06 2.2-.16 3.023-.47 2.75-.613 1.926-.64 1.648-.793 1.375-.898 1.375-1.145 1.375-1.406 1.652-2.004 2.2-3.086 4.398-6.348 1.652-1.94 1.375-1.29 1.375-.945 1.098-.512 1.102-.305 1.375-.125 1.648.13 5.5.742 1.375-.156 1.375-.387 1.375-.62 1.648-.996 5.777-3.848 1.098-.402 1.102-.19 1.098.05 1.102.3 1.102.56 1.098.8 1.375 1.305 1.648 1.918 2.75 3.656 2.75 3.57 1.652 1.844 1.648 1.508 1.375.973 1.375.715 1.375.46 1.375.227 1.375.012 1.375-.2 1.375-.402 1.375-.617 1.375-.852 1.375-1.117 1.375-1.406 1.375-1.723 1.375-2.05 1.648-2.887 1.926-3.89 2.473-5.578 4.125-9.38 1.926-3.797 1.652-2.75 1.375-1.89 1.375-1.527 1.375-1.195 1.37-.93 1.926-.996 4.676-2.23 1.926-1.246 2.2-1.715 4.398-3.547 1.375-.828 1.375-.562 1.102-.227 1.098-.008 1.102.223 1.102.438 1.375.836 1.375 1.11 1.922 1.867 6.05 6.184 1.926 1.512 1.652 1.027 1.648.785 1.652.56 1.648.355 1.922.168 1.648-.062 1.648-.27 1.652-.488 1.648-.723 1.93-1.11 2.473-1.723 3.027-2.062 1.37-.69 1.102-.348 1.098-.11 1.102.164.828.328.82.512 1.102.984 1.098 1.324 1.102 1.66 1.38 2.504 1.652 3.535.27.633"/></g><g clip-path="url(#AA)" class="E F G"><path d="M655.094 84.316l1.922-1.164 2.477-1.793 5.5-4.066 2.75-1.687 9.348-5.37 6.05-4 1.648-.75 1.375-.395 1.375-.148 1.375.11 1.375.355 1.375.578 1.926 1.078 4.676 2.766 1.375.535 1.375.313 1.375.074 1.375-.148 1.648-.4 4.676-1.355 1.375-.062 1.098.168 1.102.398 1.102.64 1.098.883 1.375 1.418 1.648 2.1 2.203 3.19 3.574 5.234 1.648 2.06 1.375 1.43 1.375 1.148 1.375.88 1.648.773 2.2.734 3.578 1.145 1.922.86 1.926 1.098 3.852 2.547 2.2 1.31 1.648.77 1.652.54 1.648.297 1.648.082 1.926-.12 2.477-.387 2.473-.602 1.926-.68 1.648-.812 1.375-.895 1.375-1.125 1.652-1.676 1.648-2.012 2.2-3.086 4.676-6.777 1.648-1.934 1.375-1.27 1.102-.766 1.102-.53 1.098-.293 1.102-.066 1.098.14 1.375.44 1.375.668 1.926 1.21 7.426 5 2.2 1.035 2.2.78 3.023.8 11.824 2.688 2.203.195 1.922-.035 1.926-.23 2.2-.508 2.2-.734 2.477-1.074 2.2-1.2 1.926-1.277 1.926-1.54 1.926-1.855 1.922-2.187 2.2-2.89 3.027-4.434 3.574-5.18 1.926-2.36 1.375-1.375 1.375-1.055 1.098-.598 1.102-.37 1.098-.148 1.102.063 1.375.344 1.375.6 1.648.95 3.027 2.055 3.023 1.953 2.2 1.145 2.2.875 2.2.64 2.477.504 2.477.293 1.922.035 1.652-.18 1.375-.348 1.375-.586 1.375-.86 1.375-1.176 1.375-1.512 1.375-1.852 1.652-2.652 1.918-3.605 2.48-5.187 4.95-10.516 1.922-3.555 1.648-2.645 1.652-2.234L910 30.06l1.648-1.445 1.652-1.105 1.648-.82 1.652-.6 1.93-.437 1.918-.2 1.93.035 1.652.238 1.648.46 1.648.71 1.652.984.82.602"/></g><g clip-path="url(#AB)" class="E F G"><path d="M655.094 56.984l1.648-.633 1.926-.484 2.473-.355 11.273-1.125 1.652.133 1.375.3 1.375.504 1.375.723 1.648 1.156 1.652 1.445 2.2 2.266 5.773 6.195 1.648 1.406 1.652 1.105 1.375.668 1.375.434 1.375.2 1.375-.012 1.648-.254 1.926-.547 5.773-1.867 1.652-.19 1.375.07 1.375.328 1.375.61 1.375.902 1.37 1.19 1.652 1.773 1.926 2.445 3.023 4.3 3.3 4.605 1.926 2.3 1.648 1.63 1.375 1.082 1.375.848 1.648.727 1.648.477 2.203.395 3.848.66 1.926.6 1.926.844 1.922 1.094 2.75 1.848 3.027 2.004 1.648.855 1.375.484 1.375.22 1.102-.047 1.098-.25 1.102-.473 1.102-.684 1.37-1.145 1.375-1.43 1.652-2.03 2.473-3.43 3.852-5.36 1.926-2.336 1.926-1.973 1.648-1.383 1.648-1.105 1.652-.848 1.648-.63 1.926-.48 1.926-.23 1.922.016 1.652.223 1.648.422 1.926.742 1.922.996 2.477 1.55 5.5 3.56 1.926.926 1.648.555 1.652.305 1.648.043 1.648-.22 1.652-.465 1.648-.695 1.926-1.078 1.926-1.355 1.922-1.62 2.203-2.16 2.473-2.766 7.148-8.293 1.652-1.395 1.375-.844 1.098-.426 1.102-.18 1.102.078 1.098.344 1.102.602 1.098.852 1.375 1.383 1.648 2.063 1.926 2.816 3.3 5.348 4.125 6.598 3.023 4.414 4.125 5.582 5.227 6.73 2.473 2.88 1.926 1.918 1.652 1.316 1.37.82 1.375.543 1.102.223 1.102.035 1.098-.152 1.375-.43 1.375-.68 1.652-1.098 1.648-1.36 1.926-1.86 2.2-2.437 2.2-2.766 2.2-3.133 2.2-3.56 2.2-3.996 2.48-4.97 7.7-15.926 1.922-3.262 1.648-2.363 1.648-1.937 1.383-1.293 1.367-1.016 1.383-.766 1.367-.543 1.652-.402 1.648-.16 1.652.05 1.648.266 1.648.488 1.652.738"/></g><g clip-path="url(#AC)" class="E F G"><path d="M655.094 93.34l1.375.363 1.648.707 3.023 1.328 1.375.31 1.102.012 1.102-.234 1.098-.492 1.102-.738 1.37-1.234 1.652-1.805 4.125-4.695 1.375-1.187 1.098-.72 1.102-.48 1.102-.254 1.098-.047 1.375.168 2.75.676 1.648.273 1.102-.004 1.102-.21 1.098-.45 1.102-.7 1.098-.95 1.375-1.5 1.652-2.164 5.773-7.98 1.375-1.426 1.375-1.102 1.375-.773 1.102-.39 1.375-.234 1.375.012 1.648.266 1.926.582 1.926.832 1.648.93 1.648 1.168 1.652 1.453 1.648 1.78 1.648 2.125 1.926 2.875 6.602 10.336 1.37 1.54 1.102.94 1.102.664 1.098.395 1.102.13 1.098-.094 1.375-.36 4.676-1.516 1.102-.047 1.098.176 1.102.418 1.098.672 1.102.9 1.375 1.4 2.477 2.973 2.2 2.508 1.375 1.203 1.098.648.828.27.824.063.824-.156.824-.375.824-.594 1.102-1.117 1.098-1.45 1.375-2.195 5.227-9.61 1.648-2.54 1.375-1.69 1.102-1.05 1.102-.78 1.098-.543 1.375-.398 1.648-.215 3.3-.328 1.375-.352 1.375-.56 1.652-.937 2.2-1.562 2.75-1.922 1.375-.703 1.098-.36 1.102-.145 1.098.1 1.102.313 1.375.676 1.648 1.13 4.402 3.254 1.375.645 1.098.293 1.102.066 1.098-.148 1.375-.465 1.652-.848 3.848-2.148 1.375-.437 1.102-.117 1.098.12 1.102.36 1.102.6 1.375 1.012 1.922 1.75 2.75 2.52 1.375.977 1.102.543 1.098.29 1.102.008 1.102-.27 1.098-.535 1.102-.766 1.375-1.22 2.473-2.566 2.477-2.47 1.648-1.312 1.375-.8 1.375-.516 1.375-.246 1.375-.02 1.648.207 2.203.508 3.023.918 2.2.89 1.375.762 1.375 1.016 1.375 1.348 1.102 1.37 1.375 2.117 1.375 2.582 1.648 3.68 1.926 4.934 5.773 15.332 1.375 2.875 1.102 1.898 1.098 1.516 1.102 1.12 1.098.738.828.324 1.098.164 1.102-.086 1.375-.344 3.848-1.156 1.375-.113 1.102.11 1.375.39 1.37.637 1.93 1.172 2.75 1.656 1.37.543 1.102.2 1.098-.05 1.102-.332 1.098-.617 1.102-.89 1.38-1.45 1.652-2.125 6.047-8.29 1.652-1.66 1.37-1.074 1.38-.805 1.648-.687 2.2-.633 3.3-.945 1.922-.812"/></g><g clip-path="url(#AD)" class="E F G"><path d="M655.094 89.36l1.648-3.074 1.375-2.14 1.102-1.37 1.098-1.023.824-.52.828-.297.824-.07.824.156.824.38.824.582 1.102 1.074 1.375 1.734 1.922 2.918 3.3 5.13 1.375 1.734 1.102 1.074 1.098.742.828.316.824.098.824-.117.824-.328.824-.535 1.102-1 1.102-1.297 1.37-1.94 2.203-3.574 4.125-6.82 1.922-2.75 1.926-2.367 1.926-2.008 2.2-1.973 2.75-2.137 2.2-1.465 1.926-1.02 1.375-.492 1.375-.238 1.102.04 1.098.262 1.102.508 1.098.75 1.102.992 1.375 1.55 1.648 2.22 3.027 4.574 2.473 3.563 1.652 2.008 1.375 1.363 1.375 1.07 1.375.79 1.648.652 2.473.652 2.477.71 1.648.707 1.652.957 1.922 1.414 3.3 2.813 2.2 1.75 1.652 1.06 1.375.66 1.375.445 1.375.238 1.648.07 2.2-.16 3.574-.523 3.027-.605 1.922-.61 1.375-.637 1.375-.87 1.375-1.133 1.375-1.4 1.652-2.035 1.926-2.742 4.95-7.29 1.648-1.914 1.375-1.23 1.102-.723 1.098-.488 1.102-.273 1.375-.074 1.648.19 4.402.707 1.375-.105 1.098-.293 1.102-.496 1.098-.707 1.375-1.176 1.648-1.773 2.203-2.773 3.297-4.187 1.652-1.742 1.375-1.14 1.375-.824 1.098-.426 1.375-.258 1.375-.012 1.926.25 3.3.484 1.375-.023 1.375-.246 1.375-.508 1.375-.773 1.375-1.023 1.648-1.5 2.477-2.594 4.672-4.957 2.203-2 2.2-1.72 2.2-1.457 2.2-1.203 1.926-.797 1.648-.437 1.375-.125 1.102.086 1.098.285 1.102.492 1.098.723 1.102.953 1.375 1.508 1.648 2.21 2.203 3.43 3.297 5.21 1.375 1.824 1.102 1.184 1.098.875.828.43.824.223.824.008.824-.21.824-.43 1.102-.887 1.102-1.22 1.375-1.926 1.648-2.742 6.598-11.516 1.652-2.156 1.375-1.44 1.375-1.117 1.375-.81 1.375-.535 1.375-.29 1.375-.07 1.375.125 1.37.32 1.38.516 1.37.734 1.38.98 1.37 1.25 1.38 1.55 1.37 1.86 1.648 2.648 1.652 3.063 2.2 4.613 3.578 8.184 3.852 8.66 2.75 5.64 3.3 6.22 9.07 16.738"/></g><g clip-path="url(#AE)" class="E F G"><path d="M655.094 67.672l3.574 5.402 3.023 4.438 1.926 2.48 1.648 1.8 1.375 1.21 1.375.9 1.102.484 1.098.258 1.102.027 1.098-.207 1.102-.434 1.102-.648 1.375-1.082 1.648-1.613 2.477-2.8 3.023-3.398 1.648-1.56 1.375-1.043 1.375-.777 1.375-.504 1.375-.254 1.652-.03 5.5.598 1.648-.047 1.648-.266 1.926-.578 5.773-2.05 1.375-.117 1.102.113 1.102.332 1.098.555 1.102.79 1.375 1.293 1.648 1.934 1.926 2.637 4.95 7 1.648 1.93 1.652 1.598 1.648 1.254 1.652.95 1.922.832 7.148 2.785 2.477 1.367 6.598 3.805 2.203.914 1.922.574 1.926.352 1.926.117 1.648-.102 1.652-.316 1.648-.562 1.375-.687 1.375-.9 1.375-1.145 1.648-1.684 1.926-2.336 2.477-3.395 3.848-5.32 1.926-2.254 1.648-1.55 1.375-.984 1.375-.7 1.375-.434 1.375-.207 1.926-.023 4.402.117 1.648-.242 1.375-.4 1.375-.617 1.648-.996 1.926-1.43 5.223-4.055 1.652-.926 1.375-.55 1.375-.34 1.648-.16 1.926.063 4.676.28 1.648-.176 1.648-.4 1.652-.637 2.473-1.238 2.75-1.363 1.652-.57 1.375-.227 1.098.02 1.102.215 1.098.418 1.375.8 1.375 1.082 1.652 1.613 2.2 2.5 5.5 6.44 2.473 2.48 3.027 2.668 4.95 4.293 2.75 2.73 3.297 3.637 4.953 5.488 2.473 2.395 2.2 1.813 1.926 1.32 1.926 1.066 1.926.82 1.922.56 1.652.266 1.648.043 1.652-.19 1.648-.434 1.648-.668 1.926-1.035 2.477-1.605 4.12-2.715 1.93-.996 1.922-.723 1.93-.46 3.02-.43 2.2-.4 1.38-.453 1.37-.684 1.38-.965 1.37-1.28 1.38-1.6 1.652-2.28 2.2-3.492 3.848-6.215 1.652-2.203 1.37-1.45 1.098-.855 1.102-.566 1.098-.27 1.102.016.55.105"/></g><g clip-path="url(#AF)" class="H N O"><path d="M655.094 39.063l3.848.93 3.3 1.012 3.3 1.25 3.023 1.39 2.75 1.496 2.75 1.738 2.75 1.992 2.75 2.25 3.023 2.762 3.574 3.586 9.352 9.6 2.2 1.805 1.648 1.1 1.102.53.273-.13 2.2-3.066 1.102-1.187 1.102-.89 1.098-.582.824-.22.828-.027.824.16.824.352 1.102.75 1.098 1.055 1.375 1.684.55.723.55.207 1.098.254 1.102.488 1.098.746 1.102 1.004 1.375 1.605 1.375 1.95 1.926 3.16 4.398 7.63.55.285 1.648.355 3.3.66 1.648.582 1.375.7 1.652 1.117 1.922 1.633.55.473.277.098 3.023-.285 1.102.184 1.098.383 1.102.582 1.375.996 1.648 1.508 3.023 2.97.828-.11 10.996-2.504.55-.258.55-.71 2.75-4.71 2.2-3.574 1.652-2.28 1.375-1.547 1.375-1.19 1.375-.852 1.098-.52.55-.664 1.648-2.203 1.375-1.437 1.102-.82 1.098-.508.828-.168.824.016.824.19 1.102.523 1.098.793.55.45.273.02.828-.664 1.648-1.62 2.2-2.496 3.023-3.805 7.977-10.207 3.023-3.44 2.75-2.805 2.75-2.48 2.75-2.156 2.75-1.852 2.75-1.566 2.75-1.316 3.023-1.19 3.3-1.043 3.574-.88 3.852-.72 4.672-.63 5.5-.5 6.875-.387 9.352-.29 14.297-.19 26.95-.102 24.2-.016" stroke-width=".75"/></g><g clip-path="url(#AG)" class="H N O"><path d="M655.094 119.453l3.574-.54 3.023-.66 2.75-.816 2.477-.95 2.473-1.187 2.2-1.29 2.2-1.547 2.203-1.828 2.2-2.137 2.2-2.473 2.2-2.824 2.2-3.19L687.266 96l2.75-4.945 3.3-6.437 5.773-11.36 1.375-2.352.273-.2 2.477.613 1.375.04 1.375-.172 1.926-.496 4.398-1.285 1.102-.086.273.043.55.652 1.922 3.098 3.852 6.28 1.648 2.28 1.375 1.6 1.375 1.266 1.375.94 1.375.656.55.258.824 1.152 1.652 2.223 1.37 1.434 1.102.844 1.102.582 1.098.332 1.102.113 1.375-.113 1.926-.45 1.098-.254.277.094 1.375 1.285 2.473 2.262 1.652 1.223 1.37.766 1.375.508 1.375.25 2.75.023 3.027 2.457 1.098.512 1.102.22.824-.04.824-.223.828-.4 1.098-.828 1.102-1.133 1.375-1.793 1.375-1.89 2.2-1.355 1.375-1.207 1.375-1.53 1.648-2.22 1.926-3 3.574-5.816.55-.34 1.375-.312 4.95-.883 1.375-.53 1.375-.746 1.375-.918.273.027.828.836 1.648 2.07 1.926 2.797 3.023 4.824 5.5 8.82 2.75 4.004 2.473 3.254 2.477 2.883 2.473 2.52 2.203 1.938 2.2 1.672 2.473 1.594 2.477 1.316 2.477 1.078 2.746.95 3.027.805 3.3.64 3.848.508 4.676.375 5.773.227 8.523.1 20.074-.094 53.898-.105" stroke-width=".75"/></g></g><g class="B D G H L"><path d="M11.5 154.54V8m274.707 146.54V8" class="J"/><path d="M11.5 154.54h274.707M11.5 8h274.707" class="J"/></g><g transform="translate(-643.594 3.441)"><g clip-path="url(#AH)" class="B C D H M"><path d="M655.094 79.258l11.273.406 5.5-.016 4.398-.227 3.574-.402 3.3-.594 3.023-.773 2.75-.922 2.75-1.145 3.027-1.512 3.574-2.055 5.223-3.016 1.926-.848 1.648-.484 1.375-.18 1.375.063 1.102.246 1.102.43 1.375.81 1.375 1.102 1.37 1.37 1.652 1.945 2.473 3.328 4.676 6.414 1.926 2.234 1.648 1.6 1.652 1.277 1.648.977 1.648.738 2.2.727 5.777 1.762 2.2.97 2.75 1.47 5.773 3.215 1.926.78 1.648.44 1.375.164 1.375-.043 1.375-.27 1.375-.516 1.375-.77 1.375-1.023 1.652-1.543 1.648-1.855 2.2-2.828 6.324-8.398 1.652-1.766 1.648-1.45 1.375-.95 1.375-.723 1.375-.504 1.648-.36 1.652-.137 2.2.074 2.75.336 13.75 2.02 4.672.313 5.5.13 6.875-.074 12.648-.406 18.426-.54L870.68 78l25.3-.133 33.82-.035" stroke-dasharray="3.7,1.6"/></g><g clip-path="url(#AI)" class="I"><use xlink:href="#Ae"/></g><g clip-path="url(#AJ)" class="B C D H K"><use xlink:href="#Ae"/></g><g clip-path="url(#AK)" class="I"><use xlink:href="#Af"/></g><g clip-path="url(#AL)" class="B C D H K"><use xlink:href="#Af"/></g><g clip-path="url(#AM)" class="I"><path d="M727.734 89.14c.75 0 1.47-.297 2-.828s.828-1.25.828-2-.297-1.47-.828-2-1.25-.828-2-.828-1.47.297-2 .828-.828 1.25-.828 2 .297 1.47.828 2 1.25.828 2 .828zm0 0"/></g><g clip-path="url(#AN)" class="B C D H K"><path d="M727.734 89.14c.75 0 1.47-.297 2-.828s.828-1.25.828-2-.297-1.47-.828-2-1.25-.828-2-.828-1.47.297-2 .828-.828 1.25-.828 2 .297 1.47.828 2 1.25.828 2 .828zm0 0"/></g><g clip-path="url(#AO)" class="I"><use xlink:href="#Ag"/></g><g clip-path="url(#AP)" class="B C D H K"><use xlink:href="#Ag"/></g><g clip-path="url(#AQ)" class="I"><use xlink:href="#Ah"/></g><g clip-path="url(#AR)" class="B C D H K"><use xlink:href="#Ah"/></g><g clip-path="url(#AS)" class="B C H I K"><path d="M765.48 98.363c.75 0 1.47-.297 2-.828s.828-1.25.828-2-.297-1.47-.828-2-1.25-.828-2-.828-1.47.297-2 .828-.828 1.25-.828 2 .297 1.47.828 2 1.25.828 2 .828zm0 0"/></g><g clip-path="url(#AT)" class="I"><use xlink:href="#Ai"/></g><g clip-path="url(#AU)" class="B C D H K"><use xlink:href="#Ai"/></g></g><use xlink:href="#Aj" class="I J"/><g clip-path="url(#AV)" transform="translate(-643.594 3.441)" class="B C D H K"><path d="M777.836 82.996c.754 0 1.473-.297 2-.828a2.83 2.83 0 0 0 0-4c-.527-.53-1.246-.828-2-.828s-1.47.297-2 .828-.828 1.25-.828 2 .3 1.47.828 2 1.25.828 2 .828zm0 0"/></g></svg>