<svg xmlns="http://www.w3.org/2000/svg" width="400" height="320.5" viewBox='0 0 576 462' xmlns:v="https://vecta.io/nano"><style><![CDATA[.g{clip-path:url(#E)}.h{stroke-linejoin:round}.i{stroke-miterlimit:10}.j{stroke-opacity:.9}.k{stroke-linecap:square}.l{stroke-width:.8}.m{stroke-opacity:.8}.n{stroke:rgb(0%,0%,0%)}.o{fill:rgb(12.156677%,46.665955%,70.588684%)}.p{fill-opacity:.9}.q{stroke-width:.6}.r{fill:rgb(75.292969%,75.292969%,75.292969%)}.s{stroke:rgb(75.292969%,75.292969%,75.292969%)}.t{stroke-opacity:.25}.u{stroke-dasharray:3.7,1.6}]]></style><defs><clipPath id="A"><path d="M346.547 32h274.707v67H346.547zm0 0"/></clipPath><clipPath id="B"><path d="M346.547 57h274.707v78H346.547zm0 0"/></clipPath><clipPath id="C"><path d="M346.547 53h274.707v48H346.547zm0 0"/></clipPath><clipPath id="D"><path d="M346.547 178h274.707v36H346.547zm0 0"/></clipPath><clipPath id="E"><path d="M0 0h947v254H0z"/></clipPath><clipPath id="F"><path d="M78 4.56h97V151.1H78zm0 0"/></clipPath><clipPath id="G"><path d="M78 4.56h98V151.1H78zm0 0"/></clipPath><clipPath id="H"><path d="M78 170.004h97V222H78zm0 0"/></clipPath><clipPath id="I"><path d="M78 170.004h98V222H78zm0 0"/></clipPath></defs><path d="M17 10h549.5v293H17zm0 330.8h549.5v104H17z" fill="#fff"/><g transform="matrix(2.00033 0 0 1.999638 -58.025199 .883651)"><g clip-path="url(#F)" class="r"><path d="M78.707 4.56V151.1h96.148V4.56zm0 0" fill-opacity=".25"/></g><g clip-path="url(#G)" class="s h i t"><path d="M78.707 4.56V151.1h96.148V4.56zm0 0" fill="none"/></g><g clip-path="url(#H)" class="r"><path d="M78.707 170.004V222h96.148v-51.996zm0 0" fill-opacity=".25"/></g><g clip-path="url(#I)" class="s h i t"><path d="M78.707 170.004V222h96.148v-51.996zm0 0" fill="none"/></g></g><g transform="matrix(2.00033 0 0 1.999638 -676.113342 .801666)" fill="none" class="h i"><g clip-path="url(#A)" stroke="rgb(100%,49.803162%,5.490112%)" class="m u"><path d="M346.547 90.996l1.926-1.055 2.2-1.496 2.473-1.96 3.027-2.7 4.398-4.262 4.398-4.2 2.477-2.043 1.926-1.312 1.648-.895 1.652-.66 1.648-.44 1.922-.273 2.477-.078 4.676-.06 1.926-.285 1.648-.473 1.648-.727 1.652-1.008 1.648-1.3 1.648-1.602 1.926-2.23 1.926-2.578 2.477-3.727 3.574-5.875 4.125-6.707 2.2-3.176 1.926-2.383 1.648-1.676 1.375-1.1 1.375-.836 1.375-.555 1.375-.277 1.375-.008 1.375.242 1.375.473 1.375.7 1.648 1.078 1.648 1.328 1.926 1.836 1.926 2.125 2.2 2.777 2.2 3.152 2.2 3.535 2.477 4.418 2.75 5.4 3.852 8.105 5.496 11.586 2.477 4.73 2.2 3.75 1.926 2.832 1.648 2.043 1.652 1.66 1.375 1.074 1.375.793 1.375.52 1.375.262 1.375.035 1.648-.207 1.926-.484 5.5-1.543 1.648-.187 1.652.02 1.648.234 1.922.5 6.602 1.965 1.648.13 1.375-.098 1.375-.28 1.652-.582 1.922-.945 2.75-1.648 3.578-2.13 2.2-1.06 2.2-.793 2.2-.555 8.8-1.508 7.148-1.328 7.977-1.164 1.648-.547 1.648-.773 1.652-1.02 1.648-1.27 2.2-2.008L553.06 73l1.648-1.172 1.652-.926 1.648-.676 1.648-.453 1.926-.305 2.477-.14 2.75.078 2.473.297 1.926.445 1.648.594 1.652.816 1.648 1.063 1.926 1.516 2.75 2.504 3.023 2.707 1.652 1.203 1.375.75 1.375.473 1.098.16 1.102-.04 1.098-.227 1.375-.535 1.375-.766 1.926-1.36 3.574-2.902 3.852-3.02 4.672-3.617 2.203-2.035 1.922-2.078 2.477-3.043 4.398-5.56 1.652-1.684.273-.242" stroke-width="1.5"/></g><g clip-path="url(#B)" stroke="rgb(58.039856%,40.391541%,74.118042%)" class="m u"><path d="M346.547 78.164l18.973.375 8.8.37 5.223.434 3.574.496 3.027.64 2.473.754 2.2.906 1.926 1.043 1.652 1.13 1.648 1.395 1.648 1.7 1.652 2.074 1.648 2.477 1.652 2.898 1.648 3.32 1.926 4.363 2.75 6.883 4.672 11.8 1.926 4.195 1.375 2.555 1.375 2.113 1.102 1.336 1.098 1.016 1.102.695 1.098.4 1.102.105 1.098-.148 1.102-.37 1.375-.727 1.648-1.164 2.203-1.87 3.297-3.148 3.3-3.422 2.477-2.883 1.922-2.547 1.926-2.902 1.926-3.312 1.926-3.738 2.2-4.754 2.75-6.55 3.848-9.848 4.402-11.125 2.2-5 1.926-3.84 1.648-2.8 1.375-1.926 1.375-1.54 1.102-.95 1.098-.703 1.102-.477 1.098-.258 1.102-.062 1.375.16 1.375.383 1.648.7 2.203 1.195 3.297 2.105 7.426 4.816 3.574 2.016 3.3 1.617 3.297 1.38 3.578 1.242 3.574 1.012 3.848.863 4.402.762 4.95.617 5.773.496 7.148.387 9.352.266 14.297.164 29.426.06 32.172.004" stroke-width="1.5"/></g><g clip-path="url(#C)" stroke="rgb(12.156677%,46.665955%,70.588684%)" class="k"><path d="M346.547 91.336l1.926-1.027 2.2-1.465 2.473-1.918 3.027-2.637 4.398-4.172 4.398-4.1 2.203-1.766 1.922-1.285 1.652-.863 1.648-.625 1.648-.387 1.652-.168 1.922.027 2.75.297 4.125.453h2.203l1.922-.22 1.926-.426 2.477-.805 5.5-1.926 1.648-.285 1.375-.023 1.375.22 1.375.496 1.375.793 1.375 1.094 1.375 1.37 1.648 1.97 2.2 3.016 5.5 7.746 1.652 1.9 1.648 1.543 1.375 1.012 1.648.914 1.652.64 2.2.574 4.676 1.102 1.922.703 2.2 1.055 2.75 1.598 3.852 2.246 1.926.863 1.648.496 1.375.203 1.375-.012 1.375-.238 1.375-.47 1.375-.707 1.375-.937 1.648-1.414 1.652-1.703 1.926-2.3 2.75-3.652 4.672-6.27 1.926-2.2 1.648-1.578 1.375-1.047 1.375-.773 1.375-.488 1.102-.176 1.102.012 1.098.2 1.375.504 1.375.762 1.652 1.2 1.922 1.723 6.875 6.535 1.648 1.1 1.375.68 1.375.453 1.375.227 1.652.016 1.922-.262 2.75-.652 3.578-.816 2.473-.32 2.75-.098 8.25-.07 4.676-.46 4.676-.363 4.672-.348 1.926-.37 1.648-.523 1.652-.762 1.648-1.02 1.652-1.266 2.2-2.004 6.87-6.582 1.926-1.375 1.652-.9 1.648-.664 1.648-.44 1.926-.297 2.477-.13 2.75.1 2.473.305 1.926.45 1.648.594 1.652.824 1.648 1.06 1.926 1.52 2.75 2.508 3.023 2.7 1.652 1.203 1.375.75 1.375.473 1.098.16 1.102-.035 1.098-.23 1.375-.53 1.375-.766 1.926-1.36 3.574-2.902 3.852-3.02 4.672-3.617 2.203-2.035 1.922-2.078 2.477-3.043 4.398-5.555 1.652-1.687.273-.242" stroke-width="2"/></g><g clip-path="url(#D)" class="k j"><path d="M346.547 205.426l3.574-1.555 3.574-1.785 3.574-2.023 3.852-2.453 4.125-2.906 4.95-3.785 8.797-6.78 3.027-2.02 2.473-1.398 2.203-.984 1.922-.613 1.926-.363 1.648-.086 1.652.117 1.648.32 1.926.6 1.926.844 2.2 1.195 2.75 1.773 3.574 2.613 14.848 11.254 3.852 2.473 3.574 2.047 3.574 1.805 3.574 1.574 3.852 1.45 4.125 1.3 4.125 1.07 4.672.973 4.953.805 5.773.707 6.598.57 7.977.453 10.172.336 14.027.223 23.37.12 94.32.027" stroke="rgb(72.157288%,60.392761%,82.745361%)"/><path d="M346.547 209.422l4.398-1.078 4.125-1.238 3.852-1.383 3.848-1.63 3.574-1.754 3.578-1.996 3.848-2.414 4.125-2.88 4.95-3.758 9.625-7.402 3.023-1.988 2.477-1.355 2.2-.94 1.926-.57 1.648-.285 1.648-.078 1.652.125 1.648.332 1.926.62 1.926.848 2.2 1.203 2.75 1.78 3.574 2.62 14.574 11.06 3.848 2.484 3.578 2.063 3.574 1.82 3.574 1.586 3.848 1.46 3.852 1.234 4.125 1.094 4.676 1 4.95.824 5.5.7 6.324.578 7.7.465 9.625.352 13.2.242 21.172.133 52.523.043h33.547" stroke="rgb(63.922119%,49.01886%,77.6474%)"/><path d="M346.547 211.594l5.773-.707 5.227-.86 4.672-.992 4.402-1.168 4.125-1.34 3.848-1.488 3.574-1.6 3.574-1.852 3.578-2.1 3.848-2.516 4.125-2.965 5.5-4.258 6.875-5.297 3.023-2.062 2.477-1.445 2.2-1.035 1.926-.672 1.926-.422 1.648-.145 1.648.066 1.648.266 1.926.555 1.926.793 2.2 1.148 2.477 1.547 3.3 2.352 5.223 4.06 6.875 5.297 4.125 2.902 3.848 2.45 3.578 2.02 3.574 1.78 3.848 1.656 3.852 1.4 4.125 1.262 4.398 1.098 4.676.93 5.223.8 5.777.66 6.87.55 8.25.426 10.727.313 15.125.203 26.672.098 60.496.02" stroke="rgb(56.079102%,37.646484%,72.941589%)"/><path d="M346.547 212.535l7.973-.508 6.602-.633 5.773-.78 4.95-.9 4.398-1.004 4.125-1.156 3.852-1.297 3.852-1.54 3.574-1.656 3.574-1.898 3.574-2.14 3.852-2.566 4.398-3.22 6.875-5.375 4.95-3.746 3.023-2.023 2.477-1.395 2.2-.977 1.926-.617 1.922-.355 1.652-.086 1.648.12 1.652.32 1.922.613 1.926.844 2.2 1.2 2.75 1.773 3.574 2.617 14.86 11.24 3.848 2.473 3.574 2.047 3.578 1.805 3.574 1.57 3.848 1.45 4.125 1.297 4.125 1.07 4.676.973 4.95.805 5.773.703 6.602.57 7.973.453 10.176.336 14.023.223 23.375.12 54.445.027" stroke="rgb(47.842407%,28.627014%,65.490723%)"/><path d="M346.547 212.97l11-.367 8.25-.488 6.875-.625 5.773-.746 4.95-.848 4.676-1.027 4.12-1.125 3.852-1.266 3.852-1.5 3.574-1.62 3.574-1.86 3.574-2.098 3.852-2.527 4.125-2.977 5.773-4.48 6.324-4.87 3.3-2.246 2.473-1.43 2.2-1.02 1.926-.652 1.926-.398 1.648-.125 1.652.082 1.648.285 1.926.574 1.926.8 2.2 1.164 2.473 1.56 3.3 2.367 5.5 4.28 6.598 5.07 4.125 2.895 3.852 2.434 3.574 2.012 3.574 1.773 3.852 1.645 3.848 1.402 4.125 1.25 4.398 1.1 4.676.922 5.227.797 5.773.656 6.875.543 8.25.422 10.723.313 15.125.2 26.95.102 34.922.016" stroke="rgb(39.607239%,23.529053%,54.118347%)"/><path d="M346.547 213.172l15.125-.266 10.172-.387 7.977-.516 6.598-.645 5.5-.75 4.95-.9 4.402-1.004 4.12-1.156 3.852-1.3 3.852-1.54 3.574-1.66 3.574-1.898 3.574-2.14 3.848-2.566 4.402-3.22 6.875-5.38 4.95-3.742 3.023-2.02 2.477-1.395 2.2-.977 1.926-.613 1.922-.355 1.652-.082 1.648.12 1.652.324 1.922.617 1.926.844 2.2 1.203 2.75 1.773 3.574 2.62 14.852 11.246 3.848 2.473 3.574 2.043 3.578 1.805 3.574 1.57 3.848 1.445 4.125 1.3 4.125 1.066 4.676.973 4.95.805 5.773.703 6.602.566 7.973.453 10.176.34 14.023.22 23.375.12 29.422.023" stroke="rgb(31.37207%,18.431091%,42.744446%)"/><path d="M346.547 213.3l27.223-.172 13.75-.297 9.625-.414 7.7-.55 6.324-.672 5.5-.8 4.95-.953 4.398-1.074 4.125-1.234 3.852-1.38 3.848-1.63 3.574-1.75 3.574-1.988 3.852-2.414 4.125-2.875 4.95-3.754 9.625-7.406 3.023-1.992 2.477-1.367 2.2-.945 1.926-.578 1.648-.3 1.652-.086 1.648.117 1.648.324 1.926.613 1.926.844 2.2 1.2 2.75 1.773 3.574 2.617 14.848 11.25 3.852 2.473 3.574 2.047 3.574 1.805 3.574 1.57 3.852 1.45 4.125 1.297 4.125 1.07 4.676.973 4.95.805 5.773.703 6.598.57 7.977.453 10.176.336 14.023.223 23.37.12 6.05.008" stroke="rgb(22.744751%,13.725281%,31.37207%)"/><path d="M346.547 213.262l20.898-.207 12.098-.328 9.074-.46 7.152-.582 6.047-.7 5.227-.832 4.676-.965 4.398-1.133 4.125-1.3 3.848-1.45 3.574-1.574 3.578-1.8 3.574-2.047 3.848-2.477 4.125-2.93 5.227-4.012 7.973-6.148 3.027-2.043 2.473-1.422 2.2-1.012 1.926-.645 1.926-.4 1.648-.113 1.652.1 1.648.293 1.926.582 1.926.816 2.2 1.176 2.75 1.75 3.297 2.4 6.05 4.727 5.773 4.418 4.125 2.9 3.852 2.43 3.574 2.008 3.574 1.766 3.852 1.64 3.848 1.395 4.125 1.25 4.402 1.086 4.672.918 5.227.797 5.773.648 6.875.543 8.25.422 10.723.313 15.398.2 27.223.098 9.352.008" stroke="rgb(14.509583%,8.627319%,19.999695%)"/></g></g><g stroke="#000"><g transform="matrix(2.00033 0 0 1.999638 -114.020462 .801662)" fill="#1f77b4"><circle cx="111" cy="70.6" r="2.5"/><circle cx="123.824" cy="68.9" r="2.5"/><circle cx="138.155" cy="86.21" r="2.5"/><circle cx="150.3" cy="91.9" r="2.5"/><circle cx="163.1" cy="98.3" r="2.5"/><circle cx="176.022" cy="95.419" r="2.5"/><circle cx="188.478" cy="80.133" r="2.5"/><circle cx="199.5" cy="76.5" r="2.5"/></g><g fill="none" transform="matrix(2.00033 0 0 1.999638 -114.020462 .881672)" class="h i"><g class="n"><path d="M65.5 151.098v3.5m68.676-3.5v3.5m68.68-3.5v3.5m68.675-3.5v3.5m68.677-3.5v3.5" class="g k l"/><path d="M99.84 151.098v2m68.676-2v2m68.674-2v2m68.677-2v2m34.34-2v2" class="g o p q"/><path d="M65.5 151.098H62m3.5-36.638H62m3.5-36.632H62m3.5-36.633H62M65.5 4.56H62" class="g k l"/><path d="M65.5 132.777h-2m2-36.632h-2m2-36.633h-2m2-36.632h-2m2-18.32h-2" class="g o p q"/></g><g class="k l"><path d="M65.5 151.098V4.56m274.707 146.538V4.56" class="g"/><path d="M65.5 151.098h274.707M65.5 4.56h274.707" class="g"/></g><g class="n"><path d="M65.5 222v3.5m68.676-3.5v3.5m68.68-3.5v3.5m68.675-3.5v3.5m68.677-3.5v3.5" class="g k l"/><path d="M99.84 222v2m68.676-2v2m68.674-2v2m68.677-2v2" class="g o p q"/></g><g class="k l"><path d="M65.5 213.332H62m3.5-34.664H62" class="g n"/><path d="M65.5 222v-51.996M340.207 222v-51.996" class="g"/><path d="M65.5 222h274.707M65.5 170.004h274.707" class="g"/></g></g></g><path d="M471.733 245.305h2.26v11.6c-.007 1.607-.513 2.923-1.52 3.95-1 1.02-2.36 1.593-4.08 1.72l-.6.02c-1.867 0-3.353-.503-4.46-1.5-1.113-1.007-1.677-2.393-1.7-4.16v-11.62h2.23v11.55c0 1.233.34 2.193 1.02 2.88.68.68 1.647 1.02 2.9 1.02 1.273 0 2.25-.34 2.93-1.02.673-.673 1-1.63 1-2.87v-11.56zm16.18 10.66v.2c0 1.933-.44 3.487-1.32 4.66-.887 1.18-2.084 1.77-3.6 1.77-1.54 0-2.75-.487-3.63-1.46v6.1h-2.17v-17.56h1.98l.1 1.4c.88-1.093 2.106-1.64 3.68-1.64 1.52 0 2.723.573 3.6 1.72s1.33 2.743 1.33 4.8zm-2.17-.05c0-1.427-.304-2.553-.9-3.38s-1.444-1.24-2.5-1.24c-1.314 0-2.297.58-2.95 1.74v6.06c.646 1.153 1.64 1.73 2.98 1.73a2.9 2.9 0 0 0 2.47-1.23c.613-.827.92-2.053.92-3.68zm4.392.17v-.17c0-1.94.463-3.503 1.4-4.7.92-1.18 2.127-1.77 3.62-1.77 1.48 0 2.653.507 3.52 1.52v-6.6h2.17v18h-2l-.1-1.36c-.867 1.06-2.073 1.6-3.62 1.6-1.467 0-2.663-.6-3.6-1.8-.927-1.207-1.4-2.777-1.4-4.7zm2.17.08c0 1.44.297 2.567.9 3.38.593.807 1.413 1.2 2.46 1.2 1.38 0 2.383-.617 3-1.85v-5.82c-.647-1.193-1.64-1.8-2.98-1.8-1.067 0-1.897.4-2.5 1.23s-.9 2.033-.9 3.64zm21.993 6.2h-2.27c-.127-.253-.23-.7-.3-1.34-1.007 1.047-2.2 1.57-3.6 1.57-1.247 0-2.27-.353-3.07-1.06a3.43 3.43 0 0 1-1.2-2.69c0-1.32.5-2.343 1.5-3.07 1.007-.733 2.42-1.1 4.24-1.1h2.1v-1c0-.76-.227-1.363-.68-1.8-.453-.453-1.12-.68-2-.68-.773 0-1.423.197-1.95.6-.527.387-.8.86-.8 1.42h-2.17c0-.633.223-1.247.67-1.84.447-.587 1.057-1.053 1.83-1.4.767-.34 1.6-.5 2.53-.5 1.467 0 2.613.363 3.44 1.1s1.257 1.74 1.3 3.02v5.84c0 1.16.147 2.083.44 2.77v.2zm-5.87-1.65a3.78 3.78 0 0 0 1.93-.53c.613-.353 1.057-.8 1.33-1.37v-2.6h-1.7c-2.653 0-3.98.777-3.98 2.33 0 .68.227 1.2.68 1.6.447.387 1.027.58 1.74.58zm9.592-14.1h2.17v3.07h2.37v1.68h-2.37v7.86c0 .507.107.887.32 1.14.207.253.567.38 1.08.38.247 0 .6-.047 1.03-.14v1.76c-.573.153-1.13.23-1.67.23-.966 0-1.696-.3-2.2-.87-.493-.587-.74-1.42-.74-2.5v-7.86h-2.3v-1.68h2.3v-3.07zm12.33 15.98c-1.72 0-3.117-.563-4.2-1.7-1.08-1.127-1.62-2.637-1.62-4.53v-.4c0-1.253.24-2.377.72-3.37.48-.987 1.153-1.76 2.02-2.32.86-.553 1.793-.83 2.8-.83 1.653 0 2.936.54 3.85 1.62.913 1.087 1.37 2.643 1.37 4.67v.9h-8.6c.026 1.253.4 2.263 1.1 3.03s1.6 1.15 2.67 1.15c.766 0 1.413-.153 1.94-.46.533-.313 1-.73 1.4-1.25l1.32 1.04c-1.06 1.627-2.654 2.44-4.78 2.44zm-.27-11.36a2.89 2.89 0 0 0-2.2.95c-.594.64-.96 1.533-1.1 2.68h6.35v-.16c-.06-1.107-.357-1.96-.9-2.56-.534-.607-1.254-.9-2.16-.9zm-61.827 28.45h-4.02v6.68h-2.25v-17.06h6.3c1.867 0 3.33.477 4.4 1.43s1.6 2.213 1.6 3.78c0 1.66-.517 2.937-1.55 3.83-1.04.893-2.523 1.34-4.45 1.34zm-4.02-8.53v6.7h4.04c1.207 0 2.13-.283 2.77-.85s.96-1.383.96-2.45c0-1.02-.32-1.833-.96-2.44-.64-.613-1.52-.93-2.64-.95h-4.17zm11.826 8.9v-.16c0-1.24.243-2.357.73-3.35s1.166-1.76 2.04-2.3c.866-.533 1.86-.8 2.98-.8 1.726 0 3.123.597 4.2 1.8s1.6 2.783 1.6 4.77v.15c0 1.233-.237 2.34-.7 3.32s-1.15 1.743-2.03 2.3-1.9.82-3.03.82c-1.714 0-3.104-.597-4.17-1.8s-1.6-2.773-1.6-4.74zm2.18.1c0 1.407.323 2.537.97 3.4.653.847 1.526 1.27 2.62 1.27 1.106 0 1.983-.43 2.63-1.3s.97-2.077.97-3.63c0-1.387-.33-2.513-1-3.38-.66-.86-1.537-1.3-2.63-1.3-1.074 0-1.937.423-2.6 1.27-.654.853-.98 2.073-.98 3.66zm19.455 2.84c0-.587-.22-1.043-.66-1.37-.44-.32-1.2-.6-2.3-.84-1.094-.233-1.964-.513-2.6-.84s-1.124-.717-1.43-1.17-.46-.993-.46-1.62c0-1.04.44-1.92 1.32-2.64.873-.713 1.993-1.07 3.36-1.07 1.44 0 2.606.37 3.5 1.1a3.53 3.53 0 0 1 1.34 2.85h-2.18c0-.593-.25-1.107-.75-1.54-.507-.427-1.144-.64-1.9-.64-.787 0-1.404.17-1.85.5a1.63 1.63 0 0 0-.67 1.35c0 .527.2.92.63 1.18.413.267 1.16.523 2.24.77 1.08.24 1.956.527 2.63.86.673.34 1.173.747 1.5 1.22.32.467.48 1.04.48 1.72 0 1.133-.454 2.043-1.36 2.73-.907.68-2.084 1.02-3.53 1.02-1.014 0-1.9-.177-2.7-.53-.78-.36-1.4-.863-1.83-1.5-.447-.647-.67-1.343-.67-2.1h2.17c.04.727.33 1.303.87 1.73.546.42 1.263.63 2.15.63.826 0 1.486-.163 1.98-.5s.74-.777.74-1.33zm5.762-12.4h2.17v3.07h2.37v1.68h-2.37v7.86c0 .507.107.887.32 1.14.207.253.567.38 1.08.38.247 0 .6-.047 1.03-.14v1.76c-.573.153-1.13.23-1.67.23-.966 0-1.696-.3-2.2-.87-.493-.587-.74-1.42-.74-2.5v-7.86h-2.3v-1.68h2.3v-3.07zm12.33 15.98c-1.72 0-3.117-.563-4.2-1.7-1.08-1.127-1.62-2.637-1.62-4.53v-.4c0-1.253.24-2.377.72-3.37.48-.987 1.153-1.76 2.02-2.32.86-.553 1.793-.83 2.8-.83 1.653 0 2.937.54 3.85 1.62.913 1.087 1.37 2.643 1.37 4.67v.9h-8.6c.027 1.253.4 2.263 1.1 3.03s1.6 1.15 2.67 1.15c.767 0 1.413-.153 1.94-.46.533-.313 1-.73 1.4-1.25l1.32 1.04c-1.06 1.627-2.653 2.44-4.78 2.44zm-.27-11.36c-.873 0-1.607.317-2.2.95-.593.64-.96 1.533-1.1 2.68h6.35v-.16c-.06-1.107-.357-1.96-.9-2.56-.533-.607-1.253-.9-2.16-.9zm13.852-1.62v2.02a5.89 5.89 0 0 0-1.07-.1c-1.42 0-2.383.607-2.9 1.82v9h-2.17v-12.68h2.1l.04 1.47c.707-1.133 1.714-1.7 3.02-1.7.42 0 .74.053.96.16zm4.35.07v12.68h-2.17v-12.68h2.17zm-2.35-3.36c0-.353.107-.65.32-.9.22-.247.54-.37.96-.37s.74.123.96.37c.22.24.33.537.33.9 0 .347-.1.64-.33.88-.22.233-.54.35-.96.35s-.74-.117-.96-.35c-.213-.24-.32-.533-.32-.88zm5.243 9.74v-.16c0-1.24.244-2.357.73-3.35s1.167-1.76 2.04-2.3c.867-.533 1.86-.8 2.98-.8 1.727 0 3.124.597 4.2 1.8s1.6 2.783 1.6 4.77v.15c0 1.233-.236 2.34-.7 3.32a5.41 5.41 0 0 1-2.03 2.3c-.88.557-1.9.82-3.03.82-1.713 0-3.103-.597-4.17-1.8s-1.6-2.773-1.6-4.74zm2.18.1c0 1.407.324 2.537.97 3.4.654.847 1.527 1.27 2.62 1.27 1.107 0 1.984-.43 2.63-1.3s.97-2.077.97-3.63c0-1.387-.33-2.513-1-3.38-.66-.86-1.536-1.3-2.63-1.3a3.11 3.11 0 0 0-2.59 1.27c-.653.853-.98 2.073-.98 3.66zm18.205-6.55v2.02a5.89 5.89 0 0 0-1.07-.1c-1.42 0-2.383.607-2.9 1.82v9h-2.17v-12.68h2.1l.04 1.47c.707-1.133 1.714-1.7 3.02-1.7.42 0 .74.053.96.16z" fill="#333"/><g fill="none" class="m"><path d="M419 253h29.5" stroke-dasharray="7.3, 3.3" stroke="#9467bd" stroke-width="3"/><path d="M419 278h28.5" stroke="#1f77b4" stroke-width="4"/></g></svg>