<svg xmlns="http://www.w3.org/2000/svg" width="400" height="320.5" viewBox='0 0 576 462' xmlns:v="https://vecta.io/nano"><style><![CDATA[.c{clip-path:url(#C)}.d{stroke-linejoin:round}.e{stroke-miterlimit:10}.f{stroke-opacity:.8}.g{stroke-linecap:square}.h{stroke-width:.8}.i{stroke:rgb(0%,0%,0%)}.j{stroke-width:.6}.k{fill:rgb(75.292969%,75.292969%,75.292969%)}.l{stroke:rgb(75.292969%,75.292969%,75.292969%)}.m{stroke-opacity:.25}.n{stroke:rgb(100%,49.803162%,5.490112%)}]]></style><defs><clipPath id="A"><path d="M37.5 32h274.707v67H37.5zm0 0"/></clipPath><clipPath id="B"><path d="M37.5 178h274.707v36H37.5zm0 0"/></clipPath><clipPath id="C"><path d="M0 0h947v254H0z"/></clipPath><clipPath id="D"><path d="M78 4.56h97V151.1H78zm0 0"/></clipPath><clipPath id="E"><path d="M78 4.56h98V151.1H78zm0 0"/></clipPath><clipPath id="F"><path d="M78 170.004h97V222H78zm0 0"/></clipPath><clipPath id="G"><path d="M78 170.004h98V222H78zm0 0"/></clipPath></defs><path d="M17 10h549.5v293H17zm0 330.8h549.5v104H17z" fill="#fff"/><g transform="matrix(1.999638 0 0 1.999638 -58.001695 .883651)"><g clip-path="url(#D)" class="k"><path d="M78.707 4.56V151.1h96.148V4.56zm0 0" fill-opacity=".25"/></g><g clip-path="url(#E)" fill="none" class="l d e m"><path d="M78.707 4.56V151.1h96.148V4.56zm0 0"/></g><g clip-path="url(#F)" class="k"><path d="M78.707 170.004V222h96.148v-51.996zm0 0" fill-opacity=".25"/></g><g clip-path="url(#G)" fill="none" class="l d e m"><path d="M78.707 170.004V222h96.148v-51.996zm0 0"/></g></g><g fill="none"><path d="M107.982 141.976v-9.198m25.596 5.8V98.784m28.794 74.386V68.8m24.196 115.778V82.787m25.595 114.58V124.78m25.797 66.787V176.1m24.994-15.127v34.794m21.996-41.993v36.993" stroke-opacity=".5" stroke-dasharray="3.65, 1.65" stroke-width="2" stroke="#000"/><g transform="matrix(1.999638 0 0 1.999638 -57.987694 .801666)" class="d e f"><g clip-path="url(#A)" class="n"><path d="M37.5 90.996l1.926-1.055 2.2-1.496 2.477-1.96 3.023-2.7 4.398-4.262 4.402-4.2L58.4 73.3l1.926-1.312 1.648-.895 1.648-.66 1.652-.44L67.2 69.7l2.473-.078 4.676-.06 1.926-.285 1.648-.473 1.648-.727 1.652-1.008 1.648-1.3 1.652-1.602 1.922-2.23 1.926-2.578 2.477-3.727 3.574-5.875 4.125-6.707 2.2-3.176 1.926-2.383 1.648-1.676 1.375-1.1 1.375-.836 1.375-.555 1.375-.277 1.375-.008 1.375.242 1.375.473 1.375.7 1.648 1.078 1.652 1.328 1.926 1.836 1.922 2.125 2.203 2.777 2.195 3.152 2.203 3.535 2.473 4.418 2.75 5.4 9.352 19.7 2.473 4.73 2.2 3.75 1.926 2.832 1.652 2.043 1.648 1.66 1.375 1.074 1.375.793 1.375.52 1.375.262 1.375.035 1.648-.207 1.926-.484 5.5-1.543 1.648-.187 1.648.02 1.652.234 1.926.5 6.598 1.965 1.652.13 1.375-.098 1.375-.28 1.648-.582 1.926-.945 2.75-1.648 3.574-2.13 2.2-1.06 2.2-.793 2.2-.555 8.8-1.508 7.148-1.328 7.977-1.164 1.648-.547 1.652-.773 1.648-1.02 1.648-1.27 2.2-2.008 7.426-7.172 1.648-1.172 1.652-.926 1.648-.676 1.652-.453 1.922-.305 2.477-.14 2.75.078 2.473.297 1.926.445 1.652.594 1.648.816 1.648 1.063 1.926 1.516 2.75 2.504 3.023 2.707 1.652 1.203 1.375.75 1.375.473 1.098.16 1.102-.04 1.102-.227 1.37-.535 1.375-.766 1.926-1.36 3.574-2.902 3.852-3.02 4.676-3.617 2.2-2.035 1.922-2.078 2.477-3.043 4.398-5.56 1.652-1.684.273-.242" stroke-width="1.5" stroke-dasharray="3.7,1.6"/></g><g clip-path="url(#B)" class="g"><path d="M37.5 211.445l2.477-1.172 2.473-1.426 2.75-1.844 3.023-2.3 3.578-3.008 4.95-4.48 8.523-7.738 3.574-2.93 3.023-2.22 2.75-1.75 2.477-1.332 2.473-1.07 2.203-.72 2.2-.492 2.2-.258 2.2-.016 2.2.223 2.203.46 2.2.688 2.2.9 2.473 1.27 2.477 1.512 2.75 1.93 3.3 2.605 3.848 3.336 7.152 6.574 5.223 4.656 3.574 2.902 3.023 2.18 2.75 1.7 2.477 1.293 2.477 1.027 2.2.684 2.2.45 2.2.215 2.2-.027 2.2-.262 2.203-.5 2.2-.73 2.2-.945 2.473-1.312 2.75-1.73 3.027-2.2 3.3-2.68 4.398-3.898 11.824-10.672 3.3-2.613 3.023-2.117 2.75-1.645 2.473-1.223 2.203-.863 2.2-.64 2.2-.4 2.2-.172 2.2.066 2.2.3 2.203.54 2.2.766 2.473 1.12 2.477 1.38 2.75 1.797 3.023 2.258 3.574 2.97 4.676 4.203 9.625 8.73 3.574 2.902 3.023 2.188 2.75 1.72 2.477 1.297 2.473 1.03 2.203.688 2.2.457 2.2.22 2.2-.02 2.2-.258 2.2-.496 2.203-.723 2.2-.94 2.473-1.305 2.75-1.727 3.027-2.2 3.297-2.68 4.402-3.9 12.098-10.906 3.3-2.594 3.023-2.098 2.75-1.62 1.375-.7" stroke="rgb(100%,68.62793%,40.783691%)"/><path d="M37.5 183.7l4.398 1.875 4.95 2.367 5.777 3.023 8.25 4.602 11.547 6.422 5.773 2.945 4.953 2.277 4.398 1.78 4.125 1.422 3.848 1.098 3.578.797 3.574.574 3.574.344 3.574.105 3.574-.125 3.574-.363 3.578-.594 3.574-.812 3.848-1.113 3.852-1.34 4.125-1.66 4.672-2.13 5.227-2.633 6.598-3.6 18.977-10.48 5.223-2.547 4.676-2.03 4.125-1.56 3.848-1.234 3.852-1 3.574-.7 3.574-.477 3.574-.242 3.574-.008 3.578.23 3.574.46 3.574.7 3.574.906 3.852 1.207 4.125 1.53 4.398 1.883 4.95 2.367 5.773 3.027 8.25 4.605 11.55 6.414 5.773 2.945 4.95 2.273 4.402 1.777 4.12 1.422 3.852 1.1 3.574.793 3.574.57 3.578.34 3.57.102 3.578-.13 3.574-.367 3.023-.492" class="n"/><path d="M37.5 181.488l2.477-1.125 2.2-.773 2.2-.543 2.2-.305 2.2-.066 2.2.176 2.203.414 2.2.648 2.2.875 2.477 1.234 2.473 1.48 2.75 1.906 3.023 2.36 3.852 3.305 5.773 5.3 6.602 5.992 3.574 2.957 3.023 2.238 2.75 1.773 2.477 1.352 2.473 1.086 2.2.738 2.203.504 2.2.266 2.2.027 2.2-.215 2.2-.457 2.2-.684 2.203-.9 2.473-1.273 2.477-1.516 2.75-1.934 3.297-2.617 3.852-3.352 7.148-6.602 5.227-4.672 3.574-2.906 3.023-2.18 2.75-1.7 2.477-1.285 2.473-1.02 2.2-.668 2.203-.437 2.2-.195 2.2.043 2.2.285 2.2.52 2.2.754 2.2.97 2.477 1.336 2.75 1.762 3.023 2.23 3.3 2.715 4.398 3.926 11.277 10.234 3.574 2.848 3.023 2.12 2.75 1.64 2.477 1.22 2.2.86 2.2.63 2.2.398 2.2.16 2.203-.086 2.2-.324 2.2-.56 2.2-.8 2.477-1.145 2.473-1.398 2.75-1.824 3.023-2.3 3.578-3 4.95-4.488 8.797-8.02 3.578-2.937 3.023-2.215 2.75-1.75 2.473-1.324 2.477-1.06 2.2-.7 2.2-.477 2.203-.238h2.2l2.2.246 2.2.48 2.2.7 2.2.934 2.477 1.3 2.75 1.723 3.023 2.195 3.3 2.68 4.125 3.656 4.398 4.074" stroke="rgb(70.196533%,32.940674%,0%)"/><path d="M37.5 208.184l2.477-2.223 2.75-2.793 3.574-3.984 9.9-11.254 2.75-2.695 2.473-2.113 2.2-1.574 1.926-1.117 1.926-.855 1.648-.516 1.652-.3 1.648-.086 1.652.125 1.648.344 1.648.55 1.926.895 1.926 1.16 2.2 1.617 2.2 1.898 2.477 2.414 3.023 3.258 4.95 5.723 5.227 5.95 3.023 3.117 2.477 2.254 2.2 1.723 1.926 1.262 1.922 1.012 1.926.738 1.652.406 1.648.2 1.648-.02 1.652-.234 1.648-.445 1.652-.652 1.922-1.008 1.926-1.266 2.2-1.723 2.477-2.258 2.75-2.82 3.574-4.004 9.348-10.652 2.75-2.73 2.477-2.148 2.2-1.617 1.926-1.156 1.922-.895 1.652-.55 1.648-.34 1.652-.125 1.648.086 1.648.305 1.652.516 1.926.855 1.922 1.12 1.926 1.363 2.2 1.828 2.477 2.352 3.023 3.203 4.398 5.047 6.324 7.238 3.027 3.117 2.473 2.258 2.203 1.727 1.922 1.262 1.926 1.012 1.926.742 1.648.414 1.652.195 1.648-.016 1.648-.23 1.652-.44 1.648-.648 1.926-1.008 1.926-1.262 2.2-1.723 2.473-2.254 2.75-2.816 3.578-4.004 9.348-10.656 2.75-2.73 2.473-2.152 2.203-1.62 1.922-1.156 1.926-.902 1.648-.55 1.652-.34 1.648-.13 1.652.086 1.648.3 1.648.512 1.926.852 1.926 1.117 1.926 1.363 2.2 1.824 2.473 2.352 3.027 3.203 4.398 5.043 6.324 7.242 3.027 3.12 2.473 2.258 2.2 1.727 1.926 1.266 1.926 1.016 1.922.746 1.652.414 1.648.2 1.652-.012 1.648-.23 1.648-.44 1.652-.645 1.648-.848" stroke="rgb(35.293579%,16.470337%,0%)"/></g></g></g><g stroke="#000"><g transform="matrix(1.999638 0 0 1.999638 -113.977554 .801666)" fill="#1f77b4"><circle cx="111" cy="70.6" r="2.5"/><circle cx="123.824" cy="68.9" r="2.5"/><circle cx="138.155" cy="86.21" r="2.5"/><circle cx="150.3" cy="91.9" r="2.5"/><circle cx="163.1" cy="98.3" r="2.5"/><circle cx="176.022" cy="95.419" r="2.5"/><circle cx="188.478" cy="80.133" r="2.5"/><circle cx="199.5" cy="76.5" r="2.5"/></g><g transform="matrix(1.999638 0 0 1.999638 -113.977554 .881672)" fill="none" class="d e"><g class="i"><path d="M65.5 151.098v3.5m68.676-3.5v3.5m68.68-3.5v3.5m68.675-3.5v3.5m68.677-3.5v3.5" class="c g h"/><path d="M99.84 151.098v2m68.676-2v2m68.674-2v2m68.677-2v2m34.34-2v2" class="c j"/><path d="M65.5 151.098H62m3.5-36.638H62m3.5-36.632H62m3.5-36.633H62M65.5 4.56H62" class="c g h"/><path d="M65.5 132.777h-2m2-36.632h-2m2-36.633h-2m2-36.632h-2m2-18.32h-2" class="c j"/></g><g class="g h"><path d="M65.5 151.098V4.56m274.707 146.538V4.56" class="c"/><path d="M65.5 151.098h274.707M65.5 4.56h274.707" class="c"/></g><g class="i"><path d="M65.5 222v3.5m68.676-3.5v3.5m68.68-3.5v3.5m68.675-3.5v3.5m68.677-3.5v3.5" class="c g h"/><path d="M99.84 222v2m68.676-2v2m68.674-2v2m68.677-2v2" class="c j"/></g><g class="g h"><path d="M65.5 213.332H62m3.5-34.664H62" class="c i"/><path d="M65.5 222v-51.996M340.207 222v-51.996" class="c"/><path d="M65.5 222h274.707M65.5 170.004h274.707" class="c"/></g></g></g><path d="M508.253 255.685h-4.02v6.68h-2.25v-17.06h6.3c1.867 0 3.33.477 4.4 1.43s1.6 2.213 1.6 3.78c0 1.66-.517 2.937-1.55 3.83-1.04.893-2.523 1.34-4.45 1.34zm-4.02-8.53v6.7h4.04c1.207 0 2.13-.283 2.77-.85s.96-1.383.96-2.45c0-1.02-.32-1.833-.96-2.44-.64-.613-1.52-.93-2.64-.95h-4.17zm18.678 2.46v2.02c-.327-.06-.683-.1-1.07-.1-1.42 0-2.383.607-2.9 1.82v9h-2.17v-12.68h2.1l.04 1.47c.707-1.133 1.713-1.7 3.02-1.7.42 0 .74.053.96.16zm4.35.07v12.68h-2.17v-12.68h2.17zm-2.35-3.36a1.33 1.33 0 0 1 .32-.9c.22-.247.54-.37.96-.37s.74.123.96.37c.22.24.33.537.33.9 0 .347-.1.64-.33.88-.22.233-.54.35-.96.35s-.74-.117-.96-.35c-.214-.24-.32-.533-.32-.88zm5.243 9.74v-.16c0-1.24.243-2.357.73-3.35s1.166-1.76 2.04-2.3c.866-.533 1.86-.8 2.98-.8 1.726 0 3.123.597 4.2 1.8s1.6 2.783 1.6 4.77v.15c0 1.233-.237 2.34-.7 3.32s-1.15 1.743-2.03 2.3-1.9.82-3.03.82c-1.714 0-3.104-.597-4.17-1.8s-1.6-2.773-1.6-4.74zm2.18.1c0 1.407.323 2.537.97 3.4.653.847 1.526 1.27 2.62 1.27 1.106 0 1.983-.43 2.63-1.3s.97-2.077.97-3.63c0-1.387-.33-2.513-1-3.38-.66-.86-1.537-1.3-2.63-1.3-1.074 0-1.937.423-2.6 1.27-.654.853-.98 2.073-.98 3.66zm18.205-6.55v2.02a5.94 5.94 0 0 0-1.07-.09c-1.42 0-2.384.607-2.9 1.82v9h-2.17v-12.68h2.1l.04 1.47c.706-1.133 1.713-1.7 3.02-1.7.42 0 .74.053.96.16zm-43.836 36.75h-4.72v-17.06h4.82c1.48 0 2.8.327 3.93.98a6.67 6.67 0 0 1 2.65 2.8c.62 1.213.933 2.603.94 4.17v1.1c0 1.613-.3 3.023-.93 4.23-.62 1.213-1.507 2.143-2.66 2.8s-2.497.987-4.03 1zm.16-15.2h-2.63v13.37h2.37c1.733 0 3.083-.54 4.05-1.62.96-1.073 1.44-2.607 1.44-4.6v-1c0-1.933-.453-3.44-1.36-4.52-.913-1.073-2.203-1.617-3.87-1.63zm20.615 15.2h-2.27c-.126-.253-.23-.7-.3-1.34-1.006 1.047-2.2 1.57-3.6 1.57-1.246 0-2.27-.353-3.07-1.06a3.43 3.43 0 0 1-1.2-2.69c0-1.32.5-2.343 1.5-3.07 1.007-.733 2.42-1.1 4.24-1.1h2.1v-1c0-.76-.226-1.363-.68-1.8-.453-.453-1.12-.68-2-.68-.773 0-1.423.197-1.95.6-.526.387-.8.86-.8 1.42h-2.17c0-.633.224-1.247.67-1.84.447-.587 1.057-1.053 1.83-1.4.767-.34 1.6-.5 2.53-.5 1.467 0 2.614.363 3.44 1.1s1.257 1.74 1.3 3.02v5.84c0 1.16.147 2.083.44 2.77v.2zm-5.87-1.65c.68 0 1.324-.177 1.93-.53.614-.353 1.057-.8 1.33-1.37v-2.6h-1.7c-2.653 0-3.98.777-3.98 2.33 0 .68.227 1.2.68 1.6.447.387 1.027.58 1.74.58zm9.593-14.1h2.17v3.07h2.37v1.68h-2.37v7.86c0 .507.106.887.32 1.14.206.253.566.38 1.08.38.246 0 .6-.047 1.03-.14v1.76a6.47 6.47 0 0 1-1.67.23c-.967 0-1.697-.3-2.2-.87-.494-.587-.74-1.42-.74-2.5v-7.86h-2.3v-1.68h2.3v-3.07zm17.168 15.75h-2.27c-.126-.253-.23-.7-.3-1.34-1.006 1.047-2.2 1.57-3.6 1.57-1.246 0-2.27-.353-3.07-1.06a3.43 3.43 0 0 1-1.2-2.69c0-1.32.5-2.343 1.5-3.07 1.007-.733 2.42-1.1 4.24-1.1h2.1v-1c0-.76-.226-1.363-.68-1.8-.453-.453-1.12-.68-2-.68-.773 0-1.423.197-1.95.6-.526.387-.8.86-.8 1.42h-2.17c0-.633.224-1.247.67-1.84.447-.587 1.057-1.053 1.83-1.4.767-.34 1.6-.5 2.53-.5 1.467 0 2.614.363 3.44 1.1s1.257 1.74 1.3 3.02v5.84c0 1.16.147 2.083.44 2.77v.2zm-5.87-1.65c.68 0 1.324-.177 1.93-.53.614-.353 1.057-.8 1.33-1.37v-2.6h-1.7c-2.653 0-3.98.777-3.98 2.33 0 .68.227 1.2.68 1.6.447.387 1.027.58 1.74.58z" fill="#333"/><path d="M460 253h28.5" stroke-dasharray="7.3, 3.3" stroke="#ff7f0e" stroke-width="3" fill="none" class="f"/><circle cx="474.5" cy="277" r="5" fill="#1f77b4" stroke-width="2" stroke="#000"/></svg>