<svg xmlns="http://www.w3.org/2000/svg" xmlns:xlink="http://www.w3.org/1999/xlink" width="216" height="216" viewBox="0 0 162 162" xmlns:v="https://vecta.io/nano"><style><![CDATA[.F{stroke-linejoin:round}.G{stroke-miterlimit:10}.H{stroke:rgb(0%,0%,0%)}.I{fill:none}.J{fill:rgb(0%,0%,0%)}]]></style><defs><clipPath id="A"><path d="M71 73h2.72v2.598H71zm0 0"/></clipPath><clipPath id="B"><path d="M70.988 72.863h2.73v2.734h-2.73zm0 0"/></clipPath><clipPath id="C"><path d="M66.297 76.363H69V79h-2.703zm0 0"/></clipPath><clipPath id="D"><path d="M66.297 76.363h2.734v2.73h-2.734zm0 0"/></clipPath><clipPath id="E"><path d="M58 80.402h2.695V83H58zm0 0"/></clipPath><clipPath id="F"><path d="M57.965 80.402h2.73v2.73h-2.73zm0 0"/></clipPath><clipPath id="G"><path d="M45.008 83h2.734v2h-2.734zm0 0"/></clipPath><clipPath id="H"><path d="M45.008 82.617h2.734v2.734h-2.734zm0 0"/></clipPath><clipPath id="I"><path d="M28.043 79h2.73v2.633h-2.73zm0 0"/></clipPath><clipPath id="J"><path d="M28.043 78.902h2.73v2.73h-2.73zm0 0"/></clipPath><clipPath id="K"><path d="M12 65.05h2.527v2.734H12zm0 0"/></clipPath><clipPath id="L"><path d="M11.797 65.05h2.73v2.734h-2.73zm0 0"/></clipPath><clipPath id="M"><path d="M5 42.148h2.703v2.73H5zm0 0"/></clipPath><clipPath id="N"><path d="M4.973 42.148h2.73v2.73h-2.73zm0 0"/></clipPath><clipPath id="O"><path d="M12.422 20H15v2h-2.578zm0 0"/></clipPath><clipPath id="P"><path d="M12.422 19.512h2.734v2.73h-2.734zm0 0"/></clipPath><clipPath id="Q"><path d="M29 6.18h2.617v2.734H29zm0 0"/></clipPath><clipPath id="R"><path d="M28.887 6.18h2.73v2.734h-2.73zm0 0"/></clipPath><clipPath id="S"><path d="M46 3h2v2.586h-2zm0 0"/></clipPath><clipPath id="T"><path d="M45.727 2.855h2.734v2.73h-2.734zm0 0"/></clipPath><clipPath id="U"><path d="M58.457 5.238H61v2.73h-2.543zm0 0"/></clipPath><clipPath id="V"><path d="M58.457 5.238h2.734v2.73h-2.734zm0 0"/></clipPath><clipPath ><path d="M73.004 14.473h2.73V17h-2.73zm0 0"/></clipPath><clipPath ><path d="M73.004 14.473h2.73v2.734h-2.73zm0 0"/></clipPath><clipPath id="Y"><path d="M13.07 67h2.734v2.563H13.07zm0 0"/></clipPath><clipPath id="Z"><path d="M13.07 66.832h2.734v2.73H13.07zm0 0"/></clipPath><clipPath ><path d="M29.727 79.64h2.734v2.73h-2.734zm0 0"/></clipPath><clipPath id="b"><path d="M46.438 83H49v2h-2.562zm0 0"/></clipPath><clipPath id="c"><path d="M46.438 82.586h2.73v2.734h-2.73zm0 0"/></clipPath><clipPath id="d"><path d="M67 76h2.6v2.72H67zm0 0"/></clipPath><clipPath id="e"><path d="M66.88 75.984h2.73v2.734h-2.73zm0 0"/></clipPath><clipPath id="f"><path d="M71.28 73H74v2h-2.72zm0 0"/></clipPath><clipPath id="g"><path d="M71.28 72.605H74v2.734h-2.73zm0 0"/></clipPath><clipPath id="h"><path d="M73.137 71h2.73v2.6h-2.73zm0 0"/></clipPath><clipPath id="i"><path d="M73.137 70.855h2.73V73.6h-2.73zm0 0"/></clipPath><clipPath id="j"><path d="M73 71.043h2.684v2.73H73zm0 0"/></clipPath><clipPath id="k"><path d="M72.95 71.043h2.734v2.73H72.95zm0 0"/></clipPath><clipPath ><path d="M57 81h2.68v2H57zm0 0"/></clipPath><clipPath ><path d="M56.95 80.742h2.73v2.73h-2.73zm0 0"/></clipPath><clipPath id="n"><path d="M26.36 78.07H29v2.734h-2.64zm0 0"/></clipPath><clipPath id="o"><path d="M26.36 78.07h2.73v2.734h-2.73zm0 0"/></clipPath><clipPath ><path d="M11 63.184h2v2.73h-2zm0 0"/></clipPath><clipPath ><path d="M10.6 63.184h2.73v2.73H10.6zm0 0"/></clipPath><clipPath id="r"><path d="M14 18h2v2.508h-2zm0 0"/></clipPath><clipPath id="s"><path d="M13.738 17.777h2.73v2.73h-2.73zm0 0"/></clipPath><clipPath id="t"><path d="M47.137 3h2.73v2.645h-2.73zm0 0"/></clipPath><clipPath id="u"><path d="M47.137 2.9h2.73v2.734h-2.73zm0 0"/></clipPath><clipPath id="v"><path d="M59.4 6H62v2h-2.6zm0 0"/></clipPath><clipPath id="w"><path d="M59.4 5.598h2.734v2.73H59.4zm0 0"/></clipPath><clipPath id="x"><path d="M67.156 10H69.9v2h-2.734zm0 0"/></clipPath><clipPath id="y"><path d="M67.156 9.664H69.9v2.73h-2.734zm0 0"/></clipPath><clipPath id="z"><path d="M71.422 13H74v2.715h-2.578zm0 0"/></clipPath><clipPath id="AA"><path d="M71.422 12.98h2.73v2.734h-2.73zm0 0"/></clipPath><clipPath ><path d="M73.172 15h2.73v2h-2.73zm0 0"/></clipPath><clipPath ><path d="M73.172 14.645h2.73v2.73h-2.73zm0 0"/></clipPath><clipPath id="AD"><path d="M73 14.363h2.625V17H73zm0 0"/></clipPath><clipPath id="AE"><path d="M72.9 14.363h2.734v2.734H72.9zm0 0"/></clipPath><clipPath id="AF"><path d="M71 12.184h2v2.734h-2zm0 0"/></clipPath><clipPath id="AG"><path d="M70.5 12.184h2.734v2.734H70.5zm0 0"/></clipPath><clipPath ><path d="M65.367 9H68v2h-2.633zm0 0"/></clipPath><clipPath ><path d="M65.367 8.523h2.73v2.734h-2.73zm0 0"/></clipPath><clipPath id="AJ"><path d="M56.426 5H59v2h-2.574zm0 0"/></clipPath><clipPath id="AK"><path d="M56.426 4.563h2.73v2.73h-2.73zm0 0"/></clipPath><clipPath id="AL"><path d="M43 3h2.527v2.633H43zm0 0"/></clipPath><clipPath id="AM"><path d="M42.797 2.898h2.73v2.734h-2.73zm0 0"/></clipPath><clipPath id="AN"><path d="M26 8h2v2.578h-2zm0 0"/></clipPath><clipPath id="AO"><path d="M25.52 7.844h2.734v2.734H25.52zm0 0"/></clipPath><clipPath id="AP"><path d="M10.05 23.246h2.73v2.734h-2.73zm0 0"/></clipPath><clipPath id="AQ"><path d="M5.176 47H7.9v2.547H5.176zm0 0"/></clipPath><clipPath id="AR"><path d="M5.176 46.813H7.9v2.734H5.176zm0 0"/></clipPath><clipPath id="AS"><path d="M14.422 69H17v2h-2.578zm0 0"/></clipPath><clipPath id="AT"><path d="M14.422 68.52h2.734v2.73h-2.734zm0 0"/></clipPath><clipPath id="AU"><path d="M31.4 80.285H34V83h-2.6zm0 0"/></clipPath><clipPath id="AV"><path d="M31.4 80.285h2.73v2.73H31.4zm0 0"/></clipPath><clipPath id="AW"><path d="M48 83h2.555v2H48zm0 0"/></clipPath><clipPath id="AX"><path d="M47.824 82.508h2.73v2.73h-2.73zm0 0"/></clipPath><clipPath id="AY"><path d="M60 80h2.605v2H60zm0 0"/></clipPath><clipPath id="AZ"><path d="M59.87 79.684h2.734v2.73H59.87zm0 0"/></clipPath><clipPath id="Aa"><path d="M67.426 76H70v2h-2.574zm0 0"/></clipPath><clipPath id="Ab"><path d="M67.426 75.617h2.734v2.73h-2.734zm0 0"/></clipPath><clipPath ><path d="M72 72.363h2V75h-2zm0 0"/></clipPath><clipPath ><path d="M71.555 72.363h2.73v2.73h-2.73zm0 0"/></clipPath><clipPath id="Ae"><path d="M73.203 71h2.73v2.523h-2.73zm0 0"/></clipPath><clipPath id="Af"><path d="M73.203 70.8h2.73v2.734h-2.73zm0 0"/></clipPath><clipPath id="Ag"><path d="M73 71.16h2.563v2.734H73zm0 0"/></clipPath><clipPath id="Ah"><path d="M72.828 71.16h2.734v2.734h-2.734zm0 0"/></clipPath><clipPath id="Ai"><path d="M70.328 73.422H73V76h-2.672zm0 0"/></clipPath><clipPath id="Aj"><path d="M70.328 73.422h2.73v2.734h-2.73zm0 0"/></clipPath><clipPath id="Ak"><path d="M65.04 77.133h2.73v2.734h-2.73zm0 0"/></clipPath><clipPath id="Al"><path d="M56 81.063h2.62v2.73H56zm0 0"/></clipPath><clipPath id="Am"><path d="M55.9 81.063h2.73v2.73H55.9zm0 0"/></clipPath><clipPath ><path d="M42.04 83h2.73v2h-2.73zm0 0"/></clipPath><clipPath ><path d="M42.04 82.52h2.73v2.73h-2.73zm0 0"/></clipPath><clipPath id="Ap"><path d="M25 77.145h2v2.73h-2zm0 0"/></clipPath><clipPath id="Aq"><path d="M24.684 77.145h2.734v2.73h-2.734zm0 0"/></clipPath><clipPath id="Ar"><path d="M10 61.23h2v2.734h-2zm0 0"/></clipPath><clipPath id="As"><path d="M9.516 61.23h2.734v2.734H9.516zm0 0"/></clipPath><clipPath id="At"><path d="M5.313 37.492H8V40H5.313zm0 0"/></clipPath><clipPath id="Au"><path d="M5.313 37.492h2.73v2.73h-2.73zm0 0"/></clipPath><clipPath id="Av"><path d="M15.125 16.137h2.734v2.734h-2.734zm0 0"/></clipPath><clipPath id="Aw"><path d="M32.246 5h2.734v2.62h-2.734zm0 0"/></clipPath><clipPath id="Ax"><path d="M32.246 4.9h2.734v2.73h-2.734zm0 0"/></clipPath><clipPath ><path d="M49 3.012h2v2.734h-2zm0 0"/></clipPath><clipPath ><path d="M48.504 3.012h2.73v2.734h-2.73zm0 0"/></clipPath><clipPath id="BA"><path d="M60.324 6H63v2.7h-2.676zm0 0"/></clipPath><clipPath id="BB"><path d="M60.324 5.97h2.73V8.7h-2.73zm0 0"/></clipPath><clipPath ><path d="M68 10.03h2v2.73h-2zm0 0"/></clipPath><clipPath ><path d="M67.7 10.03h2.73v2.73H67.7zm0 0"/></clipPath><clipPath id="BE"><path d="M72 13.215h2v2.734h-2zm0 0"/></clipPath><clipPath id="BF"><path d="M71.68 13.215h2.734v2.734H71.68zm0 0"/></clipPath><clipPath ><path d="M73.23 15h2.73v2h-2.73zm0 0"/></clipPath><clipPath ><path d="M73.23 14.703h2.73v2.73h-2.73zm0 0"/></clipPath><clipPath ><path d="M73 14.238h2v2.73h-2zm0 0"/></clipPath><clipPath ><path d="M72.762 14.238h2.734v2.73h-2.734zm0 0"/></clipPath><clipPath id="BK"><path d="M70.148 12h2.73v2.625h-2.73zm0 0"/></clipPath><clipPath id="BL"><path d="M70.148 11.9h2.73v2.734h-2.73zm0 0"/></clipPath><clipPath id="BM"><path d="M65 8.137h2v2.73h-2zm0 0"/></clipPath><clipPath id="BN"><path d="M64.703 8.137h2.73v2.73h-2.73zm0 0"/></clipPath><clipPath id="BO"><path d="M55.344 4.25H58v2.73h-2.656zm0 0"/></clipPath><clipPath id="BP"><path d="M55.344 4.25h2.73v2.73h-2.73zm0 0"/></clipPath><clipPath id="BQ"><path d="M41.273 3.008H44v2.73h-2.727zm0 0"/></clipPath><clipPath id="BR"><path d="M41.273 3.008h2.734v2.73h-2.734zm0 0"/></clipPath><clipPath ><path d="M24 9h2.586v2.555H24zm0 0"/></clipPath><clipPath ><path d="M23.852 8.82h2.734v2.734h-2.734zm0 0"/></clipPath><clipPath id="BU"><path d="M9.008 25.238h2.734v2.73H9.008zm0 0"/></clipPath><clipPath ><path d="M5.48 49.125H8v2.73H5.48zm0 0"/></clipPath><clipPath ><path d="M5.48 49.125h2.734v2.73H5.48zm0 0"/></clipPath><clipPath ><path d="M16 70.1h2.578v2.73H16zm0 0"/></clipPath><clipPath ><path d="M15.848 70.1h2.73v2.73h-2.73zm0 0"/></clipPath><clipPath id="BZ"><path d="M33.082 81h2.73v2.574h-2.73zm0 0"/></clipPath><clipPath id="Ba"><path d="M33.082 80.844h2.73v2.73h-2.73zm0 0"/></clipPath><clipPath id="Bb"><path d="M49.168 82.383h2.734V85h-2.734zm0 0"/></clipPath><clipPath id="Bc"><path d="M49.168 82.383h2.734v2.734h-2.734zm0 0"/></clipPath><clipPath id="Bd"><path d="M61 79.3h2V82h-2zm0 0"/></clipPath><clipPath id="Be"><path d="M60.766 79.3h2.73v2.73h-2.73zm0 0"/></clipPath><clipPath id="Bf"><path d="M68 75.254h2.68v2.73H68zm0 0"/></clipPath><clipPath id="Bg"><path d="M67.945 75.254h2.734v2.73h-2.734zm0 0"/></clipPath><clipPath id="Bh"><path d="M72 72.137h2.535v2.73H72zm0 0"/></clipPath><clipPath id="Bi"><path d="M71.805 72.137h2.73v2.73h-2.73zm0 0"/></clipPath><clipPath id="Bj"><path d="M73.25 71h2.734v2H73.25zm0 0"/></clipPath><clipPath id="Bk"><path d="M73.25 70.742h2.734v2.73H73.25zm0 0"/></clipPath><clipPath id="Bl"><path d="M73 71.297h2V74h-2zm0 0"/></clipPath><clipPath id="Bm"><path d="M72.7 71.297h2.73v2.734H72.7zm0 0"/></clipPath><clipPath id="Bn"><path d="M70 74h2.695v2H70zm0 0"/></clipPath><clipPath id="Bo"><path d="M69.96 73.723h2.734v2.734H69.96zm0 0"/></clipPath><clipPath id="Bp"><path d="M64.36 78H67v2h-2.64zm0 0"/></clipPath><clipPath id="Bq"><path d="M64.36 77.523h2.73v2.734h-2.73zm0 0"/></clipPath><clipPath id="Br"><path d="M55 81.363h2.52V84H55zm0 0"/></clipPath><clipPath id="Bs"><path d="M54.785 81.363h2.734v2.73h-2.734zm0 0"/></clipPath><clipPath id="Bt"><path d="M41 82.38h2V85h-2zm0 0"/></clipPath><clipPath id="Bu"><path d="M40.5 82.38h2.734v2.734H40.5zm0 0"/></clipPath><clipPath id="Bv"><path d="M23.027 76.117h2.73v2.73h-2.73zm0 0"/></clipPath><clipPath id="Bw"><path d="M9 59.203h2v2.73H9zm0 0"/></clipPath><clipPath id="Bx"><path d="M8.527 59.203h2.73v2.73h-2.73zm0 0"/></clipPath><clipPath id="By"><path d="M6 35.195h2v2.73H6zm0 0"/></clipPath><clipPath id="Bz"><path d="M5.684 35.195h2.734v2.73H5.684zm0 0"/></clipPath><clipPath id="CA"><path d="M16.582 14.598h2.73v2.73h-2.73zm0 0"/></clipPath><clipPath id="CB"><path d="M34 4.375h2.645V7H34zm0 0"/></clipPath><clipPath id="CC"><path d="M33.914 4.375h2.73v2.73h-2.73zm0 0"/></clipPath><clipPath id="CD"><path d="M50 3.156h2.56V5.9H50zm0 0"/></clipPath><clipPath id="CE"><path d="M49.824 3.156h2.734V5.9h-2.734zm0 0"/></clipPath><clipPath id="CF"><path d="M61.195 6.348h2.73V9h-2.73zm0 0"/></clipPath><clipPath id="CG"><path d="M61.195 6.348h2.73v2.73h-2.73zm0 0"/></clipPath><clipPath id="CH"><path d="M68.195 10.387h2.73V13h-2.73zm0 0"/></clipPath><clipPath id="CI"><path d="M68.195 10.387h2.73v2.734h-2.73zm0 0"/></clipPath><clipPath id="CJ"><path d="M72 13.438h2.652V16H72zm0 0"/></clipPath><clipPath id="CK"><path d="M71.922 13.438h2.73v2.73h-2.73zm0 0"/></clipPath><clipPath id="CL"><path d="M73.27 15H76v2h-2.73zm0 0"/></clipPath><clipPath id="CM"><path d="M73.27 14.742H76v2.73h-2.73zm0 0"/></clipPath><clipPath id="CN"><path d="M73 14.094h2v2.73h-2zm0 0"/></clipPath><clipPath id="CO"><path d="M72.613 14.094h2.734v2.73h-2.734zm0 0"/></clipPath><clipPath id="CP"><path d="M69.77 11.586h2.73v2.73h-2.73zm0 0"/></clipPath><clipPath id="CQ"><path d="M64.004 8h2.734v2h-2.734zm0 0"/></clipPath><clipPath id="CR"><path d="M64.004 7.746h2.734v2.73h-2.734zm0 0"/></clipPath><clipPath id="CS"><path d="M54.22 4h2.73v2.7h-2.73zm0 0"/></clipPath><clipPath id="CT"><path d="M54.22 3.96h2.73V6.7h-2.73zm0 0"/></clipPath><clipPath id="CU"><path d="M40 3.176h2V5.9h-2zm0 0"/></clipPath><clipPath id="CV"><path d="M39.72 3.176h2.734V5.9H39.72zm0 0"/></clipPath><clipPath id="CW"><path d="M22.207 10h2.73v2.63h-2.73zm0 0"/></clipPath><clipPath id="CX"><path d="M22.207 9.898h2.73v2.73h-2.73zm0 0"/></clipPath><clipPath id="CY"><path d="M8.074 27.3h2.73V30h-2.73zm0 0"/></clipPath><clipPath id="CZ"><path d="M8.074 27.3h2.73v2.734h-2.73zm0 0"/></clipPath><clipPath id="Ca"><path d="M6 51.406h2.652V54H6zm0 0"/></clipPath><clipPath id="Cb"><path d="M5.922 51.406h2.73v2.73h-2.73zm0 0"/></clipPath><clipPath id="Cc"><path d="M17.328 72H20v2h-2.672zm0 0"/></clipPath><clipPath id="Cd"><path d="M17.328 71.602h2.734v2.73h-2.734zm0 0"/></clipPath><clipPath id="Ce"><path d="M35 81.316h2V84h-2zm0 0"/></clipPath><clipPath id="Cf"><path d="M34.738 81.316h2.734v2.73h-2.734zm0 0"/></clipPath><clipPath id="Cg"><path d="M50.473 82.223H53v2.73h-2.527zm0 0"/></clipPath><clipPath id="Ch"><path d="M50.473 82.223h2.73v2.73h-2.73zm0 0"/></clipPath><clipPath id="Ci"><path d="M62 79h2v2.656h-2zm0 0"/></clipPath><clipPath id="Cj"><path d="M61.617 78.926h2.73v2.73h-2.73zm0 0"/></clipPath><clipPath id="Ck"><path d="M68.434 75H71v2.633h-2.566zm0 0"/></clipPath><clipPath id="Cl"><path d="M68.434 74.902h2.734v2.73h-2.734zm0 0"/></clipPath><clipPath id="Cm"><path d="M72.03 72h2.734v2.656H72.03zm0 0"/></clipPath><clipPath id="Cn"><path d="M72.03 71.926h2.734v2.73H72.03zm0 0"/></clipPath><clipPath id="Co"><path d="M73.28 71H76v2h-2.72zm0 0"/></clipPath><clipPath id="Cp"><path d="M73.28 70.707h2.734v2.734H73.28zm0 0"/></clipPath><clipPath id="Cq"><path d="M73 71.45h2V74h-2zm0 0"/></clipPath><clipPath id="Cr"><path d="M72.53 71.45h2.734v2.734H72.53zm0 0"/></clipPath><clipPath id="Cs"><path d="M70 74.035h2v2.734h-2zm0 0"/></clipPath><clipPath id="Ct"><path d="M69.57 74.035h2.734v2.734H69.57zm0 0"/></clipPath><clipPath id="Cu"><path d="M64 78h2v2.648h-2zm0 0"/></clipPath><clipPath id="Cv"><path d="M63.64 77.914h2.734v2.734H63.64zm0 0"/></clipPath><clipPath id="Cw"><path d="M53.64 81.637h2.73v2.734h-2.73zm0 0"/></clipPath><clipPath id="Cx"><path d="M39 82.176h2.664V84.9H39zm0 0"/></clipPath><clipPath id="Cy"><path d="M38.93 82.176h2.734V84.9H38.93zm0 0"/></clipPath><clipPath id="Cz"><path d="M21.395 75H24v2.723h-2.605zm0 0"/></clipPath><clipPath id="DA"><path d="M21.395 74.988h2.73v2.734h-2.73zm0 0"/></clipPath><clipPath id="DB"><path d="M8 57.105h2v2.73H8zm0 0"/></clipPath><clipPath id="DC"><path d="M7.645 57.105h2.734v2.73H7.645zm0 0"/></clipPath><clipPath id="DD"><path d="M6.2 33h2.73v2.664H6.2zm0 0"/></clipPath><clipPath id="DE"><path d="M6.2 32.934h2.73v2.73H6.2zm0 0"/></clipPath><clipPath id="DF"><path d="M18.1 13.156h2.734v2.73H18.1zm0 0"/></clipPath><clipPath id="DG"><path d="M36 4h2v2.676h-2zm0 0"/></clipPath><clipPath id="DH"><path d="M35.563 3.94h2.73v2.734h-2.73zm0 0"/></clipPath><clipPath id="DI"><path d="M51.105 3.34h2.734V6h-2.734zm0 0"/></clipPath><clipPath id="DJ"><path d="M51.105 3.34h2.734v2.73h-2.734zm0 0"/></clipPath><clipPath id="DK"><path d="M62.027 7h2.73v2h-2.73zm0 0"/></clipPath><clipPath id="DL"><path d="M62.027 6.734h2.73v2.73h-2.73zm0 0"/></clipPath><clipPath id="DM"><path d="M68.668 10.734h2.734v2.734h-2.734zm0 0"/></clipPath><clipPath id="DN"><path d="M72.14 14h2.73v2h-2.73zm0 0"/></clipPath><clipPath id="DO"><path d="M72.14 13.64h2.73v2.73h-2.73zm0 0"/></clipPath><clipPath id="DP"><path d="M73.293 15H76v2h-2.707zm0 0"/></clipPath><clipPath id="DQ"><path d="M73.293 14.766h2.73v2.73h-2.73zm0 0"/></clipPath><clipPath id="DR"><path d="M72.445 14H75v2.664h-2.555zm0 0"/></clipPath><clipPath id="DS"><path d="M72.445 13.93h2.734v2.734h-2.734zm0 0"/></clipPath><clipPath id="DT"><path d="M69.367 11.266H72V14h-2.633zm0 0"/></clipPath><clipPath id="DU"><path d="M69.367 11.266h2.73V14h-2.73zm0 0"/></clipPath><clipPath id="DV"><path d="M63.27 7.352H66V10h-2.73zm0 0"/></clipPath><clipPath id="DW"><path d="M63.27 7.352h2.734v2.734H63.27zm0 0"/></clipPath><clipPath id="DX"><path d="M53.05 4h2.73v2h-2.73zm0 0"/></clipPath><clipPath id="DY"><path d="M53.05 3.7h2.73v2.73h-2.73zm0 0"/></clipPath><clipPath id="DZ"><path d="M38.137 3.414h2.73V6h-2.73zm0 0"/></clipPath><clipPath id="Da"><path d="M38.137 3.414h2.73v2.734h-2.73zm0 0"/></clipPath><clipPath id="Db"><path d="M21 11.078h2v2.73h-2zm0 0"/></clipPath><clipPath id="Dc"><path d="M20.586 11.078h2.734v2.73h-2.734zm0 0"/></clipPath><clipPath id="Dd"><path d="M7.25 29.434h2.73V32H7.25zm0 0"/></clipPath><clipPath id="De"><path d="M7.25 29.434h2.73v2.73H7.25zm0 0"/></clipPath><clipPath id="Df"><path d="M6.488 54H9v2H6.488zm0 0"/></clipPath><clipPath id="Dg"><path d="M6.488 53.648h2.734v2.73H6.488zm0 0"/></clipPath><clipPath id="Dh"><path d="M19 73h2.598v2.723H19zm0 0"/></clipPath><clipPath id="Di"><path d="M18.867 72.992h2.73v2.73h-2.73zm0 0"/></clipPath><clipPath id="Dj"><path d="M36.38 82H39v2h-2.62zm0 0"/></clipPath><clipPath id="Dk"><path d="M36.38 81.707h2.73v2.734h-2.73zm0 0"/></clipPath><clipPath id="Dl"><path d="M52 82.02h2v2.734h-2zm0 0"/></clipPath><clipPath id="Dm"><path d="M51.73 82.02h2.73v2.734h-2.73zm0 0"/></clipPath><clipPath id="Dn"><path d="M62.43 79H65v2h-2.57zm0 0"/></clipPath><clipPath id="Do"><path d="M62.43 78.54h2.73v2.73h-2.73zm0 0"/></clipPath><clipPath id="Dp"><path d="M69 75h2.63v2H69zm0 0"/></clipPath><clipPath id="Dq"><path d="M68.895 74.56h2.734v2.73h-2.734zm0 0"/></clipPath><clipPath id="Dr"><path d="M72.242 72h2.73v2h-2.73zm0 0"/></clipPath><clipPath id="Ds"><path d="M72.242 71.727h2.73v2.734h-2.73zm0 0"/></clipPath><clipPath id="Dt"><path d="M73.297 71H76v2h-2.703zm0 0"/></clipPath><clipPath id="Du"><path d="M73.297 70.695h2.73v2.73h-2.73zm0 0"/></clipPath><clipPath id="Dv"><path d="M72.355 72H75v2h-2.645zm0 0"/></clipPath><clipPath id="Dw"><path d="M72.355 71.62h2.73v2.73h-2.73zm0 0"/></clipPath><clipPath id="Dx"><path d="M69.152 74.363h2.734V77h-2.734zm0 0"/></clipPath><clipPath id="Dy"><path d="M69.152 74.363h2.734v2.73h-2.734zm0 0"/></clipPath><clipPath id="Dz"><path d="M63 78.3h2.62V81H63zm0 0"/></clipPath><clipPath id="EA"><path d="M62.9 78.3h2.73v2.73H62.9zm0 0"/></clipPath><clipPath id="EB"><path d="M52.45 82H55v2.62h-2.55zm0 0"/></clipPath><clipPath id="EC"><path d="M52.45 81.887h2.734v2.734H52.45zm0 0"/></clipPath><clipPath id="ED"><path d="M37.332 82H40v2.637h-2.668zm0 0"/></clipPath><clipPath id="EE"><path d="M37.332 81.902h2.73v2.734h-2.73zm0 0"/></clipPath><clipPath id="EF"><path d="M20 74h2.523v2H20zm0 0"/></clipPath><clipPath id="EG"><path d="M19.8 73.762h2.734v2.73H19.8zm0 0"/></clipPath><clipPath id="EH"><path d="M7 55h2.613v2.676H7zm0 0"/></clipPath><clipPath id="EI"><path d="M6.883 54.945h2.73v2.73h-2.73zm0 0"/></clipPath><clipPath id="EJ"><path d="M7 31h2.555v2H7zm0 0"/></clipPath><clipPath id="EK"><path d="M6.82 30.715h2.734v2.73H6.82zm0 0"/></clipPath><clipPath id="EL"><path d="M20 12h2v2.547h-2zm0 0"/></clipPath><clipPath id="EM"><path d="M19.652 11.816h2.73v2.73h-2.73zm0 0"/></clipPath><clipPath id="EN"><path d="M37.188 4h2.734v2h-2.734zm0 0"/></clipPath><clipPath id="EO"><path d="M37.188 3.6h2.734v2.73h-2.734zm0 0"/></clipPath><clipPath id="EP"><path d="M52.344 4H55v2h-2.656zm0 0"/></clipPath><clipPath id="EQ"><path d="M52.344 3.555h2.73V6.3h-2.73zm0 0"/></clipPath><clipPath id="ER"><path d="M63 7.12h2.555v2.734H63zm0 0"/></clipPath><clipPath id="ES"><path d="M62.82 7.12h2.734v2.734H62.82zm0 0"/></clipPath><clipPath id="ET"><path d="M69.117 11.074h2.73v2.73h-2.73zm0 0"/></clipPath><clipPath id="EU"><path d="M72.34 14H75v2.56h-2.66zm0 0"/></clipPath><clipPath id="EV"><path d="M72.34 13.828h2.73v2.73h-2.73zm0 0"/></clipPath><clipPath id="EW"><path d="M73.297 15H76v2.504h-2.703zm0 0"/></clipPath><clipPath id="EX"><path d="M73.297 14.77h2.73v2.734h-2.73zm0 0"/></clipPath><clipPath id="EY"><path d="M72.258 14h2.734v2h-2.734zm0 0"/></clipPath><clipPath id="EZ"><path d="M72.258 13.754h2.734v2.73h-2.734zm0 0"/></clipPath><clipPath id="Ea"><path d="M69 11h2.668v2.668H69zm0 0"/></clipPath><clipPath id="Eb"><path d="M68.934 10.938h2.734v2.73h-2.734zm0 0"/></clipPath><clipPath id="Ec"><path d="M63 7h2v2.7h-2zm0 0"/></clipPath><clipPath id="Ed"><path d="M62.5 6.96h2.73V9.7H62.5zm0 0"/></clipPath><clipPath id="Ee"><path d="M52 3.46h2.57V6H52zm0 0"/></clipPath><clipPath id="Ef"><path d="M51.84 3.46h2.73v2.734h-2.73zm0 0"/></clipPath><clipPath id="Eg"><path d="M36.523 3.727h2.73v2.73h-2.73zm0 0"/></clipPath><clipPath id="Eh"><path d="M19.004 12.355h2.73V15h-2.73zm0 0"/></clipPath><clipPath id="Ei"><path d="M19.004 12.355h2.73V15.1h-2.73zm0 0"/></clipPath><clipPath id="Ej"><path d="M6.547 31.62h2.73v2.73h-2.73zm0 0"/></clipPath><clipPath id="Ek"><path d="M7.184 56h2.73v2.574h-2.73zm0 0"/></clipPath><clipPath id="El"><path d="M7.184 55.84h2.73v2.734h-2.73zm0 0"/></clipPath><clipPath id="Em"><path d="M20.445 74.277H23V77h-2.555zm0 0"/></clipPath><clipPath id="En"><path d="M20.445 74.277h2.734v2.734h-2.734zm0 0"/></clipPath><clipPath id="Eo"><path d="M38 82.023h2.727v2.734H38zm0 0"/></clipPath><clipPath id="Ep"><path d="M37.992 82.023h2.734v2.734h-2.734zm0 0"/></clipPath><clipPath id="Eq"><path d="M53 82h2.68v2.52H53zm0 0"/></clipPath><clipPath id="Er"><path d="M52.945 81.8h2.734v2.73h-2.734zm0 0"/></clipPath><clipPath id="Es"><path d="M63.203 78.148h2.734v2.73h-2.734zm0 0"/></clipPath><clipPath id="Et"><path d="M69.328 74.227H72v2.73h-2.672zm0 0"/></clipPath><clipPath id="Eu"><path d="M69.328 74.227h2.734v2.73h-2.734zm0 0"/></clipPath><clipPath id="Ev"><path d="M72.43 72H75v2h-2.57zm0 0"/></clipPath><clipPath id="Ew"><path d="M72.43 71.547h2.734v2.734H72.43zm0 0"/></clipPath><clipPath id="Ex"><path d="M73.293 71H76v2h-2.707zm0 0"/></clipPath><clipPath id="Ey"><path d="M73.293 70.7h2.73v2.73h-2.73zm0 0"/></clipPath><clipPath id="Ez"><path d="M72.16 72h2.73v2.54h-2.73zm0 0"/></clipPath><clipPath id="FA"><path d="M72.16 71.8h2.73v2.73h-2.73zm0 0"/></clipPath><clipPath id="FB"><path d="M68.7 74.7h2.73v2.73H68.7zm0 0"/></clipPath><clipPath id="FC"><path d="M62.098 79h2.734v2h-2.734zm0 0"/></clipPath><clipPath id="FD"><path d="M62.098 78.7h2.734v2.73h-2.734zm0 0"/></clipPath><clipPath id="FE"><path d="M51.22 82.1h2.73v2.73h-2.73zm0 0"/></clipPath><clipPath id="FF"><path d="M35.707 81.555h2.73v2.734h-2.73zm0 0"/></clipPath><clipPath id="FG"><path d="M18.227 72.43h2.734V75h-2.734zm0 0"/></clipPath><clipPath id="FH"><path d="M18.227 72.43h2.734v2.734h-2.734zm0 0"/></clipPath><clipPath id="FI"><path d="M6.238 53h2.734v2H6.238zm0 0"/></clipPath><clipPath id="FJ"><path d="M6.238 52.73h2.734v2.73H6.238zm0 0"/></clipPath><clipPath id="FK"><path d="M7.574 28.547h2.73v2.734h-2.73zm0 0"/></clipPath><clipPath id="FL"><path d="M21.25 11h2.73v2h-2.73zm0 0"/></clipPath><clipPath id="FM"><path d="M21.25 10.578h2.73v2.734h-2.73zm0 0"/></clipPath><clipPath id="FN"><path d="M39 3.3h2.523V6H39zm0 0"/></clipPath><clipPath id="FO"><path d="M38.793 3.3h2.73v2.734h-2.73zm0 0"/></clipPath><clipPath id="FP"><path d="M54 4h2v2.535h-2zm0 0"/></clipPath><clipPath id="FQ"><path d="M53.54 3.8h2.73v2.734h-2.73zm0 0"/></clipPath><clipPath id="FR"><path d="M63.578 7.512h2.73v2.734h-2.73zm0 0"/></clipPath><clipPath id="FS"><path d="M70 11.398h2V14h-2zm0 0"/></clipPath><clipPath id="FT"><path d="M69.535 11.398h2.73v2.734h-2.73zm0 0"/></clipPath><clipPath id="FU"><path d="M73 14h2v2.73h-2zm0 0"/></clipPath><clipPath id="FV"><path d="M72.52 14h2.73v2.73h-2.73zm0 0"/></clipPath><clipPath id="FW"><path d="M73.285 15H76v2h-2.715zm0 0"/></clipPath><clipPath id="FX"><path d="M73.285 14.758h2.73v2.73h-2.73zm0 0"/></clipPath><clipPath id="FY"><path d="M72.05 14h2.734v2H72.05zm0 0"/></clipPath><clipPath id="FZ"><path d="M72.05 13.56h2.734v2.73H72.05zm0 0"/></clipPath><clipPath id="Fa"><path d="M68.477 11H71v2h-2.523zm0 0"/></clipPath><clipPath id="Fb"><path d="M68.477 10.594h2.73v2.734h-2.73zm0 0"/></clipPath><clipPath id="Fc"><path d="M61.7 6.574h2.73v2.73H61.7zm0 0"/></clipPath><clipPath id="Fd"><path d="M51 3.258h2v2.734h-2zm0 0"/></clipPath><clipPath id="Fe"><path d="M50.586 3.258h2.73v2.734h-2.73zm0 0"/></clipPath><clipPath id="Ff"><path d="M35 4.1h2.617v2.734H35zm0 0"/></clipPath><clipPath id="Fg"><path d="M34.887 4.1h2.73v2.734h-2.73zm0 0"/></clipPath><clipPath id="Fh"><path d="M17.465 14H20v2h-2.535zm0 0"/></clipPath><clipPath id="Fi"><path d="M17.465 13.738h2.73v2.73h-2.73zm0 0"/></clipPath><clipPath id="Fj"><path d="M6 34h2.7v2.6H6zm0 0"/></clipPath><clipPath id="Fk"><path d="M5.965 33.86H8.7v2.73H5.965zm0 0"/></clipPath><path id="Fl" d="M72.352 75.098a.88.88 0 0 0 .613-.254c.164-.164.254-.383.254-.613s-.1-.45-.254-.613a.88.88 0 0 0-.613-.254.88.88 0 0 0-.613.254c-.16.164-.25.383-.25.613a.92.92 0 0 0 .25.613.88.88 0 0 0 .613.254zm0 0"/><path id="Fm" d="M67.664 78.594c.23 0 .45-.1.613-.254a.87.87 0 0 0 .254-.609c0-.23-.094-.453-.254-.613s-.383-.254-.613-.254-.45.1-.613.254a.85.85 0 0 0-.254.613.87.87 0 0 0 .254.609c.164.164.383.254.613.254zm0 0"/><path id="Fn" d="M59.332 82.633c.23 0 .45-.1.613-.254a.84.84 0 0 0 .25-.6.87.87 0 0 0-.25-.613c-.164-.164-.383-.254-.613-.254s-.45.1-.613.254a.85.85 0 0 0 0 1.213c.154.15.383.254.613.254zm0 0"/><path id="Fo" d="M46.375 84.852a.88.88 0 0 0 .867-.867.88.88 0 0 0-.867-.867.88.88 0 0 0-.867.867.88.88 0 0 0 .867.867zm0 0"/><path id="Fp" d="M29.406 81.133a.87.87 0 0 0 .613-.25c.164-.164.254-.383.254-.613s-.1-.45-.254-.613a.85.85 0 0 0-1.213 0c-.15.154-.254.383-.254.613s.1.45.254.613a.84.84 0 0 0 .6.25zm0 0"/><path id="Fq" d="M13.164 67.285a.87.87 0 0 0 .609-.254c.164-.164.254-.383.254-.613s-.1-.45-.254-.613a.87.87 0 0 0-.609-.254c-.23 0-.453.094-.613.254s-.254.383-.254.613.1.45.254.613a.85.85 0 0 0 .613.254zm0 0"/><path id="Fr" d="M6.336 44.38a.9.9 0 0 0 .613-.254c.16-.154.254-.383.254-.613a.85.85 0 0 0-.254-.6c-.154-.15-.383-.254-.613-.254a.85.85 0 0 0-.6.254.86.86 0 0 0-.254.61c0 .227.1.453.254.613a.86.86 0 0 0 .61.254zm0 0"/><path id="Fs" d="M13.8 21.742c.23 0 .45-.1.613-.254a.85.85 0 0 0 .254-.613.87.87 0 0 0-.254-.609c-.164-.164-.383-.254-.613-.254s-.45.1-.613.254a.87.87 0 0 0-.254.609c0 .23.094.453.254.613s.383.254.613.254zm0 0"/><path id="Ft" d="M30.25 8.414c.23 0 .45-.1.613-.254a.85.85 0 0 0 .254-.613c0-.23-.1-.45-.254-.613a.88.88 0 0 0-.613-.254.87.87 0 0 0-.609.254c-.164.164-.254.383-.254.613s.1.45.254.613a.85.85 0 0 0 .61.254zm0 0"/><path id="Fu" d="M47.094 5.086c.23 0 .45-.1.613-.254a.85.85 0 0 0 .254-.61c0-.227-.1-.453-.254-.613s-.383-.254-.613-.254-.45.1-.613.254a.85.85 0 0 0-.254.613.87.87 0 0 0 .254.609c.164.164.383.254.613.254zm0 0"/><path id="Fv" d="M14.438 69.063c.23 0 .45-.1.613-.254a.87.87 0 0 0 .254-.609c0-.23-.094-.453-.254-.613s-.383-.254-.613-.254-.45.1-.613.254-.254.383-.254.613a.87.87 0 0 0 .254.609c.164.164.383.254.613.254zm0 0"/><path id="Fw" d="M47.805 84.82a.87.87 0 0 0 .609-.254c.164-.164.254-.383.254-.613s-.1-.45-.254-.613a.87.87 0 0 0-.609-.254c-.23 0-.453.094-.613.254s-.254.383-.254.613.1.45.254.613.383.254.613.254zm0 0"/><path id="Fx" d="M15.105 20.008c.227 0 .45-.1.61-.254s.254-.383.254-.61-.1-.453-.254-.613-.383-.254-.61-.254-.453.1-.613.254-.254.383-.254.613.1.45.254.61.383.254.613.254zm0 0"/><path id="Fy" d="M61.238 81.914c.23 0 .45-.1.613-.254s.254-.383.254-.613a.87.87 0 0 0-.254-.609c-.164-.164-.383-.254-.613-.254s-.45.1-.613.254a.87.87 0 0 0-.254.609c0 .23.094.453.254.613s.383.254.613.254zm0 0"/><path id="Fz" d="M6.68 39.723c.23 0 .45-.1.613-.254s.25-.383.25-.61a.87.87 0 0 0-.25-.613c-.164-.164-.383-.254-.613-.254s-.45.1-.613.254-.254.383-.254.613.1.45.254.61.383.254.613.254zm0 0"/><path id="GA" d="M66.07 10.367c.227 0 .45-.1.61-.254s.254-.383.254-.613-.1-.45-.254-.61-.383-.254-.61-.254-.453.1-.613.254-.254.383-.254.61.1.453.254.613.383.254.613.254zm0 0"/><path id="GB" d="M73.168 74.367c.23 0 .453-.1.613-.254s.254-.383.254-.613-.1-.45-.254-.61-.383-.254-.613-.254-.45.1-.61.254-.254.383-.254.61.1.453.254.613.383.254.61.254zm0 0"/><path id="GC" d="M74.055 73.53c.23 0 .453-.094.613-.254s.254-.383.254-.613-.1-.45-.254-.613-.383-.254-.613-.254a.87.87 0 0 0-.609.254c-.164.164-.254.383-.254.613s.1.45.254.613a.87.87 0 0 0 .609.254zm0 0"/><path id="GD" d="M7.05 37.426c.23 0 .45-.1.613-.254s.254-.383.254-.61-.1-.453-.254-.613-.383-.254-.613-.254-.45.1-.613.254-.254.383-.254.613a.87.87 0 0 0 .254.609c.164.164.383.254.613.254zm0 0"/><path id="GE" d="M35.28 6.605c.227 0 .45-.1.61-.25s.254-.383.254-.613-.1-.45-.254-.613-.383-.254-.61-.254-.453.1-.613.254-.254.383-.254.613.1.45.254.613a.87.87 0 0 0 .613.25zm0 0"/><path id="GF" d="M73.98 16.324c.23 0 .45-.1.613-.254a.88.88 0 0 0 .254-.613.88.88 0 0 0-.254-.613c-.164-.16-.383-.25-.613-.25s-.45.1-.613.25a.88.88 0 0 0-.254.613.88.88 0 0 0 .254.613c.164.164.383.254.613.254zm0 0"/><path id="GG" d="M41.086 5.4a.88.88 0 0 0 .613-.254.88.88 0 0 0 .254-.613.88.88 0 0 0-.254-.613.88.88 0 0 0-.613-.254.88.88 0 0 0-.613.254.88.88 0 0 0-.254.613.88.88 0 0 0 .254.613.88.88 0 0 0 .613.254zm0 0"/><path id="GH" d="M9.438 29.535a.88.88 0 0 0 .613-.254c.164-.164.254-.383.254-.613s-.1-.45-.254-.613a.88.88 0 0 0-.613-.254.88.88 0 0 0-.613.254c-.16.164-.25.383-.25.613s.1.45.25.613a.88.88 0 0 0 .613.254zm0 0"/><path id="GI" d="M69.8 77.133c.23 0 .45-.1.613-.254a.88.88 0 0 0 .254-.613c0-.23-.094-.45-.254-.6s-.383-.254-.613-.254-.45.1-.613.254-.254.38-.254.6a.88.88 0 0 0 .254.613c.164.164.383.254.613.254zm0 0"/><path id="GJ" d="M70.938 76.27a.88.88 0 0 0 .867-.867.88.88 0 0 0-.867-.867.88.88 0 0 0-.613.254c-.164.164-.254.383-.254.613s.1.45.254.613a.88.88 0 0 0 .613.254zm0 0"/><path id="GK" d="M65.008 80.148c.23 0 .45-.1.613-.254a.88.88 0 0 0 .254-.613.88.88 0 0 0-.867-.867.88.88 0 0 0-.867.867.88.88 0 0 0 .254.613c.164.164.383.254.613.254zm0 0"/><path id="GL" d="M7.555 35.164c.23 0 .45-.1.613-.254a.85.85 0 0 0 0-1.213c-.154-.15-.383-.254-.613-.254s-.45.1-.613.254a.84.84 0 0 0-.25.6.87.87 0 0 0 .25.613c.164.164.383.254.613.254zm0 0"/><path id="GM" d="M63.395 8.965a.85.85 0 0 0 .6-.254c.15-.154.254-.383.254-.613s-.1-.45-.254-.613a.86.86 0 0 0-.609-.25.92.92 0 0 0-.613.25c-.163.15-.254.383-.254.613s.1.45.254.613a.85.85 0 0 0 .613.254zm0 0"/><path id="GN" d="M54.418 5.93c.23 0 .45-.1.613-.254s.25-.383.25-.613a.92.92 0 0 0-.25-.613.84.84 0 0 0-.613-.25.92.92 0 0 0-.613.25c-.163.15-.254.383-.254.613s.1.45.254.613a.85.85 0 0 0 .613.254zm0 0"/><path id="GO" d="M20.23 75.223c.23 0 .45-.1.613-.254a.85.85 0 0 0 .254-.613c0-.23-.1-.45-.254-.613s-.383-.25-.613-.25a.92.92 0 0 0-.613.25.84.84 0 0 0-.25.613.92.92 0 0 0 .25.613c.15.163.383.254.613.254zm0 0"/><path id="GP" d="M63.797 80.77c.227 0 .45-.1.61-.254s.254-.383.254-.613-.1-.45-.254-.613-.383-.25-.61-.25a.87.87 0 0 0-.613.25c-.164.164-.254.383-.254.613s.1.45.254.613.383.254.613.254zm0 0"/><path id="GQ" d="M38.7 84.137a.87.87 0 0 0 .609-.254c.164-.164.254-.383.254-.613s-.1-.45-.254-.613a.85.85 0 0 0-.61-.254c-.227 0-.453.1-.613.254s-.254.383-.254.613.1.45.254.613a.85.85 0 0 0 .613.254zm0 0"/><path id="GR" d="M21.016 14.047a.92.92 0 0 0 .613-.25c.163-.15.254-.383.254-.613s-.1-.45-.254-.613a.85.85 0 0 0-1.213 0c-.15.154-.254.383-.254.613s.1.45.254.613a.84.84 0 0 0 .6.25zm0 0"/><path id="GS" d="M38.555 5.82c.23 0 .45-.1.613-.254a.85.85 0 0 0 0-1.213c-.154-.15-.383-.254-.613-.254s-.45.1-.613.254a.87.87 0 0 0-.254.609c0 .23.094.453.254.613s.383.254.613.254zm0 0"/><path id="GT" d="M73.703 16.06a.9.9 0 0 0 .613-.254.86.86 0 0 0 .254-.61c0-.227-.1-.453-.254-.613s-.383-.254-.613-.254-.45.1-.6.254-.254.383-.254.613.1.45.254.6a.86.86 0 0 0 .61.254zm0 0"/><path id="GU" d="M70.3 13.168c.23 0 .45-.1.613-.254a.88.88 0 0 0 .254-.613.87.87 0 0 0-.254-.609c-.164-.164-.383-.254-.613-.254s-.45.1-.613.254a.87.87 0 0 0-.254.609.88.88 0 0 0 .254.613c.164.164.383.254.613.254zm0 0"/><path id="GV" d="M63.863 9.19a.87.87 0 0 0 .613-.25c.164-.164.254-.383.254-.613s-.1-.45-.254-.613-.383-.254-.613-.254-.45.1-.61.254-.254.383-.254.613.1.45.254.613.383.25.61.25zm0 0"/><path id="GW" d="M70.695 76.457c.23 0 .45-.1.613-.254a.87.87 0 0 0 .254-.609c0-.23-.094-.453-.254-.613s-.383-.254-.613-.254-.45.1-.613.254a.85.85 0 0 0 0 1.213c.154.15.383.254.613.254zm0 0"/><path id="GX" d="M73.523 74.04c.23 0 .45-.1.613-.254a.85.85 0 0 0 .254-.613c0-.23-.1-.45-.254-.613s-.383-.25-.613-.25a.86.86 0 0 0-.609.25c-.164.164-.254.383-.254.613s.1.45.254.613a.84.84 0 0 0 .6.254zm0 0"/><path id="GY" d="M19.594 74.664a.88.88 0 0 0 .867-.867.88.88 0 0 0-.254-.613c-.164-.164-.383-.254-.613-.254s-.45.1-.613.254a.88.88 0 0 0-.254.613.88.88 0 0 0 .867.867zm0 0"/><path id="GZ" d="M22.617 12.813a.88.88 0 0 0 .613-.254c.16-.164.25-.383.25-.613a.92.92 0 0 0-.25-.613.88.88 0 0 0-.613-.254.88.88 0 0 0-.613.254c-.164.164-.254.383-.254.613s.1.45.254.613a.88.88 0 0 0 .613.254zm0 0"/><path id="Ga" d="M40.156 5.543a.88.88 0 0 0 .613-.254c.164-.164.254-.383.254-.613s-.1-.45-.254-.613a.85.85 0 0 0-.613-.254c-.23 0-.45.1-.613.254s-.25.383-.25.613a.92.92 0 0 0 .25.613.88.88 0 0 0 .613.254zm0 0"/><path id="Gb" d="M64.94 9.746a.9.9 0 0 0 .613-.254c.16-.154.254-.383.254-.613s-.1-.45-.254-.613a.85.85 0 0 0-.613-.254.87.87 0 0 0-.609.254c-.164.164-.254.383-.254.613s.1.45.254.613a.85.85 0 0 0 .61.254zm0 0"/><path id="Gc" d="M73.883 16.23c.23 0 .45-.1.613-.254s.254-.383.254-.613-.1-.45-.254-.61-.383-.254-.613-.254-.45.1-.61.254-.254.383-.254.61.1.453.254.613.38.254.61.254zm0 0"/><path id="Gd" d="M69.844 12.828a.88.88 0 0 0 .613-.254c.16-.164.25-.383.25-.613a.92.92 0 0 0-.25-.613c-.15-.163-.383-.254-.613-.254s-.45.1-.613.254a.85.85 0 0 0-.254.613c0 .23.1.45.254.613a.88.88 0 0 0 .613.254zm0 0"/><path id="Ge" d="M36.25 6.344c.23 0 .453-.1.613-.254s.254-.383.254-.613-.1-.45-.254-.613-.383-.254-.613-.254a.87.87 0 0 0-.609.254c-.164.164-.254.383-.254.613s.1.45.254.613.383.254.61.254zm0 0"/><path id="Gf" d="M18.828 15.97c.23 0 .45-.1.613-.254s.254-.383.254-.613-.1-.45-.254-.61-.383-.254-.613-.254-.45.1-.613.254-.25.383-.25.61a.87.87 0 0 0 .25.613c.164.164.383.254.613.254zm0 0"/></defs><path d="M142.243 140.146l-9.2 6.87-16.358 7.93-25.438 4.35-33.317-7.294L26.04 124.81l-13.404-44.97L27.27 35.395 59.577 9.23l33.068-6.525 24.992 4.678 15.967 7.95 8.936 6.753 3.843 3.604-4.448-4.126-9.486-6.98-16.757-7.892-25.876-4.01-33.535 8.082-31.428 28.213-12.15 45.456 15.84 43.876 32.7 25.14 32.807 5.792 24.55-4.99 15.59-7.974 8.64-6.635 3.643-3.437-4.85 4.478-9.785 7.087-17.146 7.836-26.32 3.653-33.738-8.887-30.92-29.227L12.852 75.26l17-43.26L62.907 7.873l32.52-5.06L119.53 8.09l15.208 7.984 8.366 6.5 3.444 3.26-5.246-4.823-10.085-7.186-17.552-7.785-26.76-3.258L52.993 12.5l-30.37 30.24-9.58 46.265 18.152 42.617 33.353 23.1 32.226 4.365 23.65-5.553 14.832-7.983 8.1-6.38 3.243-3.09-5.644 5.17-10.386 7.284-17.968 7.71-27.187 2.867-34.072-10.562-29.78-31.218-8.25-46.62L32.58 28.78 66.187 6.702l31.91-3.7L121.3 8.816l14.455 7.976 7.836 6.252 3.037 2.913-6.043-5.516-10.686-7.375-18.376-7.623-27.624-2.45-34.2 11.42L20.566 46.65l-6.923 46.902 20.343 41.2 33.84 21.057 31.58 3.03 22.763-6.043 14.104-7.95 7.57-6.126 2.847-2.74-1.103 1.1-5.354 4.763-11.004 7.46-18.79 7.532-28.046 2.003L48.09 146.54l-28.468-33.206-5.585-47.137 21.39-40.44L69.46 5.69l31.216-2.396L123 9.556l13.735 7.93 7.324 5.982 2.646 2.573-1.288-1.28-5.584-4.915-11.296-7.545-19.21-7.42-28.468-1.542-34.38 13.198-27.75 34.162-4.217 47.318 22.392 39.648 34.16 19.073 30.884 1.78 21.898-6.48 13.4-7.898 7.064-5.845 2.455-2.386-1.473 1.457-5.81 5.077-11.642 7.617-19.633 7.31-28.88 1.06-34.436-14.112-26.987-35.116-2.86-47.464 23.365-38.805L72.7 4.84l30.514-1.18 21.443 6.666 13.036 7.86 6.818 5.695 2.255 2.2-1.658-1.634-6.05-5.23-11.964-7.684-20.064-7.18L77.748 3.8l-34.44 15.038-26.182 36.04-1.497 47.54 24.295 37.975 34.39 17.12 30.14.615 21.007-6.84 12.692-7.808 8.64-7.584-8.137 7.194-12.303 7.745-20.5 7.03-29.68.03-34.44-16-25.34-36.94-.122-47.57 25.185-37.096L75.9 4.14l29.755-.058 20.57 7 12.355 7.762 8.214 7.254-8.572-7.537-12.64-7.8-20.92-6.872-30.08.515-34.39 16.95L15.71 59.177l1.25 47.55 26.05 36.2L77.48 158.13l29.357-.46 20.14-7.155L139 142.823l7.785-6.93-9.005 7.853-12.977 7.853-21.367 6.675-30.445-1.08-34.32-17.914-23.536-38.676 2.62-47.46 26.85-35.28L79.034 3.6l28.95.966 19.712 7.283 11.7 7.63 7.363 6.597-9.444-8.175-13.33-7.898-21.797-6.5-30.823 1.674-34.202 18.898-22.57 39.5" stroke-width=".5" stroke-linecap="square" stroke-opacity=".7" class="F G H I"/><g transform="matrix(1.963263 0 0 1.963263 .197332 -5.586747)"><g clip-path="url(#A)" class="J"><use xlink:href="#Fl"/></g><g clip-path="url(#B)" class="H I F G"><use xlink:href="#Fl"/></g><g clip-path="url(#C)" class="J"><use xlink:href="#Fm"/></g><g clip-path="url(#D)" class="H I F G"><use xlink:href="#Fm"/></g><g clip-path="url(#E)" class="J"><use xlink:href="#Fn"/></g><g clip-path="url(#F)" class="H I F G"><use xlink:href="#Fn"/></g><g clip-path="url(#G)" class="J"><use xlink:href="#Fo"/></g><g clip-path="url(#H)" class="H I F G"><use xlink:href="#Fo"/></g><g clip-path="url(#I)" class="J"><use xlink:href="#Fp"/></g><g clip-path="url(#J)" class="H I F G"><use xlink:href="#Fp"/></g><g clip-path="url(#K)" class="J"><use xlink:href="#Fq"/></g><g clip-path="url(#L)" class="H I F G"><use xlink:href="#Fq"/></g><g clip-path="url(#M)" class="J"><use xlink:href="#Fr"/></g><g clip-path="url(#N)" class="H I F G"><use xlink:href="#Fr"/></g><g clip-path="url(#O)" class="J"><use xlink:href="#Fs"/></g><g clip-path="url(#P)" class="H I F G"><use xlink:href="#Fs"/></g><g clip-path="url(#Q)" class="J"><use xlink:href="#Ft"/></g><g clip-path="url(#R)" class="H I F G"><use xlink:href="#Ft"/></g><g clip-path="url(#S)" class="J"><use xlink:href="#Fu"/></g><g clip-path="url(#T)" class="H I F G"><use xlink:href="#Fu"/></g><g clip-path="url(#U)" class="J"><path d="M59.824 7.47c.23 0 .45-.1.613-.254a.87.87 0 0 0 .254-.609c0-.23-.094-.453-.254-.613s-.383-.254-.613-.254-.45.1-.613.254a.85.85 0 0 0-.254.613.87.87 0 0 0 .254.609c.164.164.383.254.613.254zm0 0"/></g><g clip-path="url(#V)" class="H I F G"><path d="M59.824 7.47c.23 0 .45-.1.613-.254a.87.87 0 0 0 .254-.609c0-.23-.094-.453-.254-.613s-.383-.254-.613-.254-.45.1-.613.254a.85.85 0 0 0-.254.613.87.87 0 0 0 .254.609c.164.164.383.254.613.254zm0 0"/></g><g clip-path="url(#Y)" class="J"><use xlink:href="#Fv"/></g><g clip-path="url(#Z)" class="H I F G"><path d="M14.437 69.063c.23 0 .45-.1.613-.254a.87.87 0 0 0 .254-.609c0-.23-.094-.453-.254-.613s-.383-.254-.613-.254-.45.1-.613.254-.254.383-.254.613a.87.87 0 0 0 .254.609c.164.164.383.254.613.254zm0 0"/></g></g><path d="M61.243 155.146c.452 0 .884-.197 1.203-.5s.5-.75.5-1.203-.182-.88-.5-1.196a1.69 1.69 0 0 0-1.203-.499c-.452 0-.884.196-1.204.5a1.71 1.71 0 0 0-.498 1.196 1.72 1.72 0 0 0 .498 1.203c.314.314.752.5 1.204.5zm0 0"/><g transform="matrix(1.963263 0 0 1.963263 .197332 -5.586747)"><g clip-path="url(#b)" class="J"><use xlink:href="#Fw"/></g><g clip-path="url(#c)" class="H I F G"><use xlink:href="#Fw"/></g><g clip-path="url(#d)" class="J"><path d="M68.246 78.22a.87.87 0 0 0 .609-.254c.164-.164.254-.383.254-.613s-.1-.45-.254-.613a.87.87 0 0 0-.609-.254c-.23 0-.453.094-.613.254s-.254.383-.254.613.1.45.254.613.383.254.613.254zm0 0"/></g><g clip-path="url(#e)" class="H I F G"><path d="M68.246 78.22a.87.87 0 0 0 .609-.254c.164-.164.254-.383.254-.613s-.1-.45-.254-.613a.87.87 0 0 0-.609-.254c-.23 0-.453.094-.613.254s-.254.383-.254.613.1.45.254.613.383.254.613.254zm0 0"/></g><g clip-path="url(#f)" class="J"><path d="M72.648 74.84a.87.87 0 0 0 .609-.254c.164-.164.254-.383.254-.613s-.1-.45-.254-.613a.87.87 0 0 0-.609-.254c-.23 0-.453.094-.613.254s-.254.383-.254.613.1.45.254.613.383.254.613.254zm0 0"/></g><g clip-path="url(#g)" class="H I F G"><path d="M72.648 74.84a.87.87 0 0 0 .609-.254c.164-.164.254-.383.254-.613s-.1-.45-.254-.613a.87.87 0 0 0-.609-.254c-.23 0-.453.094-.613.254s-.254.383-.254.613.1.45.254.613.383.254.613.254zm0 0"/></g><g clip-path="url(#h)" class="J"><path d="M74.504 73.1a.87.87 0 0 0 .609-.254c.164-.164.254-.383.254-.613s-.1-.45-.254-.613a.87.87 0 0 0-.609-.254c-.23 0-.453.094-.613.254s-.254.383-.254.613.1.45.254.613.383.254.613.254zm0 0"/></g><g clip-path="url(#i)" class="H I F G"><path d="M74.504 73.1a.87.87 0 0 0 .609-.254c.164-.164.254-.383.254-.613s-.1-.45-.254-.613a.87.87 0 0 0-.609-.254c-.23 0-.453.094-.613.254s-.254.383-.254.613.1.45.254.613.383.254.613.254zm0 0"/></g><g clip-path="url(#j)" class="J"><path d="M74.316 73.273c.23 0 .45-.1.613-.254a.87.87 0 0 0 .254-.609c0-.23-.094-.453-.254-.613s-.383-.254-.613-.254-.45.1-.613.254-.254.383-.254.613a.87.87 0 0 0 .254.609c.164.164.383.254.613.254zm0 0"/></g><g clip-path="url(#k)" class="H I F G"><path d="M74.316 73.273c.23 0 .45-.1.613-.254a.87.87 0 0 0 .254-.609c0-.23-.094-.453-.254-.613s-.383-.254-.613-.254-.45.1-.613.254-.254.383-.254.613a.87.87 0 0 0 .254.609c.164.164.383.254.613.254zm0 0"/></g><g clip-path="url(#n)" class="J"><path d="M27.727 80.305a.87.87 0 0 0 .609-.254c.164-.164.254-.383.254-.613s-.1-.45-.254-.613a.87.87 0 0 0-.609-.254c-.23 0-.453.094-.613.254s-.254.383-.254.613.1.45.254.613.383.254.613.254zm0 0"/></g><g clip-path="url(#o)" class="H I F G"><path d="M27.727 80.305a.87.87 0 0 0 .609-.254c.164-.164.254-.383.254-.613s-.1-.45-.254-.613a.87.87 0 0 0-.609-.254c-.23 0-.453.094-.613.254s-.254.383-.254.613.1.45.254.613.383.254.613.254zm0 0"/></g><g clip-path="url(#r)" class="J"><use xlink:href="#Fx"/></g><g clip-path="url(#s)" class="H I F G"><use xlink:href="#Fx"/></g><g clip-path="url(#t)" class="J"><use xlink:href="#Fl"/></g><g clip-path="url(#u)" class="H I F G"><use xlink:href="#Fl"/></g><g clip-path="url(#v)" class="J"><path d="M60.777 7.828c.23 0 .45-.1.613-.254a.87.87 0 0 0 .254-.609c0-.23-.094-.453-.254-.613s-.383-.254-.613-.254-.45.1-.613.254-.254.383-.254.613a.87.87 0 0 0 .254.609c.164.164.383.254.613.254zm0 0"/></g><g clip-path="url(#w)" class="H I F G"><path d="M60.777 7.828c.23 0 .45-.1.613-.254a.87.87 0 0 0 .254-.609c0-.23-.094-.453-.254-.613s-.383-.254-.613-.254-.45.1-.613.254-.254.383-.254.613a.87.87 0 0 0 .254.609c.164.164.383.254.613.254zm0 0"/></g><g clip-path="url(#x)" class="J"><use xlink:href="#Fm"/></g><g clip-path="url(#y)" class="H I F G"><use xlink:href="#Fm"/></g><g clip-path="url(#z)" class="J"><use xlink:href="#Fn"/></g><g clip-path="url(#AA)" class="H I F G"><use xlink:href="#Fn"/></g><g clip-path="url(#AD)" class="J"><path d="M74.258 16.598a.88.88 0 0 0 .867-.867.88.88 0 0 0-.867-.867.88.88 0 0 0-.867.867.88.88 0 0 0 .867.867zm0 0"/></g><g clip-path="url(#AE)" class="H I F G"><path d="M74.258 16.598a.88.88 0 0 0 .867-.867.88.88 0 0 0-.867-.867.88.88 0 0 0-.867.867.88.88 0 0 0 .867.867zm0 0"/></g><g clip-path="url(#AF)" class="J"><path d="M71.867 14.418a.88.88 0 0 0 .867-.867.88.88 0 0 0-.867-.867.88.88 0 0 0-.867.867.88.88 0 0 0 .867.867zm0 0"/></g><g clip-path="url(#AG)" class="H I F G"><path d="M71.867 14.418a.88.88 0 0 0 .867-.867.88.88 0 0 0-.867-.867.88.88 0 0 0-.867.867.88.88 0 0 0 .867.867zm0 0"/></g><g clip-path="url(#AJ)" class="J"><use xlink:href="#Fo"/></g><g clip-path="url(#AK)" class="H I F G"><use xlink:href="#Fo"/></g><g clip-path="url(#AL)" class="J"><use xlink:href="#Fp"/></g><g clip-path="url(#AM)" class="H I F G"><use xlink:href="#Fp"/></g><g clip-path="url(#AN)" class="J"><use xlink:href="#Fq"/></g><g class="H F G"><g clip-path="url(#AO)" class="I"><use xlink:href="#Fq"/></g><g clip-path="url(#AP)" class="J"><path d="M11.418 25.48a.87.87 0 0 0 .609-.254c.164-.164.254-.383.254-.613s-.1-.45-.254-.613a.87.87 0 0 0-.609-.254c-.23 0-.453.094-.613.254s-.254.383-.254.613.1.45.254.613.383.254.613.254zm0 0"/></g></g><g clip-path="url(#AQ)" class="J"><use xlink:href="#Fr"/></g><g clip-path="url(#AR)" class="H I F G"><use xlink:href="#Fr"/></g><g clip-path="url(#AS)" class="J"><path d="M15.79 70.75c.23 0 .45-.1.613-.254a.87.87 0 0 0 .254-.609c0-.23-.094-.453-.254-.613s-.383-.254-.613-.254-.45.1-.613.254-.254.383-.254.613a.87.87 0 0 0 .254.609c.164.164.383.254.613.254zm0 0"/></g><g clip-path="url(#AT)" class="H I F G"><path d="M15.79 70.75c.23 0 .45-.1.613-.254a.87.87 0 0 0 .254-.609c0-.23-.094-.453-.254-.613s-.383-.254-.613-.254-.45.1-.613.254-.254.383-.254.613a.87.87 0 0 0 .254.609c.164.164.383.254.613.254zm0 0"/></g><g clip-path="url(#AU)" class="J"><path d="M32.777 82.516c.227 0 .45-.1.61-.254s.254-.383.254-.61-.1-.453-.254-.613-.383-.254-.61-.254-.453.1-.613.254-.254.383-.254.613.1.45.254.61.383.254.613.254zm0 0"/></g><g clip-path="url(#AV)" class="H I F G"><path d="M32.777 82.516c.227 0 .45-.1.61-.254s.254-.383.254-.61-.1-.453-.254-.613-.383-.254-.61-.254-.453.1-.613.254-.254.383-.254.613.1.45.254.61.383.254.613.254zm0 0"/></g><g clip-path="url(#AW)" class="J"><path d="M49.19 84.738c.227 0 .45-.1.61-.254s.254-.383.254-.61-.1-.453-.254-.613-.383-.254-.61-.254-.453.1-.613.254-.254.383-.254.613.1.45.254.61.383.254.613.254zm0 0"/></g><g clip-path="url(#AX)" class="H I F G"><path d="M49.19 84.738c.227 0 .45-.1.61-.254s.254-.383.254-.61-.1-.453-.254-.613-.383-.254-.61-.254-.453.1-.613.254-.254.383-.254.613.1.45.254.61.383.254.613.254zm0 0"/></g><g clip-path="url(#AY)" class="J"><use xlink:href="#Fy"/></g><g clip-path="url(#AZ)" class="H I F G"><use xlink:href="#Fy"/></g><g clip-path="url(#Aa)" class="J"><use xlink:href="#Fs"/></g><g clip-path="url(#Ab)" class="H I F G"><use xlink:href="#Fs"/></g><g clip-path="url(#Ae)" class="J"><path d="M74.57 73.023a.87.87 0 0 0 .609-.254c.164-.164.254-.383.254-.613s-.1-.45-.254-.613a.87.87 0 0 0-.609-.254c-.23 0-.453.094-.613.254s-.254.383-.254.613.1.45.254.613.383.254.613.254zm0 0"/></g><g clip-path="url(#Af)" class="H I F G"><path d="M74.57 73.023a.87.87 0 0 0 .609-.254c.164-.164.254-.383.254-.613s-.1-.45-.254-.613a.87.87 0 0 0-.609-.254c-.23 0-.453.094-.613.254s-.254.383-.254.613.1.45.254.613.383.254.613.254zm0 0"/></g><g clip-path="url(#Ag)" class="J"><path d="M74.195 73.395a.88.88 0 0 0 .867-.867.88.88 0 0 0-.867-.867.88.88 0 0 0-.867.867.88.88 0 0 0 .867.867zm0 0"/></g><g clip-path="url(#Ah)" class="H I F G"><path d="M74.195 73.395a.88.88 0 0 0 .867-.867.88.88 0 0 0-.867-.867.88.88 0 0 0-.867.867.88.88 0 0 0 .867.867zm0 0"/></g><g clip-path="url(#Ai)" class="J"><use xlink:href="#Ft"/></g><g class="H F G"><g clip-path="url(#Aj)" class="I"><use xlink:href="#Ft"/></g><g clip-path="url(#Ak)" class="J"><path d="M66.406 79.367a.87.87 0 0 0 .609-.254c.164-.164.254-.383.254-.613s-.1-.45-.254-.613a.87.87 0 0 0-.609-.254c-.23 0-.453.094-.613.254s-.254.383-.254.613.1.45.254.613.383.254.613.254zm0 0"/></g></g><g clip-path="url(#Al)" class="J"><use xlink:href="#Fu"/></g><g clip-path="url(#Am)" class="H I F G"><use xlink:href="#Fu"/></g><g clip-path="url(#Ap)" class="J"><path d="M26.05 79.375c.23 0 .45-.1.613-.254s.254-.383.254-.613a.87.87 0 0 0-.254-.609c-.164-.164-.383-.254-.613-.254s-.45.1-.613.254a.87.87 0 0 0-.254.609c0 .23.094.453.254.613s.383.254.613.254zm0 0"/></g><g clip-path="url(#Aq)" class="H I F G"><path d="M26.05 79.375c.23 0 .45-.1.613-.254s.254-.383.254-.613a.87.87 0 0 0-.254-.609c-.164-.164-.383-.254-.613-.254s-.45.1-.613.254a.87.87 0 0 0-.254.609c0 .23.094.453.254.613s.383.254.613.254zm0 0"/></g><g clip-path="url(#Ar)" class="J"><path d="M10.883 63.465a.88.88 0 0 0 .867-.867.88.88 0 0 0-.867-.867.88.88 0 0 0-.867.867.88.88 0 0 0 .867.867zm0 0"/></g><g clip-path="url(#As)" class="H I F G"><path d="M10.883 63.465a.88.88 0 0 0 .867-.867.88.88 0 0 0-.867-.867.88.88 0 0 0-.867.867.88.88 0 0 0 .867.867zm0 0"/></g><g clip-path="url(#At)" class="J"><use xlink:href="#Fz"/></g><g class="H F G"><g clip-path="url(#Au)" class="I"><use xlink:href="#Fz"/></g><g clip-path="url(#Av)" class="J"><path d="M16.492 18.37a.88.88 0 0 0 .867-.867.88.88 0 0 0-.867-.867.88.88 0 0 0-.867.867.88.88 0 0 0 .867.867zm0 0"/></g></g><g clip-path="url(#Aw)" class="J"><path d="M33.613 7.12c.23 0 .45-.1.613-.254a.87.87 0 0 0 .254-.609c0-.23-.094-.453-.254-.613s-.383-.254-.613-.254-.45.1-.613.254-.254.383-.254.613a.87.87 0 0 0 .254.609c.164.164.383.254.613.254zm0 0"/></g><g clip-path="url(#Ax)" class="H I F G"><path d="M33.613 7.12c.23 0 .45-.1.613-.254a.87.87 0 0 0 .254-.609c0-.23-.094-.453-.254-.613s-.383-.254-.613-.254-.45.1-.613.254-.254.383-.254.613a.87.87 0 0 0 .254.609c.164.164.383.254.613.254zm0 0"/></g><g clip-path="url(#BA)" class="J"><path d="M61.69 8.2c.227 0 .45-.1.61-.254s.254-.383.254-.61-.1-.453-.254-.613-.383-.254-.61-.254-.453.1-.613.254-.254.383-.254.613.1.45.254.61.383.254.613.254zm0 0"/></g><g clip-path="url(#BB)" class="H I F G"><path d="M61.69 8.2c.227 0 .45-.1.61-.254s.254-.383.254-.61-.1-.453-.254-.613-.383-.254-.61-.254-.453.1-.613.254-.254.383-.254.613.1.45.254.61.383.254.613.254zm0 0"/></g><g clip-path="url(#BE)" class="J"><path d="M73.047 15.45a.88.88 0 0 0 .867-.867.88.88 0 0 0-.867-.867.88.88 0 0 0-.867.867.88.88 0 0 0 .867.867zm0 0"/></g><g clip-path="url(#BF)" class="H I F G"><path d="M73.047 15.45a.88.88 0 0 0 .867-.867.88.88 0 0 0-.867-.867.88.88 0 0 0-.867.867.88.88 0 0 0 .867.867zm0 0"/></g><g clip-path="url(#BK)" class="J"><path d="M71.516 14.125a.87.87 0 0 0 .609-.254c.164-.164.254-.383.254-.613s-.1-.45-.254-.613a.87.87 0 0 0-.609-.254c-.23 0-.453.094-.613.254s-.254.383-.254.613.1.45.254.613.383.254.613.254zm0 0"/></g><g clip-path="url(#BL)" class="H I F G"><path d="M71.516 14.125a.87.87 0 0 0 .609-.254c.164-.164.254-.383.254-.613s-.1-.45-.254-.613a.87.87 0 0 0-.609-.254c-.23 0-.453.094-.613.254s-.254.383-.254.613.1.45.254.613.383.254.613.254zm0 0"/></g><g clip-path="url(#BM)" class="J"><use xlink:href="#GA"/></g><g clip-path="url(#BN)" class="H I F G"><use xlink:href="#GA"/></g><g clip-path="url(#BO)" class="J"><path d="M56.71 6.48c.227 0 .45-.1.61-.254s.254-.383.254-.61-.1-.453-.254-.613-.383-.254-.61-.254-.453.1-.613.254-.254.383-.254.613.1.45.254.61.383.254.613.254zm0 0"/></g><g clip-path="url(#BP)" class="H I F G"><path d="M56.71 6.48c.227 0 .45-.1.61-.254s.254-.383.254-.61-.1-.453-.254-.613-.383-.254-.61-.254-.453.1-.613.254-.254.383-.254.613.1.45.254.61.383.254.613.254zm0 0"/></g><g clip-path="url(#BQ)" class="J"><path d="M42.64 5.238c.23 0 .45-.1.613-.254s.254-.383.254-.613a.87.87 0 0 0-.254-.609c-.164-.164-.383-.254-.613-.254s-.45.1-.613.254a.87.87 0 0 0-.254.609c0 .23.094.453.254.613s.383.254.613.254zm0 0"/></g><g class="H F G"><g clip-path="url(#BR)" class="I"><path d="M42.64 5.238c.23 0 .45-.1.613-.254s.254-.383.254-.613a.87.87 0 0 0-.254-.609c-.164-.164-.383-.254-.613-.254s-.45.1-.613.254a.87.87 0 0 0-.254.609c0 .23.094.453.254.613s.383.254.613.254zm0 0"/></g><g clip-path="url(#BU)" class="J"><path d="M10.375 27.47c.23 0 .45-.1.613-.254s.254-.383.254-.613a.87.87 0 0 0-.254-.609c-.164-.164-.383-.254-.613-.254s-.45.1-.613.254-.254.383-.254.61.1.453.254.613.383.254.613.254zm0 0"/></g></g><g clip-path="url(#BZ)" class="J"><use xlink:href="#Fl"/></g><g clip-path="url(#Ba)" class="H I F G"><use xlink:href="#Fl"/></g><g clip-path="url(#Bb)" class="J"><path d="M50.535 84.617a.88.88 0 0 0 .867-.867.88.88 0 0 0-.867-.867.88.88 0 0 0-.867.867.88.88 0 0 0 .867.867zm0 0"/></g><g clip-path="url(#Bc)" class="H I F G"><path d="M50.535 84.617a.88.88 0 0 0 .867-.867.88.88 0 0 0-.867-.867.88.88 0 0 0-.867.867.88.88 0 0 0 .867.867zm0 0"/></g><g clip-path="url(#Bd)" class="J"><use xlink:href="#Fm"/></g><g clip-path="url(#Be)" class="H I F G"><use xlink:href="#Fm"/></g><g clip-path="url(#Bf)" class="J"><path d="M69.313 77.484c.23 0 .45-.1.613-.254a.87.87 0 0 0 .254-.609c0-.23-.094-.453-.254-.613s-.383-.254-.613-.254-.45.1-.613.254-.254.383-.254.613a.87.87 0 0 0 .254.609c.164.164.383.254.613.254zm0 0"/></g><g clip-path="url(#Bg)" class="H I F G"><path d="M69.313 77.484c.23 0 .45-.1.613-.254a.87.87 0 0 0 .254-.609c0-.23-.094-.453-.254-.613s-.383-.254-.613-.254-.45.1-.613.254-.254.383-.254.613a.87.87 0 0 0 .254.609c.164.164.383.254.613.254zm0 0"/></g><g clip-path="url(#Bh)" class="J"><use xlink:href="#GB"/></g><g clip-path="url(#Bi)" class="H I F G"><use xlink:href="#GB"/></g><g clip-path="url(#Bj)" class="J"><use xlink:href="#Fn"/></g><g clip-path="url(#Bk)" class="H I F G"><use xlink:href="#Fn"/></g><g clip-path="url(#Bl)" class="J"><use xlink:href="#GC"/></g><g clip-path="url(#Bm)" class="H I F G"><use xlink:href="#GC"/></g><g clip-path="url(#Bn)" class="J"><path d="M71.328 75.957a.88.88 0 0 0 .867-.867.88.88 0 0 0-.867-.867.88.88 0 0 0-.867.867.88.88 0 0 0 .867.867zm0 0"/></g><g clip-path="url(#Bo)" class="H I F G"><path d="M71.328 75.957a.88.88 0 0 0 .867-.867.88.88 0 0 0-.867-.867.88.88 0 0 0-.867.867.88.88 0 0 0 .867.867zm0 0"/></g><g clip-path="url(#Bp)" class="J"><path d="M65.723 79.758c.23 0 .453-.094.613-.254s.254-.383.254-.613-.1-.45-.254-.613-.383-.254-.613-.254a.87.87 0 0 0-.609.254c-.164.164-.254.383-.254.613s.1.45.254.613a.87.87 0 0 0 .609.254zm0 0"/></g><g clip-path="url(#Bq)" class="H I F G"><path d="M65.723 79.758c.23 0 .453-.094.613-.254s.254-.383.254-.613-.1-.45-.254-.613-.383-.254-.613-.254a.87.87 0 0 0-.609.254c-.164.164-.254.383-.254.613s.1.45.254.613a.87.87 0 0 0 .609.254zm0 0"/></g><g clip-path="url(#Br)" class="J"><use xlink:href="#Fo"/></g><g clip-path="url(#Bs)" class="H I F G"><use xlink:href="#Fo"/></g><g clip-path="url(#Bt)" class="J"><path d="M41.867 84.613a.88.88 0 0 0 .867-.867.88.88 0 0 0-.867-.867.88.88 0 0 0-.867.867.88.88 0 0 0 .867.867zm0 0"/></g><g class="H F G"><g clip-path="url(#Bu)" class="I"><path d="M41.867 84.613a.88.88 0 0 0 .867-.867.88.88 0 0 0-.867-.867.88.88 0 0 0-.867.867.88.88 0 0 0 .867.867zm0 0"/></g><g clip-path="url(#Bv)" class="J"><path d="M24.395 78.348c.227 0 .45-.1.61-.254s.254-.383.254-.61-.1-.453-.254-.613-.383-.254-.61-.254-.453.1-.613.254-.254.383-.254.613.1.45.254.61.383.254.613.254zm0 0"/></g></g><g clip-path="url(#Bw)" class="J"><use xlink:href="#Fp"/></g><g clip-path="url(#Bx)" class="H I F G"><use xlink:href="#Fp"/></g><g clip-path="url(#By)" class="J"><use xlink:href="#GD"/></g><g clip-path="url(#Bz)" class="H I F G"><use xlink:href="#GD"/></g></g><path d="M35.428 27.452c.452 0 .884-.196 1.203-.5s.5-.75.5-1.198-.196-.9-.5-1.204-.75-.498-1.203-.498-.883.197-1.198.498-.5.752-.5 1.204a1.75 1.75 0 0 0 .499 1.197c.303.314.747.5 1.198.5zm0 0"/><g transform="matrix(1.963263 0 0 1.963263 .197332 -5.586747)"><g clip-path="url(#CA)" class="H I F G"><path d="M17.945 16.828c.23 0 .45-.1.613-.254a.85.85 0 0 0 .254-.61c0-.227-.1-.453-.254-.613s-.383-.254-.613-.254-.45.1-.6.254-.254.383-.254.613.1.45.254.6.38.254.6.254zm0 0"/></g><g clip-path="url(#CB)" class="J"><use xlink:href="#GE"/></g><g clip-path="url(#CC)" class="H I F G"><use xlink:href="#GE"/></g><g clip-path="url(#CD)" class="J"><use xlink:href="#Fq"/></g><g clip-path="url(#CE)" class="H I F G"><use xlink:href="#Fq"/></g><g clip-path="url(#CF)" class="J"><path d="M62.563 8.578c.227 0 .45-.1.61-.254s.254-.383.254-.61-.1-.453-.254-.613-.383-.254-.61-.254-.453.1-.613.254-.254.383-.254.613.1.45.254.61.383.254.613.254zm0 0"/></g><g clip-path="url(#CG)" class="H I F G"><path d="M62.563 8.578c.227 0 .45-.1.61-.254s.254-.383.254-.61-.1-.453-.254-.613-.383-.254-.61-.254-.453.1-.613.254-.254.383-.254.613.1.45.254.61.383.254.613.254zm0 0"/></g><g clip-path="url(#CH)" class="J"><path d="M69.56 12.62c.23 0 .453-.094.613-.254s.254-.383.254-.613-.1-.45-.254-.613-.383-.254-.613-.254a.87.87 0 0 0-.609.254c-.164.164-.254.383-.254.613s.1.45.254.613a.87.87 0 0 0 .609.254zm0 0"/></g><g clip-path="url(#CI)" class="H I F G"><path d="M69.56 12.62c.23 0 .453-.094.613-.254s.254-.383.254-.613-.1-.45-.254-.613-.383-.254-.613-.254a.87.87 0 0 0-.609.254c-.164.164-.254.383-.254.613s.1.45.254.613a.87.87 0 0 0 .609.254zm0 0"/></g><g clip-path="url(#CJ)" class="J"><path d="M73.29 15.668c.227 0 .45-.1.61-.254s.254-.383.254-.613-.1-.45-.254-.61-.383-.254-.61-.254-.453.1-.613.254-.254.383-.254.61.1.453.254.613.383.254.613.254zm0 0"/></g><g clip-path="url(#CK)" class="H I F G"><path d="M73.29 15.668c.227 0 .45-.1.61-.254s.254-.383.254-.613-.1-.45-.254-.61-.383-.254-.61-.254-.453.1-.613.254-.254.383-.254.61.1.453.254.613.383.254.613.254zm0 0"/></g><g clip-path="url(#CL)" class="J"><path d="M74.637 16.973c.227 0 .45-.1.61-.254s.254-.383.254-.61-.1-.453-.254-.613-.383-.254-.61-.254-.453.1-.613.254-.254.383-.254.613.1.45.254.61.383.254.613.254zm0 0"/></g><g clip-path="url(#CM)" class="H I F G"><path d="M74.637 16.973c.227 0 .45-.1.61-.254s.254-.383.254-.61-.1-.453-.254-.613-.383-.254-.61-.254-.453.1-.613.254-.254.383-.254.613.1.45.254.61.383.254.613.254zm0 0"/></g><g clip-path="url(#CN)" class="J"><use xlink:href="#GF"/></g><g class="H I F G"><g clip-path="url(#CO)"><use xlink:href="#GF"/></g><g clip-path="url(#CP)"><path d="M71.137 13.816c.227 0 .45-.1.61-.254s.254-.383.254-.61-.1-.453-.254-.613-.383-.254-.61-.254-.453.1-.613.254-.254.383-.254.613.1.45.254.61.383.254.613.254zm0 0"/></g></g><g clip-path="url(#CQ)" class="J"><use xlink:href="#Fr"/></g><g clip-path="url(#CR)" class="H I F G"><use xlink:href="#Fr"/></g><g clip-path="url(#CS)" class="J"><use xlink:href="#Fs"/></g><g clip-path="url(#CT)" class="H I F G"><use xlink:href="#Fs"/></g><g clip-path="url(#CU)" class="J"><use xlink:href="#GG"/></g><g clip-path="url(#CV)" class="H I F G"><use xlink:href="#GG"/></g><g clip-path="url(#CW)" class="J"><path d="M23.574 12.13c.227 0 .45-.1.61-.254s.254-.383.254-.61-.1-.453-.254-.613-.383-.254-.61-.254-.453.1-.613.254-.254.383-.254.613.1.45.254.61.383.254.613.254zm0 0"/></g><g clip-path="url(#CX)" class="H I F G"><path d="M23.574 12.13c.227 0 .45-.1.61-.254s.254-.383.254-.61-.1-.453-.254-.613-.383-.254-.61-.254-.453.1-.613.254-.254.383-.254.613.1.45.254.61.383.254.613.254zm0 0"/></g><g clip-path="url(#CY)" class="J"><use xlink:href="#GH"/></g><g clip-path="url(#CZ)" class="H I F G"><use xlink:href="#GH"/></g><g clip-path="url(#Ca)" class="J"><path d="M7.29 53.637c.227 0 .45-.1.61-.254s.254-.383.254-.613-.1-.45-.254-.61-.383-.254-.61-.254-.453.1-.613.254-.254.383-.254.61.1.453.254.613.383.254.613.254zm0 0"/></g><g clip-path="url(#Cb)" class="H I F G"><path d="M7.29 53.637c.227 0 .45-.1.61-.254s.254-.383.254-.613-.1-.45-.254-.61-.383-.254-.61-.254-.453.1-.613.254-.254.383-.254.61.1.453.254.613.383.254.613.254zm0 0"/></g><g clip-path="url(#Cc)" class="J"><use xlink:href="#Ft"/></g><g clip-path="url(#Cd)" class="H I F G"><use xlink:href="#Ft"/></g><g clip-path="url(#Ce)" class="J"><path d="M36.105 83.547c.23 0 .45-.1.613-.254s.254-.383.254-.613a.87.87 0 0 0-.254-.609c-.164-.164-.383-.254-.613-.254s-.45.1-.613.254a.87.87 0 0 0-.254.609c0 .23.094.453.254.613s.383.254.613.254zm0 0"/></g><g clip-path="url(#Cf)" class="H I F G"><path d="M36.105 83.547c.23 0 .45-.1.613-.254s.254-.383.254-.613a.87.87 0 0 0-.254-.609c-.164-.164-.383-.254-.613-.254s-.45.1-.613.254a.87.87 0 0 0-.254.609c0 .23.094.453.254.613s.383.254.613.254zm0 0"/></g><g clip-path="url(#Cg)" class="J"><use xlink:href="#Fu"/></g><g clip-path="url(#Ch)" class="H I F G"><use xlink:href="#Fu"/></g><g clip-path="url(#Ci)" class="J"><path d="M62.98 81.156c.23 0 .453-.1.613-.254s.254-.383.254-.613-.1-.45-.254-.61-.383-.254-.613-.254-.45.1-.61.254-.254.383-.254.61.1.453.254.613.383.254.61.254zm0 0"/></g><g clip-path="url(#Cj)" class="H I F G"><path d="M62.98 81.156c.23 0 .453-.1.613-.254s.254-.383.254-.613-.1-.45-.254-.61-.383-.254-.613-.254-.45.1-.61.254-.254.383-.254.61.1.453.254.613.383.254.61.254zm0 0"/></g><g clip-path="url(#Ck)" class="J"><use xlink:href="#GI"/></g><g clip-path="url(#Cl)" class="H I F G"><use xlink:href="#GI"/></g><g clip-path="url(#Cm)" class="J"><path d="M59.824 7.47c.23 0 .45-.1.613-.254a.87.87 0 0 0 .254-.609c0-.23-.094-.453-.254-.613s-.383-.254-.613-.254-.45.1-.613.254a.85.85 0 0 0-.254.613.87.87 0 0 0 .254.609c.164.164.383.254.613.254zm0 0"/></g><g clip-path="url(#Cn)" class="H I F G"><path d="M59.824 7.47c.23 0 .45-.1.613-.254a.87.87 0 0 0 .254-.609c0-.23-.094-.453-.254-.613s-.383-.254-.613-.254-.45.1-.613.254a.85.85 0 0 0-.254.613.87.87 0 0 0 .254.609c.164.164.383.254.613.254zm0 0"/></g><g clip-path="url(#Co)" class="J"><path d="M74.648 72.94a.88.88 0 0 0 .867-.867.88.88 0 0 0-.867-.867.88.88 0 0 0-.867.867.88.88 0 0 0 .867.867zm0 0"/></g><g clip-path="url(#Cp)" class="H I F G"><path d="M74.648 72.94a.88.88 0 0 0 .867-.867.88.88 0 0 0-.867-.867.88.88 0 0 0-.867.867.88.88 0 0 0 .867.867zm0 0"/></g><g clip-path="url(#Cq)" class="J"><path d="M73.898 73.684a.88.88 0 0 0 .867-.867.88.88 0 0 0-.867-.867.88.88 0 0 0-.867.867.88.88 0 0 0 .867.867zm0 0"/></g><g clip-path="url(#Cr)" class="H I F G"><path d="M73.898 73.684a.88.88 0 0 0 .867-.867.88.88 0 0 0-.867-.867.88.88 0 0 0-.867.867.88.88 0 0 0 .867.867zm0 0"/></g><g clip-path="url(#Cs)" class="J"><use xlink:href="#GJ"/></g><g clip-path="url(#Ct)" class="H I F G"><path d="M70.937 76.27a.88.88 0 0 0 .867-.867.88.88 0 0 0-.867-.867.88.88 0 0 0-.613.254c-.164.164-.254.383-.254.613s.1.45.254.613a.88.88 0 0 0 .613.254zm0 0"/></g><g clip-path="url(#Cu)" class="J"><use xlink:href="#GK"/></g><g clip-path="url(#Cv)" class="H I F G"><use xlink:href="#GK"/></g></g><path d="M108.192 159.073c.45-.003.878-.183 1.196-.5.322-.322.5-.752.5-1.204s-.196-.884-.5-1.203a1.71 1.71 0 0 0-1.196-.499c-.45 0-.888.185-1.203.5s-.5.75-.5 1.203a1.78 1.78 0 0 0 .499 1.204c.303.32.752.5 1.203.5zm0 0"/><g transform="matrix(1.963263 0 0 1.963263 .197332 -5.586747)"><g clip-path="url(#Cw)" class="H I F G"><path d="M55.008 83.87a.87.87 0 0 0 .609-.254c.164-.164.254-.383.254-.613s-.1-.45-.254-.613a.87.87 0 0 0-.609-.254c-.23 0-.453.094-.613.254s-.254.383-.254.613.1.45.254.613.383.254.613.254zm0 0"/></g><g clip-path="url(#Cx)" class="J"><path d="M40.297 84.4a.88.88 0 0 0 .867-.867.88.88 0 0 0-.867-.867.88.88 0 0 0-.867.867.88.88 0 0 0 .867.867zm0 0"/></g><g clip-path="url(#Cy)" class="H I F G"><path d="M40.297 84.4a.88.88 0 0 0 .867-.867.88.88 0 0 0-.867-.867.88.88 0 0 0-.867.867.88.88 0 0 0 .867.867zm0 0"/></g><g clip-path="url(#Cz)" class="J"><path d="M22.758 77.223c.23 0 .453-.094.613-.254s.254-.383.254-.613-.1-.45-.254-.613-.383-.254-.613-.254a.87.87 0 0 0-.609.254c-.164.164-.254.383-.254.613s.1.45.254.613a.87.87 0 0 0 .609.254zm0 0"/></g><g clip-path="url(#DA)" class="H I F G"><path d="M22.758 77.223c.23 0 .453-.094.613-.254s.254-.383.254-.613-.1-.45-.254-.613-.383-.254-.613-.254a.87.87 0 0 0-.609.254c-.164.164-.254.383-.254.613s.1.45.254.613a.87.87 0 0 0 .609.254zm0 0"/></g><g clip-path="url(#DB)" class="J"><path d="M9.012 59.336c.23 0 .45-.1.613-.254s.254-.383.254-.61-.1-.453-.254-.613-.383-.254-.613-.254-.45.1-.613.254-.254.383-.254.613a.87.87 0 0 0 .254.609c.164.164.383.254.613.254zm0 0"/></g><g clip-path="url(#DC)" class="H I F G"><path d="M9.012 59.336c.23 0 .45-.1.613-.254s.254-.383.254-.61-.1-.453-.254-.613-.383-.254-.613-.254-.45.1-.613.254-.254.383-.254.613a.87.87 0 0 0 .254.609c.164.164.383.254.613.254zm0 0"/></g><g clip-path="url(#DD)" class="J"><use xlink:href="#GL"/></g><g class="H F G"><g clip-path="url(#DE)" class="I"><use xlink:href="#GL"/></g><g clip-path="url(#DF)" class="J"><path d="M19.457 15.387c.23 0 .45-.1.613-.254s.254-.38.254-.6a.88.88 0 0 0-.254-.613c-.164-.164-.383-.254-.613-.254s-.45.1-.613.254a.88.88 0 0 0-.254.613c0 .23.094.45.254.6s.383.254.613.254zm0 0"/></g></g><g clip-path="url(#DG)" class="J"><path d="M36.93 6.176a.87.87 0 0 0 .609-.254c.164-.164.254-.383.254-.613s-.1-.45-.254-.613a.87.87 0 0 0-.609-.254c-.23 0-.453.094-.613.254s-.254.383-.254.613.1.45.254.613.383.254.613.254zm0 0"/></g><g clip-path="url(#DH)" class="H I F G"><path d="M36.93 6.176a.87.87 0 0 0 .609-.254c.164-.164.254-.383.254-.613s-.1-.45-.254-.613a.87.87 0 0 0-.609-.254c-.23 0-.453.094-.613.254s-.254.383-.254.613.1.45.254.613.383.254.613.254zm0 0"/></g><g clip-path="url(#DI)" class="J"><path d="M52.473 5.57c.23 0 .45-.1.613-.254s.254-.383.254-.613a.87.87 0 0 0-.254-.609c-.164-.164-.383-.254-.613-.254s-.45.1-.613.254a.87.87 0 0 0-.254.609c0 .23.094.453.254.613s.383.254.613.254zm0 0"/></g><g clip-path="url(#DJ)" class="H I F G"><path d="M52.473 5.57c.23 0 .45-.1.613-.254s.254-.383.254-.613a.87.87 0 0 0-.254-.609c-.164-.164-.383-.254-.613-.254s-.45.1-.613.254a.87.87 0 0 0-.254.609c0 .23.094.453.254.613s.383.254.613.254zm0 0"/></g><g clip-path="url(#DK)" class="J"><use xlink:href="#GM"/></g><g clip-path="url(#DL)" class="H I F G"><use xlink:href="#GM"/></g></g><path d="M137.694 19.877a1.78 1.78 0 0 0 1.204-.499c.316-.32.496-.752.498-1.203a1.73 1.73 0 0 0-1.702-1.703c-.934.014-1.688.768-1.7 1.703.002.452.18.884.498 1.203a1.7 1.7 0 0 0 1.203.499zm0 0"/><g transform="matrix(1.963263 0 0 1.963263 .197332 -5.586747)"><g clip-path="url(#DM)" class="H I F G"><path d="M70.035 12.97c.23 0 .45-.1.613-.254a.88.88 0 0 0 .254-.613.88.88 0 0 0-.867-.867.88.88 0 0 0-.867.867.88.88 0 0 0 .254.613c.164.164.383.254.613.254zm0 0"/></g><g clip-path="url(#DN)" class="J"><path d="M73.508 15.87c.227 0 .45-.1.61-.254s.254-.383.254-.61-.1-.453-.254-.613-.383-.254-.61-.254-.453.1-.613.254-.254.383-.254.613.1.45.254.61.383.254.613.254zm0 0"/></g><g clip-path="url(#DO)" class="H I F G"><path d="M73.508 15.87c.227 0 .45-.1.61-.254s.254-.383.254-.61-.1-.453-.254-.613-.383-.254-.61-.254-.453.1-.613.254-.254.383-.254.613.1.45.254.61.383.254.613.254zm0 0"/></g><g clip-path="url(#DP)" class="J"><path d="M74.656 16.996c.23 0 .453-.1.613-.254s.254-.383.254-.613-.1-.45-.254-.61-.383-.254-.613-.254-.45.1-.61.254-.254.383-.254.61.1.453.254.613.383.254.61.254zm0 0"/></g><g clip-path="url(#DQ)" class="H I F G"><path d="M74.656 16.996c.23 0 .453-.1.613-.254s.254-.383.254-.613-.1-.45-.254-.61-.383-.254-.613-.254-.45.1-.61.254-.254.383-.254.61.1.453.254.613.383.254.61.254zm0 0"/></g><g clip-path="url(#DR)" class="J"><path d="M73.813 16.164a.88.88 0 0 0 .867-.867.88.88 0 0 0-.867-.867.88.88 0 0 0-.867.867.88.88 0 0 0 .867.867zm0 0"/></g><g clip-path="url(#DS)" class="H I F G"><path d="M73.813 16.164a.88.88 0 0 0 .867-.867.88.88 0 0 0-.867-.867.88.88 0 0 0-.867.867.88.88 0 0 0 .867.867zm0 0"/></g><g clip-path="url(#DT)" class="J"><path d="M70.73 13.5a.88.88 0 0 0 .613-.254c.164-.164.254-.383.254-.613s-.1-.45-.254-.613a.88.88 0 0 0-.613-.254.88.88 0 0 0-.613.254c-.16.164-.25.383-.25.613s.1.45.25.613a.88.88 0 0 0 .613.254zm0 0"/></g><g clip-path="url(#DU)" class="H I F G"><path d="M70.73 13.5a.88.88 0 0 0 .613-.254c.164-.164.254-.383.254-.613s-.1-.45-.254-.613a.88.88 0 0 0-.613-.254.88.88 0 0 0-.613.254c-.16.164-.25.383-.25.613s.1.45.25.613a.88.88 0 0 0 .613.254zm0 0"/></g><g clip-path="url(#DV)" class="J"><path d="M64.637 9.586a.88.88 0 0 0 .867-.867.88.88 0 0 0-.867-.867.88.88 0 0 0-.867.867.88.88 0 0 0 .867.867zm0 0"/></g><g clip-path="url(#DW)" class="H I F G"><path d="M64.637 9.586a.88.88 0 0 0 .867-.867.88.88 0 0 0-.867-.867.88.88 0 0 0-.867.867.88.88 0 0 0 .867.867zm0 0"/></g><g clip-path="url(#DX)" class="J"><use xlink:href="#GN"/></g><g clip-path="url(#DY)" class="H I F G"><use xlink:href="#GN"/></g><g clip-path="url(#DZ)" class="J"><path d="M39.5 5.648a.88.88 0 0 0 .613-.254c.164-.164.254-.383.254-.613s-.1-.45-.254-.613a.88.88 0 0 0-.613-.254.88.88 0 0 0-.613.254c-.16.164-.25.383-.25.613s.1.45.25.613a.88.88 0 0 0 .613.254zm0 0"/></g><g clip-path="url(#Da)" class="H I F G"><path d="M39.5 5.648a.88.88 0 0 0 .613-.254c.164-.164.254-.383.254-.613s-.1-.45-.254-.613a.88.88 0 0 0-.613-.254.88.88 0 0 0-.613.254c-.16.164-.25.383-.25.613s.1.45.25.613a.88.88 0 0 0 .613.254zm0 0"/></g><g clip-path="url(#Db)" class="J"><path d="M21.953 13.31c.23 0 .45-.1.613-.254a.88.88 0 0 0 .254-.613.88.88 0 0 0-.254-.613c-.164-.16-.383-.25-.613-.25s-.45.1-.613.25a.88.88 0 0 0-.254.613.88.88 0 0 0 .254.613c.164.164.383.254.613.254zm0 0"/></g><g clip-path="url(#Dc)" class="H I F G"><path d="M21.953 13.31c.23 0 .45-.1.613-.254a.88.88 0 0 0 .254-.613.88.88 0 0 0-.254-.613c-.164-.16-.383-.25-.613-.25s-.45.1-.613.25a.88.88 0 0 0-.254.613.88.88 0 0 0 .254.613c.164.164.383.254.613.254zm0 0"/></g><g clip-path="url(#Dd)" class="J"><path d="M8.617 31.664c.227 0 .45-.1.61-.254s.254-.383.254-.613-.1-.45-.254-.61-.383-.254-.61-.254-.453.1-.613.254-.254.383-.254.61.1.453.254.613.383.254.613.254zm0 0"/></g><g clip-path="url(#De)" class="H I F G"><path d="M8.617 31.664c.227 0 .45-.1.61-.254s.254-.383.254-.613-.1-.45-.254-.61-.383-.254-.61-.254-.453.1-.613.254-.254.383-.254.61.1.453.254.613.383.254.613.254zm0 0"/></g><g clip-path="url(#Df)" class="J"><path d="M7.855 55.88c.23 0 .45-.1.613-.254s.254-.383.254-.613a.87.87 0 0 0-.254-.609c-.164-.164-.383-.254-.613-.254s-.45.1-.613.254a.87.87 0 0 0-.254.609c0 .23.094.453.254.613s.383.254.613.254zm0 0"/></g><g clip-path="url(#Dg)" class="H I F G"><path d="M7.855 55.88c.23 0 .45-.1.613-.254s.254-.383.254-.613a.87.87 0 0 0-.254-.609c-.164-.164-.383-.254-.613-.254s-.45.1-.613.254a.87.87 0 0 0-.254.609c0 .23.094.453.254.613s.383.254.613.254zm0 0"/></g><g clip-path="url(#Dh)" class="J"><use xlink:href="#GO"/></g><g clip-path="url(#Di)" class="H I F G"><use xlink:href="#GO"/></g><g clip-path="url(#Dj)" class="J"><path d="M37.746 83.94a.87.87 0 0 0 .609-.254c.164-.164.254-.383.254-.613s-.1-.45-.254-.613a.87.87 0 0 0-.609-.254c-.23 0-.453.094-.613.254s-.254.383-.254.613.1.45.254.613.383.254.613.254zm0 0"/></g><g clip-path="url(#Dk)" class="H I F G"><path d="M37.746 83.94a.87.87 0 0 0 .609-.254c.164-.164.254-.383.254-.613s-.1-.45-.254-.613a.87.87 0 0 0-.609-.254c-.23 0-.453.094-.613.254s-.254.383-.254.613.1.45.254.613.383.254.613.254zm0 0"/></g><g clip-path="url(#Dl)" class="J"><path d="M53.098 84.254a.87.87 0 0 0 .609-.254c.164-.164.254-.383.254-.613s-.1-.45-.254-.613a.87.87 0 0 0-.609-.254c-.23 0-.453.094-.613.254s-.254.383-.254.613.1.45.254.613.383.254.613.254zm0 0"/></g><g clip-path="url(#Dm)" class="H I F G"><path d="M53.098 84.254a.87.87 0 0 0 .609-.254c.164-.164.254-.383.254-.613s-.1-.45-.254-.613a.87.87 0 0 0-.609-.254c-.23 0-.453.094-.613.254s-.254.383-.254.613.1.45.254.613.383.254.613.254zm0 0"/></g><g clip-path="url(#Dn)" class="J"><use xlink:href="#GP"/></g><g clip-path="url(#Do)" class="H I F G"><use xlink:href="#GP"/></g><g clip-path="url(#Dp)" class="J"><path d="M70.262 76.79c.23 0 .45-.1.613-.254a.87.87 0 0 0 .254-.609c0-.23-.094-.453-.254-.613s-.383-.254-.613-.254-.45.1-.613.254-.254.383-.254.613a.87.87 0 0 0 .254.609c.164.164.383.254.613.254zm0 0"/></g><g clip-path="url(#Dq)" class="H I F G"><path d="M70.262 76.79c.23 0 .45-.1.613-.254a.87.87 0 0 0 .254-.609c0-.23-.094-.453-.254-.613s-.383-.254-.613-.254-.45.1-.613.254-.254.383-.254.613a.87.87 0 0 0 .254.609c.164.164.383.254.613.254zm0 0"/></g><g clip-path="url(#Dr)" class="J"><path d="M73.61 73.96a.87.87 0 0 0 .609-.254c.164-.164.254-.383.254-.613s-.1-.45-.254-.613a.87.87 0 0 0-.609-.254c-.23 0-.453.094-.613.254s-.254.383-.254.613.1.45.254.613.383.254.613.254zm0 0"/></g><g clip-path="url(#Ds)" class="H I F G"><path d="M73.61 73.96a.87.87 0 0 0 .609-.254c.164-.164.254-.383.254-.613s-.1-.45-.254-.613a.87.87 0 0 0-.609-.254c-.23 0-.453.094-.613.254s-.254.383-.254.613.1.45.254.613.383.254.613.254zm0 0"/></g><g clip-path="url(#Dt)" class="J"><path d="M74.664 72.926c.227 0 .45-.1.61-.254s.254-.383.254-.61-.1-.453-.254-.613-.383-.254-.61-.254-.453.1-.613.254-.254.383-.254.613.1.45.254.61.383.254.613.254zm0 0"/></g><g clip-path="url(#Du)" class="H I F G"><path d="M74.664 72.926c.227 0 .45-.1.61-.254s.254-.383.254-.61-.1-.453-.254-.613-.383-.254-.61-.254-.453.1-.613.254-.254.383-.254.613.1.45.254.61.383.254.613.254zm0 0"/></g><g clip-path="url(#Dv)" class="J"><path d="M73.723 73.852c.227 0 .45-.1.61-.254s.254-.383.254-.61-.1-.453-.254-.613-.383-.254-.61-.254-.453.1-.613.254-.254.383-.254.613.1.45.254.61.383.254.613.254zm0 0"/></g><g clip-path="url(#Dw)" class="H I F G"><path d="M73.723 73.852c.227 0 .45-.1.61-.254s.254-.383.254-.61-.1-.453-.254-.613-.383-.254-.61-.254-.453.1-.613.254-.254.383-.254.613.1.45.254.61.383.254.613.254zm0 0"/></g><g clip-path="url(#Dx)" class="J"><path d="M70.52 76.594c.23 0 .45-.1.613-.254a.88.88 0 0 0 .254-.613.88.88 0 0 0-.254-.613c-.164-.16-.383-.25-.613-.25s-.45.1-.613.25a.88.88 0 0 0-.254.613.88.88 0 0 0 .254.613c.164.164.383.254.613.254zm0 0"/></g><g clip-path="url(#Dy)" class="H I F G"><path d="M70.52 76.594c.23 0 .45-.1.613-.254a.88.88 0 0 0 .254-.613.88.88 0 0 0-.254-.613c-.164-.16-.383-.25-.613-.25s-.45.1-.613.25a.88.88 0 0 0-.254.613.88.88 0 0 0 .254.613c.164.164.383.254.613.254zm0 0"/></g><g clip-path="url(#Dz)" class="J"><path d="M64.254 80.54c.23 0 .453-.1.613-.254s.254-.383.254-.613-.1-.45-.254-.61-.383-.254-.613-.254-.45.1-.61.254-.254.383-.254.61.1.453.254.613.383.254.61.254zm0 0"/></g><g clip-path="url(#EA)" class="H I F G"><path d="M64.254 80.54c.23 0 .453-.1.613-.254s.254-.383.254-.613-.1-.45-.254-.61-.383-.254-.613-.254-.45.1-.61.254-.254.383-.254.61.1.453.254.613.383.254.61.254zm0 0"/></g><g clip-path="url(#EB)" class="J"><path d="M53.816 84.12a.88.88 0 0 0 .867-.867.88.88 0 0 0-.867-.867.88.88 0 0 0-.867.867.88.88 0 0 0 .867.867zm0 0"/></g><g clip-path="url(#EC)" class="H I F G"><path d="M53.816 84.12a.88.88 0 0 0 .867-.867.88.88 0 0 0-.867-.867.88.88 0 0 0-.867.867.88.88 0 0 0 .867.867zm0 0"/></g><g clip-path="url(#ED)" class="J"><use xlink:href="#GQ"/></g><g clip-path="url(#EE)" class="H I F G"><use xlink:href="#GQ"/></g><g clip-path="url(#EF)" class="J"><path d="M21.156 75.992c.23 0 .45-.1.613-.254s.254-.383.254-.613a.87.87 0 0 0-.254-.609c-.164-.164-.383-.254-.613-.254s-.45.1-.613.254a.87.87 0 0 0-.254.609c0 .23.094.453.254.613s.383.254.613.254zm0 0"/></g><g clip-path="url(#EG)" class="H I F G"><path d="M21.156 75.992c.23 0 .45-.1.613-.254s.254-.383.254-.613a.87.87 0 0 0-.254-.609c-.164-.164-.383-.254-.613-.254s-.45.1-.613.254a.87.87 0 0 0-.254.609c0 .23.094.453.254.613s.383.254.613.254zm0 0"/></g><g clip-path="url(#EH)" class="J"><path d="M8.25 57.176c.227 0 .45-.1.61-.254s.254-.383.254-.613-.1-.45-.254-.61-.383-.254-.61-.254-.453.1-.613.254-.254.383-.254.61.1.453.254.613.383.254.613.254zm0 0"/></g><g clip-path="url(#EI)" class="H I F G"><path d="M8.25 57.176c.227 0 .45-.1.61-.254s.254-.383.254-.613-.1-.45-.254-.61-.383-.254-.61-.254-.453.1-.613.254-.254.383-.254.61.1.453.254.613.383.254.613.254zm0 0"/></g><g clip-path="url(#EJ)" class="J"><path d="M8.188 32.945c.23 0 .45-.1.613-.254a.88.88 0 0 0 .254-.613c0-.23-.094-.45-.254-.6s-.383-.254-.613-.254-.45.1-.613.254-.254.38-.254.6.1.45.254.613a.85.85 0 0 0 .613.254zm0 0"/></g><g clip-path="url(#EK)" class="H I F G"><path d="M8.187 32.945c.23 0 .45-.1.613-.254a.88.88 0 0 0 .254-.613c0-.23-.094-.45-.254-.61s-.383-.254-.613-.254-.45.1-.613.254-.254.38-.254.61.1.45.254.613.383.254.613.254zm0 0"/></g><g clip-path="url(#EL)" class="J"><use xlink:href="#GR"/></g><g clip-path="url(#EM)" class="H I F G"><use xlink:href="#GR"/></g><g clip-path="url(#EN)" class="J"><use xlink:href="#GS"/></g><g clip-path="url(#EO)" class="H I F G"><use xlink:href="#GS"/></g><g clip-path="url(#EP)" class="J"><path d="M53.71 5.79a.87.87 0 0 0 .609-.254c.164-.164.254-.383.254-.613s-.1-.45-.254-.613a.87.87 0 0 0-.609-.254c-.23 0-.453.094-.613.254s-.254.383-.254.613.1.45.254.613.383.254.613.254zm0 0"/></g><g clip-path="url(#EQ)" class="H I F G"><path d="M53.71 5.79a.87.87 0 0 0 .609-.254c.164-.164.254-.383.254-.613s-.1-.45-.254-.613a.87.87 0 0 0-.609-.254c-.23 0-.453.094-.613.254s-.254.383-.254.613.1.45.254.613.383.254.613.254zm0 0"/></g><g clip-path="url(#ER)" class="J"><path d="M64.188 9.355a.88.88 0 0 0 .867-.867.88.88 0 0 0-.867-.867.88.88 0 0 0-.867.867.88.88 0 0 0 .867.867zm0 0"/></g><g class="H F G"><g clip-path="url(#ES)" class="I"><path d="M64.188 9.355a.88.88 0 0 0 .867-.867.88.88 0 0 0-.867-.867.88.88 0 0 0-.867.867.88.88 0 0 0 .867.867zm0 0"/></g><g clip-path="url(#ET)" class="J"><path d="M70.48 13.305c.23 0 .45-.1.613-.254s.254-.383.254-.61-.1-.453-.254-.613-.383-.254-.613-.254-.45.1-.613.254a.87.87 0 0 0-.25.613c0 .227.1.45.25.61s.383.254.613.254zm0 0"/></g></g><g clip-path="url(#EU)" class="J"><use xlink:href="#GT"/></g><g clip-path="url(#EV)" class="H I F G"><use xlink:href="#GT"/></g><g clip-path="url(#EW)" class="J"><path d="M74.664 17.004a.87.87 0 0 0 .609-.254c.164-.164.254-.383.254-.613s-.1-.45-.254-.613a.85.85 0 0 0-.61-.254c-.227 0-.453.1-.613.254s-.254.383-.254.613.1.45.254.613a.85.85 0 0 0 .613.254zm0 0"/></g><g clip-path="url(#EX)" class="H I F G"><path d="M74.664 17.004a.87.87 0 0 0 .609-.254c.164-.164.254-.383.254-.613s-.1-.45-.254-.613a.85.85 0 0 0-.61-.254c-.227 0-.453.1-.613.254s-.254.383-.254.613.1.45.254.613a.85.85 0 0 0 .613.254zm0 0"/></g><g clip-path="url(#EY)" class="J"><path d="M73.625 15.984c.23 0 .45-.1.613-.254s.254-.383.254-.613a.87.87 0 0 0-.254-.609c-.164-.164-.383-.254-.613-.254s-.45.1-.613.254a.87.87 0 0 0-.254.609c0 .23.094.453.254.613s.383.254.613.254zm0 0"/></g><g clip-path="url(#EZ)" class="H I F G"><path d="M73.625 15.984c.23 0 .45-.1.613-.254s.254-.383.254-.613a.87.87 0 0 0-.254-.609c-.164-.164-.383-.254-.613-.254s-.45.1-.613.254a.87.87 0 0 0-.254.609c0 .23.094.453.254.613s.383.254.613.254zm0 0"/></g><g clip-path="url(#Ea)" class="J"><use xlink:href="#GU"/></g><g clip-path="url(#Eb)" class="H I F G"><use xlink:href="#GU"/></g><g clip-path="url(#Ec)" class="J"><use xlink:href="#GV"/></g><g clip-path="url(#Ed)" class="H I F G"><use xlink:href="#GV"/></g><g clip-path="url(#Ee)" class="J"><path d="M53.207 5.695a.87.87 0 0 0 .609-.254c.164-.164.254-.383.254-.613s-.1-.45-.254-.613a.87.87 0 0 0-.609-.254c-.23 0-.453.094-.613.254s-.254.383-.254.613.1.45.254.613.383.254.613.254zm0 0"/></g><g clip-path="url(#Ef)" class="H I F G"><path d="M53.207 5.695a.87.87 0 0 0 .609-.254c.164-.164.254-.383.254-.613s-.1-.45-.254-.613a.87.87 0 0 0-.609-.254c-.23 0-.453.094-.613.254s-.254.383-.254.613.1.45.254.613.383.254.613.254zm0 0"/></g></g><path d="M74.58 6.108c.45-.007.88-.185 1.202-.498a1.69 1.69 0 0 0 .499-1.203 1.75 1.75 0 0 0-.499-1.198c-.302-.315-.75-.498-1.202-.498s-.884.196-1.2.498-.497.752-.497 1.198c.007.45.185.88.497 1.203a1.69 1.69 0 0 0 1.199.498zm0 0"/><g transform="matrix(1.963263 0 0 1.963263 .197332 -5.586747)"><g clip-path="url(#Eg)" class="H I F G"><path d="M37.887 5.957c.23 0 .453-.1.613-.254s.254-.383.254-.613-.1-.45-.254-.61-.383-.254-.613-.254-.45.1-.61.254-.254.383-.254.61.1.453.254.613.383.254.61.254zm0 0"/></g><g clip-path="url(#Eh)" class="J"><path d="M20.37 14.6a.87.87 0 0 0 .609-.254c.164-.164.254-.383.254-.613s-.1-.45-.254-.613a.87.87 0 0 0-.609-.254c-.23 0-.453.094-.613.254s-.254.383-.254.613.1.45.254.613.383.254.613.254zm0 0"/></g><g clip-path="url(#Ei)" class="H I F G"><path d="M20.37 14.6a.87.87 0 0 0 .609-.254c.164-.164.254-.383.254-.613s-.1-.45-.254-.613a.87.87 0 0 0-.609-.254c-.23 0-.453.094-.613.254s-.254.383-.254.613.1.45.254.613.383.254.613.254zm0 0"/></g></g><path d="M15.707 60.874c.45-.007.88-.185 1.204-.5a1.69 1.69 0 0 0 .498-1.198c0-.446-.197-.888-.498-1.203s-.752-.498-1.204-.498a1.74 1.74 0 0 0-1.197.498c-.314.303-.5.752-.5 1.203a1.75 1.75 0 0 0 .499 1.198c.302.315.75.5 1.198.5zm0 0"/><g transform="matrix(1.963263 0 0 1.963263 .197332 -5.586747)"><g clip-path="url(#Ej)" class="H I F G"><path d="M7.9 33.852c.23 0 .453-.1.613-.254s.254-.383.254-.61-.1-.453-.254-.613-.383-.254-.613-.254-.45.1-.61.254-.254.383-.254.613.1.45.254.61.383.254.61.254zm0 0"/></g><g clip-path="url(#Ek)" class="J"><path d="M8.547 58.074c.23 0 .453-.094.613-.254s.254-.383.254-.613-.1-.45-.254-.613-.383-.254-.613-.254a.87.87 0 0 0-.609.254c-.164.164-.254.383-.254.613s.1.45.254.613a.87.87 0 0 0 .609.254zm0 0"/></g><g clip-path="url(#El)" class="H I F G"><path d="M8.547 58.074c.23 0 .453-.094.613-.254s.254-.383.254-.613-.1-.45-.254-.613-.383-.254-.613-.254a.87.87 0 0 0-.609.254c-.164.164-.254.383-.254.613s.1.45.254.613a.87.87 0 0 0 .609.254zm0 0"/></g><g clip-path="url(#Em)" class="J"><path d="M21.813 76.512a.88.88 0 0 0 .867-.867.88.88 0 0 0-.867-.867.88.88 0 0 0-.867.867.88.88 0 0 0 .867.867zm0 0"/></g><g clip-path="url(#En)" class="H I F G"><path d="M21.813 76.512a.88.88 0 0 0 .867-.867.88.88 0 0 0-.867-.867.88.88 0 0 0-.867.867.88.88 0 0 0 .867.867zm0 0"/></g><g clip-path="url(#Eo)" class="J"><path d="M39.36 84.258a.88.88 0 0 0 .867-.867.88.88 0 0 0-.867-.867.88.88 0 0 0-.867.867.88.88 0 0 0 .867.867zm0 0"/></g><g clip-path="url(#Ep)" class="H I F G"><path d="M39.36 84.258a.88.88 0 0 0 .867-.867.88.88 0 0 0-.867-.867.88.88 0 0 0-.867.867.88.88 0 0 0 .867.867zm0 0"/></g><g clip-path="url(#Eq)" class="J"><path d="M54.313 84.02c.23 0 .45-.1.613-.254a.87.87 0 0 0 .254-.609c0-.23-.094-.453-.254-.613s-.383-.254-.613-.254-.45.1-.613.254-.254.383-.254.613a.87.87 0 0 0 .254.609c.164.164.383.254.613.254zm0 0"/></g><g class="H F G"><g clip-path="url(#Er)" class="I"><path d="M54.312 84.02c.23 0 .45-.1.613-.254a.87.87 0 0 0 .254-.609c0-.23-.094-.453-.254-.613s-.383-.254-.613-.254-.45.1-.613.254-.254.383-.254.613a.87.87 0 0 0 .254.609c.164.164.383.254.613.254zm0 0"/></g><g clip-path="url(#Es)" class="J"><path d="M64.57 80.38c.23 0 .45-.1.613-.254a.88.88 0 0 0 .254-.613.88.88 0 0 0-.254-.613c-.164-.16-.383-.25-.613-.25s-.45.1-.613.25-.254.383-.254.613.1.45.254.613.383.254.613.254zm0 0"/></g></g><g clip-path="url(#Et)" class="J"><use xlink:href="#GW"/></g><g clip-path="url(#Eu)" class="H I F G"><use xlink:href="#GW"/></g><g clip-path="url(#Ev)" class="J"><path d="M73.797 73.78c.23 0 .45-.1.613-.254a.88.88 0 0 0 .254-.613.88.88 0 0 0-.867-.867.88.88 0 0 0-.867.867.88.88 0 0 0 .254.613c.164.164.383.254.613.254zm0 0"/></g><g clip-path="url(#Ew)" class="H I F G"><path d="M73.797 73.78c.23 0 .45-.1.613-.254a.88.88 0 0 0 .254-.613.88.88 0 0 0-.867-.867.88.88 0 0 0-.867.867.88.88 0 0 0 .254.613c.164.164.383.254.613.254zm0 0"/></g><g clip-path="url(#Ex)" class="J"><path d="M74.66 72.93c.227 0 .45-.1.61-.254s.254-.383.254-.613-.1-.45-.254-.61-.383-.254-.61-.254-.453.1-.613.254-.254.383-.254.61.1.453.254.613.383.254.613.254zm0 0"/></g><g clip-path="url(#Ey)" class="H I F G"><path d="M74.66 72.93c.227 0 .45-.1.61-.254s.254-.383.254-.613-.1-.45-.254-.61-.383-.254-.61-.254-.453.1-.613.254-.254.383-.254.61.1.453.254.613.383.254.613.254zm0 0"/></g><g clip-path="url(#Ez)" class="J"><use xlink:href="#GX"/></g><g clip-path="url(#FA)" class="H I F G"><use xlink:href="#GX"/></g><g clip-path="url(#FB)" class="H I F G"><path d="M70.074 76.93c.23 0 .45-.1.613-.254a.85.85 0 0 0 .254-.613c0-.23-.1-.45-.254-.6s-.383-.254-.613-.254-.45.1-.6.254a.86.86 0 0 0-.254.61c0 .227.1.453.254.613s.38.254.6.254zm0 0"/></g><g clip-path="url(#FC)" class="J"><path d="M63.465 80.93c.23 0 .45-.1.613-.254a.88.88 0 0 0 .254-.613.88.88 0 0 0-.254-.613c-.164-.16-.383-.25-.613-.25s-.45.1-.613.25a.88.88 0 0 0-.254.613.88.88 0 0 0 .254.613c.164.164.383.254.613.254zm0 0"/></g><g class="H F G"><g clip-path="url(#FD)" class="I"><path d="M63.465 80.93c.23 0 .45-.1.613-.254a.88.88 0 0 0 .254-.613.88.88 0 0 0-.254-.613c-.164-.16-.383-.25-.613-.25s-.45.1-.613.25a.88.88 0 0 0-.254.613.88.88 0 0 0 .254.613c.164.164.383.254.613.254zm0 0"/></g><g clip-path="url(#FE)" class="J"><path d="M52.582 84.34c.23 0 .453-.1.613-.254s.254-.383.254-.613-.1-.45-.254-.613a.87.87 0 0 0-.613-.25c-.227 0-.45.1-.61.25s-.254.383-.254.613.1.45.254.613.383.254.61.254zm0 0"/></g></g></g><path d="M72.983 158.916a1.71 1.71 0 0 0 1.195-.499c.322-.322.5-.752.5-1.204s-.197-.884-.5-1.203c-.317-.317-.746-.496-1.195-.5s-.9.185-1.204.5-.5.75-.5 1.203.196.884.5 1.204a1.67 1.67 0 0 0 1.204.499zm0 0"/><g transform="matrix(1.963263 0 0 1.963263 .197332 -5.586747)"><g clip-path="url(#FF)" class="H I F G"><path d="M37.074 83.79a.87.87 0 0 0 .609-.254c.164-.164.254-.383.254-.613s-.1-.45-.254-.613a.87.87 0 0 0-.609-.254c-.23 0-.453.094-.613.254s-.254.383-.254.613.1.45.254.613.383.254.613.254zm0 0"/></g><g clip-path="url(#FG)" class="J"><use xlink:href="#GY"/></g><g clip-path="url(#FH)" class="H I F G"><use xlink:href="#GY"/></g><g clip-path="url(#FI)" class="J"><path d="M7.605 54.96c.23 0 .45-.1.613-.254s.254-.383.254-.61-.1-.453-.254-.613-.383-.254-.613-.254-.45.1-.613.254-.254.383-.254.613a.87.87 0 0 0 .254.609c.164.164.383.254.613.254zm0 0"/></g><g clip-path="url(#FJ)" class="H I F G"><path d="M7.605 54.96c.23 0 .45-.1.613-.254s.254-.383.254-.61-.1-.453-.254-.613-.383-.254-.613-.254-.45.1-.613.254-.254.383-.254.613a.87.87 0 0 0 .254.609c.164.164.383.254.613.254zm0 0"/></g></g><path d="M17.75 54.843c.45 0 .883-.185 1.198-.5s.498-.752.498-1.203-.196-.884-.498-1.204a1.66 1.66 0 0 0-1.198-.499 1.71 1.71 0 0 0-1.203.499c-.32.317-.5.752-.5 1.204s.196.884.5 1.203c.32.317.752.496 1.203.5zm0 0"/><g transform="matrix(1.963263 0 0 1.963263 .197332 -5.586747)"><g clip-path="url(#FK)" class="H I F G"><path d="M8.94 30.78c.23 0 .45-.094.6-.254s.254-.383.254-.613-.1-.45-.254-.613-.38-.254-.6-.254a.88.88 0 0 0-.613.254c-.164.164-.254.383-.254.613s.1.45.254.613a.88.88 0 0 0 .613.254zm0 0"/></g><g clip-path="url(#FL)" class="J"><use xlink:href="#GZ"/></g><g clip-path="url(#FM)" class="H I F G"><use xlink:href="#GZ"/></g><g clip-path="url(#FN)" class="J"><use xlink:href="#Ga"/></g><g clip-path="url(#FO)" class="H I F G"><use xlink:href="#Ga"/></g><g clip-path="url(#FP)" class="J"><path d="M54.902 6.035a.88.88 0 0 0 .613-.254c.164-.164.254-.383.254-.613s-.1-.45-.254-.613a.88.88 0 0 0-.613-.254.88.88 0 0 0-.613.254c-.16.164-.25.383-.25.613s.1.45.25.613a.88.88 0 0 0 .613.254zm0 0"/></g><g clip-path="url(#FQ)" class="H I F G"><path d="M54.902 6.035a.88.88 0 0 0 .613-.254c.164-.164.254-.383.254-.613s-.1-.45-.254-.613a.88.88 0 0 0-.613-.254.88.88 0 0 0-.613.254c-.16.164-.25.383-.25.613s.1.45.25.613a.88.88 0 0 0 .613.254zm0 0"/></g></g><path d="M127.692 13.547c.45 0 .89-.196 1.203-.5a1.7 1.7 0 0 0 .499-1.204c0-.452-.197-.884-.5-1.203s-.752-.5-1.203-.5a1.71 1.71 0 0 0-1.196.499c-.322.322-.5.75-.5 1.203s.196.884.5 1.204.752.5 1.198.5zm0 0"/><g transform="matrix(1.963263 0 0 1.963263 .197332 -5.586747)"><g clip-path="url(#FR)" class="H I F G"><use xlink:href="#Gb"/></g><g clip-path="url(#FS)" class="J"><path d="M70.902 13.633a.87.87 0 0 0 .609-.254c.164-.164.254-.383.254-.613s-.1-.45-.254-.613a.87.87 0 0 0-.609-.254c-.23 0-.453.094-.613.254s-.254.383-.254.613.1.45.254.613.383.254.613.254zm0 0"/></g><g clip-path="url(#FT)" class="H I F G"><path d="M70.902 13.633a.87.87 0 0 0 .609-.254c.164-.164.254-.383.254-.613s-.1-.45-.254-.613a.87.87 0 0 0-.609-.254c-.23 0-.453.094-.613.254s-.254.383-.254.613.1.45.254.613.383.254.613.254zm0 0"/></g><g clip-path="url(#FU)" class="J"><use xlink:href="#Gc"/></g><g clip-path="url(#FV)" class="H I F G"><use xlink:href="#Gc"/></g><g clip-path="url(#FW)" class="J"><path d="M74.652 16.988c.227 0 .45-.1.61-.254s.254-.383.254-.61-.1-.453-.254-.613-.383-.254-.61-.254-.453.1-.613.254-.254.383-.254.613.1.45.254.61.383.254.613.254zm0 0"/></g><g clip-path="url(#FX)" class="H I F G"><path d="M74.652 16.988c.227 0 .45-.1.61-.254s.254-.383.254-.61-.1-.453-.254-.613-.383-.254-.61-.254-.453.1-.613.254-.254.383-.254.613.1.45.254.61.383.254.613.254zm0 0"/></g><g clip-path="url(#FY)" class="J"><path d="M73.418 15.79c.23 0 .45-.1.613-.254a.87.87 0 0 0 .254-.609c0-.23-.094-.453-.254-.613s-.383-.254-.613-.254-.45.1-.613.254-.254.383-.254.613a.87.87 0 0 0 .254.609c.164.164.383.254.613.254zm0 0"/></g><g clip-path="url(#FZ)" class="H I F G"><path d="M73.418 15.79c.23 0 .45-.1.613-.254a.87.87 0 0 0 .254-.609c0-.23-.094-.453-.254-.613s-.383-.254-.613-.254-.45.1-.613.254-.254.383-.254.613a.87.87 0 0 0 .254.609c.164.164.383.254.613.254zm0 0"/></g><g clip-path="url(#Fa)" class="J"><use xlink:href="#Gd"/></g><g clip-path="url(#Fb)" class="H I F G"><use xlink:href="#Gd"/></g></g><path d="M123.99 11.7c.45 0 .883-.197 1.204-.5s.498-.75.498-1.203-.196-.884-.498-1.198-.753-.498-1.204-.498-.884.196-1.203.498-.49.752-.49 1.198.174.884.49 1.203c.322.322.75.5 1.203.5zm0 0"/><g transform="matrix(1.963263 0 0 1.963263 .197332 -5.586747)"><g clip-path="url(#Fc)" class="H I F G"><path d="M63.055 8.805c.23 0 .45-.1.613-.254a.85.85 0 0 0 .254-.613c0-.23-.1-.45-.254-.6s-.383-.254-.613-.254-.45.1-.613.254-.25.383-.25.6a.87.87 0 0 0 .25.613c.164.164.383.254.613.254zm0 0"/></g><g clip-path="url(#Fd)" class="J"><path d="M51.95 5.492a.9.9 0 0 0 .613-.254c.16-.154.254-.383.254-.613s-.1-.45-.254-.613a.85.85 0 0 0-.613-.254.87.87 0 0 0-.609.254c-.164.164-.254.383-.254.613s.1.45.254.613a.85.85 0 0 0 .61.254zm0 0"/></g><g clip-path="url(#Fe)" class="H I F G"><path d="M51.95 5.492a.9.9 0 0 0 .613-.254c.16-.154.254-.383.254-.613s-.1-.45-.254-.613a.85.85 0 0 0-.613-.254.87.87 0 0 0-.609.254c-.164.164-.254.383-.254.613s.1.45.254.613a.85.85 0 0 0 .61.254zm0 0"/></g><g clip-path="url(#Ff)" class="J"><use xlink:href="#Ge"/></g><g clip-path="url(#Fg)" class="H I F G"><use xlink:href="#Ge"/></g><g clip-path="url(#Fh)" class="J"><use xlink:href="#Gf"/></g><g clip-path="url(#Fi)" class="H I F G"><use xlink:href="#Gf"/></g><g clip-path="url(#Fj)" class="J"><path d="M7.332 36.1c.23 0 .45-.1.613-.254a.87.87 0 0 0 .254-.609c0-.23-.094-.453-.254-.613s-.383-.254-.613-.254-.45.1-.613.254-.254.383-.254.613a.87.87 0 0 0 .254.609c.164.164.383.254.613.254zm0 0"/></g><g clip-path="url(#Fk)" class="H I F G"><path d="M7.332 36.1c.23 0 .45-.1.613-.254a.87.87 0 0 0 .254-.609c0-.23-.094-.453-.254-.613s-.383-.254-.613-.254-.45.1-.613.254-.254.383-.254.613a.87.87 0 0 0 .254.609c.164.164.383.254.613.254zm0 0"/></g></g></svg>