<svg xmlns="http://www.w3.org/2000/svg" xmlns:xlink="http://www.w3.org/1999/xlink" width="216" height="216" viewBox="0 0 162 162" xmlns:v="https://vecta.io/nano"><style><![CDATA[.O{stroke-linejoin:round}.P{stroke-miterlimit:10}.Q{fill:none}.R{fill:rgb(83.920288%,15.293884%,15.686035%)}.S{stroke:rgb(83.920288%,15.293884%,15.686035%)}.T{fill:rgb(0%,0%,0%)}.U{stroke:rgb(0%,0%,0%)}]]></style><defs><clipPath id="A"><path d="M60 6h2.605v2.656H60zm0 0"/></clipPath><clipPath id="B"><path d="M59.605 5.656h3v3h-3zm0 0"/></clipPath><clipPath id="C"><path d="M66 9.2h2.785V12H66zm0 0"/></clipPath><clipPath id="D"><path d="M65.785 9.2h3v3h-3zm0 0"/></clipPath><clipPath id="E"><path d="M69.004 12H72v2.8h-2.996zm0 0"/></clipPath><clipPath id="F"><path d="M69.004 11.8h3v3h-3zm0 0"/></clipPath><clipPath id="G"><path d="M70.023 13H73v2.742h-2.977zm0 0"/></clipPath><clipPath id="H"><path d="M70.023 12.742h3v3h-3zm0 0"/></clipPath><clipPath id="I"><path d="M69.137 12H72v2.9h-2.863zm0 0"/></clipPath><clipPath id="J"><path d="M69.137 11.9h3v3h-3zm0 0"/></clipPath><clipPath id="K"><path d="M66.078 9.418H69V12h-2.922zm0 0"/></clipPath><clipPath id="L"><path d="M66.078 9.418h3v3h-3zm0 0"/></clipPath><clipPath id="M"><path d="M60.13 6H63v2.898h-2.87zm0 0"/></clipPath><clipPath id="N"><path d="M60.13 5.898h3v3h-3zm0 0"/></clipPath><clipPath id="O"><path d="M50.285 3H53v2.867h-2.715zm0 0"/></clipPath><clipPath id="P"><path d="M50.285 2.867h3v3h-3zm0 0"/></clipPath><clipPath id="Q"><path d="M36.223 3.38H39V6h-2.777zm0 0"/></clipPath><clipPath id="R"><path d="M36.223 3.38h3v3h-3zm0 0"/></clipPath><clipPath id="S"><path d="M20.324 12H23v2.6h-2.676zm0 0"/></clipPath><clipPath id="T"><path d="M20.324 11.6h3v3h-3zm0 0"/></clipPath><clipPath id="U"><path d="M9.262 29.363H12V32H9.262zm0 0"/></clipPath><clipPath id="V"><path d="M9.262 29.363h3v3h-3zm0 0"/></clipPath><clipPath id="W"><path d="M10.137 51.395H13V54h-2.863zm0 0"/></clipPath><clipPath id="X"><path d="M10.137 51.395h3v3h-3zm0 0"/></clipPath><clipPath id="Y"><path d="M22.328 68.055H25V71h-2.672zm0 0"/></clipPath><clipPath id="Z"><path d="M22.328 68.055h3v3h-3zm0 0"/></clipPath><clipPath id="a"><path d="M38.277 75.04H41V78h-2.723zm0 0"/></clipPath><clipPath id="b"><path d="M38.277 75.04h3v3h-3zm0 0"/></clipPath><clipPath ><path d="M52 75h2.824v2.852H52zm0 0"/></clipPath><clipPath ><path d="M51.824 74.852h3v3h-3zm0 0"/></clipPath><clipPath id="e"><path d="M61.105 72H64v2.62h-2.895zm0 0"/></clipPath><clipPath id="f"><path d="M61.105 71.62h3v3h-3zm0 0"/></clipPath><clipPath id="g"><path d="M67 68.176h2.617V71H67zm0 0"/></clipPath><clipPath id="h"><path d="M66.617 68.176h3v3h-3zm0 0"/></clipPath><clipPath id="i"><path d="M69.348 66H72v2.895h-2.652zm0 0"/></clipPath><clipPath id="j"><path d="M69.348 65.895h3v3h-3zm0 0"/></clipPath><clipPath id="k"><path d="M70 65.3h2.977V68H70zm0 0"/></clipPath><clipPath id="l"><path d="M69.977 65.3h3v3h-3zm0 0"/></clipPath><clipPath id="m"><path d="M69 66.496h2.68V69H69zm0 0"/></clipPath><clipPath id="n"><path d="M68.68 66.496h3v3h-3zm0 0"/></clipPath><clipPath id="o"><path d="M65.102 69.262H68V72h-2.898zm0 0"/></clipPath><clipPath id="p"><path d="M65.102 69.262h3v3h-3zm0 0"/></clipPath><clipPath ><path d="M58.422 73H61v2.848h-2.578zm0 0"/></clipPath><clipPath ><path d="M58.422 72.848h3v3h-3zm0 0"/></clipPath><clipPath id="s"><path d="M48 75.445h2.695V78H48zm0 0"/></clipPath><clipPath id="t"><path d="M47.695 75.445h3v3h-3zm0 0"/></clipPath><clipPath id="u"><path d="M33 74h2.977v2.7H33zm0 0"/></clipPath><clipPath id="v"><path d="M32.977 73.7h3v3h-3zm0 0"/></clipPath><clipPath id="w"><path d="M17.4 64H20v2.523h-2.6zm0 0"/></clipPath><clipPath id="x"><path d="M17.4 63.523h3v3h-3zm0 0"/></clipPath><clipPath id="y"><path d="M8.352 44.25H11V47H8.352zm0 0"/></clipPath><clipPath id="z"><path d="M8.352 44.25h3v3h-3zm0 0"/></clipPath><clipPath id="AA"><path d="M12 23h2.844v2.617H12zm0 0"/></clipPath><clipPath id="AB"><path d="M11.844 22.617h3v3h-3zm0 0"/></clipPath><clipPath id="AC"><path d="M25.398 8H28v2.832h-2.602zm0 0"/></clipPath><clipPath id="AD"><path d="M25.398 7.832h3v3h-3zm0 0"/></clipPath><clipPath ><path d="M41.188 3H44v2.57h-2.812zm0 0"/></clipPath><clipPath ><path d="M41.188 2.57h3v3h-3zm0 0"/></clipPath><clipPath id="AG"><path d="M54 4h2.953v2.645H54zm0 0"/></clipPath><clipPath id="AH"><path d="M53.953 3.645h3v3h-3zm0 0"/></clipPath><clipPath id="AI"><path d="M62.418 7.078H65V10h-2.582zm0 0"/></clipPath><clipPath id="AJ"><path d="M62.418 7.078h3v3h-3zm0 0"/></clipPath><clipPath id="AK"><path d="M67.313 10.36H70V13h-2.687zm0 0"/></clipPath><clipPath id="AL"><path d="M67.313 10.36h3v3h-3zm0 0"/></clipPath><clipPath id="AM"><path d="M70 12.34h2.602V15H70zm0 0"/></clipPath><clipPath id="AN"><path d="M69.602 12.34h3v3h-3zm0 0"/></clipPath><clipPath id="AO"><path d="M70 13h2.855v2.578H70zm0 0"/></clipPath><clipPath id="AP"><path d="M69.855 12.578h3v3h-3zm0 0"/></clipPath><clipPath id="AQ"><path d="M68.145 11.04H71V14h-2.855zm0 0"/></clipPath><clipPath id="AR"><path d="M68.145 11.04h3v3h-3zm0 0"/></clipPath><clipPath id="AS"><path d="M64.05 8.047H67V11h-2.95zm0 0"/></clipPath><clipPath id="AT"><path d="M64.05 8.047h3v3h-3zm0 0"/></clipPath><clipPath ><path d="M57 4.47h2.633V7H57zm0 0"/></clipPath><clipPath ><path d="M56.633 4.47h3v3h-3zm0 0"/></clipPath><clipPath ><path d="M45.047 2.422H48V5h-2.953zm0 0"/></clipPath><clipPath ><path d="M45.047 2.422h3v3h-3zm0 0"/></clipPath><clipPath id="AY"><path d="M30 6h2.785v2.53H30zm0 0"/></clipPath><clipPath id="AZ"><path d="M29.785 5.53h3v3h-3zm0 0"/></clipPath><clipPath id="Aa"><path d="M15 18h2.895v2.586H15zm0 0"/></clipPath><clipPath id="Ab"><path d="M14.895 17.586h3v3h-3zm0 0"/></clipPath><clipPath id="Ac"><path d="M8 38h2.984v2.953H8zm0 0"/></clipPath><clipPath id="Ad"><path d="M7.984 37.953h3v3h-3zm0 0"/></clipPath><clipPath id="Ae"><path d="M14 59h2.8v2.8H14zm0 0"/></clipPath><clipPath id="Af"><path d="M13.8 58.8h3v3h-3zm0 0"/></clipPath><clipPath id="Ag"><path d="M28.3 72H31v2.766h-2.7zm0 0"/></clipPath><clipPath id="Ah"><path d="M28.3 71.766h3v3h-3zm0 0"/></clipPath><clipPath id="Ai"><path d="M44 76h2.773v2.57H44zm0 0"/></clipPath><clipPath id="Aj"><path d="M43.773 75.57h3v3h-3zm0 0"/></clipPath><clipPath id="Ak"><path d="M56 74h2.75v2.824H56zm0 0"/></clipPath><clipPath id="Al"><path d="M55.75 73.824h3v3h-3zm0 0"/></clipPath><clipPath id="Am"><path d="M64 70.3h2V73h-2zm0 0"/></clipPath><clipPath id="An"><path d="M63.5 70.3h3v3h-3zm0 0"/></clipPath><clipPath id="Ao"><path d="M68 67.2h2.863V70H68zm0 0"/></clipPath><clipPath id="Ap"><path d="M67.863 67.2h3v3h-3zm0 0"/></clipPath><clipPath id="Aq"><path d="M70 66h2.75v2.52H70zm0 0"/></clipPath><clipPath id="Ar"><path d="M69.75 65.52h3v3h-3zm0 0"/></clipPath><clipPath id="As"><path d="M70 66h2.648v2.613H70zm0 0"/></clipPath><clipPath id="At"><path d="M69.648 65.613h3v3h-3zm0 0"/></clipPath><clipPath id="Au"><path d="M68 67.453h2.54V70H68zm0 0"/></clipPath><clipPath id="Av"><path d="M67.54 67.453h3v3h-3zm0 0"/></clipPath><clipPath id="Aw"><path d="M63 71h2.883v2.656H63zm0 0"/></clipPath><clipPath id="Ax"><path d="M62.883 70.656h3v3h-3zm0 0"/></clipPath><clipPath id="Ay"><path d="M55 74.133h2.746V77H55zm0 0"/></clipPath><clipPath id="Az"><path d="M54.746 74.133h3v3h-3zm0 0"/></clipPath><clipPath id="BA"><path d="M42.4 76H45v2.516h-2.6zm0 0"/></clipPath><clipPath id="BB"><path d="M42.4 75.516h3v3h-3zm0 0"/></clipPath><clipPath id="BC"><path d="M27 71h2.82v2.996H27zm0 0"/></clipPath><clipPath id="BD"><path d="M26.82 70.996h3v3h-3zm0 0"/></clipPath><clipPath id="BE"><path d="M13 57.23h2.84V60H13zm0 0"/></clipPath><clipPath id="BF"><path d="M12.84 57.23h3v3h-3zm0 0"/></clipPath><clipPath id="BG"><path d="M8.078 36.2H11V39H8.078zm0 0"/></clipPath><clipPath id="BH"><path d="M8.078 36.2h3v3h-3zm0 0"/></clipPath><clipPath id="BI"><path d="M16 16.383h2.8V19H16zm0 0"/></clipPath><clipPath id="BJ"><path d="M15.8 16.383h3v3h-3zm0 0"/></clipPath><clipPath id="BK"><path d="M31 5.066h2.883V8H31zm0 0"/></clipPath><clipPath id="BL"><path d="M30.883 5.066h3v3h-3zm0 0"/></clipPath><clipPath id="BM"><path d="M46 2.44h2.922V5H46zm0 0"/></clipPath><clipPath id="BN"><path d="M45.922 2.44h3v3h-3zm0 0"/></clipPath><clipPath id="BO"><path d="M57.188 5H60v2.668h-2.812zm0 0"/></clipPath><clipPath id="BP"><path d="M57.188 4.668h3v3h-3zm0 0"/></clipPath><clipPath id="BQ"><path d="M64.324 8.22H67V11h-2.676zm0 0"/></clipPath><clipPath id="BR"><path d="M64.324 8.22h3v3h-3zm0 0"/></clipPath><clipPath id="BS"><path d="M68.223 11.105H71V14h-2.777zm0 0"/></clipPath><clipPath id="BT"><path d="M68.223 11.105h3v3h-3zm0 0"/></clipPath><clipPath id="BU"><path d="M70 12.484h2.758V15H70zm0 0"/></clipPath><clipPath id="BV"><path d="M69.758 12.484h3v3h-3zm0 0"/></clipPath><clipPath id="BW"><path d="M69.316 12.074H72V15h-2.684zm0 0"/></clipPath><clipPath id="BX"><path d="M69.316 12.074h3v3h-3zm0 0"/></clipPath><clipPath id="BY"><path d="M67 10h2.797v2.957H67zm0 0"/></clipPath><clipPath id="BZ"><path d="M66.797 9.957h3v3h-3zm0 0"/></clipPath><clipPath id="Ba"><path d="M62 7h2.543v2.602H62zm0 0"/></clipPath><clipPath id="Bb"><path d="M61.543 6.602h3v3h-3zm0 0"/></clipPath><clipPath id="Bc"><path d="M53 3.328h2.668V6H53zm0 0"/></clipPath><clipPath id="Bd"><path d="M52.668 3.328h3v3h-3zm0 0"/></clipPath><clipPath id="Be"><path d="M40 3h2.605v2.754H40zm0 0"/></clipPath><clipPath id="Bf"><path d="M39.605 2.754h3v3h-3zm0 0"/></clipPath><clipPath id="Bg"><path d="M24 9h2.934v2.78H24zm0 0"/></clipPath><clipPath id="Bh"><path d="M23.934 8.78h3v3h-3zm0 0"/></clipPath><clipPath id="Bi"><path d="M11.164 24.05H14V27h-2.836zm0 0"/></clipPath><clipPath id="Bj"><path d="M11.164 24.05h3v3h-3zm0 0"/></clipPath><clipPath id="Bk"><path d="M9 45.4h2.535V48H9zm0 0"/></clipPath><clipPath id="Bl"><path d="M8.535 45.4h3v3h-3zm0 0"/></clipPath><clipPath id="Bm"><path d="M18 64.008h2.855V67H18zm0 0"/></clipPath><clipPath id="Bn"><path d="M17.855 64.008h3v3h-3zm0 0"/></clipPath><clipPath id="Bo"><path d="M33.215 74H36v2.777h-2.785zm0 0"/></clipPath><clipPath id="Bp"><path d="M33.215 73.777h3v3h-3zm0 0"/></clipPath><clipPath ><path d="M48 75.44h2.742V78H48zm0 0"/></clipPath><clipPath ><path d="M47.742 75.44h3v3h-3zm0 0"/></clipPath><clipPath id="Bs"><path d="M58.332 73H61v2.887h-2.668zm0 0"/></clipPath><clipPath id="Bt"><path d="M58.332 72.887h3v3h-3zm0 0"/></clipPath><clipPath id="Bu"><path d="M65 69.387h2.918V72H65zm0 0"/></clipPath><clipPath id="Bv"><path d="M64.918 69.387h3v3h-3zm0 0"/></clipPath><clipPath id="Bw"><path d="M68.414 67H71v2.727h-2.586zm0 0"/></clipPath><clipPath id="Bx"><path d="M68.414 66.727h3v3h-3zm0 0"/></clipPath><clipPath id="By"><path d="M70 66h2.6v2.652H70zm0 0"/></clipPath><clipPath id="Bz"><path d="M69.6 65.652h3v3h-3zm0 0"/></clipPath><clipPath id="CA"><path d="M69 66.363h2.828V69H69zm0 0"/></clipPath><clipPath id="CB"><path d="M68.828 66.363h3v3h-3zm0 0"/></clipPath><clipPath id="CC"><path d="M66 69h2.86v2.734H66zm0 0"/></clipPath><clipPath id="CD"><path d="M65.86 68.734h3v3h-3zm0 0"/></clipPath><clipPath id="CE"><path d="M60.008 72.156H63V75h-2.992zm0 0"/></clipPath><clipPath id="CF"><path d="M60.008 72.156h3v3h-3zm0 0"/></clipPath><clipPath id="CG"><path d="M50.344 75.117H53V78h-2.656zm0 0"/></clipPath><clipPath id="CH"><path d="M50.344 75.117h3v3h-3zm0 0"/></clipPath><clipPath id="CI"><path d="M37 75h2.605v2.707H37zm0 0"/></clipPath><clipPath id="CJ"><path d="M36.605 74.707h3v3h-3zm0 0"/></clipPath><clipPath id="CK"><path d="M21.055 67.035H24V70h-2.945zm0 0"/></clipPath><clipPath id="CL"><path d="M21.055 67.035h3v3h-3zm0 0"/></clipPath><clipPath id="CM"><path d="M10 50.305h2.762V53H10zm0 0"/></clipPath><clipPath id="CN"><path d="M9.762 50.305h3v3h-3zm0 0"/></clipPath><clipPath id="CO"><path d="M9.363 29.008H12V32H9.363zm0 0"/></clipPath><clipPath id="CP"><path d="M9.363 29.008h3v3h-3zm0 0"/></clipPath><clipPath id="CQ"><path d="M20.094 12H23v2.797h-2.906zm0 0"/></clipPath><clipPath id="CR"><path d="M20.094 11.797h3v3h-3zm0 0"/></clipPath><clipPath id="CS"><path d="M36 4h2.6v2.527H36zm0 0"/></clipPath><clipPath id="CT"><path d="M35.6 3.527h3v3h-3zm0 0"/></clipPath><clipPath id="CU"><path d="M50 3h2.563v2.762H50zm0 0"/></clipPath><clipPath id="CV"><path d="M49.563 2.762h3v3h-3zm0 0"/></clipPath><clipPath ><path d="M59.46 6H62v2.6h-2.54zm0 0"/></clipPath><clipPath ><path d="M59.46 5.6h3v3h-3zm0 0"/></clipPath><clipPath id="CY"><path d="M65.48 9H68v2.992h-2.52zm0 0"/></clipPath><clipPath id="CZ"><path d="M65.48 8.992h3v3h-3zm0 0"/></clipPath><clipPath id="Ca"><path d="M69 11.383h2.543V14H69zm0 0"/></clipPath><clipPath id="Cb"><path d="M68.543 11.383h3v3h-3zm0 0"/></clipPath><clipPath id="Cc"><path d="M69.383 12.133H72V15h-2.617zm0 0"/></clipPath><clipPath id="Cd"><path d="M69.383 12.133h3v3h-3zm0 0"/></clipPath><clipPath id="Ce"><path d="M68.22 11.102H71V14h-2.78zm0 0"/></clipPath><clipPath id="Cf"><path d="M68.22 11.102h3v3h-3zm0 0"/></clipPath><clipPath id="Cg"><path d="M65 8.492h2.742V11H65zm0 0"/></clipPath><clipPath id="Ch"><path d="M64.742 8.492h3v3h-3zm0 0"/></clipPath><clipPath id="Ci"><path d="M58.156 5.04H61V8h-2.844zm0 0"/></clipPath><clipPath id="Cj"><path d="M58.156 5.04h3v3h-3zm0 0"/></clipPath><clipPath id="Ck"><path d="M48 3h2.652v2.547H48zm0 0"/></clipPath><clipPath id="Cl"><path d="M47.652 2.547h3v3h-3zm0 0"/></clipPath><clipPath id="Cm"><path d="M33.328 4.18H36V7h-2.672zm0 0"/></clipPath><clipPath id="Cn"><path d="M33.328 4.18h3v3h-3zm0 0"/></clipPath><clipPath id="Co"><path d="M18.2 14H21v2.617h-2.8zm0 0"/></clipPath><clipPath id="Cp"><path d="M18.2 13.617h3v3h-3zm0 0"/></clipPath><clipPath id="Cq"><path d="M9 32h2.738v2.547H9zm0 0"/></clipPath><clipPath id="Cr"><path d="M8.738 31.547h3v3h-3zm0 0"/></clipPath><clipPath ><path d="M11 52.46h2.54V55H11zm0 0"/></clipPath><clipPath ><path d="M10.54 52.46h3v3h-3zm0 0"/></clipPath><clipPath ><path d="M22.453 68.152H25V71h-2.547zm0 0"/></clipPath><clipPath ><path d="M22.453 68.152h3v3h-3zm0 0"/></clipPath><clipPath ><path d="M38 75h2.863v2.965H38zm0 0"/></clipPath><clipPath ><path d="M37.863 74.965h3v3h-3zm0 0"/></clipPath><clipPath id="Cy"><path d="M51.148 75H54v2.98h-2.852zm0 0"/></clipPath><clipPath id="Cz"><path d="M51.148 74.98h3v3h-3zm0 0"/></clipPath><clipPath id="DA"><path d="M60.36 72H63v2.988h-2.64zm0 0"/></clipPath><clipPath id="DB"><path d="M60.36 71.988h3v3h-3zm0 0"/></clipPath><clipPath id="DC"><path d="M66 69h2.844v2.746H66zm0 0"/></clipPath><clipPath id="DD"><path d="M65.844 68.746h3v3h-3zm0 0"/></clipPath><clipPath id="DE"><path d="M69 67h2.504v2.648H69zm0 0"/></clipPath><clipPath id="DF"><path d="M68.504 66.648h3v3h-3zm0 0"/></clipPath><clipPath id="DG"><path d="M69 66.242h2.97V69H69zm0 0"/></clipPath><clipPath id="DH"><path d="M68.97 66.242h3v3h-3zm0 0"/></clipPath><clipPath id="DI"><path d="M67.355 68H70v2.605h-2.645zm0 0"/></clipPath><clipPath id="DJ"><path d="M67.355 67.605h3v3h-3zm0 0"/></clipPath><clipPath id="DK"><path d="M63.266 70.434H66V73h-2.734zm0 0"/></clipPath><clipPath id="DL"><path d="M63.266 70.434h3v3h-3zm0 0"/></clipPath><clipPath id="DM"><path d="M56 74h2.9v2.777H56zm0 0"/></clipPath><clipPath id="DN"><path d="M55.9 73.777h3v3h-3zm0 0"/></clipPath><clipPath id="DO"><path d="M45 76h2.504v2.578H45zm0 0"/></clipPath><clipPath id="DP"><path d="M44.504 75.578h3v3h-3zm0 0"/></clipPath><clipPath id="DQ"><path d="M30 72.465h2.777V75H30zm0 0"/></clipPath><clipPath id="DR"><path d="M29.777 72.465h3v3h-3zm0 0"/></clipPath><clipPath id="DS"><path d="M15.47 61.188H18V64h-2.53zm0 0"/></clipPath><clipPath id="DT"><path d="M15.47 61.188h3v3h-3zm0 0"/></clipPath><clipPath id="DU"><path d="M8.12 42.3H11V45H8.12zm0 0"/></clipPath><clipPath id="DV"><path d="M8.12 42.3h3v3h-3zm0 0"/></clipPath><clipPath id="DW"><path d="M12.098 22.117H15V25h-2.902zm0 0"/></clipPath><clipPath id="DX"><path d="M12.098 22.117h3v3h-3zm0 0"/></clipPath><clipPath id="DY"><path d="M25 8.094h2.98V11H25zm0 0"/></clipPath><clipPath id="DZ"><path d="M24.98 8.094h3v3h-3zm0 0"/></clipPath><clipPath id="Da"><path d="M40.18 3H43v2.68h-2.82zm0 0"/></clipPath><clipPath id="Db"><path d="M40.18 2.68h3v3h-3zm0 0"/></clipPath><clipPath id="Dc"><path d="M53 3.344h2.742V6H53zm0 0"/></clipPath><clipPath id="Dd"><path d="M52.742 3.344h3v3h-3zm0 0"/></clipPath><clipPath id="De"><path d="M61.258 6.453H64V9h-2.742zm0 0"/></clipPath><clipPath id="Df"><path d="M61.258 6.453h3v3h-3zm0 0"/></clipPath><clipPath id="Dg"><path d="M66.195 10H69v2.504h-2.805zm0 0"/></clipPath><clipPath id="Dh"><path d="M66.195 9.504h3v3h-3zm0 0"/></clipPath><clipPath id="Di"><path d="M68.4 11.266H71V14h-2.6zm0 0"/></clipPath><clipPath id="Dj"><path d="M68.4 11.266h3v3h-3zm0 0"/></clipPath><clipPath id="Dk"><path d="M68.465 11.316H71V14h-2.535zm0 0"/></clipPath><clipPath id="Dl"><path d="M68.465 11.316h3v3h-3zm0 0"/></clipPath><clipPath id="Dm"><path d="M66.363 10H69v2.63h-2.637zm0 0"/></clipPath><clipPath id="Dn"><path d="M66.363 9.63h3v3h-3zm0 0"/></clipPath><clipPath id="Do"><path d="M62 7h2.62v2.645H62zm0 0"/></clipPath><clipPath id="Dp"><path d="M61.62 6.645h3v3h-3zm0 0"/></clipPath><clipPath id="Dq"><path d="M53.398 4H56v2.504h-2.602zm0 0"/></clipPath><clipPath id="Dr"><path d="M53.398 3.504h3v3h-3zm0 0"/></clipPath><clipPath id="Ds"><path d="M41.223 3H44v2.57h-2.777zm0 0"/></clipPath><clipPath id="Dt"><path d="M41.223 2.57h3v3h-3zm0 0"/></clipPath><clipPath ><path d="M26.324 7.28H29V10h-2.676zm0 0"/></clipPath><clipPath ><path d="M26.324 7.28h3v3h-3zm0 0"/></clipPath><clipPath id="Dw"><path d="M13.156 20.223H16V23h-2.844zm0 0"/></clipPath><clipPath id="Dx"><path d="M13.156 20.223h3v3h-3zm0 0"/></clipPath><clipPath id="Dy"><path d="M8 40h2.977v2.656H8zm0 0"/></clipPath><clipPath id="Dz"><path d="M7.977 39.656h3v3h-3zm0 0"/></clipPath><clipPath id="EA"><path d="M14 59h2.832v2.86H14zm0 0"/></clipPath><clipPath id="EB"><path d="M13.832 58.86h3v3h-3zm0 0"/></clipPath><clipPath id="EC"><path d="M27.336 71.273H30V74h-2.664zm0 0"/></clipPath><clipPath id="ED"><path d="M27.336 71.273h3v3h-3zm0 0"/></clipPath><clipPath id="EE"><path d="M42.152 76H45v2h-2.848zm0 0"/></clipPath><clipPath id="EF"><path d="M42.152 75.5h3v3h-3zm0 0"/></clipPath><clipPath id="EG"><path d="M54.04 74.328H57V77h-2.96zm0 0"/></clipPath><clipPath id="EH"><path d="M54.04 74.328h3v3h-3zm0 0"/></clipPath><clipPath id="EI"><path d="M62 71.195h2.922V74H62zm0 0"/></clipPath><clipPath id="EJ"><path d="M61.922 71.195h3v3h-3zm0 0"/></clipPath><clipPath id="EK"><path d="M66.37 68.36H69V71h-2.63zm0 0"/></clipPath><clipPath id="EL"><path d="M66.37 68.36h3v3h-3zm0 0"/></clipPath><clipPath ><path d="M68.203 67H71v2.906h-2.797zm0 0"/></clipPath><clipPath ><path d="M68.203 66.906h3v3h-3zm0 0"/></clipPath><clipPath id="EO"><path d="M68 67.203h2.848V70H68zm0 0"/></clipPath><clipPath id="EP"><path d="M67.848 67.203h3v3h-3zm0 0"/></clipPath><clipPath id="EQ"><path d="M65.23 69.176H68V72h-2.77zm0 0"/></clipPath><clipPath id="ER"><path d="M65.23 69.176h3v3h-3zm0 0"/></clipPath><clipPath id="ES"><path d="M60 72.258h2.785V75H60zm0 0"/></clipPath><clipPath id="ET"><path d="M59.785 72.258h3v3h-3zm0 0"/></clipPath><clipPath id="EU"><path d="M51 75.055h2.73V78H51zm0 0"/></clipPath><clipPath id="EV"><path d="M50.73 75.055h3v3h-3zm0 0"/></clipPath><clipPath id="EW"><path d="M38 75h2.902v2.97H38zm0 0"/></clipPath><clipPath id="EX"><path d="M37.902 74.97h3v3h-3zm0 0"/></clipPath><clipPath id="EY"><path d="M23.168 69H26v2.676h-2.832zm0 0"/></clipPath><clipPath id="EZ"><path d="M23.168 68.676h3v3h-3zm0 0"/></clipPath><clipPath id="Ea"><path d="M11.344 54.34H14V57h-2.656zm0 0"/></clipPath><clipPath id="Eb"><path d="M11.344 54.34h3v3h-3zm0 0"/></clipPath><clipPath id="Ec"><path d="M8.223 35H11v2.727H8.223zm0 0"/></clipPath><clipPath id="Ed"><path d="M8.223 34.727h3v3h-3zm0 0"/></clipPath><clipPath id="Ee"><path d="M16 17h2.62v2.613H16zm0 0"/></clipPath><clipPath id="Ef"><path d="M15.62 16.613h3v3h-3zm0 0"/></clipPath><clipPath ><path d="M30 6h2.508v2.656H30zm0 0"/></clipPath><clipPath ><path d="M29.508 5.656h3v3h-3zm0 0"/></clipPath><clipPath id="Ei"><path d="M44 2.422h2.898V5H44zm0 0"/></clipPath><clipPath id="Ej"><path d="M43.898 2.422h3v3h-3zm0 0"/></clipPath><clipPath id="Ek"><path d="M55.105 4H58v2.973h-2.895zm0 0"/></clipPath><clipPath id="El"><path d="M55.105 3.973h3v3h-3zm0 0"/></clipPath><clipPath id="Em"><path d="M62.426 7.082H65V10h-2.574zm0 0"/></clipPath><clipPath id="En"><path d="M62.426 7.082h3v3h-3zm0 0"/></clipPath><clipPath id="Eo"><path d="M66.406 10H69v2.664h-2.594zm0 0"/></clipPath><clipPath id="Ep"><path d="M66.406 9.664h3v3h-3zm0 0"/></clipPath><clipPath ><path d="M68 11h2.848v2.793H68zm0 0"/></clipPath><clipPath ><path d="M67.848 10.793h3v3h-3zm0 0"/></clipPath><clipPath id="Es"><path d="M67.063 10.16H70V13h-2.937zm0 0"/></clipPath><clipPath id="Et"><path d="M67.063 10.16h3v3h-3zm0 0"/></clipPath><clipPath id="Eu"><path d="M64 8h2.887v2.945H64zm0 0"/></clipPath><clipPath id="Ev"><path d="M63.887 7.945h3v3h-3zm0 0"/></clipPath><clipPath id="Ew"><path d="M58 5h2.715v2.867H58zm0 0"/></clipPath><clipPath id="Ex"><path d="M57.715 4.867h3v3h-3zm0 0"/></clipPath><clipPath id="Ey"><path d="M48 3h2.87v2.566H48zm0 0"/></clipPath><clipPath id="Ez"><path d="M47.87 2.566h3v3h-3zm0 0"/></clipPath><clipPath id="FA"><path d="M35 4h2.55v2.813H35zm0 0"/></clipPath><clipPath id="FB"><path d="M34.55 3.813h3v3h-3zm0 0"/></clipPath><clipPath id="FC"><path d="M20.215 12H23v2.688h-2.785zm0 0"/></clipPath><clipPath id="FD"><path d="M20.215 11.688h3v3h-3zm0 0"/></clipPath><clipPath id="FE"><path d="M10 27.148h2.945V30H10zm0 0"/></clipPath><clipPath id="FF"><path d="M9.945 27.148h3v3h-3zm0 0"/></clipPath><clipPath id="FG"><path d="M9 47h2.78v2.656H9zm0 0"/></clipPath><clipPath id="FH"><path d="M8.78 46.656h3v3h-3zm0 0"/></clipPath><clipPath id="FI"><path d="M17.434 64H20v2.55h-2.566zm0 0"/></clipPath><clipPath id="FJ"><path d="M17.434 63.55h3v3h-3zm0 0"/></clipPath><clipPath ><path d="M69 67.16h1.957v2.414H69zm0 0"/></clipPath><clipPath ><path d="M68.543 67.16h2.414v2.414h-2.414zm0 0"/></clipPath><clipPath id="FM"><path d="M65 70.117h1.953v2.414H65zm0 0"/></clipPath><clipPath id="FN"><path d="M64.54 70.117h2.414v2.414H64.54zm0 0"/></clipPath><clipPath id="FO"><path d="M57.273 74h2.414v2h-2.414zm0 0"/></clipPath><clipPath ><path d="M57.273 73.695h2.414v2.418h-2.414zm0 0"/></clipPath><clipPath id="FQ"><path d="M45.84 75.86h2.414v2.414H45.84zm0 0"/></clipPath><clipPath id="FR"><path d="M30.598 72.984h2.414v2.414h-2.414zm0 0"/></clipPath><clipPath ><path d="M15.492 61.125h2.414v2.414h-2.414zm0 0"/></clipPath><clipPath ><path d="M8.293 41h2.414v2H8.293zm0 0"/></clipPath><clipPath id="FU"><path d="M8.293 40.7h2.414v2.414H8.293zm0 0"/></clipPath><clipPath id="FV"><path d="M14 19.625h2.414v2.414H14zm0 0"/></clipPath><clipPath id="FW"><path d="M29 7h1.98v1.945H29zm0 0"/></clipPath><clipPath ><path d="M28.566 6.53h2.414v2.414h-2.414zm0 0"/></clipPath><clipPath id="FY"><path d="M44.113 3h2.414v2h-2.414zm0 0"/></clipPath><clipPath id="FZ"><path d="M44.113 2.72h2.414v2.414h-2.414zm0 0"/></clipPath><clipPath id="Fa"><path d="M56.082 4.477H58V6.9h-1.918zm0 0"/></clipPath><clipPath id="Fb"><path d="M56.082 4.477h2.414V6.9h-2.414zm0 0"/></clipPath><clipPath id="Fc"><path d="M64 8.027h2V10h-2zm0 0"/></clipPath><clipPath id="Fd"><path d="M63.84 8.027h2.414v2.414H63.84zm0 0"/></clipPath><clipPath id="Fe"><path d="M68.207 11.14h2.414v2.414h-2.414zm0 0"/></clipPath><clipPath id="Ff"><path d="M70.094 13h2.414v2h-2.414zm0 0"/></clipPath><clipPath id="Fg"><path d="M70.094 12.82h2.414v2.414h-2.414zm0 0"/></clipPath><clipPath id="Fh"><path d="M69.996 12.727H72.4v2.414h-2.414zm0 0"/></clipPath><clipPath id="Fi"><path d="M67.9 10.898h2.414v2.414H67.9zm0 0"/></clipPath><clipPath id="Fj"><path d="M63.273 8h2.414v2h-2.414zm0 0"/></clipPath><clipPath id="Fk"><path d="M63.273 7.7h2.414v2.414h-2.414zm0 0"/></clipPath><clipPath ><path d="M55.16 4.195h2.414V6.6H55.16zm0 0"/></clipPath><clipPath id="Fm"><path d="M42.762 2.77h2.414v2.414h-2.414zm0 0"/></clipPath><clipPath id="Fn"><path d="M27.05 7.332H29v2.414h-1.95zm0 0"/></clipPath><clipPath id="Fo"><path d="M27.05 7.332h2.414v2.414H27.05zm0 0"/></clipPath><clipPath id="Fp"><path d="M13 21.363h2v2.414h-2zm0 0"/></clipPath><clipPath id="Fq"><path d="M12.96 21.363h2.414v2.414H12.96zm0 0"/></clipPath><clipPath ><path d="M8.434 43h2.414v2H8.434zm0 0"/></clipPath><clipPath id="Fs"><path d="M8.434 42.824h2.414v2.414H8.434zm0 0"/></clipPath><clipPath id="Ft"><path d="M16.746 62.715h2.414v2.414h-2.414zm0 0"/></clipPath><clipPath id="Fu"><path d="M32.176 74H34.6v2h-2.414zm0 0"/></clipPath><clipPath id="Fv"><path d="M32.176 73.6H34.6v2.414h-2.414zm0 0"/></clipPath><clipPath id="Fw"><path d="M47.148 76h2.414v2h-2.414zm0 0"/></clipPath><clipPath id="Fx"><path d="M47.148 75.8h2.414v2.414h-2.414zm0 0"/></clipPath><clipPath id="Fy"><path d="M58.176 73.355H60.6v2.418h-2.414zm0 0"/></clipPath><clipPath id="Fz"><path d="M65.1 70h2.414v2H65.1zm0 0"/></clipPath><clipPath id="GA"><path d="M65.1 69.762h2.414v2.414H65.1zm0 0"/></clipPath><clipPath id="GB"><path d="M68.84 66.906h2.414v2.414H68.84zm0 0"/></clipPath><clipPath id="GC"><path d="M70.27 66h2.414v2H70.27zm0 0"/></clipPath><clipPath id="GD"><path d="M70.27 65.594h2.414v2.414H70.27zm0 0"/></clipPath><clipPath id="GE"><path d="M70 66.066h2V68h-2zm0 0"/></clipPath><clipPath id="GF"><path d="M69.773 66.066h2.414v2.414h-2.414zm0 0"/></clipPath><clipPath id="GG"><path d="M67.203 68.246h2.414v2.414h-2.414zm0 0"/></clipPath><clipPath id="GH"><path d="M61.918 71.645h2.414v2.414h-2.414zm0 0"/></clipPath><clipPath id="GI"><path d="M52.94 74.965h2.414v2.414H52.94zm0 0"/></clipPath><clipPath id="GJ"><path d="M40 76h2v1.918h-2zm0 0"/></clipPath><clipPath id="GK"><path d="M39.676 75.504H42.1v2.414h-2.414zm0 0"/></clipPath><clipPath id="GL"><path d="M24 69.172h2v2.414h-2zm0 0"/></clipPath><clipPath id="GM"><path d="M23.742 69.172h2.414v2.414h-2.414zm0 0"/></clipPath><clipPath id="GN"><path d="M11 53.172h2v2.414h-2zm0 0"/></clipPath><clipPath id="GO"><path d="M11 53.172h2.414v2.414H11zm0 0"/></clipPath><clipPath id="GP"><path d="M9.176 31.176H11.6V33.6H9.176zm0 0"/></clipPath><clipPath id="GQ"><path d="M19.613 12.805h2.414v2.414h-2.414zm0 0"/></clipPath><clipPath id="GR"><path d="M35.457 4h2.414v2h-2.414zm0 0"/></clipPath><clipPath id="GS"><path d="M35.457 3.934h2.414v2.414h-2.414zm0 0"/></clipPath><clipPath id="GT"><path d="M50 3.043h2V5h-2zm0 0"/></clipPath><clipPath id="GU"><path d="M49.766 3.043h2.414v2.414h-2.414zm0 0"/></clipPath><path id="GV" d="M61.105 8.156a1 1 0 1 0 0-2 1 1 0 1 0 0 2zm0 0"/><path id="GW" d="M71.523 15.242a1 1 0 0 0 .707-.293c.188-.187.293-.445.293-.707s-.105-.52-.293-.7-.44-.3-.707-.3a.99.99 0 0 0-.707.29 1.01 1.01 0 0 0-.293.71c0 .265.105.52.293.707a1 1 0 0 0 .707.293zm0 0"/><path id="GX" d="M67.578 11.918c.266 0 .52-.102.707-.293a1 1 0 0 0 .293-.707c0-.262-.105-.52-.293-.707a1 1 0 0 0-1.414 0 1.01 1.01 0 0 0-.293.707 1 1 0 0 0 .293.707c.188.2.44.293.707.293zm0 0"/><path id="GY" d="M61.63 8.398a1 1 0 1 0 0-2c-.262 0-.52.105-.707.293a1 1 0 0 0 0 1.414c.188.188.445.293.707.293zm0 0"/><path id="GZ" d="M51.785 5.367a1 1 0 0 0 1-1c0-.262-.105-.52-.293-.707a1 1 0 0 0-1.414 0 1.01 1.01 0 0 0-.293.707 1 1 0 0 0 1 1zm0 0"/><path id="Ga" d="M16.395 20.086a1 1 0 0 0 .707-.293c.188-.187.293-.445.293-.707a1 1 0 1 0-2 0c0 .262.105.52.293.707a1 1 0 0 0 .707.293zm0 0"/><path id="Gb" d="M9.484 40.453c.266 0 .52-.105.71-.293s.29-.44.29-.707-.102-.52-.29-.707-.445-.293-.71-.293-.52.105-.707.293a1 1 0 0 0 0 1.414c.188.188.445.293.707.293zm0 0"/><path id="Gc" d="M57.25 76.324c.262 0 .52-.105.707-.293a1 1 0 0 0 0-1.414c-.187-.187-.445-.293-.707-.293a1 1 0 1 0 0 2zm0 0"/><path id="Gd" d="M71.11 68.152a1 1 0 0 0 .707-.293c.188-.187.293-.445.293-.707a1.01 1.01 0 0 0-.293-.711c-.187-.187-.44-.29-.707-.29s-.52.102-.707.29a1.01 1.01 0 0 0-.293.711c0 .262.105.52.293.707a1 1 0 0 0 .707.293zm0 0"/><path id="Ge" d="M67.344 71.246a1 1 0 0 0 .707-.293c.188-.187.293-.445.293-.707a1 1 0 0 0-1-1c-.262 0-.52.105-.707.293a1 1 0 0 0-.293.707c0 .262.105.52.293.707s.445.293.707.293zm0 0"/><path id="Gf" d="M70.004 69.148a1.01 1.01 0 0 0 .711-.293.99.99 0 0 0 .29-.707.99.99 0 0 0-.29-.707 1.01 1.01 0 0 0-.711-.293c-.262 0-.52.105-.707.293a1 1 0 0 0 0 1.414c.188.188.445.293.707.293zm0 0"/><path id="Gg" d="M9.62 44.8c.266 0 .52-.102.707-.3a1.01 1.01 0 0 0 .293-.711c0-.262-.105-.52-.293-.707a1 1 0 0 0-1.414 0 1.01 1.01 0 0 0 0 1.418c.188.188.44.3.707.3zm0 0"/><path id="Gh" d="M45.398 4.922a1 1 0 0 0 .707-.293c.19-.187.293-.44.293-.707s-.102-.52-.293-.707a1 1 0 0 0-.707-.293c-.262 0-.52.105-.707.293a1 1 0 0 0 0 1.414c.188.188.445.293.707.293zm0 0"/><path id="Gi" d="M65.746 72.03c.188 0 .367-.074.5-.207s.207-.312.207-.5-.074-.367-.207-.5-.312-.207-.5-.207-.367.074-.5.207-.207.313-.207.5.074.367.207.5.313.207.5.207zm0 0"/><path id="Gj" d="M45.32 4.633c.188 0 .367-.074.5-.207s.207-.312.207-.5-.078-.367-.207-.5-.312-.207-.5-.207a.7.7 0 0 0-.5.207c-.133.133-.207.313-.207.5s.074.367.207.5a.7.7 0 0 0 .5.207zm0 0"/><path id="Gk" d="M69.414 13.055a.7.7 0 0 0 .5-.207c.133-.133.207-.312.207-.5s-.074-.367-.207-.5a.7.7 0 0 0-.5-.207c-.188 0-.367.074-.5.207s-.207.313-.207.5.078.367.207.5.313.207.5.207zm0 0"/><path id="Gl" d="M66.297 71.676c.187 0 .367-.074.5-.207s.207-.312.207-.5-.074-.367-.207-.5-.312-.207-.5-.207-.367.074-.5.207-.207.313-.207.5.074.367.207.5.313.207.5.207zm0 0"/><path id="Gm" d="M50.973 4.957a.7.7 0 0 0 .5-.207c.133-.133.207-.312.207-.5s-.074-.367-.207-.5a.7.7 0 0 0-.5-.207c-.187 0-.367.074-.5.207s-.207.313-.207.5.078.367.207.5.313.207.5.207zm0 0"/></defs><path d="M139.456 136.69l-8.006 5.912-14.527 7.16-22.86 4.32-30.474-5.748-30.2-23.71L18.994 83.77l11.4-42.118 29.123-26.18L90.61 7.85l23.933 3.514 15.51 7.098 8.73 6.224 3.773 3.36-4.367-3.843-9.27-6.412-16.22-6.99-24.788-2.85-31.414 9.124-28.19 28.05-9.033 42.906 16.62 39.767 30.85 21.784 29.936 4.378 22.047-4.878 13.824-7.194 7.498-5.708 2.86-2.623-.992.945-5.138 4.36-10.567 6.794-17.948 6.638-26.524 1.08-31.856-12.658-25.476-31.99-3.647-43.98L41.63 28.02 73.31 10.285l28.61-1.78 20.26 5.8 12.356 7.108 8.474 7.058-7.888-6.646-11.896-7.038-19.682-6.058-28.115 1.024-31.786 16.415-22.117 35.534 1.75 44.046 24.372 33.3 31.9 13.963 27.085-.373 18.554-6.458 11.02-6.888 6.718-5.748-2.594 2.39-7.153 5.53-13.356 7.17-21.447 5.194-29.43-3.49-31.146-20.35-18.1-38.534L26.68 48.22l27.1-29.56 31.57-10.52 25.524 2.148 16.924 6.866 9.787 6.557 5.085 4.44-3.42-3.08-8.186-5.982-14.83-7.154L93.068 7.84l-30.514 6.218-29.77 24.102-13.796 40.72 11.582 41.66 28.99 25.946 30.958 7.607 23.947-3.49 15.493-7.07 8.723-6.194 3.773-3.343-4.42 3.867-9.31 6.404-16.27 6.952-24.702 2.765-31.13-9.037-27.955-27.525-9.52-42.027 15.44-39.64 30.156-22.627 30.07-5.248 22.525 4.452 14.27 7.098 7.794 5.772 3.07 2.76-5.918-5.052L126.05 16.2l-17.744-6.544L82.2 8.51 50.856 20.56 25.324 51.1l-5.258 42.666L38.7 130.978l30.7 19.534 29.045 3.327 21.193-5.108 13.168-6.998 7-5.318 2.39-2.148-1.56 1.42-5.938 4.738-11.7 6.842-19.322 5.918-27.467-.8-31.1-15.34-22.58-33.45-.796-42.58 21.453-34.41 31.022-16.535 27.898-1.532 19.765 5.654 12.037 6.802 7.8 6.278-9.277-7.277-13.168-6.904-21-4.983-28.64 3.245-30.227 18.868-18.94 35.85 3.598 41.815 23.82 31.37 30.8 13.62 26.562.032 18.414-5.982 10.964-6.482 6.248-5.006-3.225 2.725-8.197 5.654-14.745 6.686-22.767 3.6-29.445-6.224-28.61-22.547-14.64-37.742 7.95-40.367 25.758-28.043 30.39-10.825 25.118 1.328 17.026 6.218L135.35 22l4.54 3.625-4.203-3.373-9.48-5.966-16.44-6.278L85.42 8.14l-29.787 9.417L29.307 43.43 18.95 82.286l11.706 38.394 27 24.82 29.62 8.45 23.767-2.343 15.76-6.264 8.897-5.67 3.663-2.905-5.944 4.538-10.887 6.162-18.104 5.592-25.648-.172-29.46-12.582-23.642-28.662-6.238-39.214 14.79-36.214 27.763-21.9 28.77-6.465 22.407 3.1 14.635 6.218 7.958 5.162 2.88 2.26-1.57-1.265-6.35-4.43-12.34-6.154-19.68-4.6-26.632 2.492L43.4 26.37l-20.533 30.9-2.328 39.003 17.3 33.78" stroke-width=".5" stroke-linecap="square" stroke-opacity=".7" class="O P Q U"/><g transform="scale(1.999366)"><g clip-path="url(#A)" class="R"><use xlink:href="#GV"/></g><g clip-path="url(#B)" class="Q S O P"><use xlink:href="#GV"/></g><g clip-path="url(#C)" class="R"><path d="M67.285 11.7a1 1 0 1 0 0-2 1 1 0 1 0 0 2zm0 0"/></g><g clip-path="url(#D)" class="Q S O P"><path d="M67.285 11.7a1 1 0 1 0 0-2 1 1 0 1 0 0 2zm0 0"/></g><g clip-path="url(#E)" class="R"><path d="M70.504 14.3a1 1 0 1 0 0-2 1 1 0 1 0 0 2zm0 0"/></g><g clip-path="url(#F)" class="Q S O P"><path d="M70.504 14.3a1 1 0 1 0 0-2 1 1 0 1 0 0 2zm0 0"/></g><g clip-path="url(#G)" class="R"><use xlink:href="#GW"/></g><g clip-path="url(#H)" class="Q S O P"><use xlink:href="#GW"/></g><g clip-path="url(#I)" class="R"><path d="M70.637 14.4a1 1 0 1 0 0-2 1 1 0 1 0 0 2zm0 0"/></g><g clip-path="url(#J)" class="Q S O P"><path d="M70.637 14.4a1 1 0 1 0 0-2 1 1 0 1 0 0 2zm0 0"/></g><g clip-path="url(#K)" class="R"><use xlink:href="#GX"/></g><g clip-path="url(#L)" class="Q S O P"><use xlink:href="#GX"/></g><g clip-path="url(#M)" class="R"><use xlink:href="#GY"/></g><g clip-path="url(#N)" class="Q S O P"><use xlink:href="#GY"/></g><g clip-path="url(#O)" class="R"><use xlink:href="#GZ"/></g><g clip-path="url(#P)" class="Q S O P"><use xlink:href="#GZ"/></g><g clip-path="url(#Q)" class="R"><path d="M37.723 5.88a1 1 0 1 0 0-2c-.262 0-.52.105-.707.293a1 1 0 0 0 0 1.414c.188.188.445.293.707.293zm0 0"/></g><g clip-path="url(#R)" class="Q S O P"><path d="M37.723 5.88a1 1 0 1 0 0-2c-.262 0-.52.105-.707.293a1 1 0 0 0 0 1.414c.188.188.445.293.707.293zm0 0"/></g><g clip-path="url(#S)" class="R"><path d="M21.824 14.1a1 1 0 1 0 0-2 1 1 0 1 0 0 2zm0 0"/></g><g clip-path="url(#T)" class="Q S O P"><path d="M21.824 14.1a1 1 0 1 0 0-2 1 1 0 1 0 0 2zm0 0"/></g><g clip-path="url(#U)" class="R"><path d="M10.762 31.863a1 1 0 1 0 0-2 1 1 0 1 0 0 2zm0 0"/></g><g clip-path="url(#V)" class="Q S O P"><path d="M10.762 31.863a1 1 0 1 0 0-2 1 1 0 1 0 0 2zm0 0"/></g><g clip-path="url(#W)" class="R"><path d="M11.637 53.895a1 1 0 1 0 0-2 1 1 0 1 0 0 2zm0 0"/></g><g clip-path="url(#X)" class="Q S O P"><path d="M11.637 53.895a1 1 0 1 0 0-2 1 1 0 1 0 0 2zm0 0"/></g><g clip-path="url(#Y)" class="R"><path d="M23.828 70.555a1 1 0 1 0 0-2 1 1 0 1 0 0 2zm0 0"/></g><g clip-path="url(#Z)" class="Q S O P"><path d="M23.828 70.555a1 1 0 1 0 0-2 1 1 0 1 0 0 2zm0 0"/></g><g clip-path="url(#a)" class="R"><path d="M39.777 77.54a1 1 0 1 0 0-2 1 1 0 1 0 0 2zm0 0"/></g><g clip-path="url(#b)" class="Q S O P"><path d="M39.777 77.54a1 1 0 1 0 0-2 1 1 0 1 0 0 2zm0 0"/></g><g clip-path="url(#e)" class="R"><path d="M62.605 74.12a1 1 0 1 0 0-2 1 1 0 1 0 0 2zm0 0"/></g><g clip-path="url(#f)" class="Q S O P"><path d="M62.605 74.12a1 1 0 1 0 0-2 1 1 0 1 0 0 2zm0 0"/></g><g clip-path="url(#g)" class="R"><path d="M68.117 70.676a1 1 0 0 0 1-1c0-.262-.105-.52-.293-.707a1 1 0 0 0-1.414 0 1.01 1.01 0 0 0-.293.707 1 1 0 0 0 1 1zm0 0"/></g><g clip-path="url(#h)" class="Q S O P"><path d="M68.117 70.676a1 1 0 0 0 1-1c0-.262-.105-.52-.293-.707a1 1 0 0 0-1.414 0 1.01 1.01 0 0 0-.293.707 1 1 0 0 0 1 1zm0 0"/></g><g clip-path="url(#i)" class="R"><path d="M70.848 68.395a1 1 0 1 0 0-2 1 1 0 1 0 0 2zm0 0"/></g><g clip-path="url(#j)" class="Q S O P"><path d="M70.848 68.395a1 1 0 1 0 0-2 1 1 0 1 0 0 2zm0 0"/></g><g clip-path="url(#k)" class="R"><path d="M71.477 67.8a1 1 0 1 0 0-2 1 1 0 1 0 0 2zm0 0"/></g><g clip-path="url(#l)" class="Q S O P"><path d="M71.477 67.8a1 1 0 1 0 0-2 1 1 0 1 0 0 2zm0 0"/></g><g clip-path="url(#m)" class="R"><path d="M70.18 68.996a1 1 0 1 0 0-2 1 1 0 1 0 0 2zm0 0"/></g><g clip-path="url(#n)" class="Q S O P"><path d="M70.18 68.996a1 1 0 1 0 0-2 1 1 0 1 0 0 2zm0 0"/></g><g clip-path="url(#o)" class="R"><path d="M66.602 71.762a1 1 0 0 0 1-1c0-.262-.105-.52-.293-.707a1 1 0 0 0-1.414 0 1.01 1.01 0 0 0-.293.707 1 1 0 0 0 1 1zm0 0"/></g><g clip-path="url(#p)" class="Q S O P"><path d="M66.602 71.762a1 1 0 0 0 1-1c0-.262-.105-.52-.293-.707a1 1 0 0 0-1.414 0 1.01 1.01 0 0 0-.293.707 1 1 0 0 0 1 1zm0 0"/></g><g clip-path="url(#s)" class="R"><path d="M49.195 77.945a1 1 0 1 0 0-2 1 1 0 1 0 0 2zm0 0"/></g><g clip-path="url(#t)" class="Q S O P"><path d="M49.195 77.945a1 1 0 1 0 0-2 1 1 0 1 0 0 2zm0 0"/></g><g clip-path="url(#u)" class="R"><path d="M34.477 76.2a1 1 0 1 0 0-2 1 1 0 1 0 0 2zm0 0"/></g><g clip-path="url(#v)" class="Q S O P"><path d="M34.477 76.2a1 1 0 1 0 0-2 1 1 0 1 0 0 2zm0 0"/></g><g clip-path="url(#w)" class="R"><path d="M18.9 66.023a1 1 0 1 0 0-2 1 1 0 1 0 0 2zm0 0"/></g><g clip-path="url(#x)" class="Q S O P"><path d="M18.9 66.023a1 1 0 1 0 0-2 1 1 0 1 0 0 2zm0 0"/></g><g clip-path="url(#y)" class="R"><path d="M9.852 46.75a1 1 0 1 0 0-2 1 1 0 1 0 0 2zm0 0"/></g><g clip-path="url(#z)" class="Q S O P"><path d="M9.852 46.75a1 1 0 1 0 0-2 1 1 0 1 0 0 2zm0 0"/></g><g clip-path="url(#AA)" class="R"><path d="M13.344 25.117a1 1 0 1 0 0-2 1 1 0 1 0 0 2zm0 0"/></g><g clip-path="url(#AB)" class="Q S O P"><path d="M13.344 25.117a1 1 0 1 0 0-2 1 1 0 1 0 0 2zm0 0"/></g><g clip-path="url(#AC)" class="R"><path d="M26.898 10.332a1 1 0 1 0 0-2 1 1 0 1 0 0 2zm0 0"/></g><g clip-path="url(#AD)" class="Q S O P"><path d="M26.898 10.332a1 1 0 1 0 0-2 1 1 0 1 0 0 2zm0 0"/></g><g clip-path="url(#AG)" class="R"><path d="M55.453 6.145a1 1 0 1 0 0-2 1 1 0 1 0 0 2zm0 0"/></g><g clip-path="url(#AH)" class="Q S O P"><path d="M55.453 6.145a1 1 0 1 0 0-2 1 1 0 1 0 0 2zm0 0"/></g><g clip-path="url(#AI)" class="R"><path d="M63.918 9.578a1 1 0 1 0 0-2 1 1 0 1 0 0 2zm0 0"/></g><g clip-path="url(#AJ)" class="Q S O P"><path d="M63.918 9.578a1 1 0 1 0 0-2 1 1 0 1 0 0 2zm0 0"/></g><g clip-path="url(#AK)" class="R"><path d="M68.813 12.86a1 1 0 1 0 0-2 1 1 0 1 0 0 2zm0 0"/></g><g clip-path="url(#AL)" class="Q S O P"><path d="M68.813 12.86a1 1 0 1 0 0-2 1 1 0 1 0 0 2zm0 0"/></g><g clip-path="url(#AM)" class="R"><path d="M71.102 14.84a1 1 0 1 0 0-2 1 1 0 1 0 0 2zm0 0"/></g><g clip-path="url(#AN)" class="Q S O P"><path d="M71.102 14.84a1 1 0 1 0 0-2 1 1 0 1 0 0 2zm0 0"/></g><g clip-path="url(#AO)" class="R"><path d="M71.355 15.078a1 1 0 1 0 0-2 1 1 0 1 0 0 2zm0 0"/></g><g clip-path="url(#AP)" class="Q S O P"><path d="M71.355 15.078a1 1 0 1 0 0-2 1 1 0 1 0 0 2zm0 0"/></g><g clip-path="url(#AQ)" class="R"><path d="M69.645 13.54a1 1 0 0 0 1-1c0-.262-.105-.52-.293-.707a1 1 0 0 0-1.414 0 1.01 1.01 0 0 0-.293.707 1 1 0 0 0 1 1zm0 0"/></g><g clip-path="url(#AR)" class="Q S O P"><path d="M69.645 13.54a1 1 0 0 0 1-1c0-.262-.105-.52-.293-.707a1 1 0 0 0-1.414 0 1.01 1.01 0 0 0-.293.707 1 1 0 0 0 1 1zm0 0"/></g><g clip-path="url(#AS)" class="R"><path d="M65.55 10.547a1 1 0 1 0 0-2 1 1 0 1 0 0 2zm0 0"/></g><g clip-path="url(#AT)" class="Q S O P"><path d="M65.55 10.547a1 1 0 1 0 0-2 1 1 0 1 0 0 2zm0 0"/></g><g clip-path="url(#AY)" class="R"><path d="M31.285 8.03a1 1 0 1 0 0-2 1 1 0 1 0 0 2zm0 0"/></g><g clip-path="url(#AZ)" class="Q S O P"><path d="M31.285 8.03a1 1 0 1 0 0-2 1 1 0 1 0 0 2zm0 0"/></g><g clip-path="url(#Aa)" class="R"><use xlink:href="#Ga"/></g><g clip-path="url(#Ab)" class="Q S O P"><use xlink:href="#Ga"/></g><g clip-path="url(#Ac)" class="R"><use xlink:href="#Gb"/></g><g clip-path="url(#Ad)" class="Q S O P"><use xlink:href="#Gb"/></g><g clip-path="url(#Ae)" class="R"><path d="M15.3 61.3a1 1 0 0 0 1-1c0-.262-.105-.52-.293-.707a1 1 0 0 0-1.414 0 1.01 1.01 0 0 0-.293.707 1 1 0 0 0 1 1zm0 0"/></g><g clip-path="url(#Af)" class="Q S O P"><path d="M15.3 61.3a1 1 0 0 0 1-1c0-.262-.105-.52-.293-.707a1 1 0 0 0-1.414 0 1.01 1.01 0 0 0-.293.707 1 1 0 0 0 1 1zm0 0"/></g><g clip-path="url(#Ag)" class="R"><path d="M29.8 74.266a1 1 0 1 0 0-2 1 1 0 1 0 0 2zm0 0"/></g><g clip-path="url(#Ah)" class="Q S O P"><path d="M29.8 74.266a1 1 0 1 0 0-2 1 1 0 1 0 0 2zm0 0"/></g><g clip-path="url(#Ai)" class="R"><path d="M45.273 78.07a1 1 0 1 0 0-2 1 1 0 1 0 0 2zm0 0"/></g><g clip-path="url(#Aj)" class="Q S O P"><path d="M45.273 78.07a1 1 0 1 0 0-2 1 1 0 1 0 0 2zm0 0"/></g><g clip-path="url(#Ak)" class="R"><use xlink:href="#Gc"/></g><g clip-path="url(#Al)" class="Q S O P"><use xlink:href="#Gc"/></g><g clip-path="url(#Am)" class="R"><path d="M65 72.8a1 1 0 1 0 0-2 1 1 0 1 0 0 2zm0 0"/></g><g clip-path="url(#An)" class="Q S O P"><path d="M65 72.8a1 1 0 1 0 0-2 1 1 0 1 0 0 2zm0 0"/></g><g clip-path="url(#Ao)" class="R"><path d="M69.363 69.7a1 1 0 1 0 0-2 1 1 0 1 0 0 2zm0 0"/></g><g clip-path="url(#Ap)" class="Q S O P"><path d="M69.363 69.7a1 1 0 1 0 0-2 1 1 0 1 0 0 2zm0 0"/></g><g clip-path="url(#Aq)" class="R"><path d="M71.25 68.02c.262 0 .52-.105.707-.293a1 1 0 0 0 0-1.414c-.187-.187-.445-.293-.707-.293a1 1 0 1 0 0 2zm0 0"/></g><g clip-path="url(#Ar)" class="Q S O P"><path d="M71.25 68.02c.262 0 .52-.105.707-.293a1 1 0 0 0 0-1.414c-.187-.187-.445-.293-.707-.293a1 1 0 1 0 0 2zm0 0"/></g><g clip-path="url(#As)" class="R"><path d="M71.148 68.113a1 1 0 1 0 0-2 1 1 0 1 0 0 2zm0 0"/></g><g clip-path="url(#At)" class="Q S O P"><path d="M71.148 68.113a1 1 0 1 0 0-2 1 1 0 1 0 0 2zm0 0"/></g><g clip-path="url(#Au)" class="R"><path d="M69.04 69.953a1 1 0 0 0 1-1c0-.262-.105-.52-.293-.707a1 1 0 0 0-1.414 0 1.01 1.01 0 0 0-.293.707 1 1 0 0 0 1 1zm0 0"/></g><g clip-path="url(#Av)" class="Q S O P"><path d="M69.04 69.953a1 1 0 0 0 1-1c0-.262-.105-.52-.293-.707a1 1 0 0 0-1.414 0 1.01 1.01 0 0 0-.293.707 1 1 0 0 0 1 1zm0 0"/></g><g clip-path="url(#Aw)" class="R"><path d="M64.383 73.156a1 1 0 1 0 0-2 1 1 0 1 0 0 2zm0 0"/></g><g clip-path="url(#Ax)" class="Q S O P"><path d="M64.383 73.156a1 1 0 1 0 0-2 1 1 0 1 0 0 2zm0 0"/></g><g clip-path="url(#Ay)" class="R"><path d="M56.246 76.633a1 1 0 0 0 .707-.293c.188-.187.293-.445.293-.707a1 1 0 1 0-2 0c0 .262.105.52.293.707a1 1 0 0 0 .707.293zm0 0"/></g><g clip-path="url(#Az)" class="Q S O P"><path d="M56.246 76.633a1 1 0 0 0 .707-.293c.188-.187.293-.445.293-.707a1 1 0 1 0-2 0c0 .262.105.52.293.707a1 1 0 0 0 .707.293zm0 0"/></g><g clip-path="url(#BA)" class="R"><path d="M43.9 78.016a1 1 0 1 0 0-2 1 1 0 1 0 0 2zm0 0"/></g><g clip-path="url(#BB)" class="Q S O P"><path d="M43.9 78.016a1 1 0 1 0 0-2 1 1 0 1 0 0 2zm0 0"/></g><g clip-path="url(#BC)" class="R"><path d="M28.32 73.496a1 1 0 1 0 0-2 1 1 0 1 0 0 2zm0 0"/></g><g clip-path="url(#BD)" class="Q S O P"><path d="M28.32 73.496a1 1 0 1 0 0-2 1 1 0 1 0 0 2zm0 0"/></g><g clip-path="url(#BE)" class="R"><path d="M14.34 59.73a1 1 0 1 0 0-2 1 1 0 1 0 0 2zm0 0"/></g><g clip-path="url(#BF)" class="Q S O P"><path d="M14.34 59.73a1 1 0 1 0 0-2 1 1 0 1 0 0 2zm0 0"/></g><g clip-path="url(#BG)" class="R"><path d="M9.578 38.7a1 1 0 0 0 .707-.293c.188-.187.293-.445.293-.707a1 1 0 1 0-2 0c0 .262.105.52.293.707a1 1 0 0 0 .707.293zm0 0"/></g><g clip-path="url(#BH)" class="Q S O P"><path d="M9.578 38.7a1 1 0 0 0 .707-.293c.188-.187.293-.445.293-.707a1 1 0 1 0-2 0c0 .262.105.52.293.707a1 1 0 0 0 .707.293zm0 0"/></g><g clip-path="url(#BI)" class="R"><path d="M17.3 18.883a1 1 0 1 0 0-2 1 1 0 1 0 0 2zm0 0"/></g><g clip-path="url(#BJ)" class="Q S O P"><path d="M17.3 18.883a1 1 0 1 0 0-2 1 1 0 1 0 0 2zm0 0"/></g><g clip-path="url(#BK)" class="R"><path d="M32.383 7.566a1 1 0 1 0 0-2 1 1 0 1 0 0 2zm0 0"/></g><g clip-path="url(#BL)" class="Q S O P"><path d="M32.383 7.566a1 1 0 1 0 0-2 1 1 0 1 0 0 2zm0 0"/></g><g clip-path="url(#BM)" class="R"><path d="M47.422 4.94a1 1 0 1 0 0-2 1 1 0 1 0 0 2zm0 0"/></g><g clip-path="url(#BN)" class="Q S O P"><path d="M47.422 4.94a1 1 0 1 0 0-2 1 1 0 1 0 0 2zm0 0"/></g><g clip-path="url(#BO)" class="R"><path d="M58.688 7.168a1 1 0 1 0 0-2 1 1 0 1 0 0 2zm0 0"/></g><g clip-path="url(#BP)" class="Q S O P"><path d="M58.688 7.168a1 1 0 1 0 0-2 1 1 0 1 0 0 2zm0 0"/></g><g clip-path="url(#BQ)" class="R"><path d="M65.824 10.72c.262 0 .52-.105.707-.293a1 1 0 0 0 0-1.414c-.187-.187-.445-.293-.707-.293a1 1 0 1 0 0 2zm0 0"/></g><g clip-path="url(#BR)" class="Q S O P"><path d="M65.824 10.72c.262 0 .52-.105.707-.293a1 1 0 0 0 0-1.414c-.187-.187-.445-.293-.707-.293a1 1 0 1 0 0 2zm0 0"/></g><g clip-path="url(#BS)" class="R"><path d="M69.723 13.605c.262 0 .52-.105.707-.293a1 1 0 0 0 0-1.414c-.187-.187-.445-.293-.707-.293a1 1 0 1 0 0 2zm0 0"/></g><g clip-path="url(#BT)" class="Q S O P"><path d="M69.723 13.605c.262 0 .52-.105.707-.293a1 1 0 0 0 0-1.414c-.187-.187-.445-.293-.707-.293a1 1 0 1 0 0 2zm0 0"/></g><g clip-path="url(#BU)" class="R"><path d="M71.258 14.984a1 1 0 1 0 0-2 1 1 0 1 0 0 2zm0 0"/></g><g clip-path="url(#BV)" class="Q S O P"><path d="M71.258 14.984a1 1 0 1 0 0-2 1 1 0 1 0 0 2zm0 0"/></g><g clip-path="url(#BW)" class="R"><path d="M70.816 14.574a1 1 0 1 0 0-2 1 1 0 1 0 0 2zm0 0"/></g><g clip-path="url(#BX)" class="Q S O P"><path d="M70.816 14.574a1 1 0 1 0 0-2 1 1 0 1 0 0 2zm0 0"/></g><g clip-path="url(#BY)" class="R"><path d="M68.297 12.457a1 1 0 1 0 0-2 1 1 0 1 0 0 2zm0 0"/></g><g clip-path="url(#BZ)" class="Q S O P"><path d="M68.297 12.457a1 1 0 1 0 0-2 1 1 0 1 0 0 2zm0 0"/></g><g clip-path="url(#Ba)" class="R"><path d="M63.043 9.102a1 1 0 1 0 0-2 1 1 0 1 0 0 2zm0 0"/></g><g clip-path="url(#Bb)" class="Q S O P"><path d="M63.043 9.102a1 1 0 1 0 0-2 1 1 0 1 0 0 2zm0 0"/></g><g clip-path="url(#Bc)" class="R"><path d="M54.168 5.828a1 1 0 1 0 0-2c-.262 0-.52.105-.707.293a1 1 0 0 0 0 1.414c.188.188.445.293.707.293zm0 0"/></g><g clip-path="url(#Bd)" class="Q S O P"><path d="M54.168 5.828a1 1 0 1 0 0-2c-.262 0-.52.105-.707.293a1 1 0 0 0 0 1.414c.188.188.445.293.707.293zm0 0"/></g><g clip-path="url(#Be)" class="R"><path d="M41.105 5.254a1 1 0 1 0 0-2c-.262 0-.52.105-.707.293a1 1 0 0 0 0 1.414c.188.188.445.293.707.293zm0 0"/></g><g clip-path="url(#Bf)" class="Q S O P"><path d="M41.105 5.254a1 1 0 1 0 0-2c-.262 0-.52.105-.707.293a1 1 0 0 0 0 1.414c.188.188.445.293.707.293zm0 0"/></g><g clip-path="url(#Bg)" class="R"><path d="M25.434 11.28a1 1 0 1 0 0-2 1 1 0 1 0 0 2zm0 0"/></g><g clip-path="url(#Bh)" class="Q S O P"><path d="M25.434 11.28a1 1 0 1 0 0-2 1 1 0 1 0 0 2zm0 0"/></g><g clip-path="url(#Bi)" class="R"><path d="M12.664 26.55a1 1 0 1 0 0-2 1 1 0 1 0 0 2zm0 0"/></g><g clip-path="url(#Bj)" class="Q S O P"><path d="M12.664 26.55a1 1 0 1 0 0-2 1 1 0 1 0 0 2zm0 0"/></g><g clip-path="url(#Bk)" class="R"><path d="M10.035 47.9a1 1 0 0 0 .707-.293c.188-.187.293-.445.293-.707a1 1 0 1 0-2 0c0 .262.105.52.293.707a1 1 0 0 0 .707.293zm0 0"/></g><g clip-path="url(#Bl)" class="Q S O P"><path d="M10.035 47.9a1 1 0 0 0 .707-.293c.188-.187.293-.445.293-.707a1 1 0 1 0-2 0c0 .262.105.52.293.707a1 1 0 0 0 .707.293zm0 0"/></g><g clip-path="url(#Bm)" class="R"><path d="M19.355 66.508a1 1 0 1 0 0-2 1 1 0 1 0 0 2zm0 0"/></g><g clip-path="url(#Bn)" class="Q S O P"><path d="M19.355 66.508a1 1 0 1 0 0-2 1 1 0 1 0 0 2zm0 0"/></g><g clip-path="url(#Bo)" class="R"><path d="M34.715 76.277a1 1 0 1 0 0-2 1 1 0 1 0 0 2zm0 0"/></g><g clip-path="url(#Bp)" class="Q S O P"><path d="M34.715 76.277a1 1 0 1 0 0-2 1 1 0 1 0 0 2zm0 0"/></g><g clip-path="url(#Bs)" class="R"><path d="M59.832 75.387a1 1 0 0 0 .707-.293c.188-.187.293-.445.293-.707a1 1 0 1 0-2 0c0 .262.105.52.293.707a1 1 0 0 0 .707.293zm0 0"/></g><g clip-path="url(#Bt)" class="Q S O P"><path d="M59.832 75.387a1 1 0 0 0 .707-.293c.188-.187.293-.445.293-.707a1 1 0 1 0-2 0c0 .262.105.52.293.707a1 1 0 0 0 .707.293zm0 0"/></g><g clip-path="url(#Bu)" class="R"><path d="M66.418 71.887a1 1 0 1 0 0-2 1 1 0 1 0 0 2zm0 0"/></g><g clip-path="url(#Bv)" class="Q S O P"><path d="M66.418 71.887a1 1 0 1 0 0-2 1 1 0 1 0 0 2zm0 0"/></g><g clip-path="url(#Bw)" class="R"><path d="M69.914 69.227a1 1 0 1 0 0-2 1 1 0 1 0 0 2zm0 0"/></g><g clip-path="url(#Bx)" class="Q S O P"><path d="M69.914 69.227a1 1 0 1 0 0-2 1 1 0 1 0 0 2zm0 0"/></g><g clip-path="url(#By)" class="R"><use xlink:href="#Gd"/></g><g clip-path="url(#Bz)" class="Q S O P"><use xlink:href="#Gd"/></g><g clip-path="url(#CA)" class="R"><path d="M70.328 68.863a1 1 0 1 0 0-2 1 1 0 1 0 0 2zm0 0"/></g><g clip-path="url(#CB)" class="Q S O P"><path d="M70.328 68.863a1 1 0 1 0 0-2 1 1 0 1 0 0 2zm0 0"/></g><g clip-path="url(#CC)" class="R"><path d="M67.36 71.234a1 1 0 1 0 0-2 1 1 0 1 0 0 2zm0 0"/></g><g clip-path="url(#CD)" class="Q S O P"><path d="M67.36 71.234a1 1 0 1 0 0-2 1 1 0 1 0 0 2zm0 0"/></g><g clip-path="url(#CE)" class="R"><path d="M61.508 74.656a1 1 0 1 0 0-2 1 1 0 1 0 0 2zm0 0"/></g><g clip-path="url(#CF)" class="Q S O P"><path d="M61.508 74.656a1 1 0 1 0 0-2 1 1 0 1 0 0 2zm0 0"/></g><g clip-path="url(#CG)" class="R"><path d="M51.844 77.617a1 1 0 1 0 0-2 1 1 0 1 0 0 2zm0 0"/></g><g clip-path="url(#CH)" class="Q S O P"><path d="M51.844 77.617a1 1 0 1 0 0-2 1 1 0 1 0 0 2zm0 0"/></g><g clip-path="url(#CI)" class="R"><path d="M38.105 77.207a1 1 0 1 0 0-2 1 1 0 1 0 0 2zm0 0"/></g><g clip-path="url(#CJ)" class="Q S O P"><path d="M38.105 77.207a1 1 0 1 0 0-2 1 1 0 1 0 0 2zm0 0"/></g><g clip-path="url(#CK)" class="R"><path d="M22.555 69.535a1 1 0 1 0 0-2 1 1 0 1 0 0 2zm0 0"/></g><g clip-path="url(#CL)" class="Q S O P"><path d="M22.555 69.535a1 1 0 1 0 0-2 1 1 0 1 0 0 2zm0 0"/></g><g clip-path="url(#CM)" class="R"><path d="M11.262 52.805a1 1 0 1 0 0-2 1 1 0 1 0 0 2zm0 0"/></g><g clip-path="url(#CN)" class="Q S O P"><path d="M11.262 52.805a1 1 0 1 0 0-2 1 1 0 1 0 0 2zm0 0"/></g><g clip-path="url(#CO)" class="R"><path d="M10.863 31.508a1 1 0 1 0 0-2 1 1 0 1 0 0 2zm0 0"/></g><g clip-path="url(#CP)" class="Q S O P"><path d="M10.863 31.508a1 1 0 1 0 0-2 1 1 0 1 0 0 2zm0 0"/></g><g clip-path="url(#CQ)" class="R"><path d="M21.594 14.297a1 1 0 1 0 0-2 1 1 0 1 0 0 2zm0 0"/></g><g clip-path="url(#CR)" class="Q S O P"><path d="M21.594 14.297a1 1 0 1 0 0-2 1 1 0 1 0 0 2zm0 0"/></g><g clip-path="url(#CS)" class="R"><path d="M37.1 6.027a1 1 0 1 0 0-2 1 1 0 1 0 0 2zm0 0"/></g><g clip-path="url(#CT)" class="Q S O P"><path d="M37.1 6.027a1 1 0 1 0 0-2 1 1 0 1 0 0 2zm0 0"/></g><g clip-path="url(#CU)" class="R"><path d="M51.063 5.262a1 1 0 1 0 0-2 1 1 0 1 0 0 2zm0 0"/></g><g clip-path="url(#CV)" class="Q S O P"><path d="M51.063 5.262a1 1 0 1 0 0-2 1 1 0 1 0 0 2zm0 0"/></g><g clip-path="url(#CY)" class="R"><path d="M66.98 11.492a1 1 0 1 0 0-2 1 1 0 1 0 0 2zm0 0"/></g><g clip-path="url(#CZ)" class="Q S O P"><path d="M66.98 11.492a1 1 0 1 0 0-2 1 1 0 1 0 0 2zm0 0"/></g><g clip-path="url(#Ca)" class="R"><path d="M70.043 13.883c.266 0 .52-.105.71-.293s.29-.44.29-.707-.102-.52-.29-.707-.445-.293-.71-.293-.52.105-.707.293a1 1 0 0 0 0 1.414c.188.188.445.293.707.293zm0 0"/></g><g clip-path="url(#Cb)" class="Q S O P"><path d="M70.043 13.883c.266 0 .52-.105.71-.293s.29-.44.29-.707-.102-.52-.29-.707-.445-.293-.71-.293-.52.105-.707.293a1 1 0 0 0 0 1.414c.188.188.445.293.707.293zm0 0"/></g><g clip-path="url(#Cc)" class="R"><path d="M70.883 14.633a1 1 0 0 0 1-1c0-.262-.105-.52-.293-.707a1 1 0 0 0-1.414 0 1.01 1.01 0 0 0-.293.707 1 1 0 0 0 1 1zm0 0"/></g><g clip-path="url(#Cd)" class="Q S O P"><path d="M70.883 14.633a1 1 0 0 0 1-1c0-.262-.105-.52-.293-.707a1 1 0 0 0-1.414 0 1.01 1.01 0 0 0-.293.707 1 1 0 0 0 1 1zm0 0"/></g><g clip-path="url(#Ce)" class="R"><path d="M69.72 13.602c.262 0 .52-.105.707-.293a1 1 0 0 0 0-1.414c-.187-.187-.445-.293-.707-.293a1 1 0 1 0 0 2zm0 0"/></g><g clip-path="url(#Cf)" class="Q S O P"><path d="M69.72 13.602c.262 0 .52-.105.707-.293a1 1 0 0 0 0-1.414c-.187-.187-.445-.293-.707-.293a1 1 0 1 0 0 2zm0 0"/></g><g clip-path="url(#Cg)" class="R"><path d="M66.242 10.992c.262 0 .52-.105.707-.293a1 1 0 0 0 0-1.414c-.187-.187-.445-.293-.707-.293a1 1 0 1 0 0 2zm0 0"/></g><g clip-path="url(#Ch)" class="Q S O P"><path d="M66.242 10.992c.262 0 .52-.105.707-.293a1 1 0 0 0 0-1.414c-.187-.187-.445-.293-.707-.293a1 1 0 1 0 0 2zm0 0"/></g><g clip-path="url(#Ci)" class="R"><path d="M59.656 7.54c.266 0 .52-.102.707-.293a1 1 0 0 0 .293-.707c0-.262-.105-.52-.293-.707a1 1 0 0 0-1.414 0 1.01 1.01 0 0 0-.293.707 1 1 0 0 0 .293.707c.188.2.44.293.707.293zm0 0"/></g><g clip-path="url(#Cj)" class="Q S O P"><path d="M59.656 7.54c.266 0 .52-.102.707-.293a1 1 0 0 0 .293-.707c0-.262-.105-.52-.293-.707a1 1 0 0 0-1.414 0 1.01 1.01 0 0 0-.293.707 1 1 0 0 0 .293.707c.188.2.44.293.707.293zm0 0"/></g><g clip-path="url(#Ck)" class="R"><path d="M49.152 5.047c.262 0 .52-.105.707-.293a1 1 0 0 0 0-1.414c-.187-.187-.445-.293-.707-.293a1 1 0 1 0 0 2zm0 0"/></g><g clip-path="url(#Cl)" class="Q S O P"><path d="M49.152 5.047c.262 0 .52-.105.707-.293a1 1 0 0 0 0-1.414c-.187-.187-.445-.293-.707-.293a1 1 0 1 0 0 2zm0 0"/></g><g clip-path="url(#Cm)" class="R"><path d="M34.828 6.68a1 1 0 1 0 0-2c-.262 0-.52.105-.707.293a1 1 0 0 0 0 1.414c.188.188.445.293.707.293zm0 0"/></g><g clip-path="url(#Cn)" class="Q S O P"><path d="M34.828 6.68a1 1 0 1 0 0-2c-.262 0-.52.105-.707.293a1 1 0 0 0 0 1.414c.188.188.445.293.707.293zm0 0"/></g><g clip-path="url(#Co)" class="R"><path d="M19.7 16.117a1 1 0 1 0 0-2 1 1 0 1 0 0 2zm0 0"/></g><g clip-path="url(#Cp)" class="Q S O P"><path d="M19.7 16.117a1 1 0 1 0 0-2 1 1 0 1 0 0 2zm0 0"/></g><g clip-path="url(#Cq)" class="R"><path d="M10.238 34.047a1 1 0 1 0 0-2 1 1 0 1 0 0 2zm0 0"/></g><g clip-path="url(#Cr)" class="Q S O P"><path d="M10.238 34.047a1 1 0 1 0 0-2 1 1 0 1 0 0 2zm0 0"/></g><g clip-path="url(#Cy)" class="R"><path d="M52.648 77.48a1 1 0 1 0 0-2 1 1 0 1 0 0 2zm0 0"/></g><g clip-path="url(#Cz)" class="Q S O P"><path d="M52.648 77.48a1 1 0 1 0 0-2 1 1 0 1 0 0 2zm0 0"/></g><g clip-path="url(#DA)" class="R"><path d="M61.86 74.488a1 1 0 1 0 0-2 1 1 0 1 0 0 2zm0 0"/></g><g clip-path="url(#DB)" class="Q S O P"><path d="M61.86 74.488a1 1 0 1 0 0-2 1 1 0 1 0 0 2zm0 0"/></g><g clip-path="url(#DC)" class="R"><use xlink:href="#Ge"/></g><g clip-path="url(#DD)" class="Q S O P"><use xlink:href="#Ge"/></g><g clip-path="url(#DE)" class="R"><use xlink:href="#Gf"/></g><g clip-path="url(#DF)" class="Q S O P"><use xlink:href="#Gf"/></g><g clip-path="url(#DG)" class="R"><path d="M70.47 68.742a1 1 0 0 0 .707-.293c.188-.187.293-.445.293-.707a1 1 0 1 0-2 0c0 .262.105.52.293.707a1 1 0 0 0 .707.293zm0 0"/></g><g clip-path="url(#DH)" class="Q S O P"><path d="M70.47 68.742a1 1 0 0 0 .707-.293c.188-.187.293-.445.293-.707a1 1 0 1 0-2 0c0 .262.105.52.293.707a1 1 0 0 0 .707.293zm0 0"/></g><g clip-path="url(#DI)" class="R"><path d="M68.855 70.105a1 1 0 0 0 .707-.293c.188-.187.293-.445.293-.707a1 1 0 1 0-2 0c0 .262.105.52.293.707a1 1 0 0 0 .707.293zm0 0"/></g><g clip-path="url(#DJ)" class="Q S O P"><path d="M68.855 70.105a1 1 0 0 0 .707-.293c.188-.187.293-.445.293-.707a1 1 0 1 0-2 0c0 .262.105.52.293.707a1 1 0 0 0 .707.293zm0 0"/></g><g clip-path="url(#DK)" class="R"><path d="M64.766 72.934a1 1 0 1 0 0-2 1 1 0 1 0 0 2zm0 0"/></g><g clip-path="url(#DL)" class="Q S O P"><path d="M64.766 72.934a1 1 0 1 0 0-2 1 1 0 1 0 0 2zm0 0"/></g><g clip-path="url(#DM)" class="R"><path d="M57.4 76.277a1 1 0 1 0 0-2 1 1 0 1 0 0 2zm0 0"/></g><g clip-path="url(#DN)" class="Q S O P"><path d="M57.4 76.277a1 1 0 1 0 0-2 1 1 0 1 0 0 2zm0 0"/></g><g clip-path="url(#DO)" class="R"><path d="M46.004 78.078a1 1 0 0 0 1-1c0-.262-.105-.52-.293-.707a1 1 0 0 0-1.414 0 1.01 1.01 0 0 0-.293.707 1 1 0 0 0 1 1zm0 0"/></g><g clip-path="url(#DP)" class="Q S O P"><path d="M46.004 78.078a1 1 0 0 0 1-1c0-.262-.105-.52-.293-.707a1 1 0 0 0-1.414 0 1.01 1.01 0 0 0-.293.707 1 1 0 0 0 1 1zm0 0"/></g><g clip-path="url(#DQ)" class="R"><path d="M31.277 74.965a1 1 0 0 0 .707-.293c.188-.187.293-.445.293-.707a1 1 0 1 0-2 0c0 .262.105.52.293.707a1 1 0 0 0 .707.293zm0 0"/></g><g clip-path="url(#DR)" class="Q S O P"><path d="M31.277 74.965a1 1 0 0 0 .707-.293c.188-.187.293-.445.293-.707a1 1 0 1 0-2 0c0 .262.105.52.293.707a1 1 0 0 0 .707.293zm0 0"/></g><g clip-path="url(#DS)" class="R"><path d="M16.97 63.688a1 1 0 0 0 .707-.293c.188-.187.293-.445.293-.707a1 1 0 1 0-2 0c0 .262.105.52.293.707a1 1 0 0 0 .707.293zm0 0"/></g><g clip-path="url(#DT)" class="Q S O P"><path d="M16.97 63.688a1 1 0 0 0 .707-.293c.188-.187.293-.445.293-.707a1 1 0 1 0-2 0c0 .262.105.52.293.707a1 1 0 0 0 .707.293zm0 0"/></g><g clip-path="url(#DU)" class="R"><use xlink:href="#Gg"/></g><g clip-path="url(#DV)" class="Q S O P"><use xlink:href="#Gg"/></g><g clip-path="url(#DW)" class="R"><path d="M13.598 24.617a1 1 0 0 0 1-1c0-.262-.105-.52-.293-.707a1 1 0 0 0-1.414 0 1.01 1.01 0 0 0-.293.707 1 1 0 0 0 1 1zm0 0"/></g><g clip-path="url(#DX)" class="Q S O P"><path d="M13.598 24.617a1 1 0 0 0 1-1c0-.262-.105-.52-.293-.707a1 1 0 0 0-1.414 0 1.01 1.01 0 0 0-.293.707 1 1 0 0 0 1 1zm0 0"/></g><g clip-path="url(#DY)" class="R"><path d="M26.48 10.594a1 1 0 1 0 0-2 1 1 0 1 0 0 2zm0 0"/></g><g clip-path="url(#DZ)" class="Q S O P"><path d="M26.48 10.594a1 1 0 1 0 0-2 1 1 0 1 0 0 2zm0 0"/></g><g clip-path="url(#Da)" class="R"><path d="M41.68 5.18a1 1 0 1 0 0-2 1 1 0 1 0 0 2zm0 0"/></g><g clip-path="url(#Db)" class="Q S O P"><path d="M41.68 5.18a1 1 0 1 0 0-2 1 1 0 1 0 0 2zm0 0"/></g><g clip-path="url(#Dc)" class="R"><path d="M54.242 5.844a1 1 0 1 0 0-2 1 1 0 1 0 0 2zm0 0"/></g><g clip-path="url(#Dd)" class="Q S O P"><path d="M54.242 5.844a1 1 0 1 0 0-2 1 1 0 1 0 0 2zm0 0"/></g><g clip-path="url(#De)" class="R"><path d="M62.758 8.953a1 1 0 1 0 0-2 1 1 0 1 0 0 2zm0 0"/></g><g clip-path="url(#Df)" class="Q S O P"><path d="M62.758 8.953a1 1 0 1 0 0-2 1 1 0 1 0 0 2zm0 0"/></g><g clip-path="url(#Dg)" class="R"><path d="M67.695 12.004a1 1 0 1 0 0-2 1 1 0 1 0 0 2zm0 0"/></g><g clip-path="url(#Dh)" class="Q S O P"><path d="M67.695 12.004a1 1 0 1 0 0-2 1 1 0 1 0 0 2zm0 0"/></g><g clip-path="url(#Di)" class="R"><path d="M69.9 13.766a1 1 0 1 0 0-2 1 1 0 1 0 0 2zm0 0"/></g><g clip-path="url(#Dj)" class="Q S O P"><path d="M69.9 13.766a1 1 0 1 0 0-2 1 1 0 1 0 0 2zm0 0"/></g><g clip-path="url(#Dk)" class="R"><path d="M69.965 13.816a1 1 0 0 0 .707-.293c.188-.187.293-.445.293-.707a1 1 0 1 0-2 0c0 .262.105.52.293.707a1 1 0 0 0 .707.293zm0 0"/></g><g clip-path="url(#Dl)" class="Q S O P"><path d="M69.965 13.816a1 1 0 0 0 .707-.293c.188-.187.293-.445.293-.707a1 1 0 1 0-2 0c0 .262.105.52.293.707a1 1 0 0 0 .707.293zm0 0"/></g><g clip-path="url(#Dm)" class="R"><path d="M67.863 12.13a1 1 0 1 0 0-2 1 1 0 1 0 0 2zm0 0"/></g><g clip-path="url(#Dn)" class="Q S O P"><path d="M67.863 12.13a1 1 0 1 0 0-2 1 1 0 1 0 0 2zm0 0"/></g><g clip-path="url(#Do)" class="R"><path d="M63.12 9.145a1 1 0 1 0 0-2c-.262 0-.52.105-.707.293a1 1 0 0 0 0 1.414c.188.188.445.293.707.293zm0 0"/></g><g clip-path="url(#Dp)" class="Q S O P"><path d="M63.12 9.145a1 1 0 1 0 0-2c-.262 0-.52.105-.707.293a1 1 0 0 0 0 1.414c.188.188.445.293.707.293zm0 0"/></g><g clip-path="url(#Dq)" class="R"><path d="M54.898 6.004a1 1 0 1 0 0-2 1 1 0 1 0 0 2zm0 0"/></g><g clip-path="url(#Dr)" class="Q S O P"><path d="M54.898 6.004a1 1 0 1 0 0-2 1 1 0 1 0 0 2zm0 0"/></g><g clip-path="url(#Ds)" class="R"><path d="M42.723 5.07a1 1 0 0 0 .707-.293c.188-.187.293-.445.293-.707a1 1 0 1 0-2 0c0 .262.105.52.293.707a1 1 0 0 0 .707.293zm0 0"/></g><g clip-path="url(#Dt)" class="Q S O P"><path d="M42.723 5.07a1 1 0 0 0 .707-.293c.188-.187.293-.445.293-.707a1 1 0 1 0-2 0c0 .262.105.52.293.707a1 1 0 0 0 .707.293zm0 0"/></g><g clip-path="url(#Dw)" class="R"><path d="M14.656 22.723a1 1 0 1 0 0-2 1 1 0 1 0 0 2zm0 0"/></g><g clip-path="url(#Dx)" class="Q S O P"><path d="M14.656 22.723a1 1 0 1 0 0-2 1 1 0 1 0 0 2zm0 0"/></g><g clip-path="url(#Dy)" class="R"><path d="M9.477 42.156a1 1 0 1 0 0-2 1 1 0 1 0 0 2zm0 0"/></g><g clip-path="url(#Dz)" class="Q S O P"><path d="M9.477 42.156a1 1 0 1 0 0-2 1 1 0 1 0 0 2zm0 0"/></g><g clip-path="url(#EA)" class="R"><path d="M15.332 61.36a1 1 0 1 0 0-2 1 1 0 1 0 0 2zm0 0"/></g><g clip-path="url(#EB)" class="Q S O P"><path d="M15.332 61.36a1 1 0 1 0 0-2 1 1 0 1 0 0 2zm0 0"/></g><g clip-path="url(#EC)" class="R"><path d="M28.836 73.773a1 1 0 1 0 0-2 1 1 0 1 0 0 2zm0 0"/></g><g clip-path="url(#ED)" class="Q S O P"><path d="M28.836 73.773a1 1 0 1 0 0-2 1 1 0 1 0 0 2zm0 0"/></g><g clip-path="url(#EE)" class="R"><path d="M43.652 78a1 1 0 1 0 0-2c-.262 0-.52.105-.707.293a1 1 0 0 0 0 1.414c.188.188.445.293.707.293zm0 0"/></g><g clip-path="url(#EF)" class="Q S O P"><path d="M43.652 78a1 1 0 1 0 0-2c-.262 0-.52.105-.707.293a1 1 0 0 0 0 1.414c.188.188.445.293.707.293zm0 0"/></g><g clip-path="url(#EG)" class="R"><path d="M55.54 76.828a1 1 0 1 0 0-2 1 1 0 1 0 0 2zm0 0"/></g><g clip-path="url(#EH)" class="Q S O P"><path d="M55.54 76.828a1 1 0 1 0 0-2 1 1 0 1 0 0 2zm0 0"/></g><g clip-path="url(#EI)" class="R"><path d="M63.422 73.695c.262 0 .52-.105.707-.293a1 1 0 0 0 0-1.414c-.187-.187-.445-.293-.707-.293a1 1 0 1 0 0 2zm0 0"/></g><g clip-path="url(#EJ)" class="Q S O P"><path d="M63.422 73.695c.262 0 .52-.105.707-.293a1 1 0 0 0 0-1.414c-.187-.187-.445-.293-.707-.293a1 1 0 1 0 0 2zm0 0"/></g><g clip-path="url(#EK)" class="R"><path d="M67.87 70.86a1 1 0 1 0 0-2 1 1 0 1 0 0 2zm0 0"/></g><g clip-path="url(#EL)" class="Q S O P"><path d="M67.87 70.86a1 1 0 1 0 0-2 1 1 0 1 0 0 2zm0 0"/></g><g clip-path="url(#EO)" class="R"><path d="M69.348 69.703a1 1 0 1 0 0-2 1 1 0 1 0 0 2zm0 0"/></g><g clip-path="url(#EP)" class="Q S O P"><path d="M69.348 69.703a1 1 0 1 0 0-2 1 1 0 1 0 0 2zm0 0"/></g><g clip-path="url(#EQ)" class="R"><path d="M66.73 71.676a1 1 0 1 0 0-2 1 1 0 1 0 0 2zm0 0"/></g><g clip-path="url(#ER)" class="Q S O P"><path d="M66.73 71.676a1 1 0 1 0 0-2 1 1 0 1 0 0 2zm0 0"/></g><g clip-path="url(#ES)" class="R"><path d="M61.285 74.758a1.01 1.01 0 0 0 .711-.293.99.99 0 0 0 .29-.707.99.99 0 0 0-.29-.707 1.01 1.01 0 0 0-.711-.293c-.262 0-.52.105-.707.293a1 1 0 0 0 0 1.414c.188.188.445.293.707.293zm0 0"/></g><g clip-path="url(#ET)" class="Q S O P"><path d="M61.285 74.758a1.01 1.01 0 0 0 .711-.293.99.99 0 0 0 .29-.707.99.99 0 0 0-.29-.707 1.01 1.01 0 0 0-.711-.293c-.262 0-.52.105-.707.293a1 1 0 0 0 0 1.414c.188.188.445.293.707.293zm0 0"/></g><g clip-path="url(#EU)" class="R"><path d="M52.23 77.555a1 1 0 1 0 0-2c-.262 0-.52.105-.707.293a1 1 0 0 0 0 1.414c.188.188.445.293.707.293zm0 0"/></g><g clip-path="url(#EV)" class="Q S O P"><path d="M52.23 77.555a1 1 0 1 0 0-2c-.262 0-.52.105-.707.293a1 1 0 0 0 0 1.414c.188.188.445.293.707.293zm0 0"/></g><g clip-path="url(#EW)" class="R"><path d="M39.402 77.47a1 1 0 1 0 0-2 1 1 0 1 0 0 2zm0 0"/></g><g clip-path="url(#EX)" class="Q S O P"><path d="M39.402 77.47a1 1 0 1 0 0-2 1 1 0 1 0 0 2zm0 0"/></g><g clip-path="url(#EY)" class="R"><path d="M24.668 71.176a1 1 0 0 0 1-1c0-.262-.105-.52-.293-.707a1 1 0 0 0-1.414 0 1.01 1.01 0 0 0-.293.707 1 1 0 0 0 1 1zm0 0"/></g><g clip-path="url(#EZ)" class="Q S O P"><path d="M24.668 71.176a1 1 0 0 0 1-1c0-.262-.105-.52-.293-.707a1 1 0 0 0-1.414 0 1.01 1.01 0 0 0-.293.707 1 1 0 0 0 1 1zm0 0"/></g><g clip-path="url(#Ea)" class="R"><path d="M12.844 56.84a1 1 0 1 0 0-2 1 1 0 1 0 0 2zm0 0"/></g><g clip-path="url(#Eb)" class="Q S O P"><path d="M12.844 56.84a1 1 0 1 0 0-2 1 1 0 1 0 0 2zm0 0"/></g><g clip-path="url(#Ec)" class="R"><path d="M9.723 37.227a1 1 0 1 0 0-2 1 1 0 1 0 0 2zm0 0"/></g><g clip-path="url(#Ed)" class="Q S O P"><path d="M9.723 37.227a1 1 0 1 0 0-2 1 1 0 1 0 0 2zm0 0"/></g><g clip-path="url(#Ee)" class="R"><path d="M17.12 19.113a1 1 0 1 0 0-2 1 1 0 1 0 0 2zm0 0"/></g><g clip-path="url(#Ef)" class="Q S O P"><path d="M17.12 19.113a1 1 0 1 0 0-2 1 1 0 1 0 0 2zm0 0"/></g><g clip-path="url(#Ei)" class="R"><use xlink:href="#Gh"/></g><g clip-path="url(#Ej)" class="Q S O P"><use xlink:href="#Gh"/></g><g clip-path="url(#Ek)" class="R"><path d="M56.605 6.473a1 1 0 1 0 0-2 1 1 0 1 0 0 2zm0 0"/></g><g clip-path="url(#El)" class="Q S O P"><path d="M56.605 6.473a1 1 0 1 0 0-2 1 1 0 1 0 0 2zm0 0"/></g><g clip-path="url(#Em)" class="R"><path d="M63.926 9.582a1 1 0 0 0 .707-.293c.188-.187.293-.445.293-.707a1 1 0 1 0-2 0c0 .262.105.52.293.707a1 1 0 0 0 .707.293zm0 0"/></g><g clip-path="url(#En)" class="Q S O P"><path d="M63.926 9.582a1 1 0 0 0 .707-.293c.188-.187.293-.445.293-.707a1 1 0 1 0-2 0c0 .262.105.52.293.707a1 1 0 0 0 .707.293zm0 0"/></g><g clip-path="url(#Eo)" class="R"><path d="M67.906 12.164a1 1 0 1 0 0-2 1 1 0 1 0 0 2zm0 0"/></g><g clip-path="url(#Ep)" class="Q S O P"><path d="M67.906 12.164a1 1 0 1 0 0-2 1 1 0 1 0 0 2zm0 0"/></g><g clip-path="url(#Es)" class="R"><path d="M68.563 12.66a1 1 0 1 0 0-2 1 1 0 1 0 0 2zm0 0"/></g><g clip-path="url(#Et)" class="Q S O P"><path d="M68.563 12.66a1 1 0 1 0 0-2 1 1 0 1 0 0 2zm0 0"/></g><g clip-path="url(#Eu)" class="R"><path d="M65.387 10.445a1 1 0 1 0 0-2c-.262 0-.52.105-.707.293a1 1 0 0 0 0 1.414c.188.188.445.293.707.293zm0 0"/></g><g clip-path="url(#Ev)" class="Q S O P"><path d="M65.387 10.445a1 1 0 1 0 0-2c-.262 0-.52.105-.707.293a1 1 0 0 0 0 1.414c.188.188.445.293.707.293zm0 0"/></g><g clip-path="url(#Ew)" class="R"><path d="M59.215 7.367a1 1 0 1 0 0-2 1 1 0 1 0 0 2zm0 0"/></g><g clip-path="url(#Ex)" class="Q S O P"><path d="M59.215 7.367a1 1 0 1 0 0-2 1 1 0 1 0 0 2zm0 0"/></g><g clip-path="url(#Ey)" class="R"><path d="M49.37 5.066c.262 0 .52-.105.707-.293a1 1 0 0 0 0-1.414c-.187-.187-.445-.293-.707-.293a1 1 0 1 0 0 2zm0 0"/></g><g clip-path="url(#Ez)" class="Q S O P"><path d="M49.37 5.066c.262 0 .52-.105.707-.293a1 1 0 0 0 0-1.414c-.187-.187-.445-.293-.707-.293a1 1 0 1 0 0 2zm0 0"/></g><g clip-path="url(#FA)" class="R"><path d="M36.05 6.313a1 1 0 0 0 .707-.293c.188-.187.293-.445.293-.707a1.01 1.01 0 0 0-.293-.711c-.187-.187-.44-.29-.707-.29s-.52.102-.707.29a1.01 1.01 0 0 0-.293.711c0 .262.105.52.293.707a1 1 0 0 0 .707.293zm0 0"/></g><g clip-path="url(#FB)" class="Q S O P"><path d="M36.05 6.313a1 1 0 0 0 .707-.293c.188-.187.293-.445.293-.707a1.01 1.01 0 0 0-.293-.711c-.187-.187-.44-.29-.707-.29s-.52.102-.707.29a1.01 1.01 0 0 0-.293.711c0 .262.105.52.293.707a1 1 0 0 0 .707.293zm0 0"/></g><g clip-path="url(#FC)" class="R"><path d="M21.715 14.188a1 1 0 1 0 0-2 1 1 0 1 0 0 2zm0 0"/></g><g clip-path="url(#FD)" class="Q S O P"><path d="M21.715 14.188a1 1 0 1 0 0-2 1 1 0 1 0 0 2zm0 0"/></g><g clip-path="url(#FE)" class="R"><path d="M11.445 29.648c.262 0 .52-.105.707-.293a1 1 0 0 0 0-1.414c-.187-.187-.445-.293-.707-.293a1 1 0 1 0 0 2zm0 0"/></g><g clip-path="url(#FF)" class="Q S O P"><path d="M11.445 29.648c.262 0 .52-.105.707-.293a1 1 0 0 0 0-1.414c-.187-.187-.445-.293-.707-.293a1 1 0 1 0 0 2zm0 0"/></g><g clip-path="url(#FG)" class="R"><path d="M10.28 49.156a1 1 0 1 0 0-2 1 1 0 1 0 0 2zm0 0"/></g><g clip-path="url(#FH)" class="Q S O P"><path d="M10.28 49.156a1 1 0 1 0 0-2 1 1 0 1 0 0 2zm0 0"/></g><g clip-path="url(#FI)" class="R"><path d="M18.934 66.05a1 1 0 0 0 .707-.293c.188-.187.293-.445.293-.707a1 1 0 1 0-2 0c0 .262.105.52.293.707a1 1 0 0 0 .707.293zm0 0"/></g><g clip-path="url(#FJ)" class="Q S O P"><path d="M18.934 66.05a1 1 0 0 0 .707-.293c.188-.187.293-.445.293-.707a1 1 0 1 0-2 0c0 .262.105.52.293.707a1 1 0 0 0 .707.293zm0 0"/></g><g clip-path="url(#FM)" class="T"><use xlink:href="#Gi"/></g><g clip-path="url(#FN)" class="Q U O P"><use xlink:href="#Gi"/></g><g clip-path="url(#FO)" class="T"><path d="M58.48 75.613c.188 0 .367-.078.5-.207s.207-.312.207-.5a.7.7 0 0 0-.207-.5.71.71 0 0 0-.5-.211.71.71 0 0 0-.5.211.7.7 0 0 0-.207.5c0 .188.074.367.207.5s.313.207.5.207zm0 0"/></g><g class="Q U O P"><g clip-path="url(#FQ)"><path d="M47.047 77.773c.188 0 .367-.074.5-.207s.207-.312.207-.5-.074-.367-.207-.5-.312-.207-.5-.207-.367.074-.5.207-.207.313-.207.5.074.367.207.5.313.207.5.207zm0 0"/></g><g clip-path="url(#FR)"><path d="M31.805 74.898c.188 0 .367-.074.5-.207s.207-.312.207-.5-.074-.367-.207-.5-.312-.207-.5-.207-.367.074-.5.207-.207.313-.207.5.074.367.207.5.313.207.5.207zm0 0"/></g><g clip-path="url(#FU)"><path d="M9.5 42.605c.187 0 .367-.074.5-.207s.207-.312.207-.5-.078-.367-.207-.5-.312-.207-.5-.207a.7.7 0 0 0-.5.207c-.133.133-.207.313-.207.5s.074.367.207.5a.7.7 0 0 0 .5.207zm0 0"/></g><g clip-path="url(#FV)"><path d="M15.207 21.54c.188 0 .367-.074.5-.207s.207-.312.207-.5-.074-.367-.207-.5-.312-.207-.5-.207-.367.074-.5.207-.207.313-.207.5.074.367.207.5.313.207.5.207zm0 0"/></g></g><g class="T"><g clip-path="url(#FW)"><path d="M29.773 8.445c.188 0 .367-.074.5-.207s.207-.313.207-.5-.074-.367-.207-.5-.312-.207-.5-.207-.367.074-.5.207-.207.313-.207.5.074.367.207.5.313.207.5.207zm0 0"/></g><g clip-path="url(#FY)"><use xlink:href="#Gj"/></g></g><g clip-path="url(#FZ)" class="Q U O P"><use xlink:href="#Gj"/></g><g clip-path="url(#Fa)" class="T"><path d="M57.3 6.4c.188 0 .367-.074.5-.207s.207-.312.207-.5-.074-.367-.207-.5-.312-.207-.5-.207-.367.074-.5.207-.207.313-.207.5.074.367.207.5.313.207.5.207zm0 0"/></g><g clip-path="url(#Fb)" class="Q U O P"><path d="M57.3 6.4c.188 0 .367-.074.5-.207s.207-.312.207-.5-.074-.367-.207-.5-.312-.207-.5-.207-.367.074-.5.207-.207.313-.207.5.074.367.207.5.313.207.5.207zm0 0"/></g><g clip-path="url(#Fc)" class="T"><path d="M65.047 9.94c.188 0 .367-.074.5-.207s.207-.312.207-.5-.074-.367-.207-.5-.312-.207-.5-.207-.367.074-.5.207-.207.313-.207.5.074.367.207.5.313.207.5.207zm0 0"/></g><g class="U O P"><g clip-path="url(#Fd)" class="Q"><path d="M65.047 9.94c.188 0 .367-.074.5-.207s.207-.312.207-.5-.074-.367-.207-.5-.312-.207-.5-.207-.367.074-.5.207-.207.313-.207.5.074.367.207.5.313.207.5.207zm0 0"/></g><g clip-path="url(#Fe)" class="T"><use xlink:href="#Gk"/></g></g><g clip-path="url(#Ff)" class="T"><path d="M71.3 14.734c.188 0 .367-.074.5-.207s.207-.312.207-.5-.074-.367-.207-.5-.312-.207-.5-.207-.367.074-.5.207-.207.313-.207.5.074.367.207.5.313.207.5.207zm0 0"/></g><g class="Q U O P"><g clip-path="url(#Fg)"><path d="M71.3 14.734c.188 0 .367-.074.5-.207s.207-.312.207-.5-.074-.367-.207-.5-.312-.207-.5-.207-.367.074-.5.207-.207.313-.207.5.074.367.207.5.313.207.5.207zm0 0"/></g><g clip-path="url(#Fh)"><path d="M71.203 14.64c.188 0 .367-.074.5-.207s.207-.312.207-.5-.074-.367-.207-.5-.312-.207-.5-.207-.367.074-.5.207-.207.313-.207.5.074.367.207.5.313.207.5.207zm0 0"/></g><g clip-path="url(#Fi)"><path d="M69.117 12.813c.188 0 .367-.074.5-.207s.207-.312.207-.5-.074-.367-.207-.5-.312-.207-.5-.207-.367.074-.5.207-.207.313-.207.5.074.367.207.5.313.207.5.207zm0 0"/></g></g><g clip-path="url(#Fj)" class="T"><path d="M64.48 9.605c.188 0 .367-.078.5-.207s.207-.312.207-.5a.7.7 0 0 0-.207-.5c-.133-.133-.312-.207-.5-.207s-.367.074-.5.207a.7.7 0 0 0-.207.5c0 .188.074.367.207.5s.313.207.5.207zm0 0"/></g><g class="Q U O P"><g clip-path="url(#Fk)"><path d="M64.48 9.605c.187 0 .367-.078.5-.207s.207-.313.207-.5a.7.7 0 0 0-.207-.5c-.133-.133-.312-.207-.5-.207s-.367.074-.5.207a.7.7 0 0 0-.207.5c0 .187.074.367.207.5s.313.207.5.207zm0 0"/></g><g clip-path="url(#Fm)"><path d="M43.97 4.684c.187 0 .367-.074.5-.207s.207-.313.207-.5-.074-.367-.207-.5-.312-.207-.5-.207-.367.074-.5.207-.207.313-.207.5.074.367.207.5.313.207.5.207zm0 0"/></g></g><g clip-path="url(#Fn)" class="T"><path d="M28.258 9.246c.188 0 .367-.074.5-.207s.207-.312.207-.5-.074-.367-.207-.5-.312-.207-.5-.207-.367.074-.5.207-.207.313-.207.5.074.367.207.5.313.207.5.207zm0 0"/></g><g clip-path="url(#Fo)" class="Q U O P"><path d="M28.258 9.246c.188 0 .367-.074.5-.207s.207-.312.207-.5-.074-.367-.207-.5-.312-.207-.5-.207-.367.074-.5.207-.207.313-.207.5.074.367.207.5.313.207.5.207zm0 0"/></g><g clip-path="url(#Fp)" class="T"><path d="M14.168 23.277c.188 0 .367-.074.5-.207s.207-.312.207-.5-.074-.367-.207-.5-.312-.207-.5-.207-.367.074-.5.207-.207.313-.207.5.074.367.207.5.313.207.5.207zm0 0"/></g><g class="Q U O P"><g clip-path="url(#Fq)"><path d="M14.168 23.277c.188 0 .367-.074.5-.207s.207-.312.207-.5-.074-.367-.207-.5-.312-.207-.5-.207-.367.074-.5.207-.207.313-.207.5.074.367.207.5.313.207.5.207zm0 0"/></g><g clip-path="url(#Fs)"><path d="M9.64 44.738a.7.7 0 0 0 .5-.207c.133-.133.207-.312.207-.5s-.074-.367-.207-.5a.7.7 0 0 0-.5-.207c-.188 0-.367.074-.5.207s-.207.313-.207.5.078.367.207.5.313.207.5.207zm0 0"/></g><g clip-path="url(#Ft)"><path d="M17.953 64.63c.188 0 .367-.074.5-.207s.207-.312.207-.5-.074-.367-.207-.5-.312-.207-.5-.207-.367.074-.5.207-.207.313-.207.5.074.367.207.5.313.207.5.207zm0 0"/></g></g><g clip-path="url(#Fu)" class="T"><path d="M33.383 75.523c.188 0 .367-.074.5-.207s.207-.312.207-.5-.074-.367-.207-.5-.312-.207-.5-.207-.367.074-.5.207-.207.313-.207.5.074.367.207.5.313.207.5.207zm0 0"/></g><g clip-path="url(#Fv)" class="Q U O P"><path d="M33.383 75.523c.188 0 .367-.074.5-.207s.207-.312.207-.5-.074-.367-.207-.5-.312-.207-.5-.207-.367.074-.5.207-.207.313-.207.5.074.367.207.5.313.207.5.207zm0 0"/></g><g clip-path="url(#Fw)" class="T"><path d="M48.355 77.715c.188 0 .367-.074.5-.207s.207-.312.207-.5-.074-.367-.207-.5-.312-.207-.5-.207-.367.074-.5.207-.207.313-.207.5.074.367.207.5.313.207.5.207zm0 0"/></g><g class="U O P"><g clip-path="url(#Fx)" class="Q"><path d="M48.355 77.715c.188 0 .367-.074.5-.207s.207-.312.207-.5-.074-.367-.207-.5-.312-.207-.5-.207-.367.074-.5.207-.207.313-.207.5.074.367.207.5.313.207.5.207zm0 0"/></g><g clip-path="url(#Fy)" class="T"><path d="M59.383 75.273c.187 0 .367-.078.5-.207s.207-.312.207-.5a.7.7 0 0 0-.207-.5.71.71 0 0 0-.5-.211.71.71 0 0 0-.5.211.7.7 0 0 0-.207.5c0 .188.074.367.207.5s.313.207.5.207zm0 0"/></g></g><g clip-path="url(#Fz)" class="T"><path d="M66.297 71.676c.188 0 .367-.074.5-.207s.207-.312.207-.5-.074-.367-.207-.5-.312-.207-.5-.207-.367.074-.5.207-.207.313-.207.5.074.367.207.5.313.207.5.207zm0 0"/></g><g class="Q U O P"><g clip-path="url(#GA)"><use xlink:href="#Gl"/></g><g clip-path="url(#GB)"><path d="M70.047 68.82c.187 0 .367-.074.5-.207s.207-.312.207-.5-.074-.367-.207-.5-.312-.207-.5-.207-.367.074-.5.207-.207.313-.207.5.074.367.207.5.313.207.5.207zm0 0"/></g></g><g clip-path="url(#GC)" class="T"><path d="M71.477 67.508c.188 0 .367-.074.5-.207s.207-.312.207-.5-.074-.367-.207-.5-.312-.207-.5-.207-.367.074-.5.207-.207.313-.207.5.074.367.207.5.313.207.5.207zm0 0"/></g><g clip-path="url(#GD)" class="Q U O P"><path d="M71.477 67.508c.187 0 .367-.074.5-.207s.207-.312.207-.5-.074-.367-.207-.5-.312-.207-.5-.207-.367.074-.5.207-.207.313-.207.5.074.367.207.5.313.207.5.207zm0 0"/></g><g clip-path="url(#GE)" class="T"><path d="M70.98 67.98c.188 0 .367-.074.5-.207s.207-.312.207-.5-.074-.367-.207-.5-.312-.207-.5-.207-.367.074-.5.207-.207.313-.207.5.074.367.207.5.313.207.5.207zm0 0"/></g><g class="U O P"><g clip-path="url(#GF)" class="Q"><path d="M70.98 67.98c.188 0 .367-.074.5-.207s.207-.312.207-.5-.074-.367-.207-.5-.312-.207-.5-.207-.367.074-.5.207-.207.313-.207.5.074.367.207.5.313.207.5.207zm0 0"/></g><g clip-path="url(#GG)" class="T"><path d="M68.4 70.16c.188 0 .367-.074.5-.207s.207-.312.207-.5-.074-.367-.207-.5-.312-.207-.5-.207-.367.074-.5.207-.207.313-.207.5.074.367.207.5.313.207.5.207zm0 0"/></g><g class="Q"><g clip-path="url(#GH)"><path d="M63.125 73.56c.187 0 .367-.074.5-.207s.207-.312.207-.5-.074-.367-.207-.5-.312-.207-.5-.207-.367.074-.5.207-.207.313-.207.5.074.367.207.5.313.207.5.207zm0 0"/></g><g clip-path="url(#GI)"><path d="M54.148 76.88c.188 0 .367-.074.5-.207s.207-.312.207-.5-.074-.367-.207-.5-.312-.207-.5-.207-.367.074-.5.207-.207.313-.207.5.074.367.207.5.313.207.5.207zm0 0"/></g></g></g><g clip-path="url(#GJ)" class="T"><path d="M40.883 77.418c.188 0 .367-.074.5-.207s.207-.312.207-.5-.074-.367-.207-.5-.312-.207-.5-.207-.367.074-.5.207-.207.313-.207.5.074.367.207.5.313.207.5.207zm0 0"/></g><g clip-path="url(#GK)" class="Q U O P"><path d="M40.883 77.418c.187 0 .367-.074.5-.207s.207-.312.207-.5-.074-.367-.207-.5-.312-.207-.5-.207-.367.074-.5.207-.207.313-.207.5.074.367.207.5.313.207.5.207zm0 0"/></g><g clip-path="url(#GL)" class="T"><path d="M24.95 71.086c.188 0 .367-.074.5-.207s.207-.312.207-.5-.078-.367-.207-.5-.312-.207-.5-.207a.7.7 0 0 0-.5.207c-.133.133-.207.313-.207.5s.074.367.207.5a.7.7 0 0 0 .5.207zm0 0"/></g><g clip-path="url(#GM)" class="Q U O P"><path d="M24.95 71.086c.188 0 .367-.074.5-.207s.207-.312.207-.5-.078-.367-.207-.5-.312-.207-.5-.207a.7.7 0 0 0-.5.207c-.133.133-.207.313-.207.5s.074.367.207.5a.7.7 0 0 0 .5.207zm0 0"/></g><g clip-path="url(#GN)" class="T"><path d="M12.207 55.086c.188 0 .367-.074.5-.207s.207-.312.207-.5-.074-.367-.207-.5-.312-.207-.5-.207-.367.074-.5.207-.207.313-.207.5.074.367.207.5.313.207.5.207zm0 0"/></g><g class="U O P"><g clip-path="url(#GO)" class="Q"><path d="M12.207 55.086c.187 0 .367-.074.5-.207s.207-.312.207-.5-.074-.367-.207-.5-.312-.207-.5-.207-.367.074-.5.207-.207.313-.207.5.074.367.207.5.313.207.5.207zm0 0"/></g><g clip-path="url(#GP)" class="T"><path d="M10.383 33.1c.188 0 .367-.074.5-.207s.207-.312.207-.5-.074-.367-.207-.5-.312-.207-.5-.207-.367.074-.5.207-.207.313-.207.5.074.367.207.5.313.207.5.207zm0 0"/></g><g clip-path="url(#GQ)" class="Q"><path d="M20.82 14.72c.188 0 .367-.074.5-.207s.207-.312.207-.5-.074-.367-.207-.5-.312-.207-.5-.207-.367.074-.5.207-.207.313-.207.5.074.367.207.5.313.207.5.207zm0 0"/></g></g><g clip-path="url(#GR)" class="T"><path d="M36.664 5.848c.188 0 .367-.074.5-.207s.207-.312.207-.5-.074-.367-.207-.5-.312-.207-.5-.207-.367.074-.5.207-.207.313-.207.5.074.367.207.5.313.207.5.207zm0 0"/></g><g clip-path="url(#GS)" class="Q U O P"><path d="M36.664 5.848c.187 0 .367-.074.5-.207s.207-.312.207-.5-.074-.367-.207-.5-.312-.207-.5-.207-.367.074-.5.207-.207.313-.207.5.074.367.207.5.313.207.5.207zm0 0"/></g><g clip-path="url(#GT)" class="T"><use xlink:href="#Gm"/></g><g clip-path="url(#GU)" class="Q U O P"><use xlink:href="#Gm"/></g></g></svg>