<svg xmlns="http://www.w3.org/2000/svg" xmlns:xlink="http://www.w3.org/1999/xlink" width="216" height="216" viewBox="0 0 162 162" xmlns:v="https://vecta.io/nano"><style><![CDATA[.O{stroke-linejoin:round}.P{stroke-miterlimit:10}.Q{fill:none}.R{fill:rgb(12.156677%,46.665955%,70.587158%)}.S{stroke:rgb(12.156677%,46.665955%,70.587158%)}.T{fill:rgb(0%,0%,0%)}.U{stroke:rgb(0%,0%,0%)}]]></style><defs><clipPath id="A"><path d="M52.1 27H55v2.64h-2.9zm0 0"/></clipPath><clipPath id="B"><path d="M52.1 26.64h3v3h-3zm0 0"/></clipPath><clipPath id="C"><path d="M70.063 26.246H73V29h-2.937zm0 0"/></clipPath><clipPath id="D"><path d="M70.063 26.246h3v3h-3zm0 0"/></clipPath><clipPath id="E"><path d="M75 26.164h2.96V29H75zm0 0"/></clipPath><clipPath id="F"><path d="M74.96 26.164h3v3h-3zm0 0"/></clipPath><clipPath id="G"><path d="M73 33h2.7v2.895H73zm0 0"/></clipPath><clipPath id="H"><path d="M72.7 32.895h3v3h-3zm0 0"/></clipPath><clipPath id="I"><path d="M73 33h2.7v2.895H73zm0 0"/></clipPath><clipPath id="J"><path d="M72.7 32.895h3v3h-3zm0 0"/></clipPath><clipPath id="K"><path d="M75 27.023h2.94V30H75zm0 0"/></clipPath><clipPath id="L"><path d="M74.94 27.023h3v3h-3zm0 0"/></clipPath><clipPath id="M"><path d="M66.152 22H69v2.72h-2.848zm0 0"/></clipPath><clipPath id="N"><path d="M66.152 21.72h3v3h-3zm0 0"/></clipPath><clipPath id="O"><path d="M48.3 29.426H51V32h-2.7zm0 0"/></clipPath><clipPath id="P"><path d="M48.3 29.426h3v3h-3zm0 0"/></clipPath><clipPath id="Q"><path d="M31.434 36H34v2.723h-2.566zm0 0"/></clipPath><clipPath id="R"><path d="M31.434 35.723h3v3h-3zm0 0"/></clipPath><clipPath id="S"><path d="M19.113 34.156H22V37h-2.887zm0 0"/></clipPath><clipPath id="T"><path d="M19.113 34.156h3v3h-3zm0 0"/></clipPath><clipPath id="U"><path d="M26 28h2.73v2.852H26zm0 0"/></clipPath><clipPath id="V"><path d="M25.73 27.852h3v3h-3zm0 0"/></clipPath><clipPath id="W"><path d="M14.04 42H17v2.602h-2.96zm0 0"/></clipPath><clipPath id="X"><path d="M14.04 41.602h3v3h-3zm0 0"/></clipPath><clipPath id="Y"><path d="M6 45.34h2.832V48H6zm0 0"/></clipPath><clipPath id="Z"><path d="M5.832 45.34h3v3h-3zm0 0"/></clipPath><clipPath id="a"><path d="M13.2 46.125H16V49h-2.8zm0 0"/></clipPath><clipPath id="b"><path d="M13.2 46.125h3v3h-3zm0 0"/></clipPath><clipPath id="c"><path d="M30.402 44.387H33V47h-2.598zm0 0"/></clipPath><clipPath id="d"><path d="M30.402 44.387h3v3h-3zm0 0"/></clipPath><clipPath id="e"><path d="M54 44.438h2.965V47H54zm0 0"/></clipPath><clipPath id="f"><path d="M53.965 44.438h3v3h-3zm0 0"/></clipPath><clipPath id="g"><path d="M65 53h2.793v2.855H65zm0 0"/></clipPath><clipPath id="h"><path d="M64.793 52.855h3v3h-3zm0 0"/></clipPath><clipPath id="i"><path d="M60 55.137h2.766V58H60zm0 0"/></clipPath><clipPath id="j"><path d="M59.766 55.137h3v3h-3zm0 0"/></clipPath><clipPath id="k"><path d="M57 56.28h2.813V59H57zm0 0"/></clipPath><clipPath id="l"><path d="M56.813 56.28h3v3h-3zm0 0"/></clipPath><clipPath id="m"><path d="M57 56.28h2.813V59H57zm0 0"/></clipPath><clipPath id="n"><path d="M56.813 56.28h3v3h-3zm0 0"/></clipPath><clipPath id="o"><path d="M62.242 56H65v2.516h-2.758zm0 0"/></clipPath><clipPath id="p"><path d="M62.242 55.516h3v3h-3zm0 0"/></clipPath><clipPath id="q"><path d="M61.328 49H64v2.875h-2.672zm0 0"/></clipPath><clipPath id="r"><path d="M61.328 48.875h3v3h-3zm0 0"/></clipPath><clipPath id="s"><path d="M45.4 42H48v2.648h-2.6zm0 0"/></clipPath><clipPath id="t"><path d="M45.4 41.648h3v3h-3zm0 0"/></clipPath><clipPath id="u"><path d="M26.4 46H29v2.695h-2.6zm0 0"/></clipPath><clipPath id="v"><path d="M26.4 45.695h3v3h-3zm0 0"/></clipPath><clipPath id="w"><path d="M13 47.453h2.523V50H13zm0 0"/></clipPath><clipPath id="x"><path d="M12.523 47.453h3v3h-3zm0 0"/></clipPath><clipPath id="y"><path d="M7 46.348h2.563V49H7zm0 0"/></clipPath><clipPath id="z"><path d="M6.563 46.348h3v3h-3zm0 0"/></clipPath><clipPath id="AA"><path d="M17.008 39.438H20V42h-2.992zm0 0"/></clipPath><clipPath id="AB"><path d="M17.008 39.438h3v3h-3zm0 0"/></clipPath><clipPath id="AC"><path d="M28.277 31H31v2.793h-2.723zm0 0"/></clipPath><clipPath id="AD"><path d="M28.277 30.793h3v3h-3zm0 0"/></clipPath><clipPath id="AE"><path d="M23 39.262h2.72V42H23zm0 0"/></clipPath><clipPath id="AF"><path d="M22.72 39.262h3v3h-3zm0 0"/></clipPath><clipPath id="AG"><path d="M37 34.18h2.7V37H37zm0 0"/></clipPath><clipPath id="AH"><path d="M36.7 34.18h3v3h-3zm0 0"/></clipPath><clipPath ><path d="M56 26.148h2.566V29H56zm0 0"/></clipPath><clipPath ><path d="M55.566 26.148h3v3h-3zm0 0"/></clipPath><clipPath id="AK"><path d="M71.352 25H74v2.8h-2.648zm0 0"/></clipPath><clipPath id="AL"><path d="M71.352 24.8h3v3h-3zm0 0"/></clipPath><clipPath id="AM"><path d="M75.066 25.148H78V28h-2.934zm0 0"/></clipPath><clipPath id="AN"><path d="M75.066 25.148h3v3h-3zm0 0"/></clipPath><clipPath id="AO"><path d="M73 33h2.7v2.895H73zm0 0"/></clipPath><clipPath id="AP"><path d="M72.7 32.895h3v3h-3zm0 0"/></clipPath><clipPath id="AQ"><path d="M73 33h2.7v2.895H73zm0 0"/></clipPath><clipPath id="AR"><path d="M72.7 32.895h3v3h-3zm0 0"/></clipPath><clipPath id="AS"><path d="M74.363 26H77v2.75h-2.637zm0 0"/></clipPath><clipPath id="AT"><path d="M74.363 25.75h3v3h-3zm0 0"/></clipPath><clipPath id="AU"><path d="M64 23.496h2V26h-2zm0 0"/></clipPath><clipPath id="AV"><path d="M63.5 23.496h3v3h-3zm0 0"/></clipPath><clipPath id="AW"><path d="M46 31.152h2.6V34H46zm0 0"/></clipPath><clipPath id="AX"><path d="M45.6 31.152h3v3h-3zm0 0"/></clipPath><clipPath id="AY"><path d="M31.47 37.13H34V40h-2.53zm0 0"/></clipPath><clipPath id="AZ"><path d="M31.47 37.13h3v3h-3zm0 0"/></clipPath><clipPath id="Aa"><path d="M20.492 36H23v2.75h-2.508zm0 0"/></clipPath><clipPath id="Ab"><path d="M20.492 35.75h3v3h-3zm0 0"/></clipPath><clipPath ><path d="M25 29.074h2.797V32H25zm0 0"/></clipPath><clipPath ><path d="M24.797 29.074h3v3h-3zm0 0"/></clipPath><clipPath id="Ae"><path d="M15 41h2.934v2.56H15zm0 0"/></clipPath><clipPath id="Af"><path d="M14.934 40.56h3v3h-3zm0 0"/></clipPath><clipPath ><path d="M12.082 46H15v2.6h-2.918zm0 0"/></clipPath><clipPath ><path d="M12.082 45.6h3v3h-3zm0 0"/></clipPath><clipPath id="Ai"><path d="M19 47h2.695v2.926H19zm0 0"/></clipPath><clipPath id="Aj"><path d="M18.695 46.926h3v3h-3zm0 0"/></clipPath><clipPath id="Ak"><path d="M34.207 46.355H37V49h-2.793zm0 0"/></clipPath><clipPath id="Al"><path d="M34.207 46.355h3v3h-3zm0 0"/></clipPath><clipPath id="Am"><path d="M54.14 44.008H57V47h-2.86zm0 0"/></clipPath><clipPath id="An"><path d="M54.14 44.008h3v3h-3zm0 0"/></clipPath><clipPath id="Ao"><path d="M64.395 53.328H67V56h-2.605zm0 0"/></clipPath><clipPath id="Ap"><path d="M64.395 53.328h3v3h-3zm0 0"/></clipPath><clipPath id="Aq"><path d="M59 54h2.973v2.664H59zm0 0"/></clipPath><clipPath id="Ar"><path d="M58.973 53.664h3v3h-3zm0 0"/></clipPath><clipPath id="As"><path d="M57 56.28h2.813V59H57zm0 0"/></clipPath><clipPath id="At"><path d="M56.813 56.28h3v3h-3zm0 0"/></clipPath><clipPath id="Au"><path d="M57 56.28h2.813V59H57zm0 0"/></clipPath><clipPath id="Av"><path d="M56.813 56.28h3v3h-3zm0 0"/></clipPath><clipPath id="Aw"><path d="M62.438 55H65v2.6h-2.562zm0 0"/></clipPath><clipPath id="Ax"><path d="M62.438 54.6h3v3h-3zm0 0"/></clipPath><clipPath id="Ay"><path d="M60.227 48.2H63V51h-2.773zm0 0"/></clipPath><clipPath id="Az"><path d="M60.227 48.2h3v3h-3zm0 0"/></clipPath><clipPath id="BA"><path d="M43 42h2.902v2.93H43zm0 0"/></clipPath><clipPath id="BB"><path d="M42.902 41.93h3v3h-3zm0 0"/></clipPath><clipPath ><path d="M29 48h2.742v2.863H29zm0 0"/></clipPath><clipPath ><path d="M28.742 47.863h3v3h-3zm0 0"/></clipPath><clipPath id="BE"><path d="M15.27 47.313H18V50h-2.73zm0 0"/></clipPath><clipPath id="BF"><path d="M15.27 47.313h3v3h-3zm0 0"/></clipPath><clipPath ><path d="M11 44h2.887v2.8H11zm0 0"/></clipPath><clipPath ><path d="M10.887 43.8h3v3h-3zm0 0"/></clipPath><clipPath id="BI"><path d="M20 39.035h2.578V42H20zm0 0"/></clipPath><clipPath id="BJ"><path d="M19.578 39.035h3v3h-3zm0 0"/></clipPath><clipPath id="BK"><path d="M31 37.355h2.55V40H31zm0 0"/></clipPath><clipPath id="BL"><path d="M30.55 37.355h3v3h-3zm0 0"/></clipPath><clipPath id="BM"><path d="M24.406 37H27v2.586h-2.594zm0 0"/></clipPath><clipPath id="BN"><path d="M24.406 36.586h3v3h-3zm0 0"/></clipPath><clipPath id="BO"><path d="M38.488 32.098H41V35h-2.512zm0 0"/></clipPath><clipPath id="BP"><path d="M38.488 32.098h3v3h-3zm0 0"/></clipPath><clipPath id="BQ"><path d="M56 25.12h2V28h-2zm0 0"/></clipPath><clipPath id="BR"><path d="M55.5 25.12h3v3h-3zm0 0"/></clipPath><clipPath id="BS"><path d="M72 25.46h2.895V28H72zm0 0"/></clipPath><clipPath id="BT"><path d="M71.895 25.46h3v3h-3zm0 0"/></clipPath><clipPath id="BU"><path d="M74.477 26H77v2.64h-2.523zm0 0"/></clipPath><clipPath id="BV"><path d="M74.477 25.64h3v3h-3zm0 0"/></clipPath><clipPath id="BW"><path d="M73 33h2.7v2.895H73zm0 0"/></clipPath><clipPath id="BX"><path d="M72.7 32.895h3v3h-3zm0 0"/></clipPath><clipPath id="BY"><path d="M73 33h2.7v2.895H73zm0 0"/></clipPath><clipPath id="BZ"><path d="M72.7 32.895h3v3h-3zm0 0"/></clipPath><clipPath ><path d="M74.277 25H77v2.586h-2.723zm0 0"/></clipPath><clipPath ><path d="M74.277 24.586h3v3h-3zm0 0"/></clipPath><clipPath id="Bc"><path d="M61.387 26H64v2.6h-2.613zm0 0"/></clipPath><clipPath id="Bd"><path d="M61.387 25.6h3v3h-3zm0 0"/></clipPath><clipPath id="Be"><path d="M45.258 30H48v2.973h-2.742zm0 0"/></clipPath><clipPath id="Bf"><path d="M45.258 29.973h3v3h-3zm0 0"/></clipPath><clipPath id="Bg"><path d="M31 36.12h2.582V39H31zm0 0"/></clipPath><clipPath id="Bh"><path d="M30.582 36.12h3v3h-3zm0 0"/></clipPath><clipPath id="Bi"><path d="M23.445 36.242H26V39h-2.555zm0 0"/></clipPath><clipPath id="Bj"><path d="M23.445 36.242h3v3h-3zm0 0"/></clipPath><clipPath id="Bk"><path d="M26 33h2.605v2.672H26zm0 0"/></clipPath><clipPath id="Bl"><path d="M25.605 32.672h3v3h-3zm0 0"/></clipPath><clipPath id="Bm"><path d="M15.445 41H18v2.516h-2.555zm0 0"/></clipPath><clipPath id="Bn"><path d="M15.445 40.516h3v3h-3zm0 0"/></clipPath><clipPath id="Bo"><path d="M16.023 45.3H19V48h-2.977zm0 0"/></clipPath><clipPath id="Bp"><path d="M16.023 45.3h3v3h-3zm0 0"/></clipPath><clipPath id="Bq"><path d="M21.496 47H24v2.684h-2.504zm0 0"/></clipPath><clipPath id="Br"><path d="M21.496 46.684h3v3h-3zm0 0"/></clipPath><clipPath id="Bs"><path d="M35 43.28h2.715V46H35zm0 0"/></clipPath><clipPath id="Bt"><path d="M34.715 43.28h3v3h-3zm0 0"/></clipPath><clipPath id="Bu"><path d="M55.188 46.055H58V49h-2.812zm0 0"/></clipPath><clipPath id="Bv"><path d="M55.188 46.055h3v3h-3zm0 0"/></clipPath><clipPath id="Bw"><path d="M63.152 53.44H66V56h-2.848zm0 0"/></clipPath><clipPath id="Bx"><path d="M63.152 53.44h3v3h-3zm0 0"/></clipPath><clipPath id="By"><path d="M58.438 55H61v2.613h-2.562zm0 0"/></clipPath><clipPath id="Bz"><path d="M58.438 54.613h3v3h-3zm0 0"/></clipPath><clipPath id="CA"><path d="M57 56.28h2.813V59H57zm0 0"/></clipPath><clipPath id="CB"><path d="M56.813 56.28h3v3h-3zm0 0"/></clipPath><clipPath id="CC"><path d="M57 56.28h2.813V59H57zm0 0"/></clipPath><clipPath id="CD"><path d="M56.813 56.28h3v3h-3zm0 0"/></clipPath><clipPath id="CE"><path d="M63 54.117h2.6V57H63zm0 0"/></clipPath><clipPath id="CF"><path d="M62.6 54.117h3v3h-3zm0 0"/></clipPath><clipPath id="CG"><path d="M59.363 49.46H62V52h-2.637zm0 0"/></clipPath><clipPath id="CH"><path d="M59.363 49.46h3v3h-3zm0 0"/></clipPath><clipPath id="CI"><path d="M41 42.387h2.766V45H41zm0 0"/></clipPath><clipPath id="CJ"><path d="M40.766 42.387h3v3h-3zm0 0"/></clipPath><clipPath id="CK"><path d="M26 47h2.88v2.64H26zm0 0"/></clipPath><clipPath id="CL"><path d="M25.88 46.64h3v3h-3zm0 0"/></clipPath><clipPath id="CM"><path d="M15.184 46.46H18V49h-2.816zm0 0"/></clipPath><clipPath id="CN"><path d="M15.184 46.46h3v3h-3zm0 0"/></clipPath><clipPath id="CO"><path d="M16 42.492h2.96V45H16zm0 0"/></clipPath><clipPath id="CP"><path d="M15.96 42.492h3v3h-3zm0 0"/></clipPath><clipPath id="CQ"><path d="M21.117 38H24v2.512h-2.883zm0 0"/></clipPath><clipPath id="CR"><path d="M21.117 37.512h3v3h-3zm0 0"/></clipPath><clipPath id="CS"><path d="M25.328 31.273H28V34h-2.672zm0 0"/></clipPath><clipPath id="CT"><path d="M25.328 31.273h3v3h-3zm0 0"/></clipPath><clipPath id="CU"><path d="M26 36.04h2.664V39H26zm0 0"/></clipPath><clipPath id="CV"><path d="M25.664 36.04h3v3h-3zm0 0"/></clipPath><clipPath id="CW"><path d="M40.28 33H43v2.727h-2.72zm0 0"/></clipPath><clipPath id="CX"><path d="M40.28 32.727h3v3h-3zm0 0"/></clipPath><clipPath id="CY"><path d="M58.023 27H61v2.816h-2.977zm0 0"/></clipPath><clipPath id="CZ"><path d="M58.023 26.816h3v3h-3zm0 0"/></clipPath><clipPath id="Ca"><path d="M72.293 27H75v2.8h-2.707zm0 0"/></clipPath><clipPath id="Cb"><path d="M72.293 26.8h3v3h-3zm0 0"/></clipPath><clipPath id="Cc"><path d="M74.043 28.3H77V31h-2.957zm0 0"/></clipPath><clipPath id="Cd"><path d="M74.043 28.3h3v3h-3zm0 0"/></clipPath><clipPath id="Ce"><path d="M73 33h2.7v2.895H73zm0 0"/></clipPath><clipPath id="Cf"><path d="M72.7 32.895h3v3h-3zm0 0"/></clipPath><clipPath id="Cg"><path d="M73.285 31.414H76V34h-2.715zm0 0"/></clipPath><clipPath id="Ch"><path d="M73.285 31.414h3v3h-3zm0 0"/></clipPath><clipPath ><path d="M73 27h2.926v2.938H73zm0 0"/></clipPath><clipPath ><path d="M72.926 26.938h3v3h-3zm0 0"/></clipPath><clipPath ><path d="M61.242 27H64v2.688h-2.758zm0 0"/></clipPath><clipPath ><path d="M61.242 26.688h3v3h-3zm0 0"/></clipPath><clipPath ><path d="M45.102 33H48v2.898h-2.898zm0 0"/></clipPath><clipPath ><path d="M45.102 32.898h3v3h-3zm0 0"/></clipPath><clipPath ><path d="M31.04 37.402H34V40h-2.96zm0 0"/></clipPath><clipPath ><path d="M31.04 37.402h3v3h-3zm0 0"/></clipPath><clipPath id="Cq"><path d="M24 35.2h2.996V38H24zm0 0"/></clipPath><clipPath id="Cr"><path d="M23.996 35.2h3v3h-3zm0 0"/></clipPath><clipPath id="Cs"><path d="M24.387 34H27v2.703h-2.613zm0 0"/></clipPath><clipPath id="Ct"><path d="M24.387 33.703h3v3h-3zm0 0"/></clipPath><clipPath id="Cu"><path d="M15.46 41.012H18V44h-2.54zm0 0"/></clipPath><clipPath id="Cv"><path d="M15.46 41.012h3v3h-3zm0 0"/></clipPath><clipPath id="Cw"><path d="M16 45h2.574v2.656H16zm0 0"/></clipPath><clipPath id="Cx"><path d="M15.574 44.656h3v3h-3zm0 0"/></clipPath><clipPath id="Cy"><path d="M22 46.105h2.77V49H22zm0 0"/></clipPath><clipPath id="Cz"><path d="M21.77 46.105h3v3h-3zm0 0"/></clipPath><clipPath id="DA"><path d="M37 43.313h2.754V46H37zm0 0"/></clipPath><clipPath id="DB"><path d="M36.754 43.313h3v3h-3zm0 0"/></clipPath><clipPath id="DC"><path d="M57.332 45H60v2.734h-2.668zm0 0"/></clipPath><clipPath id="DD"><path d="M57.332 44.734h3v3h-3zm0 0"/></clipPath><clipPath id="DE"><path d="M63.313 54.375H66V57h-2.687zm0 0"/></clipPath><clipPath id="DF"><path d="M63.313 54.375h3v3h-3zm0 0"/></clipPath><clipPath id="DG"><path d="M58.195 55.105H61V58h-2.805zm0 0"/></clipPath><clipPath id="DH"><path d="M58.195 55.105h3v3h-3zm0 0"/></clipPath><clipPath id="DI"><path d="M57 56.28h2.813V59H57zm0 0"/></clipPath><clipPath id="DJ"><path d="M56.813 56.28h3v3h-3zm0 0"/></clipPath><clipPath id="DK"><path d="M58 55.363h2.848V58H58zm0 0"/></clipPath><clipPath id="DL"><path d="M57.848 55.363h3v3h-3zm0 0"/></clipPath><clipPath id="DM"><path d="M63.086 54.04H66V57h-2.914zm0 0"/></clipPath><clipPath id="DN"><path d="M63.086 54.04h3v3h-3zm0 0"/></clipPath><clipPath id="DO"><path d="M57.332 45H60v2.734h-2.668zm0 0"/></clipPath><clipPath id="DP"><path d="M57.332 44.734h3v3h-3zm0 0"/></clipPath><clipPath id="DQ"><path d="M39 44h2.707v2.914H39zm0 0"/></clipPath><clipPath id="DR"><path d="M38.707 43.914h3v3h-3zm0 0"/></clipPath><clipPath id="DS"><path d="M23.336 47H26v2.8h-2.664zm0 0"/></clipPath><clipPath id="DT"><path d="M23.336 46.8h3v3h-3zm0 0"/></clipPath><clipPath id="DU"><path d="M15 44.172h2.54V47H15zm0 0"/></clipPath><clipPath id="DV"><path d="M14.54 44.172h3v3h-3zm0 0"/></clipPath><clipPath id="DW"><path d="M18.06 43H21v2.875h-2.94zm0 0"/></clipPath><clipPath id="DX"><path d="M18.06 42.875h3v3h-3zm0 0"/></clipPath><clipPath id="DY"><path d="M24.27 36.13H27V39h-2.73zm0 0"/></clipPath><clipPath id="DZ"><path d="M24.27 36.13h3v3h-3zm0 0"/></clipPath><clipPath id="Da"><path d="M25 34.16h2.914V37H25zm0 0"/></clipPath><clipPath id="Db"><path d="M24.914 34.16h3v3h-3zm0 0"/></clipPath><clipPath id="Dc"><path d="M29 36h2.8v2.895H29zm0 0"/></clipPath><clipPath id="Dd"><path d="M28.8 35.895h3v3h-3zm0 0"/></clipPath><clipPath id="De"><path d="M43.176 32.066H46V35h-2.824zm0 0"/></clipPath><clipPath id="Df"><path d="M43.176 32.066h3v3h-3zm0 0"/></clipPath><clipPath id="Dg"><path d="M59.137 23.125H62V26h-2.863zm0 0"/></clipPath><clipPath id="Dh"><path d="M59.137 23.125h3v3h-3zm0 0"/></clipPath><clipPath id="Di"><path d="M73 26h2.86v2.53H73zm0 0"/></clipPath><clipPath id="Dj"><path d="M72.86 25.53h3v3h-3zm0 0"/></clipPath><clipPath ><path d="M74 30h2.824v2.72H74zm0 0"/></clipPath><clipPath ><path d="M73.824 29.72h3v3h-3zm0 0"/></clipPath><clipPath id="Dm"><path d="M73 33h2.7v2.895H73zm0 0"/></clipPath><clipPath id="Dn"><path d="M72.7 32.895h3v3h-3zm0 0"/></clipPath><clipPath id="Do"><path d="M74.043 28.3H77V31h-2.957zm0 0"/></clipPath><clipPath id="Dp"><path d="M74.043 28.3h3v3h-3zm0 0"/></clipPath><clipPath id="Dq"><path d="M72.293 27H75v2.8h-2.707zm0 0"/></clipPath><clipPath id="Dr"><path d="M72.293 26.8h3v3h-3zm0 0"/></clipPath><clipPath id="Ds"><path d="M59.137 23.125H62V26h-2.863zm0 0"/></clipPath><clipPath id="Dt"><path d="M59.137 23.125h3v3h-3zm0 0"/></clipPath><clipPath id="Du"><path d="M40.438 32.43H43V35h-2.562zm0 0"/></clipPath><clipPath id="Dv"><path d="M40.438 32.43h3v3h-3zm0 0"/></clipPath><clipPath id="Dw"><path d="M28 37h2.56v2.668H28zm0 0"/></clipPath><clipPath id="Dx"><path d="M27.56 36.668h3v3h-3zm0 0"/></clipPath><clipPath id="Dy"><path d="M26.254 34.46H29V37h-2.746zm0 0"/></clipPath><clipPath id="Dz"><path d="M26.254 34.46h3v3h-3zm0 0"/></clipPath><clipPath id="EA"><path d="M23.3 38H26v2.902h-2.7zm0 0"/></clipPath><clipPath id="EB"><path d="M23.3 37.902h3v3h-3zm0 0"/></clipPath><clipPath id="EC"><path d="M17 42.125h2.98V45H17zm0 0"/></clipPath><clipPath id="ED"><path d="M16.98 42.125h3v3h-3zm0 0"/></clipPath><clipPath id="EE"><path d="M16 45.4h2.914V48H16zm0 0"/></clipPath><clipPath id="EF"><path d="M15.914 45.4h3v3h-3zm0 0"/></clipPath><clipPath id="EG"><path d="M25.184 47H28v2.727h-2.816zm0 0"/></clipPath><clipPath id="EH"><path d="M25.184 46.727h3v3h-3zm0 0"/></clipPath><clipPath id="EI"><path d="M41.44 44.27H44V47h-2.56zm0 0"/></clipPath><clipPath id="EJ"><path d="M41.44 44.27h3v3h-3zm0 0"/></clipPath><clipPath id="EK"><path d="M58.246 47.2H61V50h-2.754zm0 0"/></clipPath><clipPath id="EL"><path d="M58.246 47.2h3v3h-3zm0 0"/></clipPath><clipPath id="EM"><path d="M63 55h2.62v2.785H63zm0 0"/></clipPath><clipPath id="EN"><path d="M62.62 54.785h3v3h-3zm0 0"/></clipPath><clipPath id="EO"><path d="M57.387 56.008H60V59h-2.613zm0 0"/></clipPath><clipPath id="EP"><path d="M57.387 56.008h3v3h-3zm0 0"/></clipPath><clipPath id="EQ"><path d="M57 56.28h2.813V59H57zm0 0"/></clipPath><clipPath id="ER"><path d="M56.813 56.28h3v3h-3zm0 0"/></clipPath><clipPath id="ES"><path d="M58.195 55.105H61V58h-2.805zm0 0"/></clipPath><clipPath id="ET"><path d="M58.195 55.105h3v3h-3zm0 0"/></clipPath><clipPath id="EU"><path d="M63.313 54.375H66V57h-2.687zm0 0"/></clipPath><clipPath id="EV"><path d="M63.313 54.375h3v3h-3zm0 0"/></clipPath><clipPath id="EW"><path d="M56 46.004h2.785V49H56zm0 0"/></clipPath><clipPath id="EX"><path d="M55.785 46.004h3v3h-3zm0 0"/></clipPath><clipPath id="EY"><path d="M36.168 44H39v2.875h-2.832zm0 0"/></clipPath><clipPath id="EZ"><path d="M36.168 43.875h3v3h-3zm0 0"/></clipPath><clipPath ><path d="M21.305 46.047H24V49h-2.695zm0 0"/></clipPath><clipPath ><path d="M21.305 46.047h3v3h-3zm0 0"/></clipPath><clipPath id="Ec"><path d="M14.2 44.25H17V47h-2.8zm0 0"/></clipPath><clipPath id="Ed"><path d="M14.2 44.25h3v3h-3zm0 0"/></clipPath><clipPath id="Ee"><path d="M16 41.445h2.957V44H16zm0 0"/></clipPath><clipPath id="Ef"><path d="M15.957 41.445h3v3h-3zm0 0"/></clipPath><clipPath id="Eg"><path d="M26 35h2.93v2.7H26zm0 0"/></clipPath><clipPath id="Eh"><path d="M25.93 34.7h3v3h-3zm0 0"/></clipPath><clipPath ><path d="M24.488 36H27v2.73h-2.512zm0 0"/></clipPath><clipPath ><path d="M24.488 35.73h3v3h-3zm0 0"/></clipPath><clipPath id="Ek"><path d="M29.48 35.328H32V38h-2.52zm0 0"/></clipPath><clipPath id="El"><path d="M29.48 35.328h3v3h-3zm0 0"/></clipPath><clipPath id="Em"><path d="M44 31h2.902v2.62H44zm0 0"/></clipPath><clipPath id="En"><path d="M43.902 30.62h3v3h-3zm0 0"/></clipPath><clipPath ><path d="M61.242 27H64v2.688h-2.758zm0 0"/></clipPath><clipPath ><path d="M61.242 26.688h3v3h-3zm0 0"/></clipPath><clipPath id="Eq"><path d="M73.422 26H76v2.602h-2.578zm0 0"/></clipPath><clipPath id="Er"><path d="M73.422 25.602h3v3h-3zm0 0"/></clipPath><clipPath id="Es"><path d="M73 33h2.7v2.895H73zm0 0"/></clipPath><clipPath id="Et"><path d="M72.7 32.895h3v3h-3zm0 0"/></clipPath><clipPath id="Eu"><path d="M73 33h2.7v2.895H73zm0 0"/></clipPath><clipPath id="Ev"><path d="M72.7 32.895h3v3h-3zm0 0"/></clipPath><clipPath id="Ew"><path d="M75 27h2.645v2.758H75zm0 0"/></clipPath><clipPath id="Ex"><path d="M74.645 26.758h3v3h-3zm0 0"/></clipPath><clipPath id="Ey"><path d="M72.06 25.402H75V28h-2.94zm0 0"/></clipPath><clipPath id="Ez"><path d="M72.06 25.402h3v3h-3zm0 0"/></clipPath><clipPath id="FA"><path d="M57 29h2.875v2.527H57zm0 0"/></clipPath><clipPath id="FB"><path d="M56.875 28.527h3v3h-3zm0 0"/></clipPath><clipPath id="FC"><path d="M39 32.27h2.727V35H39zm0 0"/></clipPath><clipPath id="FD"><path d="M38.727 32.27h3v3h-3zm0 0"/></clipPath><clipPath id="FE"><path d="M26 36.04h2.664V39H26zm0 0"/></clipPath><clipPath id="FF"><path d="M25.664 36.04h3v3h-3zm0 0"/></clipPath><clipPath id="FG"><path d="M28.172 34H31v2.922h-2.828zm0 0"/></clipPath><clipPath id="FH"><path d="M28.172 33.922h3v3h-3zm0 0"/></clipPath><clipPath id="FI"><path d="M21 38h2.57v2.938H21zm0 0"/></clipPath><clipPath id="FJ"><path d="M20.57 37.938h3v3h-3zm0 0"/></clipPath><clipPath ><path d="M61.465 55.4h2.418v2.414h-2.418zm0 0"/></clipPath><clipPath ><path d="M67 51.207h2v2.414h-2zm0 0"/></clipPath><clipPath ><path d="M66.844 51.207h2.414v2.414h-2.414zm0 0"/></clipPath><clipPath ><path d="M49.875 40.777h2.414v2.414h-2.414zm0 0"/></clipPath><clipPath ><path d="M32.406 51.313h2.414v2.414h-2.414zm0 0"/></clipPath><clipPath id="FP"><path d="M11.324 50.305h2.414v2.414h-2.414zm0 0"/></clipPath><clipPath id="FQ"><path d="M3 49.12h2v2.414H3zm0 0"/></clipPath><clipPath id="FR"><path d="M2.742 49.12h2.414v2.414H2.742zm0 0"/></clipPath><clipPath id="FS"><path d="M17.094 46h2.414v1.977h-2.414zm0 0"/></clipPath><clipPath id="FT"><path d="M17.094 45.563h2.414v2.414h-2.414zm0 0"/></clipPath><clipPath id="FU"><path d="M29 28.074h2V30h-2zm0 0"/></clipPath><clipPath id="FV"><path d="M28.95 28.074h2.414v2.414H28.95zm0 0"/></clipPath><clipPath id="FW"><path d="M16.47 36.27h2.414v2.414H16.47zm0 0"/></clipPath><clipPath id="FX"><path d="M36.457 41.488h2.414v2.414h-2.414zm0 0"/></clipPath><clipPath id="FY"><path d="M52 27.246h2v2.414h-2zm0 0"/></clipPath><clipPath id="FZ"><path d="M51.73 27.246h2.414v2.414H51.73zm0 0"/></clipPath><clipPath id="Fa"><path d="M69.316 24.3h2.414v2.414h-2.414zm0 0"/></clipPath><clipPath id="Fb"><path d="M75.94 25.695h2.414v2.414H75.94zm0 0"/></clipPath><clipPath id="Fc"><path d="M73.004 33.188H75v2.414h-1.996zm0 0"/></clipPath><clipPath id="Fd"><path d="M73.004 33.188h2.414v2.414h-2.414zm0 0"/></clipPath><clipPath id="Fe"><path d="M73.004 33.188H75v2.414h-1.996zm0 0"/></clipPath><clipPath id="Ff"><path d="M73.004 33.188h2.414v2.414h-2.414zm0 0"/></clipPath><clipPath ><path d="M76 27.05h2V29h-2zm0 0"/></clipPath><clipPath id="Fh"><path d="M75.844 27.05h2.414v2.414h-2.414zm0 0"/></clipPath><clipPath id="Fi"><path d="M68.414 26h2.414v2h-2.414zm0 0"/></clipPath><clipPath id="Fj"><path d="M68.414 25.652h2.414v2.414h-2.414zm0 0"/></clipPath><clipPath id="Fk"><path d="M50.074 30.023H52V32h-1.926zm0 0"/></clipPath><clipPath id="Fl"><path d="M50.074 30.023h2.414v2.414h-2.414zm0 0"/></clipPath><clipPath ><path d="M36.875 41.63h2.414v2.414h-2.414zm0 0"/></clipPath><clipPath id="Fn"><path d="M15.902 33.625h2.414v2.414h-2.414zm0 0"/></clipPath><clipPath id="Fo"><path d="M30.37 28h2.414v2H30.37zm0 0"/></clipPath><clipPath ><path d="M30.37 27.895h2.414v2.414H30.37zm0 0"/></clipPath><clipPath id="Fq"><path d="M10.62 40h2.414v2.414H10.62zm0 0"/></clipPath><clipPath id="Fr"><path d="M3.1 48h2.414v2H3.1zm0 0"/></clipPath><clipPath id="Fs"><path d="M3.1 47.82h2.414v2.414H3.1zm0 0"/></clipPath><clipPath id="Ft"><path d="M11 49.105h2v2.414h-2zm0 0"/></clipPath><clipPath id="Fu"><path d="M10.922 49.105h2.414v2.414h-2.414zm0 0"/></clipPath><clipPath id="Fv"><path d="M28.746 46.73h2.414v2.414h-2.414zm0 0"/></clipPath><clipPath id="Fw"><path d="M52 43.07h2V45h-2zm0 0"/></clipPath><clipPath id="Fx"><path d="M51.844 43.07h2.414v2.414h-2.414zm0 0"/></clipPath><clipPath id="Fy"><path d="M66.145 55h2.414v2h-2.414zm0 0"/></clipPath><clipPath id="Fz"><path d="M66.145 54.773h2.414v2.414h-2.414zm0 0"/></clipPath><clipPath ><path d="M61.465 55.4h2.418v2.414h-2.418zm0 0"/></clipPath><clipPath id="GB"><path d="M57.105 57h2.414v1.988h-2.414zm0 0"/></clipPath><clipPath id="GC"><path d="M57.105 56.574h2.414v2.414h-2.414zm0 0"/></clipPath><clipPath id="GD"><path d="M57.105 57h2.414v1.988h-2.414zm0 0"/></clipPath><clipPath id="GE"><path d="M57.105 56.574h2.414v2.414h-2.414zm0 0"/></clipPath><clipPath id="GF"><path d="M62 55.34h2v2.414h-2zm0 0"/></clipPath><clipPath id="GG"><path d="M61.754 55.34h2.414v2.414h-2.414zm0 0"/></clipPath><clipPath ><path d="M66.055 51H68v1.945h-1.945zm0 0"/></clipPath><clipPath ><path d="M66.055 50.527h2.418v2.418h-2.418zm0 0"/></clipPath><clipPath id="GJ"><path d="M48.277 41h2.414v1.95h-2.414zm0 0"/></clipPath><clipPath id="GK"><path d="M48.277 40.535h2.414v2.414h-2.414zm0 0"/></clipPath><clipPath id="GL"><path d="M29.355 48.277h2.414v2.414h-2.414zm0 0"/></clipPath><clipPath id="GM"><path d="M10 49.4h2v2.414h-2zm0 0"/></clipPath><clipPath id="GN"><path d="M9.855 49.4h2.414v2.414H9.855zm0 0"/></clipPath><clipPath id="GO"><path d="M3 47.184h2v2.414H3zm0 0"/></clipPath><clipPath id="GP"><path d="M2.645 47.184H5.06v2.414H2.645zm0 0"/></clipPath><clipPath id="GQ"><path d="M14.797 40.98h2.414v2.414h-2.414zm0 0"/></clipPath><clipPath id="GR"><path d="M27 27.145h2v2.414h-2zm0 0"/></clipPath><clipPath id="GS"><path d="M26.875 27.145h2.414v2.414h-2.414zm0 0"/></clipPath><clipPath id="GT"><path d="M19.098 37.37h2.414v2.414h-2.414zm0 0"/></clipPath><clipPath id="GU"><path d="M32 33.37h2v2.414h-2zm0 0"/></clipPath><clipPath id="GV"><path d="M31.707 33.37h2.414v2.414h-2.414zm0 0"/></clipPath><path id="GW" d="M53.6 29.14a1 1 0 0 0 .707-.293c.188-.187.293-.445.293-.707a1 1 0 1 0-2 0c0 .262.105.52.293.707a1 1 0 0 0 .707.293zm0 0"/><path id="GX" d="M71.562 28.746c.262 0 .52-.105.707-.293a1 1 0 0 0 0-1.414c-.187-.187-.445-.293-.707-.293s-.52.105-.71.293-.29.44-.29.707.102.52.29.707.445.293.71.293zm0 0"/><path id="GY" d="M76.46 28.664a1 1 0 1 0 0-2 1 1 0 1 0 0 2zm0 0"/><path id="GZ" d="M20.613 36.656a1 1 0 0 0 1-1c0-.262-.105-.52-.293-.707a1 1 0 0 0-1.414 0 1.01 1.01 0 0 0-.293.707 1 1 0 0 0 1 1zm0 0"/><path id="Ga" d="M60.473 56.164c.262 0 .52-.105.707-.293a1 1 0 0 0 0-1.414c-.187-.187-.445-.293-.707-.293a1 1 0 1 0 0 2zm0 0"/><path id="Gb" d="M16.77 49.813a1 1 0 1 0 0-2c-.262 0-.52.105-.707.293a1 1 0 0 0 0 1.414c.188.188.445.293.707.293zm0 0"/><path id="Gc" d="M12.53 52.22c.188 0 .367-.074.5-.207s.207-.312.207-.5-.074-.367-.207-.5-.312-.207-.5-.207-.367.074-.5.207-.207.313-.207.5.074.367.207.5.313.207.5.207zm0 0"/><path id="Gd" d="M3.95 51.035c.187 0 .367-.074.5-.207s.207-.312.207-.5-.074-.367-.207-.5-.312-.207-.5-.207-.367.074-.5.207-.207.313-.207.5.074.367.207.5.313.207.5.207zm0 0"/><path id="Ge" d="M31.578 29.81c.188 0 .367-.078.5-.207s.207-.312.207-.5a.7.7 0 0 0-.207-.5c-.133-.133-.312-.207-.5-.207s-.367.074-.5.207a.7.7 0 0 0-.207.5c0 .188.074.367.207.5s.313.207.5.207zm0 0"/></defs><path d="M125.424 113.3l10.757-8.4-33.96-20.872L67.26 105.1l-42.19-2.017-17.173-2.37 28.722-7.118 23.726-35-24.975 16.4 40 10.446 30.563-28.5 35.193-5.878 13.257 2.776-5.877 14.993 5.683-12.28-14.87-2.798-36.7 8.745L76.206 85.72l-41.97-16.018 28.956-11.466L23.67 82.46 8.637 98.11l15.635 2.57 35.67-4.753 46.222-7.324 28.617 23.42-9.358 1.274-8.73 2.33 9.302-2.47 8.615-9.63-35.58-19.996L61.16 99.025l-39.022 2.268L7.7 96.836l24.318-12.413 24.17-27.688L40.635 77.2l25.235-8.005 41.412-12.883 45.73-.955-4.502 13.468 4.462-11.747-17.6-10.616-35.746 15.423-33.73 12.6-24.654-3.134 13.24-12.617L31.1 86.252l-16.424 7.48 14.73 1.57 34.44-3.478 47.153.1 21.67 16.846-10.06 4.562-5.9 2.292 10.867-1.533-1.83-13.288-31.893-14.462-38.022 8.1-27.75 3.518-11.927-2.212L37.045 81.94l22.553-17.3-11.126 16.95L76.424 71.4l37.772-16.07 31.592-2.702 7.435.697-4.713 15.5 3.306-14.3-21.74-4.508-64.097 27.284-21.967-2.762 8.615-13.36L32.89 84.165 27.182 94.27l13.233 2.634 31.042-1.14 39.89-4.698 20.52 18.65-10.85.673-4.323 5.237 11.257-3.382-4.423-12.788L88.86 86.908 60.525 98.783l-26.962-1.1-8.77-7.05 17.4-9.513 21.96-3.362-12.297-1.54 28.18-8.98 34.042-13.964 32.81.68 5.167.36-3.534 14.517 3.134-16.63-25.795 2.047-32.28 8.73L64.2 75.28l-14.282.24 4.322-7.145-20.33 15.698 1.156 9.55 10.953 2.792 26.455-6.808 40.97 5.55 15.94 14.783-9.436 2.345-3.252 3.338 11.56-4.33-6.458-9.317L84.58 87.82l-29.787 8.517-21.403-.36 1.555-7.944 10.318-9.966 8.425-12.483.672 9.537 29.25-6.627 35.505-11.807 28.556-.054 3.502 3.025-2.665 9.194 1.148-2.962-.72-8.96-23.38-.5-32.3 12.427-28.14 9.013-14.095-4.41.78-2.993L33.94 85.095l.226 7.294 12.397 2.902 29.985-5.59 41.18 2.845 11.967 19.292-10.24 1.46-2.768 2.354 2.072-1.837 10.482-2.65-11.515-18.62-37.272-1.64-30.757 5.753-17.604-5.237 7.044-2.596 12.427-13.5 1.29-3.943 7.754 3.47 28.79-7.66 31.938-17.89 27.468 4.79 1.93 8.38-2.227 6.356 2.665-9.194-3.502-3.025-26.327-7.333-37.422 18.62-25.774 8.48-2.612-4.416-5.933 6.884-12.628 8.45-2.133 6.536 18.55 2.674 32.535-4.913 33.63 5.847 8.755 15.197-10.474 2.447-1.15.547 2.768-2.354 10.24-1.46-15.063-16.75-39.256-4.263-29.744 4.347-14.218-3.598 3.518-5.613 19.958-13.516-2.882 2.08 10-.804 28.86-9.42 34.7-7.872 24.374-2.174-1.42 14.595 3.87-12.28-5.175-2.712L80.51 67.58l-26.14 7.544 5.02-4.236-15.212 8.037" stroke-width=".5" stroke-linecap="square" stroke-opacity=".7" class="O P Q U"/><g transform="scale(2.001156)"><g clip-path="url(#A)" class="R"><use xlink:href="#GW"/></g><g clip-path="url(#B)" class="Q S O P"><use xlink:href="#GW"/></g><g clip-path="url(#C)" class="R"><path d="M71.563 28.746c.262 0 .52-.105.707-.293a1 1 0 0 0 0-1.414c-.187-.187-.445-.293-.707-.293s-.52.105-.7.293-.3.44-.3.707a.99.99 0 0 0 .29.707 1.01 1.01 0 0 0 .71.293zm0 0"/></g><g clip-path="url(#D)" class="Q S O P"><use xlink:href="#GX"/></g><g clip-path="url(#E)" class="R"><use xlink:href="#GY"/></g><g clip-path="url(#F)" class="Q S O P"><use xlink:href="#GY"/></g><g clip-path="url(#G)" class="R"><path d="M74.2 35.395a1 1 0 1 0 0-2 1 1 0 1 0 0 2zm0 0"/></g><g clip-path="url(#H)" class="Q S O P"><path d="M74.2 35.395a1 1 0 1 0 0-2 1 1 0 1 0 0 2zm0 0"/></g><g clip-path="url(#I)" class="R"><path d="M74.2 35.395a1 1 0 1 0 0-2 1 1 0 1 0 0 2zm0 0"/></g><g clip-path="url(#J)" class="Q S O P"><path d="M74.2 35.395a1 1 0 1 0 0-2 1 1 0 1 0 0 2zm0 0"/></g><g clip-path="url(#K)" class="R"><path d="M76.44 29.523a1 1 0 1 0 0-2 1 1 0 1 0 0 2zm0 0"/></g><g clip-path="url(#L)" class="Q S O P"><path d="M76.44 29.523a1 1 0 1 0 0-2 1 1 0 1 0 0 2zm0 0"/></g><g clip-path="url(#M)" class="R"><path d="M67.652 24.22a1 1 0 1 0 0-2 1 1 0 1 0 0 2zm0 0"/></g><g clip-path="url(#N)" class="Q S O P"><path d="M67.652 24.22a1 1 0 1 0 0-2 1 1 0 1 0 0 2zm0 0"/></g><g clip-path="url(#O)" class="R"><path d="M49.8 31.926a1 1 0 1 0 0-2 1 1 0 1 0 0 2zm0 0"/></g><g clip-path="url(#P)" class="Q S O P"><path d="M49.8 31.926a1 1 0 1 0 0-2 1 1 0 1 0 0 2zm0 0"/></g><g clip-path="url(#Q)" class="R"><path d="M32.934 38.223a1 1 0 1 0 0-2 1 1 0 1 0 0 2zm0 0"/></g><g clip-path="url(#R)" class="Q S O P"><path d="M32.934 38.223a1 1 0 1 0 0-2 1 1 0 1 0 0 2zm0 0"/></g><g clip-path="url(#S)" class="R"><use xlink:href="#GZ"/></g><g clip-path="url(#T)" class="Q S O P"><use xlink:href="#GZ"/></g><g clip-path="url(#U)" class="R"><path d="M27.23 30.352a1 1 0 1 0 0-2 1 1 0 1 0 0 2zm0 0"/></g><g clip-path="url(#V)" class="Q S O P"><path d="M27.23 30.352a1 1 0 1 0 0-2 1 1 0 1 0 0 2zm0 0"/></g><g clip-path="url(#W)" class="R"><path d="M15.54 44.102a1 1 0 0 0 1-1c0-.262-.105-.52-.293-.707a1 1 0 0 0-1.414 0 1.01 1.01 0 0 0-.293.707 1 1 0 0 0 1 1zm0 0"/></g><g clip-path="url(#X)" class="Q S O P"><path d="M15.54 44.102a1 1 0 0 0 1-1c0-.262-.105-.52-.293-.707a1 1 0 0 0-1.414 0 1.01 1.01 0 0 0-.293.707 1 1 0 0 0 1 1zm0 0"/></g><g clip-path="url(#Y)" class="R"><path d="M7.332 47.84a1 1 0 1 0 0-2 1 1 0 1 0 0 2zm0 0"/></g><g clip-path="url(#Z)" class="Q S O P"><path d="M7.332 47.84a1 1 0 1 0 0-2 1 1 0 1 0 0 2zm0 0"/></g><g clip-path="url(#a)" class="R"><path d="M14.7 48.625a1 1 0 1 0 0-2 1 1 0 1 0 0 2zm0 0"/></g><g clip-path="url(#b)" class="Q S O P"><path d="M14.7 48.625a1 1 0 1 0 0-2 1 1 0 1 0 0 2zm0 0"/></g><g clip-path="url(#c)" class="R"><path d="M31.902 46.887a1 1 0 1 0 0-2 1 1 0 1 0 0 2zm0 0"/></g><g clip-path="url(#d)" class="Q S O P"><path d="M31.902 46.887a1 1 0 1 0 0-2 1 1 0 1 0 0 2zm0 0"/></g><g clip-path="url(#e)" class="R"><path d="M55.465 46.938a1 1 0 1 0 0-2 1 1 0 1 0 0 2zm0 0"/></g><g clip-path="url(#f)" class="Q S O P"><path d="M55.465 46.938a1 1 0 1 0 0-2 1 1 0 1 0 0 2zm0 0"/></g><g clip-path="url(#g)" class="R"><path d="M66.293 55.355a1 1 0 1 0 0-2 1 1 0 1 0 0 2zm0 0"/></g><g clip-path="url(#h)" class="Q S O P"><path d="M66.293 55.355a1 1 0 1 0 0-2 1 1 0 1 0 0 2zm0 0"/></g><g clip-path="url(#i)" class="R"><path d="M61.266 57.637a1 1 0 1 0 0-2 1 1 0 1 0 0 2zm0 0"/></g><g clip-path="url(#j)" class="Q S O P"><path d="M61.266 57.637a1 1 0 1 0 0-2 1 1 0 1 0 0 2zm0 0"/></g><g clip-path="url(#k)" class="R"><path d="M58.313 58.78a1 1 0 1 0 0-2 1 1 0 1 0 0 2zm0 0"/></g><g clip-path="url(#l)" class="Q S O P"><path d="M58.312 58.78a1 1 0 1 0 0-2 1 1 0 1 0 0 2zm0 0"/></g><g clip-path="url(#m)" class="R"><path d="M58.313 58.78a1 1 0 1 0 0-2 1 1 0 1 0 0 2zm0 0"/></g><g clip-path="url(#n)" class="Q S O P"><path d="M58.312 58.78a1 1 0 1 0 0-2 1 1 0 1 0 0 2zm0 0"/></g><g clip-path="url(#o)" class="R"><path d="M63.742 58.016a1 1 0 1 0 0-2 1 1 0 1 0 0 2zm0 0"/></g><g clip-path="url(#p)" class="Q S O P"><path d="M63.742 58.016a1 1 0 1 0 0-2 1 1 0 1 0 0 2zm0 0"/></g><g clip-path="url(#q)" class="R"><path d="M62.828 51.375a1 1 0 0 0 1-1c0-.262-.105-.52-.293-.707a1 1 0 0 0-1.414 0 1.01 1.01 0 0 0-.293.707 1 1 0 0 0 1 1zm0 0"/></g><g clip-path="url(#r)" class="Q S O P"><path d="M62.828 51.375a1 1 0 0 0 1-1c0-.262-.105-.52-.293-.707a1 1 0 0 0-1.414 0 1.01 1.01 0 0 0-.293.707 1 1 0 0 0 1 1zm0 0"/></g><g clip-path="url(#s)" class="R"><path d="M46.9 44.148a1 1 0 1 0 0-2 1 1 0 1 0 0 2zm0 0"/></g><g clip-path="url(#t)" class="Q S O P"><path d="M46.9 44.148a1 1 0 1 0 0-2 1 1 0 1 0 0 2zm0 0"/></g><g clip-path="url(#u)" class="R"><path d="M27.9 48.195a1 1 0 0 0 1-1c0-.262-.105-.52-.293-.707a1 1 0 0 0-1.414 0 1.01 1.01 0 0 0-.293.707 1 1 0 0 0 1 1zm0 0"/></g><g clip-path="url(#v)" class="Q S O P"><path d="M27.9 48.195a1 1 0 0 0 1-1c0-.262-.105-.52-.293-.707a1 1 0 0 0-1.414 0 1.01 1.01 0 0 0-.293.707 1 1 0 0 0 1 1zm0 0"/></g><g clip-path="url(#w)" class="R"><path d="M14.023 49.953a1 1 0 1 0 0-2 1 1 0 1 0 0 2zm0 0"/></g><g clip-path="url(#x)" class="Q S O P"><path d="M14.023 49.953a1 1 0 1 0 0-2 1 1 0 1 0 0 2zm0 0"/></g><g clip-path="url(#y)" class="R"><path d="M8.063 48.848a1 1 0 1 0 0-2 1 1 0 1 0 0 2zm0 0"/></g><g clip-path="url(#z)" class="Q S O P"><path d="M8.063 48.848a1 1 0 1 0 0-2 1 1 0 1 0 0 2zm0 0"/></g><g clip-path="url(#AA)" class="R"><path d="M18.508 41.938a1 1 0 1 0 0-2 1 1 0 1 0 0 2zm0 0"/></g><g clip-path="url(#AB)" class="Q S O P"><path d="M18.508 41.938a1 1 0 1 0 0-2 1 1 0 1 0 0 2zm0 0"/></g><g clip-path="url(#AC)" class="R"><path d="M29.777 33.293a1 1 0 1 0 0-2 1 1 0 1 0 0 2zm0 0"/></g><g clip-path="url(#AD)" class="Q S O P"><path d="M29.777 33.293a1 1 0 1 0 0-2 1 1 0 1 0 0 2zm0 0"/></g><g clip-path="url(#AE)" class="R"><path d="M24.22 41.762a1 1 0 1 0 0-2 1 1 0 1 0 0 2zm0 0"/></g><g clip-path="url(#AF)" class="Q S O P"><path d="M24.22 41.762a1 1 0 1 0 0-2 1 1 0 1 0 0 2zm0 0"/></g><g clip-path="url(#AG)" class="R"><path d="M38.2 36.68a1 1 0 1 0 0-2 1 1 0 1 0 0 2zm0 0"/></g><g clip-path="url(#AH)" class="Q S O P"><path d="M38.2 36.68a1 1 0 1 0 0-2 1 1 0 1 0 0 2zm0 0"/></g><g clip-path="url(#AK)" class="R"><path d="M72.852 27.3a1 1 0 1 0 0-2 1 1 0 1 0 0 2zm0 0"/></g><g clip-path="url(#AL)" class="Q S O P"><path d="M72.852 27.3a1 1 0 1 0 0-2 1 1 0 1 0 0 2zm0 0"/></g><g clip-path="url(#AM)" class="R"><path d="M76.566 27.648a1 1 0 1 0 0-2 1 1 0 1 0 0 2zm0 0"/></g><g clip-path="url(#AN)" class="Q S O P"><path d="M76.566 27.648a1 1 0 1 0 0-2 1 1 0 1 0 0 2zm0 0"/></g><g clip-path="url(#AO)" class="R"><path d="M74.2 35.395a1 1 0 1 0 0-2 1 1 0 1 0 0 2zm0 0"/></g><g clip-path="url(#AP)" class="Q S O P"><path d="M74.2 35.395a1 1 0 1 0 0-2 1 1 0 1 0 0 2zm0 0"/></g><g clip-path="url(#AQ)" class="R"><path d="M74.2 35.395a1 1 0 1 0 0-2 1 1 0 1 0 0 2zm0 0"/></g><g clip-path="url(#AR)" class="Q S O P"><path d="M74.2 35.395a1 1 0 1 0 0-2 1 1 0 1 0 0 2zm0 0"/></g><g clip-path="url(#AS)" class="R"><path d="M75.863 28.25a1 1 0 1 0 0-2 1 1 0 1 0 0 2zm0 0"/></g><g clip-path="url(#AT)" class="Q S O P"><path d="M75.863 28.25a1 1 0 1 0 0-2 1 1 0 1 0 0 2zm0 0"/></g><g clip-path="url(#AU)" class="R"><path d="M65 25.996a1 1 0 1 0 0-2 1 1 0 1 0 0 2zm0 0"/></g><g clip-path="url(#AV)" class="Q S O P"><path d="M65 25.996a1 1 0 1 0 0-2 1 1 0 1 0 0 2zm0 0"/></g><g clip-path="url(#AW)" class="R"><path d="M47.1 33.652a1 1 0 1 0 0-2 1 1 0 1 0 0 2zm0 0"/></g><g clip-path="url(#AX)" class="Q S O P"><path d="M47.1 33.652a1 1 0 1 0 0-2 1 1 0 1 0 0 2zm0 0"/></g><g clip-path="url(#AY)" class="R"><path d="M32.97 39.63a1 1 0 1 0 0-2 1 1 0 1 0 0 2zm0 0"/></g><g clip-path="url(#AZ)" class="Q S O P"><path d="M32.97 39.63a1 1 0 1 0 0-2 1 1 0 1 0 0 2zm0 0"/></g><g clip-path="url(#Aa)" class="R"><path d="M21.992 38.25a1 1 0 1 0 0-2 1 1 0 1 0 0 2zm0 0"/></g><g clip-path="url(#Ab)" class="Q S O P"><path d="M21.992 38.25a1 1 0 1 0 0-2 1 1 0 1 0 0 2zm0 0"/></g><g clip-path="url(#Ae)" class="R"><path d="M16.434 43.06a1 1 0 1 0 0-2 1 1 0 1 0 0 2zm0 0"/></g><g clip-path="url(#Af)" class="Q S O P"><path d="M16.434 43.06a1 1 0 1 0 0-2 1 1 0 1 0 0 2zm0 0"/></g><g clip-path="url(#Ai)" class="R"><path d="M20.195 49.426a1 1 0 1 0 0-2 1 1 0 1 0 0 2zm0 0"/></g><g clip-path="url(#Aj)" class="Q S O P"><path d="M20.195 49.426a1 1 0 1 0 0-2 1 1 0 1 0 0 2zm0 0"/></g><g clip-path="url(#Ak)" class="R"><path d="M35.707 48.855a1 1 0 1 0 0-2 1 1 0 1 0 0 2zm0 0"/></g><g clip-path="url(#Al)" class="Q S O P"><path d="M35.707 48.855a1 1 0 1 0 0-2 1 1 0 1 0 0 2zm0 0"/></g><g clip-path="url(#Am)" class="R"><path d="M55.64 46.508a1 1 0 1 0 0-2 1 1 0 1 0 0 2zm0 0"/></g><g clip-path="url(#An)" class="Q S O P"><path d="M55.64 46.508a1 1 0 1 0 0-2 1 1 0 1 0 0 2zm0 0"/></g><g clip-path="url(#Ao)" class="R"><path d="M65.895 55.828a1 1 0 1 0 0-2 1 1 0 1 0 0 2zm0 0"/></g><g clip-path="url(#Ap)" class="Q S O P"><path d="M65.895 55.828a1 1 0 1 0 0-2 1 1 0 1 0 0 2zm0 0"/></g><g clip-path="url(#Aq)" class="R"><use xlink:href="#Ga"/></g><g clip-path="url(#Ar)" class="Q S O P"><use xlink:href="#Ga"/></g><g clip-path="url(#As)" class="R"><path d="M58.313 58.78a1 1 0 1 0 0-2 1 1 0 1 0 0 2zm0 0"/></g><g clip-path="url(#At)" class="Q S O P"><path d="M58.312 58.78a1 1 0 1 0 0-2 1 1 0 1 0 0 2zm0 0"/></g><g clip-path="url(#Au)" class="R"><path d="M58.313 58.78a1 1 0 1 0 0-2 1 1 0 1 0 0 2zm0 0"/></g><g clip-path="url(#Av)" class="Q S O P"><path d="M58.312 58.78a1 1 0 1 0 0-2 1 1 0 1 0 0 2zm0 0"/></g><g clip-path="url(#Aw)" class="R"><path d="M63.938 57.1a1 1 0 1 0 0-2 1 1 0 1 0 0 2zm0 0"/></g><g clip-path="url(#Ax)" class="Q S O P"><path d="M63.937 57.1a1 1 0 1 0 0-2 1 1 0 1 0 0 2zm0 0"/></g><g clip-path="url(#Ay)" class="R"><path d="M61.727 50.7a1 1 0 1 0 0-2 1 1 0 1 0 0 2zm0 0"/></g><g clip-path="url(#Az)" class="Q S O P"><path d="M61.727 50.7a1 1 0 1 0 0-2 1 1 0 1 0 0 2zm0 0"/></g><g clip-path="url(#BA)" class="R"><path d="M44.402 44.43a1 1 0 1 0 0-2 1 1 0 1 0 0 2zm0 0"/></g><g clip-path="url(#BB)" class="Q S O P"><path d="M44.402 44.43a1 1 0 1 0 0-2 1 1 0 1 0 0 2zm0 0"/></g><g clip-path="url(#BE)" class="R"><use xlink:href="#Gb"/></g><g clip-path="url(#BF)" class="Q S O P"><use xlink:href="#Gb"/></g><g clip-path="url(#BI)" class="R"><path d="M21.078 41.535a1 1 0 1 0 0-2 1 1 0 1 0 0 2zm0 0"/></g><g clip-path="url(#BJ)" class="Q S O P"><path d="M21.078 41.535a1 1 0 1 0 0-2 1 1 0 1 0 0 2zm0 0"/></g><g clip-path="url(#BK)" class="R"><path d="M32.05 39.855a1 1 0 1 0 0-2 1 1 0 1 0 0 2zm0 0"/></g><g clip-path="url(#BL)" class="Q S O P"><path d="M32.05 39.855a1 1 0 1 0 0-2 1 1 0 1 0 0 2zm0 0"/></g><g clip-path="url(#BM)" class="R"><path d="M25.906 39.086a1 1 0 1 0 0-2 1 1 0 1 0 0 2zm0 0"/></g><g clip-path="url(#BN)" class="Q S O P"><path d="M25.906 39.086a1 1 0 1 0 0-2 1 1 0 1 0 0 2zm0 0"/></g><g clip-path="url(#BO)" class="R"><path d="M39.988 34.598a1 1 0 1 0 0-2 1 1 0 1 0 0 2zm0 0"/></g><g clip-path="url(#BP)" class="Q S O P"><path d="M39.988 34.598a1 1 0 1 0 0-2 1 1 0 1 0 0 2zm0 0"/></g><g clip-path="url(#BQ)" class="R"><path d="M57 27.62a1 1 0 0 0 1-1c0-.262-.105-.52-.293-.707a1 1 0 0 0-1.414 0 1.01 1.01 0 0 0-.293.707 1 1 0 0 0 1 1zm0 0"/></g><g clip-path="url(#BR)" class="Q S O P"><path d="M57 27.62a1 1 0 0 0 1-1c0-.262-.105-.52-.293-.707a1 1 0 0 0-1.414 0 1.01 1.01 0 0 0-.293.707 1 1 0 0 0 1 1zm0 0"/></g><g clip-path="url(#BS)" class="R"><path d="M73.395 27.96a1 1 0 1 0 0-2 1 1 0 1 0 0 2zm0 0"/></g><g clip-path="url(#BT)" class="Q S O P"><path d="M73.395 27.96a1 1 0 1 0 0-2 1 1 0 1 0 0 2zm0 0"/></g><g clip-path="url(#BU)" class="R"><path d="M75.977 28.14a1 1 0 1 0 0-2 1 1 0 1 0 0 2zm0 0"/></g><g clip-path="url(#BV)" class="Q S O P"><path d="M75.977 28.14a1 1 0 1 0 0-2 1 1 0 1 0 0 2zm0 0"/></g><g clip-path="url(#BW)" class="R"><path d="M74.2 35.395a1 1 0 1 0 0-2 1 1 0 1 0 0 2zm0 0"/></g><g clip-path="url(#BX)" class="Q S O P"><path d="M74.2 35.395a1 1 0 1 0 0-2 1 1 0 1 0 0 2zm0 0"/></g><g clip-path="url(#BY)" class="R"><path d="M74.2 35.395a1 1 0 1 0 0-2 1 1 0 1 0 0 2zm0 0"/></g><g clip-path="url(#BZ)" class="Q S O P"><path d="M74.2 35.395a1 1 0 1 0 0-2 1 1 0 1 0 0 2zm0 0"/></g><g clip-path="url(#Bc)" class="R"><path d="M62.887 28.1a1 1 0 1 0 0-2 1 1 0 1 0 0 2zm0 0"/></g><g clip-path="url(#Bd)" class="Q S O P"><path d="M62.887 28.1a1 1 0 1 0 0-2 1 1 0 1 0 0 2zm0 0"/></g><g clip-path="url(#Be)" class="R"><path d="M46.758 32.473a1 1 0 1 0 0-2 1 1 0 1 0 0 2zm0 0"/></g><g clip-path="url(#Bf)" class="Q S O P"><path d="M46.758 32.473a1 1 0 1 0 0-2 1 1 0 1 0 0 2zm0 0"/></g><g clip-path="url(#Bg)" class="R"><path d="M32.082 38.62a1 1 0 1 0 0-2 1 1 0 1 0 0 2zm0 0"/></g><g clip-path="url(#Bh)" class="Q S O P"><path d="M32.082 38.62a1 1 0 1 0 0-2 1 1 0 1 0 0 2zm0 0"/></g><g clip-path="url(#Bi)" class="R"><path d="M24.945 38.742a1 1 0 0 0 .707-.293c.188-.187.293-.445.293-.707a1 1 0 1 0-2 0c0 .262.105.52.293.707a1 1 0 0 0 .707.293zm0 0"/></g><g clip-path="url(#Bj)" class="Q S O P"><path d="M24.945 38.742a1 1 0 0 0 .707-.293c.188-.187.293-.445.293-.707a1 1 0 1 0-2 0c0 .262.105.52.293.707a1 1 0 0 0 .707.293zm0 0"/></g><g clip-path="url(#Bk)" class="R"><path d="M27.105 35.172a1 1 0 1 0 0-2 1 1 0 1 0 0 2zm0 0"/></g><g clip-path="url(#Bl)" class="Q S O P"><path d="M27.105 35.172a1 1 0 1 0 0-2 1 1 0 1 0 0 2zm0 0"/></g><g clip-path="url(#Bm)" class="R"><path d="M16.945 43.016a1 1 0 1 0 0-2 1 1 0 1 0 0 2zm0 0"/></g><g clip-path="url(#Bn)" class="Q S O P"><path d="M16.945 43.016a1 1 0 1 0 0-2 1 1 0 1 0 0 2zm0 0"/></g><g clip-path="url(#Bo)" class="R"><path d="M17.523 47.8a1 1 0 0 0 1-1c0-.262-.105-.52-.293-.707a1 1 0 0 0-1.414 0 1.01 1.01 0 0 0-.293.707 1 1 0 0 0 1 1zm0 0"/></g><g clip-path="url(#Bp)" class="Q S O P"><path d="M17.523 47.8a1 1 0 0 0 1-1c0-.262-.105-.52-.293-.707a1 1 0 0 0-1.414 0 1.01 1.01 0 0 0-.293.707 1 1 0 0 0 1 1zm0 0"/></g><g clip-path="url(#Bq)" class="R"><path d="M22.996 49.184a1 1 0 0 0 .707-.293c.188-.187.293-.445.293-.707a1 1 0 1 0-2 0c0 .262.105.52.293.707a1 1 0 0 0 .707.293zm0 0"/></g><g clip-path="url(#Br)" class="Q S O P"><path d="M22.996 49.184a1 1 0 0 0 .707-.293c.188-.187.293-.445.293-.707a1 1 0 1 0-2 0c0 .262.105.52.293.707a1 1 0 0 0 .707.293zm0 0"/></g><g clip-path="url(#Bs)" class="R"><path d="M36.215 45.78a1 1 0 1 0 0-2c-.262 0-.52.105-.707.293a1 1 0 0 0 0 1.414c.188.188.445.293.707.293zm0 0"/></g><g clip-path="url(#Bt)" class="Q S O P"><path d="M36.215 45.78a1 1 0 1 0 0-2c-.262 0-.52.105-.707.293a1 1 0 0 0 0 1.414c.188.188.445.293.707.293zm0 0"/></g><g clip-path="url(#Bu)" class="R"><path d="M56.688 48.555a1 1 0 1 0 0-2 1 1 0 1 0 0 2zm0 0"/></g><g clip-path="url(#Bv)" class="Q S O P"><path d="M56.687 48.555a1 1 0 1 0 0-2 1 1 0 1 0 0 2zm0 0"/></g><g clip-path="url(#Bw)" class="R"><path d="M64.652 55.94a1 1 0 1 0 0-2 1 1 0 1 0 0 2zm0 0"/></g><g clip-path="url(#Bx)" class="Q S O P"><path d="M64.652 55.94a1 1 0 1 0 0-2 1 1 0 1 0 0 2zm0 0"/></g><g clip-path="url(#By)" class="R"><path d="M59.938 57.113a1 1 0 1 0 0-2 1 1 0 1 0 0 2zm0 0"/></g><g clip-path="url(#Bz)" class="Q S O P"><path d="M59.937 57.113a1 1 0 1 0 0-2 1 1 0 1 0 0 2zm0 0"/></g><g clip-path="url(#CA)" class="R"><path d="M58.313 58.78a1 1 0 1 0 0-2 1 1 0 1 0 0 2zm0 0"/></g><g clip-path="url(#CB)" class="Q S O P"><path d="M58.312 58.78a1 1 0 1 0 0-2 1 1 0 1 0 0 2zm0 0"/></g><g clip-path="url(#CC)" class="R"><path d="M58.313 58.78a1 1 0 1 0 0-2 1 1 0 1 0 0 2zm0 0"/></g><g clip-path="url(#CD)" class="Q S O P"><path d="M58.312 58.78a1 1 0 1 0 0-2 1 1 0 1 0 0 2zm0 0"/></g><g clip-path="url(#CE)" class="R"><path d="M64.1 56.617a1 1 0 1 0 0-2 1 1 0 1 0 0 2zm0 0"/></g><g clip-path="url(#CF)" class="Q S O P"><path d="M64.1 56.617a1 1 0 1 0 0-2 1 1 0 1 0 0 2zm0 0"/></g><g clip-path="url(#CG)" class="R"><path d="M60.863 51.96a1 1 0 1 0 0-2 1 1 0 1 0 0 2zm0 0"/></g><g clip-path="url(#CH)" class="Q S O P"><path d="M60.863 51.96a1 1 0 1 0 0-2 1 1 0 1 0 0 2zm0 0"/></g><g clip-path="url(#CI)" class="R"><path d="M42.266 44.887a1 1 0 1 0 0-2 1 1 0 1 0 0 2zm0 0"/></g><g clip-path="url(#CJ)" class="Q S O P"><path d="M42.266 44.887a1 1 0 1 0 0-2 1 1 0 1 0 0 2zm0 0"/></g><g clip-path="url(#CK)" class="R"><path d="M27.38 49.14a1 1 0 0 0 1-1c0-.262-.105-.52-.293-.707a1 1 0 0 0-1.414 0 1.01 1.01 0 0 0-.293.707 1 1 0 0 0 1 1zm0 0"/></g><g clip-path="url(#CL)" class="Q S O P"><path d="M27.38 49.14a1 1 0 0 0 1-1c0-.262-.105-.52-.293-.707a1 1 0 0 0-1.414 0 1.01 1.01 0 0 0-.293.707 1 1 0 0 0 1 1zm0 0"/></g><g clip-path="url(#CM)" class="R"><path d="M16.684 48.96a1 1 0 1 0 0-2 1 1 0 1 0 0 2zm0 0"/></g><g clip-path="url(#CN)" class="Q S O P"><path d="M16.684 48.96a1 1 0 1 0 0-2 1 1 0 1 0 0 2zm0 0"/></g><g clip-path="url(#CO)" class="R"><path d="M17.46 44.992a1 1 0 1 0 0-2 1 1 0 1 0 0 2zm0 0"/></g><g clip-path="url(#CP)" class="Q S O P"><path d="M17.46 44.992a1 1 0 1 0 0-2 1 1 0 1 0 0 2zm0 0"/></g><g clip-path="url(#CQ)" class="R"><path d="M22.617 40.012a1 1 0 1 0 0-2 1 1 0 1 0 0 2zm0 0"/></g><g clip-path="url(#CR)" class="Q S O P"><path d="M22.617 40.012a1 1 0 1 0 0-2 1 1 0 1 0 0 2zm0 0"/></g><g clip-path="url(#CS)" class="R"><path d="M26.828 33.773a1 1 0 1 0 0-2 1 1 0 1 0 0 2zm0 0"/></g><g clip-path="url(#CT)" class="Q S O P"><path d="M26.828 33.773a1 1 0 1 0 0-2 1 1 0 1 0 0 2zm0 0"/></g><g clip-path="url(#CU)" class="R"><path d="M27.164 38.54a1 1 0 1 0 0-2 1 1 0 1 0 0 2zm0 0"/></g><g clip-path="url(#CV)" class="Q S O P"><path d="M27.164 38.54a1 1 0 1 0 0-2 1 1 0 1 0 0 2zm0 0"/></g><g clip-path="url(#CW)" class="R"><path d="M41.78 35.227c.262 0 .52-.105.707-.293a1 1 0 0 0 0-1.414c-.187-.187-.445-.293-.707-.293a1 1 0 1 0 0 2zm0 0"/></g><g clip-path="url(#CX)" class="Q S O P"><path d="M41.78 35.227c.262 0 .52-.105.707-.293a1 1 0 0 0 0-1.414c-.187-.187-.445-.293-.707-.293a1 1 0 1 0 0 2zm0 0"/></g><g clip-path="url(#CY)" class="R"><path d="M59.523 29.316a1 1 0 1 0 0-2 1 1 0 1 0 0 2zm0 0"/></g><g clip-path="url(#CZ)" class="Q S O P"><path d="M59.523 29.316a1 1 0 1 0 0-2 1 1 0 1 0 0 2zm0 0"/></g><g clip-path="url(#Ca)" class="R"><path d="M73.793 29.3a1 1 0 1 0 0-2 1 1 0 1 0 0 2zm0 0"/></g><g clip-path="url(#Cb)" class="Q S O P"><path d="M73.793 29.3a1 1 0 1 0 0-2 1 1 0 1 0 0 2zm0 0"/></g><g clip-path="url(#Cc)" class="R"><path d="M75.543 30.8a1 1 0 1 0 0-2 1 1 0 1 0 0 2zm0 0"/></g><g clip-path="url(#Cd)" class="Q S O P"><path d="M75.543 30.8a1 1 0 1 0 0-2 1 1 0 1 0 0 2zm0 0"/></g><g clip-path="url(#Ce)" class="R"><path d="M74.2 35.395a1 1 0 1 0 0-2 1 1 0 1 0 0 2zm0 0"/></g><g clip-path="url(#Cf)" class="Q S O P"><path d="M74.2 35.395a1 1 0 1 0 0-2 1 1 0 1 0 0 2zm0 0"/></g><g clip-path="url(#Cg)" class="R"><path d="M74.785 33.914c.262 0 .52-.105.707-.293a1 1 0 0 0 0-1.414c-.187-.187-.445-.293-.707-.293a1 1 0 1 0 0 2zm0 0"/></g><g clip-path="url(#Ch)" class="Q S O P"><path d="M74.785 33.914c.262 0 .52-.105.707-.293a1 1 0 0 0 0-1.414c-.187-.187-.445-.293-.707-.293a1 1 0 1 0 0 2zm0 0"/></g><g clip-path="url(#Cq)" class="R"><path d="M25.496 37.7a1 1 0 1 0 0-2 1 1 0 1 0 0 2zm0 0"/></g><g clip-path="url(#Cr)" class="Q S O P"><path d="M25.496 37.7a1 1 0 1 0 0-2 1 1 0 1 0 0 2zm0 0"/></g><g clip-path="url(#Cs)" class="R"><path d="M25.887 36.203a1 1 0 1 0 0-2 1 1 0 1 0 0 2zm0 0"/></g><g clip-path="url(#Ct)" class="Q S O P"><path d="M25.887 36.203a1 1 0 1 0 0-2 1 1 0 1 0 0 2zm0 0"/></g><g clip-path="url(#Cu)" class="R"><path d="M16.96 43.512a1 1 0 1 0 0-2 1 1 0 1 0 0 2zm0 0"/></g><g clip-path="url(#Cv)" class="Q S O P"><path d="M16.96 43.512a1 1 0 1 0 0-2 1 1 0 1 0 0 2zm0 0"/></g><g clip-path="url(#Cw)" class="R"><path d="M17.074 47.156a1 1 0 1 0 0-2 1 1 0 1 0 0 2zm0 0"/></g><g clip-path="url(#Cx)" class="Q S O P"><path d="M17.074 47.156a1 1 0 1 0 0-2 1 1 0 1 0 0 2zm0 0"/></g><g clip-path="url(#Cy)" class="R"><path d="M23.27 48.605a1 1 0 1 0 0-2c-.262 0-.52.105-.707.293a1 1 0 0 0 0 1.414c.188.188.445.293.707.293zm0 0"/></g><g clip-path="url(#Cz)" class="Q S O P"><path d="M23.27 48.605a1 1 0 1 0 0-2c-.262 0-.52.105-.707.293a1 1 0 0 0 0 1.414c.188.188.445.293.707.293zm0 0"/></g><g clip-path="url(#DA)" class="R"><path d="M38.254 45.813a1 1 0 1 0 0-2 1 1 0 1 0 0 2zm0 0"/></g><g clip-path="url(#DB)" class="Q S O P"><path d="M38.254 45.813a1 1 0 1 0 0-2 1 1 0 1 0 0 2zm0 0"/></g><g clip-path="url(#DC)" class="R"><path d="M58.832 47.234a1 1 0 1 0 0-2 1 1 0 1 0 0 2zm0 0"/></g><g clip-path="url(#DD)" class="Q S O P"><path d="M58.832 47.234a1 1 0 1 0 0-2 1 1 0 1 0 0 2zm0 0"/></g><g clip-path="url(#DE)" class="R"><path d="M64.813 56.875a1 1 0 1 0 0-2 1 1 0 1 0 0 2zm0 0"/></g><g clip-path="url(#DF)" class="Q S O P"><path d="M64.813 56.875a1 1 0 1 0 0-2 1 1 0 1 0 0 2zm0 0"/></g><g clip-path="url(#DG)" class="R"><path d="M59.695 57.605a1 1 0 0 0 .707-.293c.188-.187.293-.445.293-.707a1 1 0 1 0-2 0c0 .262.105.52.293.707a1 1 0 0 0 .707.293zm0 0"/></g><g clip-path="url(#DH)" class="Q S O P"><path d="M59.695 57.605a1 1 0 0 0 .707-.293c.188-.187.293-.445.293-.707a1 1 0 1 0-2 0c0 .262.105.52.293.707a1 1 0 0 0 .707.293zm0 0"/></g><g clip-path="url(#DI)" class="R"><path d="M58.313 58.78a1 1 0 1 0 0-2 1 1 0 1 0 0 2zm0 0"/></g><g clip-path="url(#DJ)" class="Q S O P"><path d="M58.312 58.78a1 1 0 1 0 0-2 1 1 0 1 0 0 2zm0 0"/></g><g clip-path="url(#DK)" class="R"><path d="M59.348 57.863a1 1 0 1 0 0-2 1 1 0 1 0 0 2zm0 0"/></g><g clip-path="url(#DL)" class="Q S O P"><path d="M59.348 57.863a1 1 0 1 0 0-2 1 1 0 1 0 0 2zm0 0"/></g><g clip-path="url(#DM)" class="R"><path d="M64.586 56.54a1 1 0 1 0 0-2 1 1 0 1 0 0 2zm0 0"/></g><g clip-path="url(#DN)" class="Q S O P"><path d="M64.586 56.54a1 1 0 1 0 0-2 1 1 0 1 0 0 2zm0 0"/></g><g clip-path="url(#DO)" class="R"><path d="M58.832 47.234a1 1 0 1 0 0-2 1 1 0 1 0 0 2zm0 0"/></g><g clip-path="url(#DP)" class="Q S O P"><path d="M58.832 47.234a1 1 0 1 0 0-2 1 1 0 1 0 0 2zm0 0"/></g><g clip-path="url(#DQ)" class="R"><path d="M40.207 46.414a1 1 0 1 0 0-2c-.262 0-.52.105-.707.293a1 1 0 0 0 0 1.414c.188.188.445.293.707.293zm0 0"/></g><g clip-path="url(#DR)" class="Q S O P"><path d="M40.207 46.414a1 1 0 1 0 0-2c-.262 0-.52.105-.707.293a1 1 0 0 0 0 1.414c.188.188.445.293.707.293zm0 0"/></g><g clip-path="url(#DS)" class="R"><path d="M24.836 49.3c.262 0 .52-.105.707-.293a1 1 0 0 0 0-1.414c-.187-.187-.445-.293-.707-.293a1 1 0 1 0 0 2zm0 0"/></g><g clip-path="url(#DT)" class="Q S O P"><path d="M24.836 49.3c.262 0 .52-.105.707-.293a1 1 0 0 0 0-1.414c-.187-.187-.445-.293-.707-.293a1 1 0 1 0 0 2zm0 0"/></g><g clip-path="url(#DU)" class="R"><path d="M16.04 46.672a1 1 0 1 0 0-2 1 1 0 1 0 0 2zm0 0"/></g><g clip-path="url(#DV)" class="Q S O P"><path d="M16.04 46.672a1 1 0 1 0 0-2 1 1 0 1 0 0 2zm0 0"/></g><g clip-path="url(#DW)" class="R"><path d="M19.56 45.375a1 1 0 0 0 1-1c0-.262-.105-.52-.293-.707a1 1 0 0 0-1.414 0 1.01 1.01 0 0 0-.293.707 1 1 0 0 0 1 1zm0 0"/></g><g clip-path="url(#DX)" class="Q S O P"><path d="M19.56 45.375a1 1 0 0 0 1-1c0-.262-.105-.52-.293-.707a1 1 0 0 0-1.414 0 1.01 1.01 0 0 0-.293.707 1 1 0 0 0 1 1zm0 0"/></g><g clip-path="url(#DY)" class="R"><path d="M25.77 38.63a1 1 0 1 0 0-2 1 1 0 1 0 0 2zm0 0"/></g><g clip-path="url(#DZ)" class="Q S O P"><path d="M25.77 38.63a1 1 0 1 0 0-2 1 1 0 1 0 0 2zm0 0"/></g><g clip-path="url(#Da)" class="R"><path d="M26.414 36.66a1 1 0 0 0 .707-.293c.188-.187.293-.445.293-.707a1 1 0 1 0-2 0c0 .262.105.52.293.707a1 1 0 0 0 .707.293zm0 0"/></g><g clip-path="url(#Db)" class="Q S O P"><path d="M26.414 36.66a1 1 0 0 0 .707-.293c.188-.187.293-.445.293-.707a1 1 0 1 0-2 0c0 .262.105.52.293.707a1 1 0 0 0 .707.293zm0 0"/></g><g clip-path="url(#Dc)" class="R"><path d="M30.3 38.395a1 1 0 1 0 0-2 1 1 0 1 0 0 2zm0 0"/></g><g clip-path="url(#Dd)" class="Q S O P"><path d="M30.3 38.395a1 1 0 1 0 0-2 1 1 0 1 0 0 2zm0 0"/></g><g clip-path="url(#De)" class="R"><path d="M44.676 34.566a1 1 0 1 0 0-2 1 1 0 1 0 0 2zm0 0"/></g><g clip-path="url(#Df)" class="Q S O P"><path d="M44.676 34.566a1 1 0 1 0 0-2 1 1 0 1 0 0 2zm0 0"/></g><g clip-path="url(#Dg)" class="R"><path d="M60.637 25.625a1 1 0 1 0 0-2 1 1 0 1 0 0 2zm0 0"/></g><g clip-path="url(#Dh)" class="Q S O P"><path d="M60.637 25.625a1 1 0 1 0 0-2 1 1 0 1 0 0 2zm0 0"/></g><g clip-path="url(#Di)" class="R"><path d="M74.36 28.03a1 1 0 1 0 0-2 1 1 0 1 0 0 2zm0 0"/></g><g clip-path="url(#Dj)" class="Q S O P"><path d="M74.36 28.03a1 1 0 1 0 0-2 1 1 0 1 0 0 2zm0 0"/></g><g clip-path="url(#Dm)" class="R"><path d="M74.2 35.395a1 1 0 1 0 0-2 1 1 0 1 0 0 2zm0 0"/></g><g clip-path="url(#Dn)" class="Q S O P"><path d="M74.2 35.395a1 1 0 1 0 0-2 1 1 0 1 0 0 2zm0 0"/></g><g clip-path="url(#Do)" class="R"><path d="M75.543 30.8a1 1 0 1 0 0-2 1 1 0 1 0 0 2zm0 0"/></g><g clip-path="url(#Dp)" class="Q S O P"><path d="M75.543 30.8a1 1 0 1 0 0-2 1 1 0 1 0 0 2zm0 0"/></g><g clip-path="url(#Dq)" class="R"><path d="M73.793 29.3a1 1 0 1 0 0-2 1 1 0 1 0 0 2zm0 0"/></g><g clip-path="url(#Dr)" class="Q S O P"><path d="M73.793 29.3a1 1 0 1 0 0-2 1 1 0 1 0 0 2zm0 0"/></g><g clip-path="url(#Ds)" class="R"><path d="M60.637 25.625a1 1 0 1 0 0-2 1 1 0 1 0 0 2zm0 0"/></g><g clip-path="url(#Dt)" class="Q S O P"><path d="M60.637 25.625a1 1 0 1 0 0-2 1 1 0 1 0 0 2zm0 0"/></g><g clip-path="url(#Du)" class="R"><path d="M41.938 34.93a1 1 0 1 0 0-2c-.262 0-.52.105-.707.293a1 1 0 0 0 0 1.414c.188.188.445.293.707.293zm0 0"/></g><g clip-path="url(#Dv)" class="Q S O P"><path d="M41.938 34.93a1 1 0 1 0 0-2c-.262 0-.52.105-.707.293a1 1 0 0 0 0 1.414c.188.188.445.293.707.293zm0 0"/></g><g clip-path="url(#Dw)" class="R"><path d="M29.06 39.168a1 1 0 1 0 0-2 1 1 0 1 0 0 2zm0 0"/></g><g clip-path="url(#Dx)" class="Q S O P"><path d="M29.06 39.168a1 1 0 1 0 0-2 1 1 0 1 0 0 2zm0 0"/></g><g clip-path="url(#Dy)" class="R"><path d="M27.754 36.96a1 1 0 0 0 1-1c0-.262-.105-.52-.293-.707a1 1 0 0 0-1.414 0 1.01 1.01 0 0 0-.293.707 1 1 0 0 0 1 1zm0 0"/></g><g clip-path="url(#Dz)" class="Q S O P"><path d="M27.754 36.96a1 1 0 0 0 1-1c0-.262-.105-.52-.293-.707a1 1 0 0 0-1.414 0 1.01 1.01 0 0 0-.293.707 1 1 0 0 0 1 1zm0 0"/></g><g clip-path="url(#EA)" class="R"><path d="M24.8 40.402a1 1 0 1 0 0-2 1 1 0 1 0 0 2zm0 0"/></g><g clip-path="url(#EB)" class="Q S O P"><path d="M24.8 40.402a1 1 0 1 0 0-2 1 1 0 1 0 0 2zm0 0"/></g><g clip-path="url(#EC)" class="R"><path d="M18.48 44.625c.262 0 .52-.105.707-.293a1 1 0 0 0 0-1.414c-.187-.187-.445-.293-.707-.293a1 1 0 1 0 0 2zm0 0"/></g><g clip-path="url(#ED)" class="Q S O P"><path d="M18.48 44.625c.262 0 .52-.105.707-.293a1 1 0 0 0 0-1.414c-.187-.187-.445-.293-.707-.293a1 1 0 1 0 0 2zm0 0"/></g><g clip-path="url(#EE)" class="R"><path d="M17.414 47.9a1 1 0 0 0 .707-.293c.188-.187.293-.445.293-.707a1 1 0 1 0-2 0c0 .262.105.52.293.707a1 1 0 0 0 .707.293zm0 0"/></g><g clip-path="url(#EF)" class="Q S O P"><path d="M17.414 47.9a1 1 0 0 0 .707-.293c.188-.187.293-.445.293-.707a1 1 0 1 0-2 0c0 .262.105.52.293.707a1 1 0 0 0 .707.293zm0 0"/></g><g clip-path="url(#EG)" class="R"><path d="M26.684 49.227a1 1 0 1 0 0-2 1 1 0 1 0 0 2zm0 0"/></g><g clip-path="url(#EH)" class="Q S O P"><path d="M26.684 49.227a1 1 0 1 0 0-2 1 1 0 1 0 0 2zm0 0"/></g><g clip-path="url(#EI)" class="R"><path d="M42.94 46.77c.262 0 .52-.105.707-.293a1 1 0 0 0 0-1.414c-.187-.187-.445-.293-.707-.293s-.52.105-.71.293-.29.44-.29.707.102.52.29.707.445.293.71.293zm0 0"/></g><g clip-path="url(#EJ)" class="Q S O P"><path d="M42.94 46.77c.262 0 .52-.105.707-.293a1 1 0 0 0 0-1.414c-.187-.187-.445-.293-.707-.293s-.52.105-.71.293-.29.44-.29.707.102.52.29.707.445.293.71.293zm0 0"/></g><g clip-path="url(#EK)" class="R"><path d="M59.746 49.7a1 1 0 1 0 0-2 1 1 0 1 0 0 2zm0 0"/></g><g clip-path="url(#EL)" class="Q S O P"><path d="M59.746 49.7a1 1 0 1 0 0-2 1 1 0 1 0 0 2zm0 0"/></g><g clip-path="url(#EM)" class="R"><path d="M64.12 57.285a1 1 0 1 0 0-2 1 1 0 1 0 0 2zm0 0"/></g><g clip-path="url(#EN)" class="Q S O P"><path d="M64.12 57.285a1 1 0 1 0 0-2 1 1 0 1 0 0 2zm0 0"/></g><g clip-path="url(#EO)" class="R"><path d="M58.887 58.508a1 1 0 1 0 0-2 1 1 0 1 0 0 2zm0 0"/></g><g clip-path="url(#EP)" class="Q S O P"><path d="M58.887 58.508a1 1 0 1 0 0-2 1 1 0 1 0 0 2zm0 0"/></g><g clip-path="url(#EQ)" class="R"><path d="M58.313 58.78a1 1 0 1 0 0-2 1 1 0 1 0 0 2zm0 0"/></g><g clip-path="url(#ER)" class="Q S O P"><path d="M58.312 58.78a1 1 0 1 0 0-2 1 1 0 1 0 0 2zm0 0"/></g><g clip-path="url(#ES)" class="R"><path d="M59.695 57.605a1 1 0 0 0 .707-.293c.188-.187.293-.445.293-.707a1 1 0 1 0-2 0c0 .262.105.52.293.707a1 1 0 0 0 .707.293zm0 0"/></g><g clip-path="url(#ET)" class="Q S O P"><path d="M59.695 57.605a1 1 0 0 0 .707-.293c.188-.187.293-.445.293-.707a1 1 0 1 0-2 0c0 .262.105.52.293.707a1 1 0 0 0 .707.293zm0 0"/></g><g clip-path="url(#EU)" class="R"><path d="M64.813 56.875a1 1 0 1 0 0-2 1 1 0 1 0 0 2zm0 0"/></g><g clip-path="url(#EV)" class="Q S O P"><path d="M64.813 56.875a1 1 0 1 0 0-2 1 1 0 1 0 0 2zm0 0"/></g><g clip-path="url(#EW)" class="R"><path d="M57.285 48.504a1 1 0 1 0 0-2 1 1 0 1 0 0 2zm0 0"/></g><g clip-path="url(#EX)" class="Q S O P"><path d="M57.285 48.504a1 1 0 1 0 0-2 1 1 0 1 0 0 2zm0 0"/></g><g clip-path="url(#EY)" class="R"><path d="M37.668 46.375a1 1 0 1 0 0-2 1 1 0 1 0 0 2zm0 0"/></g><g clip-path="url(#EZ)" class="Q S O P"><path d="M37.668 46.375a1 1 0 1 0 0-2 1 1 0 1 0 0 2zm0 0"/></g><g clip-path="url(#Ec)" class="R"><path d="M15.7 46.75a1 1 0 1 0 0-2 1 1 0 1 0 0 2zm0 0"/></g><g clip-path="url(#Ed)" class="Q S O P"><path d="M15.7 46.75a1 1 0 1 0 0-2 1 1 0 1 0 0 2zm0 0"/></g><g clip-path="url(#Ee)" class="R"><path d="M17.457 43.945a1 1 0 1 0 0-2 1 1 0 1 0 0 2zm0 0"/></g><g clip-path="url(#Ef)" class="Q S O P"><path d="M17.457 43.945a1 1 0 1 0 0-2 1 1 0 1 0 0 2zm0 0"/></g><g clip-path="url(#Eg)" class="R"><path d="M27.43 37.2c.262 0 .52-.105.707-.293a1 1 0 0 0 0-1.414c-.187-.187-.445-.293-.707-.293a1 1 0 1 0 0 2zm0 0"/></g><g clip-path="url(#Eh)" class="Q S O P"><path d="M27.43 37.2c.262 0 .52-.105.707-.293a1 1 0 0 0 0-1.414c-.187-.187-.445-.293-.707-.293a1 1 0 1 0 0 2zm0 0"/></g><g clip-path="url(#Ek)" class="R"><path d="M30.98 37.828a1 1 0 0 0 .707-.293c.188-.187.293-.445.293-.707a1 1 0 1 0-2 0c0 .262.105.52.293.707a1 1 0 0 0 .707.293zm0 0"/></g><g clip-path="url(#El)" class="Q S O P"><path d="M30.98 37.828a1 1 0 0 0 .707-.293c.188-.187.293-.445.293-.707a1 1 0 1 0-2 0c0 .262.105.52.293.707a1 1 0 0 0 .707.293zm0 0"/></g><g clip-path="url(#Em)" class="R"><path d="M45.402 33.12c.262 0 .52-.105.707-.293a1 1 0 0 0 0-1.414c-.187-.187-.445-.293-.707-.293a1 1 0 1 0 0 2zm0 0"/></g><g clip-path="url(#En)" class="Q S O P"><path d="M45.402 33.12c.262 0 .52-.105.707-.293a1 1 0 0 0 0-1.414c-.187-.187-.445-.293-.707-.293a1 1 0 1 0 0 2zm0 0"/></g><g clip-path="url(#Eq)" class="R"><path d="M74.922 28.102a1 1 0 0 0 .707-.293c.188-.187.293-.445.293-.707a1 1 0 1 0-2 0c0 .262.105.52.293.707a1 1 0 0 0 .707.293zm0 0"/></g><g clip-path="url(#Er)" class="Q S O P"><path d="M74.922 28.102a1 1 0 0 0 .707-.293c.188-.187.293-.445.293-.707a1 1 0 1 0-2 0c0 .262.105.52.293.707a1 1 0 0 0 .707.293zm0 0"/></g><g clip-path="url(#Es)" class="R"><path d="M74.2 35.395a1 1 0 1 0 0-2 1 1 0 1 0 0 2zm0 0"/></g><g clip-path="url(#Et)" class="Q S O P"><path d="M74.2 35.395a1 1 0 1 0 0-2 1 1 0 1 0 0 2zm0 0"/></g><g clip-path="url(#Eu)" class="R"><path d="M74.2 35.395a1 1 0 1 0 0-2 1 1 0 1 0 0 2zm0 0"/></g><g clip-path="url(#Ev)" class="Q S O P"><path d="M74.2 35.395a1 1 0 1 0 0-2 1 1 0 1 0 0 2zm0 0"/></g><g clip-path="url(#Ew)" class="R"><path d="M76.145 29.258a1 1 0 1 0 0-2 1 1 0 1 0 0 2zm0 0"/></g><g clip-path="url(#Ex)" class="Q S O P"><path d="M76.145 29.258a1 1 0 1 0 0-2 1 1 0 1 0 0 2zm0 0"/></g><g clip-path="url(#Ey)" class="R"><path d="M73.56 27.902a1 1 0 0 0 .707-.293c.188-.187.293-.445.293-.707a1 1 0 1 0-2 0c0 .262.105.52.293.707a1 1 0 0 0 .707.293zm0 0"/></g><g clip-path="url(#Ez)" class="Q S O P"><path d="M73.56 27.902a1 1 0 0 0 .707-.293c.188-.187.293-.445.293-.707a1 1 0 1 0-2 0c0 .262.105.52.293.707a1 1 0 0 0 .707.293zm0 0"/></g><g clip-path="url(#FA)" class="R"><path d="M58.375 31.027a1 1 0 1 0 0-2 1 1 0 1 0 0 2zm0 0"/></g><g clip-path="url(#FB)" class="Q S O P"><path d="M58.375 31.027a1 1 0 1 0 0-2 1 1 0 1 0 0 2zm0 0"/></g><g clip-path="url(#FC)" class="R"><path d="M40.227 34.77a1 1 0 1 0 0-2 1 1 0 1 0 0 2zm0 0"/></g><g clip-path="url(#FD)" class="Q S O P"><path d="M40.227 34.77a1 1 0 1 0 0-2 1 1 0 1 0 0 2zm0 0"/></g><g clip-path="url(#FE)" class="R"><path d="M27.164 38.54a1 1 0 1 0 0-2 1 1 0 1 0 0 2zm0 0"/></g><g clip-path="url(#FF)" class="Q S O P"><path d="M27.164 38.54a1 1 0 1 0 0-2 1 1 0 1 0 0 2zm0 0"/></g><g clip-path="url(#FG)" class="R"><path d="M29.672 36.422a1 1 0 1 0 0-2 1 1 0 1 0 0 2zm0 0"/></g><g clip-path="url(#FH)" class="Q S O P"><path d="M29.672 36.422a1 1 0 1 0 0-2 1 1 0 1 0 0 2zm0 0"/></g><g clip-path="url(#FI)" class="R"><path d="M22.07 40.438a1 1 0 1 0 0-2 1 1 0 1 0 0 2zm0 0"/></g><g clip-path="url(#FJ)" class="Q S O P"><path d="M22.07 40.438a1 1 0 1 0 0-2 1 1 0 1 0 0 2zm0 0"/></g><g class="T"><g clip-path="url(#FP)" class="U O P"><use xlink:href="#Gc"/></g><g clip-path="url(#FQ)"><path d="M3.95 51.035c.188 0 .367-.074.5-.207s.207-.312.207-.5-.074-.367-.207-.5-.312-.207-.5-.207-.367.074-.5.207-.207.313-.207.5.074.367.207.5.313.207.5.207zm0 0"/></g></g><g clip-path="url(#FR)" class="Q U O P"><use xlink:href="#Gd"/></g><g clip-path="url(#FS)" class="T"><path d="M18.3 47.477c.188 0 .367-.074.5-.207s.207-.312.207-.5-.074-.367-.207-.5-.312-.207-.5-.207-.367.074-.5.207-.207.313-.207.5.074.367.207.5.313.207.5.207zm0 0"/></g><g clip-path="url(#FT)" class="Q U O P"><path d="M18.3 47.477c.187 0 .367-.074.5-.207s.207-.312.207-.5-.074-.367-.207-.5-.312-.207-.5-.207-.367.074-.5.207-.207.313-.207.5.074.367.207.5.313.207.5.207zm0 0"/></g><g clip-path="url(#FU)" class="T"><path d="M30.156 29.988c.188 0 .367-.074.5-.207s.207-.312.207-.5-.074-.367-.207-.5-.312-.207-.5-.207-.367.074-.5.207-.207.313-.207.5.074.367.207.5.313.207.5.207zm0 0"/></g><g class="U O P"><g clip-path="url(#FV)" class="Q"><path d="M30.156 29.988c.187 0 .367-.074.5-.207s.207-.312.207-.5-.074-.367-.207-.5-.312-.207-.5-.207-.367.074-.5.207-.207.313-.207.5.074.367.207.5.313.207.5.207zm0 0"/></g><g class="T"><g clip-path="url(#FW)"><path d="M17.676 38.184c.187 0 .367-.074.5-.207s.207-.312.207-.5-.074-.367-.207-.5-.312-.207-.5-.207-.367.074-.5.207-.207.313-.207.5.074.367.207.5.313.207.5.207zm0 0"/></g><g clip-path="url(#FX)"><path d="M37.664 43.402c.188 0 .367-.074.5-.207s.207-.312.207-.5-.074-.367-.207-.5-.312-.207-.5-.207-.367.074-.5.207-.207.313-.207.5.074.367.207.5.313.207.5.207zm0 0"/></g></g></g><g clip-path="url(#FY)" class="T"><path d="M52.938 29.16c.188 0 .367-.074.5-.207s.207-.312.207-.5-.074-.367-.207-.5-.312-.207-.5-.207-.367.074-.5.207-.207.313-.207.5.074.367.207.5.313.207.5.207zm0 0"/></g><g class="U O P"><g clip-path="url(#FZ)" class="Q"><path d="M52.937 29.16c.188 0 .367-.074.5-.207s.207-.312.207-.5-.074-.367-.207-.5-.312-.207-.5-.207-.367.074-.5.207-.207.313-.207.5.074.367.207.5.313.207.5.207zm0 0"/></g><g clip-path="url(#Fa)" class="T"><path d="M70.523 26.223c.187 0 .367-.074.5-.207s.207-.312.207-.5-.074-.367-.207-.5-.312-.207-.5-.207-.367.074-.5.207-.207.313-.207.5.074.367.207.5.313.207.5.207zm0 0"/></g><g clip-path="url(#Fb)" class="Q"><path d="M77.148 27.6c.188 0 .367-.074.5-.207s.207-.312.207-.5-.074-.367-.207-.5-.312-.207-.5-.207-.367.074-.5.207-.207.313-.207.5.074.367.207.5.313.207.5.207zm0 0"/></g></g><g clip-path="url(#Fc)" class="T"><path d="M74.2 35.102c.188 0 .367-.074.5-.207s.207-.312.207-.5-.074-.367-.207-.5-.312-.207-.5-.207-.367.074-.5.207-.207.313-.207.5.074.367.207.5.313.207.5.207zm0 0"/></g><g clip-path="url(#Fd)" class="Q U O P"><path d="M74.2 35.102c.188 0 .367-.074.5-.207s.207-.312.207-.5-.074-.367-.207-.5-.312-.207-.5-.207-.367.074-.5.207-.207.313-.207.5.074.367.207.5.313.207.5.207zm0 0"/></g><g clip-path="url(#Fe)" class="T"><path d="M74.2 35.102c.188 0 .367-.074.5-.207s.207-.312.207-.5-.074-.367-.207-.5-.312-.207-.5-.207-.367.074-.5.207-.207.313-.207.5.074.367.207.5.313.207.5.207zm0 0"/></g><g class="Q U O P"><g clip-path="url(#Ff)"><path d="M74.2 35.102c.188 0 .367-.074.5-.207s.207-.312.207-.5-.074-.367-.207-.5-.312-.207-.5-.207-.367.074-.5.207-.207.313-.207.5.074.367.207.5.313.207.5.207zm0 0"/></g><g clip-path="url(#Fh)"><path d="M77.05 28.965c.187 0 .367-.078.5-.207s.207-.312.207-.5a.7.7 0 0 0-.207-.5c-.133-.133-.312-.207-.5-.207s-.367.074-.5.207a.7.7 0 0 0-.207.5c0 .188.074.367.207.5s.313.207.5.207zm0 0"/></g></g><g clip-path="url(#Fi)" class="T"><path d="M69.62 27.566c.188 0 .367-.074.5-.207s.207-.312.207-.5-.074-.367-.207-.5-.312-.207-.5-.207-.367.074-.5.207-.207.313-.207.5.074.367.207.5.313.207.5.207zm0 0"/></g><g clip-path="url(#Fj)" class="Q U O P"><path d="M69.62 27.566c.187 0 .367-.074.5-.207s.207-.312.207-.5-.074-.367-.207-.5-.312-.207-.5-.207-.367.074-.5.207-.207.313-.207.5.074.367.207.5.313.207.5.207zm0 0"/></g><g clip-path="url(#Fk)" class="T"><path d="M51.28 31.938c.188 0 .367-.074.5-.207s.207-.312.207-.5-.074-.367-.207-.5-.312-.207-.5-.207-.367.074-.5.207-.207.313-.207.5.074.367.207.5.313.207.5.207zm0 0"/></g><g class="Q U O P"><g clip-path="url(#Fl)"><path d="M51.28 31.938c.187 0 .367-.074.5-.207s.207-.312.207-.5-.074-.367-.207-.5-.312-.207-.5-.207-.367.074-.5.207-.207.313-.207.5.074.367.207.5.313.207.5.207zm0 0"/></g><g clip-path="url(#Fn)"><path d="M17.1 35.54c.188 0 .367-.074.5-.207s.207-.312.207-.5-.074-.367-.207-.5-.312-.207-.5-.207-.367.074-.5.207-.207.313-.207.5.074.367.207.5.313.207.5.207zm0 0"/></g></g><g clip-path="url(#Fo)" class="T"><use xlink:href="#Ge"/></g><g clip-path="url(#Fq)" class="Q U O P"><path d="M11.828 41.914c.188 0 .367-.074.5-.207s.207-.312.207-.5-.074-.367-.207-.5-.312-.207-.5-.207-.367.074-.5.207-.207.313-.207.5.074.367.207.5.313.207.5.207zm0 0"/></g><g clip-path="url(#Fr)" class="T"><path d="M4.316 49.734c.188 0 .367-.074.5-.207s.207-.312.207-.5-.074-.367-.207-.5-.312-.207-.5-.207-.367.074-.5.207-.207.313-.207.5.074.367.207.5.312.207.5.207zm0 0"/></g><g clip-path="url(#Fs)" class="Q U O P"><path d="M4.316 49.734c.187 0 .367-.074.5-.207s.207-.312.207-.5-.074-.367-.207-.5-.312-.207-.5-.207-.367.074-.5.207-.207.313-.207.5.074.367.207.5.313.207.5.207zm0 0"/></g><g clip-path="url(#Ft)" class="T"><path d="M12.13 51.02c.188 0 .367-.074.5-.207s.207-.312.207-.5-.074-.367-.207-.5-.312-.207-.5-.207-.367.074-.5.207-.207.313-.207.5.074.367.207.5.313.207.5.207zm0 0"/></g><g class="Q U O P"><g clip-path="url(#Fu)"><path d="M12.13 51.02c.187 0 .367-.074.5-.207s.207-.312.207-.5-.074-.367-.207-.5-.312-.207-.5-.207-.367.074-.5.207-.207.313-.207.5.074.367.207.5.313.207.5.207zm0 0"/></g><g clip-path="url(#Fv)"><path d="M29.953 48.645c.188 0 .367-.074.5-.207s.207-.312.207-.5-.074-.367-.207-.5-.312-.207-.5-.207-.367.074-.5.207-.207.313-.207.5.074.367.207.5.313.207.5.207zm0 0"/></g></g><g clip-path="url(#Fw)" class="T"><path d="M53.05 44.984c.188 0 .367-.078.5-.207s.207-.312.207-.5a.7.7 0 0 0-.207-.5c-.133-.133-.312-.207-.5-.207s-.367.074-.5.207a.7.7 0 0 0-.207.5c0 .188.074.367.207.5s.313.207.5.207zm0 0"/></g><g clip-path="url(#Fx)" class="Q U O P"><path d="M53.05 44.984c.188 0 .367-.078.5-.207s.207-.312.207-.5a.7.7 0 0 0-.207-.5c-.133-.133-.312-.207-.5-.207s-.367.074-.5.207a.7.7 0 0 0-.207.5c0 .188.074.367.207.5s.313.207.5.207zm0 0"/></g><g clip-path="url(#Fy)" class="T"><path d="M67.352 56.688a.7.7 0 0 0 .5-.207c.133-.133.207-.312.207-.5s-.074-.367-.207-.5a.7.7 0 0 0-.5-.207c-.187 0-.367.074-.5.207s-.207.313-.207.5.078.367.207.5.313.207.5.207zm0 0"/></g><g clip-path="url(#Fz)" class="Q U O P"><path d="M67.352 56.688a.7.7 0 0 0 .5-.207c.133-.133.207-.312.207-.5s-.074-.367-.207-.5a.7.7 0 0 0-.5-.207c-.188 0-.367.074-.5.207s-.207.313-.207.5.078.367.207.5.313.207.5.207zm0 0"/></g><g clip-path="url(#GB)" class="T"><path d="M58.313 58.488c.188 0 .367-.074.5-.207s.207-.312.207-.5-.074-.367-.207-.5-.312-.207-.5-.207-.367.074-.5.207-.207.313-.207.5.074.367.207.5.313.207.5.207zm0 0"/></g><g clip-path="url(#GC)" class="Q U O P"><path d="M58.312 58.488c.188 0 .367-.074.5-.207s.207-.312.207-.5-.074-.367-.207-.5-.312-.207-.5-.207-.367.074-.5.207-.207.313-.207.5.074.367.207.5.313.207.5.207zm0 0"/></g><g clip-path="url(#GD)" class="T"><path d="M58.313 58.488c.188 0 .367-.074.5-.207s.207-.312.207-.5-.074-.367-.207-.5-.312-.207-.5-.207-.367.074-.5.207-.207.313-.207.5.074.367.207.5.313.207.5.207zm0 0"/></g><g clip-path="url(#GE)" class="Q U O P"><path d="M58.312 58.488c.188 0 .367-.074.5-.207s.207-.312.207-.5-.074-.367-.207-.5-.312-.207-.5-.207-.367.074-.5.207-.207.313-.207.5.074.367.207.5.313.207.5.207zm0 0"/></g><g clip-path="url(#GF)" class="T"><path d="M62.96 57.254c.188 0 .367-.078.5-.207s.207-.312.207-.5a.7.7 0 0 0-.207-.5c-.133-.133-.312-.207-.5-.207s-.367.074-.5.207a.7.7 0 0 0-.207.5c0 .188.074.367.207.5s.313.207.5.207zm0 0"/></g><g clip-path="url(#GG)" class="Q U O P"><path d="M62.96 57.254c.187 0 .367-.078.5-.207s.207-.312.207-.5a.7.7 0 0 0-.207-.5c-.133-.133-.312-.207-.5-.207s-.367.074-.5.207a.7.7 0 0 0-.207.5c0 .187.074.367.207.5s.313.207.5.207zm0 0"/></g><g clip-path="url(#GJ)" class="T"><path d="M49.484 42.45c.188 0 .367-.074.5-.207s.207-.312.207-.5-.074-.367-.207-.5-.312-.207-.5-.207-.367.074-.5.207-.207.313-.207.5.074.367.207.5.313.207.5.207zm0 0"/></g><g class="U O P"><g clip-path="url(#GK)" class="Q"><path d="M49.484 42.45c.187 0 .367-.074.5-.207s.207-.312.207-.5-.074-.367-.207-.5-.312-.207-.5-.207-.367.074-.5.207-.207.313-.207.5.074.367.207.5.313.207.5.207zm0 0"/></g><g clip-path="url(#GL)" class="T"><path d="M30.562 50.2c.188 0 .367-.074.5-.207s.207-.312.207-.5-.074-.367-.207-.5-.312-.207-.5-.207-.367.074-.5.207-.207.313-.207.5.074.367.207.5.313.207.5.207zm0 0"/></g></g><g clip-path="url(#GM)" class="T"><path d="M11.063 51.324c.188 0 .367-.074.5-.207s.207-.312.207-.5-.074-.367-.207-.5-.312-.207-.5-.207-.367.074-.5.207-.207.313-.207.5.074.367.207.5.313.207.5.207zm0 0"/></g><g clip-path="url(#GN)" class="Q U O P"><path d="M11.062 51.324c.188 0 .367-.074.5-.207s.207-.312.207-.5-.074-.367-.207-.5-.312-.207-.5-.207-.367.074-.5.207-.207.313-.207.5.074.367.207.5.313.207.5.207zm0 0"/></g><g clip-path="url(#GO)" class="T"><path d="M3.852 49.098c.188 0 .367-.074.5-.207s.207-.312.207-.5-.074-.367-.207-.5-.312-.207-.5-.207-.367.074-.5.207-.207.313-.207.5.074.367.207.5.313.207.5.207zm0 0"/></g><g class="Q U O P"><g clip-path="url(#GP)"><path d="M3.852 49.098c.187 0 .367-.074.5-.207s.207-.312.207-.5-.074-.367-.207-.5-.312-.207-.5-.207-.367.074-.5.207-.207.313-.207.5.074.367.207.5.313.207.5.207zm0 0"/></g><g clip-path="url(#GQ)"><path d="M16.004 42.895c.188 0 .367-.074.5-.207s.207-.312.207-.5-.074-.367-.207-.5-.312-.207-.5-.207-.367.074-.5.207-.207.313-.207.5.074.367.207.5.313.207.5.207zm0 0"/></g></g><g clip-path="url(#GR)" class="T"><path d="M28.082 29.06c.188 0 .367-.074.5-.207s.207-.312.207-.5-.074-.367-.207-.5-.312-.207-.5-.207-.367.074-.5.207-.207.313-.207.5.074.367.207.5.313.207.5.207zm0 0"/></g><g class="U O P"><g clip-path="url(#GS)" class="Q"><path d="M28.082 29.06c.188 0 .367-.074.5-.207s.207-.312.207-.5-.074-.367-.207-.5-.312-.207-.5-.207-.367.074-.5.207-.207.313-.207.5.074.367.207.5.313.207.5.207zm0 0"/></g><g clip-path="url(#GT)" class="T"><path d="M20.305 39.285c.188 0 .367-.078.5-.207s.207-.312.207-.5a.7.7 0 0 0-.207-.5c-.133-.133-.312-.207-.5-.207s-.367.074-.5.207a.7.7 0 0 0-.207.5c0 .187.074.367.207.5s.313.207.5.207zm0 0"/></g></g><g clip-path="url(#GU)" class="T"><path d="M32.914 35.285c.188 0 .367-.074.5-.207s.207-.312.207-.5-.074-.367-.207-.5-.312-.207-.5-.207-.367.074-.5.207-.207.313-.207.5.074.367.207.5.313.207.5.207zm0 0"/></g><g clip-path="url(#GV)" class="Q U O P"><path d="M32.914 35.285c.188 0 .367-.074.5-.207s.207-.312.207-.5-.074-.367-.207-.5-.312-.207-.5-.207-.367.074-.5.207-.207.313-.207.5.074.367.207.5.313.207.5.207zm0 0"/></g></g></svg>