<svg xmlns="http://www.w3.org/2000/svg" xmlns:xlink="http://www.w3.org/1999/xlink" width="216" height="216" viewBox="0 0 162 162" xmlns:v="https://vecta.io/nano"><style><![CDATA[.O{stroke-linejoin:round}.P{stroke-miterlimit:10}.Q{fill:none}.R{stroke:rgb(83.920288%,15.293884%,15.686035%)}.S{fill:rgb(83.920288%,15.293884%,15.686035%)}.T{fill:rgb(0%,0%,0%)}.U{stroke:rgb(0%,0%,0%)}]]></style><defs><clipPath ><path d="M34 2.422h2.793V5H34zm0 0"/></clipPath><clipPath ><path d="M33.793 2.422h3v3h-3zm0 0"/></clipPath><clipPath ><path d="M32.438 3H35v2.652h-2.562zm0 0"/></clipPath><clipPath id="D"><path d="M32.438 2.652h3v3h-3zm0 0"/></clipPath><clipPath id="E"><path d="M28.1 4H31v2.766h-2.9zm0 0"/></clipPath><clipPath id="F"><path d="M28.1 3.766h3v3h-3zm0 0"/></clipPath><clipPath ><path d="M21 7h2.922v2.95H21zm0 0"/></clipPath><clipPath ><path d="M20.922 6.95h3v3h-3zm0 0"/></clipPath><clipPath id="I"><path d="M12 14.2h2.988V17H12zm0 0"/></clipPath><clipPath id="J"><path d="M11.988 14.2h3v3h-3zm0 0"/></clipPath><clipPath id="K"><path d="M4.336 28H7v2.508H4.336zm0 0"/></clipPath><clipPath id="L"><path d="M4.336 27.508h3v3h-3zm0 0"/></clipPath><clipPath id="M"><path d="M3.344 46.336H6V49H3.344zm0 0"/></clipPath><clipPath ><path d="M3.344 46.336h3v3h-3zm0 0"/></clipPath><clipPath id="O"><path d="M13.375 65H16v2.84h-2.625zm0 0"/></clipPath><clipPath id="P"><path d="M13.375 64.84h3v3h-3zm0 0"/></clipPath><clipPath id="Q"><path d="M32 75h2.8v2.797H32zm0 0"/></clipPath><clipPath id="R"><path d="M31.8 74.797h3v3h-3zm0 0"/></clipPath><clipPath id="S"><path d="M50.375 74H53v2.9h-2.625zm0 0"/></clipPath><clipPath id="T"><path d="M50.375 73.9h3v3h-3zm0 0"/></clipPath><clipPath id="U"><path d="M63.48 67H66v2.566h-2.52zm0 0"/></clipPath><clipPath id="V"><path d="M63.48 66.566h3v3h-3zm0 0"/></clipPath><clipPath id="W"><path d="M71 58.06h2.695V61H71zm0 0"/></clipPath><clipPath id="X"><path d="M70.695 58.06h3v3h-3zm0 0"/></clipPath><clipPath id="Y"><path d="M74 51.293h2.957V54H74zm0 0"/></clipPath><clipPath id="Z"><path d="M73.957 51.293h3v3h-3zm0 0"/></clipPath><clipPath id="a"><path d="M75.152 47.277H78V50h-2.848zm0 0"/></clipPath><clipPath id="b"><path d="M75.152 47.277h3v3h-3zm0 0"/></clipPath><clipPath ><path d="M75.4 46.207H78V49h-2.6zm0 0"/></clipPath><clipPath ><path d="M75.4 46.207h3v3h-3zm0 0"/></clipPath><clipPath id="e"><path d="M75 48.078h2.953V51H75zm0 0"/></clipPath><clipPath id="f"><path d="M74.953 48.078h3v3h-3zm0 0"/></clipPath><clipPath id="g"><path d="M73.344 53H76v2.875h-2.656zm0 0"/></clipPath><clipPath id="h"><path d="M73.344 52.875h3v3h-3zm0 0"/></clipPath><clipPath id="i"><path d="M69.223 60.27H72V63h-2.777zm0 0"/></clipPath><clipPath id="j"><path d="M69.223 60.27h3v3h-3zm0 0"/></clipPath><clipPath id="k"><path d="M61 69h2.578v2.844H61zm0 0"/></clipPath><clipPath id="l"><path d="M60.578 68.844h3v3h-3zm0 0"/></clipPath><clipPath id="m"><path d="M46 75.012h2.8V78H46zm0 0"/></clipPath><clipPath id="n"><path d="M45.8 75.012h3v3h-3zm0 0"/></clipPath><clipPath id="o"><path d="M27 73.28h2.547V76H27zm0 0"/></clipPath><clipPath id="p"><path d="M26.547 73.28h3v3h-3zm0 0"/></clipPath><clipPath ><path d="M10 61h2.672v2.527H10zm0 0"/></clipPath><clipPath ><path d="M9.672 60.527h3v3h-3zm0 0"/></clipPath><clipPath ><path d="M3 41.14h2.637V44H3zm0 0"/></clipPath><clipPath ><path d="M2.637 41.14h3v3h-3zm0 0"/></clipPath><clipPath id="u"><path d="M6 23.44h2.918V26H6zm0 0"/></clipPath><clipPath id="v"><path d="M5.918 23.44h3v3h-3zm0 0"/></clipPath><clipPath id="w"><path d="M14.34 12H17v2.8h-2.66zm0 0"/></clipPath><clipPath id="x"><path d="M14.34 11.8h3v3h-3zm0 0"/></clipPath><clipPath id="y"><path d="M23 6h2.97v2.848H23zm0 0"/></clipPath><clipPath id="z"><path d="M22.97 5.848h3v3h-3zm0 0"/></clipPath><clipPath ><path d="M29.426 3.363H32V6h-2.574zm0 0"/></clipPath><clipPath ><path d="M29.426 3.363h3v3h-3zm0 0"/></clipPath><clipPath id="AC"><path d="M33 3h2.984v2.555H33zm0 0"/></clipPath><clipPath id="AD"><path d="M32.984 2.555h3v3h-3zm0 0"/></clipPath><clipPath id="AE"><path d="M34 2.465h2.516V5H34zm0 0"/></clipPath><clipPath id="AF"><path d="M33.516 2.465h3v3h-3zm0 0"/></clipPath><clipPath id="AG"><path d="M31.06 3H34v2.945h-2.94zm0 0"/></clipPath><clipPath id="AH"><path d="M31.06 2.945h3v3h-3zm0 0"/></clipPath><clipPath id="AI"><path d="M26 5h2.7v2.63H26zm0 0"/></clipPath><clipPath id="AJ"><path d="M25.7 4.63h3v3h-3zm0 0"/></clipPath><clipPath id="AK"><path d="M18 9.02h2.734V12H18zm0 0"/></clipPath><clipPath id="AL"><path d="M17.734 9.02h3v3h-3zm0 0"/></clipPath><clipPath id="AM"><path d="M9 18.293h2.8V21H9zm0 0"/></clipPath><clipPath id="AN"><path d="M8.8 18.293h3v3h-3zm0 0"/></clipPath><clipPath ><path d="M3 34h2.898v2.844H3zm0 0"/></clipPath><clipPath ><path d="M2.898 33.844h3v3h-3zm0 0"/></clipPath><clipPath id="AQ"><path d="M6 53.363h2.574V56H6zm0 0"/></clipPath><clipPath id="AR"><path d="M5.574 53.363h3v3h-3zm0 0"/></clipPath><clipPath id="AS"><path d="M19.168 70H22v2.547h-2.832zm0 0"/></clipPath><clipPath id="AT"><path d="M19.168 69.547h3v3h-3zm0 0"/></clipPath><clipPath id="AU"><path d="M38.473 76H41v2.57h-2.527zm0 0"/></clipPath><clipPath id="AV"><path d="M38.473 75.57h3v3h-3zm0 0"/></clipPath><clipPath id="AW"><path d="M55.45 72H58v2.875h-2.55zm0 0"/></clipPath><clipPath id="AX"><path d="M55.45 71.875h3v3h-3zm0 0"/></clipPath><clipPath id="AY"><path d="M66.414 64H69v2.72h-2.586zm0 0"/></clipPath><clipPath id="AZ"><path d="M66.414 63.72h3v3h-3zm0 0"/></clipPath><clipPath id="Aa"><path d="M72.063 56H75v2.637h-2.937zm0 0"/></clipPath><clipPath id="Ab"><path d="M72.063 55.637h3v3h-3zm0 0"/></clipPath><clipPath id="Ac"><path d="M74.465 50H77v2.78h-2.535zm0 0"/></clipPath><clipPath id="Ad"><path d="M74.465 49.78h3v3h-3zm0 0"/></clipPath><clipPath id="Ae"><path d="M75.266 47H78v2.793h-2.734zm0 0"/></clipPath><clipPath id="Af"><path d="M75.266 46.793h3v3h-3zm0 0"/></clipPath><clipPath id="Ag"><path d="M75.27 47H78v2.766h-2.73zm0 0"/></clipPath><clipPath id="Ah"><path d="M75.27 46.766h3v3h-3zm0 0"/></clipPath><clipPath id="Ai"><path d="M74.496 50H77v2.688h-2.504zm0 0"/></clipPath><clipPath id="Aj"><path d="M74.496 49.688h3v3h-3zm0 0"/></clipPath><clipPath id="Ak"><path d="M72.145 55.48H75V58h-2.855zm0 0"/></clipPath><clipPath id="Al"><path d="M72.145 55.48h3v3h-3zm0 0"/></clipPath><clipPath id="Am"><path d="M67 64h2.6v2.523H67zm0 0"/></clipPath><clipPath id="An"><path d="M66.6 63.523h3v3h-3zm0 0"/></clipPath><clipPath id="Ao"><path d="M56 72h2.8v2.7H56zm0 0"/></clipPath><clipPath id="Ap"><path d="M55.8 71.7h3v3h-3zm0 0"/></clipPath><clipPath ><path d="M39.03 76H42v2.578h-2.97zm0 0"/></clipPath><clipPath ><path d="M39.03 75.578h3v3h-3zm0 0"/></clipPath><clipPath id="As"><path d="M20 70h2.797v2.953H20zm0 0"/></clipPath><clipPath id="At"><path d="M19.797 69.953h3v3h-3zm0 0"/></clipPath><clipPath id="Au"><path d="M6 54.168h2.93V57H6zm0 0"/></clipPath><clipPath id="Av"><path d="M5.93 54.168h3v3h-3zm0 0"/></clipPath><clipPath id="Aw"><path d="M3 35h2.793v2.664H3zm0 0"/></clipPath><clipPath id="Ax"><path d="M2.793 34.664h3v3h-3zm0 0"/></clipPath><clipPath id="Ay"><path d="M8.418 19H11v2.88H8.418zm0 0"/></clipPath><clipPath id="Az"><path d="M8.418 18.88h3v3h-3zm0 0"/></clipPath><clipPath id="BA"><path d="M17.266 9.367H20V12h-2.734zm0 0"/></clipPath><clipPath id="BB"><path d="M17.266 9.367h3v3h-3zm0 0"/></clipPath><clipPath id="BC"><path d="M25.27 5H28v2.8h-2.73zm0 0"/></clipPath><clipPath id="BD"><path d="M25.27 4.8h3v3h-3zm0 0"/></clipPath><clipPath id="BE"><path d="M31 3.027h2.707V6H31zm0 0"/></clipPath><clipPath id="BF"><path d="M30.707 3.027h3v3h-3zm0 0"/></clipPath><clipPath id="BG"><path d="M33.2 3H36v2.516h-2.8zm0 0"/></clipPath><clipPath id="BH"><path d="M33.2 2.516h3v3h-3zm0 0"/></clipPath><clipPath id="BI"><path d="M33 3h2.688v2.605H33zm0 0"/></clipPath><clipPath id="BJ"><path d="M32.688 2.605h3v3h-3zm0 0"/></clipPath><clipPath id="BK"><path d="M29.184 3.43H32V6h-2.816zm0 0"/></clipPath><clipPath id="BL"><path d="M29.184 3.43h3v3h-3zm0 0"/></clipPath><clipPath id="BM"><path d="M23 6h2.78v2.94H23zm0 0"/></clipPath><clipPath id="BN"><path d="M22.78 5.94h3v3h-3zm0 0"/></clipPath><clipPath id="BO"><path d="M14.223 12H17v2.918h-2.777zm0 0"/></clipPath><clipPath id="BP"><path d="M14.223 11.918h3v3h-3zm0 0"/></clipPath><clipPath ><path d="M6 23.44h2.914V26H6zm0 0"/></clipPath><clipPath ><path d="M5.914 23.44h3v3h-3zm0 0"/></clipPath><clipPath id="BS"><path d="M3 41h2.62v2.9H3zm0 0"/></clipPath><clipPath id="BT"><path d="M2.62 40.9h3v3h-3zm0 0"/></clipPath><clipPath id="BU"><path d="M9.293 60.004H12V63H9.293zm0 0"/></clipPath><clipPath id="BV"><path d="M9.293 60.004h3v3h-3zm0 0"/></clipPath><clipPath ><path d="M26 73h2.617v2.922H26zm0 0"/></clipPath><clipPath ><path d="M25.617 72.922h3v3h-3zm0 0"/></clipPath><clipPath id="BY"><path d="M45 75.2h2.7V78H45zm0 0"/></clipPath><clipPath id="BZ"><path d="M44.7 75.2h3v3h-3zm0 0"/></clipPath><clipPath id="Ba"><path d="M60 69.445h2.7V72H60zm0 0"/></clipPath><clipPath id="Bb"><path d="M59.7 69.445h3v3h-3zm0 0"/></clipPath><clipPath id="Bc"><path d="M69 61.027h2.664V64H69zm0 0"/></clipPath><clipPath id="Bd"><path d="M68.664 61.027h3v3h-3zm0 0"/></clipPath><clipPath id="Be"><path d="M73.027 54H76v2.617h-2.973zm0 0"/></clipPath><clipPath id="Bf"><path d="M73.027 53.617h3v3h-3zm0 0"/></clipPath><clipPath id="Bg"><path d="M75 49h2.77v2.754H75zm0 0"/></clipPath><clipPath id="Bh"><path d="M74.77 48.754h3v3h-3zm0 0"/></clipPath><clipPath id="Bi"><path d="M75.258 47H78v2.828h-2.742zm0 0"/></clipPath><clipPath id="Bj"><path d="M75.258 46.828h3v3h-3zm0 0"/></clipPath><clipPath id="Bk"><path d="M75.008 48H78v2.87h-2.992zm0 0"/></clipPath><clipPath id="Bl"><path d="M75.008 47.87h3v3h-3zm0 0"/></clipPath><clipPath id="Bm"><path d="M74 52h2.742v2.87H74zm0 0"/></clipPath><clipPath id="Bn"><path d="M73.742 51.87h3v3h-3zm0 0"/></clipPath><clipPath ><path d="M70.36 59H73v2.594h-2.64zm0 0"/></clipPath><clipPath ><path d="M70.36 58.594h3v3h-3zm0 0"/></clipPath><clipPath id="Bq"><path d="M63.02 67H66v2.96h-2.98zm0 0"/></clipPath><clipPath id="Br"><path d="M63.02 66.96h3v3h-3zm0 0"/></clipPath><clipPath id="Bs"><path d="M50 74.027h2.938V77H50zm0 0"/></clipPath><clipPath id="Bt"><path d="M49.938 74.027h3v3h-3zm0 0"/></clipPath><clipPath id="Bu"><path d="M32 75h2.72v2.78H32zm0 0"/></clipPath><clipPath id="Bv"><path d="M31.72 74.78h3v3h-3zm0 0"/></clipPath><clipPath id="Bw"><path d="M14 65.227h2.766V68H14zm0 0"/></clipPath><clipPath id="Bx"><path d="M13.766 65.227h3v3h-3zm0 0"/></clipPath><clipPath id="By"><path d="M4 47.4h2.586V50H4zm0 0"/></clipPath><clipPath id="Bz"><path d="M3.586 47.4h3v3h-3zm0 0"/></clipPath><clipPath id="CA"><path d="M4 29h2.945v2.797H4zm0 0"/></clipPath><clipPath id="CB"><path d="M3.945 28.797h3v3h-3zm0 0"/></clipPath><clipPath id="CC"><path d="M11.125 15.2H14V18h-2.875zm0 0"/></clipPath><clipPath id="CD"><path d="M11.125 15.2h3v3h-3zm0 0"/></clipPath><clipPath ><path d="M20 8h2.9v2.566H20zm0 0"/></clipPath><clipPath ><path d="M19.9 7.566h3v3h-3zm0 0"/></clipPath><clipPath id="CG"><path d="M27.074 4.1H30V7h-2.926zm0 0"/></clipPath><clipPath id="CH"><path d="M27.074 4.1h3v3h-3zm0 0"/></clipPath><clipPath id="CI"><path d="M32 3h2.504v2.844H32zm0 0"/></clipPath><clipPath id="CJ"><path d="M31.504 2.844h3v3h-3zm0 0"/></clipPath><clipPath id="CK"><path d="M33 3h2.898v2.57H33zm0 0"/></clipPath><clipPath id="CL"><path d="M32.898 2.57h3v3h-3zm0 0"/></clipPath><clipPath ><path d="M31.254 3H34v2.898h-2.746zm0 0"/></clipPath><clipPath ><path d="M31.254 2.898h3v3h-3zm0 0"/></clipPath><clipPath id="CO"><path d="M27 4.262h2.64V7H27zm0 0"/></clipPath><clipPath id="CP"><path d="M26.64 4.262h3v3h-3zm0 0"/></clipPath><clipPath id="CQ"><path d="M19.305 8H22v2.94h-2.695zm0 0"/></clipPath><clipPath id="CR"><path d="M19.305 7.94h3v3h-3zm0 0"/></clipPath><clipPath id="CS"><path d="M11 16h2.563v2.887H11zm0 0"/></clipPath><clipPath id="CT"><path d="M10.563 15.887h3v3h-3zm0 0"/></clipPath><clipPath id="CU"><path d="M4 30h2.7v2.746H4zm0 0"/></clipPath><clipPath id="CV"><path d="M3.7 29.746h3v3h-3zm0 0"/></clipPath><clipPath ><path d="M4 48.34h2.824V51H4zm0 0"/></clipPath><clipPath ><path d="M3.824 48.34h3v3h-3zm0 0"/></clipPath><clipPath id="CY"><path d="M14.316 66H17v2.746h-2.684zm0 0"/></clipPath><clipPath id="CZ"><path d="M14.316 65.746h3v3h-3zm0 0"/></clipPath><clipPath id="Ca"><path d="M32.215 75H35v2.883h-2.785zm0 0"/></clipPath><clipPath id="Cb"><path d="M32.215 74.883h3v3h-3zm0 0"/></clipPath><clipPath id="Cc"><path d="M50.172 74H53v2.953h-2.828zm0 0"/></clipPath><clipPath id="Cd"><path d="M50.172 73.953h3v3h-3zm0 0"/></clipPath><clipPath id="Ce"><path d="M63.06 67H66v2.926h-2.94zm0 0"/></clipPath><clipPath id="Cf"><path d="M63.06 66.926h3v3h-3zm0 0"/></clipPath><clipPath id="Cg"><path d="M70.297 59H73v2.695h-2.703zm0 0"/></clipPath><clipPath id="Ch"><path d="M70.297 58.695h3v3h-3zm0 0"/></clipPath><clipPath id="Ci"><path d="M74 52.137h2.64V55H74zm0 0"/></clipPath><clipPath id="Cj"><path d="M73.64 52.137h3v3h-3zm0 0"/></clipPath><clipPath id="Ck"><path d="M75 48.332h2.887V51H75zm0 0"/></clipPath><clipPath id="Cl"><path d="M74.887 48.332h3v3h-3zm0 0"/></clipPath><clipPath id="Cm"><path d="M75.102 48H78v2h-2.898zm0 0"/></clipPath><clipPath id="Cn"><path d="M75.102 47.5h3v3h-3zm0 0"/></clipPath><clipPath id="Co"><path d="M75 50h2.504v2.664H75zm0 0"/></clipPath><clipPath id="Cp"><path d="M74.504 49.664h3v3h-3zm0 0"/></clipPath><clipPath id="Cq"><path d="M73 55h2.508v2.738H73zm0 0"/></clipPath><clipPath id="Cr"><path d="M72.508 54.738h3v3h-3zm0 0"/></clipPath><clipPath id="Cs"><path d="M68 62.215h2.723V65H68zm0 0"/></clipPath><clipPath id="Ct"><path d="M67.723 62.215h3v3h-3zm0 0"/></clipPath><clipPath id="Cu"><path d="M58.242 70.363H61V73h-2.758zm0 0"/></clipPath><clipPath id="Cv"><path d="M58.242 70.363h3v3h-3zm0 0"/></clipPath><clipPath id="Cw"><path d="M43.05 75.395H46V78h-2.95zm0 0"/></clipPath><clipPath id="Cx"><path d="M43.05 75.395h3v3h-3zm0 0"/></clipPath><clipPath id="Cy"><path d="M24.457 72.43H27V75h-2.543zm0 0"/></clipPath><clipPath id="Cz"><path d="M24.457 72.43h3v3h-3zm0 0"/></clipPath><clipPath id="DA"><path d="M9 60h2.95v2.508H9zm0 0"/></clipPath><clipPath id="DB"><path d="M8.95 59.508h3v3h-3zm0 0"/></clipPath><clipPath id="DC"><path d="M3 41h2.625v2.953H3zm0 0"/></clipPath><clipPath id="DD"><path d="M2.625 40.953h3v3h-3zm0 0"/></clipPath><clipPath id="DE"><path d="M6 24h2.695v2.93H6zm0 0"/></clipPath><clipPath id="DF"><path d="M5.695 23.93h3v3h-3zm0 0"/></clipPath><clipPath id="DG"><path d="M14 12.445h2.672V15H14zm0 0"/></clipPath><clipPath id="DH"><path d="M13.672 12.445h3v3h-3zm0 0"/></clipPath><clipPath id="DI"><path d="M22 6.348h2.996V9H22zm0 0"/></clipPath><clipPath id="DJ"><path d="M21.996 6.348h3v3h-3zm0 0"/></clipPath><clipPath id="DK"><path d="M28.215 4H31v2.727h-2.785zm0 0"/></clipPath><clipPath id="DL"><path d="M28.215 3.727h3v3h-3zm0 0"/></clipPath><clipPath id="DM"><path d="M32 3h2.563v2.832H32zm0 0"/></clipPath><clipPath id="DN"><path d="M31.563 2.832h3v3h-3zm0 0"/></clipPath><clipPath id="DO"><path d="M32 3h2.832v2.773H32zm0 0"/></clipPath><clipPath id="DP"><path d="M31.832 2.773h3v3h-3zm0 0"/></clipPath><clipPath id="DQ"><path d="M29.074 3.465H32V6h-2.926zm0 0"/></clipPath><clipPath id="DR"><path d="M29.074 3.465h3v3h-3zm0 0"/></clipPath><clipPath id="DS"><path d="M23.36 6H26v2.656h-2.64zm0 0"/></clipPath><clipPath id="DT"><path d="M23.36 5.656h3v3h-3zm0 0"/></clipPath><clipPath id="DU"><path d="M15.37 11H18v2.887h-2.63zm0 0"/></clipPath><clipPath id="DV"><path d="M15.37 10.887h3v3h-3zm0 0"/></clipPath><clipPath id="DW"><path d="M7.102 21.086H10V24H7.102zm0 0"/></clipPath><clipPath id="DX"><path d="M7.102 21.086h3v3h-3zm0 0"/></clipPath><clipPath id="DY"><path d="M3 37h2.6v2.94H3zm0 0"/></clipPath><clipPath id="DZ"><path d="M2.6 36.94h3v3h-3zm0 0"/></clipPath><clipPath id="Da"><path d="M7 55.477h2.566V58H7zm0 0"/></clipPath><clipPath id="Db"><path d="M6.566 55.477h3v3h-3zm0 0"/></clipPath><clipPath id="Dc"><path d="M20.082 70.13H23V73h-2.918zm0 0"/></clipPath><clipPath id="Dd"><path d="M20.082 70.13h3v3h-3zm0 0"/></clipPath><clipPath id="De"><path d="M38.367 76H41v2.566h-2.633zm0 0"/></clipPath><clipPath id="Df"><path d="M38.367 75.566h3v3h-3zm0 0"/></clipPath><clipPath id="Dg"><path d="M55 72.25h2.652V75H55zm0 0"/></clipPath><clipPath id="Dh"><path d="M54.652 72.25h3v3h-3zm0 0"/></clipPath><clipPath id="Di"><path d="M66 65h2.54v2.633H66zm0 0"/></clipPath><clipPath id="Dj"><path d="M65.54 64.633h3v3h-3zm0 0"/></clipPath><clipPath id="Dk"><path d="M71.37 57H74v2.914h-2.63zm0 0"/></clipPath><clipPath id="Dl"><path d="M71.37 56.914h3v3h-3zm0 0"/></clipPath><clipPath id="Dm"><path d="M74 51.3h2.953V54H74zm0 0"/></clipPath><clipPath id="Dn"><path d="M73.953 51.3h3v3h-3zm0 0"/></clipPath><clipPath id="Do"><path d="M75 49h2.824v2.57H75zm0 0"/></clipPath><clipPath id="Dp"><path d="M74.824 48.57h3v3h-3zm0 0"/></clipPath><clipPath ><path d="M75 49h2.742v2.848H75zm0 0"/></clipPath><clipPath ><path d="M74.742 48.848h3v3h-3zm0 0"/></clipPath><clipPath id="Ds"><path d="M74 52.13h2.64V55H74zm0 0"/></clipPath><clipPath id="Dt"><path d="M73.64 52.13h3v3h-3zm0 0"/></clipPath><clipPath id="Du"><path d="M71 58.184h2.62V61H71zm0 0"/></clipPath><clipPath id="Dv"><path d="M70.62 58.184h3v3h-3zm0 0"/></clipPath><clipPath id="Dw"><path d="M64.055 66.06H67V69h-2.945zm0 0"/></clipPath><clipPath id="Dx"><path d="M64.055 66.06h3v3h-3zm0 0"/></clipPath><clipPath id="Dy"><path d="M52.328 73.22H55V76h-2.672zm0 0"/></clipPath><clipPath id="Dz"><path d="M52.328 73.22h3v3h-3zm0 0"/></clipPath><clipPath id="EA"><path d="M36 75.4h2.605V78H36zm0 0"/></clipPath><clipPath id="EB"><path d="M35.605 75.4h3v3h-3zm0 0"/></clipPath><clipPath id="EC"><path d="M18 69h2.855v2.648H18zm0 0"/></clipPath><clipPath id="ED"><path d="M17.855 68.648h3v3h-3zm0 0"/></clipPath><clipPath id="EE"><path d="M6 53.36h2.57V56H6zm0 0"/></clipPath><clipPath id="EF"><path d="M5.57 53.36h3v3h-3zm0 0"/></clipPath><clipPath id="EG"><path d="M3 35.13h2.746V38H3zm0 0"/></clipPath><clipPath id="EH"><path d="M2.746 35.13h3v3h-3zm0 0"/></clipPath><clipPath id="EI"><path d="M8 20h2.723v3H8zm0 0"/></clipPath><clipPath id="EJ"><path d="M7.723 20h3v3h-3zm0 0"/></clipPath><clipPath id="EK"><path d="M16 10.434h2.9V13H16zm0 0"/></clipPath><clipPath id="EL"><path d="M15.9 10.434h3v3h-3zm0 0"/></clipPath><clipPath id="EM"><path d="M24 6h2.56v2.563H24zm0 0"/></clipPath><clipPath id="EN"><path d="M23.56 5.563h3v3h-3zm0 0"/></clipPath><clipPath id="EO"><path d="M29 4h2.754v2.56H29zm0 0"/></clipPath><clipPath id="EP"><path d="M28.754 3.56h3v3h-3zm0 0"/></clipPath><clipPath id="EQ"><path d="M31 3h2.984v2.96H31zm0 0"/></clipPath><clipPath id="ER"><path d="M30.984 2.96h3v3h-3zm0 0"/></clipPath><clipPath id="ES"><path d="M30.137 3.172H33V6h-2.863zm0 0"/></clipPath><clipPath id="ET"><path d="M30.137 3.172h3v3h-3zm0 0"/></clipPath><clipPath id="EU"><path d="M26.27 4.402H29V7h-2.73zm0 0"/></clipPath><clipPath id="EV"><path d="M26.27 4.402h3v3h-3zm0 0"/></clipPath><clipPath id="EW"><path d="M20 8h2.63v2.73H20zm0 0"/></clipPath><clipPath id="EX"><path d="M19.63 7.73h3v3h-3zm0 0"/></clipPath><clipPath id="EY"><path d="M11.398 15H14v2.867h-2.602zm0 0"/></clipPath><clipPath id="EZ"><path d="M11.398 14.867h3v3h-3zm0 0"/></clipPath><clipPath id="Ea"><path d="M4.398 27.3H7V30H4.398zm0 0"/></clipPath><clipPath id="Eb"><path d="M4.398 27.3h3v3h-3zm0 0"/></clipPath><clipPath ><path d="M3 44.383h2.992V47H3zm0 0"/></clipPath><clipPath ><path d="M2.992 44.383h3v3h-3zm0 0"/></clipPath><clipPath id="Ee"><path d="M11 62h2.594v2.734H11zm0 0"/></clipPath><clipPath id="Ef"><path d="M10.594 61.734h3v3h-3zm0 0"/></clipPath><clipPath id="Eg"><path d="M26.055 73.094H29V76h-2.945zm0 0"/></clipPath><clipPath id="Eh"><path d="M26.055 73.094h3v3h-3zm0 0"/></clipPath><clipPath id="Ei"><path d="M44 75.316h2.77V78H44zm0 0"/></clipPath><clipPath id="Ej"><path d="M43.77 75.316h3v3h-3zm0 0"/></clipPath><clipPath ><path d="M58.203 70.387H61V73h-2.797zm0 0"/></clipPath><clipPath ><path d="M58.203 70.387h3v3h-3zm0 0"/></clipPath><clipPath id="Em"><path d="M67.344 63H70v2.668h-2.656zm0 0"/></clipPath><clipPath id="En"><path d="M67.344 62.668h3v3h-3zm0 0"/></clipPath><clipPath id="Eo"><path d="M72.055 56H75v2.652h-2.945zm0 0"/></clipPath><clipPath id="Ep"><path d="M72.055 55.652h3v3h-3zm0 0"/></clipPath><clipPath id="Eq"><path d="M74.047 51.04H77V54h-2.953zm0 0"/></clipPath><clipPath id="Er"><path d="M74.047 51.04h3v3h-3zm0 0"/></clipPath><clipPath id="Es"><path d="M75 49.38h2.6V52H75zm0 0"/></clipPath><clipPath id="Et"><path d="M74.6 49.38h3v3h-3zm0 0"/></clipPath><clipPath id="Eu"><path d="M74.145 51H77v2.766h-2.855zm0 0"/></clipPath><clipPath id="Ev"><path d="M74.145 50.766h3v3h-3zm0 0"/></clipPath><clipPath id="Ew"><path d="M72.336 55.098H75V58h-2.664zm0 0"/></clipPath><clipPath id="Ex"><path d="M72.336 55.098h3v3h-3zm0 0"/></clipPath><clipPath id="Ey"><path d="M68 62h3v2.88h-3zm0 0"/></clipPath><clipPath id="Ez"><path d="M68 61.88h3v3h-3zm0 0"/></clipPath><clipPath id="FA"><path d="M59.492 70H62v2.582h-2.508zm0 0"/></clipPath><clipPath id="FB"><path d="M59.492 69.582h3v3h-3zm0 0"/></clipPath><clipPath id="FC"><path d="M46 75.008h2.828V78H46zm0 0"/></clipPath><clipPath id="FD"><path d="M45.828 75.008h3v3h-3zm0 0"/></clipPath><clipPath id="FE"><path d="M29 74h2.555v2.96H29zm0 0"/></clipPath><clipPath id="FF"><path d="M28.555 73.96h3v3h-3zm0 0"/></clipPath><clipPath id="FG"><path d="M13 64.05h2.605V67H13zm0 0"/></clipPath><clipPath id="FH"><path d="M12.605 64.05h3v3h-3zm0 0"/></clipPath><clipPath id="FI"><path d="M4 48h2.625v2.566H4zm0 0"/></clipPath><clipPath id="FJ"><path d="M3.625 47.566h3v3h-3zm0 0"/></clipPath><clipPath ><path d="M75 49.4h2v2.414h-2zm0 0"/></clipPath><clipPath ><path d="M74.96 49.4h2.414v2.414H74.96zm0 0"/></clipPath><clipPath id="FM"><path d="M73 55.02h2V57h-2zm0 0"/></clipPath><clipPath id="FN"><path d="M72.8 55.02h2.414v2.414H72.8zm0 0"/></clipPath><clipPath id="FO"><path d="M67.62 62.98h2.414v2.414H67.62zm0 0"/></clipPath><clipPath id="FP"><path d="M57.293 71.367h2.414v2.414h-2.414zm0 0"/></clipPath><clipPath id="FQ"><path d="M40.8 75.855h2.414v2.414H40.8zm0 0"/></clipPath><clipPath id="FR"><path d="M21.2 71h2.414v2H21.2zm0 0"/></clipPath><clipPath id="FS"><path d="M21.2 70.922h2.414v2.414H21.2zm0 0"/></clipPath><clipPath id="FT"><path d="M7 55.336h2v2.414H7zm0 0"/></clipPath><clipPath id="FU"><path d="M6.64 55.336h2.414v2.414H6.64zm0 0"/></clipPath><clipPath id="FV"><path d="M3.023 36H5v1.988H3.023zm0 0"/></clipPath><clipPath id="FW"><path d="M3.023 35.574h2.414v2.414H3.023zm0 0"/></clipPath><clipPath id="FX"><path d="M9 19.47h1.934v2.414H9zm0 0"/></clipPath><clipPath id="FY"><path d="M8.52 19.47h2.414v2.414H8.52zm0 0"/></clipPath><clipPath id="FZ"><path d="M17.434 10h2.414v2h-2.414zm0 0"/></clipPath><clipPath id="Fa"><path d="M17.434 9.754h2.414v2.414h-2.414zm0 0"/></clipPath><clipPath id="Fb"><path d="M26 5.074h2V7h-2zm0 0"/></clipPath><clipPath id="Fc"><path d="M25.613 5.074h2.414v2.414h-2.414zm0 0"/></clipPath><clipPath id="Fd"><path d="M31.258 3.262h2.414v2.414h-2.414zm0 0"/></clipPath><clipPath id="Fe"><path d="M33.926 2.738h2.414v2.414h-2.414zm0 0"/></clipPath><clipPath ><path d="M33.605 2.8h2.414v2.414h-2.414zm0 0"/></clipPath><clipPath id="Fg"><path d="M30.32 3.492h2.414v2.414H30.32zm0 0"/></clipPath><clipPath id="Fh"><path d="M24.117 6h2.414v2h-2.414zm0 0"/></clipPath><clipPath id="Fi"><path d="M24.117 5.73h2.414v2.414h-2.414zm0 0"/></clipPath><clipPath id="Fj"><path d="M16 11.254h1.996v2.414H16zm0 0"/></clipPath><clipPath id="Fk"><path d="M15.582 11.254h2.414v2.414h-2.414zm0 0"/></clipPath><clipPath id="Fl"><path d="M7 22.266h2v2.414H7zm0 0"/></clipPath><clipPath id="Fm"><path d="M6.922 22.266h2.414v2.414H6.922zm0 0"/></clipPath><clipPath id="Fn"><path d="M3 40h2v1.94H3zm0 0"/></clipPath><clipPath id="Fo"><path d="M2.86 39.527h2.414v2.414H2.86zm0 0"/></clipPath><clipPath ><path d="M9 59.176h2V61.6H9zm0 0"/></clipPath><clipPath ><path d="M8.824 59.176h2.414V61.6H8.824zm0 0"/></clipPath><clipPath id="Fr"><path d="M25.117 73h2.414v2h-2.414zm0 0"/></clipPath><clipPath id="Fs"><path d="M25.117 72.883h2.414v2.414h-2.414zm0 0"/></clipPath><clipPath id="Ft"><path d="M45 76h2v1.957h-2zm0 0"/></clipPath><clipPath id="Fu"><path d="M44.586 75.54H47v2.418h-2.414zm0 0"/></clipPath><clipPath id="Fv"><path d="M59.9 69.793h2.414v2.414H59.9zm0 0"/></clipPath><clipPath id="Fw"><path d="M69.03 61.223H71v2.414h-1.97zm0 0"/></clipPath><clipPath id="Fx"><path d="M69.03 61.223h2.414v2.414H69.03zm0 0"/></clipPath><clipPath id="Fy"><path d="M73.434 54h2.414v2h-2.414zm0 0"/></clipPath><clipPath id="Fz"><path d="M73.434 53.645h2.414v2.414h-2.414zm0 0"/></clipPath><clipPath id="GA"><path d="M75.184 49h2.414v2h-2.414zm0 0"/></clipPath><clipPath id="GB"><path d="M75.184 48.605h2.414v2.414h-2.414zm0 0"/></clipPath><clipPath id="GC"><path d="M76 46.484h2v2.414h-2zm0 0"/></clipPath><clipPath id="GD"><path d="M75.688 46.484h2.414v2.414h-2.414zm0 0"/></clipPath><clipPath id="GE"><path d="M76 47.305h1.922v2.414H76zm0 0"/></clipPath><clipPath id="GF"><path d="M75.508 47.305h2.414v2.414h-2.414zm0 0"/></clipPath><clipPath id="GG"><path d="M74.43 51.07h2.418V53H74.43zm0 0"/></clipPath><clipPath id="GH"><path d="M74.43 51.07h2.418v2.414H74.43zm0 0"/></clipPath><clipPath id="GI"><path d="M71.426 58h2.414v2h-2.414zm0 0"/></clipPath><clipPath id="GJ"><path d="M71.426 57.62h2.414v2.414h-2.414zm0 0"/></clipPath><clipPath id="GK"><path d="M65 66.063h2V68h-2zm0 0"/></clipPath><clipPath id="GL"><path d="M64.66 66.063h2.414v2.418H64.66zm0 0"/></clipPath><clipPath id="GM"><path d="M52.117 74h2.414v2h-2.414zm0 0"/></clipPath><clipPath id="GN"><path d="M52.117 73.695h2.414v2.414h-2.414zm0 0"/></clipPath><clipPath id="GO"><path d="M34 75.418h2v2.414h-2zm0 0"/></clipPath><clipPath id="GP"><path d="M33.87 75.418h2.414v2.414H33.87zm0 0"/></clipPath><clipPath id="GQ"><path d="M15.074 66.465H17v2.414h-1.926zm0 0"/></clipPath><clipPath id="GR"><path d="M15.074 66.465h2.414v2.414h-2.414zm0 0"/></clipPath><clipPath id="GS"><path d="M4.047 48.37H6v2.414H4.047zm0 0"/></clipPath><clipPath id="GT"><path d="M4.047 48.37H6.46v2.414H4.047zm0 0"/></clipPath><clipPath id="GU"><path d="M4.195 29.238H6.6v2.414H4.195zm0 0"/></clipPath><clipPath id="GV"><path d="M12 15.363h1.934v2.414H12zm0 0"/></clipPath><clipPath id="GW"><path d="M11.52 15.363h2.414v2.414H11.52zm0 0"/></clipPath><clipPath id="GX"><path d="M20.496 8H22.9v2h-2.414zm0 0"/></clipPath><clipPath id="GY"><path d="M20.496 7.668H22.9v2.414h-2.414zm0 0"/></clipPath><clipPath id="GZ"><path d="M28 4.23h2v2.414h-2zm0 0"/></clipPath><clipPath id="Ga"><path d="M27.855 4.23h2.414v2.414h-2.414zm0 0"/></clipPath><clipPath id="Gb"><path d="M32.465 3h2.414v2h-2.414zm0 0"/></clipPath><clipPath id="Gc"><path d="M32.465 3h2.414v2.414h-2.414zm0 0"/></clipPath><path id="Gd" d="M33.937 5.152a1 1 0 1 0 0-2 1 1 0 1 0 0 2zm0 0"/><path id="Ge" d="M13.488 16.7c.262 0 .52-.105.707-.293a1 1 0 0 0 0-1.414c-.187-.187-.445-.293-.707-.293a1.01 1.01 0 0 0-.711.293c-.187.188-.29.44-.29.707s.102.52.29.707a1.01 1.01 0 0 0 .711.293zm0 0"/><path id="Gf" d="M70.723 62.77a1 1 0 0 0 1-1c0-.262-.105-.52-.293-.707a1 1 0 0 0-1.414 0 1.01 1.01 0 0 0-.293.707 1 1 0 0 0 1 1zm0 0"/><path id="Gg" d="M62.078 71.344a1 1 0 0 0 .707-.293c.188-.187.293-.445.293-.707a1 1 0 1 0-2 0c0 .262.105.52.293.707a1 1 0 0 0 .707.293zm0 0"/><path id="Gh" d="M7.074 55.863c.262 0 .52-.105.707-.293a1 1 0 0 0 0-1.414c-.187-.187-.445-.293-.707-.293a1 1 0 1 0 0 2zm0 0"/><path id="Gi" d="M76.77 49.266a1 1 0 1 0 0-2c-.262 0-.52.105-.707.293a1 1 0 0 0 0 1.414c.188.188.445.293.707.293zm0 0"/><path id="Gj" d="M28.14 6.762c.266 0 .52-.102.707-.293a1 1 0 0 0 .293-.707c0-.262-.105-.52-.293-.707a1 1 0 0 0-1.414 0 1.01 1.01 0 0 0-.293.707 1 1 0 0 0 .293.707c.188.2.44.293.707.293zm0 0"/><path id="Gk" d="M64.56 69.426a1.01 1.01 0 0 0 .711-.293.99.99 0 0 0 .29-.707.99.99 0 0 0-.29-.707 1.01 1.01 0 0 0-.711-.293c-.262 0-.52.105-.707.293a1 1 0 0 0 0 1.414c.188.188.445.293.707.293zm0 0"/><path id="Gl" d="M29.715 6.227a1 1 0 0 0 .707-.293c.188-.187.293-.445.293-.707a1.01 1.01 0 0 0-.293-.711c-.187-.187-.44-.29-.707-.29s-.52.102-.707.29a1.01 1.01 0 0 0-.293.711c0 .262.105.52.293.707a1 1 0 0 0 .707.293zm0 0"/><path id="Gm" d="M30.574 5.965a1 1 0 0 0 .707-.293c.188-.187.293-.445.293-.707a1 1 0 0 0-.293-.707c-.187-.19-.44-.293-.707-.293s-.52.102-.707.293a1 1 0 0 0-.293.707c0 .262.105.52.293.707a1 1 0 0 0 .707.293zm0 0"/><path id="Gn" d="M75.453 53.81c.262 0 .52-.105.707-.293s.293-.445.293-.707a1 1 0 0 0-.293-.707c-.187-.187-.445-.293-.707-.293a1 1 0 0 0-1 1c0 .262.105.52.293.707a1 1 0 0 0 .707.293zm0 0"/><path id="Go" d="M74.016 56.934c.188 0 .367-.074.5-.207s.207-.312.207-.5-.074-.367-.207-.5-.312-.207-.5-.207-.367.074-.5.207-.207.313-.207.5.074.367.207.5.313.207.5.207zm0 0"/><path id="Gp" d="M74.016 56.934c.187 0 .367-.074.5-.207s.207-.312.207-.5-.074-.367-.207-.5-.312-.207-.5-.207-.367.074-.5.207-.207.313-.207.5.074.367.207.5.313.207.5.207zm0 0"/></defs><g class="Q O P"><path d="M152.395 101.273l-4.306 11.224-10.378 15.927-20.666 16.78-33.02 8.98-39.17-9.87-29.15-31.184-7.24-39.54L19.46 41.366l17.834-19.438 16.367-9.363L64.955 8.94l5.338-1.046-7.213 1.51-12.4 4.477-17.077 11.05-17.327 22.032L8.137 81.5l11.935 39.312 32.596 27.446 38.955 5.322 30.658-11.524 18.247-17.147 8.808-15.162 3.5-10.084 1.008-4.24-.36 1.64-2.15 7.535-6.018 13.105-13.537 16.897-25.096 15.266-36.506 3.447-37.608-17.913-22.06-36.204.296-38.28 14.654-27.76 17.96-15.396 14.725-6.877 9.224-2.46 3.24-.57-2.71.46-8.68 2.227-14.362 6.37-17.875 14.505-15.31 26.63-1.985 37.67 20.067 37.022 36.867 19.918 37.162-1.813 26.22-14.653 14.436-17.023 6.526-13.537 2.87-10.176-.874 3.74-3.22 9.598-8.243 14.796-17.297 17.154-29.568 12.343-38.522-3.46-33.763-25.518-14.074-38.79L14.84 49.9l16.852-23.27L48.96 14.706l12.92-4.97L70.08 7.94l-4.916.96L54.4 12.265l-15.92 8.783L20.606 39.6 8.797 70.713l5.354 39.055 27.2 32.38 38.625 12.05 33.967-7.392 21.938-16.32 11.3-16.17 4.806-11.714 1.6-6.035-1.546 5.846-4.706 11.59-11.114 16.092-21.587 16.358-33.553 7.763-38.483-11.254-27.742-31.586L8.59 72.356l11.255-31.58 17.702-19.032 16.015-9.14 10.88-3.548 4.986-1.024-8.035 1.83-12.813 5.024-17.127 11.958L14.826 49.9 8.243 84.813l13.35 38.24 32.66 25.846 38.183 4.54 30.01-11.496 17.937-16.843 8.73-14.805 3.485-9.73.976-3.854-.5 2.087-2.533 8.003-6.77 13.45-14.685 16.74-26.174 14.137-36.454 1.51-35.92-19.118-20.364-35.683.72-37.24 14.366-27.22L42.8 18.12l14.373-6.917 8.863-2.533 2.792-.546-3.292.656-9.23 2.727L41.63 18.87 24.14 34.767l-13.745 27.73.266 37.202 20.992 34.826 35.8 18.28 35.928-1.86 25.784-14.06 14.48-16.467 6.69-13.125 2.917-9.257-1.196 4.33-3.994 10.152-9.574 14.96-18.967 16.302-30.392 10.064-37.202-5.932-31.03-25.85L8.253 84.94l6.143-34.06 15.96-22.977L47 15.702l12.445-5.242 7.237-1.907-5.518 1.38-11.435 4.382L33.757 24.78 17.21 45.187 8.223 76.9l7.917 37.084 27.04 29.32 36.584 10.88 32.582-6.634 21.783-15.24 11.668-15.446 5.166-11.214 1.74-5.478-2.37 7.122-6.042 12.115-13.137 15.756-23.463 14.326-33.46 4.345-35.514-13.49-24.576-30.596-5.65-36.474 9.958-30.27 16.382-19.14 15.302-9.744 10.394-4.01 4.462-1.197-1.697.42-7.737 2.46-13.285 6.658-16.466 14.28-14.005 24.89-2.814 34.16 15.2 34.718 30.932 22.73 35.444 4.447 28.88-9.864 18.287-15.445 9.424-14.038 3.985-9.23 1.087-3.322-.89 2.775-3.62 8.668-8.675 13.565-17.023 15.412L94.69 153.07l-34.56-2.095-31.912-19.807-17.967-32.98" stroke-width=".5" stroke-linecap="square" stroke-opacity=".7" class="U"/><g clip-path="url(#D)" transform="scale(2.000772)" class="R"><use xlink:href="#Gd"/></g></g><g clip-path="url(#E)" transform="scale(2.000772)" class="S"><path d="M29.6 6.266a1 1 0 1 0 0-2 1 1 0 1 0 0 2zm0 0"/></g><g clip-path="url(#F)" transform="scale(2.000772)" class="Q R O P"><path d="M29.6 6.266a1 1 0 1 0 0-2 1 1 0 1 0 0 2zm0 0"/></g><g clip-path="url(#I)" transform="scale(2.000772)" class="S"><use xlink:href="#Ge"/></g><g clip-path="url(#J)" transform="scale(2.000772)" class="Q R O P"><use xlink:href="#Ge"/></g><g clip-path="url(#K)" transform="scale(2.000772)" class="S"><path d="M5.836 30.008a1 1 0 1 0 0-2 1 1 0 1 0 0 2zm0 0"/></g><g clip-path="url(#L)" transform="scale(2.000772)" class="Q R O P"><path d="M5.836 30.008a1 1 0 1 0 0-2 1 1 0 1 0 0 2zm0 0"/></g><g class="S"><g clip-path="url(#M)" transform="scale(2.000772)"><path d="M4.844 48.836a1 1 0 0 0 1-1c0-.262-.105-.52-.293-.707a1 1 0 0 0-1.414 0c-.188.188-.293.445-.293.707a1 1 0 0 0 1 1zm0 0"/></g><g clip-path="url(#O)" transform="scale(2.000772)"><path d="M14.875 67.34a1 1 0 1 0 0-2 1 1 0 1 0 0 2zm0 0"/></g></g><g clip-path="url(#P)" transform="scale(2.000772)" class="Q R O P"><path d="M14.875 67.34a1 1 0 1 0 0-2 1 1 0 1 0 0 2zm0 0"/></g><g clip-path="url(#Q)" transform="scale(2.000772)" class="S"><path d="M33.3 77.297a1 1 0 1 0 0-2 1 1 0 1 0 0 2zm0 0"/></g><g clip-path="url(#R)" transform="scale(2.000772)" class="Q R O P"><path d="M33.3 77.297a1 1 0 1 0 0-2 1 1 0 1 0 0 2zm0 0"/></g><g clip-path="url(#S)" transform="scale(2.000772)" class="S"><path d="M51.875 76.4a1 1 0 1 0 0-2 1 1 0 1 0 0 2zm0 0"/></g><g clip-path="url(#T)" transform="scale(2.000772)" class="Q R O P"><path d="M51.875 76.4a1 1 0 1 0 0-2 1 1 0 1 0 0 2zm0 0"/></g><g clip-path="url(#U)" transform="scale(2.000772)" class="S"><path d="M64.98 69.066a1 1 0 1 0 0-2 1 1 0 1 0 0 2zm0 0"/></g><g clip-path="url(#V)" transform="scale(2.000772)" class="Q R O P"><path d="M64.98 69.066a1 1 0 1 0 0-2 1 1 0 1 0 0 2zm0 0"/></g><g clip-path="url(#W)" transform="scale(2.000772)" class="S"><path d="M72.195 60.56a1 1 0 1 0 0-2 1 1 0 1 0 0 2zm0 0"/></g><g clip-path="url(#X)" transform="scale(2.000772)" class="Q R O P"><path d="M72.195 60.56a1 1 0 1 0 0-2 1 1 0 1 0 0 2zm0 0"/></g><g clip-path="url(#Y)" transform="scale(2.000772)" class="S"><path d="M75.457 53.793a1 1 0 1 0 0-2 1 1 0 1 0 0 2zm0 0"/></g><g clip-path="url(#Z)" transform="scale(2.000772)" class="Q R O P"><path d="M75.457 53.793a1 1 0 1 0 0-2 1 1 0 1 0 0 2zm0 0"/></g><g clip-path="url(#a)" transform="scale(2.000772)" class="S"><path d="M76.652 49.777a1 1 0 1 0 0-2 1 1 0 1 0 0 2zm0 0"/></g><g clip-path="url(#b)" transform="scale(2.000772)" class="Q R O P"><path d="M76.652 49.777a1 1 0 1 0 0-2 1 1 0 1 0 0 2zm0 0"/></g><g clip-path="url(#e)" transform="scale(2.000772)" class="S"><path d="M76.453 50.578a1 1 0 1 0 0-2 1 1 0 1 0 0 2zm0 0"/></g><g clip-path="url(#f)" transform="scale(2.000772)" class="Q R O P"><path d="M76.453 50.578a1 1 0 1 0 0-2 1 1 0 1 0 0 2zm0 0"/></g><g clip-path="url(#g)" transform="scale(2.000772)" class="S"><path d="M74.844 55.375a1 1 0 1 0 0-2 1 1 0 1 0 0 2zm0 0"/></g><g clip-path="url(#h)" transform="scale(2.000772)" class="Q R O P"><path d="M74.844 55.375a1 1 0 1 0 0-2 1 1 0 1 0 0 2zm0 0"/></g><g clip-path="url(#i)" transform="scale(2.000772)" class="S"><use xlink:href="#Gf"/></g><g clip-path="url(#j)" transform="scale(2.000772)" class="Q R O P"><use xlink:href="#Gf"/></g><g clip-path="url(#k)" transform="scale(2.000772)" class="S"><use xlink:href="#Gg"/></g><g clip-path="url(#l)" transform="scale(2.000772)" class="Q R O P"><use xlink:href="#Gg"/></g><g clip-path="url(#m)" transform="scale(2.000772)" class="S"><path d="M47.3 77.512a1 1 0 1 0 0-2 1 1 0 1 0 0 2zm0 0"/></g><g clip-path="url(#n)" transform="scale(2.000772)" class="Q R O P"><path d="M47.3 77.512a1 1 0 1 0 0-2 1 1 0 1 0 0 2zm0 0"/></g><g clip-path="url(#o)" transform="scale(2.000772)" class="S"><path d="M28.047 75.78a1 1 0 1 0 0-2 1 1 0 1 0 0 2zm0 0"/></g><g clip-path="url(#p)" transform="scale(2.000772)" class="Q R O P"><path d="M28.047 75.78a1 1 0 1 0 0-2 1 1 0 1 0 0 2zm0 0"/></g><g clip-path="url(#u)" transform="scale(2.000772)" class="S"><path d="M7.418 25.94a1 1 0 1 0 0-2 1 1 0 1 0 0 2zm0 0"/></g><g clip-path="url(#v)" transform="scale(2.000772)" class="Q R O P"><path d="M7.418 25.94a1 1 0 1 0 0-2 1 1 0 1 0 0 2zm0 0"/></g><g clip-path="url(#w)" transform="scale(2.000772)" class="S"><path d="M15.84 14.3a1 1 0 1 0 0-2 1 1 0 1 0 0 2zm0 0"/></g><g clip-path="url(#x)" transform="scale(2.000772)" class="Q R O P"><path d="M15.84 14.3a1 1 0 1 0 0-2 1 1 0 1 0 0 2zm0 0"/></g><g clip-path="url(#y)" transform="scale(2.000772)" class="S"><path d="M24.47 8.348a1 1 0 1 0 0-2 1 1 0 1 0 0 2zm0 0"/></g><g clip-path="url(#z)" transform="scale(2.000772)" class="Q R O P"><path d="M24.47 8.348a1 1 0 1 0 0-2 1 1 0 1 0 0 2zm0 0"/></g><g clip-path="url(#AC)" transform="scale(2.000772)" class="S"><path d="M34.484 5.055a1 1 0 1 0 0-2 1 1 0 1 0 0 2zm0 0"/></g><g clip-path="url(#AD)" transform="scale(2.000772)" class="Q R O P"><path d="M34.484 5.055a1 1 0 1 0 0-2 1 1 0 1 0 0 2zm0 0"/></g><g clip-path="url(#AE)" transform="scale(2.000772)" class="S"><path d="M35.016 4.965a1 1 0 1 0 0-2 1 1 0 1 0 0 2zm0 0"/></g><g clip-path="url(#AF)" transform="scale(2.000772)" class="Q R O P"><path d="M35.016 4.965a1 1 0 1 0 0-2 1 1 0 1 0 0 2zm0 0"/></g><g clip-path="url(#AG)" transform="scale(2.000772)" class="S"><path d="M32.56 5.445a1 1 0 1 0 0-2 1 1 0 1 0 0 2zm0 0"/></g><g clip-path="url(#AH)" transform="scale(2.000772)" class="Q R O P"><path d="M32.56 5.445a1 1 0 1 0 0-2 1 1 0 1 0 0 2zm0 0"/></g><g clip-path="url(#AI)" transform="scale(2.000772)" class="S"><path d="M27.2 7.13a1 1 0 1 0 0-2 1 1 0 1 0 0 2zm0 0"/></g><g clip-path="url(#AJ)" transform="scale(2.000772)" class="Q R O P"><path d="M27.2 7.13a1 1 0 1 0 0-2 1 1 0 1 0 0 2zm0 0"/></g><g clip-path="url(#AK)" transform="scale(2.000772)" class="S"><path d="M19.234 11.52a1 1 0 1 0 0-2 1 1 0 1 0 0 2zm0 0"/></g><g clip-path="url(#AL)" transform="scale(2.000772)" class="Q R O P"><path d="M19.234 11.52a1 1 0 1 0 0-2 1 1 0 1 0 0 2zm0 0"/></g><g clip-path="url(#AM)" transform="scale(2.000772)" class="S"><path d="M10.3 20.793a1 1 0 1 0 0-2 1 1 0 1 0 0 2zm0 0"/></g><g clip-path="url(#AN)" transform="scale(2.000772)" class="Q R O P"><path d="M10.3 20.793a1 1 0 1 0 0-2 1 1 0 1 0 0 2zm0 0"/></g><g clip-path="url(#AQ)" transform="scale(2.000772)" class="S"><use xlink:href="#Gh"/></g><g clip-path="url(#AR)" transform="scale(2.000772)" class="Q R O P"><use xlink:href="#Gh"/></g><g clip-path="url(#AS)" transform="scale(2.000772)" class="S"><path d="M20.668 72.047a1 1 0 1 0 0-2 1 1 0 1 0 0 2zm0 0"/></g><g clip-path="url(#AT)" transform="scale(2.000772)" class="Q R O P"><path d="M20.668 72.047a1 1 0 1 0 0-2 1 1 0 1 0 0 2zm0 0"/></g><g clip-path="url(#AU)" transform="scale(2.000772)" class="S"><path d="M39.973 78.07a1 1 0 1 0 0-2 1 1 0 1 0 0 2zm0 0"/></g><g clip-path="url(#AV)" transform="scale(2.000772)" class="Q R O P"><path d="M39.973 78.07a1 1 0 1 0 0-2 1 1 0 1 0 0 2zm0 0"/></g><g clip-path="url(#AW)" transform="scale(2.000772)" class="S"><path d="M56.95 74.375c.262 0 .52-.105.707-.293a1 1 0 0 0 0-1.414c-.187-.187-.445-.293-.707-.293a1 1 0 1 0 0 2zm0 0"/></g><g clip-path="url(#AX)" transform="scale(2.000772)" class="Q R O P"><path d="M56.95 74.375c.262 0 .52-.105.707-.293a1 1 0 0 0 0-1.414c-.187-.187-.445-.293-.707-.293a1 1 0 1 0 0 2zm0 0"/></g><g clip-path="url(#AY)" transform="scale(2.000772)" class="S"><path d="M67.914 66.22c.262 0 .52-.105.707-.293a1 1 0 0 0 0-1.414c-.187-.187-.445-.293-.707-.293a1 1 0 1 0 0 2zm0 0"/></g><g clip-path="url(#AZ)" transform="scale(2.000772)" class="Q R O P"><path d="M67.914 66.22c.262 0 .52-.105.707-.293a1 1 0 0 0 0-1.414c-.187-.187-.445-.293-.707-.293a1 1 0 1 0 0 2zm0 0"/></g><g clip-path="url(#Aa)" transform="scale(2.000772)" class="S"><path d="M73.563 58.137a1 1 0 0 0 .707-.293c.188-.187.293-.445.293-.707a1 1 0 1 0-2 0c0 .262.105.52.293.707a1 1 0 0 0 .707.293zm0 0"/></g><g clip-path="url(#Ab)" transform="scale(2.000772)" class="Q R O P"><path d="M73.563 58.137a1 1 0 0 0 .707-.293c.188-.187.293-.445.293-.707a1 1 0 1 0-2 0c0 .262.105.52.293.707a1 1 0 0 0 .707.293zm0 0"/></g><g clip-path="url(#Ac)" transform="scale(2.000772)" class="S"><path d="M75.965 52.28a1 1 0 1 0 0-2 1 1 0 1 0 0 2zm0 0"/></g><g clip-path="url(#Ad)" transform="scale(2.000772)" class="Q R O P"><path d="M75.965 52.28a1 1 0 1 0 0-2 1 1 0 1 0 0 2zm0 0"/></g><g clip-path="url(#Ae)" transform="scale(2.000772)" class="S"><path d="M76.766 49.293a1 1 0 1 0 0-2 1 1 0 1 0 0 2zm0 0"/></g><g clip-path="url(#Af)" transform="scale(2.000772)" class="Q R O P"><path d="M76.766 49.293a1 1 0 1 0 0-2 1 1 0 1 0 0 2zm0 0"/></g><g clip-path="url(#Ag)" transform="scale(2.000772)" class="S"><use xlink:href="#Gi"/></g><g clip-path="url(#Ah)" transform="scale(2.000772)" class="Q R O P"><use xlink:href="#Gi"/></g><g clip-path="url(#Ai)" transform="scale(2.000772)" class="S"><path d="M75.996 52.188a1 1 0 1 0 0-2 1 1 0 1 0 0 2zm0 0"/></g><g clip-path="url(#Aj)" transform="scale(2.000772)" class="Q R O P"><path d="M75.996 52.188a1 1 0 1 0 0-2 1 1 0 1 0 0 2zm0 0"/></g><g clip-path="url(#Ak)" transform="scale(2.000772)" class="S"><path d="M73.645 57.98c.262 0 .52-.105.707-.293a1 1 0 0 0 0-1.414c-.187-.187-.445-.293-.707-.293a1.01 1.01 0 0 0-.711.293c-.187.188-.29.44-.29.707s.102.52.29.707a1.01 1.01 0 0 0 .711.293zm0 0"/></g><g clip-path="url(#Al)" transform="scale(2.000772)" class="Q R O P"><path d="M73.645 57.98c.262 0 .52-.105.707-.293a1 1 0 0 0 0-1.414c-.187-.187-.445-.293-.707-.293a1.01 1.01 0 0 0-.711.293c-.187.188-.29.44-.29.707s.102.52.29.707a1.01 1.01 0 0 0 .711.293zm0 0"/></g><g clip-path="url(#Am)" transform="scale(2.000772)" class="S"><path d="M68.1 66.023a1 1 0 1 0 0-2c-.262 0-.52.105-.707.293a1 1 0 0 0 0 1.414c.188.188.445.293.707.293zm0 0"/></g><g clip-path="url(#An)" transform="scale(2.000772)" class="Q R O P"><path d="M68.1 66.023a1 1 0 1 0 0-2c-.262 0-.52.105-.707.293a1 1 0 0 0 0 1.414c.188.188.445.293.707.293zm0 0"/></g><g clip-path="url(#Ao)" transform="scale(2.000772)" class="S"><path d="M57.3 74.2a1 1 0 1 0 0-2 1 1 0 1 0 0 2zm0 0"/></g><g clip-path="url(#Ap)" transform="scale(2.000772)" class="Q R O P"><path d="M57.3 74.2a1 1 0 1 0 0-2 1 1 0 1 0 0 2zm0 0"/></g><g clip-path="url(#As)" transform="scale(2.000772)" class="S"><path d="M21.297 72.453a1 1 0 1 0 0-2 1 1 0 1 0 0 2zm0 0"/></g><g clip-path="url(#At)" transform="scale(2.000772)" class="Q R O P"><path d="M21.297 72.453a1 1 0 1 0 0-2 1 1 0 1 0 0 2zm0 0"/></g><g clip-path="url(#Au)" transform="scale(2.000772)" class="S"><path d="M7.43 56.668a1 1 0 1 0 0-2 1 1 0 1 0 0 2zm0 0"/></g><g clip-path="url(#Av)" transform="scale(2.000772)" class="Q R O P"><path d="M7.43 56.668a1 1 0 1 0 0-2 1 1 0 1 0 0 2zm0 0"/></g><g clip-path="url(#Aw)" transform="scale(2.000772)" class="S"><path d="M4.293 37.164a1 1 0 1 0 0-2c-.262 0-.52.105-.707.293a1 1 0 0 0 0 1.414c.188.188.445.293.707.293zm0 0"/></g><g clip-path="url(#Ax)" transform="scale(2.000772)" class="Q R O P"><path d="M4.293 37.164a1 1 0 1 0 0-2c-.262 0-.52.105-.707.293a1 1 0 0 0 0 1.414c.188.188.445.293.707.293zm0 0"/></g><g clip-path="url(#Ay)" transform="scale(2.000772)" class="S"><path d="M9.918 21.38c.262 0 .52-.105.707-.293a1 1 0 0 0 0-1.414c-.187-.187-.445-.293-.707-.293a1.01 1.01 0 0 0-.711.293c-.187.188-.29.44-.29.707s.102.52.29.707a1.01 1.01 0 0 0 .711.293zm0 0"/></g><g clip-path="url(#Az)" transform="scale(2.000772)" class="Q R O P"><path d="M9.918 21.38c.262 0 .52-.105.707-.293a1 1 0 0 0 0-1.414c-.187-.187-.445-.293-.707-.293a1.01 1.01 0 0 0-.711.293c-.187.188-.29.44-.29.707s.102.52.29.707a1.01 1.01 0 0 0 .711.293zm0 0"/></g><g clip-path="url(#BA)" transform="scale(2.000772)" class="S"><path d="M18.766 11.867a1 1 0 1 0 0-2 1 1 0 1 0 0 2zm0 0"/></g><g clip-path="url(#BB)" transform="scale(2.000772)" class="Q R O P"><path d="M18.766 11.867a1 1 0 1 0 0-2 1 1 0 1 0 0 2zm0 0"/></g><g clip-path="url(#BC)" transform="scale(2.000772)" class="S"><path d="M26.77 7.3a1 1 0 1 0 0-2 1 1 0 1 0 0 2zm0 0"/></g><g clip-path="url(#BD)" transform="scale(2.000772)" class="Q R O P"><path d="M26.77 7.3a1 1 0 1 0 0-2 1 1 0 1 0 0 2zm0 0"/></g><g clip-path="url(#BE)" transform="scale(2.000772)" class="S"><path d="M32.207 5.527c.262 0 .52-.105.707-.293a1 1 0 0 0 0-1.414c-.187-.187-.445-.293-.707-.293a1 1 0 1 0 0 2zm0 0"/></g><g clip-path="url(#BF)" transform="scale(2.000772)" class="Q R O P"><path d="M32.207 5.527c.262 0 .52-.105.707-.293a1 1 0 0 0 0-1.414c-.187-.187-.445-.293-.707-.293a1 1 0 1 0 0 2zm0 0"/></g><g clip-path="url(#BG)" transform="scale(2.000772)" class="S"><path d="M34.7 5.016a1 1 0 1 0 0-2 1 1 0 1 0 0 2zm0 0"/></g><g clip-path="url(#BH)" transform="scale(2.000772)" class="Q R O P"><path d="M34.7 5.016a1 1 0 1 0 0-2 1 1 0 1 0 0 2zm0 0"/></g><g clip-path="url(#BI)" transform="scale(2.000772)" class="S"><path d="M34.188 5.105a1 1 0 1 0 0-2 1 1 0 1 0 0 2zm0 0"/></g><g clip-path="url(#BJ)" transform="scale(2.000772)" class="Q R O P"><path d="M34.188 5.105a1 1 0 1 0 0-2 1 1 0 1 0 0 2zm0 0"/></g><g clip-path="url(#BK)" transform="scale(2.000772)" class="S"><path d="M30.684 5.93a1 1 0 1 0 0-2c-.262 0-.52.105-.707.293a1 1 0 0 0 0 1.414c.188.188.445.293.707.293zm0 0"/></g><g clip-path="url(#BL)" transform="scale(2.000772)" class="Q R O P"><path d="M30.684 5.93a1 1 0 1 0 0-2c-.262 0-.52.105-.707.293a1 1 0 0 0 0 1.414c.188.188.445.293.707.293zm0 0"/></g><g clip-path="url(#BM)" transform="scale(2.000772)" class="S"><path d="M24.28 8.44c.262 0 .52-.105.707-.293a1 1 0 0 0 0-1.414c-.187-.187-.445-.293-.707-.293a1 1 0 1 0 0 2zm0 0"/></g><g clip-path="url(#BN)" transform="scale(2.000772)" class="Q R O P"><path d="M24.28 8.44c.262 0 .52-.105.707-.293a1 1 0 0 0 0-1.414c-.187-.187-.445-.293-.707-.293a1 1 0 1 0 0 2zm0 0"/></g><g clip-path="url(#BO)" transform="scale(2.000772)" class="S"><path d="M15.723 14.418a1 1 0 1 0 0-2c-.262 0-.52.105-.707.293a1 1 0 0 0 0 1.414c.188.188.445.293.707.293zm0 0"/></g><g clip-path="url(#BP)" transform="scale(2.000772)" class="Q R O P"><path d="M15.723 14.418a1 1 0 1 0 0-2c-.262 0-.52.105-.707.293a1 1 0 0 0 0 1.414c.188.188.445.293.707.293zm0 0"/></g><g clip-path="url(#BS)" transform="scale(2.000772)" class="S"><path d="M4.12 43.4a1 1 0 1 0 0-2 1 1 0 1 0 0 2zm0 0"/></g><g clip-path="url(#BT)" transform="scale(2.000772)" class="Q R O P"><path d="M4.12 43.4a1 1 0 1 0 0-2 1 1 0 1 0 0 2zm0 0"/></g><g clip-path="url(#BU)" transform="scale(2.000772)" class="S"><path d="M10.793 62.504a1 1 0 0 0 .707-.293c.188-.187.293-.445.293-.707a1 1 0 1 0-2 0c0 .262.105.52.293.707a1 1 0 0 0 .707.293zm0 0"/></g><g clip-path="url(#BV)" transform="scale(2.000772)" class="Q R O P"><path d="M10.793 62.504a1 1 0 0 0 .707-.293c.188-.187.293-.445.293-.707a1 1 0 1 0-2 0c0 .262.105.52.293.707a1 1 0 0 0 .707.293zm0 0"/></g><g clip-path="url(#BY)" transform="scale(2.000772)" class="S"><path d="M46.2 77.7a1 1 0 1 0 0-2 1 1 0 1 0 0 2zm0 0"/></g><g clip-path="url(#BZ)" transform="scale(2.000772)" class="Q R O P"><path d="M46.2 77.7a1 1 0 1 0 0-2 1 1 0 1 0 0 2zm0 0"/></g><g clip-path="url(#Ba)" transform="scale(2.000772)" class="S"><path d="M61.2 71.945a1 1 0 1 0 0-2 1 1 0 1 0 0 2zm0 0"/></g><g clip-path="url(#Bb)" transform="scale(2.000772)" class="Q R O P"><path d="M61.2 71.945a1 1 0 1 0 0-2 1 1 0 1 0 0 2zm0 0"/></g><g clip-path="url(#Bc)" transform="scale(2.000772)" class="S"><path d="M70.164 63.527a1 1 0 1 0 0-2c-.262 0-.52.105-.707.293a1 1 0 0 0 0 1.414c.188.188.445.293.707.293zm0 0"/></g><g clip-path="url(#Bd)" transform="scale(2.000772)" class="Q R O P"><path d="M70.164 63.527a1 1 0 1 0 0-2c-.262 0-.52.105-.707.293a1 1 0 0 0 0 1.414c.188.188.445.293.707.293zm0 0"/></g><g clip-path="url(#Be)" transform="scale(2.000772)" class="S"><path d="M74.527 56.117a1 1 0 1 0 0-2 1 1 0 1 0 0 2zm0 0"/></g><g clip-path="url(#Bf)" transform="scale(2.000772)" class="Q R O P"><path d="M74.527 56.117a1 1 0 1 0 0-2 1 1 0 1 0 0 2zm0 0"/></g><g clip-path="url(#Bg)" transform="scale(2.000772)" class="S"><path d="M76.27 51.254a1 1 0 1 0 0-2 1 1 0 1 0 0 2zm0 0"/></g><g clip-path="url(#Bh)" transform="scale(2.000772)" class="Q R O P"><path d="M76.27 51.254a1 1 0 1 0 0-2 1 1 0 1 0 0 2zm0 0"/></g><g clip-path="url(#Bi)" transform="scale(2.000772)" class="S"><path d="M76.758 49.328a1 1 0 1 0 0-2 1 1 0 1 0 0 2zm0 0"/></g><g clip-path="url(#Bj)" transform="scale(2.000772)" class="Q R O P"><path d="M76.758 49.328a1 1 0 1 0 0-2 1 1 0 1 0 0 2zm0 0"/></g><g clip-path="url(#Bk)" transform="scale(2.000772)" class="S"><path d="M76.508 50.37a1 1 0 1 0 0-2 1 1 0 1 0 0 2zm0 0"/></g><g clip-path="url(#Bl)" transform="scale(2.000772)" class="Q R O P"><path d="M76.508 50.37a1 1 0 1 0 0-2 1 1 0 1 0 0 2zm0 0"/></g><g clip-path="url(#Bm)" transform="scale(2.000772)" class="S"><path d="M75.242 54.37a1 1 0 1 0 0-2 1 1 0 1 0 0 2zm0 0"/></g><g clip-path="url(#Bn)" transform="scale(2.000772)" class="Q R O P"><path d="M75.242 54.37a1 1 0 1 0 0-2 1 1 0 1 0 0 2zm0 0"/></g><g clip-path="url(#Bq)" transform="scale(2.000772)" class="S"><path d="M64.52 69.46a1 1 0 1 0 0-2 1 1 0 1 0 0 2zm0 0"/></g><g clip-path="url(#Br)" transform="scale(2.000772)" class="Q R O P"><path d="M64.52 69.46a1 1 0 1 0 0-2 1 1 0 1 0 0 2zm0 0"/></g><g clip-path="url(#Bs)" transform="scale(2.000772)" class="S"><path d="M51.438 76.527a1 1 0 1 0 0-2 1 1 0 1 0 0 2zm0 0"/></g><g clip-path="url(#Bt)" transform="scale(2.000772)" class="Q R O P"><path d="M51.438 76.527a1 1 0 1 0 0-2 1 1 0 1 0 0 2zm0 0"/></g><g clip-path="url(#Bu)" transform="scale(2.000772)" class="S"><path d="M33.22 77.28a1 1 0 1 0 0-2 1 1 0 1 0 0 2zm0 0"/></g><g clip-path="url(#Bv)" transform="scale(2.000772)" class="Q R O P"><path d="M33.22 77.28a1 1 0 1 0 0-2 1 1 0 1 0 0 2zm0 0"/></g><g clip-path="url(#Bw)" transform="scale(2.000772)" class="S"><path d="M15.266 67.727a1 1 0 1 0 0-2 1 1 0 1 0 0 2zm0 0"/></g><g clip-path="url(#Bx)" transform="scale(2.000772)" class="Q R O P"><path d="M15.266 67.727a1 1 0 1 0 0-2 1 1 0 1 0 0 2zm0 0"/></g><g clip-path="url(#By)" transform="scale(2.000772)" class="S"><path d="M5.086 49.9a1 1 0 1 0 0-2 1 1 0 1 0 0 2zm0 0"/></g><g clip-path="url(#Bz)" transform="scale(2.000772)" class="Q R O P"><path d="M5.086 49.9a1 1 0 1 0 0-2 1 1 0 1 0 0 2zm0 0"/></g><g clip-path="url(#CA)" transform="scale(2.000772)" class="S"><path d="M5.445 31.297a1 1 0 1 0 0-2 1 1 0 1 0 0 2zm0 0"/></g><g clip-path="url(#CB)" transform="scale(2.000772)" class="Q R O P"><path d="M5.445 31.297a1 1 0 1 0 0-2 1 1 0 1 0 0 2zm0 0"/></g><g clip-path="url(#CC)" transform="scale(2.000772)" class="S"><path d="M12.625 17.7a1 1 0 1 0 0-2 1 1 0 1 0 0 2zm0 0"/></g><g clip-path="url(#CD)" transform="scale(2.000772)" class="Q R O P"><path d="M12.625 17.7a1 1 0 1 0 0-2 1 1 0 1 0 0 2zm0 0"/></g><g clip-path="url(#CG)" transform="scale(2.000772)" class="S"><path d="M28.574 6.6a1 1 0 0 0 .707-.293c.188-.187.293-.445.293-.707a1 1 0 1 0-2 0c0 .262.105.52.293.707a1 1 0 0 0 .707.293zm0 0"/></g><g clip-path="url(#CH)" transform="scale(2.000772)" class="Q R O P"><path d="M28.574 6.6a1 1 0 0 0 .707-.293c.188-.187.293-.445.293-.707a1 1 0 1 0-2 0c0 .262.105.52.293.707a1 1 0 0 0 .707.293zm0 0"/></g><g clip-path="url(#CI)" transform="scale(2.000772)" class="S"><path d="M33.004 5.344a1 1 0 1 0 0-2 1 1 0 1 0 0 2zm0 0"/></g><g clip-path="url(#CJ)" transform="scale(2.000772)" class="Q R O P"><path d="M33.004 5.344a1 1 0 1 0 0-2 1 1 0 1 0 0 2zm0 0"/></g><g clip-path="url(#CK)" transform="scale(2.000772)" class="S"><path d="M34.398 5.07a1 1 0 0 0 .707-.293c.188-.187.293-.445.293-.707a1 1 0 1 0-2 0c0 .262.105.52.293.707a1 1 0 0 0 .707.293zm0 0"/></g><g clip-path="url(#CL)" transform="scale(2.000772)" class="Q R O P"><path d="M34.398 5.07a1 1 0 0 0 .707-.293c.188-.187.293-.445.293-.707a1 1 0 1 0-2 0c0 .262.105.52.293.707a1 1 0 0 0 .707.293zm0 0"/></g><g clip-path="url(#CO)" transform="scale(2.000772)" class="S"><use xlink:href="#Gj"/></g><g clip-path="url(#CP)" transform="scale(2.000772)" class="Q R O P"><use xlink:href="#Gj"/></g><g clip-path="url(#CQ)" transform="scale(2.000772)" class="S"><path d="M20.805 10.44a1 1 0 1 0 0-2 1 1 0 1 0 0 2zm0 0"/></g><g clip-path="url(#CR)" transform="scale(2.000772)" class="Q R O P"><path d="M20.805 10.44a1 1 0 1 0 0-2 1 1 0 1 0 0 2zm0 0"/></g><g clip-path="url(#CS)" transform="scale(2.000772)" class="S"><path d="M12.063 18.387c.262 0 .52-.105.707-.293a1 1 0 0 0 0-1.414c-.187-.187-.445-.293-.707-.293a1 1 0 1 0 0 2zm0 0"/></g><g clip-path="url(#CT)" transform="scale(2.000772)" class="Q R O P"><path d="M12.062 18.387c.262 0 .52-.105.707-.293a1 1 0 0 0 0-1.414c-.187-.187-.445-.293-.707-.293a1 1 0 1 0 0 2zm0 0"/></g><g clip-path="url(#CU)" transform="scale(2.000772)" class="S"><path d="M5.2 32.246a1 1 0 1 0 0-2 1 1 0 1 0 0 2zm0 0"/></g><g clip-path="url(#CV)" transform="scale(2.000772)" class="Q R O P"><path d="M5.2 32.246a1 1 0 1 0 0-2 1 1 0 1 0 0 2zm0 0"/></g><g clip-path="url(#CY)" transform="scale(2.000772)" class="S"><path d="M15.816 68.246a1 1 0 1 0 0-2 1 1 0 1 0 0 2zm0 0"/></g><g clip-path="url(#CZ)" transform="scale(2.000772)" class="Q R O P"><path d="M15.816 68.246a1 1 0 1 0 0-2 1 1 0 1 0 0 2zm0 0"/></g><g clip-path="url(#Ca)" transform="scale(2.000772)" class="S"><path d="M33.715 77.383a1 1 0 1 0 0-2 1 1 0 1 0 0 2zm0 0"/></g><g clip-path="url(#Cb)" transform="scale(2.000772)" class="Q R O P"><path d="M33.715 77.383a1 1 0 1 0 0-2 1 1 0 1 0 0 2zm0 0"/></g><g clip-path="url(#Cc)" transform="scale(2.000772)" class="S"><path d="M51.672 76.453a1 1 0 1 0 0-2 1 1 0 1 0 0 2zm0 0"/></g><g clip-path="url(#Cd)" transform="scale(2.000772)" class="Q R O P"><path d="M51.672 76.453a1 1 0 1 0 0-2 1 1 0 1 0 0 2zm0 0"/></g><g clip-path="url(#Ce)" transform="scale(2.000772)" class="S"><use xlink:href="#Gk"/></g><g clip-path="url(#Cf)" transform="scale(2.000772)" class="Q R O P"><use xlink:href="#Gk"/></g><g clip-path="url(#Cg)" transform="scale(2.000772)" class="S"><path d="M71.797 61.195a1 1 0 0 0 .707-.293c.188-.187.293-.445.293-.707a1 1 0 1 0-2 0c0 .262.105.52.293.707a1 1 0 0 0 .707.293zm0 0"/></g><g clip-path="url(#Ch)" transform="scale(2.000772)" class="Q R O P"><path d="M71.797 61.195a1 1 0 0 0 .707-.293c.188-.187.293-.445.293-.707a1 1 0 1 0-2 0c0 .262.105.52.293.707a1 1 0 0 0 .707.293zm0 0"/></g><g clip-path="url(#Ci)" transform="scale(2.000772)" class="S"><path d="M75.14 54.637a1 1 0 1 0 0-2 1 1 0 1 0 0 2zm0 0"/></g><g clip-path="url(#Cj)" transform="scale(2.000772)" class="Q R O P"><path d="M75.14 54.637a1 1 0 1 0 0-2 1 1 0 1 0 0 2zm0 0"/></g><g clip-path="url(#Ck)" transform="scale(2.000772)" class="S"><path d="M76.387 50.832a1 1 0 0 0 .707-.293c.188-.187.293-.445.293-.707a1 1 0 1 0-2 0c0 .262.105.52.293.707a1 1 0 0 0 .707.293zm0 0"/></g><g clip-path="url(#Cl)" transform="scale(2.000772)" class="Q R O P"><path d="M76.387 50.832a1 1 0 0 0 .707-.293c.188-.187.293-.445.293-.707a1 1 0 1 0-2 0c0 .262.105.52.293.707a1 1 0 0 0 .707.293zm0 0"/></g><g clip-path="url(#Cm)" transform="scale(2.000772)" class="S"><path d="M76.602 50c.262 0 .52-.105.707-.293a1 1 0 0 0 0-1.414c-.187-.187-.445-.293-.707-.293a1 1 0 1 0 0 2zm0 0"/></g><g clip-path="url(#Cn)" transform="scale(2.000772)" class="Q R O P"><path d="M76.602 50c.262 0 .52-.105.707-.293a1 1 0 0 0 0-1.414c-.187-.187-.445-.293-.707-.293a1 1 0 1 0 0 2zm0 0"/></g><g clip-path="url(#Co)" transform="scale(2.000772)" class="S"><path d="M76.004 52.164a1 1 0 0 0 .707-.293c.188-.187.293-.445.293-.707a1 1 0 1 0-2 0c0 .262.105.52.293.707a1 1 0 0 0 .707.293zm0 0"/></g><g clip-path="url(#Cp)" transform="scale(2.000772)" class="Q R O P"><path d="M76.004 52.164a1 1 0 0 0 .707-.293c.188-.187.293-.445.293-.707a1 1 0 1 0-2 0c0 .262.105.52.293.707a1 1 0 0 0 .707.293zm0 0"/></g><g clip-path="url(#Cq)" transform="scale(2.000772)" class="S"><path d="M74.008 57.238a1 1 0 1 0 0-2 1 1 0 1 0 0 2zm0 0"/></g><g clip-path="url(#Cr)" transform="scale(2.000772)" class="Q R O P"><path d="M74.008 57.238a1 1 0 1 0 0-2 1 1 0 1 0 0 2zm0 0"/></g><g clip-path="url(#Cs)" transform="scale(2.000772)" class="S"><path d="M69.223 64.715a1 1 0 1 0 0-2 1 1 0 1 0 0 2zm0 0"/></g><g clip-path="url(#Ct)" transform="scale(2.000772)" class="Q R O P"><path d="M69.223 64.715a1 1 0 1 0 0-2 1 1 0 1 0 0 2zm0 0"/></g><g clip-path="url(#Cu)" transform="scale(2.000772)" class="S"><path d="M59.742 72.863a1 1 0 1 0 0-2c-.262 0-.52.105-.707.293a1 1 0 0 0 0 1.414c.188.188.445.293.707.293zm0 0"/></g><g clip-path="url(#Cv)" transform="scale(2.000772)" class="Q R O P"><path d="M59.742 72.863a1 1 0 1 0 0-2c-.262 0-.52.105-.707.293a1 1 0 0 0 0 1.414c.188.188.445.293.707.293zm0 0"/></g><g clip-path="url(#Cw)" transform="scale(2.000772)" class="S"><path d="M44.55 77.895a1 1 0 1 0 0-2 1 1 0 1 0 0 2zm0 0"/></g><g clip-path="url(#Cx)" transform="scale(2.000772)" class="Q R O P"><path d="M44.55 77.895a1 1 0 1 0 0-2 1 1 0 1 0 0 2zm0 0"/></g><g clip-path="url(#Cy)" transform="scale(2.000772)" class="S"><path d="M25.957 74.93a1 1 0 1 0 0-2 1 1 0 1 0 0 2zm0 0"/></g><g clip-path="url(#Cz)" transform="scale(2.000772)" class="Q R O P"><path d="M25.957 74.93a1 1 0 1 0 0-2 1 1 0 1 0 0 2zm0 0"/></g><g clip-path="url(#DA)" transform="scale(2.000772)" class="S"><path d="M10.45 62.008a1 1 0 1 0 0-2 1 1 0 1 0 0 2zm0 0"/></g><g clip-path="url(#DB)" transform="scale(2.000772)" class="Q R O P"><path d="M10.45 62.008a1 1 0 1 0 0-2 1 1 0 1 0 0 2zm0 0"/></g><g clip-path="url(#DC)" transform="scale(2.000772)" class="S"><path d="M4.125 43.453a1 1 0 1 0 0-2 1 1 0 1 0 0 2zm0 0"/></g><g clip-path="url(#DD)" transform="scale(2.000772)" class="Q R O P"><path d="M4.125 43.453a1 1 0 1 0 0-2 1 1 0 1 0 0 2zm0 0"/></g><g clip-path="url(#DE)" transform="scale(2.000772)" class="S"><path d="M7.195 26.43a1 1 0 1 0 0-2c-.262 0-.52.105-.707.293a1 1 0 0 0 0 1.414c.188.188.445.293.707.293zm0 0"/></g><g clip-path="url(#DF)" transform="scale(2.000772)" class="Q R O P"><path d="M7.195 26.43a1 1 0 1 0 0-2c-.262 0-.52.105-.707.293a1 1 0 0 0 0 1.414c.188.188.445.293.707.293zm0 0"/></g><g clip-path="url(#DG)" transform="scale(2.000772)" class="S"><path d="M15.172 14.945c.262 0 .52-.105.707-.293a1 1 0 0 0 0-1.414c-.187-.187-.445-.293-.707-.293a1 1 0 1 0 0 2zm0 0"/></g><g clip-path="url(#DH)" transform="scale(2.000772)" class="Q R O P"><path d="M15.172 14.945c.262 0 .52-.105.707-.293a1 1 0 0 0 0-1.414c-.187-.187-.445-.293-.707-.293a1 1 0 1 0 0 2zm0 0"/></g><g clip-path="url(#DI)" transform="scale(2.000772)" class="S"><path d="M23.496 8.848c.266 0 .52-.102.707-.293a1 1 0 0 0 .293-.707c0-.262-.105-.52-.293-.707a1 1 0 0 0-1.414 0 1.01 1.01 0 0 0-.293.707 1 1 0 0 0 .293.707c.188.2.44.293.707.293zm0 0"/></g><g clip-path="url(#DJ)" transform="scale(2.000772)" class="Q R O P"><path d="M23.496 8.848c.266 0 .52-.102.707-.293a1 1 0 0 0 .293-.707c0-.262-.105-.52-.293-.707a1 1 0 0 0-1.414 0 1.01 1.01 0 0 0-.293.707 1 1 0 0 0 .293.707c.188.2.44.293.707.293zm0 0"/></g><g clip-path="url(#DK)" transform="scale(2.000772)" class="S"><use xlink:href="#Gl"/></g><g clip-path="url(#DL)" transform="scale(2.000772)" class="Q R O P"><use xlink:href="#Gl"/></g><g clip-path="url(#DM)" transform="scale(2.000772)" class="S"><path d="M33.063 5.332a1 1 0 1 0 0-2 1 1 0 1 0 0 2zm0 0"/></g><g clip-path="url(#DN)" transform="scale(2.000772)" class="Q R O P"><path d="M33.062 5.332a1 1 0 1 0 0-2 1 1 0 1 0 0 2zm0 0"/></g><g clip-path="url(#DO)" transform="scale(2.000772)" class="S"><path d="M33.332 5.273a1 1 0 1 0 0-2 1 1 0 1 0 0 2zm0 0"/></g><g clip-path="url(#DP)" transform="scale(2.000772)" class="Q R O P"><path d="M33.332 5.273a1 1 0 1 0 0-2 1 1 0 1 0 0 2zm0 0"/></g><g clip-path="url(#DQ)" transform="scale(2.000772)" class="S"><use xlink:href="#Gm"/></g><g clip-path="url(#DR)" transform="scale(2.000772)" class="Q R O P"><use xlink:href="#Gm"/></g><g clip-path="url(#DS)" transform="scale(2.000772)" class="S"><path d="M24.86 8.156a1 1 0 1 0 0-2 1 1 0 1 0 0 2zm0 0"/></g><g clip-path="url(#DT)" transform="scale(2.000772)" class="Q R O P"><path d="M24.86 8.156a1 1 0 1 0 0-2 1 1 0 1 0 0 2zm0 0"/></g><g clip-path="url(#DU)" transform="scale(2.000772)" class="S"><path d="M16.87 13.387a1 1 0 1 0 0-2 1 1 0 1 0 0 2zm0 0"/></g><g clip-path="url(#DV)" transform="scale(2.000772)" class="Q R O P"><path d="M16.87 13.387a1 1 0 1 0 0-2 1 1 0 1 0 0 2zm0 0"/></g><g clip-path="url(#DW)" transform="scale(2.000772)" class="S"><path d="M8.602 23.586a1 1 0 0 0 1-1c0-.262-.105-.52-.293-.707a1 1 0 0 0-1.414 0 1.01 1.01 0 0 0-.293.707 1 1 0 0 0 1 1zm0 0"/></g><g clip-path="url(#DX)" transform="scale(2.000772)" class="Q R O P"><path d="M8.602 23.586a1 1 0 0 0 1-1c0-.262-.105-.52-.293-.707a1 1 0 0 0-1.414 0 1.01 1.01 0 0 0-.293.707 1 1 0 0 0 1 1zm0 0"/></g><g clip-path="url(#DY)" transform="scale(2.000772)" class="S"><path d="M4.1 39.44a1 1 0 1 0 0-2 1 1 0 1 0 0 2zm0 0"/></g><g clip-path="url(#DZ)" transform="scale(2.000772)" class="Q R O P"><path d="M4.1 39.44a1 1 0 1 0 0-2 1 1 0 1 0 0 2zm0 0"/></g><g clip-path="url(#Da)" transform="scale(2.000772)" class="S"><path d="M8.066 57.977a1 1 0 1 0 0-2 1 1 0 1 0 0 2zm0 0"/></g><g clip-path="url(#Db)" transform="scale(2.000772)" class="Q R O P"><path d="M8.066 57.977a1 1 0 1 0 0-2 1 1 0 1 0 0 2zm0 0"/></g><g clip-path="url(#Dc)" transform="scale(2.000772)" class="S"><path d="M21.582 72.63a1 1 0 1 0 0-2 1 1 0 1 0 0 2zm0 0"/></g><g clip-path="url(#Dd)" transform="scale(2.000772)" class="Q R O P"><path d="M21.582 72.63a1 1 0 1 0 0-2 1 1 0 1 0 0 2zm0 0"/></g><g clip-path="url(#De)" transform="scale(2.000772)" class="S"><path d="M39.867 78.066a1 1 0 1 0 0-2 1 1 0 1 0 0 2zm0 0"/></g><g clip-path="url(#Df)" transform="scale(2.000772)" class="Q R O P"><path d="M39.867 78.066a1 1 0 1 0 0-2 1 1 0 1 0 0 2zm0 0"/></g><g clip-path="url(#Dg)" transform="scale(2.000772)" class="S"><path d="M56.152 74.75a1 1 0 1 0 0-2 1 1 0 1 0 0 2zm0 0"/></g><g clip-path="url(#Dh)" transform="scale(2.000772)" class="Q R O P"><path d="M56.152 74.75a1 1 0 1 0 0-2 1 1 0 1 0 0 2zm0 0"/></g><g clip-path="url(#Di)" transform="scale(2.000772)" class="S"><path d="M67.04 67.133c.266 0 .52-.102.707-.293a1 1 0 0 0 .293-.707c0-.262-.105-.52-.293-.707a1 1 0 0 0-1.414 0 1.01 1.01 0 0 0-.293.707 1 1 0 0 0 .293.707c.188.2.44.293.707.293zm0 0"/></g><g clip-path="url(#Dj)" transform="scale(2.000772)" class="Q R O P"><path d="M67.04 67.133c.266 0 .52-.102.707-.293a1 1 0 0 0 .293-.707c0-.262-.105-.52-.293-.707a1 1 0 0 0-1.414 0 1.01 1.01 0 0 0-.293.707 1 1 0 0 0 .293.707c.188.2.44.293.707.293zm0 0"/></g><g clip-path="url(#Dk)" transform="scale(2.000772)" class="S"><path d="M72.87 59.414a1 1 0 1 0 0-2c-.262 0-.52.105-.707.293a1 1 0 0 0 0 1.414c.188.188.445.293.707.293zm0 0"/></g><g clip-path="url(#Dl)" transform="scale(2.000772)" class="Q R O P"><path d="M72.87 59.414a1 1 0 1 0 0-2c-.262 0-.52.105-.707.293a1 1 0 0 0 0 1.414c.188.188.445.293.707.293zm0 0"/></g><g clip-path="url(#Dm)" transform="scale(2.000772)" class="S"><use xlink:href="#Gn"/></g><g clip-path="url(#Dn)" transform="scale(2.000772)" class="Q R O P"><use xlink:href="#Gn"/></g><g clip-path="url(#Do)" transform="scale(2.000772)" class="S"><path d="M76.324 51.07c.262 0 .52-.105.707-.293a1 1 0 0 0 0-1.414c-.187-.187-.445-.293-.707-.293a1 1 0 1 0 0 2zm0 0"/></g><g clip-path="url(#Dp)" transform="scale(2.000772)" class="Q R O P"><path d="M76.324 51.07c.262 0 .52-.105.707-.293a1 1 0 0 0 0-1.414c-.187-.187-.445-.293-.707-.293a1 1 0 1 0 0 2zm0 0"/></g><g clip-path="url(#Ds)" transform="scale(2.000772)" class="S"><path d="M75.14 54.63a1 1 0 1 0 0-2c-.262 0-.52.105-.707.293a1 1 0 0 0 0 1.414c.188.188.445.293.707.293zm0 0"/></g><g clip-path="url(#Dt)" transform="scale(2.000772)" class="Q R O P"><path d="M75.14 54.63a1 1 0 1 0 0-2c-.262 0-.52.105-.707.293a1 1 0 0 0 0 1.414c.188.188.445.293.707.293zm0 0"/></g><g clip-path="url(#Du)" transform="scale(2.000772)" class="S"><path d="M72.12 60.684a1 1 0 0 0 .707-.293c.188-.187.293-.445.293-.707a1 1 0 1 0-2 0c0 .262.105.52.293.707a1 1 0 0 0 .707.293zm0 0"/></g><g clip-path="url(#Dv)" transform="scale(2.000772)" class="Q R O P"><path d="M72.12 60.684a1 1 0 0 0 .707-.293c.188-.187.293-.445.293-.707a1 1 0 1 0-2 0c0 .262.105.52.293.707a1 1 0 0 0 .707.293zm0 0"/></g><g clip-path="url(#Dw)" transform="scale(2.000772)" class="S"><path d="M65.555 68.56a1 1 0 1 0 0-2 1 1 0 1 0 0 2zm0 0"/></g><g clip-path="url(#Dx)" transform="scale(2.000772)" class="Q R O P"><path d="M65.555 68.56a1 1 0 1 0 0-2 1 1 0 1 0 0 2zm0 0"/></g><g clip-path="url(#Dy)" transform="scale(2.000772)" class="S"><path d="M53.828 75.72a1 1 0 1 0 0-2 1 1 0 1 0 0 2zm0 0"/></g><g clip-path="url(#Dz)" transform="scale(2.000772)" class="Q R O P"><path d="M53.828 75.72a1 1 0 1 0 0-2 1 1 0 1 0 0 2zm0 0"/></g><g clip-path="url(#EA)" transform="scale(2.000772)" class="S"><path d="M37.105 77.9c.262 0 .52-.105.707-.293a1 1 0 0 0 0-1.414c-.187-.187-.445-.293-.707-.293a1 1 0 1 0 0 2zm0 0"/></g><g clip-path="url(#EB)" transform="scale(2.000772)" class="Q R O P"><path d="M37.105 77.9c.262 0 .52-.105.707-.293a1 1 0 0 0 0-1.414c-.187-.187-.445-.293-.707-.293a1 1 0 1 0 0 2zm0 0"/></g><g clip-path="url(#EC)" transform="scale(2.000772)" class="S"><path d="M19.355 71.148a1 1 0 0 0 .707-.293c.188-.187.293-.445.293-.707a1 1 0 1 0-2 0c0 .262.105.52.293.707a1 1 0 0 0 .707.293zm0 0"/></g><g clip-path="url(#ED)" transform="scale(2.000772)" class="Q R O P"><path d="M19.355 71.148a1 1 0 0 0 .707-.293c.188-.187.293-.445.293-.707a1 1 0 1 0-2 0c0 .262.105.52.293.707a1 1 0 0 0 .707.293zm0 0"/></g><g clip-path="url(#EE)" transform="scale(2.000772)" class="S"><path d="M7.07 55.86a1 1 0 1 0 0-2 1 1 0 1 0 0 2zm0 0"/></g><g clip-path="url(#EF)" transform="scale(2.000772)" class="Q R O P"><path d="M7.07 55.86a1 1 0 1 0 0-2 1 1 0 1 0 0 2zm0 0"/></g><g clip-path="url(#EG)" transform="scale(2.000772)" class="S"><path d="M4.246 37.63a1 1 0 1 0 0-2 1 1 0 1 0 0 2zm0 0"/></g><g clip-path="url(#EH)" transform="scale(2.000772)" class="Q R O P"><path d="M4.246 37.63a1 1 0 1 0 0-2 1 1 0 1 0 0 2zm0 0"/></g><g clip-path="url(#EI)" transform="scale(2.000772)" class="S"><path d="M9.223 22.5a1 1 0 1 0 0-2 1 1 0 1 0 0 2zm0 0"/></g><g clip-path="url(#EJ)" transform="scale(2.000772)" class="Q R O P"><path d="M9.223 22.5a1 1 0 1 0 0-2 1 1 0 1 0 0 2zm0 0"/></g><g clip-path="url(#EK)" transform="scale(2.000772)" class="S"><path d="M17.4 12.934a1 1 0 1 0 0-2 1 1 0 1 0 0 2zm0 0"/></g><g clip-path="url(#EL)" transform="scale(2.000772)" class="Q R O P"><path d="M17.4 12.934a1 1 0 1 0 0-2 1 1 0 1 0 0 2zm0 0"/></g><g clip-path="url(#EM)" transform="scale(2.000772)" class="S"><path d="M25.06 8.063a1 1 0 1 0 0-2 1 1 0 1 0 0 2zm0 0"/></g><g clip-path="url(#EN)" transform="scale(2.000772)" class="Q R O P"><path d="M25.06 8.063a1 1 0 1 0 0-2 1 1 0 1 0 0 2zm0 0"/></g><g clip-path="url(#EO)" transform="scale(2.000772)" class="S"><path d="M30.254 6.06a1 1 0 1 0 0-2 1 1 0 1 0 0 2zm0 0"/></g><g clip-path="url(#EP)" transform="scale(2.000772)" class="Q R O P"><path d="M30.254 6.06a1 1 0 1 0 0-2 1 1 0 1 0 0 2zm0 0"/></g><g clip-path="url(#EQ)" transform="scale(2.000772)" class="S"><path d="M32.484 5.46a1 1 0 0 0 1-1c0-.262-.105-.52-.293-.707a1 1 0 0 0-1.414 0 1.01 1.01 0 0 0-.293.707 1 1 0 0 0 1 1zm0 0"/></g><g clip-path="url(#ER)" transform="scale(2.000772)" class="Q R O P"><path d="M32.484 5.46a1 1 0 0 0 1-1c0-.262-.105-.52-.293-.707a1 1 0 0 0-1.414 0 1.01 1.01 0 0 0-.293.707 1 1 0 0 0 1 1zm0 0"/></g><g clip-path="url(#ES)" transform="scale(2.000772)" class="S"><path d="M31.637 5.672a1 1 0 1 0 0-2 1 1 0 1 0 0 2zm0 0"/></g><g clip-path="url(#ET)" transform="scale(2.000772)" class="Q R O P"><path d="M31.637 5.672a1 1 0 1 0 0-2 1 1 0 1 0 0 2zm0 0"/></g><g clip-path="url(#EU)" transform="scale(2.000772)" class="S"><path d="M27.77 6.902a1 1 0 1 0 0-2c-.262 0-.52.105-.707.293a1 1 0 0 0 0 1.414c.188.188.445.293.707.293zm0 0"/></g><g clip-path="url(#EV)" transform="scale(2.000772)" class="Q R O P"><path d="M27.77 6.902a1 1 0 1 0 0-2c-.262 0-.52.105-.707.293a1 1 0 0 0 0 1.414c.188.188.445.293.707.293zm0 0"/></g><g clip-path="url(#EW)" transform="scale(2.000772)" class="S"><path d="M21.13 10.23a1 1 0 1 0 0-2c-.262 0-.52.105-.707.293a1 1 0 0 0 0 1.414c.188.188.445.293.707.293zm0 0"/></g><g clip-path="url(#EX)" transform="scale(2.000772)" class="Q R O P"><path d="M21.13 10.23a1 1 0 1 0 0-2c-.262 0-.52.105-.707.293a1 1 0 0 0 0 1.414c.188.188.445.293.707.293zm0 0"/></g><g clip-path="url(#EY)" transform="scale(2.000772)" class="S"><path d="M12.898 17.367a1.01 1.01 0 0 0 .711-.293.99.99 0 0 0 .29-.707.99.99 0 0 0-.29-.707 1.01 1.01 0 0 0-.711-.293c-.262 0-.52.105-.707.293a1 1 0 0 0 0 1.414c.188.188.445.293.707.293zm0 0"/></g><g clip-path="url(#EZ)" transform="scale(2.000772)" class="Q R O P"><path d="M12.898 17.367a1.01 1.01 0 0 0 .711-.293.99.99 0 0 0 .29-.707.99.99 0 0 0-.29-.707 1.01 1.01 0 0 0-.711-.293c-.262 0-.52.105-.707.293a1 1 0 0 0 0 1.414c.188.188.445.293.707.293zm0 0"/></g><g clip-path="url(#Ea)" transform="scale(2.000772)" class="S"><path d="M5.898 29.8a1 1 0 0 0 1-1c0-.262-.105-.52-.293-.707a1 1 0 0 0-1.414 0 1.01 1.01 0 0 0-.293.707 1 1 0 0 0 1 1zm0 0"/></g><g clip-path="url(#Eb)" transform="scale(2.000772)" class="Q R O P"><path d="M5.898 29.8a1 1 0 0 0 1-1c0-.262-.105-.52-.293-.707a1 1 0 0 0-1.414 0 1.01 1.01 0 0 0-.293.707 1 1 0 0 0 1 1zm0 0"/></g><g clip-path="url(#Ee)" transform="scale(2.000772)" class="S"><path d="M12.094 64.234a1 1 0 1 0 0-2 1 1 0 1 0 0 2zm0 0"/></g><g clip-path="url(#Ef)" transform="scale(2.000772)" class="Q R O P"><path d="M12.094 64.234a1 1 0 1 0 0-2 1 1 0 1 0 0 2zm0 0"/></g><g clip-path="url(#Eg)" transform="scale(2.000772)" class="S"><path d="M27.555 75.594c.262 0 .52-.105.707-.293a1 1 0 0 0 0-1.414c-.187-.187-.445-.293-.707-.293a1 1 0 1 0 0 2zm0 0"/></g><g clip-path="url(#Eh)" transform="scale(2.000772)" class="Q R O P"><path d="M27.555 75.594c.262 0 .52-.105.707-.293a1 1 0 0 0 0-1.414c-.187-.187-.445-.293-.707-.293a1 1 0 1 0 0 2zm0 0"/></g><g clip-path="url(#Ei)" transform="scale(2.000772)" class="S"><path d="M45.27 77.816a1 1 0 1 0 0-2c-.262 0-.52.105-.707.293a1 1 0 0 0 0 1.414c.188.188.445.293.707.293zm0 0"/></g><g clip-path="url(#Ej)" transform="scale(2.000772)" class="Q R O P"><path d="M45.27 77.816a1 1 0 1 0 0-2c-.262 0-.52.105-.707.293a1 1 0 0 0 0 1.414c.188.188.445.293.707.293zm0 0"/></g><g clip-path="url(#Em)" transform="scale(2.000772)" class="S"><path d="M68.844 65.168a1 1 0 1 0 0-2 1 1 0 1 0 0 2zm0 0"/></g><g clip-path="url(#En)" transform="scale(2.000772)" class="Q R O P"><path d="M68.844 65.168a1 1 0 1 0 0-2 1 1 0 1 0 0 2zm0 0"/></g><g clip-path="url(#Eo)" transform="scale(2.000772)" class="S"><path d="M73.555 58.152a1 1 0 1 0 0-2 1 1 0 1 0 0 2zm0 0"/></g><g clip-path="url(#Ep)" transform="scale(2.000772)" class="Q R O P"><path d="M73.555 58.152a1 1 0 1 0 0-2 1 1 0 1 0 0 2zm0 0"/></g><g clip-path="url(#Eq)" transform="scale(2.000772)" class="S"><path d="M75.547 53.54a1 1 0 1 0 0-2 1 1 0 1 0 0 2zm0 0"/></g><g clip-path="url(#Er)" transform="scale(2.000772)" class="Q R O P"><path d="M75.547 53.54a1 1 0 1 0 0-2 1 1 0 1 0 0 2zm0 0"/></g><g clip-path="url(#Es)" transform="scale(2.000772)" class="S"><path d="M76.1 51.88a1 1 0 1 0 0-2 1 1 0 1 0 0 2zm0 0"/></g><g clip-path="url(#Et)" transform="scale(2.000772)" class="Q R O P"><path d="M76.1 51.88a1 1 0 1 0 0-2 1 1 0 1 0 0 2zm0 0"/></g><g clip-path="url(#Eu)" transform="scale(2.000772)" class="S"><path d="M75.645 53.266c.262 0 .52-.105.707-.293a1 1 0 0 0 0-1.414c-.187-.187-.445-.293-.707-.293a1 1 0 1 0 0 2zm0 0"/></g><g clip-path="url(#Ev)" transform="scale(2.000772)" class="Q R O P"><path d="M75.645 53.266c.262 0 .52-.105.707-.293a1 1 0 0 0 0-1.414c-.187-.187-.445-.293-.707-.293a1 1 0 1 0 0 2zm0 0"/></g><g clip-path="url(#Ew)" transform="scale(2.000772)" class="S"><path d="M73.836 57.598a1 1 0 1 0 0-2 1 1 0 1 0 0 2zm0 0"/></g><g clip-path="url(#Ex)" transform="scale(2.000772)" class="Q R O P"><path d="M73.836 57.598a1 1 0 1 0 0-2 1 1 0 1 0 0 2zm0 0"/></g><g clip-path="url(#Ey)" transform="scale(2.000772)" class="S"><path d="M69.5 64.38a1 1 0 1 0 0-2 1 1 0 1 0 0 2zm0 0"/></g><g clip-path="url(#Ez)" transform="scale(2.000772)" class="Q R O P"><path d="M69.5 64.38a1 1 0 1 0 0-2 1 1 0 1 0 0 2zm0 0"/></g><g clip-path="url(#FA)" transform="scale(2.000772)" class="S"><path d="M60.992 72.082a1 1 0 1 0 0-2 1 1 0 1 0 0 2zm0 0"/></g><g clip-path="url(#FB)" transform="scale(2.000772)" class="Q R O P"><path d="M60.992 72.082a1 1 0 1 0 0-2 1 1 0 1 0 0 2zm0 0"/></g><g clip-path="url(#FC)" transform="scale(2.000772)" class="S"><path d="M47.328 77.508a1 1 0 1 0 0-2c-.262 0-.52.105-.707.293a1 1 0 0 0 0 1.414c.188.188.445.293.707.293zm0 0"/></g><g clip-path="url(#FD)" transform="scale(2.000772)" class="Q R O P"><path d="M47.328 77.508a1 1 0 1 0 0-2c-.262 0-.52.105-.707.293a1 1 0 0 0 0 1.414c.188.188.445.293.707.293zm0 0"/></g><g clip-path="url(#FE)" transform="scale(2.000772)" class="S"><path d="M30.055 76.46a1 1 0 1 0 0-2 1 1 0 1 0 0 2zm0 0"/></g><g clip-path="url(#FF)" transform="scale(2.000772)" class="Q R O P"><path d="M30.055 76.46a1 1 0 1 0 0-2 1 1 0 1 0 0 2zm0 0"/></g><g clip-path="url(#FG)" transform="scale(2.000772)" class="S"><path d="M14.105 66.55a1 1 0 1 0 0-2 1 1 0 1 0 0 2zm0 0"/></g><g clip-path="url(#FH)" transform="scale(2.000772)" class="Q R O P"><path d="M14.105 66.55a1 1 0 1 0 0-2 1 1 0 1 0 0 2zm0 0"/></g><g clip-path="url(#FI)" transform="scale(2.000772)" class="S"><path d="M5.125 50.066a1 1 0 1 0 0-2 1 1 0 1 0 0 2zm0 0"/></g><g clip-path="url(#FJ)" transform="scale(2.000772)" class="Q R O P"><path d="M5.125 50.066a1 1 0 1 0 0-2 1 1 0 1 0 0 2zm0 0"/></g><g clip-path="url(#FM)" transform="scale(2.000772)" class="T"><use xlink:href="#Go"/></g><g class="Q U O P"><g clip-path="url(#FN)" transform="scale(2.000772)"><use xlink:href="#Gp"/></g><g clip-path="url(#FO)" transform="scale(2.000772)"><path d="M68.828 64.895c.187 0 .367-.074.5-.207s.207-.312.207-.5-.074-.367-.207-.5-.312-.207-.5-.207-.367.074-.5.207-.207.313-.207.5.074.367.207.5.313.207.5.207zm0 0"/></g></g><g clip-path="url(#FP)" transform="scale(2.000772)" class="T U O P"><path d="M58.5 73.28c.188 0 .367-.074.5-.207s.207-.312.207-.5-.074-.367-.207-.5-.312-.207-.5-.207-.367.074-.5.207-.207.313-.207.5.074.367.207.5.313.207.5.207zm0 0"/></g><g clip-path="url(#FQ)" transform="scale(2.000772)" class="Q U O P"><path d="M41.996 77.77c.188 0 .367-.074.5-.207s.207-.312.207-.5-.074-.367-.207-.5-.312-.207-.5-.207-.367.074-.5.207-.207.313-.207.5.074.367.207.5.313.207.5.207zm0 0"/></g><g clip-path="url(#FR)" transform="scale(2.000772)" class="T"><path d="M22.418 72.836c.188 0 .367-.074.5-.207s.207-.312.207-.5-.074-.367-.207-.5-.312-.207-.5-.207-.367.074-.5.207-.207.313-.207.5.074.367.207.5.313.207.5.207zm0 0"/></g><g clip-path="url(#FS)" transform="scale(2.000772)" class="Q U O P"><path d="M22.418 72.836c.187 0 .367-.074.5-.207s.207-.312.207-.5-.074-.367-.207-.5-.312-.207-.5-.207-.367.074-.5.207-.207.313-.207.5.074.367.207.5.313.207.5.207zm0 0"/></g><g clip-path="url(#FT)" transform="scale(2.000772)" class="T"><path d="M7.848 57.25c.188 0 .367-.074.5-.207s.207-.312.207-.5-.074-.367-.207-.5-.312-.207-.5-.207-.367.074-.5.207-.207.313-.207.5.074.367.207.5.313.207.5.207zm0 0"/></g><g clip-path="url(#FU)" transform="scale(2.000772)" class="Q U O P"><path d="M7.848 57.25c.187 0 .367-.074.5-.207s.207-.312.207-.5-.074-.367-.207-.5-.312-.207-.5-.207-.367.074-.5.207-.207.313-.207.5.074.367.207.5.313.207.5.207zm0 0"/></g><g clip-path="url(#FV)" transform="scale(2.000772)" class="T"><path d="M4.23 37.488c.188 0 .367-.074.5-.207s.207-.312.207-.5-.074-.367-.207-.5-.312-.207-.5-.207-.367.074-.5.207-.207.313-.207.5.074.367.207.5.313.207.5.207zm0 0"/></g><g clip-path="url(#FW)" transform="scale(2.000772)" class="Q U O P"><path d="M4.23 37.488c.187 0 .367-.074.5-.207s.207-.312.207-.5-.074-.367-.207-.5-.312-.207-.5-.207-.367.074-.5.207-.207.313-.207.5.074.367.207.5.313.207.5.207zm0 0"/></g><g clip-path="url(#FX)" transform="scale(2.000772)" class="T"><path d="M9.727 21.383c.188 0 .367-.074.5-.207s.207-.312.207-.5-.074-.367-.207-.5-.312-.207-.5-.207-.367.074-.5.207-.207.313-.207.5.074.367.207.5.313.207.5.207zm0 0"/></g><g clip-path="url(#FY)" transform="scale(2.000772)" class="Q U O P"><path d="M9.727 21.383c.188 0 .367-.074.5-.207s.207-.312.207-.5-.074-.367-.207-.5-.312-.207-.5-.207-.367.074-.5.207-.207.313-.207.5.074.367.207.5.313.207.5.207zm0 0"/></g><g clip-path="url(#FZ)" transform="scale(2.000772)" class="T"><path d="M18.64 11.668c.188 0 .367-.074.5-.207s.207-.312.207-.5-.074-.367-.207-.5-.312-.207-.5-.207-.367.074-.5.207-.207.313-.207.5.074.367.207.5.313.207.5.207zm0 0"/></g><g clip-path="url(#Fa)" transform="scale(2.000772)" class="Q U O P"><path d="M18.64 11.668c.187 0 .367-.074.5-.207s.207-.312.207-.5-.074-.367-.207-.5-.312-.207-.5-.207-.367.074-.5.207-.207.313-.207.5.074.367.207.5.313.207.5.207zm0 0"/></g><g clip-path="url(#Fb)" transform="scale(2.000772)" class="T"><path d="M26.82 6.988c.188 0 .367-.074.5-.207s.207-.312.207-.5-.074-.367-.207-.5-.312-.207-.5-.207-.367.074-.5.207-.207.313-.207.5.074.367.207.5.313.207.5.207zm0 0"/></g><g class="U O P"><g clip-path="url(#Fc)" transform="scale(2.000772)" class="Q"><path d="M26.82 6.988c.187 0 .367-.074.5-.207s.207-.312.207-.5-.074-.367-.207-.5-.312-.207-.5-.207-.367.074-.5.207-.207.313-.207.5.074.367.207.5.313.207.5.207zm0 0"/></g><g clip-path="url(#Fd)" transform="scale(2.000772)" class="T"><path d="M32.465 5.176c.188 0 .367-.078.5-.207s.207-.312.207-.5a.7.7 0 0 0-.207-.5c-.133-.133-.312-.207-.5-.207s-.367.074-.5.207a.7.7 0 0 0-.207.5c0 .187.074.367.207.5s.313.207.5.207zm0 0"/></g><g clip-path="url(#Fe)" transform="scale(2.000772)" class="Q"><path d="M35.133 4.652c.187 0 .367-.074.5-.207s.207-.312.207-.5-.074-.367-.207-.5-.312-.207-.5-.207-.367.074-.5.207-.207.313-.207.5.074.367.207.5.313.207.5.207zm0 0"/></g><g clip-path="url(#Fg)" transform="scale(2.000772)" class="T"><path d="M31.527 5.406c.187 0 .367-.074.5-.207s.207-.312.207-.5-.074-.367-.207-.5-.313-.207-.5-.207-.367.074-.5.207-.207.313-.207.5.074.367.207.5.313.207.5.207zm0 0"/></g></g><g clip-path="url(#Fh)" transform="scale(2.000772)" class="T"><path d="M25.324 7.645c.188 0 .367-.074.5-.207s.207-.312.207-.5-.074-.367-.207-.5-.312-.207-.5-.207-.367.074-.5.207-.207.313-.207.5.074.367.207.5.313.207.5.207zm0 0"/></g><g clip-path="url(#Fi)" transform="scale(2.000772)" class="Q U O P"><path d="M25.324 7.645c.188 0 .367-.074.5-.207s.207-.312.207-.5-.074-.367-.207-.5-.312-.207-.5-.207-.367.074-.5.207-.207.313-.207.5.074.367.207.5.313.207.5.207zm0 0"/></g><g clip-path="url(#Fj)" transform="scale(2.000772)" class="T"><path d="M16.8 13.168c.188 0 .367-.074.5-.207s.207-.312.207-.5-.074-.367-.207-.5-.312-.207-.5-.207-.367.074-.5.207-.207.313-.207.5.074.367.207.5.313.207.5.207zm0 0"/></g><g clip-path="url(#Fk)" transform="scale(2.000772)" class="Q U O P"><path d="M16.8 13.168c.188 0 .367-.074.5-.207s.207-.312.207-.5-.074-.367-.207-.5-.312-.207-.5-.207-.367.074-.5.207-.207.313-.207.5.074.367.207.5.313.207.5.207zm0 0"/></g><g clip-path="url(#Fl)" transform="scale(2.000772)" class="T"><path d="M8.13 24.18c.188 0 .367-.074.5-.207s.207-.312.207-.5-.074-.367-.207-.5-.312-.207-.5-.207-.367.074-.5.207-.207.313-.207.5.074.367.207.5.313.207.5.207zm0 0"/></g><g clip-path="url(#Fm)" transform="scale(2.000772)" class="Q U O P"><path d="M8.13 24.18c.187 0 .367-.074.5-.207s.207-.312.207-.5-.074-.367-.207-.5-.312-.207-.5-.207-.367.074-.5.207-.207.313-.207.5.074.367.207.5.313.207.5.207zm0 0"/></g><g clip-path="url(#Fn)" transform="scale(2.000772)" class="T"><path d="M4.066 41.44c.188 0 .367-.078.5-.207s.207-.312.207-.5a.7.7 0 0 0-.207-.5c-.133-.133-.312-.207-.5-.207s-.367.074-.5.207a.7.7 0 0 0-.207.5c0 .188.074.367.207.5s.313.207.5.207zm0 0"/></g><g clip-path="url(#Fo)" transform="scale(2.000772)" class="Q U O P"><path d="M4.066 41.44c.187 0 .367-.078.5-.207s.207-.312.207-.5a.7.7 0 0 0-.207-.5c-.133-.133-.312-.207-.5-.207s-.367.074-.5.207a.7.7 0 0 0-.207.5c0 .187.074.367.207.5s.313.207.5.207zm0 0"/></g><g clip-path="url(#Fr)" transform="scale(2.000772)" class="T"><path d="M26.324 74.797c.188 0 .367-.074.5-.207s.207-.312.207-.5-.074-.367-.207-.5-.312-.207-.5-.207-.367.074-.5.207-.207.313-.207.5.074.367.207.5.313.207.5.207zm0 0"/></g><g clip-path="url(#Fs)" transform="scale(2.000772)" class="Q U O P"><path d="M26.324 74.797c.188 0 .367-.074.5-.207s.207-.312.207-.5-.074-.367-.207-.5-.312-.207-.5-.207-.367.074-.5.207-.207.313-.207.5.074.367.207.5.313.207.5.207zm0 0"/></g><g clip-path="url(#Ft)" transform="scale(2.000772)" class="T"><path d="M45.793 77.457c.188 0 .367-.078.5-.207s.207-.312.207-.5a.7.7 0 0 0-.207-.5.71.71 0 0 0-.5-.211.71.71 0 0 0-.5.211.7.7 0 0 0-.207.5c0 .188.074.367.207.5s.313.207.5.207zm0 0"/></g><g class="Q U O P"><g clip-path="url(#Fu)" transform="scale(2.000772)"><path d="M45.793 77.457c.187 0 .367-.078.5-.207s.207-.312.207-.5a.7.7 0 0 0-.207-.5.71.71 0 0 0-.5-.211.71.71 0 0 0-.5.211.7.7 0 0 0-.207.5c0 .188.074.367.207.5s.313.207.5.207zm0 0"/></g><g clip-path="url(#Fv)" transform="scale(2.000772)"><path d="M61.117 71.707c.187 0 .367-.074.5-.207s.207-.312.207-.5-.074-.367-.207-.5-.312-.207-.5-.207-.367.074-.5.207-.207.313-.207.5.074.367.207.5.313.207.5.207zm0 0"/></g></g><g clip-path="url(#Fw)" transform="scale(2.000772)" class="T"><path d="M70.238 63.137c.188 0 .367-.074.5-.207s.207-.312.207-.5-.074-.367-.207-.5-.312-.207-.5-.207-.367.074-.5.207-.207.313-.207.5.074.367.207.5.313.207.5.207zm0 0"/></g><g clip-path="url(#Fx)" transform="scale(2.000772)" class="Q U O P"><path d="M70.238 63.137c.187 0 .367-.074.5-.207s.207-.312.207-.5-.074-.367-.207-.5-.312-.207-.5-.207-.367.074-.5.207-.207.313-.207.5.074.367.207.5.313.207.5.207zm0 0"/></g><g clip-path="url(#Fy)" transform="scale(2.000772)" class="T"><path d="M74.64 55.56c.188 0 .367-.074.5-.207s.207-.312.207-.5-.074-.367-.207-.5-.312-.207-.5-.207-.367.074-.5.207-.207.313-.207.5.074.367.207.5.313.207.5.207zm0 0"/></g><g clip-path="url(#Fz)" transform="scale(2.000772)" class="Q U O P"><path d="M74.64 55.56c.187 0 .367-.074.5-.207s.207-.312.207-.5-.074-.367-.207-.5-.312-.207-.5-.207-.367.074-.5.207-.207.313-.207.5.074.367.207.5.313.207.5.207zm0 0"/></g><g clip-path="url(#GA)" transform="scale(2.000772)" class="T"><path d="M76.4 50.52c.188 0 .367-.074.5-.207s.207-.312.207-.5-.074-.367-.207-.5-.312-.207-.5-.207-.367.074-.5.207-.207.313-.207.5.074.367.207.5.313.207.5.207zm0 0"/></g><g clip-path="url(#GB)" transform="scale(2.000772)" class="Q U O P"><path d="M76.4 50.52c.188 0 .367-.074.5-.207s.207-.312.207-.5-.074-.367-.207-.5-.312-.207-.5-.207-.367.074-.5.207-.207.313-.207.5.074.367.207.5.313.207.5.207zm0 0"/></g><g clip-path="url(#GC)" transform="scale(2.000772)" class="T"><path d="M76.895 48.398c.188 0 .367-.074.5-.207s.207-.312.207-.5-.074-.367-.207-.5-.312-.207-.5-.207-.367.074-.5.207-.207.313-.207.5.074.367.207.5.313.207.5.207zm0 0"/></g><g clip-path="url(#GD)" transform="scale(2.000772)" class="Q U O P"><path d="M76.895 48.398c.187 0 .367-.074.5-.207s.207-.312.207-.5-.074-.367-.207-.5-.312-.207-.5-.207-.367.074-.5.207-.207.313-.207.5.074.367.207.5.313.207.5.207zm0 0"/></g><g clip-path="url(#GE)" transform="scale(2.000772)" class="T"><path d="M76.715 49.22c.188 0 .367-.074.5-.207s.207-.312.207-.5-.074-.367-.207-.5-.312-.207-.5-.207-.367.074-.5.207-.207.313-.207.5.074.367.207.5.313.207.5.207zm0 0"/></g><g clip-path="url(#GF)" transform="scale(2.000772)" class="Q U O P"><path d="M76.715 49.22c.188 0 .367-.074.5-.207s.207-.312.207-.5-.074-.367-.207-.5-.312-.207-.5-.207-.367.074-.5.207-.207.313-.207.5.074.367.207.5.313.207.5.207zm0 0"/></g><g clip-path="url(#GG)" transform="scale(2.000772)" class="T"><path d="M75.64 52.984c.188 0 .367-.074.5-.207s.207-.312.207-.5-.078-.367-.207-.5-.312-.207-.5-.207a.7.7 0 0 0-.5.207.71.71 0 0 0-.211.5.71.71 0 0 0 .211.5.7.7 0 0 0 .5.207zm0 0"/></g><g clip-path="url(#GH)" transform="scale(2.000772)" class="Q U O P"><path d="M75.64 52.984c.187 0 .367-.074.5-.207s.207-.312.207-.5-.078-.367-.207-.5-.312-.207-.5-.207a.7.7 0 0 0-.5.207.71.71 0 0 0-.211.5.71.71 0 0 0 .211.5.7.7 0 0 0 .5.207zm0 0"/></g><g clip-path="url(#GI)" transform="scale(2.000772)" class="T"><path d="M72.633 59.535c.188 0 .367-.074.5-.207s.207-.312.207-.5-.074-.367-.207-.5-.312-.207-.5-.207-.367.074-.5.207-.207.313-.207.5.074.367.207.5.313.207.5.207zm0 0"/></g><g clip-path="url(#GJ)" transform="scale(2.000772)" class="Q U O P"><path d="M72.633 59.535c.187 0 .367-.074.5-.207s.207-.312.207-.5-.074-.367-.207-.5-.312-.207-.5-.207-.367.074-.5.207-.207.313-.207.5.074.367.207.5.313.207.5.207zm0 0"/></g><g clip-path="url(#GK)" transform="scale(2.000772)" class="T"><path d="M65.867 67.98c.188 0 .367-.078.5-.207s.207-.312.207-.5-.074-.37-.207-.5a.71.71 0 0 0-.5-.211.71.71 0 0 0-.5.211c-.133.13-.207.31-.207.5s.074.367.207.5.313.207.5.207zm0 0"/></g><g clip-path="url(#GL)" transform="scale(2.000772)" class="Q U O P"><path d="M65.867 67.98c.187 0 .367-.078.5-.207s.207-.312.207-.5-.074-.37-.207-.5a.71.71 0 0 0-.5-.211.71.71 0 0 0-.5.211c-.133.13-.207.31-.207.5s.074.367.207.5.313.207.5.207zm0 0"/></g><g clip-path="url(#GM)" transform="scale(2.000772)" class="T"><path d="M53.324 75.6c.188 0 .367-.074.5-.207s.207-.312.207-.5-.074-.367-.207-.5-.312-.207-.5-.207-.367.074-.5.207-.207.313-.207.5.074.367.207.5.313.207.5.207zm0 0"/></g><g clip-path="url(#GN)" transform="scale(2.000772)" class="Q U O P"><path d="M53.324 75.6c.187 0 .367-.074.5-.207s.207-.312.207-.5-.074-.367-.207-.5-.313-.207-.5-.207-.367.074-.5.207-.207.313-.207.5.074.367.207.5.312.207.5.207zm0 0"/></g><g clip-path="url(#GO)" transform="scale(2.000772)" class="T"><path d="M35.078 77.332c.188 0 .367-.074.5-.207s.207-.312.207-.5-.074-.367-.207-.5-.312-.207-.5-.207-.367.074-.5.207-.207.313-.207.5.074.367.207.5.313.207.5.207zm0 0"/></g><g clip-path="url(#GP)" transform="scale(2.000772)" class="Q U O P"><path d="M35.078 77.332c.187 0 .367-.074.5-.207s.207-.312.207-.5-.074-.367-.207-.5-.312-.207-.5-.207-.367.074-.5.207-.207.313-.207.5.074.367.207.5.313.207.5.207zm0 0"/></g><g clip-path="url(#GQ)" transform="scale(2.000772)" class="T"><path d="M16.28 68.38c.188 0 .367-.074.5-.207s.207-.312.207-.5-.074-.367-.207-.5-.312-.207-.5-.207-.367.074-.5.207-.207.313-.207.5.074.367.207.5.313.207.5.207zm0 0"/></g><g clip-path="url(#GR)" transform="scale(2.000772)" class="Q U O P"><path d="M16.28 68.38c.188 0 .367-.074.5-.207s.207-.312.207-.5-.074-.367-.207-.5-.312-.207-.5-.207-.367.074-.5.207-.207.313-.207.5.074.367.207.5.313.207.5.207zm0 0"/></g><g clip-path="url(#GS)" transform="scale(2.000772)" class="T"><path d="M5.254 50.285c.188 0 .367-.074.5-.207s.207-.312.207-.5-.074-.367-.207-.5-.312-.207-.5-.207-.367.074-.5.207-.207.313-.207.5.074.367.207.5.313.207.5.207zm0 0"/></g><g class="U O P"><g clip-path="url(#GT)" transform="scale(2.000772)" class="Q"><path d="M5.254 50.285c.187 0 .367-.074.5-.207s.207-.312.207-.5-.074-.367-.207-.5-.312-.207-.5-.207-.367.074-.5.207-.207.313-.207.5.074.367.207.5.313.207.5.207zm0 0"/></g><g clip-path="url(#GU)" transform="scale(2.000772)" class="T"><path d="M5.402 31.152c.188 0 .367-.074.5-.207s.207-.312.207-.5-.074-.367-.207-.5-.312-.207-.5-.207-.367.074-.5.207-.207.313-.207.5.074.367.207.5.313.207.5.207zm0 0"/></g></g><g clip-path="url(#GV)" transform="scale(2.000772)" class="T"><path d="M12.727 17.277c.188 0 .367-.074.5-.207s.207-.312.207-.5-.074-.367-.207-.5-.312-.207-.5-.207-.367.074-.5.207-.207.313-.207.5.074.367.207.5.313.207.5.207zm0 0"/></g><g clip-path="url(#GW)" transform="scale(2.000772)" class="Q U O P"><path d="M12.727 17.277c.188 0 .367-.074.5-.207s.207-.312.207-.5-.074-.367-.207-.5-.312-.207-.5-.207-.367.074-.5.207-.207.313-.207.5.074.367.207.5.313.207.5.207zm0 0"/></g><g clip-path="url(#GX)" transform="scale(2.000772)" class="T"><path d="M21.703 9.582c.188 0 .367-.074.5-.207s.207-.312.207-.5-.074-.367-.207-.5-.312-.207-.5-.207-.367.074-.5.207-.207.313-.207.5.074.367.207.5.313.207.5.207zm0 0"/></g><g clip-path="url(#GY)" transform="scale(2.000772)" class="Q U O P"><path d="M21.703 9.582c.188 0 .367-.074.5-.207s.207-.312.207-.5-.074-.367-.207-.5-.312-.207-.5-.207-.367.074-.5.207-.207.313-.207.5.074.367.207.5.313.207.5.207zm0 0"/></g><g clip-path="url(#GZ)" transform="scale(2.000772)" class="T"><path d="M29.063 6.145c.188 0 .367-.074.5-.207s.207-.312.207-.5-.074-.367-.207-.5-.312-.207-.5-.207-.367.074-.5.207-.207.313-.207.5.074.367.207.5.313.207.5.207zm0 0"/></g><g clip-path="url(#Ga)" transform="scale(2.000772)" class="Q U O P"><path d="M29.062 6.145c.188 0 .367-.074.5-.207s.207-.312.207-.5-.074-.367-.207-.5-.312-.207-.5-.207-.367.074-.5.207-.207.313-.207.5.074.367.207.5.313.207.5.207zm0 0"/></g><g clip-path="url(#Gb)" transform="scale(2.000772)" class="T"><path d="M33.672 4.914c.188 0 .367-.074.5-.207s.207-.312.207-.5-.074-.367-.207-.5-.312-.207-.5-.207-.367.074-.5.207-.207.312-.207.5.074.367.207.5.313.207.5.207zm0 0"/></g><g clip-path="url(#Gc)" transform="scale(2.000772)" class="Q U O P"><path d="M33.672 4.914c.187 0 .367-.074.5-.207s.207-.312.207-.5-.074-.367-.207-.5-.312-.207-.5-.207-.367.074-.5.207-.207.313-.207.5.074.367.207.5.313.207.5.207zm0 0"/></g></svg>