<svg xmlns="http://www.w3.org/2000/svg" xmlns:xlink="http://www.w3.org/1999/xlink" width="216" height="216" viewBox="0 0 162 162" xmlns:v="https://vecta.io/nano"><style><![CDATA[.O{stroke-linejoin:round}.P{stroke-miterlimit:10}.Q{fill:none}.R{fill:rgb(17.254639%,62.744141%,17.254639%)}.S{stroke:rgb(17.254639%,62.744141%,17.254639%)}.T{stroke:rgb(0%,0%,0%)}.U{fill:rgb(0%,0%,0%)}]]></style><defs><clipPath ><path d="M57 68h2.996v2.555H57zm0 0"/></clipPath><clipPath ><path d="M56.996 67.555h3v3h-3zm0 0"/></clipPath><clipPath ><path d="M63 63.445h2.848V66H63zm0 0"/></clipPath><clipPath ><path d="M62.848 63.445h3v3h-3zm0 0"/></clipPath><clipPath id="E"><path d="M69.422 56.023H72V59h-2.578zm0 0"/></clipPath><clipPath id="F"><path d="M69.422 56.023h3v3h-3zm0 0"/></clipPath><clipPath id="G"><path d="M71.305 53H74v2.867h-2.695zm0 0"/></clipPath><clipPath id="H"><path d="M71.305 52.867h3v3h-3zm0 0"/></clipPath><clipPath id="I"><path d="M71.305 53H74v2.867h-2.695zm0 0"/></clipPath><clipPath id="J"><path d="M71.305 52.867h3v3h-3zm0 0"/></clipPath><clipPath ><path d="M67.48 59H70v2.66h-2.52zm0 0"/></clipPath><clipPath ><path d="M67.48 58.66h3v3h-3zm0 0"/></clipPath><clipPath id="M"><path d="M62 64.168h2.98V67H62zm0 0"/></clipPath><clipPath id="N"><path d="M61.98 64.168h3v3h-3zm0 0"/></clipPath><clipPath id="O"><path d="M55.176 69H58v2.52h-2.824zm0 0"/></clipPath><clipPath id="P"><path d="M55.176 68.52h3v3h-3zm0 0"/></clipPath><clipPath ><path d="M48 71.234h2.73V74H48zm0 0"/></clipPath><clipPath ><path d="M47.73 71.234h3v3h-3zm0 0"/></clipPath><clipPath id="S"><path d="M36.258 72.2H39V75h-2.742zm0 0"/></clipPath><clipPath id="T"><path d="M36.258 72.2h3v3h-3zm0 0"/></clipPath><clipPath id="U"><path d="M4 46h2.863v2.957H4zm0 0"/></clipPath><clipPath id="V"><path d="M3.863 45.957h3v3h-3zm0 0"/></clipPath><clipPath ><path d="M3 40.145h2.668V43H3zm0 0"/></clipPath><clipPath ><path d="M2.668 40.145h3v3h-3zm0 0"/></clipPath><clipPath ><path d="M16.027 64.195H19V67h-2.973zm0 0"/></clipPath><clipPath ><path d="M16.027 64.195h3v3h-3zm0 0"/></clipPath><clipPath id="a"><path d="M26.13 70H29v2.957h-2.87zm0 0"/></clipPath><clipPath id="b"><path d="M26.13 69.957h3v3h-3zm0 0"/></clipPath><clipPath id="c"><path d="M37 72.215h2.582V75H37zm0 0"/></clipPath><clipPath id="d"><path d="M36.582 72.215h3v3h-3zm0 0"/></clipPath><clipPath id="e"><path d="M76 38h2.516v2.9H76zm0 0"/></clipPath><clipPath id="f"><path d="M75.516 37.9h3v3h-3zm0 0"/></clipPath><clipPath id="g"><path d="M74 24h2.547v2.656H74zm0 0"/></clipPath><clipPath id="h"><path d="M73.547 23.656h3v3h-3zm0 0"/></clipPath><clipPath id="i"><path d="M66.402 11.457H69V14h-2.598zm0 0"/></clipPath><clipPath id="j"><path d="M66.402 11.457h3v3h-3zm0 0"/></clipPath><clipPath ><path d="M60.04 6H63v2.766h-2.96zm0 0"/></clipPath><clipPath ><path d="M60.04 5.766h3v3h-3zm0 0"/></clipPath><clipPath ><path d="M60.04 6H63v2.766h-2.96zm0 0"/></clipPath><clipPath ><path d="M60.04 5.766h3v3h-3zm0 0"/></clipPath><clipPath id="o"><path d="M71.047 18.05H74V21h-2.953zm0 0"/></clipPath><clipPath id="p"><path d="M71.047 18.05h3v3h-3zm0 0"/></clipPath><clipPath id="q"><path d="M76 34h2.527v2.688H76zm0 0"/></clipPath><clipPath id="r"><path d="M75.527 33.688h3v3h-3zm0 0"/></clipPath><clipPath id="s"><path d="M73.04 49.102H76V52h-2.96zm0 0"/></clipPath><clipPath id="t"><path d="M73.04 49.102h3v3h-3zm0 0"/></clipPath><clipPath ><path d="M28.13 71H31v2.645h-2.87zm0 0"/></clipPath><clipPath ><path d="M28.13 70.645h3v3h-3zm0 0"/></clipPath><clipPath id="w"><path d="M20.277 67.145H23V70h-2.723zm0 0"/></clipPath><clipPath id="x"><path d="M20.277 67.145h3v3h-3zm0 0"/></clipPath><clipPath id="y"><path d="M10 58h2.957v2.977H10zm0 0"/></clipPath><clipPath id="z"><path d="M9.957 57.977h3v3h-3zm0 0"/></clipPath><clipPath id="AA"><path d="M2.422 37.063H5V40H2.422zm0 0"/></clipPath><clipPath id="AB"><path d="M2.422 37.063h3v3h-3zm0 0"/></clipPath><clipPath ><path d="M10 58h2.977v3H10zm0 0"/></clipPath><clipPath ><path d="M9.977 58h3v3h-3zm0 0"/></clipPath><clipPath ><path d="M43 72.102h2.715V75H43zm0 0"/></clipPath><clipPath ><path d="M42.715 72.102h3v3h-3zm0 0"/></clipPath><clipPath id="AG"><path d="M49.422 71H52v2.773h-2.578zm0 0"/></clipPath><clipPath id="AH"><path d="M49.422 70.773h3v3h-3zm0 0"/></clipPath><clipPath id="AI"><path d="M59 66.367h2.953V69H59zm0 0"/></clipPath><clipPath id="AJ"><path d="M58.953 66.367h3v3h-3zm0 0"/></clipPath><clipPath ><path d="M64.45 62H67v2.98h-2.55zm0 0"/></clipPath><clipPath ><path d="M64.45 61.98h3v3h-3zm0 0"/></clipPath><clipPath id="AM"><path d="M70.32 55H73v2.605h-2.68zm0 0"/></clipPath><clipPath id="AN"><path d="M70.32 54.605h3v3h-3zm0 0"/></clipPath><clipPath id="AO"><path d="M71.305 53H74v2.867h-2.695zm0 0"/></clipPath><clipPath id="AP"><path d="M71.305 52.867h3v3h-3zm0 0"/></clipPath><clipPath id="AQ"><path d="M71.305 53H74v2.867h-2.695zm0 0"/></clipPath><clipPath id="AR"><path d="M71.305 52.867h3v3h-3zm0 0"/></clipPath><clipPath id="AS"><path d="M68 58.188h2.855V61H68zm0 0"/></clipPath><clipPath id="AT"><path d="M67.855 58.188h3v3h-3zm0 0"/></clipPath><clipPath id="AU"><path d="M61.1 65H64v2.852h-2.9zm0 0"/></clipPath><clipPath id="AV"><path d="M61.1 64.852h3v3h-3zm0 0"/></clipPath><clipPath id="AW"><path d="M54.195 69H57v2.984h-2.805zm0 0"/></clipPath><clipPath id="AX"><path d="M54.195 68.984h3v3h-3zm0 0"/></clipPath><clipPath id="AY"><path d="M47.238 71.352H50V74h-2.762zm0 0"/></clipPath><clipPath id="AZ"><path d="M47.238 71.352h3v3h-3zm0 0"/></clipPath><clipPath id="Aa"><path d="M31 71.3h2.53V74H31zm0 0"/></clipPath><clipPath id="Ab"><path d="M30.53 71.3h3v3h-3zm0 0"/></clipPath><clipPath id="Ac"><path d="M5 48.156h2.582V51H5zm0 0"/></clipPath><clipPath id="Ad"><path d="M4.582 48.156h3v3h-3zm0 0"/></clipPath><clipPath id="Ae"><path d="M5 49h2.754v2.63H5zm0 0"/></clipPath><clipPath id="Af"><path d="M4.754 48.63h3v3h-3zm0 0"/></clipPath><clipPath id="Ag"><path d="M20 67h2.836v2.88H20zm0 0"/></clipPath><clipPath id="Ah"><path d="M19.836 66.88h3v3h-3zm0 0"/></clipPath><clipPath id="Ai"><path d="M29 71h2.754v2.832H29zm0 0"/></clipPath><clipPath id="Aj"><path d="M28.754 70.832h3v3h-3zm0 0"/></clipPath><clipPath id="Ak"><path d="M41.023 72.234H44V75h-2.977zm0 0"/></clipPath><clipPath id="Al"><path d="M41.023 72.234h3v3h-3zm0 0"/></clipPath><clipPath ><path d="M75.473 39H78v2.53h-2.527zm0 0"/></clipPath><clipPath ><path d="M75.473 38.53h3v3h-3zm0 0"/></clipPath><clipPath id="Ao"><path d="M72.426 21H75v2.824h-2.574zm0 0"/></clipPath><clipPath id="Ap"><path d="M72.426 20.824h3v3h-3zm0 0"/></clipPath><clipPath id="Aq"><path d="M61.023 6.48H64V9h-2.977zm0 0"/></clipPath><clipPath id="Ar"><path d="M61.023 6.48h3v3h-3zm0 0"/></clipPath><clipPath ><path d="M60.04 6H63v2.766h-2.96zm0 0"/></clipPath><clipPath ><path d="M60.04 5.766h3v3h-3zm0 0"/></clipPath><clipPath ><path d="M60.04 6H63v2.766h-2.96zm0 0"/></clipPath><clipPath ><path d="M60.04 5.766h3v3h-3zm0 0"/></clipPath><clipPath id="Aw"><path d="M70.465 17.03H73V20h-2.535zm0 0"/></clipPath><clipPath id="Ax"><path d="M70.465 17.03h3v3h-3zm0 0"/></clipPath><clipPath id="Ay"><path d="M76 36.227h2.578V39H76zm0 0"/></clipPath><clipPath id="Az"><path d="M75.578 36.227h3v3h-3zm0 0"/></clipPath><clipPath id="BA"><path d="M71.22 53.03H74V56h-2.78zm0 0"/></clipPath><clipPath id="BB"><path d="M71.22 53.03h3v3h-3zm0 0"/></clipPath><clipPath id="BC"><path d="M30.445 71.28H33V74h-2.555zm0 0"/></clipPath><clipPath id="BD"><path d="M30.445 71.28h3v3h-3zm0 0"/></clipPath><clipPath id="BE"><path d="M19 66.094h2.613V69H19zm0 0"/></clipPath><clipPath id="BF"><path d="M18.613 66.094h3v3h-3zm0 0"/></clipPath><clipPath id="BG"><path d="M13.152 62H16v2.613h-2.848zm0 0"/></clipPath><clipPath id="BH"><path d="M13.152 61.613h3v3h-3zm0 0"/></clipPath><clipPath id="BI"><path d="M4 45.277h2.672V48H4zm0 0"/></clipPath><clipPath id="BJ"><path d="M3.672 45.277h3v3h-3zm0 0"/></clipPath><clipPath id="BK"><path d="M17 65h2.805v2.8H17zm0 0"/></clipPath><clipPath id="BL"><path d="M16.805 64.8h3v3h-3zm0 0"/></clipPath><clipPath id="BM"><path d="M44.3 72H47v2.906h-2.7zm0 0"/></clipPath><clipPath id="BN"><path d="M44.3 71.906h3v3h-3zm0 0"/></clipPath><clipPath id="BO"><path d="M52 70.06h2.578V73H52zm0 0"/></clipPath><clipPath id="BP"><path d="M51.578 70.06h3v3h-3zm0 0"/></clipPath><clipPath id="BQ"><path d="M59.098 66.273H62V69h-2.902zm0 0"/></clipPath><clipPath id="BR"><path d="M59.098 66.273h3v3h-3zm0 0"/></clipPath><clipPath id="BS"><path d="M65.047 61.4H68V64h-2.953zm0 0"/></clipPath><clipPath id="BT"><path d="M65.047 61.4h3v3h-3zm0 0"/></clipPath><clipPath id="BU"><path d="M71.02 53.398H74V56h-2.98zm0 0"/></clipPath><clipPath id="BV"><path d="M71.02 53.398h3v3h-3zm0 0"/></clipPath><clipPath id="BW"><path d="M71.305 53H74v2.867h-2.695zm0 0"/></clipPath><clipPath id="BX"><path d="M71.305 52.867h3v3h-3zm0 0"/></clipPath><clipPath id="BY"><path d="M71.305 53H74v2.867h-2.695zm0 0"/></clipPath><clipPath id="BZ"><path d="M71.305 52.867h3v3h-3zm0 0"/></clipPath><clipPath id="Ba"><path d="M68 58.188h2.86V61H68zm0 0"/></clipPath><clipPath id="Bb"><path d="M67.86 58.188h3v3h-3zm0 0"/></clipPath><clipPath id="Bc"><path d="M61 65.16h2.695V68H61zm0 0"/></clipPath><clipPath id="Bd"><path d="M60.695 65.16h3v3h-3zm0 0"/></clipPath><clipPath id="Be"><path d="M54.477 69H57v2.855h-2.523zm0 0"/></clipPath><clipPath id="Bf"><path d="M54.477 68.855h3v3h-3zm0 0"/></clipPath><clipPath id="Bg"><path d="M47.285 71.34H50V74h-2.715zm0 0"/></clipPath><clipPath id="Bh"><path d="M47.285 71.34h3v3h-3zm0 0"/></clipPath><clipPath id="Bi"><path d="M28.22 71H31v2.672h-2.78zm0 0"/></clipPath><clipPath id="Bj"><path d="M28.22 70.672h3v3h-3zm0 0"/></clipPath><clipPath id="Bk"><path d="M7.16 54H10v2.758H7.16zm0 0"/></clipPath><clipPath id="Bl"><path d="M7.16 53.758h3v3h-3zm0 0"/></clipPath><clipPath id="Bm"><path d="M7.184 54H10v2.797H7.184zm0 0"/></clipPath><clipPath id="Bn"><path d="M7.184 53.797h3v3h-3zm0 0"/></clipPath><clipPath id="Bo"><path d="M23 68.492h2.746V71H23zm0 0"/></clipPath><clipPath id="Bp"><path d="M22.746 68.492h3v3h-3zm0 0"/></clipPath><clipPath id="Bq"><path d="M31 71.313h2.57V74H31zm0 0"/></clipPath><clipPath id="Br"><path d="M30.57 71.313h3v3h-3zm0 0"/></clipPath><clipPath id="Bs"><path d="M50 71h2.836v2.648H50zm0 0"/></clipPath><clipPath id="Bt"><path d="M49.836 70.648h3v3h-3zm0 0"/></clipPath><clipPath id="Bu"><path d="M75.234 41H78v2.746h-2.766zm0 0"/></clipPath><clipPath id="Bv"><path d="M75.234 40.746h3v3h-3zm0 0"/></clipPath><clipPath id="Bw"><path d="M72.328 21H75v2.6h-2.672zm0 0"/></clipPath><clipPath id="Bx"><path d="M72.328 20.6h3v3h-3zm0 0"/></clipPath><clipPath id="By"><path d="M61 6.352h2.852V9H61zm0 0"/></clipPath><clipPath id="Bz"><path d="M60.852 6.352h3v3h-3zm0 0"/></clipPath><clipPath ><path d="M60.04 6H63v2.766h-2.96zm0 0"/></clipPath><clipPath ><path d="M60.04 5.766h3v3h-3zm0 0"/></clipPath><clipPath ><path d="M60.04 6H63v2.766h-2.96zm0 0"/></clipPath><clipPath ><path d="M60.04 5.766h3v3h-3zm0 0"/></clipPath><clipPath id="CE"><path d="M71.1 18.164H74V21h-2.9zm0 0"/></clipPath><clipPath id="CF"><path d="M71.1 18.164h3v3h-3zm0 0"/></clipPath><clipPath id="CG"><path d="M76 36.387h2.578V39H76zm0 0"/></clipPath><clipPath id="CH"><path d="M75.578 36.387h3v3h-3zm0 0"/></clipPath><clipPath id="CI"><path d="M68 58.383h2.703V61H68zm0 0"/></clipPath><clipPath id="CJ"><path d="M67.703 58.383h3v3h-3zm0 0"/></clipPath><clipPath id="CK"><path d="M30.12 71.203H33V74h-2.88zm0 0"/></clipPath><clipPath id="CL"><path d="M30.12 71.203h3v3h-3zm0 0"/></clipPath><clipPath id="CM"><path d="M19.402 67H22v2.6h-2.598zm0 0"/></clipPath><clipPath id="CN"><path d="M19.402 66.6h3v3h-3zm0 0"/></clipPath><clipPath id="CO"><path d="M15 63.297h2.96V66H15zm0 0"/></clipPath><clipPath id="CP"><path d="M14.96 63.297h3v3h-3zm0 0"/></clipPath><clipPath id="CQ"><path d="M6.34 52.227H9V55H6.34zm0 0"/></clipPath><clipPath id="CR"><path d="M6.34 52.227h3v3h-3zm0 0"/></clipPath><clipPath id="CS"><path d="M18.1 66H21v2.738h-2.9zm0 0"/></clipPath><clipPath id="CT"><path d="M18.1 65.738h3v3h-3zm0 0"/></clipPath><clipPath id="CU"><path d="M45 72h2.844v2.82H45zm0 0"/></clipPath><clipPath id="CV"><path d="M44.844 71.82h3v3h-3zm0 0"/></clipPath><clipPath id="CW"><path d="M52 70.063h2.566V73H52zm0 0"/></clipPath><clipPath id="CX"><path d="M51.566 70.063h3v3h-3zm0 0"/></clipPath><clipPath id="CY"><path d="M59.117 66.258H62V69h-2.883zm0 0"/></clipPath><clipPath id="CZ"><path d="M59.117 66.258h3v3h-3zm0 0"/></clipPath><clipPath id="Ca"><path d="M66 61h2.625v2.793H66zm0 0"/></clipPath><clipPath id="Cb"><path d="M65.625 60.793h3v3h-3zm0 0"/></clipPath><clipPath id="Cc"><path d="M71 53.47h2.98V56H71zm0 0"/></clipPath><clipPath id="Cd"><path d="M70.98 53.47h3v3h-3zm0 0"/></clipPath><clipPath id="Ce"><path d="M71.305 53H74v2.867h-2.695zm0 0"/></clipPath><clipPath id="Cf"><path d="M71.305 52.867h3v3h-3zm0 0"/></clipPath><clipPath id="Cg"><path d="M71.06 53.324H74V56h-2.94zm0 0"/></clipPath><clipPath id="Ch"><path d="M71.06 53.324h3v3h-3zm0 0"/></clipPath><clipPath id="Ci"><path d="M66.32 60.03H69V63h-2.68zm0 0"/></clipPath><clipPath id="Cj"><path d="M66.32 60.03h3v3h-3zm0 0"/></clipPath><clipPath id="Ck"><path d="M60.234 65.492H63V68h-2.766zm0 0"/></clipPath><clipPath id="Cl"><path d="M60.234 65.492h3v3h-3zm0 0"/></clipPath><clipPath id="Cm"><path d="M53.3 69.38H56V72h-2.7zm0 0"/></clipPath><clipPath id="Cn"><path d="M53.3 69.38h3v3h-3zm0 0"/></clipPath><clipPath id="Co"><path d="M47 71.48h2.656V74H47zm0 0"/></clipPath><clipPath id="Cp"><path d="M46.656 71.48h3v3h-3zm0 0"/></clipPath><clipPath id="Cq"><path d="M27 70.207h2.8V73H27zm0 0"/></clipPath><clipPath id="Cr"><path d="M26.8 70.207h3v3h-3zm0 0"/></clipPath><clipPath id="Cs"><path d="M8.13 55.367H11V58H8.13zm0 0"/></clipPath><clipPath id="Ct"><path d="M8.13 55.367h3v3h-3zm0 0"/></clipPath><clipPath id="Cu"><path d="M10.06 58.1H13V61h-2.94zm0 0"/></clipPath><clipPath id="Cv"><path d="M10.06 58.1h3v3h-3zm0 0"/></clipPath><clipPath id="Cw"><path d="M22.234 68.23H25V71h-2.766zm0 0"/></clipPath><clipPath id="Cx"><path d="M22.234 68.23h3v3h-3zm0 0"/></clipPath><clipPath id="Cy"><path d="M28.38 71H31v2.723h-2.62zm0 0"/></clipPath><clipPath id="Cz"><path d="M28.38 70.723h3v3h-3zm0 0"/></clipPath><clipPath id="DA"><path d="M55.105 69H58v2.55h-2.895zm0 0"/></clipPath><clipPath id="DB"><path d="M55.105 68.55h3v3h-3zm0 0"/></clipPath><clipPath id="DC"><path d="M75.344 32H78v2.516h-2.656zm0 0"/></clipPath><clipPath id="DD"><path d="M75.344 31.516h3v3h-3zm0 0"/></clipPath><clipPath id="DE"><path d="M73 21.426h2.684V24H73zm0 0"/></clipPath><clipPath id="DF"><path d="M72.684 21.426h3v3h-3zm0 0"/></clipPath><clipPath id="DG"><path d="M61 6.234h2.7V9H61zm0 0"/></clipPath><clipPath id="DH"><path d="M60.7 6.234h3v3h-3zm0 0"/></clipPath><clipPath ><path d="M60.04 6H63v2.766h-2.96zm0 0"/></clipPath><clipPath ><path d="M60.04 5.766h3v3h-3zm0 0"/></clipPath><clipPath id="DK"><path d="M60.406 6.027H63V9h-2.594zm0 0"/></clipPath><clipPath id="DL"><path d="M60.406 6.027h3v3h-3zm0 0"/></clipPath><clipPath id="DM"><path d="M72 19h2.543v2.98H72zm0 0"/></clipPath><clipPath id="DN"><path d="M71.543 18.98h3v3h-3zm0 0"/></clipPath><clipPath id="DO"><path d="M75.344 32H78v2.516h-2.656zm0 0"/></clipPath><clipPath id="DP"><path d="M75.344 31.516h3v3h-3zm0 0"/></clipPath><clipPath id="DQ"><path d="M62 64.496h2.566V67H62zm0 0"/></clipPath><clipPath id="DR"><path d="M61.566 64.496h3v3h-3zm0 0"/></clipPath><clipPath id="DS"><path d="M29.2 71H32v2.957h-2.8zm0 0"/></clipPath><clipPath id="DT"><path d="M29.2 70.957h3v3h-3zm0 0"/></clipPath><clipPath id="DU"><path d="M21 67.32h2.574V70H21zm0 0"/></clipPath><clipPath id="DV"><path d="M20.574 67.32h3v3h-3zm0 0"/></clipPath><clipPath id="DW"><path d="M16 64h2.637v2.875H16zm0 0"/></clipPath><clipPath id="DX"><path d="M15.637 63.875h3v3h-3zm0 0"/></clipPath><clipPath id="DY"><path d="M8.402 56H11v2.8H8.402zm0 0"/></clipPath><clipPath id="DZ"><path d="M8.402 55.8h3v3h-3zm0 0"/></clipPath><clipPath id="Da"><path d="M24 69.05h2.926V72H24zm0 0"/></clipPath><clipPath id="Db"><path d="M23.926 69.05h3v3h-3zm0 0"/></clipPath><clipPath id="Dc"><path d="M45.14 72H48v2.773h-2.86zm0 0"/></clipPath><clipPath id="Dd"><path d="M45.14 71.773h3v3h-3zm0 0"/></clipPath><clipPath id="De"><path d="M53 70h2.742v2.6H53zm0 0"/></clipPath><clipPath id="Df"><path d="M52.742 69.6h3v3h-3zm0 0"/></clipPath><clipPath ><path d="M61 65.05h2.84V68H61zm0 0"/></clipPath><clipPath ><path d="M60.84 65.05h3v3h-3zm0 0"/></clipPath><clipPath id="Di"><path d="M66.426 60H69v2.914h-2.574zm0 0"/></clipPath><clipPath id="Dj"><path d="M66.426 59.914h3v3h-3zm0 0"/></clipPath><clipPath id="Dk"><path d="M71 53.46h2.984V56H71zm0 0"/></clipPath><clipPath id="Dl"><path d="M70.984 53.46h3v3h-3zm0 0"/></clipPath><clipPath id="Dm"><path d="M71.305 53H74v2.867h-2.695zm0 0"/></clipPath><clipPath id="Dn"><path d="M71.305 52.867h3v3h-3zm0 0"/></clipPath><clipPath id="Do"><path d="M71 53.47h2.98V56H71zm0 0"/></clipPath><clipPath id="Dp"><path d="M70.98 53.47h3v3h-3zm0 0"/></clipPath><clipPath id="Dq"><path d="M66 61h2.625v2.793H66zm0 0"/></clipPath><clipPath id="Dr"><path d="M65.625 60.793h3v3h-3zm0 0"/></clipPath><clipPath ><path d="M61 65.05h2.84V68H61zm0 0"/></clipPath><clipPath ><path d="M60.84 65.05h3v3h-3zm0 0"/></clipPath><clipPath id="Du"><path d="M51.492 70.1H54V73h-2.508zm0 0"/></clipPath><clipPath id="Dv"><path d="M51.492 70.1h3v3h-3zm0 0"/></clipPath><clipPath ><path d="M44.414 72H47v2.887h-2.586zm0 0"/></clipPath><clipPath ><path d="M44.414 71.887h3v3h-3zm0 0"/></clipPath><clipPath id="Dy"><path d="M22 68h2.754v2.98H22zm0 0"/></clipPath><clipPath id="Dz"><path d="M21.754 67.98h3v3h-3zm0 0"/></clipPath><clipPath id="EA"><path d="M7.012 53.492H10V56H7.012zm0 0"/></clipPath><clipPath id="EB"><path d="M7.012 53.492h3v3h-3zm0 0"/></clipPath><clipPath id="EC"><path d="M16 64h2.68v2.9H16zm0 0"/></clipPath><clipPath id="ED"><path d="M15.68 63.9h3v3h-3zm0 0"/></clipPath><clipPath id="EE"><path d="M21 67.313h2.56V70H21zm0 0"/></clipPath><clipPath id="EF"><path d="M20.56 67.313h3v3h-3zm0 0"/></clipPath><clipPath ><path d="M31 71.328h2.637V74H31zm0 0"/></clipPath><clipPath ><path d="M30.637 71.328h3v3h-3zm0 0"/></clipPath><clipPath id="EI"><path d="M66 61h2.55v2.87H66zm0 0"/></clipPath><clipPath id="EJ"><path d="M65.55 60.87h3v3h-3zm0 0"/></clipPath><clipPath id="EK"><path d="M76 34h2.54v2.906H76zm0 0"/></clipPath><clipPath id="EL"><path d="M75.54 33.906h3v3h-3zm0 0"/></clipPath><clipPath id="EM"><path d="M72.2 20.355H75V23h-2.8zm0 0"/></clipPath><clipPath id="EN"><path d="M72.2 20.355h3v3h-3zm0 0"/></clipPath><clipPath id="EO"><path d="M60.246 6H63v2.9h-2.754zm0 0"/></clipPath><clipPath id="EP"><path d="M60.246 5.9h3v3h-3zm0 0"/></clipPath><clipPath ><path d="M60.04 6H63v2.766h-2.96zm0 0"/></clipPath><clipPath ><path d="M60.04 5.766h3v3h-3zm0 0"/></clipPath><clipPath id="ES"><path d="M61 6.234h2.7V9H61zm0 0"/></clipPath><clipPath id="ET"><path d="M60.7 6.234h3v3h-3zm0 0"/></clipPath><clipPath id="EU"><path d="M73 21.426h2.684V24H73zm0 0"/></clipPath><clipPath id="EV"><path d="M72.684 21.426h3v3h-3zm0 0"/></clipPath><clipPath id="EW"><path d="M76 37h2.563v2.98H76zm0 0"/></clipPath><clipPath id="EX"><path d="M75.563 36.98h3v3h-3zm0 0"/></clipPath><clipPath id="EY"><path d="M52.484 70H55v2.715h-2.516zm0 0"/></clipPath><clipPath id="EZ"><path d="M52.484 69.715h3v3h-3zm0 0"/></clipPath><clipPath id="Ea"><path d="M29.273 71H32v2.98h-2.727zm0 0"/></clipPath><clipPath id="Eb"><path d="M29.273 70.98h3v3h-3zm0 0"/></clipPath><clipPath id="Ec"><path d="M21.43 68H24v2.805h-2.57zm0 0"/></clipPath><clipPath id="Ed"><path d="M21.43 67.805h3v3h-3zm0 0"/></clipPath><clipPath id="Ee"><path d="M8.36 56H11v2.727H8.36zm0 0"/></clipPath><clipPath id="Ef"><path d="M8.36 55.727h3v3h-3zm0 0"/></clipPath><clipPath ><path d="M8 55h2.7v2.676H8zm0 0"/></clipPath><clipPath ><path d="M7.7 54.676h3v3h-3zm0 0"/></clipPath><clipPath id="Ei"><path d="M27 70.156h2.664V73H27zm0 0"/></clipPath><clipPath id="Ej"><path d="M26.664 70.156h3v3h-3zm0 0"/></clipPath><clipPath id="Ek"><path d="M47.473 71.297H50V74h-2.527zm0 0"/></clipPath><clipPath id="El"><path d="M47.473 71.297h3v3h-3zm0 0"/></clipPath><clipPath id="Em"><path d="M54 69.2h2.684V72H54zm0 0"/></clipPath><clipPath id="En"><path d="M53.684 69.2h3v3h-3zm0 0"/></clipPath><clipPath id="Eo"><path d="M60.234 65.492H63V68h-2.766zm0 0"/></clipPath><clipPath id="Ep"><path d="M60.234 65.492h3v3h-3zm0 0"/></clipPath><clipPath id="Eq"><path d="M67.207 59H70v3h-2.793zm0 0"/></clipPath><clipPath id="Er"><path d="M67.207 59h3v3h-3zm0 0"/></clipPath><clipPath id="Es"><path d="M71.305 53H74v2.867h-2.695zm0 0"/></clipPath><clipPath id="Et"><path d="M71.305 52.867h3v3h-3zm0 0"/></clipPath><clipPath id="Eu"><path d="M71.305 53H74v2.867h-2.695zm0 0"/></clipPath><clipPath id="Ev"><path d="M71.305 52.867h3v3h-3zm0 0"/></clipPath><clipPath id="Ew"><path d="M71.063 53.32H74V56h-2.937zm0 0"/></clipPath><clipPath id="Ex"><path d="M71.063 53.32h3v3h-3zm0 0"/></clipPath><clipPath id="Ey"><path d="M66 60.47h2.926V63H66zm0 0"/></clipPath><clipPath id="Ez"><path d="M65.926 60.47h3v3h-3zm0 0"/></clipPath><clipPath id="FA"><path d="M58.04 67H61v2.94h-2.96zm0 0"/></clipPath><clipPath id="FB"><path d="M58.04 66.94h3v3h-3zm0 0"/></clipPath><clipPath id="FC"><path d="M51.316 70.152H54V73h-2.684zm0 0"/></clipPath><clipPath id="FD"><path d="M51.316 70.152h3v3h-3zm0 0"/></clipPath><clipPath id="FE"><path d="M45 72h2.844v2.82H45zm0 0"/></clipPath><clipPath id="FF"><path d="M44.844 71.82h3v3h-3zm0 0"/></clipPath><clipPath id="FG"><path d="M17 65h2.996v2.95H17zm0 0"/></clipPath><clipPath id="FH"><path d="M16.996 64.95h3v3h-3zm0 0"/></clipPath><clipPath ><path d="M5.363 50.133H8V53H5.363zm0 0"/></clipPath><clipPath ><path d="M5.363 50.133h3v3h-3zm0 0"/></clipPath><clipPath ><path d="M68.1 13.453h2.414v2.414H68.1zm0 0"/></clipPath><clipPath id="FL"><path d="M74.94 27.77h2.414v2.414H74.94zm0 0"/></clipPath><clipPath id="FM"><path d="M75.336 42.258h2.414v2.414h-2.414zm0 0"/></clipPath><clipPath id="FN"><path d="M31 72h2v1.957h-2zm0 0"/></clipPath><clipPath id="FO"><path d="M30.6 71.543h2.414v2.414H30.6zm0 0"/></clipPath><clipPath id="FP"><path d="M20.082 67.145H22v2.414h-1.918zm0 0"/></clipPath><clipPath id="FQ"><path d="M20.082 67.145h2.414v2.414h-2.414zm0 0"/></clipPath><clipPath id="FR"><path d="M11.477 60h2.414v2h-2.414zm0 0"/></clipPath><clipPath id="FS"><path d="M11.477 59.78h2.414v2.414h-2.414zm0 0"/></clipPath><clipPath id="FT"><path d="M2.688 35.992h2.414v2.414H2.688zm0 0"/></clipPath><clipPath id="FU"><path d="M4.285 47H6.7v2H4.285zm0 0"/></clipPath><clipPath id="FV"><path d="M4.285 46.7H6.7v2.414H4.285zm0 0"/></clipPath><clipPath id="FW"><path d="M40.066 73H42v1.992h-1.934zm0 0"/></clipPath><clipPath id="FX"><path d="M40.066 72.578h2.414v2.414h-2.414zm0 0"/></clipPath><clipPath ><path d="M47.695 71.605h2.418v2.414h-2.418zm0 0"/></clipPath><clipPath id="FZ"><path d="M58 68h1.996v2H58zm0 0"/></clipPath><clipPath id="Fa"><path d="M57.582 67.68h2.414v2.414h-2.414zm0 0"/></clipPath><clipPath id="Fb"><path d="M64 63.38h1.97v2.414H64zm0 0"/></clipPath><clipPath id="Fc"><path d="M63.555 63.38h2.414v2.414h-2.414zm0 0"/></clipPath><clipPath id="Fd"><path d="M69 58h2v1.953h-2zm0 0"/></clipPath><clipPath id="Fe"><path d="M68.86 57.54h2.414v2.414H68.86zm0 0"/></clipPath><clipPath id="Ff"><path d="M72 53.16h2v2.414h-2zm0 0"/></clipPath><clipPath id="Fg"><path d="M71.598 53.16h2.414v2.414h-2.414zm0 0"/></clipPath><clipPath id="Fh"><path d="M72 53.16h2v2.414h-2zm0 0"/></clipPath><clipPath id="Fi"><path d="M71.598 53.16h2.414v2.414h-2.414zm0 0"/></clipPath><clipPath id="Fj"><path d="M68.367 58.2h2.414v2.414h-2.414zm0 0"/></clipPath><clipPath id="Fk"><path d="M63.195 64h2.414v2h-2.414zm0 0"/></clipPath><clipPath id="Fl"><path d="M63.195 63.7h2.414v2.414h-2.414zm0 0"/></clipPath><clipPath id="Fm"><path d="M57 68.277h1.922v2.414H57zm0 0"/></clipPath><clipPath id="Fn"><path d="M56.508 68.277h2.414v2.414h-2.414zm0 0"/></clipPath><clipPath id="Fo"><path d="M47.6 71.63h2.414v2.414H47.6zm0 0"/></clipPath><clipPath id="Fp"><path d="M37.4 73h2.414v1.95H37.4zm0 0"/></clipPath><clipPath id="Fq"><path d="M37.4 72.535h2.414v2.414H37.4zm0 0"/></clipPath><clipPath id="Fr"><path d="M3.465 43.488H5.88v2.414H3.465zm0 0"/></clipPath><clipPath id="Fs"><path d="M2.688 35.992h2.414v2.414H2.688zm0 0"/></clipPath><clipPath id="Ft"><path d="M13.12 62h2.414v1.992H13.12zm0 0"/></clipPath><clipPath id="Fu"><path d="M13.12 61.578h2.414v2.414H13.12zm0 0"/></clipPath><clipPath id="Fv"><path d="M22 68.03h2V70h-2zm0 0"/></clipPath><clipPath id="Fw"><path d="M21.605 68.03h2.414v2.414h-2.414zm0 0"/></clipPath><clipPath id="Fx"><path d="M30 71.363h2v2.414h-2zm0 0"/></clipPath><clipPath id="Fy"><path d="M29.895 71.363h2.414v2.414h-2.414zm0 0"/></clipPath><clipPath id="Fz"><path d="M76 40.117h2v2.414h-2zm0 0"/></clipPath><clipPath id="GA"><path d="M75.645 40.117h2.414v2.414h-2.414zm0 0"/></clipPath><clipPath id="GB"><path d="M75 27.293h2v2.414h-2zm0 0"/></clipPath><clipPath id="GC"><path d="M74.828 27.293h2.414v2.414h-2.414zm0 0"/></clipPath><clipPath ><path d="M68.1 13.453h2.414v2.414H68.1zm0 0"/></clipPath><clipPath ><path d="M60.332 6.055h2.414V8h-2.414zm0 0"/></clipPath><clipPath ><path d="M60.332 6.055h2.414v2.418h-2.414zm0 0"/></clipPath><clipPath ><path d="M60.332 6.055h2.414V8h-2.414zm0 0"/></clipPath><clipPath ><path d="M60.332 6.055h2.414v2.418h-2.414zm0 0"/></clipPath><clipPath id="GI"><path d="M70 16h2v1.918h-2zm0 0"/></clipPath><clipPath id="GJ"><path d="M69.605 15.504h2.414v2.414h-2.414zm0 0"/></clipPath><clipPath id="GK"><path d="M75.395 30.063h2.414V32h-2.414zm0 0"/></clipPath><clipPath id="GL"><path d="M75.395 30.063h2.414v2.414h-2.414zm0 0"/></clipPath><clipPath id="GM"><path d="M75 45.035h2V47h-2zm0 0"/></clipPath><clipPath id="GN"><path d="M74.742 45.035h2.414v2.414h-2.414zm0 0"/></clipPath><clipPath id="GO"><path d="M28.188 71h2.414v2h-2.414zm0 0"/></clipPath><clipPath id="GP"><path d="M28.188 70.863h2.414v2.414h-2.414zm0 0"/></clipPath><clipPath id="GQ"><path d="M18.2 66h2.414v2H18.2zm0 0"/></clipPath><clipPath id="GR"><path d="M18.2 65.902h2.414v2.414H18.2zm0 0"/></clipPath><clipPath id="GS"><path d="M9.2 57h2.418v2H9.2zm0 0"/></clipPath><clipPath id="GT"><path d="M9.2 56.832h2.418v2.414H9.2zm0 0"/></clipPath><clipPath id="GU"><path d="M2.688 35.992h2.414v2.414H2.688zm0 0"/></clipPath><clipPath id="GV"><path d="M5.285 50H7.7v1.94H5.285zm0 0"/></clipPath><clipPath id="GW"><path d="M5.285 49.527H7.7v2.414H5.285zm0 0"/></clipPath><clipPath id="GX"><path d="M42.06 72.48H44v2.414h-1.94zm0 0"/></clipPath><clipPath id="GY"><path d="M42.06 72.48h2.414v2.414H42.06zm0 0"/></clipPath><clipPath ><path d="M50.074 71H52v2h-1.926zm0 0"/></clipPath><clipPath ><path d="M50.074 70.957h2.414v2.414h-2.414zm0 0"/></clipPath><path id="Gb" d="M70.922 58.523a1 1 0 1 0 0-2 1 1 0 1 0 0 2zm0 0"/><path id="Gc" d="M21.777 69.645c.262 0 .52-.105.707-.293a1 1 0 0 0 .293-.707c0-.262-.105-.52-.293-.707s-.445-.293-.707-.293a1 1 0 0 0-.707.293c-.187.188-.293.445-.293.707a1 1 0 0 0 1 1zm0 0"/><path id="Gd" d="M50.922 73.273a1 1 0 1 0 0-2c-.262 0-.52.105-.707.293a1 1 0 0 0 0 1.414c.188.188.445.293.707.293zm0 0"/><path id="Ge" d="M62.6 67.352c.262 0 .52-.105.707-.293a1 1 0 0 0 0-1.414c-.187-.187-.445-.293-.707-.293a1 1 0 1 0 0 2zm0 0"/><path id="Gf" d="M32.03 73.8a1 1 0 0 0 1-1c0-.262-.105-.52-.293-.707a1 1 0 0 0-1.414 0 1.01 1.01 0 0 0-.293.707 1 1 0 0 0 1 1zm0 0"/><path id="Gg" d="M6.254 51.13a1 1 0 0 0 .707-.293c.19-.187.293-.44.293-.707s-.102-.52-.293-.707a1 1 0 0 0-.707-.293c-.262 0-.52.105-.707.293a1 1 0 0 0 0 1.414c.188.188.445.293.707.293zm0 0"/><path id="Gh" d="M42.523 74.734c.266 0 .52-.102.707-.3a1.01 1.01 0 0 0 .293-.711c0-.262-.105-.52-.293-.707a1 1 0 0 0-1.414 0 1.01 1.01 0 0 0 0 1.418c.188.188.44.3.707.3zm0 0"/><path id="Gi" d="M73.926 23.324c.262 0 .52-.105.707-.293a1 1 0 0 0 0-1.414c-.187-.187-.445-.293-.707-.293a1.01 1.01 0 0 0-.711.293c-.187.188-.29.44-.29.707s.102.52.29.707a1.01 1.01 0 0 0 .711.293zm0 0"/><path id="Gj" d="M8.684 56.297a1 1 0 0 0 .707-.293c.188-.187.293-.445.293-.707a1.01 1.01 0 0 0-.293-.711c-.187-.187-.44-.29-.707-.29s-.52.102-.707.29a1.01 1.01 0 0 0-.293.711c0 .262.105.52.293.707a1 1 0 0 0 .707.293zm0 0"/><path id="Gk" d="M73.828 23.1a1 1 0 0 0 .707-.293c.188-.187.293-.445.293-.707a1 1 0 1 0-2 0c0 .262.105.52.293.707a1 1 0 0 0 .707.293zm0 0"/><path id="Gl" d="M62.352 8.852c.262 0 .52-.105.707-.293a1 1 0 0 0 0-1.414c-.187-.187-.445-.293-.707-.293a1 1 0 0 0 0 2zm0 0"/><path id="Gm" d="M76.543 44.172c.187 0 .367-.074.5-.207s.207-.312.207-.5-.074-.367-.207-.5-.312-.207-.5-.207-.367.074-.5.207-.207.313-.207.5.074.367.207.5.313.207.5.207zm0 0"/><path id="Gn" d="M31.816 73.457c.188 0 .367-.074.5-.207s.207-.312.207-.5-.074-.367-.207-.5-.312-.207-.5-.207-.367.074-.5.207-.207.313-.207.5.074.367.207.5.313.207.5.207zm0 0"/></defs><path d="M138.67 29.328l13.668 28.64.8 28.984-89.48 58.59-21.058-8.798-17.215-14.73L7.792 74.42l3.197 21.406 71.58 51.79 15.265-1.947 19.78-7.854 11.95-8.603 10.613-11.683 5.478-8.762-6.462 10.082-10.347 10.988-13.377 9.174-17.842 6.706-20.405 1.813L9.347 89.415 7.792 74.42l20.874 51.186 16.973 12.9 16.585 6.666 91.525-62.5-1.632-25.655-13.444-27.688-15.558-14.794 18.55 18.895 11.583 29.13-1.304 29.954-93.138 51.667-19.982-9.923-17.997-18.145L7.792 74.42 13 101.5l73.566 45.92 16.037-3.047 14.434-6.222 11.707-8.222 13.152-14.85 3.767-6.313-7.65 11.59L127 131.373l-13.614 8.706-14.894 5.432-22.953 1.915-64.8-52.485-2.39-11.628 26.728 48.114 20.2 11.527 20.91 4.518 77.888-68.65-3.94-28.516L135.84 25.9l-12.73-11.383 22.024 24.595 8.962 31.283-4.977 30.837-89.825 43.098-15.71-7.002-20.646-18.34-15.074-41.84 15.094 41.888 65.495 28.21 13.418-2.656 19.065-8.815 10.995-8.776 11.743-14.754 1.97-3.477-6.902 10.643-13.496 13.33-13.832 8.27-13.918 4.735-33.423-.1L12.16 99.342l.345.946 30.172 36.51 17.84 7.908 24.547 2.805 68.92-67.425-6.095-35.424-22.807-28.7-1.968-1.43L143.97 37.07l10.228 38.4-8.722 33.62-81.57 36.5-23.67-10.377-10.923-8.962L10.35 93.58l26.27 39.057 55.006 14.216 14.558-3.697 15.044-7.572 11.903-9.77 12.52-17.05-6.892 10.643-14.332 13.95-12.443 7.392-14.385 4.97-38.142-1.336-42.084-33.758 31.135 29.398 15.652 5.642 38.543-1.328 50.8-59.82L147.7 44.23l-22.96-28.522-1.624-1.172L145.26 39.34l8.942 36.456L138.45 119.8l-75.185 25.647-21.446-9.19-8.883-6.625L15.7 107.484l23.52 27.03 53.523 12.167 13.45-3.517 15.104-7.612 13.02-10.933 11.363-15.856-.492.914-9.48 13.418-12.175 10.923-13.894 7.782-13.294 4.205-39.707-2.547-37.37-29.688 3.862 5.486L47.48 139.5l12.294 4.986 53.47-4.346 40.487-74.1-5.32-20.206-23.993-30.373-1.304-.94.734.524 22.282 25.916 7.602 25.077-27.56 65.978L61.4 144.95l-17.24-7.276-9.876-6.892-14.472-16.177 31.054 26.534 42.442 5.447 15.21-4.33 16.2-9.123 11.175-10.276 9.763-14.098-.648 1.204-10.713 14.652-9.573 8.518-18.7 10.083-14.16 3.595L46.527 139 17.03 110.015l17.34 20.822 9.762 6.806 20.162 8.034 69.844-20.902 19.98-53.945-6.657-27.108-24.35-29.208 1.304.94 23.99 30.39 5.76 31.12-46.17 65.486-46.433 2.533-15.692-6.354-26.147-24.14-1.32-2.1 37.94 30.968 41.632 2.28 12.423-4.173 13.104-7.442 13.95-12.988 8.198-12.27-.484.906-10.277 14.3-15.778 12.95-13.45 6.42-12.95 3.337-55.712-13.744-23.272-29.638" stroke-width=".5" stroke-linecap="square" stroke-opacity=".7" class="O P Q T"/><g transform="scale(2.000563)"><g clip-path="url(#E)" class="R"><use xlink:href="#Gb"/></g><g clip-path="url(#F)" class="Q S O P"><use xlink:href="#Gb"/></g><g clip-path="url(#G)" class="R"><path d="M72.805 55.367a1 1 0 1 0 0-2 1 1 0 1 0 0 2zm0 0"/></g><g clip-path="url(#H)" class="Q S O P"><path d="M72.805 55.367a1 1 0 1 0 0-2 1 1 0 1 0 0 2zm0 0"/></g><g clip-path="url(#I)" class="R"><path d="M72.805 55.367a1 1 0 1 0 0-2 1 1 0 1 0 0 2zm0 0"/></g><g clip-path="url(#J)" class="Q S O P"><path d="M72.805 55.367a1 1 0 1 0 0-2 1 1 0 1 0 0 2zm0 0"/></g><g clip-path="url(#M)" class="R"><path d="M63.48 66.668a1 1 0 1 0 0-2 1 1 0 1 0 0 2zm0 0"/></g><g clip-path="url(#N)" class="Q S O P"><path d="M63.48 66.668a1 1 0 1 0 0-2 1 1 0 1 0 0 2zm0 0"/></g><g clip-path="url(#O)" class="R"><path d="M56.676 71.02a1 1 0 1 0 0-2 1 1 0 1 0 0 2zm0 0"/></g><g clip-path="url(#P)" class="Q S O P"><path d="M56.676 71.02a1 1 0 1 0 0-2 1 1 0 1 0 0 2zm0 0"/></g><g clip-path="url(#S)" class="R"><path d="M37.758 74.7a1 1 0 1 0 0-2 1 1 0 1 0 0 2zm0 0"/></g><g clip-path="url(#T)" class="Q S O P"><path d="M37.758 74.7a1 1 0 1 0 0-2 1 1 0 1 0 0 2zm0 0"/></g><g clip-path="url(#U)" class="R"><path d="M5.363 48.457a1 1 0 1 0 0-2 1 1 0 1 0 0 2zm0 0"/></g><g clip-path="url(#V)" class="Q S O P"><path d="M5.363 48.457a1 1 0 1 0 0-2 1 1 0 1 0 0 2zm0 0"/></g><g clip-path="url(#a)" class="R"><path d="M27.63 72.457a1 1 0 1 0 0-2 1 1 0 1 0 0 2zm0 0"/></g><g clip-path="url(#b)" class="Q S O P"><path d="M27.63 72.457a1 1 0 1 0 0-2 1 1 0 1 0 0 2zm0 0"/></g><g clip-path="url(#c)" class="R"><path d="M38.082 74.715a1 1 0 1 0 0-2 1 1 0 1 0 0 2zm0 0"/></g><g clip-path="url(#d)" class="Q S O P"><path d="M38.082 74.715a1 1 0 1 0 0-2 1 1 0 1 0 0 2zm0 0"/></g><g clip-path="url(#e)" class="R"><path d="M77.016 40.4a1 1 0 1 0 0-2 1 1 0 1 0 0 2zm0 0"/></g><g clip-path="url(#f)" class="Q S O P"><path d="M77.016 40.4a1 1 0 1 0 0-2 1 1 0 1 0 0 2zm0 0"/></g><g clip-path="url(#g)" class="R"><path d="M75.047 26.156a1 1 0 1 0 0-2 1 1 0 1 0 0 2zm0 0"/></g><g clip-path="url(#h)" class="Q S O P"><path d="M75.047 26.156a1 1 0 1 0 0-2 1 1 0 1 0 0 2zm0 0"/></g><g clip-path="url(#i)" class="R"><path d="M67.902 13.957a1 1 0 1 0 0-2 1 1 0 1 0 0 2zm0 0"/></g><g clip-path="url(#j)" class="Q S O P"><path d="M67.902 13.957a1 1 0 1 0 0-2 1 1 0 1 0 0 2zm0 0"/></g><g clip-path="url(#o)" class="R"><path d="M72.547 20.55a1 1 0 1 0 0-2 1 1 0 1 0 0 2zm0 0"/></g><g clip-path="url(#p)" class="Q S O P"><path d="M72.547 20.55a1 1 0 1 0 0-2 1 1 0 1 0 0 2zm0 0"/></g><g clip-path="url(#q)" class="R"><path d="M77.027 36.188a1 1 0 1 0 0-2 1 1 0 1 0 0 2zm0 0"/></g><g clip-path="url(#r)" class="Q S O P"><path d="M77.027 36.188a1 1 0 1 0 0-2 1 1 0 1 0 0 2zm0 0"/></g><g clip-path="url(#s)" class="R"><path d="M74.54 51.602a1 1 0 1 0 0-2 1 1 0 1 0 0 2zm0 0"/></g><g clip-path="url(#t)" class="Q S O P"><path d="M74.54 51.602a1 1 0 1 0 0-2 1 1 0 1 0 0 2zm0 0"/></g><g clip-path="url(#w)" class="R"><use xlink:href="#Gc"/></g><g clip-path="url(#x)" class="Q S O P"><use xlink:href="#Gc"/></g><g clip-path="url(#y)" class="R"><path d="M11.457 60.477a1 1 0 1 0 0-2 1 1 0 1 0 0 2zm0 0"/></g><g clip-path="url(#z)" class="Q S O P"><path d="M11.457 60.477a1 1 0 1 0 0-2 1 1 0 1 0 0 2zm0 0"/></g><g clip-path="url(#AA)" class="R"><path d="M3.922 39.563a1 1 0 1 0 0-2 1 1 0 1 0 0 2zm0 0"/></g><g clip-path="url(#AB)" class="Q S O P"><path d="M3.922 39.563a1 1 0 1 0 0-2 1 1 0 1 0 0 2zm0 0"/></g><g clip-path="url(#AG)" class="R"><use xlink:href="#Gd"/></g><g clip-path="url(#AH)" class="Q S O P"><use xlink:href="#Gd"/></g><g clip-path="url(#AI)" class="R"><path d="M60.453 68.867c.262 0 .52-.105.707-.293a1 1 0 0 0 .293-.707c0-.262-.105-.52-.293-.707s-.445-.293-.707-.293a1 1 0 0 0-.707.293c-.187.188-.293.445-.293.707a1 1 0 0 0 1 1zm0 0"/></g><g clip-path="url(#AJ)" class="Q S O P"><path d="M60.453 68.867c.262 0 .52-.105.707-.293a1 1 0 0 0 .293-.707c0-.262-.105-.52-.293-.707s-.445-.293-.707-.293a1 1 0 0 0-.707.293c-.187.188-.293.445-.293.707a1 1 0 0 0 1 1zm0 0"/></g><g clip-path="url(#AM)" class="R"><path d="M71.82 57.105a1 1 0 1 0 0-2 1 1 0 1 0 0 2zm0 0"/></g><g clip-path="url(#AN)" class="Q S O P"><path d="M71.82 57.105a1 1 0 1 0 0-2 1 1 0 1 0 0 2zm0 0"/></g><g clip-path="url(#AO)" class="R"><path d="M72.805 55.367a1 1 0 1 0 0-2 1 1 0 1 0 0 2zm0 0"/></g><g clip-path="url(#AP)" class="Q S O P"><path d="M72.805 55.367a1 1 0 1 0 0-2 1 1 0 1 0 0 2zm0 0"/></g><g clip-path="url(#AQ)" class="R"><path d="M72.805 55.367a1 1 0 1 0 0-2 1 1 0 1 0 0 2zm0 0"/></g><g clip-path="url(#AR)" class="Q S O P"><path d="M72.805 55.367a1 1 0 1 0 0-2 1 1 0 1 0 0 2zm0 0"/></g><g clip-path="url(#AS)" class="R"><path d="M69.355 60.688a1 1 0 1 0 0-2 1 1 0 1 0 0 2zm0 0"/></g><g clip-path="url(#AT)" class="Q S O P"><path d="M69.355 60.688a1 1 0 1 0 0-2 1 1 0 1 0 0 2zm0 0"/></g><g clip-path="url(#AU)" class="R"><use xlink:href="#Ge"/></g><g clip-path="url(#AV)" class="Q S O P"><use xlink:href="#Ge"/></g><g clip-path="url(#AW)" class="R"><path d="M55.695 71.484c.262 0 .52-.105.707-.293a1 1 0 0 0 0-1.414c-.187-.187-.445-.293-.707-.293a1 1 0 1 0 0 2zm0 0"/></g><g clip-path="url(#AX)" class="Q S O P"><path d="M55.695 71.484c.262 0 .52-.105.707-.293a1 1 0 0 0 0-1.414c-.187-.187-.445-.293-.707-.293a1 1 0 1 0 0 2zm0 0"/></g><g clip-path="url(#AY)" class="R"><path d="M48.738 73.852a1 1 0 1 0 0-2 1 1 0 1 0 0 2zm0 0"/></g><g clip-path="url(#AZ)" class="Q S O P"><path d="M48.738 73.852a1 1 0 1 0 0-2 1 1 0 1 0 0 2zm0 0"/></g><g clip-path="url(#Aa)" class="R"><use xlink:href="#Gf"/></g><g clip-path="url(#Ab)" class="Q S O P"><use xlink:href="#Gf"/></g><g clip-path="url(#Ac)" class="R"><path d="M6.082 50.656a1 1 0 0 0 1-1c0-.262-.105-.52-.293-.707a1 1 0 0 0-1.414 0 1.01 1.01 0 0 0-.293.707 1 1 0 0 0 1 1zm0 0"/></g><g clip-path="url(#Ad)" class="Q S O P"><path d="M6.082 50.656a1 1 0 0 0 1-1c0-.262-.105-.52-.293-.707a1 1 0 0 0-1.414 0 1.01 1.01 0 0 0-.293.707 1 1 0 0 0 1 1zm0 0"/></g><g clip-path="url(#Ae)" class="R"><use xlink:href="#Gg"/></g><g clip-path="url(#Af)" class="Q S O P"><use xlink:href="#Gg"/></g><g clip-path="url(#Ag)" class="R"><path d="M21.336 69.38a1 1 0 1 0 0-2 1 1 0 1 0 0 2zm0 0"/></g><g clip-path="url(#Ah)" class="Q S O P"><path d="M21.336 69.38a1 1 0 1 0 0-2 1 1 0 1 0 0 2zm0 0"/></g><g clip-path="url(#Ai)" class="R"><path d="M30.254 73.332a1 1 0 1 0 0-2 1 1 0 1 0 0 2zm0 0"/></g><g clip-path="url(#Aj)" class="Q S O P"><path d="M30.254 73.332a1 1 0 1 0 0-2 1 1 0 1 0 0 2zm0 0"/></g><g clip-path="url(#Ak)" class="R"><use xlink:href="#Gh"/></g><g clip-path="url(#Al)" class="Q S O P"><use xlink:href="#Gh"/></g><g clip-path="url(#Ao)" class="R"><use xlink:href="#Gi"/></g><g clip-path="url(#Ap)" class="Q S O P"><use xlink:href="#Gi"/></g><g clip-path="url(#Aq)" class="R"><path d="M62.523 8.98c.266 0 .52-.102.707-.3a1.01 1.01 0 0 0 .293-.711c0-.262-.105-.52-.293-.707a1 1 0 0 0-1.414 0 1.01 1.01 0 0 0 0 1.418c.188.188.44.3.707.3zm0 0"/></g><g clip-path="url(#Ar)" class="Q S O P"><path d="M62.523 8.98c.266 0 .52-.102.707-.3a1.01 1.01 0 0 0 .293-.711c0-.262-.105-.52-.293-.707a1 1 0 0 0-1.414 0 1.01 1.01 0 0 0 0 1.418c.188.188.44.3.707.3zm0 0"/></g><g clip-path="url(#Aw)" class="R"><path d="M71.965 19.53a1 1 0 1 0 0-2 1 1 0 1 0 0 2zm0 0"/></g><g clip-path="url(#Ax)" class="Q S O P"><path d="M71.965 19.53a1 1 0 1 0 0-2 1 1 0 1 0 0 2zm0 0"/></g><g clip-path="url(#Ay)" class="R"><path d="M77.078 38.727a1 1 0 1 0 0-2 1 1 0 1 0 0 2zm0 0"/></g><g clip-path="url(#Az)" class="Q S O P"><path d="M77.078 38.727a1 1 0 1 0 0-2 1 1 0 1 0 0 2zm0 0"/></g><g clip-path="url(#BA)" class="R"><path d="M72.72 55.53a1 1 0 1 0 0-2 1 1 0 1 0 0 2zm0 0"/></g><g clip-path="url(#BB)" class="Q S O P"><path d="M72.72 55.53a1 1 0 1 0 0-2 1 1 0 1 0 0 2zm0 0"/></g><g clip-path="url(#BC)" class="R"><path d="M31.945 73.78a1 1 0 1 0 0-2 1 1 0 1 0 0 2zm0 0"/></g><g clip-path="url(#BD)" class="Q S O P"><path d="M31.945 73.78a1 1 0 1 0 0-2 1 1 0 1 0 0 2zm0 0"/></g><g clip-path="url(#BE)" class="R"><path d="M20.113 68.594a1 1 0 1 0 0-2 1 1 0 1 0 0 2zm0 0"/></g><g clip-path="url(#BF)" class="Q S O P"><path d="M20.113 68.594a1 1 0 1 0 0-2 1 1 0 1 0 0 2zm0 0"/></g><g clip-path="url(#BG)" class="R"><path d="M14.652 64.113a1 1 0 1 0 0-2 1 1 0 1 0 0 2zm0 0"/></g><g clip-path="url(#BH)" class="Q S O P"><path d="M14.652 64.113a1 1 0 1 0 0-2 1 1 0 1 0 0 2zm0 0"/></g><g clip-path="url(#BI)" class="R"><path d="M5.172 47.777a1 1 0 1 0 0-2 1 1 0 1 0 0 2zm0 0"/></g><g clip-path="url(#BJ)" class="Q S O P"><path d="M5.172 47.777a1 1 0 1 0 0-2 1 1 0 1 0 0 2zm0 0"/></g><g clip-path="url(#BK)" class="R"><path d="M18.305 67.3a1 1 0 1 0 0-2 1 1 0 1 0 0 2zm0 0"/></g><g clip-path="url(#BL)" class="Q S O P"><path d="M18.305 67.3a1 1 0 1 0 0-2 1 1 0 1 0 0 2zm0 0"/></g><g clip-path="url(#BM)" class="R"><path d="M45.8 74.406a1 1 0 1 0 0-2 1 1 0 1 0 0 2zm0 0"/></g><g clip-path="url(#BN)" class="Q S O P"><path d="M45.8 74.406a1 1 0 1 0 0-2 1 1 0 1 0 0 2zm0 0"/></g><g clip-path="url(#BO)" class="R"><path d="M53.078 72.56a1 1 0 1 0 0-2 1 1 0 1 0 0 2zm0 0"/></g><g clip-path="url(#BP)" class="Q S O P"><path d="M53.078 72.56a1 1 0 1 0 0-2 1 1 0 1 0 0 2zm0 0"/></g><g clip-path="url(#BQ)" class="R"><path d="M60.598 68.773a1 1 0 1 0 0-2 1 1 0 1 0 0 2zm0 0"/></g><g clip-path="url(#BR)" class="Q S O P"><path d="M60.598 68.773a1 1 0 1 0 0-2 1 1 0 1 0 0 2zm0 0"/></g><g clip-path="url(#BS)" class="R"><path d="M66.547 63.9a1 1 0 1 0 0-2 1 1 0 1 0 0 2zm0 0"/></g><g clip-path="url(#BT)" class="Q S O P"><path d="M66.547 63.9a1 1 0 1 0 0-2 1 1 0 1 0 0 2zm0 0"/></g><g clip-path="url(#BU)" class="R"><path d="M72.52 55.898a1 1 0 1 0 0-2 1 1 0 1 0 0 2zm0 0"/></g><g clip-path="url(#BV)" class="Q S O P"><path d="M72.52 55.898a1 1 0 1 0 0-2 1 1 0 1 0 0 2zm0 0"/></g><g clip-path="url(#BW)" class="R"><path d="M72.805 55.367a1 1 0 1 0 0-2 1 1 0 1 0 0 2zm0 0"/></g><g clip-path="url(#BX)" class="Q S O P"><path d="M72.805 55.367a1 1 0 1 0 0-2 1 1 0 1 0 0 2zm0 0"/></g><g clip-path="url(#BY)" class="R"><path d="M72.805 55.367a1 1 0 1 0 0-2 1 1 0 1 0 0 2zm0 0"/></g><g clip-path="url(#BZ)" class="Q S O P"><path d="M72.805 55.367a1 1 0 1 0 0-2 1 1 0 1 0 0 2zm0 0"/></g><g clip-path="url(#Ba)" class="R"><path d="M69.36 60.688a1 1 0 1 0 0-2 1 1 0 1 0 0 2zm0 0"/></g><g clip-path="url(#Bb)" class="Q S O P"><path d="M69.36 60.688a1 1 0 1 0 0-2 1 1 0 1 0 0 2zm0 0"/></g><g clip-path="url(#Bc)" class="R"><path d="M62.195 67.66a1 1 0 1 0 0-2 1 1 0 1 0 0 2zm0 0"/></g><g clip-path="url(#Bd)" class="Q S O P"><path d="M62.195 67.66a1 1 0 1 0 0-2 1 1 0 1 0 0 2zm0 0"/></g><g clip-path="url(#Be)" class="R"><path d="M55.977 71.355a1 1 0 1 0 0-2 1 1 0 1 0 0 2zm0 0"/></g><g clip-path="url(#Bf)" class="Q S O P"><path d="M55.977 71.355a1 1 0 1 0 0-2 1 1 0 1 0 0 2zm0 0"/></g><g clip-path="url(#Bg)" class="R"><path d="M48.785 73.84a1 1 0 1 0 0-2 1 1 0 1 0 0 2zm0 0"/></g><g clip-path="url(#Bh)" class="Q S O P"><path d="M48.785 73.84a1 1 0 1 0 0-2 1 1 0 1 0 0 2zm0 0"/></g><g clip-path="url(#Bi)" class="R"><path d="M29.72 73.172a1 1 0 1 0 0-2 1 1 0 1 0 0 2zm0 0"/></g><g clip-path="url(#Bj)" class="Q S O P"><path d="M29.72 73.172a1 1 0 1 0 0-2 1 1 0 1 0 0 2zm0 0"/></g><g clip-path="url(#Bk)" class="R"><path d="M8.66 56.258a1 1 0 1 0 0-2 1 1 0 1 0 0 2zm0 0"/></g><g clip-path="url(#Bl)" class="Q S O P"><path d="M8.66 56.258a1 1 0 1 0 0-2 1 1 0 1 0 0 2zm0 0"/></g><g clip-path="url(#Bm)" class="R"><use xlink:href="#Gj"/></g><g clip-path="url(#Bn)" class="Q S O P"><use xlink:href="#Gj"/></g><g clip-path="url(#Bo)" class="R"><path d="M24.246 70.992a1 1 0 1 0 0-2 1 1 0 1 0 0 2zm0 0"/></g><g clip-path="url(#Bp)" class="Q S O P"><path d="M24.246 70.992a1 1 0 1 0 0-2 1 1 0 1 0 0 2zm0 0"/></g><g clip-path="url(#Bq)" class="R"><path d="M32.07 73.813a1 1 0 1 0 0-2 1 1 0 1 0 0 2zm0 0"/></g><g clip-path="url(#Br)" class="Q S O P"><path d="M32.07 73.813a1 1 0 1 0 0-2 1 1 0 1 0 0 2zm0 0"/></g><g clip-path="url(#Bs)" class="R"><path d="M51.336 73.148a1 1 0 1 0 0-2 1 1 0 1 0 0 2zm0 0"/></g><g clip-path="url(#Bt)" class="Q S O P"><path d="M51.336 73.148a1 1 0 1 0 0-2 1 1 0 1 0 0 2zm0 0"/></g><g clip-path="url(#Bu)" class="R"><path d="M76.734 43.246a1 1 0 1 0 0-2 1 1 0 1 0 0 2zm0 0"/></g><g clip-path="url(#Bv)" class="Q S O P"><path d="M76.734 43.246a1 1 0 1 0 0-2 1 1 0 1 0 0 2zm0 0"/></g><g clip-path="url(#Bw)" class="R"><use xlink:href="#Gk"/></g><g clip-path="url(#Bx)" class="Q S O P"><use xlink:href="#Gk"/></g><g clip-path="url(#By)" class="R"><use xlink:href="#Gl"/></g><g clip-path="url(#Bz)" class="Q S O P"><use xlink:href="#Gl"/></g><g clip-path="url(#CE)" class="R"><path d="M72.6 20.664a1 1 0 0 0 .707-.293c.188-.187.293-.445.293-.707a1 1 0 1 0-2 0c0 .262.105.52.293.707a1 1 0 0 0 .707.293zm0 0"/></g><g clip-path="url(#CF)" class="Q S O P"><path d="M72.6 20.664a1 1 0 0 0 .707-.293c.188-.187.293-.445.293-.707a1 1 0 1 0-2 0c0 .262.105.52.293.707a1 1 0 0 0 .707.293zm0 0"/></g><g clip-path="url(#CG)" class="R"><path d="M77.078 38.887a1 1 0 1 0 0-2 1 1 0 1 0 0 2zm0 0"/></g><g clip-path="url(#CH)" class="Q S O P"><path d="M77.078 38.887a1 1 0 1 0 0-2 1 1 0 1 0 0 2zm0 0"/></g><g clip-path="url(#CI)" class="R"><path d="M69.203 60.883a1 1 0 1 0 0-2 1 1 0 1 0 0 2zm0 0"/></g><g clip-path="url(#CJ)" class="Q S O P"><path d="M69.203 60.883a1 1 0 1 0 0-2 1 1 0 1 0 0 2zm0 0"/></g><g clip-path="url(#CK)" class="R"><path d="M31.62 73.703a1 1 0 1 0 0-2 1 1 0 1 0 0 2zm0 0"/></g><g clip-path="url(#CL)" class="Q S O P"><path d="M31.62 73.703a1 1 0 1 0 0-2 1 1 0 1 0 0 2zm0 0"/></g><g clip-path="url(#CM)" class="R"><path d="M20.902 69.1a1 1 0 1 0 0-2 1 1 0 1 0 0 2zm0 0"/></g><g clip-path="url(#CN)" class="Q S O P"><path d="M20.902 69.1a1 1 0 1 0 0-2 1 1 0 1 0 0 2zm0 0"/></g><g clip-path="url(#CO)" class="R"><path d="M16.46 65.797a1 1 0 1 0 0-2 1 1 0 1 0 0 2zm0 0"/></g><g clip-path="url(#CP)" class="Q S O P"><path d="M16.46 65.797a1 1 0 1 0 0-2 1 1 0 1 0 0 2zm0 0"/></g><g clip-path="url(#CQ)" class="R"><path d="M7.84 54.727a1 1 0 1 0 0-2 1 1 0 1 0 0 2zm0 0"/></g><g clip-path="url(#CR)" class="Q S O P"><path d="M7.84 54.727a1 1 0 1 0 0-2 1 1 0 1 0 0 2zm0 0"/></g><g clip-path="url(#CS)" class="R"><path d="M19.6 68.238a1 1 0 1 0 0-2 1 1 0 1 0 0 2zm0 0"/></g><g clip-path="url(#CT)" class="Q S O P"><path d="M19.6 68.238a1 1 0 1 0 0-2 1 1 0 1 0 0 2zm0 0"/></g><g clip-path="url(#CU)" class="R"><path d="M46.344 74.32a1 1 0 1 0 0-2 1 1 0 1 0 0 2zm0 0"/></g><g clip-path="url(#CV)" class="Q S O P"><path d="M46.344 74.32a1 1 0 1 0 0-2 1 1 0 1 0 0 2zm0 0"/></g><g clip-path="url(#CW)" class="R"><path d="M53.066 72.563a1 1 0 1 0 0-2 1 1 0 1 0 0 2zm0 0"/></g><g clip-path="url(#CX)" class="Q S O P"><path d="M53.066 72.563a1 1 0 1 0 0-2 1 1 0 1 0 0 2zm0 0"/></g><g clip-path="url(#CY)" class="R"><path d="M60.617 68.758a1 1 0 0 0 1-1c0-.262-.105-.52-.293-.707a1 1 0 0 0-1.414 0 1.01 1.01 0 0 0-.293.707 1 1 0 0 0 1 1zm0 0"/></g><g clip-path="url(#CZ)" class="Q S O P"><path d="M60.617 68.758a1 1 0 0 0 1-1c0-.262-.105-.52-.293-.707a1 1 0 0 0-1.414 0 1.01 1.01 0 0 0-.293.707 1 1 0 0 0 1 1zm0 0"/></g><g clip-path="url(#Ca)" class="R"><path d="M67.125 63.293a1 1 0 1 0 0-2 1 1 0 1 0 0 2zm0 0"/></g><g clip-path="url(#Cb)" class="Q S O P"><path d="M67.125 63.293a1 1 0 1 0 0-2 1 1 0 1 0 0 2zm0 0"/></g><g clip-path="url(#Cc)" class="R"><path d="M72.48 55.97c.262 0 .52-.105.707-.293a1 1 0 0 0 0-1.414c-.187-.187-.445-.293-.707-.293a1 1 0 1 0 0 2zm0 0"/></g><g clip-path="url(#Cd)" class="Q S O P"><path d="M72.48 55.97c.262 0 .52-.105.707-.293a1 1 0 0 0 0-1.414c-.187-.187-.445-.293-.707-.293a1 1 0 1 0 0 2zm0 0"/></g><g clip-path="url(#Ce)" class="R"><path d="M72.805 55.367a1 1 0 1 0 0-2 1 1 0 1 0 0 2zm0 0"/></g><g clip-path="url(#Cf)" class="Q S O P"><path d="M72.805 55.367a1 1 0 1 0 0-2 1 1 0 1 0 0 2zm0 0"/></g><g clip-path="url(#Cg)" class="R"><path d="M72.56 55.824a1 1 0 1 0 0-2 1 1 0 1 0 0 2zm0 0"/></g><g clip-path="url(#Ch)" class="Q S O P"><path d="M72.56 55.824a1 1 0 1 0 0-2 1 1 0 1 0 0 2zm0 0"/></g><g clip-path="url(#Ci)" class="R"><path d="M67.82 62.53a1 1 0 1 0 0-2 1 1 0 1 0 0 2zm0 0"/></g><g clip-path="url(#Cj)" class="Q S O P"><path d="M67.82 62.53a1 1 0 1 0 0-2 1 1 0 1 0 0 2zm0 0"/></g><g clip-path="url(#Ck)" class="R"><path d="M61.734 67.992a1 1 0 1 0 0-2c-.262 0-.52.105-.707.293a1 1 0 0 0 0 1.414c.188.188.445.293.707.293zm0 0"/></g><g clip-path="url(#Cl)" class="Q S O P"><path d="M61.734 67.992a1 1 0 1 0 0-2c-.262 0-.52.105-.707.293a1 1 0 0 0 0 1.414c.188.188.445.293.707.293zm0 0"/></g><g clip-path="url(#Cm)" class="R"><path d="M54.8 71.88a1 1 0 1 0 0-2c-.262 0-.52.105-.707.293a1 1 0 0 0 0 1.414c.188.188.445.293.707.293zm0 0"/></g><g clip-path="url(#Cn)" class="Q S O P"><path d="M54.8 71.88a1 1 0 1 0 0-2c-.262 0-.52.105-.707.293a1 1 0 0 0 0 1.414c.188.188.445.293.707.293zm0 0"/></g><g clip-path="url(#Co)" class="R"><path d="M48.156 73.98a1 1 0 1 0 0-2 1 1 0 1 0 0 2zm0 0"/></g><g clip-path="url(#Cp)" class="Q S O P"><path d="M48.156 73.98a1 1 0 1 0 0-2 1 1 0 1 0 0 2zm0 0"/></g><g clip-path="url(#Cq)" class="R"><path d="M28.3 72.707a1 1 0 1 0 0-2c-.262 0-.52.105-.707.293a1 1 0 0 0 0 1.414c.188.188.445.293.707.293zm0 0"/></g><g clip-path="url(#Cr)" class="Q S O P"><path d="M28.3 72.707a1 1 0 1 0 0-2c-.262 0-.52.105-.707.293a1 1 0 0 0 0 1.414c.188.188.445.293.707.293zm0 0"/></g><g clip-path="url(#Cs)" class="R"><path d="M9.63 57.867a1 1 0 1 0 0-2 1 1 0 1 0 0 2zm0 0"/></g><g clip-path="url(#Ct)" class="Q S O P"><path d="M9.63 57.867a1 1 0 1 0 0-2 1 1 0 1 0 0 2zm0 0"/></g><g clip-path="url(#Cu)" class="R"><path d="M11.56 60.6a1 1 0 1 0 0-2 1 1 0 1 0 0 2zm0 0"/></g><g clip-path="url(#Cv)" class="Q S O P"><path d="M11.56 60.6a1 1 0 1 0 0-2 1 1 0 1 0 0 2zm0 0"/></g><g clip-path="url(#Cw)" class="R"><path d="M23.734 70.73a1 1 0 1 0 0-2 1 1 0 1 0 0 2zm0 0"/></g><g clip-path="url(#Cx)" class="Q S O P"><path d="M23.734 70.73a1 1 0 1 0 0-2 1 1 0 1 0 0 2zm0 0"/></g><g clip-path="url(#Cy)" class="R"><path d="M29.88 73.223a1 1 0 0 0 .707-.293c.188-.187.293-.445.293-.707a1 1 0 1 0-2 0c0 .262.105.52.293.707a1 1 0 0 0 .707.293zm0 0"/></g><g clip-path="url(#Cz)" class="Q S O P"><path d="M29.88 73.223a1 1 0 0 0 .707-.293c.188-.187.293-.445.293-.707a1 1 0 1 0-2 0c0 .262.105.52.293.707a1 1 0 0 0 .707.293zm0 0"/></g><g clip-path="url(#DA)" class="R"><path d="M56.605 71.05a1 1 0 1 0 0-2 1 1 0 1 0 0 2zm0 0"/></g><g clip-path="url(#DB)" class="Q S O P"><path d="M56.605 71.05a1 1 0 1 0 0-2 1 1 0 1 0 0 2zm0 0"/></g><g clip-path="url(#DC)" class="R"><path d="M76.844 34.016a1 1 0 1 0 0-2 1 1 0 1 0 0 2zm0 0"/></g><g clip-path="url(#DD)" class="Q S O P"><path d="M76.844 34.016a1 1 0 1 0 0-2 1 1 0 1 0 0 2zm0 0"/></g><g clip-path="url(#DE)" class="R"><path d="M74.184 23.926a1 1 0 1 0 0-2c-.262 0-.52.105-.707.293a1 1 0 0 0 0 1.414c.188.188.445.293.707.293zm0 0"/></g><g clip-path="url(#DF)" class="Q S O P"><path d="M74.184 23.926a1 1 0 1 0 0-2c-.262 0-.52.105-.707.293a1 1 0 0 0 0 1.414c.188.188.445.293.707.293zm0 0"/></g><g clip-path="url(#DG)" class="R"><path d="M62.2 8.734a1 1 0 1 0 0-2 1 1 0 1 0 0 2zm0 0"/></g><g clip-path="url(#DH)" class="Q S O P"><path d="M62.2 8.734a1 1 0 1 0 0-2 1 1 0 1 0 0 2zm0 0"/></g><g clip-path="url(#DK)" class="R"><path d="M61.906 8.527a1 1 0 1 0 0-2 1 1 0 1 0 0 2zm0 0"/></g><g clip-path="url(#DL)" class="Q S O P"><path d="M61.906 8.527a1 1 0 1 0 0-2 1 1 0 1 0 0 2zm0 0"/></g><g clip-path="url(#DM)" class="R"><path d="M73.043 21.48a1 1 0 1 0 0-2 1 1 0 1 0 0 2zm0 0"/></g><g clip-path="url(#DN)" class="Q S O P"><path d="M73.043 21.48a1 1 0 1 0 0-2 1 1 0 1 0 0 2zm0 0"/></g><g clip-path="url(#DO)" class="R"><path d="M76.844 34.016a1 1 0 1 0 0-2 1 1 0 1 0 0 2zm0 0"/></g><g clip-path="url(#DP)" class="Q S O P"><path d="M76.844 34.016a1 1 0 1 0 0-2 1 1 0 1 0 0 2zm0 0"/></g><g clip-path="url(#DQ)" class="R"><path d="M63.066 66.996a1 1 0 0 0 1-1c0-.262-.105-.52-.293-.707a1 1 0 0 0-1.414 0 1.01 1.01 0 0 0-.293.707 1 1 0 0 0 1 1zm0 0"/></g><g clip-path="url(#DR)" class="Q S O P"><path d="M63.066 66.996a1 1 0 0 0 1-1c0-.262-.105-.52-.293-.707a1 1 0 0 0-1.414 0 1.01 1.01 0 0 0-.293.707 1 1 0 0 0 1 1zm0 0"/></g><g clip-path="url(#DS)" class="R"><path d="M30.7 73.457a1 1 0 1 0 0-2 1 1 0 1 0 0 2zm0 0"/></g><g clip-path="url(#DT)" class="Q S O P"><path d="M30.7 73.457a1 1 0 1 0 0-2 1 1 0 1 0 0 2zm0 0"/></g><g clip-path="url(#DU)" class="R"><path d="M22.074 69.82c.262 0 .52-.105.707-.293a1 1 0 0 0 0-1.414c-.187-.187-.445-.293-.707-.293a1 1 0 1 0 0 2zm0 0"/></g><g clip-path="url(#DV)" class="Q S O P"><path d="M22.074 69.82c.262 0 .52-.105.707-.293a1 1 0 0 0 0-1.414c-.187-.187-.445-.293-.707-.293a1 1 0 1 0 0 2zm0 0"/></g><g clip-path="url(#DW)" class="R"><path d="M17.137 66.375a1 1 0 1 0 0-2 1 1 0 1 0 0 2zm0 0"/></g><g clip-path="url(#DX)" class="Q S O P"><path d="M17.137 66.375a1 1 0 1 0 0-2 1 1 0 1 0 0 2zm0 0"/></g><g clip-path="url(#DY)" class="R"><path d="M9.902 58.3a1 1 0 1 0 0-2 1 1 0 1 0 0 2zm0 0"/></g><g clip-path="url(#DZ)" class="Q S O P"><path d="M9.902 58.3a1 1 0 1 0 0-2 1 1 0 1 0 0 2zm0 0"/></g><g clip-path="url(#Da)" class="R"><path d="M25.426 71.55a1 1 0 1 0 0-2c-.262 0-.52.105-.707.293a1 1 0 0 0 0 1.414c.188.188.445.293.707.293zm0 0"/></g><g clip-path="url(#Db)" class="Q S O P"><path d="M25.426 71.55a1 1 0 1 0 0-2c-.262 0-.52.105-.707.293a1 1 0 0 0 0 1.414c.188.188.445.293.707.293zm0 0"/></g><g clip-path="url(#Dc)" class="R"><path d="M46.64 74.273a1 1 0 1 0 0-2 1 1 0 1 0 0 2zm0 0"/></g><g clip-path="url(#Dd)" class="Q S O P"><path d="M46.64 74.273a1 1 0 1 0 0-2 1 1 0 1 0 0 2zm0 0"/></g><g clip-path="url(#De)" class="R"><path d="M54.242 72.1a1 1 0 1 0 0-2 1 1 0 1 0 0 2zm0 0"/></g><g clip-path="url(#Df)" class="Q S O P"><path d="M54.242 72.1a1 1 0 1 0 0-2 1 1 0 1 0 0 2zm0 0"/></g><g clip-path="url(#Di)" class="R"><path d="M67.926 62.414a1 1 0 0 0 .707-.293c.188-.187.293-.445.293-.707a1.01 1.01 0 0 0-.293-.711c-.187-.187-.44-.29-.707-.29s-.52.102-.707.29a1.01 1.01 0 0 0-.293.711c0 .262.105.52.293.707a1 1 0 0 0 .707.293zm0 0"/></g><g clip-path="url(#Dj)" class="Q S O P"><path d="M67.926 62.414a1 1 0 0 0 .707-.293c.188-.187.293-.445.293-.707a1.01 1.01 0 0 0-.293-.711c-.187-.187-.44-.29-.707-.29s-.52.102-.707.29a1.01 1.01 0 0 0-.293.711c0 .262.105.52.293.707a1 1 0 0 0 .707.293zm0 0"/></g><g clip-path="url(#Dk)" class="R"><path d="M72.484 55.96a1 1 0 0 0 .707-.293c.188-.187.293-.445.293-.707a1 1 0 1 0-2 0c0 .262.105.52.293.707a1 1 0 0 0 .707.293zm0 0"/></g><g clip-path="url(#Dl)" class="Q S O P"><path d="M72.484 55.96a1 1 0 0 0 .707-.293c.188-.187.293-.445.293-.707a1 1 0 1 0-2 0c0 .262.105.52.293.707a1 1 0 0 0 .707.293zm0 0"/></g><g clip-path="url(#Dm)" class="R"><path d="M72.805 55.367a1 1 0 1 0 0-2 1 1 0 1 0 0 2zm0 0"/></g><g clip-path="url(#Dn)" class="Q S O P"><path d="M72.805 55.367a1 1 0 1 0 0-2 1 1 0 1 0 0 2zm0 0"/></g><g clip-path="url(#Do)" class="R"><path d="M72.48 55.97c.262 0 .52-.105.707-.293a1 1 0 0 0 0-1.414c-.187-.187-.445-.293-.707-.293a1 1 0 1 0 0 2zm0 0"/></g><g clip-path="url(#Dp)" class="Q S O P"><path d="M72.48 55.97c.262 0 .52-.105.707-.293a1 1 0 0 0 0-1.414c-.187-.187-.445-.293-.707-.293a1 1 0 1 0 0 2zm0 0"/></g><g clip-path="url(#Dq)" class="R"><path d="M67.125 63.293a1 1 0 1 0 0-2 1 1 0 1 0 0 2zm0 0"/></g><g clip-path="url(#Dr)" class="Q S O P"><path d="M67.125 63.293a1 1 0 1 0 0-2 1 1 0 1 0 0 2zm0 0"/></g><g clip-path="url(#Du)" class="R"><path d="M52.992 72.6a1 1 0 1 0 0-2c-.262 0-.52.105-.707.293a1 1 0 0 0 0 1.414c.188.188.445.293.707.293zm0 0"/></g><g clip-path="url(#Dv)" class="Q S O P"><path d="M52.992 72.6a1 1 0 1 0 0-2c-.262 0-.52.105-.707.293a1 1 0 0 0 0 1.414c.188.188.445.293.707.293zm0 0"/></g><g clip-path="url(#Dy)" class="R"><path d="M23.254 70.48a1 1 0 1 0 0-2 1 1 0 1 0 0 2zm0 0"/></g><g clip-path="url(#Dz)" class="Q S O P"><path d="M23.254 70.48a1 1 0 1 0 0-2 1 1 0 1 0 0 2zm0 0"/></g><g clip-path="url(#EA)" class="R"><path d="M8.512 55.992a1 1 0 1 0 0-2 1 1 0 1 0 0 2zm0 0"/></g><g clip-path="url(#EB)" class="Q S O P"><path d="M8.512 55.992a1 1 0 1 0 0-2 1 1 0 1 0 0 2zm0 0"/></g><g clip-path="url(#EC)" class="R"><path d="M17.18 66.4a1 1 0 1 0 0-2 1 1 0 1 0 0 2zm0 0"/></g><g clip-path="url(#ED)" class="Q S O P"><path d="M17.18 66.4a1 1 0 1 0 0-2 1 1 0 1 0 0 2zm0 0"/></g><g clip-path="url(#EE)" class="R"><path d="M22.06 69.813a1 1 0 1 0 0-2 1 1 0 1 0 0 2zm0 0"/></g><g clip-path="url(#EF)" class="Q S O P"><path d="M22.06 69.813a1 1 0 1 0 0-2 1 1 0 1 0 0 2zm0 0"/></g><g clip-path="url(#EI)" class="R"><path d="M67.05 63.37a1 1 0 1 0 0-2 1 1 0 1 0 0 2zm0 0"/></g><g clip-path="url(#EJ)" class="Q S O P"><path d="M67.05 63.37a1 1 0 1 0 0-2 1 1 0 1 0 0 2zm0 0"/></g><g clip-path="url(#EK)" class="R"><path d="M77.04 36.406a1 1 0 1 0 0-2 1 1 0 1 0 0 2zm0 0"/></g><g clip-path="url(#EL)" class="Q S O P"><path d="M77.04 36.406a1 1 0 1 0 0-2 1 1 0 1 0 0 2zm0 0"/></g><g clip-path="url(#EM)" class="R"><path d="M73.7 22.855a1 1 0 1 0 0-2 1 1 0 1 0 0 2zm0 0"/></g><g clip-path="url(#EN)" class="Q S O P"><path d="M73.7 22.855a1 1 0 1 0 0-2 1 1 0 1 0 0 2zm0 0"/></g><g clip-path="url(#EO)" class="R"><path d="M61.746 8.4a1 1 0 1 0 0-2 1 1 0 1 0 0 2zm0 0"/></g><g clip-path="url(#EP)" class="Q S O P"><path d="M61.746 8.4a1 1 0 1 0 0-2 1 1 0 1 0 0 2zm0 0"/></g><g clip-path="url(#ES)" class="R"><path d="M62.2 8.734a1 1 0 1 0 0-2 1 1 0 1 0 0 2zm0 0"/></g><g clip-path="url(#ET)" class="Q S O P"><path d="M62.2 8.734a1 1 0 1 0 0-2 1 1 0 1 0 0 2zm0 0"/></g><g clip-path="url(#EU)" class="R"><path d="M74.184 23.926a1 1 0 1 0 0-2c-.262 0-.52.105-.707.293a1 1 0 0 0 0 1.414c.188.188.445.293.707.293zm0 0"/></g><g clip-path="url(#EV)" class="Q S O P"><path d="M74.184 23.926a1 1 0 1 0 0-2c-.262 0-.52.105-.707.293a1 1 0 0 0 0 1.414c.188.188.445.293.707.293zm0 0"/></g><g clip-path="url(#EW)" class="R"><path d="M77.063 39.48a1 1 0 1 0 0-2 1 1 0 1 0 0 2zm0 0"/></g><g clip-path="url(#EX)" class="Q S O P"><path d="M77.062 39.48a1 1 0 1 0 0-2 1 1 0 1 0 0 2zm0 0"/></g><g clip-path="url(#EY)" class="R"><path d="M53.984 72.215a1 1 0 1 0 0-2 1 1 0 1 0 0 2zm0 0"/></g><g clip-path="url(#EZ)" class="Q S O P"><path d="M53.984 72.215a1 1 0 1 0 0-2 1 1 0 1 0 0 2zm0 0"/></g><g clip-path="url(#Ea)" class="R"><path d="M30.773 73.48a1 1 0 1 0 0-2 1 1 0 1 0 0 2zm0 0"/></g><g clip-path="url(#Eb)" class="Q S O P"><path d="M30.773 73.48a1 1 0 1 0 0-2 1 1 0 1 0 0 2zm0 0"/></g><g clip-path="url(#Ec)" class="R"><path d="M22.93 70.305a1 1 0 1 0 0-2 1 1 0 1 0 0 2zm0 0"/></g><g clip-path="url(#Ed)" class="Q S O P"><path d="M22.93 70.305a1 1 0 1 0 0-2 1 1 0 1 0 0 2zm0 0"/></g><g clip-path="url(#Ee)" class="R"><path d="M9.86 58.227a1 1 0 1 0 0-2c-.262 0-.52.105-.707.293a1 1 0 0 0 0 1.414c.188.188.445.293.707.293zm0 0"/></g><g clip-path="url(#Ef)" class="Q S O P"><path d="M9.86 58.227a1 1 0 1 0 0-2c-.262 0-.52.105-.707.293a1 1 0 0 0 0 1.414c.188.188.445.293.707.293zm0 0"/></g><g clip-path="url(#Ei)" class="R"><path d="M28.164 72.656a1 1 0 1 0 0-2 1 1 0 1 0 0 2zm0 0"/></g><g clip-path="url(#Ej)" class="Q S O P"><path d="M28.164 72.656a1 1 0 1 0 0-2 1 1 0 1 0 0 2zm0 0"/></g><g clip-path="url(#Ek)" class="R"><path d="M48.973 73.797a1 1 0 1 0 0-2 1 1 0 1 0 0 2zm0 0"/></g><g clip-path="url(#El)" class="Q S O P"><path d="M48.973 73.797a1 1 0 1 0 0-2 1 1 0 1 0 0 2zm0 0"/></g><g clip-path="url(#Em)" class="R"><path d="M55.184 71.7a1 1 0 1 0 0-2 1 1 0 1 0 0 2zm0 0"/></g><g clip-path="url(#En)" class="Q S O P"><path d="M55.184 71.7a1 1 0 1 0 0-2 1 1 0 1 0 0 2zm0 0"/></g><g clip-path="url(#Eo)" class="R"><path d="M61.734 67.992a1 1 0 1 0 0-2c-.262 0-.52.105-.707.293a1 1 0 0 0 0 1.414c.188.188.445.293.707.293zm0 0"/></g><g clip-path="url(#Ep)" class="Q S O P"><path d="M61.734 67.992a1 1 0 1 0 0-2c-.262 0-.52.105-.707.293a1 1 0 0 0 0 1.414c.188.188.445.293.707.293zm0 0"/></g><g clip-path="url(#Eq)" class="R"><path d="M68.707 61.5a1 1 0 0 0 .707-.293c.188-.187.293-.445.293-.707a1 1 0 1 0-2 0c0 .262.105.52.293.707a1 1 0 0 0 .707.293zm0 0"/></g><g clip-path="url(#Er)" class="Q S O P"><path d="M68.707 61.5a1 1 0 0 0 .707-.293c.188-.187.293-.445.293-.707a1 1 0 1 0-2 0c0 .262.105.52.293.707a1 1 0 0 0 .707.293zm0 0"/></g><g clip-path="url(#Es)" class="R"><path d="M72.805 55.367a1 1 0 1 0 0-2 1 1 0 1 0 0 2zm0 0"/></g><g clip-path="url(#Et)" class="Q S O P"><path d="M72.805 55.367a1 1 0 1 0 0-2 1 1 0 1 0 0 2zm0 0"/></g><g clip-path="url(#Eu)" class="R"><path d="M72.805 55.367a1 1 0 1 0 0-2 1 1 0 1 0 0 2zm0 0"/></g><g clip-path="url(#Ev)" class="Q S O P"><path d="M72.805 55.367a1 1 0 1 0 0-2 1 1 0 1 0 0 2zm0 0"/></g><g clip-path="url(#Ew)" class="R"><path d="M72.563 55.82a1 1 0 1 0 0-2 1 1 0 1 0 0 2zm0 0"/></g><g clip-path="url(#Ex)" class="Q S O P"><path d="M72.562 55.82a1 1 0 1 0 0-2 1 1 0 1 0 0 2zm0 0"/></g><g clip-path="url(#Ey)" class="R"><path d="M67.426 62.97a1 1 0 1 0 0-2 1 1 0 1 0 0 2zm0 0"/></g><g clip-path="url(#Ez)" class="Q S O P"><path d="M67.426 62.97a1 1 0 1 0 0-2 1 1 0 1 0 0 2zm0 0"/></g><g clip-path="url(#FA)" class="R"><path d="M59.54 69.44a1 1 0 1 0 0-2 1 1 0 1 0 0 2zm0 0"/></g><g clip-path="url(#FB)" class="Q S O P"><path d="M59.54 69.44a1 1 0 1 0 0-2 1 1 0 1 0 0 2zm0 0"/></g><g clip-path="url(#FC)" class="R"><path d="M52.816 72.652c.266 0 .52-.102.707-.3a1.01 1.01 0 0 0 .293-.711c0-.262-.105-.52-.293-.707a1 1 0 0 0-1.414 0 1.01 1.01 0 0 0 0 1.418c.188.188.44.3.707.3zm0 0"/></g><g clip-path="url(#FD)" class="Q S O P"><path d="M52.816 72.652c.266 0 .52-.102.707-.3a1.01 1.01 0 0 0 .293-.711c0-.262-.105-.52-.293-.707a1 1 0 0 0-1.414 0 1.01 1.01 0 0 0 0 1.418c.188.188.44.3.707.3zm0 0"/></g><g clip-path="url(#FE)" class="R"><path d="M46.344 74.32a1 1 0 1 0 0-2 1 1 0 1 0 0 2zm0 0"/></g><g clip-path="url(#FF)" class="Q S O P"><path d="M46.344 74.32a1 1 0 1 0 0-2 1 1 0 1 0 0 2zm0 0"/></g><g clip-path="url(#FG)" class="R"><path d="M18.496 67.45a1 1 0 1 0 0-2c-.262 0-.52.105-.707.293a1 1 0 0 0 0 1.414c.188.188.445.293.707.293zm0 0"/></g><g class="Q O P"><g clip-path="url(#FH)" class="S"><path d="M18.496 67.45a1 1 0 1 0 0-2c-.262 0-.52.105-.707.293a1 1 0 0 0 0 1.414c.188.188.445.293.707.293zm0 0"/></g><g clip-path="url(#FL)" class="T"><path d="M76.148 29.684c.187 0 .367-.074.5-.207s.207-.313.207-.5-.074-.367-.207-.5-.312-.207-.5-.207-.367.074-.5.207-.207.313-.207.5.074.367.207.5.313.207.5.207zm0 0"/></g></g><g class="U"><g clip-path="url(#FM)" class="T O P"><use xlink:href="#Gm"/></g><g clip-path="url(#FN)"><use xlink:href="#Gn"/></g></g><g clip-path="url(#FO)" class="Q T O P"><use xlink:href="#Gn"/></g><g clip-path="url(#FP)" class="U"><path d="M21.3 69.06c.188 0 .367-.074.5-.207s.207-.312.207-.5-.074-.367-.207-.5-.312-.207-.5-.207-.367.074-.5.207-.207.313-.207.5.074.367.207.5.313.207.5.207zm0 0"/></g><g clip-path="url(#FQ)" class="Q T O P"><path d="M21.3 69.06c.187 0 .367-.074.5-.207s.207-.312.207-.5-.074-.367-.207-.5-.312-.207-.5-.207-.367.074-.5.207-.207.313-.207.5.074.367.207.5.313.207.5.207zm0 0"/></g><g clip-path="url(#FR)" class="U"><path d="M12.684 61.695c.188 0 .367-.074.5-.207s.207-.312.207-.5-.074-.367-.207-.5-.312-.207-.5-.207-.367.074-.5.207-.207.313-.207.5.074.367.207.5.313.207.5.207zm0 0"/></g><g class="Q T O P"><g clip-path="url(#FS)"><path d="M12.684 61.695c.187 0 .367-.074.5-.207s.207-.312.207-.5-.074-.367-.207-.5-.312-.207-.5-.207-.367.074-.5.207-.207.313-.207.5.074.367.207.5.313.207.5.207zm0 0"/></g><g clip-path="url(#FT)"><path d="M3.895 37.906c.187 0 .367-.074.5-.207s.207-.312.207-.5-.074-.367-.207-.5-.312-.207-.5-.207-.367.074-.5.207-.207.313-.207.5.074.367.207.5.313.207.5.207zm0 0"/></g></g><g clip-path="url(#FU)" class="U"><path d="M5.492 48.605c.188 0 .367-.074.5-.207s.207-.312.207-.5-.074-.367-.207-.5-.312-.207-.5-.207-.367.074-.5.207-.207.313-.207.5.074.367.207.5.313.207.5.207zm0 0"/></g><g clip-path="url(#FV)" class="Q T O P"><path d="M5.492 48.605c.187 0 .367-.074.5-.207s.207-.312.207-.5-.074-.367-.207-.5-.312-.207-.5-.207-.367.074-.5.207-.207.313-.207.5.074.367.207.5.313.207.5.207zm0 0"/></g><g clip-path="url(#FW)" class="U"><path d="M41.273 74.492c.188 0 .367-.074.5-.207s.207-.312.207-.5-.074-.367-.207-.5-.312-.207-.5-.207-.367.074-.5.207-.207.313-.207.5.074.367.207.5.313.207.5.207zm0 0"/></g><g clip-path="url(#FX)" class="Q T O P"><path d="M41.273 74.492c.188 0 .367-.074.5-.207s.207-.312.207-.5-.074-.367-.207-.5-.312-.207-.5-.207-.367.074-.5.207-.207.313-.207.5.074.367.207.5.313.207.5.207zm0 0"/></g><g clip-path="url(#FZ)" class="U"><path d="M58.8 69.594c.188 0 .367-.074.5-.207s.207-.312.207-.5-.074-.367-.207-.5-.312-.207-.5-.207-.367.074-.5.207-.207.313-.207.5.074.367.207.5.313.207.5.207zm0 0"/></g><g clip-path="url(#Fa)" class="Q T O P"><path d="M58.8 69.594c.187 0 .367-.074.5-.207s.207-.312.207-.5-.074-.367-.207-.5-.312-.207-.5-.207-.367.074-.5.207-.207.313-.207.5.074.367.207.5.313.207.5.207zm0 0"/></g><g clip-path="url(#Fb)" class="U"><path d="M64.762 65.293c.188 0 .367-.074.5-.207s.207-.312.207-.5-.074-.367-.207-.5-.312-.207-.5-.207-.367.074-.5.207-.207.313-.207.5.074.367.207.5.313.207.5.207zm0 0"/></g><g clip-path="url(#Fc)" class="Q T O P"><path d="M64.762 65.293c.187 0 .367-.074.5-.207s.207-.312.207-.5-.074-.367-.207-.5-.312-.207-.5-.207-.367.074-.5.207-.207.313-.207.5.074.367.207.5.313.207.5.207zm0 0"/></g><g clip-path="url(#Fd)" class="U"><path d="M70.066 59.453c.188 0 .367-.074.5-.207s.207-.312.207-.5-.074-.367-.207-.5-.312-.207-.5-.207-.367.074-.5.207-.207.313-.207.5.074.367.207.5.313.207.5.207zm0 0"/></g><g clip-path="url(#Fe)" class="Q T O P"><path d="M70.066 59.453c.187 0 .367-.074.5-.207s.207-.312.207-.5-.074-.367-.207-.5-.312-.207-.5-.207-.367.074-.5.207-.207.313-.207.5.074.367.207.5.313.207.5.207zm0 0"/></g><g clip-path="url(#Ff)" class="U"><path d="M72.805 55.074c.188 0 .367-.074.5-.207s.207-.312.207-.5-.074-.367-.207-.5-.312-.207-.5-.207-.367.074-.5.207-.207.313-.207.5.074.367.207.5.313.207.5.207zm0 0"/></g><g clip-path="url(#Fg)" class="Q T O P"><path d="M72.805 55.074c.188 0 .367-.074.5-.207s.207-.312.207-.5-.074-.367-.207-.5-.312-.207-.5-.207-.367.074-.5.207-.207.313-.207.5.074.367.207.5.313.207.5.207zm0 0"/></g><g clip-path="url(#Fh)" class="U"><path d="M72.805 55.074c.188 0 .367-.074.5-.207s.207-.312.207-.5-.074-.367-.207-.5-.312-.207-.5-.207-.367.074-.5.207-.207.313-.207.5.074.367.207.5.313.207.5.207zm0 0"/></g><g class="T O P"><g clip-path="url(#Fi)" class="Q"><path d="M72.805 55.074c.188 0 .367-.074.5-.207s.207-.312.207-.5-.074-.367-.207-.5-.312-.207-.5-.207-.367.074-.5.207-.207.313-.207.5.074.367.207.5.313.207.5.207zm0 0"/></g><g clip-path="url(#Fj)" class="U"><path d="M69.574 60.113c.187 0 .367-.074.5-.207s.207-.312.207-.5-.074-.367-.207-.5-.312-.207-.5-.207-.367.074-.5.207-.207.313-.207.5.074.367.207.5.313.207.5.207zm0 0"/></g></g><g clip-path="url(#Fk)" class="U"><path d="M64.402 65.605c.188 0 .367-.074.5-.207s.207-.312.207-.5-.074-.367-.207-.5-.312-.207-.5-.207-.367.074-.5.207-.207.313-.207.5.074.367.207.5.313.207.5.207zm0 0"/></g><g clip-path="url(#Fl)" class="Q T O P"><path d="M64.402 65.605c.188 0 .367-.074.5-.207s.207-.312.207-.5-.074-.367-.207-.5-.312-.207-.5-.207-.367.074-.5.207-.207.313-.207.5.074.367.207.5.313.207.5.207zm0 0"/></g><g clip-path="url(#Fm)" class="U"><path d="M57.715 70.2c.188 0 .367-.074.5-.207s.207-.312.207-.5-.074-.367-.207-.5-.312-.207-.5-.207-.367.074-.5.207-.207.313-.207.5.074.367.207.5.313.207.5.207zm0 0"/></g><g class="Q T O P"><g clip-path="url(#Fn)"><path d="M57.715 70.2c.187 0 .367-.074.5-.207s.207-.312.207-.5-.074-.367-.207-.5-.312-.207-.5-.207-.367.074-.5.207-.207.313-.207.5.074.367.207.5.313.207.5.207zm0 0"/></g><g clip-path="url(#Fo)"><path d="M48.797 73.543c.187 0 .367-.074.5-.207s.207-.312.207-.5-.074-.367-.207-.5-.312-.207-.5-.207-.367.074-.5.207-.207.313-.207.5.074.367.207.5.313.207.5.207zm0 0"/></g></g><g clip-path="url(#Fp)" class="U"><path d="M38.598 74.45c.188 0 .367-.074.5-.207a.7.7 0 0 0 .207-.5c0-.187-.074-.367-.207-.5s-.312-.207-.5-.207-.367.078-.5.207-.207.313-.207.5a.7.7 0 0 0 .207.5c.133.133.313.207.5.207zm0 0"/></g><g class="T O P"><g clip-path="url(#Fq)" class="Q"><path d="M38.598 74.45c.187 0 .367-.074.5-.207a.7.7 0 0 0 .207-.5c0-.188-.074-.367-.207-.5s-.312-.207-.5-.207-.367.078-.5.207-.207.313-.207.5a.7.7 0 0 0 .207.5c.133.133.313.207.5.207zm0 0"/></g><g clip-path="url(#Fr)" class="U"><path d="M4.672 45.402c.187 0 .367-.074.5-.207s.207-.312.207-.5-.074-.367-.207-.5-.312-.207-.5-.207-.367.074-.5.207-.207.313-.207.5.074.367.207.5.313.207.5.207zm0 0"/></g><g clip-path="url(#Fs)" class="Q"><path d="M3.895 37.906c.187 0 .367-.074.5-.207s.207-.312.207-.5-.074-.367-.207-.5-.312-.207-.5-.207-.367.074-.5.207-.207.313-.207.5.074.367.207.5.313.207.5.207zm0 0"/></g></g><g clip-path="url(#Ft)" class="U"><path d="M14.328 63.492c.188 0 .367-.074.5-.207s.207-.312.207-.5-.074-.367-.207-.5-.312-.207-.5-.207-.367.074-.5.207-.207.313-.207.5.074.367.207.5.313.207.5.207zm0 0"/></g><g clip-path="url(#Fu)" class="Q T O P"><path d="M14.328 63.492c.188 0 .367-.074.5-.207s.207-.312.207-.5-.074-.367-.207-.5-.312-.207-.5-.207-.367.074-.5.207-.207.313-.207.5.074.367.207.5.313.207.5.207zm0 0"/></g><g clip-path="url(#Fv)" class="U"><path d="M22.813 69.945c.188 0 .367-.074.5-.207s.207-.312.207-.5-.074-.367-.207-.5-.312-.207-.5-.207-.367.074-.5.207-.207.313-.207.5.074.367.207.5.313.207.5.207zm0 0"/></g><g clip-path="url(#Fw)" class="Q T O P"><path d="M22.813 69.945c.187 0 .367-.074.5-.207s.207-.312.207-.5-.074-.367-.207-.5-.312-.207-.5-.207-.367.074-.5.207-.207.313-.207.5.074.367.207.5.313.207.5.207zm0 0"/></g><g clip-path="url(#Fx)" class="U"><path d="M31.102 73.277c.188 0 .367-.078.5-.207s.207-.312.207-.5a.7.7 0 0 0-.207-.5c-.133-.133-.312-.207-.5-.207s-.367.074-.5.207a.7.7 0 0 0-.207.5c0 .188.074.367.207.5s.313.207.5.207zm0 0"/></g><g clip-path="url(#Fy)" class="Q T O P"><path d="M31.102 73.277c.188 0 .367-.078.5-.207s.207-.312.207-.5a.7.7 0 0 0-.207-.5c-.133-.133-.312-.207-.5-.207s-.367.074-.5.207a.7.7 0 0 0-.207.5c0 .187.074.367.207.5s.313.207.5.207zm0 0"/></g><g clip-path="url(#Fz)" class="U"><path d="M76.852 42.03c.188 0 .367-.074.5-.207s.207-.312.207-.5-.074-.367-.207-.5-.312-.207-.5-.207-.367.074-.5.207-.207.313-.207.5.074.367.207.5.313.207.5.207zm0 0"/></g><g clip-path="url(#GA)" class="Q T O P"><path d="M76.852 42.03c.188 0 .367-.074.5-.207s.207-.312.207-.5-.074-.367-.207-.5-.312-.207-.5-.207-.367.074-.5.207-.207.313-.207.5.074.367.207.5.313.207.5.207zm0 0"/></g><g clip-path="url(#GB)" class="U"><path d="M76.035 29.207c.188 0 .367-.074.5-.207s.207-.312.207-.5-.074-.367-.207-.5-.312-.207-.5-.207-.367.074-.5.207-.207.313-.207.5.074.367.207.5.313.207.5.207zm0 0"/></g><g clip-path="url(#GC)" class="Q T O P"><path d="M76.035 29.207c.188 0 .367-.074.5-.207s.207-.312.207-.5-.074-.367-.207-.5-.312-.207-.5-.207-.367.074-.5.207-.207.313-.207.5.074.367.207.5.313.207.5.207zm0 0"/></g><g clip-path="url(#GI)" class="U"><path d="M70.813 17.418c.188 0 .367-.074.5-.207s.207-.312.207-.5-.074-.367-.207-.5-.312-.207-.5-.207-.367.074-.5.207-.207.313-.207.5.074.367.207.5.313.207.5.207zm0 0"/></g><g clip-path="url(#GJ)" class="Q T O P"><path d="M70.812 17.418c.188 0 .367-.074.5-.207s.207-.312.207-.5-.074-.367-.207-.5-.312-.207-.5-.207-.367.074-.5.207-.207.313-.207.5.074.367.207.5.313.207.5.207zm0 0"/></g><g clip-path="url(#GK)" class="U"><path d="M76.602 31.977c.188 0 .367-.074.5-.207s.207-.312.207-.5-.074-.367-.207-.5-.312-.207-.5-.207-.367.074-.5.207-.207.313-.207.5.074.367.207.5.313.207.5.207zm0 0"/></g><g clip-path="url(#GL)" class="Q T O P"><path d="M76.602 31.977c.187 0 .367-.074.5-.207s.207-.312.207-.5-.074-.367-.207-.5-.312-.207-.5-.207-.367.074-.5.207-.207.313-.207.5.074.367.207.5.313.207.5.207zm0 0"/></g><g clip-path="url(#GM)" class="U"><path d="M75.95 46.95c.188 0 .367-.074.5-.207s.207-.312.207-.5-.074-.367-.207-.5-.312-.207-.5-.207-.367.074-.5.207-.207.313-.207.5.074.367.207.5.313.207.5.207zm0 0"/></g><g clip-path="url(#GN)" class="Q T O P"><path d="M75.95 46.95c.188 0 .367-.074.5-.207s.207-.312.207-.5-.074-.367-.207-.5-.312-.207-.5-.207-.367.074-.5.207-.207.313-.207.5.074.367.207.5.313.207.5.207zm0 0"/></g><g clip-path="url(#GO)" class="U"><path d="M29.395 72.777c.188 0 .367-.074.5-.207s.207-.312.207-.5-.074-.367-.207-.5-.312-.207-.5-.207-.367.074-.5.207-.207.313-.207.5.074.367.207.5.313.207.5.207zm0 0"/></g><g clip-path="url(#GP)" class="Q T O P"><path d="M29.395 72.777c.188 0 .367-.074.5-.207s.207-.312.207-.5-.074-.367-.207-.5-.312-.207-.5-.207-.367.074-.5.207-.207.313-.207.5.074.367.207.5.313.207.5.207zm0 0"/></g><g clip-path="url(#GQ)" class="U"><path d="M19.406 67.816c.188 0 .367-.074.5-.207s.207-.312.207-.5-.074-.367-.207-.5-.312-.207-.5-.207-.367.074-.5.207-.207.313-.207.5.074.367.207.5.313.207.5.207zm0 0"/></g><g clip-path="url(#GR)" class="Q T O P"><path d="M19.406 67.816c.188 0 .367-.074.5-.207s.207-.312.207-.5-.074-.367-.207-.5-.312-.207-.5-.207-.367.074-.5.207-.207.313-.207.5.074.367.207.5.313.207.5.207zm0 0"/></g><g clip-path="url(#GS)" class="U"><path d="M10.4 58.746c.188 0 .367-.074.5-.207s.207-.312.207-.5-.078-.367-.207-.5-.312-.207-.5-.207-.37.074-.5.207a.71.71 0 0 0-.211.5.71.71 0 0 0 .211.5c.13.133.31.207.5.207zm0 0"/></g><g class="Q T O P"><g clip-path="url(#GT)"><path d="M10.4 58.746c.187 0 .367-.074.5-.207s.207-.312.207-.5-.078-.367-.207-.5-.312-.207-.5-.207-.37.074-.5.207a.71.71 0 0 0-.211.5.71.71 0 0 0 .211.5c.13.133.31.207.5.207zm0 0"/></g><g clip-path="url(#GU)"><path d="M3.895 37.906c.187 0 .367-.074.5-.207s.207-.312.207-.5-.074-.367-.207-.5-.312-.207-.5-.207-.367.074-.5.207-.207.313-.207.5.074.367.207.5.313.207.5.207zm0 0"/></g></g><g clip-path="url(#GV)" class="U"><path d="M6.492 51.44c.188 0 .367-.074.5-.207s.207-.312.207-.5-.074-.367-.207-.5-.312-.207-.5-.207-.367.074-.5.207-.207.313-.207.5.074.367.207.5.313.207.5.207zm0 0"/></g><g clip-path="url(#GW)" class="Q T O P"><path d="M6.492 51.44c.188 0 .367-.074.5-.207s.207-.312.207-.5-.074-.367-.207-.5-.312-.207-.5-.207-.367.074-.5.207-.207.313-.207.5.074.367.207.5.313.207.5.207zm0 0"/></g><g clip-path="url(#GX)" class="U"><path d="M43.266 74.395c.188 0 .367-.074.5-.207s.207-.312.207-.5-.074-.367-.207-.5-.312-.207-.5-.207-.367.074-.5.207-.207.313-.207.5.074.367.207.5.313.207.5.207zm0 0"/></g><g clip-path="url(#GY)" class="Q T O P"><path d="M43.266 74.395c.187 0 .367-.074.5-.207s.207-.312.207-.5-.074-.367-.207-.5-.312-.207-.5-.207-.367.074-.5.207-.207.313-.207.5.074.367.207.5.313.207.5.207zm0 0"/></g></g></svg>