<svg xmlns="http://www.w3.org/2000/svg" xmlns:xlink="http://www.w3.org/1999/xlink" width="216" height="216" viewBox="0 0 162 162" xmlns:v="https://vecta.io/nano"><style><![CDATA[.O{stroke-linejoin:round}.P{stroke-miterlimit:10}.Q{fill:none}.R{fill:rgb(100%,49.803162%,5.490112%)}.S{stroke:rgb(100%,49.803162%,5.490112%)}.T{stroke:rgb(0%,0%,0%)}.U{fill:rgb(0%,0%,0%)}]]></style><defs><clipPath id="A"><path d="M75 64.195h2.84V67H75zm0 0"/></clipPath><clipPath id="B"><path d="M74.84 64.195h3v3h-3zm0 0"/></clipPath><clipPath id="C"><path d="M67.145 65.012H70V68h-2.855zm0 0"/></clipPath><clipPath id="D"><path d="M67.145 65.012h3v3h-3zm0 0"/></clipPath><clipPath id="E"><path d="M58 66h2.723v2.965H58zm0 0"/></clipPath><clipPath id="F"><path d="M57.723 65.965h3v3h-3zm0 0"/></clipPath><clipPath id="G"><path d="M50 65.207h2.773V68H50zm0 0"/></clipPath><clipPath id="H"><path d="M49.773 65.207h3v3h-3zm0 0"/></clipPath><clipPath id="I"><path d="M42.168 63.277H45V66h-2.832zm0 0"/></clipPath><clipPath id="J"><path d="M42.168 63.277h3v3h-3zm0 0"/></clipPath><clipPath id="K"><path d="M35 60h2.785v2.77H35zm0 0"/></clipPath><clipPath id="L"><path d="M34.785 59.77h3v3h-3zm0 0"/></clipPath><clipPath id="M"><path d="M28 54.324h2.938V57H28zm0 0"/></clipPath><clipPath id="N"><path d="M27.938 54.324h3v3h-3zm0 0"/></clipPath><clipPath id="O"><path d="M22.328 47H25v2.7h-2.672zm0 0"/></clipPath><clipPath id="P"><path d="M22.328 46.7h3v3h-3zm0 0"/></clipPath><clipPath id="Q"><path d="M18.105 37H21v2.57h-2.895zm0 0"/></clipPath><clipPath id="R"><path d="M18.105 36.57h3v3h-3zm0 0"/></clipPath><clipPath id="S"><path d="M16.227 20.008H19V23h-2.773zm0 0"/></clipPath><clipPath id="T"><path d="M16.227 20.008h3v3h-3zm0 0"/></clipPath><clipPath id="U"><path d="M8 14.195h2.934V17H8zm0 0"/></clipPath><clipPath id="V"><path d="M7.934 14.195h3v3h-3zm0 0"/></clipPath><clipPath id="W"><path d="M8.1 15H11v2.563H8.1zm0 0"/></clipPath><clipPath id="X"><path d="M8.1 14.563h3v3h-3zm0 0"/></clipPath><clipPath id="Y"><path d="M9.375 26.36H12V29H9.375zm0 0"/></clipPath><clipPath id="Z"><path d="M9.375 26.36h3v3h-3zm0 0"/></clipPath><clipPath id="a"><path d="M10 36.2h2.574V39H10zm0 0"/></clipPath><clipPath id="b"><path d="M9.574 36.2h3v3h-3zm0 0"/></clipPath><clipPath id="c"><path d="M12 41h2.754v2.72H12zm0 0"/></clipPath><clipPath id="d"><path d="M11.754 40.72h3v3h-3zm0 0"/></clipPath><clipPath id="e"><path d="M14.27 43H17v2.87h-2.73zm0 0"/></clipPath><clipPath id="f"><path d="M14.27 42.87h3v3h-3zm0 0"/></clipPath><clipPath id="g"><path d="M17 44h2.574v2.734H17zm0 0"/></clipPath><clipPath id="h"><path d="M16.574 43.734h3v3h-3zm0 0"/></clipPath><clipPath id="i"><path d="M19 44h2.738v2.6H19zm0 0"/></clipPath><clipPath id="j"><path d="M18.738 43.6h3v3h-3zm0 0"/></clipPath><clipPath id="k"><path d="M21.06 43H24v2.688h-2.94zm0 0"/></clipPath><clipPath id="l"><path d="M21.06 42.688h3v3h-3zm0 0"/></clipPath><clipPath ><path d="M24 41.336h2.68V44H24zm0 0"/></clipPath><clipPath ><path d="M23.68 41.336h3v3h-3zm0 0"/></clipPath><clipPath id="o"><path d="M27 40h2.703v2.922H27zm0 0"/></clipPath><clipPath id="p"><path d="M26.703 39.922h3v3h-3zm0 0"/></clipPath><clipPath id="q"><path d="M30.473 40H33v2.734h-2.527zm0 0"/></clipPath><clipPath id="r"><path d="M30.473 39.734h3v3h-3zm0 0"/></clipPath><clipPath id="s"><path d="M35 42.285h2.727V45H35zm0 0"/></clipPath><clipPath id="t"><path d="M34.727 42.285h3v3h-3zm0 0"/></clipPath><clipPath id="u"><path d="M39.2 46H42v2.96h-2.8zm0 0"/></clipPath><clipPath id="v"><path d="M39.2 45.96h3v3h-3zm0 0"/></clipPath><clipPath id="w"><path d="M44.3 49.273H47V52h-2.7zm0 0"/></clipPath><clipPath id="x"><path d="M44.3 49.273h3v3h-3zm0 0"/></clipPath><clipPath id="y"><path d="M49.367 52H52v2.906h-2.633zm0 0"/></clipPath><clipPath id="z"><path d="M49.367 51.906h3v3h-3zm0 0"/></clipPath><clipPath id="AA"><path d="M54 54.2h2.84V57H54zm0 0"/></clipPath><clipPath id="AB"><path d="M53.84 54.2h3v3h-3zm0 0"/></clipPath><clipPath id="AC"><path d="M57 56.12h2.8V59H57zm0 0"/></clipPath><clipPath id="AD"><path d="M56.8 56.12h3v3h-3zm0 0"/></clipPath><clipPath ><path d="M58 58h2.88v2.8H58zm0 0"/></clipPath><clipPath ><path d="M57.88 57.8h3v3h-3zm0 0"/></clipPath><clipPath id="AG"><path d="M58 59h2.55v2.703H58zm0 0"/></clipPath><clipPath id="AH"><path d="M57.55 58.703h3v3h-3zm0 0"/></clipPath><clipPath ><path d="M57 59h2.86v2.78H57zm0 0"/></clipPath><clipPath ><path d="M56.86 58.78h3v3h-3zm0 0"/></clipPath><clipPath id="AK"><path d="M56 58h2.867v2.934H56zm0 0"/></clipPath><clipPath id="AL"><path d="M55.867 57.934h3v3h-3zm0 0"/></clipPath><clipPath id="AM"><path d="M53.184 57H56v2.766h-2.816zm0 0"/></clipPath><clipPath id="AN"><path d="M53.184 56.766h3v3h-3zm0 0"/></clipPath><clipPath id="AO"><path d="M48.125 55.22H51V58h-2.875zm0 0"/></clipPath><clipPath id="AP"><path d="M48.125 55.22h3v3h-3zm0 0"/></clipPath><clipPath id="AQ"><path d="M42 52.285h2.914V55H42zm0 0"/></clipPath><clipPath id="AR"><path d="M41.914 52.285h3v3h-3zm0 0"/></clipPath><clipPath id="AS"><path d="M36.238 48H39v2.973h-2.762zm0 0"/></clipPath><clipPath id="AT"><path d="M36.238 47.973h3v3h-3zm0 0"/></clipPath><clipPath id="AU"><path d="M31.133 43.117H34V46h-2.867zm0 0"/></clipPath><clipPath id="AV"><path d="M31.133 43.117h3v3h-3zm0 0"/></clipPath><clipPath id="AW"><path d="M27.082 38H30v2.734h-2.918zm0 0"/></clipPath><clipPath id="AX"><path d="M27.082 37.734h3v3h-3zm0 0"/></clipPath><clipPath id="AY"><path d="M23 34.465h2.914V37H23zm0 0"/></clipPath><clipPath id="AZ"><path d="M22.914 34.465h3v3h-3zm0 0"/></clipPath><clipPath id="Aa"><path d="M20.13 33H23v2.785h-2.87zm0 0"/></clipPath><clipPath id="Ab"><path d="M20.13 32.785h3v3h-3zm0 0"/></clipPath><clipPath id="Ac"><path d="M18.352 33H21v2.645h-2.648zm0 0"/></clipPath><clipPath id="Ad"><path d="M18.352 32.645h3v3h-3zm0 0"/></clipPath><clipPath id="Ae"><path d="M18 32h2.543v2.988H18zm0 0"/></clipPath><clipPath id="Af"><path d="M17.543 31.988h3v3h-3zm0 0"/></clipPath><clipPath id="Ag"><path d="M17.414 30H20v2.926h-2.586zm0 0"/></clipPath><clipPath id="Ah"><path d="M17.414 29.926h3v3h-3zm0 0"/></clipPath><clipPath ><path d="M17 29h2.977v2.902H17zm0 0"/></clipPath><clipPath ><path d="M16.977 28.902h3v3h-3zm0 0"/></clipPath><clipPath ><path d="M18.13 31H21v2.793h-2.87zm0 0"/></clipPath><clipPath ><path d="M18.13 30.793h3v3h-3zm0 0"/></clipPath><clipPath ><path d="M20.05 36H23v2.53h-2.95zm0 0"/></clipPath><clipPath ><path d="M20.05 35.53h3v3h-3zm0 0"/></clipPath><clipPath id="Ao"><path d="M23 40h2.508v2.73H23zm0 0"/></clipPath><clipPath id="Ap"><path d="M22.508 39.73h3v3h-3zm0 0"/></clipPath><clipPath id="Aq"><path d="M26 43h2.824v2.98H26zm0 0"/></clipPath><clipPath id="Ar"><path d="M25.824 42.98h3v3h-3zm0 0"/></clipPath><clipPath id="As"><path d="M30 45.473h2.633V48H30zm0 0"/></clipPath><clipPath id="At"><path d="M29.633 45.473h3v3h-3zm0 0"/></clipPath><clipPath id="Au"><path d="M34.172 48H37v2.523h-2.828zm0 0"/></clipPath><clipPath id="Av"><path d="M34.172 47.523h3v3h-3zm0 0"/></clipPath><clipPath id="Aw"><path d="M39.406 49.48H42V52h-2.594zm0 0"/></clipPath><clipPath id="Ax"><path d="M39.406 49.48h3v3h-3zm0 0"/></clipPath><clipPath id="Ay"><path d="M45.07 51H48v2.887h-2.93zm0 0"/></clipPath><clipPath id="Az"><path d="M45.07 50.887h3v3h-3zm0 0"/></clipPath><clipPath ><path d="M50.1 53H53v2.746h-2.9zm0 0"/></clipPath><clipPath ><path d="M50.1 52.746h3v3h-3zm0 0"/></clipPath><clipPath id="BC"><path d="M54 54.348h2.984V57H54zm0 0"/></clipPath><clipPath id="BD"><path d="M53.984 54.348h3v3h-3zm0 0"/></clipPath><clipPath id="BE"><path d="M57 56h2.926v2.977H57zm0 0"/></clipPath><clipPath id="BF"><path d="M56.926 55.977h3v3h-3zm0 0"/></clipPath><clipPath id="BG"><path d="M59 57h2.848v2.984H59zm0 0"/></clipPath><clipPath id="BH"><path d="M58.848 56.984h3v3h-3zm0 0"/></clipPath><clipPath id="BI"><path d="M59.367 58H62v2.695h-2.633zm0 0"/></clipPath><clipPath id="BJ"><path d="M59.367 57.695h3v3h-3zm0 0"/></clipPath><clipPath id="BK"><path d="M58 58.004h2.707V61H58zm0 0"/></clipPath><clipPath id="BL"><path d="M57.707 58.004h3v3h-3zm0 0"/></clipPath><clipPath id="BM"><path d="M54.035 58H57v2.797h-2.965zm0 0"/></clipPath><clipPath id="BN"><path d="M54.035 57.797h3v3h-3zm0 0"/></clipPath><clipPath id="BO"><path d="M49.496 57H52v2.676h-2.504zm0 0"/></clipPath><clipPath id="BP"><path d="M49.496 56.676h3v3h-3zm0 0"/></clipPath><clipPath id="BQ"><path d="M45 55h2.934v2.508H45zm0 0"/></clipPath><clipPath id="BR"><path d="M44.934 54.508h3v3h-3zm0 0"/></clipPath><clipPath id="BS"><path d="M40.496 51H43v2.816h-2.504zm0 0"/></clipPath><clipPath id="BT"><path d="M40.496 50.816h3v3h-3zm0 0"/></clipPath><clipPath id="BU"><path d="M36 46.13h2.504V49H36zm0 0"/></clipPath><clipPath id="BV"><path d="M35.504 46.13h3v3h-3zm0 0"/></clipPath><clipPath id="BW"><path d="M30.477 42.215H33V45h-2.523zm0 0"/></clipPath><clipPath id="BX"><path d="M30.477 42.215h3v3h-3zm0 0"/></clipPath><clipPath id="BY"><path d="M26 39.215h2.73V42H26zm0 0"/></clipPath><clipPath id="BZ"><path d="M25.73 39.215h3v3h-3zm0 0"/></clipPath><clipPath id="Ba"><path d="M23 35.453h2.55V38H23zm0 0"/></clipPath><clipPath id="Bb"><path d="M22.55 35.453h3v3h-3zm0 0"/></clipPath><clipPath id="Bc"><path d="M20.46 31.242H23V34h-2.54zm0 0"/></clipPath><clipPath id="Bd"><path d="M20.46 31.242h3v3h-3zm0 0"/></clipPath><clipPath ><path d="M18 29h2.832v2.602H18zm0 0"/></clipPath><clipPath ><path d="M17.832 28.602h3v3h-3zm0 0"/></clipPath><clipPath ><path d="M16.082 28H19v2.6h-2.918zm0 0"/></clipPath><clipPath ><path d="M16.082 27.6h3v3h-3zm0 0"/></clipPath><clipPath id="Bi"><path d="M16.434 28.277H19V31h-2.566zm0 0"/></clipPath><clipPath id="Bj"><path d="M16.434 28.277h3v3h-3zm0 0"/></clipPath><clipPath id="Bk"><path d="M17.14 31.426H20V34h-2.86zm0 0"/></clipPath><clipPath id="Bl"><path d="M17.14 31.426h3v3h-3zm0 0"/></clipPath><clipPath id="Bm"><path d="M18.242 34.13H21V37h-2.758zm0 0"/></clipPath><clipPath id="Bn"><path d="M18.242 34.13h3v3h-3zm0 0"/></clipPath><clipPath id="Bo"><path d="M20.082 36H23v2.965h-2.918zm0 0"/></clipPath><clipPath id="Bp"><path d="M20.082 35.965h3v3h-3zm0 0"/></clipPath><clipPath id="Bq"><path d="M22.332 38H25v2.914h-2.668zm0 0"/></clipPath><clipPath id="Br"><path d="M22.332 37.914h3v3h-3zm0 0"/></clipPath><clipPath id="Bs"><path d="M25.25 40.38H28V43h-2.75zm0 0"/></clipPath><clipPath id="Bt"><path d="M25.25 40.38h3v3h-3zm0 0"/></clipPath><clipPath id="Bu"><path d="M29 43h2.742v2.87H29zm0 0"/></clipPath><clipPath id="Bv"><path d="M28.742 42.87h3v3h-3zm0 0"/></clipPath><clipPath id="Bw"><path d="M33.227 45.027H36V48h-2.773zm0 0"/></clipPath><clipPath id="Bx"><path d="M33.227 45.027h3v3h-3zm0 0"/></clipPath><clipPath id="By"><path d="M39 48h2.648v2.656H39zm0 0"/></clipPath><clipPath id="Bz"><path d="M38.648 47.656h3v3h-3zm0 0"/></clipPath><clipPath id="CA"><path d="M44 51h2.785v2.945H44zm0 0"/></clipPath><clipPath id="CB"><path d="M43.785 50.945h3v3h-3zm0 0"/></clipPath><clipPath ><path d="M49 53.3h2.754V56H49zm0 0"/></clipPath><clipPath ><path d="M48.754 53.3h3v3h-3zm0 0"/></clipPath><clipPath id="CE"><path d="M54 55.2h2.605V58H54zm0 0"/></clipPath><clipPath id="CF"><path d="M53.605 55.2h3v3h-3zm0 0"/></clipPath><clipPath id="CG"><path d="M58 57h2.82v2.688H58zm0 0"/></clipPath><clipPath id="CH"><path d="M57.82 56.688h3v3h-3zm0 0"/></clipPath><clipPath ><path d="M61 58h2.586v2.512H61zm0 0"/></clipPath><clipPath ><path d="M60.586 57.512h3v3h-3zm0 0"/></clipPath><clipPath id="CK"><path d="M61 58.367h2.848V61H61zm0 0"/></clipPath><clipPath id="CL"><path d="M60.848 58.367h3v3h-3zm0 0"/></clipPath><clipPath id="CM"><path d="M59 59h2.574v2.797H59zm0 0"/></clipPath><clipPath id="CN"><path d="M58.574 58.797h3v3h-3zm0 0"/></clipPath><clipPath id="CO"><path d="M55 59h2.965v2.52H55zm0 0"/></clipPath><clipPath id="CP"><path d="M54.965 58.52h3v3h-3zm0 0"/></clipPath><clipPath id="CQ"><path d="M51 58h2.668v2.578H51zm0 0"/></clipPath><clipPath id="CR"><path d="M50.668 57.578h3v3h-3zm0 0"/></clipPath><clipPath id="CS"><path d="M46 56h2.523v2.566H46zm0 0"/></clipPath><clipPath id="CT"><path d="M45.523 55.566h3v3h-3zm0 0"/></clipPath><clipPath id="CU"><path d="M40 53h2.703v2.676H40zm0 0"/></clipPath><clipPath id="CV"><path d="M39.703 52.676h3v3h-3zm0 0"/></clipPath><clipPath id="CW"><path d="M35 49h2.6v2.96H35zm0 0"/></clipPath><clipPath id="CX"><path d="M34.6 48.96h3v3h-3zm0 0"/></clipPath><clipPath id="CY"><path d="M31 44h2.54v2.895H31zm0 0"/></clipPath><clipPath id="CZ"><path d="M30.54 43.895h3v3h-3zm0 0"/></clipPath><clipPath id="Ca"><path d="M26.047 40H29v2.805h-2.953zm0 0"/></clipPath><clipPath id="Cb"><path d="M26.047 39.805h3v3h-3zm0 0"/></clipPath><clipPath id="Cc"><path d="M23 34.457h2.617V37H23zm0 0"/></clipPath><clipPath id="Cd"><path d="M22.617 34.457h3v3h-3zm0 0"/></clipPath><clipPath id="Ce"><path d="M20.164 29.016H23V32h-2.836zm0 0"/></clipPath><clipPath id="Cf"><path d="M20.164 29.016h3v3h-3zm0 0"/></clipPath><clipPath id="Cg"><path d="M17.457 28.043H20V31h-2.543zm0 0"/></clipPath><clipPath id="Ch"><path d="M17.457 28.043h3v3h-3zm0 0"/></clipPath><clipPath id="Ci"><path d="M16.48 29.46H19V32h-2.52zm0 0"/></clipPath><clipPath id="Cj"><path d="M16.48 29.46h3v3h-3zm0 0"/></clipPath><clipPath id="Ck"><path d="M17 31.082h2.8V34H17zm0 0"/></clipPath><clipPath id="Cl"><path d="M16.8 31.082h3v3h-3zm0 0"/></clipPath><clipPath ><path d="M17.086 33.004H20V36h-2.914zm0 0"/></clipPath><clipPath ><path d="M17.086 33.004h3v3h-3zm0 0"/></clipPath><clipPath id="Co"><path d="M19 35.223h2.63V38H19zm0 0"/></clipPath><clipPath id="Cp"><path d="M18.63 35.223h3v3h-3zm0 0"/></clipPath><clipPath id="Cq"><path d="M21 38h2.6v2.754H21zm0 0"/></clipPath><clipPath id="Cr"><path d="M20.6 37.754h3v3h-3zm0 0"/></clipPath><clipPath id="Cs"><path d="M23.04 39H26v2.72h-2.96zm0 0"/></clipPath><clipPath id="Ct"><path d="M23.04 38.72h3v3h-3zm0 0"/></clipPath><clipPath id="Cu"><path d="M27 39.25h2.543V42H27zm0 0"/></clipPath><clipPath id="Cv"><path d="M26.543 39.25h3v3h-3zm0 0"/></clipPath><clipPath id="Cw"><path d="M31.047 42H34v2.988h-2.953zm0 0"/></clipPath><clipPath id="Cx"><path d="M31.047 41.988h3v3h-3zm0 0"/></clipPath><clipPath id="Cy"><path d="M35.012 47H38v2.773h-2.988zm0 0"/></clipPath><clipPath id="Cz"><path d="M35.012 46.773h3v3h-3zm0 0"/></clipPath><clipPath id="DA"><path d="M39 50.313h2.82V53H39zm0 0"/></clipPath><clipPath id="DB"><path d="M38.82 50.313h3v3h-3zm0 0"/></clipPath><clipPath id="DC"><path d="M43.066 52.488H46V55h-2.934zm0 0"/></clipPath><clipPath id="DD"><path d="M43.066 52.488h3v3h-3zm0 0"/></clipPath><clipPath id="DE"><path d="M48 54h2.73v2.816H48zm0 0"/></clipPath><clipPath id="DF"><path d="M47.73 53.816h3v3h-3zm0 0"/></clipPath><clipPath id="DG"><path d="M52 55.16h2.898V58H52zm0 0"/></clipPath><clipPath id="DH"><path d="M51.898 55.16h3v3h-3zm0 0"/></clipPath><clipPath id="DI"><path d="M54.438 56.438H57V59h-2.562zm0 0"/></clipPath><clipPath id="DJ"><path d="M54.438 56.438h3v3h-3zm0 0"/></clipPath><clipPath id="DK"><path d="M55.164 57.23H58V60h-2.836zm0 0"/></clipPath><clipPath id="DL"><path d="M55.164 57.23h3v3h-3zm0 0"/></clipPath><clipPath id="DM"><path d="M55 58h2.55v2.793H55zm0 0"/></clipPath><clipPath id="DN"><path d="M54.55 57.793h3v3h-3zm0 0"/></clipPath><clipPath id="DO"><path d="M53.2 58H56v2.578h-2.8zm0 0"/></clipPath><clipPath id="DP"><path d="M53.2 57.578h3v3h-3zm0 0"/></clipPath><clipPath id="DQ"><path d="M51.12 56.45H54V59h-2.88zm0 0"/></clipPath><clipPath id="DR"><path d="M51.12 56.45h3v3h-3zm0 0"/></clipPath><clipPath id="DS"><path d="M48 55h2.66v2.918H48zm0 0"/></clipPath><clipPath id="DT"><path d="M47.66 54.918h3v3h-3zm0 0"/></clipPath><clipPath id="DU"><path d="M43.3 53.07H46V56h-2.7zm0 0"/></clipPath><clipPath id="DV"><path d="M43.3 53.07h3v3h-3zm0 0"/></clipPath><clipPath id="DW"><path d="M39.2 51H42v2.62h-2.8zm0 0"/></clipPath><clipPath id="DX"><path d="M39.2 50.62h3v3h-3zm0 0"/></clipPath><clipPath id="DY"><path d="M35.137 48H38v2.902h-2.863zm0 0"/></clipPath><clipPath id="DZ"><path d="M35.137 47.902h3v3h-3zm0 0"/></clipPath><clipPath id="Da"><path d="M32 43h2.938v2.855H32zm0 0"/></clipPath><clipPath id="Db"><path d="M31.938 42.855h3v3h-3zm0 0"/></clipPath><clipPath id="Dc"><path d="M28 39h2.738v2.875H28zm0 0"/></clipPath><clipPath id="Dd"><path d="M27.738 38.875h3v3h-3zm0 0"/></clipPath><clipPath id="De"><path d="M25 35.25h2.504V38H25zm0 0"/></clipPath><clipPath id="Df"><path d="M24.504 35.25h3v3h-3zm0 0"/></clipPath><clipPath id="Dg"><path d="M22 34.328h2.93V37H22zm0 0"/></clipPath><clipPath id="Dh"><path d="M21.93 34.328h3v3h-3zm0 0"/></clipPath><clipPath id="Di"><path d="M20.348 35H23v2.543h-2.652zm0 0"/></clipPath><clipPath id="Dj"><path d="M20.348 34.543h3v3h-3zm0 0"/></clipPath><clipPath id="Dk"><path d="M20 34.207h2.875V37H20zm0 0"/></clipPath><clipPath id="Dl"><path d="M19.875 34.207h3v3h-3zm0 0"/></clipPath><clipPath id="Dm"><path d="M19.367 35H22v2.82h-2.633zm0 0"/></clipPath><clipPath id="Dn"><path d="M19.367 34.82h3v3h-3zm0 0"/></clipPath><clipPath id="Do"><path d="M20 36.4h2.875V39H20zm0 0"/></clipPath><clipPath id="Dp"><path d="M19.875 36.4h3v3h-3zm0 0"/></clipPath><clipPath id="Dq"><path d="M22 39h2.652v2.63H22zm0 0"/></clipPath><clipPath id="Dr"><path d="M21.652 38.63h3v3h-3zm0 0"/></clipPath><clipPath id="Ds"><path d="M24 41.113h2.758V44H24zm0 0"/></clipPath><clipPath id="Dt"><path d="M23.758 41.113h3v3h-3zm0 0"/></clipPath><clipPath id="Du"><path d="M27.13 43H30v2.652h-2.87zm0 0"/></clipPath><clipPath id="Dv"><path d="M27.13 42.652h3v3h-3zm0 0"/></clipPath><clipPath id="Dw"><path d="M31 44.45h2.87V47H31zm0 0"/></clipPath><clipPath id="Dx"><path d="M30.87 44.45h3v3h-3zm0 0"/></clipPath><clipPath id="Dy"><path d="M34.25 47H37v2.762h-2.75zm0 0"/></clipPath><clipPath id="Dz"><path d="M34.25 46.762h3v3h-3zm0 0"/></clipPath><clipPath id="EA"><path d="M38.14 49H41v2.574h-2.86zm0 0"/></clipPath><clipPath id="EB"><path d="M38.14 48.574h3v3h-3zm0 0"/></clipPath><clipPath id="EC"><path d="M42.402 50.383H45V53h-2.598zm0 0"/></clipPath><clipPath id="ED"><path d="M42.402 50.383h3v3h-3zm0 0"/></clipPath><clipPath id="EE"><path d="M47 52h2.703v2.898H47zm0 0"/></clipPath><clipPath id="EF"><path d="M46.703 51.898h3v3h-3zm0 0"/></clipPath><clipPath id="EG"><path d="M50 53.176h2.918V56H50zm0 0"/></clipPath><clipPath id="EH"><path d="M49.918 53.176h3v3h-3zm0 0"/></clipPath><clipPath id="EI"><path d="M51.1 54.27H54V57h-2.9zm0 0"/></clipPath><clipPath id="EJ"><path d="M51.1 54.27h3v3h-3zm0 0"/></clipPath><clipPath id="EK"><path d="M50.37 55H53v2.988h-2.63zm0 0"/></clipPath><clipPath id="EL"><path d="M50.37 54.988h3v3h-3zm0 0"/></clipPath><clipPath id="EM"><path d="M49 55.035h2.9V58H49zm0 0"/></clipPath><clipPath id="EN"><path d="M48.9 55.035h3v3h-3zm0 0"/></clipPath><clipPath id="EO"><path d="M48 54.137h2.55V57H48zm0 0"/></clipPath><clipPath id="EP"><path d="M47.55 54.137h3v3h-3zm0 0"/></clipPath><clipPath id="EQ"><path d="M46.172 53H49v2.55h-2.828zm0 0"/></clipPath><clipPath id="ER"><path d="M46.172 52.55h3v3h-3zm0 0"/></clipPath><clipPath id="ES"><path d="M44.113 51H47v2.8h-2.887zm0 0"/></clipPath><clipPath id="ET"><path d="M44.113 50.8h3v3h-3zm0 0"/></clipPath><clipPath id="EU"><path d="M42 49.06h2.52V52H42zm0 0"/></clipPath><clipPath id="EV"><path d="M41.52 49.06h3v3h-3zm0 0"/></clipPath><clipPath id="EW"><path d="M39 47.46h2.723V50H39zm0 0"/></clipPath><clipPath id="EX"><path d="M38.723 47.46h3v3h-3zm0 0"/></clipPath><clipPath id="EY"><path d="M35.43 45.063H38V48h-2.57zm0 0"/></clipPath><clipPath id="EZ"><path d="M35.43 45.063h3v3h-3zm0 0"/></clipPath><clipPath id="Ea"><path d="M32.332 41H35v2.684h-2.668zm0 0"/></clipPath><clipPath id="Eb"><path d="M32.332 40.684h3v3h-3zm0 0"/></clipPath><clipPath id="Ec"><path d="M29.04 37.2H32V40h-2.96zm0 0"/></clipPath><clipPath id="Ed"><path d="M29.04 37.2h3v3h-3zm0 0"/></clipPath><clipPath id="Ee"><path d="M27 36h2.98v2.598H27zm0 0"/></clipPath><clipPath id="Ef"><path d="M26.98 35.598h3v3h-3zm0 0"/></clipPath><clipPath id="Eg"><path d="M26 37h2.95v2.793H26zm0 0"/></clipPath><clipPath id="Eh"><path d="M25.95 36.793h3v3h-3zm0 0"/></clipPath><clipPath ><path d="M26 38.207h2.918V41H26zm0 0"/></clipPath><clipPath ><path d="M25.918 38.207h3v3h-3zm0 0"/></clipPath><clipPath id="Ek"><path d="M26 39h2.773v2.863H26zm0 0"/></clipPath><clipPath id="El"><path d="M25.773 38.863h3v3h-3zm0 0"/></clipPath><clipPath id="Em"><path d="M25 40h3v2.504h-3zm0 0"/></clipPath><clipPath id="En"><path d="M25 39.504h3v3h-3zm0 0"/></clipPath><clipPath id="Eo"><path d="M25.262 39.25H28V42h-2.738zm0 0"/></clipPath><clipPath id="Ep"><path d="M25.262 39.25h3v3h-3zm0 0"/></clipPath><clipPath id="Eq"><path d="M26 39.188h3V42h-3zm0 0"/></clipPath><clipPath id="Er"><path d="M26 39.188h3v3h-3zm0 0"/></clipPath><clipPath id="Es"><path d="M28 40.035h2.66V43H28zm0 0"/></clipPath><clipPath id="Et"><path d="M27.66 40.035h3v3h-3zm0 0"/></clipPath><clipPath ><path d="M30.262 43.348H33V46h-2.738zm0 0"/></clipPath><clipPath ><path d="M30.262 43.348h3v3h-3zm0 0"/></clipPath><clipPath id="Ew"><path d="M33 47h2.94v2.8H33zm0 0"/></clipPath><clipPath id="Ex"><path d="M32.94 46.8h3v3h-3zm0 0"/></clipPath><clipPath id="Ey"><path d="M36 49.06h2.758V52H36zm0 0"/></clipPath><clipPath id="Ez"><path d="M35.758 49.06h3v3h-3zm0 0"/></clipPath><clipPath id="FA"><path d="M39 50h2.72v2.8H39zm0 0"/></clipPath><clipPath id="FB"><path d="M38.72 49.8h3v3h-3zm0 0"/></clipPath><clipPath id="FC"><path d="M42.06 50H45v2.656h-2.94zm0 0"/></clipPath><clipPath id="FD"><path d="M42.06 49.656h3v3h-3zm0 0"/></clipPath><clipPath id="FE"><path d="M45.148 49.156H48V52h-2.852zm0 0"/></clipPath><clipPath id="FF"><path d="M45.148 49.156h3v3h-3zm0 0"/></clipPath><clipPath id="FG"><path d="M46.46 49.074H49V52h-2.54zm0 0"/></clipPath><clipPath id="FH"><path d="M46.46 49.074h3v3h-3zm0 0"/></clipPath><clipPath id="FI"><path d="M47 49.352h2.723V52H47zm0 0"/></clipPath><clipPath id="FJ"><path d="M46.723 49.352h3v3h-3zm0 0"/></clipPath><clipPath ><path d="M3 25.06h2V27H3zm0 0"/></clipPath><clipPath ><path d="M2.645 25.06H5.06v2.414H2.645zm0 0"/></clipPath><clipPath id="FM"><path d="M5 18.293h2v2.414H5zm0 0"/></clipPath><clipPath id="FN"><path d="M4.8 18.293h2.414v2.414H4.8zm0 0"/></clipPath><clipPath id="FO"><path d="M12.82 13.836h2.414v2.414H12.82zm0 0"/></clipPath><clipPath id="FP"><path d="M17.586 27.977H20v2.414h-2.414zm0 0"/></clipPath><clipPath id="FQ"><path d="M19.156 41h2.414v2h-2.414zm0 0"/></clipPath><clipPath id="FR"><path d="M19.156 40.992h2.414v2.414h-2.414zm0 0"/></clipPath><clipPath id="FS"><path d="M24.383 50h2.414v2h-2.414zm0 0"/></clipPath><clipPath id="FT"><path d="M24.383 49.88h2.414v2.414h-2.414zm0 0"/></clipPath><clipPath id="FU"><path d="M30.68 56.88h2.414v2.414H30.68zm0 0"/></clipPath><clipPath id="FV"><path d="M38.285 61.172H40.7v2.414h-2.414zm0 0"/></clipPath><clipPath id="FW"><path d="M46 64.418h2v2.414h-2zm0 0"/></clipPath><clipPath id="FX"><path d="M45.875 64.418h2.414v2.414h-2.414zm0 0"/></clipPath><clipPath id="FY"><path d="M53.785 65.598H56.2v2.414h-2.414zm0 0"/></clipPath><clipPath id="FZ"><path d="M62.4 65.27h2.414v2.414H62.4zm0 0"/></clipPath><clipPath id="Fa"><path d="M71.094 64.434h2.414v2.414h-2.414zm0 0"/></clipPath><clipPath id="Fb"><path d="M76 63.184h2v2.414h-2zm0 0"/></clipPath><clipPath id="Fc"><path d="M75.94 63.184h2.414v2.414H75.94zm0 0"/></clipPath><clipPath id="Fd"><path d="M73.266 65h2.414v2h-2.414zm0 0"/></clipPath><clipPath id="Fe"><path d="M73.266 64.656h2.414v2.414h-2.414zm0 0"/></clipPath><clipPath id="Ff"><path d="M65.016 65H67v2h-1.984zm0 0"/></clipPath><clipPath id="Fg"><path d="M65.016 64.863h2.414v2.414h-2.414zm0 0"/></clipPath><clipPath id="Fh"><path d="M56.094 65.453h2.414v2.414h-2.414zm0 0"/></clipPath><clipPath id="Fi"><path d="M48.324 64.344h2.414v2.414h-2.414zm0 0"/></clipPath><clipPath id="Fj"><path d="M40.46 62.2h2.414v2.414H40.46zm0 0"/></clipPath><clipPath id="Fk"><path d="M33.1 58.055h2.414V60H33.1zm0 0"/></clipPath><clipPath id="Fl"><path d="M33.1 58.055h2.414v2.414H33.1zm0 0"/></clipPath><clipPath id="Fm"><path d="M26.484 52h2.414v2h-2.414zm0 0"/></clipPath><clipPath id="Fn"><path d="M26.484 51.957h2.414v2.414h-2.414zm0 0"/></clipPath><clipPath id="Fo"><path d="M21 43.457h2v2.414h-2zm0 0"/></clipPath><clipPath id="Fp"><path d="M20.883 43.457h2.414v2.414h-2.414zm0 0"/></clipPath><clipPath id="Fq"><path d="M17.113 31.148h2.414v2.414h-2.414zm0 0"/></clipPath><clipPath id="Fr"><path d="M16 12.277h2v2.414h-2zm0 0"/></clipPath><clipPath id="Fs"><path d="M15.6 12.277h2.418v2.414H15.6zm0 0"/></clipPath><clipPath id="Ft"><path d="M6.62 16.84h2.414v2.414H6.62zm0 0"/></clipPath><clipPath id="Fu"><path d="M3.734 23.7h2.414v2.414H3.734zm0 0"/></clipPath><clipPath id="Fv"><path d="M4 28.465h2v2.414H4zm0 0"/></clipPath><clipPath id="Fw"><path d="M3.72 28.465h2.414v2.414H3.72zm0 0"/></clipPath><clipPath id="Fx"><path d="M4 29.313h2v2.414H4zm0 0"/></clipPath><clipPath id="Fy"><path d="M4 29.313h2.414v2.414H4zm0 0"/></clipPath><clipPath id="Fz"><path d="M4 26.426h2v2.414H4zm0 0"/></clipPath><clipPath id="GA"><path d="M3.852 26.426h2.414v2.414H3.852zm0 0"/></clipPath><clipPath id="GB"><path d="M5.156 20.348H7.57v2.414H5.156zm0 0"/></clipPath><clipPath id="GC"><path d="M12 15.2h1.918v2.414H12zm0 0"/></clipPath><clipPath id="GD"><path d="M11.504 15.2h2.414v2.414h-2.414zm0 0"/></clipPath><clipPath id="GE"><path d="M17.633 24.898h2.414v2.414h-2.414zm0 0"/></clipPath><clipPath ><path d="M18.84 37.684h2.418v2.414H18.84zm0 0"/></clipPath><clipPath id="GG"><path d="M23.1 47h2.414v2H23.1zm0 0"/></clipPath><clipPath id="GH"><path d="M23.1 46.988h2.414v2.414H23.1zm0 0"/></clipPath><clipPath id="GI"><path d="M29 54.473h2v2.414h-2zm0 0"/></clipPath><clipPath id="GJ"><path d="M28.988 54.473h2.414v2.414h-2.414zm0 0"/></clipPath><clipPath id="GK"><path d="M36.125 60h2.414v2h-2.414zm0 0"/></clipPath><clipPath id="GL"><path d="M36.125 59.78h2.414v2.414h-2.414zm0 0"/></clipPath><clipPath id="GM"><path d="M44 63.133h2v2.414h-2zm0 0"/></clipPath><clipPath id="GN"><path d="M43.723 63.133h2.414v2.414h-2.414zm0 0"/></clipPath><clipPath id="GO"><path d="M52 65.12h2v2.414h-2zm0 0"/></clipPath><clipPath id="GP"><path d="M51.7 65.12h2.414v2.414H51.7zm0 0"/></clipPath><clipPath id="GQ"><path d="M60.07 65.203H62v2.414h-1.93zm0 0"/></clipPath><clipPath id="GR"><path d="M60.07 65.203h2.414v2.414H60.07zm0 0"/></clipPath><clipPath id="GS"><path d="M69.063 65H71v1.996h-1.937zm0 0"/></clipPath><clipPath id="GT"><path d="M69.063 64.582h2.414v2.414h-2.414zm0 0"/></clipPath><clipPath id="GU"><path d="M76 63.184h2v2.414h-2zm0 0"/></clipPath><clipPath id="GV"><path d="M75.94 63.184h2.414v2.414H75.94zm0 0"/></clipPath><path id="GW" d="M76.34 66.695a1 1 0 1 0 0-2 1 1 0 1 0 0 2zm0 0"/><path id="GX" d="M51.273 67.707a1 1 0 0 0 .707-.293c.188-.187.293-.445.293-.707s-.105-.52-.293-.7-.44-.3-.707-.3a.99.99 0 0 0-.707.29 1.01 1.01 0 0 0-.293.71c0 .265.105.52.293.707a1 1 0 0 0 .707.293zm0 0"/><path id="GY" d="M11.074 38.7a1 1 0 0 0 1-1c0-.262-.105-.52-.293-.707a1 1 0 0 0-1.414 0 1.01 1.01 0 0 0-.293.707 1 1 0 0 0 1 1zm0 0"/><path id="GZ" d="M13.254 43.22c.262 0 .52-.105.707-.293a1 1 0 0 0 0-1.414c-.187-.187-.445-.293-.707-.293a1 1 0 1 0 0 2zm0 0"/><path id="Ga" d="M43.414 54.785a1 1 0 1 0 0-2c-.262 0-.52.105-.707.293a1 1 0 0 0 0 1.414c.188.188.445.293.707.293zm0 0"/><path id="Gb" d="M32.633 45.617a1 1 0 0 0 .707-.293c.188-.187.293-.445.293-.707a1 1 0 1 0-2 0c0 .262.105.52.293.707a1 1 0 0 0 .707.293zm0 0"/><path id="Gc" d="M55.105 57.7c.266 0 .52-.102.707-.293a1 1 0 0 0 .293-.707c0-.262-.105-.52-.293-.707a1 1 0 0 0-1.414 0 1.01 1.01 0 0 0-.293.707 1 1 0 0 0 .293.707c.188.2.44.293.707.293zm0 0"/><path id="Gd" d="M18.29 33.582a1 1 0 0 0 .707-.293c.188-.187.293-.445.293-.707a1.01 1.01 0 0 0-.293-.711c-.187-.187-.44-.29-.707-.29s-.52.102-.707.29a1.01 1.01 0 0 0-.293.711c0 .262.105.52.293.707a1 1 0 0 0 .707.293zm0 0"/><path id="Ge" d="M24.54 41.22a1.01 1.01 0 0 0 .711-.293.99.99 0 0 0 .29-.707.99.99 0 0 0-.29-.707 1.01 1.01 0 0 0-.711-.293c-.262 0-.52.105-.707.293a1 1 0 0 0 0 1.414c.188.188.445.293.707.293zm0 0"/><path id="Gf" d="M28.63 45.152c.262 0 .52-.105.707-.293a1 1 0 0 0 0-1.414c-.187-.187-.445-.293-.707-.293a1 1 0 0 0-.707.293c-.19.188-.293.44-.293.707s.102.52.293.707a1 1 0 0 0 .707.293zm0 0"/><path id="Gg" d="M26.5 42.004a1 1 0 0 0 .707-.293c.19-.187.293-.44.293-.707s-.102-.52-.293-.707a1 1 0 0 0-.707-.293c-.262 0-.52.105-.707.293a1 1 0 0 0 0 1.414c.188.188.445.293.707.293zm0 0"/><path id="Gh" d="M37.258 51.56c.262 0 .52-.105.707-.293a1 1 0 0 0 .293-.707c0-.262-.105-.52-.293-.707s-.445-.293-.707-.293a1 1 0 0 0-.707.293c-.187.188-.293.445-.293.707a1 1 0 0 0 1 1zm0 0"/><path id="Gi" d="M6.008 20.207c.188 0 .367-.074.5-.207s.207-.312.207-.5-.074-.367-.207-.5-.312-.207-.5-.207-.367.074-.5.207-.207.313-.207.5.074.367.207.5.313.207.5.207zm0 0"/><path id="Gj" d="M6.008 20.207c.187 0 .367-.074.5-.207s.207-.312.207-.5-.074-.367-.207-.5-.312-.207-.5-.207-.367.074-.5.207-.207.313-.207.5.074.367.207.5.313.207.5.207zm0 0"/></defs><path d="M7.708 52.56l4.314-13.54L28.07 30.1l9.537 28.295L40.75 84.44l10.46 17.783 12.6 14.007 15.217 8.59 15.208 6.495 15.808 2.36 17.26-.656 17.377-1.673 9.7-2.5-5.355 2.947-16.508.415-17.853 1.2-15.548-2.22-15.734-4.292-14.712-8.294L55.412 106.4l-11.21-17.008L36.66 64.76 33.657 27l-17.993 9.13-5.777 13.71-.032 9.55.56 1.697-.296-5.777L12.73 43.15l12.702-10.28L37.7 52.257l2.415 25.583 8.505 18.62 11.802 14.976 14.28 10.625 15.204 6.708 15.948 3.978 16.77.164 17.993-1.24 13.767-2.797-1.62 2.61-34.25 3.542-15.91-1.517-15.217-3.862-14.774-7.02-13.703-10.896-11.226-15.258-8.45-20.27-3.762-33.14-16.594-11.63.352.734 2.533 23.607.4 19.7 4.363 9.044 5.034 4.306 4.612 1.727 4.33-.3 4.642-1.805 5.243-2.705 6.05-2.83 7.544-.374 8.512 5.103 8.935 7.356 10.24 6.63 19.07 9.84 5.943 3.862 2.14 3.378-.657 1.79-1.38.156-1.985-1.697-5.37-2.337-10.125-3.096-12.427-5.87-11.357-8.628L65.3 89.308l-8.104-10.772-8.34-6.543-5.573-3.362-3.556-.28-1.62-1.313-.26-4.126-.874-2.047 2.305 3.782 3.846 9.48 4.917 8.404 6.635 6.503 7.624 4.987 9.084 4.102 10.474 3.916 11.334 2.814 10.045 3.72 7.794 3.206 9.73 5.277 1.04 1.42-3.32.62-7.348-.414-9.085-2.24-9.13-4.34-8.878-7.383-9.99-9.38-10.06-7.832-9.497-6.003-6.363-7.528-4.203-8.424-5.262-5.283-3.502-1.985.704 1.336 1.415 6.3 2.205 5.408 3.682 3.674 10.34 8.833 6.988 4.986L80.323 98.4l10.28 6.584 9.945 4.7 9.71 3.846 8.435 2.956 5.534 1.648.525 1.71-4.55.86-7.223-.555-8.6-1.88-10.295-4.026-11.646-5.783-10.2-7.48-8.104-10.138-8.99-8.204-6.863-10.7-4.91-10.886-5.417-1.947L36 61.934l1.21 7.09 3.088 4.443 3.962 5.062 4.862 1.93 7.012 1.06 9.012 5.478 7.934 9.575 7.624 7.084 8.497 4.354 9.332 2.658 8.34 2.69 5.082 2.555 1.455 1.587-1.227 1.127-2.705-.43-4.158-2.26-15.632-6.763-8.224-4.903-8.13-5.442-6.403-10.1-8.404-7.964-6.47-7.253-5.15-1.845-3.166.43-.946-.673-1.017 1.227 1.017 3.142 7.77 9.45L64.8 91.917l6.764 4.628 7.784 3.628 8.528 3.622 8.604 3.034 6.434 2.555 2.38 2.19-1.477 1.44-2.92.094-2.722-1.797-2.76-3.174-4.122-3.502-5.19-3.485-5.597-3.198-6.59-4.798-6.2-8.765-6.6-6.987-4.122-3.2-2.06 2.39-.06 2.83-.3 1.312-1.547 1.28.524-.508 1.477-.124 3.322 1.696 10.565 13.553 5.635 4.503 5.923 1.5 6.684-.304 6.203-1 2.627-.164.524.554" stroke-width=".5" stroke-linecap="square" stroke-opacity=".7" class="O P Q T"/><g transform="scale(2.001023)"><g clip-path="url(#A)" class="R"><use xlink:href="#GW"/></g><g clip-path="url(#B)" class="Q S O P"><use xlink:href="#GW"/></g><g clip-path="url(#C)" class="R"><path d="M68.645 67.512a1 1 0 1 0 0-2 1 1 0 1 0 0 2zm0 0"/></g><g clip-path="url(#D)" class="Q S O P"><path d="M68.645 67.512a1 1 0 1 0 0-2 1 1 0 1 0 0 2zm0 0"/></g><g clip-path="url(#E)" class="R"><path d="M59.223 68.465a1 1 0 1 0 0-2 1 1 0 1 0 0 2zm0 0"/></g><g clip-path="url(#F)" class="Q S O P"><path d="M59.223 68.465a1 1 0 1 0 0-2 1 1 0 1 0 0 2zm0 0"/></g><g clip-path="url(#G)" class="R"><use xlink:href="#GX"/></g><g clip-path="url(#H)" class="Q S O P"><use xlink:href="#GX"/></g><g clip-path="url(#I)" class="R"><path d="M43.668 65.777a1 1 0 1 0 0-2 1 1 0 1 0 0 2zm0 0"/></g><g clip-path="url(#J)" class="Q S O P"><path d="M43.668 65.777a1 1 0 1 0 0-2 1 1 0 1 0 0 2zm0 0"/></g><g clip-path="url(#K)" class="R"><path d="M36.285 62.27a1 1 0 1 0 0-2 1 1 0 1 0 0 2zm0 0"/></g><g clip-path="url(#L)" class="Q S O P"><path d="M36.285 62.27a1 1 0 1 0 0-2 1 1 0 1 0 0 2zm0 0"/></g><g clip-path="url(#M)" class="R"><path d="M29.438 56.824a1 1 0 1 0 0-2 1 1 0 1 0 0 2zm0 0"/></g><g clip-path="url(#N)" class="Q S O P"><path d="M29.438 56.824a1 1 0 1 0 0-2 1 1 0 1 0 0 2zm0 0"/></g><g clip-path="url(#O)" class="R"><path d="M23.828 49.2a1 1 0 1 0 0-2 1 1 0 1 0 0 2zm0 0"/></g><g clip-path="url(#P)" class="Q S O P"><path d="M23.828 49.2a1 1 0 1 0 0-2 1 1 0 1 0 0 2zm0 0"/></g><g clip-path="url(#Q)" class="R"><path d="M19.605 39.07a1 1 0 1 0 0-2 1 1 0 1 0 0 2zm0 0"/></g><g clip-path="url(#R)" class="Q S O P"><path d="M19.605 39.07a1 1 0 1 0 0-2 1 1 0 1 0 0 2zm0 0"/></g><g clip-path="url(#S)" class="R"><path d="M17.727 22.508a1 1 0 1 0 0-2 1 1 0 1 0 0 2zm0 0"/></g><g clip-path="url(#T)" class="Q S O P"><path d="M17.727 22.508a1 1 0 1 0 0-2 1 1 0 1 0 0 2zm0 0"/></g><g clip-path="url(#U)" class="R"><path d="M9.434 16.695a1 1 0 1 0 0-2 1 1 0 1 0 0 2zm0 0"/></g><g clip-path="url(#V)" class="Q S O P"><path d="M9.434 16.695a1 1 0 1 0 0-2 1 1 0 1 0 0 2zm0 0"/></g><g clip-path="url(#W)" class="R"><path d="M9.6 17.063a1 1 0 1 0 0-2 1 1 0 1 0 0 2zm0 0"/></g><g clip-path="url(#X)" class="Q S O P"><path d="M9.6 17.063a1 1 0 1 0 0-2 1 1 0 1 0 0 2zm0 0"/></g><g clip-path="url(#Y)" class="R"><path d="M10.875 28.86a1 1 0 1 0 0-2 1 1 0 1 0 0 2zm0 0"/></g><g clip-path="url(#Z)" class="Q S O P"><path d="M10.875 28.86a1 1 0 1 0 0-2 1 1 0 1 0 0 2zm0 0"/></g><g clip-path="url(#a)" class="R"><use xlink:href="#GY"/></g><g clip-path="url(#b)" class="Q S O P"><use xlink:href="#GY"/></g><g clip-path="url(#c)" class="R"><use xlink:href="#GZ"/></g><g clip-path="url(#d)" class="Q S O P"><use xlink:href="#GZ"/></g><g clip-path="url(#e)" class="R"><path d="M15.77 45.37a1 1 0 1 0 0-2 1 1 0 1 0 0 2zm0 0"/></g><g clip-path="url(#f)" class="Q S O P"><path d="M15.77 45.37a1 1 0 1 0 0-2 1 1 0 1 0 0 2zm0 0"/></g><g clip-path="url(#g)" class="R"><path d="M18.074 46.234a1 1 0 1 0 0-2 1 1 0 1 0 0 2zm0 0"/></g><g clip-path="url(#h)" class="Q S O P"><path d="M18.074 46.234a1 1 0 1 0 0-2 1 1 0 1 0 0 2zm0 0"/></g><g clip-path="url(#i)" class="R"><path d="M20.238 46.1a1 1 0 1 0 0-2 1 1 0 1 0 0 2zm0 0"/></g><g clip-path="url(#j)" class="Q S O P"><path d="M20.238 46.1a1 1 0 1 0 0-2 1 1 0 1 0 0 2zm0 0"/></g><g clip-path="url(#k)" class="R"><path d="M22.56 45.188a1 1 0 1 0 0-2 1 1 0 1 0 0 2zm0 0"/></g><g clip-path="url(#l)" class="Q S O P"><path d="M22.56 45.188a1 1 0 1 0 0-2 1 1 0 1 0 0 2zm0 0"/></g><g clip-path="url(#o)" class="R"><path d="M28.203 42.422a1 1 0 1 0 0-2 1 1 0 1 0 0 2zm0 0"/></g><g clip-path="url(#p)" class="Q S O P"><path d="M28.203 42.422a1 1 0 1 0 0-2 1 1 0 1 0 0 2zm0 0"/></g><g clip-path="url(#q)" class="R"><path d="M31.973 42.234a1 1 0 1 0 0-2 1 1 0 1 0 0 2zm0 0"/></g><g clip-path="url(#r)" class="Q S O P"><path d="M31.973 42.234a1 1 0 1 0 0-2 1 1 0 1 0 0 2zm0 0"/></g><g clip-path="url(#s)" class="R"><path d="M36.227 44.785a1 1 0 0 0 1-1c0-.262-.105-.52-.293-.707a1 1 0 0 0-1.414 0 1.01 1.01 0 0 0-.293.707 1 1 0 0 0 1 1zm0 0"/></g><g clip-path="url(#t)" class="Q S O P"><path d="M36.227 44.785a1 1 0 0 0 1-1c0-.262-.105-.52-.293-.707a1 1 0 0 0-1.414 0 1.01 1.01 0 0 0-.293.707 1 1 0 0 0 1 1zm0 0"/></g><g clip-path="url(#u)" class="R"><path d="M40.7 48.46a1 1 0 1 0 0-2 1 1 0 1 0 0 2zm0 0"/></g><g clip-path="url(#v)" class="Q S O P"><path d="M40.7 48.46a1 1 0 1 0 0-2 1 1 0 1 0 0 2zm0 0"/></g><g clip-path="url(#w)" class="R"><path d="M45.8 51.773a1 1 0 1 0 0-2 1 1 0 1 0 0 2zm0 0"/></g><g clip-path="url(#x)" class="Q S O P"><path d="M45.8 51.773a1 1 0 1 0 0-2 1 1 0 1 0 0 2zm0 0"/></g><g clip-path="url(#y)" class="R"><path d="M50.867 54.406a1 1 0 1 0 0-2 1 1 0 1 0 0 2zm0 0"/></g><g clip-path="url(#z)" class="Q S O P"><path d="M50.867 54.406a1 1 0 1 0 0-2 1 1 0 1 0 0 2zm0 0"/></g><g clip-path="url(#AA)" class="R"><path d="M55.34 56.7c.262 0 .52-.105.707-.293a1 1 0 0 0 0-1.414c-.187-.187-.445-.293-.707-.293a1 1 0 1 0 0 2zm0 0"/></g><g clip-path="url(#AB)" class="Q S O P"><path d="M55.34 56.7c.262 0 .52-.105.707-.293a1 1 0 0 0 0-1.414c-.187-.187-.445-.293-.707-.293a1 1 0 1 0 0 2zm0 0"/></g><g clip-path="url(#AC)" class="R"><path d="M58.3 58.62a1 1 0 1 0 0-2 1 1 0 1 0 0 2zm0 0"/></g><g clip-path="url(#AD)" class="Q S O P"><path d="M58.3 58.62a1 1 0 1 0 0-2 1 1 0 1 0 0 2zm0 0"/></g><g clip-path="url(#AG)" class="R"><path d="M59.05 61.203a1 1 0 1 0 0-2 1 1 0 1 0 0 2zm0 0"/></g><g clip-path="url(#AH)" class="Q S O P"><path d="M59.05 61.203a1 1 0 1 0 0-2 1 1 0 1 0 0 2zm0 0"/></g><g clip-path="url(#AK)" class="R"><path d="M57.367 60.434a1 1 0 0 0 1-1c0-.262-.105-.52-.293-.707a1 1 0 0 0-1.414 0 1.01 1.01 0 0 0-.293.707 1 1 0 0 0 1 1zm0 0"/></g><g clip-path="url(#AL)" class="Q S O P"><path d="M57.367 60.434a1 1 0 0 0 1-1c0-.262-.105-.52-.293-.707a1 1 0 0 0-1.414 0 1.01 1.01 0 0 0-.293.707 1 1 0 0 0 1 1zm0 0"/></g><g clip-path="url(#AM)" class="R"><path d="M54.684 59.266a1 1 0 1 0 0-2 1 1 0 1 0 0 2zm0 0"/></g><g clip-path="url(#AN)" class="Q S O P"><path d="M54.684 59.266a1 1 0 1 0 0-2 1 1 0 1 0 0 2zm0 0"/></g><g clip-path="url(#AO)" class="R"><path d="M49.625 57.72a1 1 0 0 0 1-1c0-.262-.105-.52-.293-.707a1 1 0 0 0-1.414 0 1.01 1.01 0 0 0-.293.707 1 1 0 0 0 1 1zm0 0"/></g><g clip-path="url(#AP)" class="Q S O P"><path d="M49.625 57.72a1 1 0 0 0 1-1c0-.262-.105-.52-.293-.707a1 1 0 0 0-1.414 0 1.01 1.01 0 0 0-.293.707 1 1 0 0 0 1 1zm0 0"/></g><g clip-path="url(#AQ)" class="R"><use xlink:href="#Ga"/></g><g clip-path="url(#AR)" class="Q S O P"><use xlink:href="#Ga"/></g><g clip-path="url(#AS)" class="R"><path d="M37.738 50.473a1 1 0 0 0 1-1c0-.262-.105-.52-.293-.707a1 1 0 0 0-1.414 0 1.01 1.01 0 0 0-.293.707 1 1 0 0 0 1 1zm0 0"/></g><g clip-path="url(#AT)" class="Q S O P"><path d="M37.738 50.473a1 1 0 0 0 1-1c0-.262-.105-.52-.293-.707a1 1 0 0 0-1.414 0 1.01 1.01 0 0 0-.293.707 1 1 0 0 0 1 1zm0 0"/></g><g clip-path="url(#AU)" class="R"><use xlink:href="#Gb"/></g><g clip-path="url(#AV)" class="Q S O P"><use xlink:href="#Gb"/></g><g clip-path="url(#AW)" class="R"><path d="M28.582 40.234a1 1 0 1 0 0-2c-.262 0-.52.105-.707.293a1 1 0 0 0 0 1.414c.188.188.445.293.707.293zm0 0"/></g><g clip-path="url(#AX)" class="Q S O P"><path d="M28.582 40.234a1 1 0 1 0 0-2c-.262 0-.52.105-.707.293a1 1 0 0 0 0 1.414c.188.188.445.293.707.293zm0 0"/></g><g clip-path="url(#AY)" class="R"><path d="M24.414 36.965a1 1 0 1 0 0-2 1 1 0 1 0 0 2zm0 0"/></g><g clip-path="url(#AZ)" class="Q S O P"><path d="M24.414 36.965a1 1 0 1 0 0-2 1 1 0 1 0 0 2zm0 0"/></g><g clip-path="url(#Aa)" class="R"><path d="M21.63 35.285a1 1 0 1 0 0-2 1 1 0 1 0 0 2zm0 0"/></g><g clip-path="url(#Ab)" class="Q S O P"><path d="M21.63 35.285a1 1 0 1 0 0-2 1 1 0 1 0 0 2zm0 0"/></g><g clip-path="url(#Ac)" class="R"><path d="M19.852 35.145a1 1 0 1 0 0-2 1 1 0 1 0 0 2zm0 0"/></g><g clip-path="url(#Ad)" class="Q S O P"><path d="M19.852 35.145a1 1 0 1 0 0-2 1 1 0 1 0 0 2zm0 0"/></g><g clip-path="url(#Ae)" class="R"><path d="M19.043 34.488a1 1 0 0 0 .707-.293c.188-.187.293-.445.293-.707a1 1 0 1 0-2 0c0 .262.105.52.293.707a1 1 0 0 0 .707.293zm0 0"/></g><g clip-path="url(#Af)" class="Q S O P"><path d="M19.043 34.488a1 1 0 0 0 .707-.293c.188-.187.293-.445.293-.707a1 1 0 1 0-2 0c0 .262.105.52.293.707a1 1 0 0 0 .707.293zm0 0"/></g><g clip-path="url(#Ag)" class="R"><path d="M18.914 32.426a1 1 0 0 0 1-1c0-.262-.105-.52-.293-.707a1 1 0 0 0-1.414 0 1.01 1.01 0 0 0-.293.707 1 1 0 0 0 1 1zm0 0"/></g><g clip-path="url(#Ah)" class="Q S O P"><path d="M18.914 32.426a1 1 0 0 0 1-1c0-.262-.105-.52-.293-.707a1 1 0 0 0-1.414 0 1.01 1.01 0 0 0-.293.707 1 1 0 0 0 1 1zm0 0"/></g><g clip-path="url(#Ao)" class="R"><path d="M24.008 42.23a1 1 0 1 0 0-2 1 1 0 1 0 0 2zm0 0"/></g><g clip-path="url(#Ap)" class="Q S O P"><path d="M24.008 42.23a1 1 0 1 0 0-2 1 1 0 1 0 0 2zm0 0"/></g><g clip-path="url(#Aq)" class="R"><path d="M27.324 45.48a1 1 0 1 0 0-2 1 1 0 1 0 0 2zm0 0"/></g><g clip-path="url(#Ar)" class="Q S O P"><path d="M27.324 45.48a1 1 0 1 0 0-2 1 1 0 1 0 0 2zm0 0"/></g><g clip-path="url(#As)" class="R"><path d="M31.133 47.973a1 1 0 1 0 0-2 1 1 0 1 0 0 2zm0 0"/></g><g clip-path="url(#At)" class="Q S O P"><path d="M31.133 47.973a1 1 0 1 0 0-2 1 1 0 1 0 0 2zm0 0"/></g><g clip-path="url(#Au)" class="R"><path d="M35.672 50.023a1 1 0 1 0 0-2c-.262 0-.52.105-.707.293a1 1 0 0 0 0 1.414c.188.188.445.293.707.293zm0 0"/></g><g clip-path="url(#Av)" class="Q S O P"><path d="M35.672 50.023a1 1 0 1 0 0-2c-.262 0-.52.105-.707.293a1 1 0 0 0 0 1.414c.188.188.445.293.707.293zm0 0"/></g><g clip-path="url(#Aw)" class="R"><path d="M40.906 51.98a1 1 0 1 0 0-2 1 1 0 1 0 0 2zm0 0"/></g><g clip-path="url(#Ax)" class="Q S O P"><path d="M40.906 51.98a1 1 0 1 0 0-2 1 1 0 1 0 0 2zm0 0"/></g><g clip-path="url(#Ay)" class="R"><path d="M46.57 53.387a1 1 0 1 0 0-2 1 1 0 1 0 0 2zm0 0"/></g><g clip-path="url(#Az)" class="Q S O P"><path d="M46.57 53.387a1 1 0 1 0 0-2 1 1 0 1 0 0 2zm0 0"/></g><g clip-path="url(#BC)" class="R"><path d="M55.484 56.848a1 1 0 1 0 0-2 1 1 0 1 0 0 2zm0 0"/></g><g clip-path="url(#BD)" class="Q S O P"><path d="M55.484 56.848a1 1 0 1 0 0-2 1 1 0 1 0 0 2zm0 0"/></g><g clip-path="url(#BE)" class="R"><path d="M58.426 58.477c.262 0 .52-.105.707-.293a1 1 0 0 0 0-1.414c-.187-.187-.445-.293-.707-.293a1 1 0 1 0 0 2zm0 0"/></g><g clip-path="url(#BF)" class="Q S O P"><path d="M58.426 58.477c.262 0 .52-.105.707-.293a1 1 0 0 0 0-1.414c-.187-.187-.445-.293-.707-.293a1 1 0 1 0 0 2zm0 0"/></g><g clip-path="url(#BG)" class="R"><path d="M60.348 59.484a1 1 0 1 0 0-2 1 1 0 1 0 0 2zm0 0"/></g><g clip-path="url(#BH)" class="Q S O P"><path d="M60.348 59.484a1 1 0 1 0 0-2 1 1 0 1 0 0 2zm0 0"/></g><g clip-path="url(#BI)" class="R"><path d="M60.867 60.195a1 1 0 1 0 0-2 1 1 0 1 0 0 2zm0 0"/></g><g clip-path="url(#BJ)" class="Q S O P"><path d="M60.867 60.195a1 1 0 1 0 0-2 1 1 0 1 0 0 2zm0 0"/></g><g clip-path="url(#BK)" class="R"><path d="M59.207 60.504a1 1 0 1 0 0-2 1 1 0 1 0 0 2zm0 0"/></g><g clip-path="url(#BL)" class="Q S O P"><path d="M59.207 60.504a1 1 0 1 0 0-2 1 1 0 1 0 0 2zm0 0"/></g><g clip-path="url(#BM)" class="R"><path d="M55.535 60.297a1 1 0 1 0 0-2 1 1 0 1 0 0 2zm0 0"/></g><g clip-path="url(#BN)" class="Q S O P"><path d="M55.535 60.297a1 1 0 1 0 0-2 1 1 0 1 0 0 2zm0 0"/></g><g clip-path="url(#BO)" class="R"><path d="M50.996 59.176a1 1 0 1 0 0-2 1 1 0 1 0 0 2zm0 0"/></g><g clip-path="url(#BP)" class="Q S O P"><path d="M50.996 59.176a1 1 0 1 0 0-2 1 1 0 1 0 0 2zm0 0"/></g><g clip-path="url(#BQ)" class="R"><path d="M46.434 57.008a1 1 0 1 0 0-2 1 1 0 1 0 0 2zm0 0"/></g><g clip-path="url(#BR)" class="Q S O P"><path d="M46.434 57.008a1 1 0 1 0 0-2 1 1 0 1 0 0 2zm0 0"/></g><g clip-path="url(#BS)" class="R"><path d="M41.996 53.316a1 1 0 1 0 0-2 1 1 0 1 0 0 2zm0 0"/></g><g clip-path="url(#BT)" class="Q S O P"><path d="M41.996 53.316a1 1 0 1 0 0-2 1 1 0 1 0 0 2zm0 0"/></g><g clip-path="url(#BU)" class="R"><path d="M37.004 48.63c.262 0 .52-.105.707-.293a1 1 0 0 0 0-1.414c-.187-.187-.445-.293-.707-.293a1 1 0 1 0 0 2zm0 0"/></g><g clip-path="url(#BV)" class="Q S O P"><path d="M37.004 48.63c.262 0 .52-.105.707-.293a1 1 0 0 0 0-1.414c-.187-.187-.445-.293-.707-.293a1 1 0 1 0 0 2zm0 0"/></g><g clip-path="url(#BW)" class="R"><path d="M31.977 44.715a1 1 0 1 0 0-2 1 1 0 1 0 0 2zm0 0"/></g><g clip-path="url(#BX)" class="Q S O P"><path d="M31.977 44.715a1 1 0 1 0 0-2 1 1 0 1 0 0 2zm0 0"/></g><g clip-path="url(#BY)" class="R"><path d="M27.23 41.715a1 1 0 1 0 0-2c-.262 0-.52.105-.707.293a1 1 0 0 0 0 1.414c.188.188.445.293.707.293zm0 0"/></g><g clip-path="url(#BZ)" class="Q S O P"><path d="M27.23 41.715a1 1 0 1 0 0-2c-.262 0-.52.105-.707.293a1 1 0 0 0 0 1.414c.188.188.445.293.707.293zm0 0"/></g><g clip-path="url(#Ba)" class="R"><path d="M24.05 37.953a1 1 0 1 0 0-2 1 1 0 1 0 0 2zm0 0"/></g><g clip-path="url(#Bb)" class="Q S O P"><path d="M24.05 37.953a1 1 0 1 0 0-2 1 1 0 1 0 0 2zm0 0"/></g><g clip-path="url(#Bc)" class="R"><path d="M21.96 33.742a1 1 0 1 0 0-2 1 1 0 1 0 0 2zm0 0"/></g><g clip-path="url(#Bd)" class="Q S O P"><path d="M21.96 33.742a1 1 0 1 0 0-2 1 1 0 1 0 0 2zm0 0"/></g><g clip-path="url(#Bi)" class="R"><path d="M17.934 30.777a1 1 0 0 0 1-1c0-.262-.105-.52-.293-.707a1 1 0 0 0-1.414 0 1.01 1.01 0 0 0-.293.707 1 1 0 0 0 1 1zm0 0"/></g><g clip-path="url(#Bj)" class="Q S O P"><path d="M17.934 30.777a1 1 0 0 0 1-1c0-.262-.105-.52-.293-.707a1 1 0 0 0-1.414 0 1.01 1.01 0 0 0-.293.707 1 1 0 0 0 1 1zm0 0"/></g><g clip-path="url(#Bk)" class="R"><path d="M18.64 33.926a1 1 0 1 0 0-2 1 1 0 1 0 0 2zm0 0"/></g><g clip-path="url(#Bl)" class="Q S O P"><path d="M18.64 33.926a1 1 0 1 0 0-2 1 1 0 1 0 0 2zm0 0"/></g><g clip-path="url(#Bm)" class="R"><path d="M19.742 36.63a1 1 0 1 0 0-2 1 1 0 1 0 0 2zm0 0"/></g><g clip-path="url(#Bn)" class="Q S O P"><path d="M19.742 36.63a1 1 0 1 0 0-2 1 1 0 1 0 0 2zm0 0"/></g><g clip-path="url(#Bo)" class="R"><path d="M21.582 38.465a1 1 0 0 0 .707-.293c.188-.187.293-.445.293-.707a1 1 0 1 0-2 0c0 .262.105.52.293.707a1 1 0 0 0 .707.293zm0 0"/></g><g clip-path="url(#Bp)" class="Q S O P"><path d="M21.582 38.465a1 1 0 0 0 .707-.293c.188-.187.293-.445.293-.707a1 1 0 1 0-2 0c0 .262.105.52.293.707a1 1 0 0 0 .707.293zm0 0"/></g><g clip-path="url(#Bq)" class="R"><path d="M23.832 40.414a1 1 0 1 0 0-2 1 1 0 1 0 0 2zm0 0"/></g><g clip-path="url(#Br)" class="Q S O P"><path d="M23.832 40.414a1 1 0 1 0 0-2 1 1 0 1 0 0 2zm0 0"/></g><g clip-path="url(#Bs)" class="R"><path d="M26.75 42.88a1 1 0 0 0 .707-.293c.188-.187.293-.445.293-.707a1 1 0 1 0-2 0c0 .262.105.52.293.707a1 1 0 0 0 .707.293zm0 0"/></g><g clip-path="url(#Bt)" class="Q S O P"><path d="M26.75 42.88a1 1 0 0 0 .707-.293c.188-.187.293-.445.293-.707a1 1 0 1 0-2 0c0 .262.105.52.293.707a1 1 0 0 0 .707.293zm0 0"/></g><g clip-path="url(#Bu)" class="R"><path d="M30.242 45.37a1 1 0 1 0 0-2 1 1 0 1 0 0 2zm0 0"/></g><g clip-path="url(#Bv)" class="Q S O P"><path d="M30.242 45.37a1 1 0 1 0 0-2 1 1 0 1 0 0 2zm0 0"/></g><g clip-path="url(#Bw)" class="R"><path d="M34.727 47.527a1 1 0 1 0 0-2 1 1 0 1 0 0 2zm0 0"/></g><g clip-path="url(#Bx)" class="Q S O P"><path d="M34.727 47.527a1 1 0 1 0 0-2 1 1 0 1 0 0 2zm0 0"/></g><g clip-path="url(#By)" class="R"><path d="M40.148 50.156a1 1 0 1 0 0-2 1 1 0 1 0 0 2zm0 0"/></g><g clip-path="url(#Bz)" class="Q S O P"><path d="M40.148 50.156a1 1 0 1 0 0-2 1 1 0 1 0 0 2zm0 0"/></g><g clip-path="url(#CA)" class="R"><path d="M45.285 53.445c.262 0 .52-.105.707-.293a1 1 0 0 0 0-1.414c-.187-.187-.445-.293-.707-.293a1 1 0 1 0 0 2zm0 0"/></g><g clip-path="url(#CB)" class="Q S O P"><path d="M45.285 53.445c.262 0 .52-.105.707-.293a1 1 0 0 0 0-1.414c-.187-.187-.445-.293-.707-.293a1 1 0 1 0 0 2zm0 0"/></g><g clip-path="url(#CE)" class="R"><use xlink:href="#Gc"/></g><g clip-path="url(#CF)" class="Q S O P"><use xlink:href="#Gc"/></g><g clip-path="url(#CG)" class="R"><path d="M59.32 59.188a1 1 0 0 0 .707-.293c.188-.187.293-.445.293-.707a1 1 0 1 0-2 0c0 .262.105.52.293.707a1 1 0 0 0 .707.293zm0 0"/></g><g clip-path="url(#CH)" class="Q S O P"><path d="M59.32 59.188a1 1 0 0 0 .707-.293c.188-.187.293-.445.293-.707a1 1 0 1 0-2 0c0 .262.105.52.293.707a1 1 0 0 0 .707.293zm0 0"/></g><g clip-path="url(#CK)" class="R"><path d="M62.348 60.867a1 1 0 0 0 1-1c0-.262-.105-.52-.293-.707a1 1 0 0 0-1.414 0 1.01 1.01 0 0 0-.293.707 1 1 0 0 0 1 1zm0 0"/></g><g clip-path="url(#CL)" class="Q S O P"><path d="M62.348 60.867a1 1 0 0 0 1-1c0-.262-.105-.52-.293-.707a1 1 0 0 0-1.414 0 1.01 1.01 0 0 0-.293.707 1 1 0 0 0 1 1zm0 0"/></g><g clip-path="url(#CM)" class="R"><path d="M60.074 61.297a1 1 0 1 0 0-2c-.262 0-.52.105-.707.293a1 1 0 0 0 0 1.414c.188.188.445.293.707.293zm0 0"/></g><g clip-path="url(#CN)" class="Q S O P"><path d="M60.074 61.297a1 1 0 1 0 0-2c-.262 0-.52.105-.707.293a1 1 0 0 0 0 1.414c.188.188.445.293.707.293zm0 0"/></g><g clip-path="url(#CO)" class="R"><path d="M56.465 61.02a1 1 0 1 0 0-2c-.262 0-.52.105-.707.293a1 1 0 0 0 0 1.414c.188.188.445.293.707.293zm0 0"/></g><g clip-path="url(#CP)" class="Q S O P"><path d="M56.465 61.02a1 1 0 1 0 0-2c-.262 0-.52.105-.707.293a1 1 0 0 0 0 1.414c.188.188.445.293.707.293zm0 0"/></g><g clip-path="url(#CQ)" class="R"><path d="M52.168 60.078a1 1 0 1 0 0-2c-.262 0-.52.105-.707.293a1 1 0 0 0 0 1.414c.188.188.445.293.707.293zm0 0"/></g><g clip-path="url(#CR)" class="Q S O P"><path d="M52.168 60.078a1 1 0 1 0 0-2c-.262 0-.52.105-.707.293a1 1 0 0 0 0 1.414c.188.188.445.293.707.293zm0 0"/></g><g clip-path="url(#CS)" class="R"><path d="M47.023 58.066a1 1 0 1 0 0-2 1 1 0 1 0 0 2zm0 0"/></g><g clip-path="url(#CT)" class="Q S O P"><path d="M47.023 58.066a1 1 0 1 0 0-2 1 1 0 1 0 0 2zm0 0"/></g><g clip-path="url(#CU)" class="R"><path d="M41.203 55.176a1 1 0 1 0 0-2 1 1 0 1 0 0 2zm0 0"/></g><g clip-path="url(#CV)" class="Q S O P"><path d="M41.203 55.176a1 1 0 1 0 0-2 1 1 0 1 0 0 2zm0 0"/></g><g clip-path="url(#CW)" class="R"><path d="M36.1 51.46a1 1 0 0 0 1-1c0-.262-.105-.52-.293-.707a1 1 0 0 0-1.414 0 1.01 1.01 0 0 0-.293.707 1 1 0 0 0 1 1zm0 0"/></g><g clip-path="url(#CX)" class="Q S O P"><path d="M36.1 51.46a1 1 0 0 0 1-1c0-.262-.105-.52-.293-.707a1 1 0 0 0-1.414 0 1.01 1.01 0 0 0-.293.707 1 1 0 0 0 1 1zm0 0"/></g><g clip-path="url(#CY)" class="R"><path d="M32.04 46.395a1 1 0 0 0 .707-.293c.188-.187.293-.445.293-.707a1 1 0 1 0-2 0c0 .262.105.52.293.707a1 1 0 0 0 .707.293zm0 0"/></g><g clip-path="url(#CZ)" class="Q S O P"><path d="M32.04 46.395a1 1 0 0 0 .707-.293c.188-.187.293-.445.293-.707a1 1 0 1 0-2 0c0 .262.105.52.293.707a1 1 0 0 0 .707.293zm0 0"/></g><g clip-path="url(#Ca)" class="R"><path d="M27.547 42.305a1 1 0 1 0 0-2 1 1 0 1 0 0 2zm0 0"/></g><g clip-path="url(#Cb)" class="Q S O P"><path d="M27.547 42.305a1 1 0 1 0 0-2 1 1 0 1 0 0 2zm0 0"/></g><g clip-path="url(#Cc)" class="R"><path d="M24.117 36.957a1 1 0 1 0 0-2 1 1 0 1 0 0 2zm0 0"/></g><g clip-path="url(#Cd)" class="Q S O P"><path d="M24.117 36.957a1 1 0 1 0 0-2 1 1 0 1 0 0 2zm0 0"/></g><g clip-path="url(#Ce)" class="R"><path d="M21.664 31.516a1 1 0 1 0 0-2 1 1 0 1 0 0 2zm0 0"/></g><g clip-path="url(#Cf)" class="Q S O P"><path d="M21.664 31.516a1 1 0 1 0 0-2 1 1 0 1 0 0 2zm0 0"/></g><g clip-path="url(#Cg)" class="R"><path d="M18.957 30.543a1 1 0 1 0 0-2 1 1 0 1 0 0 2zm0 0"/></g><g clip-path="url(#Ch)" class="Q S O P"><path d="M18.957 30.543a1 1 0 1 0 0-2 1 1 0 1 0 0 2zm0 0"/></g><g clip-path="url(#Ci)" class="R"><path d="M17.98 31.96a1 1 0 0 0 .707-.293c.188-.187.293-.445.293-.707a1 1 0 1 0-2 0c0 .262.105.52.293.707a1 1 0 0 0 .707.293zm0 0"/></g><g clip-path="url(#Cj)" class="Q S O P"><path d="M17.98 31.96a1 1 0 0 0 .707-.293c.188-.187.293-.445.293-.707a1 1 0 1 0-2 0c0 .262.105.52.293.707a1 1 0 0 0 .707.293zm0 0"/></g><g clip-path="url(#Ck)" class="R"><use xlink:href="#Gd"/></g><g clip-path="url(#Cl)" class="Q S O P"><use xlink:href="#Gd"/></g><g clip-path="url(#Co)" class="R"><path d="M20.13 37.723c.262 0 .52-.105.707-.293a1 1 0 0 0 0-1.414c-.187-.187-.445-.293-.707-.293a1 1 0 1 0 0 2zm0 0"/></g><g clip-path="url(#Cp)" class="Q S O P"><path d="M20.13 37.723c.262 0 .52-.105.707-.293a1 1 0 0 0 0-1.414c-.187-.187-.445-.293-.707-.293a1 1 0 1 0 0 2zm0 0"/></g><g clip-path="url(#Cq)" class="R"><path d="M22.1 40.254a1 1 0 1 0 0-2 1 1 0 1 0 0 2zm0 0"/></g><g clip-path="url(#Cr)" class="Q S O P"><path d="M22.1 40.254a1 1 0 1 0 0-2 1 1 0 1 0 0 2zm0 0"/></g><g clip-path="url(#Cs)" class="R"><use xlink:href="#Ge"/></g><g clip-path="url(#Ct)" class="Q S O P"><use xlink:href="#Ge"/></g><g clip-path="url(#Cu)" class="R"><path d="M28.043 41.75a1 1 0 0 0 .707-.293c.188-.187.293-.445.293-.707a1 1 0 1 0-2 0c0 .262.105.52.293.707a1 1 0 0 0 .707.293zm0 0"/></g><g clip-path="url(#Cv)" class="Q S O P"><path d="M28.043 41.75a1 1 0 0 0 .707-.293c.188-.187.293-.445.293-.707a1 1 0 1 0-2 0c0 .262.105.52.293.707a1 1 0 0 0 .707.293zm0 0"/></g><g clip-path="url(#Cw)" class="R"><path d="M32.547 44.488a1 1 0 1 0 0-2 1 1 0 1 0 0 2zm0 0"/></g><g clip-path="url(#Cx)" class="Q S O P"><path d="M32.547 44.488a1 1 0 1 0 0-2 1 1 0 1 0 0 2zm0 0"/></g><g clip-path="url(#Cy)" class="R"><path d="M36.512 49.273a1 1 0 0 0 1-1c0-.262-.105-.52-.293-.707a1 1 0 0 0-1.414 0 1.01 1.01 0 0 0-.293.707 1 1 0 0 0 1 1zm0 0"/></g><g clip-path="url(#Cz)" class="Q S O P"><path d="M36.512 49.273a1 1 0 0 0 1-1c0-.262-.105-.52-.293-.707a1 1 0 0 0-1.414 0 1.01 1.01 0 0 0-.293.707 1 1 0 0 0 1 1zm0 0"/></g><g clip-path="url(#DA)" class="R"><path d="M40.32 52.813a1 1 0 1 0 0-2c-.262 0-.52.105-.707.293a1 1 0 0 0 0 1.414c.188.188.445.293.707.293zm0 0"/></g><g clip-path="url(#DB)" class="Q S O P"><path d="M40.32 52.813a1 1 0 1 0 0-2c-.262 0-.52.105-.707.293a1 1 0 0 0 0 1.414c.188.188.445.293.707.293zm0 0"/></g><g clip-path="url(#DC)" class="R"><path d="M44.566 54.988c.262 0 .52-.105.707-.293a1 1 0 0 0 0-1.414c-.187-.187-.445-.293-.707-.293a1 1 0 1 0 0 2zm0 0"/></g><g clip-path="url(#DD)" class="Q S O P"><path d="M44.566 54.988c.262 0 .52-.105.707-.293a1 1 0 0 0 0-1.414c-.187-.187-.445-.293-.707-.293a1 1 0 1 0 0 2zm0 0"/></g><g clip-path="url(#DE)" class="R"><path d="M49.23 56.316a1 1 0 0 0 1-1c0-.262-.105-.52-.293-.707a1 1 0 0 0-1.414 0 1.01 1.01 0 0 0-.293.707 1 1 0 0 0 1 1zm0 0"/></g><g clip-path="url(#DF)" class="Q S O P"><path d="M49.23 56.316a1 1 0 0 0 1-1c0-.262-.105-.52-.293-.707a1 1 0 0 0-1.414 0 1.01 1.01 0 0 0-.293.707 1 1 0 0 0 1 1zm0 0"/></g><g clip-path="url(#DG)" class="R"><path d="M53.398 57.66a1 1 0 0 0 .707-.293c.188-.187.293-.445.293-.707a1 1 0 1 0-2 0c0 .262.105.52.293.707a1 1 0 0 0 .707.293zm0 0"/></g><g clip-path="url(#DH)" class="Q S O P"><path d="M53.398 57.66a1 1 0 0 0 .707-.293c.188-.187.293-.445.293-.707a1 1 0 1 0-2 0c0 .262.105.52.293.707a1 1 0 0 0 .707.293zm0 0"/></g><g clip-path="url(#DI)" class="R"><path d="M55.938 58.938a1 1 0 0 0 1-1c0-.262-.105-.52-.293-.707a1 1 0 0 0-1.414 0 1.01 1.01 0 0 0-.293.707 1 1 0 0 0 1 1zm0 0"/></g><g clip-path="url(#DJ)" class="Q S O P"><path d="M55.937 58.938a1 1 0 0 0 1-1c0-.262-.105-.52-.293-.707a1 1 0 0 0-1.414 0 1.01 1.01 0 0 0-.293.707 1 1 0 0 0 1 1zm0 0"/></g><g clip-path="url(#DK)" class="R"><path d="M56.664 59.73a1 1 0 1 0 0-2 1 1 0 1 0 0 2zm0 0"/></g><g clip-path="url(#DL)" class="Q S O P"><path d="M56.664 59.73a1 1 0 1 0 0-2 1 1 0 1 0 0 2zm0 0"/></g><g clip-path="url(#DM)" class="R"><path d="M56.05 60.293a1 1 0 1 0 0-2 1 1 0 1 0 0 2zm0 0"/></g><g clip-path="url(#DN)" class="Q S O P"><path d="M56.05 60.293a1 1 0 1 0 0-2 1 1 0 1 0 0 2zm0 0"/></g><g clip-path="url(#DO)" class="R"><path d="M54.7 60.078a1 1 0 1 0 0-2 1 1 0 1 0 0 2zm0 0"/></g><g clip-path="url(#DP)" class="Q S O P"><path d="M54.7 60.078a1 1 0 1 0 0-2 1 1 0 1 0 0 2zm0 0"/></g><g clip-path="url(#DQ)" class="R"><path d="M52.62 58.95a1 1 0 1 0 0-2 1 1 0 1 0 0 2zm0 0"/></g><g clip-path="url(#DR)" class="Q S O P"><path d="M52.62 58.95a1 1 0 1 0 0-2 1 1 0 1 0 0 2zm0 0"/></g><g clip-path="url(#DS)" class="R"><path d="M49.16 57.418a1 1 0 1 0 0-2 1 1 0 1 0 0 2zm0 0"/></g><g clip-path="url(#DT)" class="Q S O P"><path d="M49.16 57.418a1 1 0 1 0 0-2 1 1 0 1 0 0 2zm0 0"/></g><g clip-path="url(#DU)" class="R"><path d="M44.8 55.57a1 1 0 1 0 0-2 1 1 0 1 0 0 2zm0 0"/></g><g clip-path="url(#DV)" class="Q S O P"><path d="M44.8 55.57a1 1 0 1 0 0-2 1 1 0 1 0 0 2zm0 0"/></g><g clip-path="url(#DW)" class="R"><path d="M40.7 53.12a1 1 0 1 0 0-2 1 1 0 1 0 0 2zm0 0"/></g><g clip-path="url(#DX)" class="Q S O P"><path d="M40.7 53.12a1 1 0 1 0 0-2 1 1 0 1 0 0 2zm0 0"/></g><g clip-path="url(#DY)" class="R"><path d="M36.637 50.402a1 1 0 1 0 0-2 1 1 0 1 0 0 2zm0 0"/></g><g clip-path="url(#DZ)" class="Q S O P"><path d="M36.637 50.402a1 1 0 1 0 0-2 1 1 0 1 0 0 2zm0 0"/></g><g clip-path="url(#Da)" class="R"><path d="M33.438 45.355a1 1 0 0 0 .707-.293c.188-.187.293-.445.293-.707a1.01 1.01 0 0 0-.293-.711c-.187-.187-.44-.29-.707-.29s-.52.102-.707.29a1.01 1.01 0 0 0-.293.711c0 .262.105.52.293.707a1 1 0 0 0 .707.293zm0 0"/></g><g clip-path="url(#Db)" class="Q S O P"><path d="M33.437 45.355a1 1 0 0 0 .707-.293c.188-.187.293-.445.293-.707a1.01 1.01 0 0 0-.293-.711c-.187-.187-.44-.29-.707-.29s-.52.102-.707.29a1.01 1.01 0 0 0-.293.711c0 .262.105.52.293.707a1 1 0 0 0 .707.293zm0 0"/></g><g clip-path="url(#Dc)" class="R"><path d="M29.238 41.375a1 1 0 1 0 0-2 1 1 0 1 0 0 2zm0 0"/></g><g clip-path="url(#Dd)" class="Q S O P"><path d="M29.238 41.375a1 1 0 1 0 0-2 1 1 0 1 0 0 2zm0 0"/></g><g clip-path="url(#De)" class="R"><path d="M26.004 37.75a1 1 0 1 0 0-2 1 1 0 1 0 0 2zm0 0"/></g><g clip-path="url(#Df)" class="Q S O P"><path d="M26.004 37.75a1 1 0 1 0 0-2 1 1 0 1 0 0 2zm0 0"/></g><g clip-path="url(#Dg)" class="R"><path d="M23.43 36.828a1 1 0 1 0 0-2 1 1 0 1 0 0 2zm0 0"/></g><g clip-path="url(#Dh)" class="Q S O P"><path d="M23.43 36.828a1 1 0 1 0 0-2 1 1 0 1 0 0 2zm0 0"/></g><g clip-path="url(#Di)" class="R"><path d="M21.848 37.043a1 1 0 1 0 0-2 1 1 0 1 0 0 2zm0 0"/></g><g clip-path="url(#Dj)" class="Q S O P"><path d="M21.848 37.043a1 1 0 1 0 0-2 1 1 0 1 0 0 2zm0 0"/></g><g clip-path="url(#Dk)" class="R"><path d="M21.375 36.707a1 1 0 1 0 0-2 1 1 0 1 0 0 2zm0 0"/></g><g clip-path="url(#Dl)" class="Q S O P"><path d="M21.375 36.707a1 1 0 1 0 0-2 1 1 0 1 0 0 2zm0 0"/></g><g clip-path="url(#Dm)" class="R"><path d="M20.867 37.32a1 1 0 1 0 0-2 1 1 0 1 0 0 2zm0 0"/></g><g clip-path="url(#Dn)" class="Q S O P"><path d="M20.867 37.32a1 1 0 1 0 0-2 1 1 0 1 0 0 2zm0 0"/></g><g clip-path="url(#Do)" class="R"><path d="M21.375 38.9c.262 0 .52-.105.707-.293a1 1 0 0 0 0-1.414c-.187-.187-.445-.293-.707-.293a1 1 0 1 0 0 2zm0 0"/></g><g clip-path="url(#Dp)" class="Q S O P"><path d="M21.375 38.9c.262 0 .52-.105.707-.293a1 1 0 0 0 0-1.414c-.187-.187-.445-.293-.707-.293a1 1 0 1 0 0 2zm0 0"/></g><g clip-path="url(#Dq)" class="R"><path d="M23.152 41.13a1 1 0 1 0 0-2 1 1 0 1 0 0 2zm0 0"/></g><g clip-path="url(#Dr)" class="Q S O P"><path d="M23.152 41.13a1 1 0 1 0 0-2 1 1 0 1 0 0 2zm0 0"/></g><g clip-path="url(#Ds)" class="R"><path d="M25.258 43.613c.262 0 .52-.105.707-.293a1 1 0 0 0 0-1.414c-.187-.187-.445-.293-.707-.293a1 1 0 1 0 0 2zm0 0"/></g><g clip-path="url(#Dt)" class="Q S O P"><path d="M25.258 43.613c.262 0 .52-.105.707-.293a1 1 0 0 0 0-1.414c-.187-.187-.445-.293-.707-.293a1 1 0 1 0 0 2zm0 0"/></g><g clip-path="url(#Du)" class="R"><use xlink:href="#Gf"/></g><g clip-path="url(#Dv)" class="Q S O P"><use xlink:href="#Gf"/></g><g clip-path="url(#Dw)" class="R"><path d="M32.37 46.95c.262 0 .52-.105.707-.293a1 1 0 0 0 0-1.414c-.187-.187-.445-.293-.707-.293a1 1 0 1 0 0 2zm0 0"/></g><g clip-path="url(#Dx)" class="Q S O P"><path d="M32.37 46.95c.262 0 .52-.105.707-.293a1 1 0 0 0 0-1.414c-.187-.187-.445-.293-.707-.293a1 1 0 1 0 0 2zm0 0"/></g><g clip-path="url(#Dy)" class="R"><path d="M35.75 49.262a1 1 0 1 0 0-2 1 1 0 1 0 0 2zm0 0"/></g><g clip-path="url(#Dz)" class="Q S O P"><path d="M35.75 49.262a1 1 0 1 0 0-2 1 1 0 1 0 0 2zm0 0"/></g><g clip-path="url(#EA)" class="R"><path d="M39.64 51.074a1 1 0 0 0 .707-.293c.188-.187.293-.445.293-.707a1 1 0 1 0-2 0c0 .262.105.52.293.707a1 1 0 0 0 .707.293zm0 0"/></g><g clip-path="url(#EB)" class="Q S O P"><path d="M39.64 51.074a1 1 0 0 0 .707-.293c.188-.187.293-.445.293-.707a1 1 0 1 0-2 0c0 .262.105.52.293.707a1 1 0 0 0 .707.293zm0 0"/></g><g clip-path="url(#EC)" class="R"><path d="M43.902 52.883a1 1 0 0 0 .707-.293c.188-.187.293-.445.293-.707a1 1 0 1 0-2 0c0 .262.105.52.293.707a1 1 0 0 0 .707.293zm0 0"/></g><g clip-path="url(#ED)" class="Q S O P"><path d="M43.902 52.883a1 1 0 0 0 .707-.293c.188-.187.293-.445.293-.707a1 1 0 1 0-2 0c0 .262.105.52.293.707a1 1 0 0 0 .707.293zm0 0"/></g><g clip-path="url(#EE)" class="R"><path d="M48.203 54.398a1.01 1.01 0 0 0 .711-.293.99.99 0 0 0 .29-.707.99.99 0 0 0-.29-.707 1.01 1.01 0 0 0-.711-.293c-.262 0-.52.105-.707.293a1 1 0 0 0 0 1.414c.188.188.445.293.707.293zm0 0"/></g><g clip-path="url(#EF)" class="Q S O P"><path d="M48.203 54.398a1.01 1.01 0 0 0 .711-.293.99.99 0 0 0 .29-.707.99.99 0 0 0-.29-.707 1.01 1.01 0 0 0-.711-.293c-.262 0-.52.105-.707.293a1 1 0 0 0 0 1.414c.188.188.445.293.707.293zm0 0"/></g><g clip-path="url(#EG)" class="R"><path d="M51.418 55.676a1 1 0 0 0 1-1c0-.262-.105-.52-.293-.707a1 1 0 0 0-1.414 0 1.01 1.01 0 0 0-.293.707 1 1 0 0 0 1 1zm0 0"/></g><g clip-path="url(#EH)" class="Q S O P"><path d="M51.418 55.676a1 1 0 0 0 1-1c0-.262-.105-.52-.293-.707a1 1 0 0 0-1.414 0 1.01 1.01 0 0 0-.293.707 1 1 0 0 0 1 1zm0 0"/></g><g clip-path="url(#EI)" class="R"><path d="M52.6 56.77a1 1 0 1 0 0-2 1 1 0 1 0 0 2zm0 0"/></g><g clip-path="url(#EJ)" class="Q S O P"><path d="M52.6 56.77a1 1 0 1 0 0-2 1 1 0 1 0 0 2zm0 0"/></g><g clip-path="url(#EK)" class="R"><path d="M51.87 57.488a1 1 0 1 0 0-2 1 1 0 1 0 0 2zm0 0"/></g><g clip-path="url(#EL)" class="Q S O P"><path d="M51.87 57.488a1 1 0 1 0 0-2 1 1 0 1 0 0 2zm0 0"/></g><g clip-path="url(#EM)" class="R"><path d="M50.4 57.535a1 1 0 1 0 0-2 1 1 0 1 0 0 2zm0 0"/></g><g clip-path="url(#EN)" class="Q S O P"><path d="M50.4 57.535a1 1 0 1 0 0-2 1 1 0 1 0 0 2zm0 0"/></g><g clip-path="url(#EO)" class="R"><path d="M49.05 56.637a1 1 0 1 0 0-2 1 1 0 1 0 0 2zm0 0"/></g><g clip-path="url(#EP)" class="Q S O P"><path d="M49.05 56.637a1 1 0 1 0 0-2 1 1 0 1 0 0 2zm0 0"/></g><g clip-path="url(#EQ)" class="R"><path d="M47.672 55.05a1 1 0 1 0 0-2 1 1 0 1 0 0 2zm0 0"/></g><g clip-path="url(#ER)" class="Q S O P"><path d="M47.672 55.05a1 1 0 1 0 0-2 1 1 0 1 0 0 2zm0 0"/></g><g clip-path="url(#ES)" class="R"><path d="M45.613 53.3a1 1 0 1 0 0-2 1 1 0 1 0 0 2zm0 0"/></g><g clip-path="url(#ET)" class="Q S O P"><path d="M45.613 53.3a1 1 0 1 0 0-2 1 1 0 1 0 0 2zm0 0"/></g><g clip-path="url(#EU)" class="R"><path d="M43.02 51.56a1 1 0 0 0 1-1c0-.262-.105-.52-.293-.707a1 1 0 0 0-1.414 0 1.01 1.01 0 0 0-.293.707 1 1 0 0 0 1 1zm0 0"/></g><g clip-path="url(#EV)" class="Q S O P"><path d="M43.02 51.56a1 1 0 0 0 1-1c0-.262-.105-.52-.293-.707a1 1 0 0 0-1.414 0 1.01 1.01 0 0 0-.293.707 1 1 0 0 0 1 1zm0 0"/></g><g clip-path="url(#EW)" class="R"><path d="M40.223 49.96a1 1 0 1 0 0-2 1 1 0 1 0 0 2zm0 0"/></g><g clip-path="url(#EX)" class="Q S O P"><path d="M40.223 49.96a1 1 0 1 0 0-2 1 1 0 1 0 0 2zm0 0"/></g><g clip-path="url(#EY)" class="R"><path d="M36.93 47.563a1 1 0 1 0 0-2 1 1 0 1 0 0 2zm0 0"/></g><g clip-path="url(#EZ)" class="Q S O P"><path d="M36.93 47.563a1 1 0 1 0 0-2 1 1 0 1 0 0 2zm0 0"/></g><g clip-path="url(#Ea)" class="R"><path d="M33.832 43.184a1 1 0 1 0 0-2 1 1 0 1 0 0 2zm0 0"/></g><g clip-path="url(#Eb)" class="Q S O P"><path d="M33.832 43.184a1 1 0 1 0 0-2 1 1 0 1 0 0 2zm0 0"/></g><g clip-path="url(#Ec)" class="R"><path d="M30.54 39.7a1 1 0 1 0 0-2 1 1 0 1 0 0 2zm0 0"/></g><g clip-path="url(#Ed)" class="Q S O P"><path d="M30.54 39.7a1 1 0 1 0 0-2 1 1 0 1 0 0 2zm0 0"/></g><g clip-path="url(#Ee)" class="R"><path d="M28.48 38.098a1 1 0 0 0 .707-.293c.188-.187.293-.445.293-.707a1 1 0 1 0-2 0c0 .262.105.52.293.707a1 1 0 0 0 .707.293zm0 0"/></g><g clip-path="url(#Ef)" class="Q S O P"><path d="M28.48 38.098a1 1 0 0 0 .707-.293c.188-.187.293-.445.293-.707a1 1 0 1 0-2 0c0 .262.105.52.293.707a1 1 0 0 0 .707.293zm0 0"/></g><g clip-path="url(#Eg)" class="R"><path d="M27.45 39.293a1 1 0 0 0 1-1c0-.262-.105-.52-.293-.707a1 1 0 0 0-1.414 0 1.01 1.01 0 0 0-.293.707 1 1 0 0 0 1 1zm0 0"/></g><g clip-path="url(#Eh)" class="Q S O P"><path d="M27.45 39.293a1 1 0 0 0 1-1c0-.262-.105-.52-.293-.707a1 1 0 0 0-1.414 0 1.01 1.01 0 0 0-.293.707 1 1 0 0 0 1 1zm0 0"/></g><g clip-path="url(#Ek)" class="R"><path d="M27.273 41.363a1 1 0 0 0 .707-.293c.188-.187.293-.445.293-.707a1 1 0 1 0-2 0c0 .262.105.52.293.707a1 1 0 0 0 .707.293zm0 0"/></g><g clip-path="url(#El)" class="Q S O P"><path d="M27.273 41.363a1 1 0 0 0 .707-.293c.188-.187.293-.445.293-.707a1 1 0 1 0-2 0c0 .262.105.52.293.707a1 1 0 0 0 .707.293zm0 0"/></g><g clip-path="url(#Em)" class="R"><use xlink:href="#Gg"/></g><g clip-path="url(#En)" class="Q S O P"><use xlink:href="#Gg"/></g><g clip-path="url(#Eo)" class="R"><path d="M26.762 41.75a1 1 0 1 0 0-2 1 1 0 1 0 0 2zm0 0"/></g><g clip-path="url(#Ep)" class="Q S O P"><path d="M26.762 41.75a1 1 0 1 0 0-2 1 1 0 1 0 0 2zm0 0"/></g><g clip-path="url(#Eq)" class="R"><path d="M27.5 41.688a1 1 0 1 0 0-2 1 1 0 1 0 0 2zm0 0"/></g><g clip-path="url(#Er)" class="Q S O P"><path d="M27.5 41.688a1 1 0 1 0 0-2 1 1 0 1 0 0 2zm0 0"/></g><g clip-path="url(#Es)" class="R"><path d="M29.16 42.535a1 1 0 1 0 0-2 1 1 0 1 0 0 2zm0 0"/></g><g clip-path="url(#Et)" class="Q S O P"><path d="M29.16 42.535a1 1 0 1 0 0-2 1 1 0 1 0 0 2zm0 0"/></g><g clip-path="url(#Ew)" class="R"><path d="M34.44 49.3a1 1 0 0 0 1-1c0-.262-.105-.52-.293-.707a1 1 0 0 0-1.414 0 1.01 1.01 0 0 0-.293.707 1 1 0 0 0 1 1zm0 0"/></g><g clip-path="url(#Ex)" class="Q S O P"><path d="M34.44 49.3a1 1 0 0 0 1-1c0-.262-.105-.52-.293-.707a1 1 0 0 0-1.414 0 1.01 1.01 0 0 0-.293.707 1 1 0 0 0 1 1zm0 0"/></g><g clip-path="url(#Ey)" class="R"><use xlink:href="#Gh"/></g><g clip-path="url(#Ez)" class="Q S O P"><use xlink:href="#Gh"/></g><g clip-path="url(#FA)" class="R"><path d="M40.22 52.3a1 1 0 1 0 0-2 1 1 0 1 0 0 2zm0 0"/></g><g clip-path="url(#FB)" class="Q S O P"><path d="M40.22 52.3a1 1 0 1 0 0-2 1 1 0 1 0 0 2zm0 0"/></g><g clip-path="url(#FC)" class="R"><path d="M43.56 52.156a1 1 0 0 0 .707-.293c.188-.187.293-.445.293-.707a1 1 0 1 0-2 0c0 .262.105.52.293.707a1 1 0 0 0 .707.293zm0 0"/></g><g clip-path="url(#FD)" class="Q S O P"><path d="M43.56 52.156a1 1 0 0 0 .707-.293c.188-.187.293-.445.293-.707a1 1 0 1 0-2 0c0 .262.105.52.293.707a1 1 0 0 0 .707.293zm0 0"/></g><g clip-path="url(#FE)" class="R"><path d="M46.648 51.656a1 1 0 1 0 0-2 1 1 0 1 0 0 2zm0 0"/></g><g clip-path="url(#FF)" class="Q S O P"><path d="M46.648 51.656a1 1 0 1 0 0-2 1 1 0 1 0 0 2zm0 0"/></g><g clip-path="url(#FG)" class="R"><path d="M47.96 51.574a1 1 0 1 0 0-2 1 1 0 1 0 0 2zm0 0"/></g><g clip-path="url(#FH)" class="Q S O P"><path d="M47.96 51.574a1 1 0 1 0 0-2 1 1 0 1 0 0 2zm0 0"/></g><g clip-path="url(#FI)" class="R"><path d="M48.223 51.852a1 1 0 1 0 0-2 1 1 0 1 0 0 2zm0 0"/></g><g clip-path="url(#FJ)" class="Q S O P"><path d="M48.223 51.852a1 1 0 1 0 0-2 1 1 0 1 0 0 2zm0 0"/></g><g clip-path="url(#FM)" class="U"><use xlink:href="#Gi"/></g><g class="Q T O P"><g clip-path="url(#FN)"><use xlink:href="#Gj"/></g><g clip-path="url(#FO)"><path d="M14.027 15.75c.188 0 .367-.074.5-.207s.207-.312.207-.5-.074-.367-.207-.5-.312-.207-.5-.207-.367.074-.5.207-.207.313-.207.5.074.367.207.5.313.207.5.207zm0 0"/></g><g clip-path="url(#FP)"><path d="M18.793 29.9c.187 0 .367-.074.5-.207s.207-.312.207-.5-.074-.367-.207-.5-.312-.207-.5-.207-.367.074-.5.207-.207.313-.207.5.074.367.207.5.313.207.5.207zm0 0"/></g></g><g clip-path="url(#FQ)" class="U"><path d="M20.363 42.906c.188 0 .367-.074.5-.207s.207-.312.207-.5-.074-.367-.207-.5-.312-.207-.5-.207-.367.074-.5.207-.207.313-.207.5.074.367.207.5.313.207.5.207zm0 0"/></g><g clip-path="url(#FR)" class="Q T O P"><path d="M20.363 42.906c.188 0 .367-.074.5-.207s.207-.312.207-.5-.074-.367-.207-.5-.312-.207-.5-.207-.367.074-.5.207-.207.313-.207.5.074.367.207.5.313.207.5.207zm0 0"/></g><g clip-path="url(#FS)" class="U"><path d="M25.6 51.793c.188 0 .367-.074.5-.207s.207-.312.207-.5-.074-.367-.207-.5-.312-.207-.5-.207-.367.074-.5.207-.207.313-.207.5.074.367.207.5.313.207.5.207zm0 0"/></g><g class="Q T O P"><g clip-path="url(#FT)"><path d="M25.6 51.793c.188 0 .367-.074.5-.207s.207-.312.207-.5-.074-.367-.207-.5-.312-.207-.5-.207-.367.074-.5.207-.207.313-.207.5.074.367.207.5.313.207.5.207zm0 0"/></g><g clip-path="url(#FU)"><path d="M31.887 58.793c.187 0 .367-.074.5-.207s.207-.312.207-.5-.074-.367-.207-.5-.312-.207-.5-.207-.367.074-.5.207-.207.313-.207.5.074.367.207.5.313.207.5.207zm0 0"/></g></g><g class="U"><g clip-path="url(#FV)" class="T O P"><path d="M39.492 63.086c.187 0 .367-.074.5-.207s.207-.312.207-.5-.074-.367-.207-.5-.312-.207-.5-.207-.367.074-.5.207-.207.313-.207.5.074.367.207.5.313.207.5.207zm0 0"/></g><g clip-path="url(#FW)"><path d="M47.082 66.332c.188 0 .367-.074.5-.207s.207-.312.207-.5-.074-.367-.207-.5-.312-.207-.5-.207-.367.074-.5.207-.207.313-.207.5.074.367.207.5.313.207.5.207zm0 0"/></g></g><g class="Q T O P"><g clip-path="url(#FX)"><path d="M47.082 66.332c.187 0 .367-.074.5-.207s.207-.312.207-.5-.074-.367-.207-.5-.312-.207-.5-.207-.367.074-.5.207-.207.313-.207.5.074.367.207.5.313.207.5.207zm0 0"/></g><g clip-path="url(#FY)"><path d="M54.992 67.512c.187 0 .367-.074.5-.207s.207-.312.207-.5-.074-.367-.207-.5-.312-.207-.5-.207-.367.074-.5.207-.207.313-.207.5.074.367.207.5.313.207.5.207zm0 0"/></g></g><g class="U"><g clip-path="url(#FZ)" class="T O P"><path d="M63.617 67.184c.188 0 .367-.074.5-.207s.207-.312.207-.5-.074-.367-.207-.5-.312-.207-.5-.207-.367.074-.5.207-.207.313-.207.5.074.367.207.5.313.207.5.207zm0 0"/></g><g clip-path="url(#Fa)" class="T O P"><path d="M72.3 66.348c.187 0 .367-.074.5-.207s.207-.312.207-.5-.074-.367-.207-.5-.312-.207-.5-.207-.367.074-.5.207-.207.313-.207.5.074.367.207.5.313.207.5.207zm0 0"/></g><g clip-path="url(#Fb)"><path d="M77.148 65.098c.188 0 .367-.074.5-.207s.207-.312.207-.5-.074-.367-.207-.5-.312-.207-.5-.207-.367.074-.5.207-.207.313-.207.5.074.367.207.5.313.207.5.207zm0 0"/></g></g><g clip-path="url(#Fc)" class="Q T O P"><path d="M77.148 65.098c.188 0 .367-.074.5-.207s.207-.312.207-.5-.074-.367-.207-.5-.312-.207-.5-.207-.367.074-.5.207-.207.313-.207.5.074.367.207.5.313.207.5.207zm0 0"/></g><g clip-path="url(#Fd)" class="U"><path d="M74.473 66.57c.188 0 .367-.074.5-.207s.207-.312.207-.5-.074-.367-.207-.5-.312-.207-.5-.207-.367.074-.5.207-.207.313-.207.5.074.367.207.5.313.207.5.207zm0 0"/></g><g clip-path="url(#Fe)" class="Q T O P"><path d="M74.473 66.57c.187 0 .367-.074.5-.207s.207-.312.207-.5-.074-.367-.207-.5-.312-.207-.5-.207-.367.074-.5.207-.207.313-.207.5.074.367.207.5.313.207.5.207zm0 0"/></g><g clip-path="url(#Ff)" class="U"><path d="M66.223 66.777c.188 0 .367-.074.5-.207s.207-.312.207-.5-.074-.367-.207-.5-.312-.207-.5-.207-.367.074-.5.207-.207.313-.207.5.074.367.207.5.313.207.5.207zm0 0"/></g><g class="T O P"><g clip-path="url(#Fg)" class="Q"><path d="M66.223 66.777c.188 0 .367-.074.5-.207s.207-.312.207-.5-.074-.367-.207-.5-.312-.207-.5-.207-.367.074-.5.207-.207.313-.207.5.074.367.207.5.313.207.5.207zm0 0"/></g><g class="U"><g clip-path="url(#Fh)"><path d="M57.3 67.367c.188 0 .367-.074.5-.207s.207-.312.207-.5-.074-.367-.207-.5-.312-.207-.5-.207-.367.074-.5.207-.207.313-.207.5.074.367.207.5.313.207.5.207zm0 0"/></g><g clip-path="url(#Fi)"><path d="M49.53 66.258c.188 0 .367-.074.5-.207s.207-.312.207-.5-.074-.367-.207-.5-.312-.207-.5-.207-.367.074-.5.207-.207.313-.207.5.074.367.207.5.313.207.5.207zm0 0"/></g><g clip-path="url(#Fj)"><path d="M41.668 64.113c.187 0 .367-.074.5-.207s.207-.312.207-.5-.074-.367-.207-.5-.312-.207-.5-.207-.367.074-.5.207-.207.313-.207.5.074.367.207.5.313.207.5.207zm0 0"/></g></g></g><g clip-path="url(#Fk)" class="U"><path d="M34.316 59.97c.188 0 .367-.074.5-.207s.207-.312.207-.5-.074-.367-.207-.5-.312-.207-.5-.207-.367.074-.5.207-.207.313-.207.5.074.367.207.5.313.207.5.207zm0 0"/></g><g clip-path="url(#Fl)" class="Q T O P"><path d="M34.316 59.97c.187 0 .367-.074.5-.207s.207-.312.207-.5-.074-.367-.207-.5-.312-.207-.5-.207-.367.074-.5.207-.207.313-.207.5.074.367.207.5.313.207.5.207zm0 0"/></g><g clip-path="url(#Fm)" class="U"><path d="M27.7 53.87c.188 0 .367-.074.5-.207s.207-.312.207-.5-.074-.367-.207-.5-.312-.207-.5-.207-.367.074-.5.207-.207.313-.207.5.074.367.207.5.313.207.5.207zm0 0"/></g><g clip-path="url(#Fn)" class="Q T O P"><path d="M27.7 53.87c.187 0 .367-.074.5-.207s.207-.312.207-.5-.074-.367-.207-.5-.312-.207-.5-.207-.367.074-.5.207-.207.313-.207.5.074.367.207.5.313.207.5.207zm0 0"/></g><g clip-path="url(#Fo)" class="U"><path d="M22.1 45.37c.188 0 .367-.078.5-.207s.207-.312.207-.5a.7.7 0 0 0-.207-.5c-.133-.133-.312-.207-.5-.207s-.367.074-.5.207a.7.7 0 0 0-.207.5c0 .188.074.367.207.5s.313.207.5.207zm0 0"/></g><g class="T O P"><g clip-path="url(#Fp)" class="Q"><path d="M22.1 45.37c.187 0 .367-.078.5-.207s.207-.312.207-.5a.7.7 0 0 0-.207-.5c-.133-.133-.312-.207-.5-.207s-.367.074-.5.207a.7.7 0 0 0-.207.5c0 .187.074.367.207.5s.313.207.5.207zm0 0"/></g><g clip-path="url(#Fq)" class="U"><path d="M18.32 33.063c.188 0 .367-.074.5-.207s.207-.312.207-.5-.074-.367-.207-.5-.312-.207-.5-.207-.367.074-.5.207-.207.313-.207.5.074.367.207.5.313.207.5.207zm0 0"/></g></g><g clip-path="url(#Fr)" class="U"><path d="M16.82 14.2c.188 0 .367-.074.5-.207s.207-.312.207-.5-.078-.367-.207-.5a.7.7 0 0 0-.5-.207.7.7 0 0 0-.5.207.71.71 0 0 0-.211.5.71.71 0 0 0 .211.5.7.7 0 0 0 .5.207zm0 0"/></g><g class="Q T O P"><g clip-path="url(#Fs)"><path d="M16.82 14.2c.187 0 .367-.074.5-.207s.207-.312.207-.5-.078-.367-.207-.5a.7.7 0 0 0-.5-.207.7.7 0 0 0-.5.207.71.71 0 0 0-.211.5.71.71 0 0 0 .211.5.7.7 0 0 0 .5.207zm0 0"/></g><g clip-path="url(#Ft)"><path d="M7.828 18.754c.187 0 .367-.074.5-.207s.207-.312.207-.5-.074-.367-.207-.5-.312-.207-.5-.207-.367.074-.5.207-.207.313-.207.5.074.367.207.5.313.207.5.207zm0 0"/></g><g clip-path="url(#Fu)"><path d="M4.94 25.605c.187 0 .367-.074.5-.207s.207-.312.207-.5-.074-.367-.207-.5-.312-.207-.5-.207-.367.074-.5.207-.207.313-.207.5.074.367.207.5.313.207.5.207zm0 0"/></g></g><g clip-path="url(#Fv)" class="U"><path d="M4.926 30.38c.188 0 .367-.074.5-.207s.207-.312.207-.5-.074-.367-.207-.5-.312-.207-.5-.207-.367.074-.5.207-.207.313-.207.5.074.367.207.5.313.207.5.207zm0 0"/></g><g clip-path="url(#Fw)" class="Q T O P"><path d="M4.926 30.38c.188 0 .367-.074.5-.207s.207-.312.207-.5-.074-.367-.207-.5-.312-.207-.5-.207-.367.074-.5.207-.207.313-.207.5.074.367.207.5.313.207.5.207zm0 0"/></g><g clip-path="url(#Fx)" class="U"><path d="M5.207 31.227c.188 0 .367-.074.5-.207s.207-.312.207-.5-.074-.367-.207-.5-.312-.207-.5-.207-.367.074-.5.207-.207.313-.207.5.074.367.207.5.313.207.5.207zm0 0"/></g><g clip-path="url(#Fy)" class="Q T O P"><path d="M5.207 31.227c.188 0 .367-.074.5-.207s.207-.312.207-.5-.074-.367-.207-.5-.312-.207-.5-.207-.367.074-.5.207-.207.313-.207.5.074.367.207.5.313.207.5.207zm0 0"/></g><g clip-path="url(#Fz)" class="U"><path d="M5.06 28.34c.188 0 .367-.074.5-.207s.207-.312.207-.5-.074-.367-.207-.5-.312-.207-.5-.207-.367.074-.5.207-.207.313-.207.5.074.367.207.5.313.207.5.207zm0 0"/></g><g class="T O P"><g clip-path="url(#GA)" class="Q"><path d="M5.06 28.34c.187 0 .367-.074.5-.207s.207-.312.207-.5-.074-.367-.207-.5-.312-.207-.5-.207-.367.074-.5.207-.207.313-.207.5.074.367.207.5.313.207.5.207zm0 0"/></g><g clip-path="url(#GB)" class="U"><path d="M6.363 22.262c.187 0 .367-.074.5-.207s.207-.312.207-.5-.074-.367-.207-.5-.313-.207-.5-.207-.367.074-.5.207-.207.313-.207.5.074.367.207.5.312.207.5.207zm0 0"/></g></g><g clip-path="url(#GC)" class="U"><path d="M12.7 17.125c.188 0 .367-.074.5-.207s.207-.312.207-.5-.074-.367-.207-.5-.312-.207-.5-.207-.367.074-.5.207-.207.313-.207.5.074.367.207.5.313.207.5.207zm0 0"/></g><g class="Q T O P"><g clip-path="url(#GD)"><path d="M12.7 17.125c.187 0 .367-.074.5-.207s.207-.312.207-.5-.074-.367-.207-.5-.312-.207-.5-.207-.367.074-.5.207-.207.312-.207.5.074.367.207.5.313.207.5.207zm0 0"/></g><g clip-path="url(#GE)"><path d="M18.84 26.813c.187 0 .367-.074.5-.207s.207-.312.207-.5-.074-.367-.207-.5-.312-.207-.5-.207-.367.074-.5.207-.207.313-.207.5.074.367.207.5.313.207.5.207zm0 0"/></g></g><g clip-path="url(#GG)" class="U"><path d="M24.297 48.902c.188 0 .367-.074.5-.207s.207-.312.207-.5-.074-.367-.207-.5-.312-.207-.5-.207-.367.074-.5.207-.207.313-.207.5.074.367.207.5.313.207.5.207zm0 0"/></g><g clip-path="url(#GH)" class="Q T O P"><path d="M24.297 48.902c.188 0 .367-.074.5-.207s.207-.312.207-.5-.074-.367-.207-.5-.312-.207-.5-.207-.367.074-.5.207-.207.313-.207.5.074.367.207.5.313.207.5.207zm0 0"/></g><g clip-path="url(#GI)" class="U"><path d="M30.195 56.387c.188 0 .367-.074.5-.207s.207-.312.207-.5-.074-.367-.207-.5-.312-.207-.5-.207-.367.074-.5.207-.207.313-.207.5.074.367.207.5.313.207.5.207zm0 0"/></g><g clip-path="url(#GJ)" class="Q T O P"><path d="M30.195 56.387c.188 0 .367-.074.5-.207s.207-.312.207-.5-.074-.367-.207-.5-.312-.207-.5-.207-.367.074-.5.207-.207.313-.207.5.074.367.207.5.313.207.5.207zm0 0"/></g><g clip-path="url(#GK)" class="U"><path d="M37.332 61.695c.188 0 .367-.074.5-.207s.207-.312.207-.5-.074-.367-.207-.5-.312-.207-.5-.207-.367.074-.5.207-.207.313-.207.5.074.367.207.5.313.207.5.207zm0 0"/></g><g clip-path="url(#GL)" class="Q T O P"><path d="M37.332 61.695c.187 0 .367-.074.5-.207s.207-.312.207-.5-.074-.367-.207-.5-.312-.207-.5-.207-.367.074-.5.207-.207.313-.207.5.074.367.207.5.313.207.5.207zm0 0"/></g><g clip-path="url(#GM)" class="U"><path d="M44.93 65.047c.188 0 .367-.074.5-.207s.207-.312.207-.5-.074-.367-.207-.5-.312-.207-.5-.207-.367.074-.5.207-.207.313-.207.5.074.367.207.5.313.207.5.207zm0 0"/></g><g clip-path="url(#GN)" class="Q T O P"><path d="M44.93 65.047c.188 0 .367-.074.5-.207s.207-.312.207-.5-.074-.367-.207-.5-.312-.207-.5-.207-.367.074-.5.207-.207.312-.207.5.074.367.207.5.313.207.5.207zm0 0"/></g><g clip-path="url(#GO)" class="U"><path d="M52.898 67.035c.188 0 .367-.074.5-.207s.207-.312.207-.5-.074-.367-.207-.5-.312-.207-.5-.207-.367.074-.5.207-.207.313-.207.5.074.367.207.5.313.207.5.207zm0 0"/></g><g clip-path="url(#GP)" class="Q T O P"><path d="M52.898 67.035c.188 0 .367-.074.5-.207s.207-.312.207-.5-.074-.367-.207-.5-.312-.207-.5-.207-.367.074-.5.207-.207.313-.207.5.074.367.207.5.313.207.5.207zm0 0"/></g><g clip-path="url(#GQ)" class="U"><path d="M61.277 67.117c.188 0 .367-.074.5-.207s.207-.312.207-.5-.074-.367-.207-.5-.312-.207-.5-.207-.367.074-.5.207-.207.313-.207.5.074.367.207.5.313.207.5.207zm0 0"/></g><g clip-path="url(#GR)" class="Q T O P"><path d="M61.277 67.117c.188 0 .367-.074.5-.207s.207-.312.207-.5-.074-.367-.207-.5-.312-.207-.5-.207-.367.074-.5.207-.207.313-.207.5.074.367.207.5.313.207.5.207zm0 0"/></g><g clip-path="url(#GS)" class="U"><path d="M70.27 66.496c.188 0 .367-.074.5-.207s.207-.312.207-.5-.074-.367-.207-.5-.312-.207-.5-.207-.367.074-.5.207-.207.313-.207.5.074.367.207.5.313.207.5.207zm0 0"/></g><g clip-path="url(#GT)" class="Q T O P"><path d="M70.27 66.496c.188 0 .367-.074.5-.207s.207-.312.207-.5-.074-.367-.207-.5-.312-.207-.5-.207-.367.074-.5.207-.207.313-.207.5.074.367.207.5.313.207.5.207zm0 0"/></g><g clip-path="url(#GU)" class="U"><path d="M77.148 65.098c.188 0 .367-.074.5-.207s.207-.312.207-.5-.074-.367-.207-.5-.312-.207-.5-.207-.367.074-.5.207-.207.313-.207.5.074.367.207.5.313.207.5.207zm0 0"/></g><g clip-path="url(#GV)" class="Q T O P"><path d="M77.148 65.098c.188 0 .367-.074.5-.207s.207-.312.207-.5-.074-.367-.207-.5-.312-.207-.5-.207-.367.074-.5.207-.207.313-.207.5.074.367.207.5.313.207.5.207zm0 0"/></g></g></svg>