<svg xmlns="http://www.w3.org/2000/svg" xmlns:xlink="http://www.w3.org/1999/xlink" width="1305.6" height="192" viewBox="0 0 1215 180" xmlns:v="https://vecta.io/nano"><style><![CDATA[.B{fill:#000}.C{fill-rule:evenodd}.D{stroke:#000}.E{word-spacing:normal}.F{stroke-linejoin:round}.G{overflow:visible}.H{fill-opacity:1}.I{stroke-width:.625}.J{stroke-opacity:1}.K{stroke:none}.L{fill:none}.M{stroke-width:.8}.N{stroke-width:.778}]]></style><defs><marker orient="auto" refY="0" refX="0" id="A" class="G"><path d="M8.72 4.034L-2.207.016 8.72-4.002c-1.745 2.372-1.735 5.617 0 8.035z" transform="scale(-.6)" class="B C D F H I J"/></marker><marker orient="auto" refY="0" refX="0" id="B" class="G"><path d="M8.72 4.034L-2.207.016 8.72-4.002c-1.745 2.372-1.735 5.617 0 8.035z" transform="scale(-.6)" class="B C D F H I J"/></marker><marker orient="auto" refY="0" refX="0" id="C" class="G"><path d="M8.72 4.034L-2.207.016 8.72-4.002c-1.745 2.372-1.735 5.617 0 8.035z" transform="scale(-.6)" class="B C D F H I J"/></marker><marker orient="auto" refY="0" refX="0" id="D" class="G"><path d="M8.72 4.034L-2.207.016 8.72-4.002c-1.745 2.372-1.735 5.617 0 8.035z" transform="scale(-.6)" class="B C D F H I J"/></marker><marker orient="auto" refY="0" refX="0" id="E" class="G"><path d="M8.72 4.034L-2.207.016 8.72-4.002c-1.745 2.372-1.735 5.617 0 8.035z" transform="scale(-.6)" class="B C D F H I J"/></marker><marker id="F" refX="0" refY="0" orient="auto" class="G"><path transform="scale(-.6)" d="M8.72 4.034L-2.207.016 8.72-4.002c-1.745 2.372-1.735 5.617 0 8.035z" class="B C D F H I J"/></marker><marker id="G" refX="0" refY="0" orient="auto" class="G"><path transform="scale(-.6)" d="M8.72 4.034L-2.207.016 8.72-4.002c-1.745 2.372-1.735 5.617 0 8.035z" class="B C D F H I J"/></marker><marker orient="auto" refY="0" refX="0" id="H" class="G"><path d="M8.72 4.034L-2.207.016 8.72-4.002c-1.745 2.372-1.735 5.617 0 8.035z" transform="scale(-.6)" class="B C D F H I J"/></marker><marker orient="auto" refY="0" refX="0" id="I" class="G"><path d="M8.72 4.034L-2.207.016 8.72-4.002c-1.745 2.372-1.735 5.617 0 8.035z" transform="scale(-.6)" class="B C D F H I J"/></marker><marker id="J" refX="0" refY="0" orient="auto" class="G"><path transform="scale(-.6)" d="M8.72 4.034L-2.207.016 8.72-4.002c-1.745 2.372-1.735 5.617 0 8.035z" class="B C D F H I J"/></marker><marker id="K" refX="0" refY="0" orient="auto" class="G"><path transform="scale(-.6)" d="M8.72 4.034L-2.207.016 8.72-4.002c-1.745 2.372-1.735 5.617 0 8.035z" class="B C D F H I J"/></marker><marker orient="auto" refY="0" refX="0" id="L" class="G"><path d="M8.72 4.034L-2.207.016 8.72-4.002c-1.745 2.372-1.735 5.617 0 8.035z" transform="scale(-.6)" class="B C D F H I J"/></marker><marker orient="auto" refY="0" refX="0" id="M" class="G"><path d="M8.72 4.034L-2.207.016 8.72-4.002c-1.745 2.372-1.735 5.617 0 8.035z" transform="scale(-.6)" class="B C D F H I J"/></marker><marker id="N" refX="0" refY="0" orient="auto" class="G"><path transform="scale(-.6)" d="M8.72 4.034L-2.207.016 8.72-4.002c-1.745 2.372-1.735 5.617 0 8.035z" class="B C D F H I J"/></marker><marker id="O" refX="0" refY="0" orient="auto" class="G"><path transform="scale(-.6)" d="M8.72 4.034L-2.207.016 8.72-4.002c-1.745 2.372-1.735 5.617 0 8.035z" class="B C D F H I J"/></marker><marker orient="auto" refY="0" refX="0" id="P" class="G"><path d="M8.72 4.034L-2.207.016 8.72-4.002c-1.745 2.372-1.735 5.617 0 8.035z" transform="scale(-.6)" class="B C D F H I J"/></marker><marker orient="auto" refY="0" refX="0" id="Q" class="G"><path d="M8.72 4.034L-2.207.016 8.72-4.002c-1.745 2.372-1.735 5.617 0 8.035z" transform="scale(-.6)" class="B C D F H I J"/></marker><marker id="R" refX="0" refY="0" orient="auto" class="G"><path transform="scale(-.6)" d="M8.72 4.034L-2.207.016 8.72-4.002c-1.745 2.372-1.735 5.617 0 8.035z" class="B C D F H I J"/></marker><marker id="S" refX="0" refY="0" orient="auto" class="G"><path transform="scale(-.6)" d="M8.72 4.034L-2.207.016 8.72-4.002c-1.745 2.372-1.735 5.617 0 8.035z" class="B C D F H I J"/></marker><marker orient="auto" refY="0" refX="0" id="T" class="G"><path d="M8.72 4.034L-2.207.016 8.72-4.002c-1.745 2.372-1.735 5.617 0 8.035z" transform="scale(-.6)" class="B C D F H I J"/></marker><marker orient="auto" refY="0" refX="0" id="U" class="G"><path d="M8.72 4.034L-2.207.016 8.72-4.002c-1.745 2.372-1.735 5.617 0 8.035z" transform="scale(-.6)" class="B C D F H I J"/></marker><marker id="V" refX="0" refY="0" orient="auto" class="G"><path transform="scale(-.6)" d="M8.72 4.034L-2.207.016 8.72-4.002c-1.745 2.372-1.735 5.617 0 8.035z" class="B C D F H I J"/></marker><marker id="W" refX="0" refY="0" orient="auto" class="G"><path transform="scale(-.6)" d="M8.72 4.034L-2.207.016 8.72-4.002c-1.745 2.372-1.735 5.617 0 8.035z" class="B C D F H I J"/></marker><marker orient="auto" refY="0" refX="0" id="X" class="G"><path d="M8.72 4.034L-2.207.016 8.72-4.002c-1.745 2.372-1.735 5.617 0 8.035z" transform="scale(-.6)" class="B C D F H I J"/></marker><marker orient="auto" refY="0" refX="0" id="Y" class="G"><path d="M8.72 4.034L-2.207.016 8.72-4.002c-1.745 2.372-1.735 5.617 0 8.035z" transform="scale(-.6)" class="B C D F H I J"/></marker><path id="Z" d="M106.186 971.036h1.086c.254 0 .38 0 .38-.254 0-.14-.127-.14-.34-.14h-1.05l.264-1.443.307-1.31c.114-.24.327-.43.594-.43.048 0 .378 0 .62.23-.555.046-.682.5-.682.68 0 .29.226.44.47.44.327 0 .692-.28.692-.758 0-.58-.583-.87-1.098-.87-.43 0-1.228.226-1.606 1.476-.074.266-.114.393-.416 1.986h-.87c-.243 0-.38 0-.38.238 0 .155.114.155.353.155h.834l-.95 4.99c-.226 1.225-.44 2.38-1.098 2.38-.05 0-.363 0-.606-.23a.68.68 0 0 0 .695-.682c0-.29-.226-.444-.47-.444-.327 0-.692.28-.692.76 0 .568.555.873 1.073.873.695 0 1.202-.746 1.428-1.228.403-.796.698-2.323.7-2.415z"/><path id="a" d="M112.245 973.672v-.086l-.005-.09-.005-.086-.008-.086-.008-.09-.013-.086-.03-.167-.02-.084-.02-.08-.023-.08-.025-.08-.028-.076-.066-.147-.036-.068-.038-.068-.04-.063-.043-.06-.046-.056-.048-.056-.053-.05-.053-.046-.056-.043-.06-.038-.06-.033-.066-.028-.068-.025-.07-.018-.074-.015-.076-.008-.08-.003-.008.246c.563 0 .563.982.563 1.15 0 .345-.07.86-.254 1.6h-2.047c.454-1.9 1.215-2.75 1.737-2.75l.008-.246c-1.33 0-2.742 2.37-2.742 4.4 0 1.055.408 1.918 1.22 1.918l.008-.246c-.484 0-.563-.672-.563-1.15 0-.58.167-1.27.254-1.6h2.044c-.25.964-.45 1.443-.715 1.874-.274.46-.626.875-1.02.875l-.008.246c1.344 0 2.742-2.412 2.742-4.4z"/><path id="b" d="M151.9 1009.116l.676-.657c.994-.88 1.378-1.224 1.378-1.862 0-.73-.574-1.24-1.352-1.24a1.18 1.18 0 0 0-1.195 1.156c0 .357.32.357.338.357.1 0 .333-.077.333-.338 0-.166-.114-.333-.338-.333-.05 0-.064 0-.082.006.146-.415.5-.65.86-.65.58 0 .855.52.855 1.04 0 .5-.32 1.014-.67 1.4l-1.224 1.365c-.073.07-.073.082-.073.236h2.368l.18-1.1h-.16c-.032.192-.076.473-.14.57-.046.05-.466.05-.606.05z"/><path id="c" d="M151.182 999.297l-.003-.005v-.016l-.003-.005v-.005l-.003-.005v-.005l-.008-.016-.003-.008-.005-.01-.013-.013-.003-.005-.005-.005-.005-.003-.005-.005-.005-.003-.005-.005-.008-.003-.005-.003-.008-.003h-.005-.008l-.008-.003h-.008l-.008-.003h-.008c-.148 0-.682.534-.907.923-.298-.722-.818-.934-1.245-.934v.292c.867 0 1.057 1.08 1.057 1.173 0 .086-.735 3.01-.775 3.067-.2.373-.947 1.226-1.698 1.226h0c-.802 0-.856-1.03-.856-1.256 0-.64.386-2.098.617-2.66.41-1 1.105-1.55 1.656-1.55v-.292c-1.578 0-3.22 1.978-3.22 3.915 0 1.307.79 2.14 1.76 2.14.58 0 1.1-.32 1.58-.802l-.604 2.396c-.105.373-.212.427-.96.44-.174 0-.31 0-.31.268 0 .01 0 .145.174.145l1.34-.04 1.374.04c.067 0 .24 0 .24-.268 0-.145-.13-.145-.343-.145-.644 0-.644-.097-.644-.215 0-.097.03-.177.054-.292z"/><path id="d" d="M351.73 1006.544h.627c.133 0 .2 0 .2-.134 0-.074-.067-.074-.186-.074h-.588l.273-1.12c0-.114-.08-.18-.19-.18-.02 0-.208.007-.268.24l-.26 1.06h-.628c-.134 0-.2 0-.2.126 0 .082.055.082.19.082h.585l-.506 2.128c0 .36.253.613.613.613.68 0 1.06-.973 1.06-1.027 0-.067-.052-.067-.08-.067-.062 0-.067.02-.1.094-.287.692-.64.853-.866.853-.14 0-.208-.087-.208-.307 0-.16.012-.208.04-.32z"/><path id="e" d="M196.155 1019.2v-.062l-.005-.066-.02-.123-.014-.057-.02-.062-.02-.057-.047-.114-.057-.104-.033-.052-.033-.047-.038-.047-.043-.047-.038-.043-.047-.043-.043-.038-.047-.038-.047-.033-.104-.066-.057-.028-.052-.024-.057-.024-.062-.02-.057-.02-.062-.014-.123-.02-.062-.005h-.066a1.26 1.26 0 0 0-1.25 1.25 1.26 1.26 0 0 0 1.25 1.25 1.26 1.26 0 0 0 1.25-1.25z"/><path id="f" d="M206.6 1019.2v-.062l-.005-.066-.02-.123-.014-.057-.02-.062-.02-.057-.047-.114-.057-.104-.033-.052-.038-.047-.033-.047-.043-.047-.085-.085-.043-.038-.047-.038-.052-.033-.047-.033-.052-.033-.057-.028-.052-.024-.057-.024-.062-.02-.057-.02-.062-.014-.123-.02-.062-.005h-.066a1.26 1.26 0 0 0-1.25 1.25 1.26 1.26 0 0 0 1.25 1.25 1.26 1.26 0 0 0 1.25-1.25z"/><path id="g" d="M217.06 1019.2v-.062l-.005-.066-.02-.123-.014-.057-.02-.062-.038-.114-.028-.057-.057-.104-.033-.052-.033-.047-.076-.095-.085-.085-.095-.076-.047-.033-.104-.066-.052-.028-.114-.047-.057-.02-.062-.02-.062-.014-.123-.02-.062-.005h-.066c-.677 0-1.25.568-1.25 1.25s.573 1.25 1.25 1.25c.69 0 1.25-.568 1.25-1.25z"/><path id="h" d="M59.04 1035.4l-.008.04-.01.04-.008.038-.008.035-.01.035-.008.03-.01.032-.008.027-.01.027-.02.048-.013.02-.027.038-.016.02-.016.016-.038.027-.02.01-.048.02-.027.008-.03.008-.032.005-.035.005-.016.003-.038.005-.02.003h-.02l-.02.003h-.02l-.024.003h-.097l-.027.003h-.027c-.16 0-.306 0-.306.25 0 .1.067.164.172.164l1.122-.04 1.325.04c.067 0 .24 0 .24-.268 0-.145-.134-.145-.32-.145-.67 0-.67-.097-.67-.215 0-.164.563-2.34.66-2.675.172.386.545.856 1.23.856l-.013-.295c-.885 0-1.057-1.11-1.057-1.19 0-.027 0-.056.038-.215l.66-2.62c.09-.36.45-.733.7-.934.47-.416.86-.507 1.087-.507.53 0 .856.464.856 1.258 0 .786-.44 2.32-.684 2.833-.453.934-1.095 1.374-1.588 1.374l.013.295c1.55 0 3.22-1.95 3.22-3.917 0-1.256-.76-2.136-1.78-2.136-.665 0-1.307.478-1.747 1-.134-.722-.71-1-1.205-1-.617 0-.872.518-1 .757-.24.46-.413 1.258-.413 1.3 0 .134.134.134.158.134.134 0 .148-.02.225-.31.23-.947.496-1.588.977-1.588.228 0 .416.105.416.612 0 .31-.04.456-.09.684z"/></defs><g transform="matrix(1.999873 0 0 1.999873 -.052423 -1924.638916)"><g fill="#fff" stroke-width=".513" class="D F"><path d="M539.382 993.7h17.18v51.02h-17.18zm-85.358 0h17.18v51.02h-17.18zm-113.734 0h17.18v51.02H340.3zm-87.384 0h17.18v51.02h-17.18zm-112.156 0h17.18v51.02h-17.18z" stroke-linecap="round" stroke-dasharray="0.51259929, 1.53779787"/><path d="M53.03 992.196h17.18v51.02H53.03z"/></g><g class="C E"><path d="M63.534 999.297l-.003-.005v-.016l-.003-.005v-.005l-.003-.005v-.005l-.008-.016-.003-.008-.005-.01-.013-.013-.003-.005-.005-.005-.005-.003-.005-.005-.005-.003-.005-.005-.008-.003-.005-.003-.008-.003h-.005-.008l-.008-.003h-.008l-.008-.003H63.4c-.148 0-.682.534-.907.923-.298-.722-.818-.934-1.245-.934v.292c.867 0 1.057 1.08 1.057 1.173 0 .086-.735 3.01-.775 3.067-.2.373-.947 1.226-1.698 1.226h0c-.802 0-.856-1.03-.856-1.256 0-.64.386-2.098.617-2.66.41-1 1.105-1.55 1.656-1.55v-.292c-1.578 0-3.22 1.978-3.22 3.915 0 1.307.79 2.14 1.76 2.14.58 0 1.1-.32 1.58-.802l-.604 2.396c-.105.373-.212.427-.96.44-.174 0-.31 0-.31.268 0 .01 0 .145.174.145l1.34-.04 1.374.04c.067 0 .24 0 .24-.268 0-.145-.13-.145-.343-.145-.644 0-.644-.097-.644-.215 0-.097.03-.177.054-.292z" letter-spacing="normal"/><g letter-spacing="normal" class="B K"><use xlink:href="#Z"/><use xlink:href="#a"/></g></g><g class="D L"><path d="M61.208 990.268s10.548-16.382 37.248-16.382" stroke-width=".693"/><path d="M117.052 973.766s26.418-1.795 32.875 17.505" marker-end="url(#A)" class="M"/></g><g class="C E"><path d="M463.34 1036.103l.002-.01.001-.007.007-.03.007-.027.004-.01.004-.012.004-.01.007-.02.007-.017.01-.022.007-.012.004-.005.005-.005.004-.005h.01l.01-.007.005-.002.006-.004.005-.002.006-.002.005-.001h.006l.007-.001.006-.002c.055-.014.258-.014.386-.014.62 0 .895.026.895.505a4.52 4.52 0 0 1-.048.49.91.91 0 0 0-.02.116c0 .037.02.08.073.08.07 0 .08-.05.092-.143l.166-1.066c.007-.025.014-.086.014-.106 0-.066-.062-.066-.166-.066h-3.403c-.15 0-.154.007-.197.123l-.367 1.078a.7.7 0 0 0-.037.112c0 .037.03.068.074.068.062 0 .066-.03.103-.13.33-.95.5-1.062 1.398-1.062h.24c.172 0 .172.026.172.074a.56.56 0 0 1-.025.128l-.82 3.275c-.055.228-.075.294-.73.294-.222 0-.257 0-.257.118 0 .073.066.073.103.073l1.025-.02.5.01.533.01c.062 0 .134 0 .134-.123 0-.068-.048-.068-.208-.068-.154 0-.233 0-.4-.01-.18-.02-.228-.037-.228-.134 0-.01 0-.04.023-.13zm3.624 2.002h.03l.014-.001h.007l.007-.001h.006l.007-.001.013-.002.02-.005.01-.004h.005l.005-.003.005-.004.005-.003.004-.005.004-.004.008-.01h.001l.002-.003.001-.003.002-.003v-.015l.002-.007v-.004l.001-.004v-.008c0-.1-.083-.1-.16-.1H464.5c-.077 0-.158 0-.158.1s.08.1.158.1zm1.866-2.19v-.085-.004l-.001-.01v-.008l-.003-.006-.001-.006-.008-.016-.003-.004-.008-.008-.005-.004v-.005h-.004l-.003-.001h-.007l-.004-.001h-.004l-.004-.001h-.004l-.005-.001h-.01l-.004-.001h-.026l-.006-.001h-.025c-.388.4-.938.4-1.138.4v.195c.126 0 .494 0 .818-.163v3.243c0 .226-.018.3-.58.3h-.2v.195c.22-.02.764-.02 1.014-.02l1.014.02v-.195h-.2c-.563 0-.583-.068-.583-.3zm-404.02-.8v-.06l-.001-.005v-.02l-.001-.004-.001-.01V1035l-.003-.006-.001-.006-.008-.016-.003-.004-.008-.008-.005-.004-.01-.005h-.004-.003-.004-.003l-.004-.001h-.004l-.004-.001h-.004l-.005-.001h-.01l-.004-.001h-.06c-.396.408-.957.408-1.16.408v.198c.128 0 .503 0 .834-.166v3.305c0 .23-.018.306-.592.306h-.205v.198c.224-.02.78-.02 1.033-.02l1.033.02v-.198H65.4c-.574 0-.594-.07-.594-.306z" letter-spacing="normal"/><use xlink:href="#b" letter-spacing="normal"/><use xlink:href="#c" letter-spacing="normal"/><path d="M260.38 999.297v-.005-.016l-.003-.005v-.005l-.003-.005v-.005l-.008-.016-.003-.008-.005-.01-.013-.013-.003-.005-.005-.005-.005-.003-.005-.005-.005-.003-.005-.005-.008-.003-.005-.003-.008-.003h-.005-.008l-.008-.003h-.008l-.008-.003h-.008c-.148 0-.682.534-.907.923-.298-.722-.818-.934-1.245-.934v.292c.867 0 1.057 1.08 1.057 1.173 0 .086-.735 3.01-.775 3.067-.2.373-.947 1.226-1.698 1.226h0c-.802 0-.856-1.03-.856-1.256 0-.64.386-2.098.617-2.66.41-1 1.105-1.55 1.656-1.55v-.292c-1.578 0-3.22 1.978-3.22 3.915 0 1.307.79 2.14 1.76 2.14.58 0 1.1-.32 1.58-.802l-.604 2.396c-.105.373-.212.427-.96.44-.174 0-.31 0-.31.268 0 .01 0 .145.174.145l1.34-.04 1.374.04c.067 0 .24 0 .24-.268 0-.145-.13-.145-.343-.145-.644 0-.644-.097-.644-.215 0-.097.03-.177.054-.292z" letter-spacing="normal"/><use xlink:href="#c" x="200.108" letter-spacing="normal"/><use xlink:href="#c" x="310.033" letter-spacing="normal"/><use xlink:href="#c" x="397.68" letter-spacing="normal"/><path d="M64.81 1005.036v-.06l-.001-.005v-.02l-.001-.004-.001-.01v-.008l-.003-.006-.001-.006-.003-.006-.005-.01-.003-.004-.008-.008-.005-.004-.01-.005h-.004l-.003-.001h-.004l-.003-.001-.004-.001h-.004l-.004-.001h-.004l-.005-.001h-.01l-.004-.001h-.027-.006-.026c-.396.408-.957.408-1.16.408v.198c.128 0 .503 0 .834-.166v3.305c0 .23-.018.306-.592.306h-.205v.198c.224-.02.78-.02 1.033-.02l1.033.02v-.198h-.204c-.574 0-.594-.07-.594-.306z" letter-spacing="normal"/><use xlink:href="#b" x="-0.817" y="30.017" letter-spacing="normal"/><path d="M463.24 1006.006v-.01-.007l.007-.03.007-.027.004-.01.004-.012h.004.007l.007-.017.01-.022.007-.012.004-.005.005-.005.004-.005.01-.01.01-.007.005-.002.006-.004h.005l.006-.002.005-.001.006-.002.007-.001.006-.002c.055-.014.258-.014.386-.014.62 0 .895.026.895.505a4.52 4.52 0 0 1-.048.49.91.91 0 0 0-.02.116c0 .037.02.08.073.08.07 0 .08-.05.092-.143l.166-1.066c.007-.025.014-.086.014-.106 0-.066-.062-.066-.166-.066h-3.403c-.15 0-.154.007-.197.123l-.367 1.078a.7.7 0 0 0-.037.112c0 .037.03.068.074.068.062 0 .066-.03.103-.13.33-.95.5-1.062 1.398-1.062h.24c.172 0 .172.026.172.074a.56.56 0 0 1-.025.128l-.82 3.275c-.055.228-.075.294-.73.294-.222 0-.257 0-.257.118 0 .073.066.073.103.073l1.025-.02.5.01.533.01c.062 0 .134 0 .134-.123 0-.068-.048-.068-.208-.068-.154 0-.233 0-.4-.01-.18-.02-.228-.037-.228-.134 0-.01 0-.04.023-.13zm3.622 2.002h.03l.014-.001h.007l.007-.001h.013l.013-.002.02-.005.01-.004.01-.006.005-.004.005-.003.004-.005.004-.004.008-.01.001-.003.002-.003.001-.003.002-.003v-.004l.001-.003v-.004-.015-.004-.008c0-.1-.083-.1-.16-.1h-2.46c-.077 0-.158 0-.158.1s.08.1.158.1zm1.868-2.188v-.06-.005-.02l-.001-.004-.001-.01v-.008l-.003-.006-.001-.006v-.006l-.005-.01-.003-.004-.008-.008-.005-.004-.01-.005-.004-.001-.003-.001h-.004l-.003-.001h-.004-.012-.005-.01l-.004-.001h-.026l-.006-.001h-.025c-.388.4-.938.4-1.138.4v.195c.126 0 .494 0 .818-.163v3.243c0 .226-.018.3-.58.3h-.2v.195c.22-.02.764-.02 1.014-.02l1.014.02v-.195h-.2c-.563 0-.583-.068-.583-.3zm82.182 30.247l.003-.01.001-.008.008-.03.008-.028.004-.01.004-.013.012-.03.008-.018.01-.023.008-.013.004-.005.005-.005.004-.005.01-.01.01-.008.005-.003.006-.004.005-.003.006-.003.005-.001.006-.003.008-.001.006-.003c.057-.014.265-.014.396-.014.634 0 .916.026.916.517a4.63 4.63 0 0 1-.049.501.97.97 0 0 0-.02.118c0 .038.02.083.074.083.072 0 .083-.052.095-.146l.17-1.1a.58.58 0 0 0 .014-.108c0-.068-.063-.068-.17-.068H549c-.152 0-.158.008-.202.126l-.375 1.104a.68.68 0 0 0-.038.115c0 .038.03.07.076.07.063 0 .068-.032.106-.132.34-.973.5-1.087 1.43-1.087h.244c.176 0 .176.026.176.076 0 .04-.02.113-.025.13l-.84 3.353c-.057.233-.077.3-.748.3-.227 0-.263 0-.263.12 0 .074.068.074.106.074l1.05-.02 1.068.02c.063 0 .137 0 .137-.126 0-.07-.05-.07-.213-.07s-.238 0-.4-.01c-.184-.02-.233-.038-.233-.137 0-.01 0-.04.024-.132zm.234-30.07l.003-.01v-.008l.008-.03.008-.028.004-.01.004-.013.012-.03.008-.018.01-.023.008-.013.004-.005.005-.005.004-.005.01-.01.01-.008.005-.003.006-.004.005-.003.006-.003h.005l.006-.003.008-.001.006-.003c.057-.014.265-.014.396-.014.634 0 .916.026.916.517a4.63 4.63 0 0 1-.049.501.97.97 0 0 0-.02.118c0 .038.02.083.074.083.072 0 .083-.052.095-.146l.17-1.1a.58.58 0 0 0 .014-.108c0-.068-.063-.068-.17-.068h-3.484c-.152 0-.158.008-.202.126l-.375 1.104a.68.68 0 0 0-.038.115c0 .038.03.07.076.07.063 0 .068-.032.106-.132.34-.973.5-1.087 1.43-1.087h.244c.176 0 .176.026.176.076 0 .04-.02.113-.025.13l-.84 3.353c-.057.233-.077.3-.748.3-.227 0-.263 0-.263.12 0 .074.068.074.106.074l1.05-.02 1.068.02c.063 0 .137 0 .137-.126 0-.07-.05-.07-.213-.07s-.238 0-.4-.01c-.184-.02-.233-.038-.233-.137 0-.01 0-.04.024-.132z" letter-spacing="normal"/><use xlink:href="#d" letter-spacing="normal"/><use xlink:href="#d" x="-0.205" y="29.836" letter-spacing="normal"/><path d="M265.27 1037.412h.03l.014-.001h.007l.007-.001h.006l.007-.001.013-.002.02-.005.01-.004.01-.006.005-.004.005-.003.004-.005.004-.004.008-.01v-.003l.002-.003.001-.003.002-.003.001-.004.001-.003.001-.004v-.004l.002-.007v-.016c0-.1-.083-.1-.16-.1h-2.462c-.077 0-.158 0-.158.1s.08.1.158.1zm1.867-2.19v-.06l-.001-.005v-.02l-.001-.004-.001-.01v-.008l-.003-.006v-.006l-.003-.006h-.005l-.003-.004-.008-.008-.005-.004-.01-.005-.004-.001-.003-.001h-.004l-.003-.001-.004-.001h-.004l-.004-.001h-.004l-.005-.001h-.01-.004-.057c-.388.4-.938.4-1.138.4v.195c.126 0 .494 0 .818-.163v3.243c0 .226-.018.3-.58.3h-.2v.195c.22-.02.764-.02 1.014-.02l1.014.02v-.195h-.2c-.563 0-.583-.068-.583-.3z" letter-spacing="normal"/><use xlink:href="#d" x="-90.765" y="29.856" letter-spacing="normal"/><path d="M265.64 1007.295h.03l.014-.001h.007l.007-.001h.006l.007-.001.013-.002.02-.005.01-.004h.005l.005-.003.005-.004.005-.003.004-.005.004-.004.008-.01h.001l.002-.003.001-.003.002-.003.001-.004v-.003l.001-.004v-.004l.002-.007v-.016c0-.1-.083-.1-.16-.1h-2.462c-.077 0-.158 0-.158.1s.08.1.158.1zm1.867-2.19v-.06l-.001-.005v-.02l-.001-.004-.001-.01V1005l-.003-.006v-.006l-.008-.016-.003-.004-.008-.008-.005-.004-.01-.005h-.004-.01l-.004-.001h-.004l-.004-.001h-.004l-.005-.001h-.01l-.004-.001h-.026l-.006-.001h-.025c-.388.4-.938.4-1.138.4v.195c.126 0 .494 0 .818-.163v3.243c0 .226-.018.3-.58.3h-.2v.195c.22-.02.764-.02 1.014-.02l1.014.02v-.195h-.2c-.563 0-.583-.068-.583-.3z" letter-spacing="normal"/><use xlink:href="#d" x="-90.395" y="-0.262" letter-spacing="normal"/><g letter-spacing="normal" class="B K"><use xlink:href="#Z" x="198.854" y="0.119"/><use xlink:href="#a" x="198.855" y="0.128"/></g></g><g class="D L M"><path d="M260.072 991.894s10.543-17.868 37.23-17.868"/><path d="M315.908 973.885s26.418-1.795 32.875 17.505" marker-end="url(#B)"/></g><g letter-spacing="normal" class="B C E K"><use xlink:href="#Z" x="399.311" y="0.119"/><use xlink:href="#a" x="399.312" y="0.128"/></g><g class="D L M"><path d="M460.528 991.894s10.543-17.868 37.23-17.868"/><path d="M516.363 973.885S542.78 972.1 549.24 991.4" marker-end="url(#C)"/><path d="M72.313 1002.253h64.807" marker-end="url(#G)"/><path d="M72.525 1032.367h64.807" marker-end="url(#F)"/><path d="M72.642 1029.166l64.478-19.247" marker-end="url(#E)"/><path d="M72.63 1004.216l64.204 23.077" marker-end="url(#D)"/><path d="M271.998 1002.252h64.807" marker-end="url(#K)"/><path d="M272.2 1032.366h64.807" marker-end="url(#J)"/><path d="M272.327 1029.166l64.478-19.247" marker-end="url(#I)"/><path d="M272.315 1004.216l64.204 23.077" marker-end="url(#H)"/><path d="M472.307 1002.252h64.807" marker-end="url(#O)"/><path d="M472.52 1032.366h64.807" marker-end="url(#N)"/><path d="M472.636 1029.166l64.478-19.247" marker-end="url(#M)"/><path d="M472.624 1004.216l64.204 23.077" marker-end="url(#L)"/><path d="M161.572 1003.11h25.27"/><path d="M221.702 1002.84h25.49" marker-end="url(#S)"/><path d="M161.655 1034.542h25.27"/><path d="M221.786 1034.8h25.49" marker-end="url(#R)"/><path d="M161.61 1031.853l25.14-20.1"/><path d="M161.55 1006.26l25.14 20.1"/><path d="M221.694 1031.6l25.362-20.432" marker-end="url(#Q)"/><path d="M221.634 1005.56l25.362 20.432" marker-end="url(#P)"/></g><g letter-spacing="normal" class="B C E K"><use xlink:href="#e"/><use xlink:href="#f"/><use xlink:href="#g"/></g><g class="D L M"><path d="M363.107 1003.11h25.27"/><path d="M423.237 1002.84h25.49" marker-end="url(#W)"/><path d="M363.2 1034.542h25.27"/><path d="M423.32 1034.81h25.49" marker-end="url(#V)"/><path d="M363.146 1031.853l25.14-20.1"/><path d="M363.086 1006.26l25.14 20.1"/><path d="M423.23 1031.6l25.362-20.432" marker-end="url(#U)"/><path d="M423.168 1005.56l25.362 20.432" marker-end="url(#T)"/></g><g letter-spacing="normal" class="B C E K"><use xlink:href="#e" x="200.331"/><use xlink:href="#f" x="200.34"/><use xlink:href="#g" x="200.34"/></g><g class="D L"><path d="M152.743 991.306s10.14-17.79 35.807-17.79" class="M"/><path d="M222.418 973.404s28.7-1.79 35.717 17.46" marker-end="url(#X)" class="N"/></g><g letter-spacing="normal" class="B C E K"><use xlink:href="#e" y="-45.356"/><use xlink:href="#f" y="-45.356"/><use xlink:href="#g" y="-45.356"/></g><g class="D L"><path d="M353.074 991.724s10.14-17.79 35.807-17.79" class="M"/><path d="M422.75 973.82s28.7-1.79 35.717 17.46" marker-end="url(#Y)" class="N"/></g><g class="C E"><g letter-spacing="normal" class="B K"><use xlink:href="#e" x="200.331" y="-44.938"/><use xlink:href="#f" x="200.34" y="-44.938"/><use xlink:href="#g" x="200.34" y="-44.938"/></g><use xlink:href="#h" letter-spacing="normal"/><use xlink:href="#h" x="87.22" y="0.17" letter-spacing="normal"/><use xlink:href="#h" x="197.314" y="0.16" letter-spacing="normal"/><use xlink:href="#h" x="287.38" y="0.495" letter-spacing="normal"/><use xlink:href="#h" x="397.537" y="0.695" letter-spacing="normal"/><use xlink:href="#h" x="485.26" y="0.495" letter-spacing="normal"/></g></g></svg>