<svg xmlns="http://www.w3.org/2000/svg" xmlns:xlink="http://www.w3.org/1999/xlink" width="766.67" height="219.396" viewBox="0 0 383.335 109.698" xmlns:v="https://vecta.io/nano"><style><![CDATA[.B{stroke-miterlimit:10}.C{stroke-linejoin:round}.D{fill:none}.E{clip-rule:nonzero}.F{stroke-linecap:square}.G{stroke-width:.8}.H{stroke-opacity:.3}.I{stroke:rgb(0%, 0%, 0%)}.J{stroke:rgb(69.018555%, 69.018555%, 69.018555%)}.K{fill:rgb(0%, 0%, 0%)}.L{fill-opacity:.3}.M{stroke-width:.2}.N{stroke-opacity:.9}.O{stroke:rgb(58.03833%, 40.391541%, 74.116516%)}.P{stroke:rgb(100%, 49.803162%, 5.490112%)}.Q{stroke:rgb(12.156677%, 46.665955%, 70.587158%)}.R{fill:rgb(58.03833%, 40.391541%, 74.116516%)}.S{fill:rgb(100%, 49.803162%, 5.490112%)}.T{fill:rgb(12.156677%, 46.665955%, 70.587158%)}.U{fill:rgb(100%, 100%, 100%)}.V{stroke-width:.7}.W{stroke-width:1.5}]]></style><defs><clipPath id="A"><path d="M33.629 57h72.617v4H33.629zm0 0" class="E"/></clipPath><clipPath id="B"><path d="M33.629 56h72.617v5H33.629zm0 0" class="E"/></clipPath><clipPath id="C"><path d="M33.629 36h72.617v25H33.629zm0 0" class="E"/></clipPath><clipPath id="D"><path d="M33.629 34h72.617v27H33.629zm0 0" class="E"/></clipPath><clipPath id="E"><path d="M33.629 19h72.617v42H33.629zm0 0" class="E"/></clipPath><clipPath id="F"><path d="M33.629 16.566H35v45.238h-1.371zm0 0" class="E"/></clipPath><clipPath id="G"><path d="M57 16.566h2v45.238h-2zm0 0" class="E"/></clipPath><clipPath id="H"><path d="M81 16.566h2v45.238h-2zm0 0" class="E"/></clipPath><clipPath id="I"><path d="M105 16.566h1.246v45.238H105zm0 0" class="E"/></clipPath><clipPath id="J"><path d="M33.629 61h72.617v.805H33.629zm0 0" class="E"/></clipPath><clipPath id="K"><path d="M33.629 49h72.617v3H33.629zm0 0" class="E"/></clipPath><clipPath id="L"><path d="M33.629 38h72.617v2H33.629zm0 0" class="E"/></clipPath><clipPath id="M"><path d="M33.629 27h72.617v2H33.629zm0 0" class="E"/></clipPath><clipPath id="N"><path d="M33.629 16.566h72.617V18H33.629zm0 0" class="E"/></clipPath><clipPath id="O"><path d="M33.629 57h72.617v3H33.629zm0 0" class="E"/></clipPath><clipPath id="P"><path d="M33.629 37h72.617v23H33.629zm0 0" class="E"/></clipPath><clipPath id="Q"><path d="M33.629 35h72.617v25H33.629zm0 0" class="E"/></clipPath><clipPath id="R"><path d="M33.629 21h72.617v39H33.629zm0 0" class="E"/></clipPath><clipPath id="S"><path d="M213.762 57h72.617v4h-72.617zm0 0" class="E"/></clipPath><clipPath id="T"><path d="M213.762 56h72.617v5h-72.617zm0 0" class="E"/></clipPath><clipPath id="U"><path d="M213.762 19h72.617v42h-72.617zm0 0" class="E"/></clipPath><clipPath id="V"><path d="M213.762 18h72.617v43h-72.617zm0 0" class="E"/></clipPath><clipPath id="W"><path d="M213.762 16.566h72.617V61h-72.617zm0 0" class="E"/></clipPath><clipPath id="X"><path d="M213.762 16.566H215v45.238h-1.238zm0 0" class="E"/></clipPath><clipPath id="Y"><path d="M237 16.566h2v45.238h-2zm0 0" class="E"/></clipPath><clipPath id="Z"><path d="M261 16.566h2v45.238h-2zm0 0" class="E"/></clipPath><clipPath id="a"><path d="M285 16.566h1.379v45.238H285zm0 0" class="E"/></clipPath><clipPath id="b"><path d="M213.762 61h72.617v.805h-72.617zm0 0" class="E"/></clipPath><clipPath id="c"><path d="M213.762 49h72.617v3h-72.617zm0 0" class="E"/></clipPath><clipPath id="d"><path d="M213.762 38h72.617v2h-72.617zm0 0" class="E"/></clipPath><clipPath id="e"><path d="M213.762 27h72.617v2h-72.617zm0 0" class="E"/></clipPath><clipPath id="f"><path d="M213.762 16.566h72.617V18h-72.617zm0 0" class="E"/></clipPath><clipPath id="g"><path d="M213.762 57h72.617v3h-72.617zm0 0" class="E"/></clipPath><clipPath id="h"><path d="M213.762 20h72.617v40h-72.617zm0 0" class="E"/></clipPath><clipPath id="i"><path d="M213.762 18h72.617v42h-72.617zm0 0" class="E"/></clipPath><clipPath id="j"><path d="M123.695 57H124v4h-.305zm0 0" class="E"/></clipPath><clipPath id="k"><path d="M123.695 56H124v5h-.305zm0 0" class="E"/></clipPath><clipPath id="l"><path d="M123.695 36H164v25h-40.305zm0 0" class="E"/></clipPath><clipPath id="m"><path d="M123.695 34H192v27h-68.305zm0 0" class="E"/></clipPath><clipPath id="n"><path d="M123.695 34H193v27h-69.305zm0 0" class="E"/></clipPath><clipPath id="o"><path d="M123.695 19H177v42h-53.305zm0 0" class="E"/></clipPath><clipPath id="p"><path d="M123.695 16.566H125v45.238h-1.305zm0 0" class="E"/></clipPath><clipPath id="q"><path d="M147 16.566h2v45.238h-2zm0 0" class="E"/></clipPath><clipPath id="r"><path d="M171 16.566h2v45.238h-2zm0 0" class="E"/></clipPath><clipPath id="s"><path d="M195 16.566h1.313v45.238H195zm0 0" class="E"/></clipPath><clipPath id="t"><path d="M123.695 61h72.617v.805h-72.617zm0 0" class="E"/></clipPath><clipPath id="u"><path d="M123.695 49h72.617v3h-72.617zm0 0" class="E"/></clipPath><clipPath id="v"><path d="M123.695 38h72.617v2h-72.617zm0 0" class="E"/></clipPath><clipPath id="w"><path d="M123.695 27h72.617v2h-72.617zm0 0" class="E"/></clipPath><clipPath id="x"><path d="M123.695 16.566h72.617V18h-72.617zm0 0" class="E"/></clipPath><clipPath id="y"><path d="M123.695 57H125v3h-1.305zm0 0" class="E"/></clipPath><clipPath id="z"><path d="M123.695 37H165v23h-41.305zm0 0" class="E"/></clipPath><clipPath id="AA"><path d="M123.695 35H193v25h-69.305zm0 0" class="E"/></clipPath><clipPath id="AB"><path d="M123.695 21H178v39h-54.305zm0 0" class="E"/></clipPath><clipPath id="AC"><path d="M303.828 57H304v4h-.172zm0 0" class="E"/></clipPath><clipPath id="AD"><path d="M303.828 56H304v5h-.172zm0 0" class="E"/></clipPath><clipPath id="AE"><path d="M303.828 19H342v42h-38.172zm0 0" class="E"/></clipPath><clipPath id="AF"><path d="M303.828 19H343v42h-39.172zm0 0" class="E"/></clipPath><clipPath id="AG"><path d="M303.828 18H367v43h-63.172zm0 0" class="E"/></clipPath><clipPath id="AH"><path d="M303.828 18H368v43h-64.172zm0 0" class="E"/></clipPath><clipPath id="AI"><path d="M303.828 16.566H346V61h-42.172zm0 0" class="E"/></clipPath><clipPath id="AJ"><path d="M303.828 16.566H305v45.238h-1.172zm0 0" class="E"/></clipPath><clipPath id="AK"><path d="M327 16.566h2v45.238h-2zm0 0" class="E"/></clipPath><clipPath id="AL"><path d="M351 16.566h2v45.238h-2zm0 0" class="E"/></clipPath><clipPath id="AM"><path d="M375 16.566h1.445v45.238H375zm0 0" class="E"/></clipPath><clipPath id="AN"><path d="M303.828 61h72.617v.805h-72.617zm0 0" class="E"/></clipPath><clipPath id="AO"><path d="M303.828 49h72.617v3h-72.617zm0 0" class="E"/></clipPath><clipPath id="AP"><path d="M303.828 38h72.617v2h-72.617zm0 0" class="E"/></clipPath><clipPath id="AQ"><path d="M303.828 27h72.617v2h-72.617zm0 0" class="E"/></clipPath><clipPath id="AR"><path d="M303.828 16.566h72.617V18h-72.617zm0 0" class="E"/></clipPath><clipPath id="AS"><path d="M303.828 57H305v3h-1.172zm0 0" class="E"/></clipPath><clipPath id="AT"><path d="M303.828 20H343v40h-39.172zm0 0" class="E"/></clipPath><clipPath id="AU"><path d="M303.828 20H368v40h-64.172zm0 0" class="E"/></clipPath><clipPath id="AV"><path d="M303.828 18H347v42h-43.172zm0 0" class="E"/></clipPath><clipPath id="AW"><path d="M58 83h34v26.699H58zm0 0" class="E"/></clipPath><clipPath id="AX"><path d="M261 84h36v25.699h-36zm0 0" class="E"/></clipPath><path id="AY" d="M33.629 57.934v2.484h7.262l2.422-.168h12.102l2.422-.07 2.418-.156 2.422-.176h4.84l2.422-.176h4.84l2.422-.051h7.262l2.422-.027h19.363v-2.52H86.883l-2.422.031h-7.262l-2.422.039h-4.84l-2.422.254h-4.84l-2.422.141-2.418.176-2.422.051H43.313l-2.422.168zm0 0"/><path id="AZ" d="M28.643 72.019c.359.094.563.094.672.094.922 0 1.469-.625 1.469-.734 0-.078-.047-.094-.078-.094-.016 0-.031 0-.062.016-.172.063-.531.203-1.047.203-.203 0-.562-.016-1.016-.187-.078-.031-.094-.031-.094-.031-.094 0-.094.078-.094.188v2.047c0 .125 0 .203.109.203.063 0 .078 0 .141-.094.297-.375.734-.437.969-.437.422 0 .609.328.641.391.125.234.172.5.172.906 0 .203 0 .609-.219.922-.172.25-.469.422-.812.422-.453 0-.922-.25-1.094-.719.266.016.406-.156.406-.344 0-.297-.266-.344-.359-.344 0 0-.344 0-.344.375 0 .625.578 1.25 1.406 1.25.891 0 1.672-.656 1.672-1.547 0-.781-.594-1.5-1.453-1.5-.312 0-.672.063-.984.328zm0 0"/><path id="Aa" d="M35.128 73.691c0-.766-.094-1.328-.406-1.812-.219-.312-.656-.594-1.203-.594-1.625 0-1.625 1.906-1.625 2.406s0 2.359 1.625 2.359c1.609 0 1.609-1.859 1.609-2.359zm-1.609 2.156c-.328 0-.75-.187-.891-.75-.094-.406-.094-.984-.094-1.5s0-1.047.094-1.422a.91.91 0 0 1 .891-.703c.375 0 .734.234.859.641.109.375.125.875.125 1.484 0 .516 0 1.031-.094 1.469-.141.641-.609.781-.891.781zm0 0"/><path id="Ab" d="M37.752 74.019c.859-.656 1.094-.844 1.563-.859v-.25l-.469.031a14.13 14.13 0 0 1-.828-.031v.25c.078.016.125.063.125.125 0 .109-.141.234-.219.297l-1.031.797v-3.312l-1.047.078v.25c.469 0 .516.063.516.391v3.578c0 .297-.062.297-.516.297v.25l.766-.031.781.031v-.25c-.453 0-.531 0-.531-.297v-.672l.516-.391.75.953c.078.078.156.188.156.281 0 .109-.125.125-.187.125v.25l.781-.031c.203 0 .406.016.609.031v-.25c-.25 0-.406-.016-.609-.266zm0 0"/><path id="Ac" d="M52.818 73.629c0-.562.047-1.078.313-1.516.234-.375.609-.625 1.063-.625.203 0 .484.047.625.234-.172.016-.328.141-.328.344a.32.32 0 0 0 .328.328c.219 0 .344-.141.344-.344 0-.406-.297-.766-.984-.766-1 0-2.031.922-2.031 2.422 0 1.797.844 2.344 1.625 2.344.844 0 1.578-.656 1.578-1.562 0-.891-.703-1.547-1.516-1.547-.562 0-.859.375-1.016.688zm.953 2.203c-.359 0-.625-.203-.781-.516-.094-.203-.156-.562-.156-.969 0-.687.406-1.203.969-1.203a.79.79 0 0 1 .703.375c.172.266.172.563.172.969 0 .391 0 .688-.187.969-.156.234-.391.375-.719.375zm0 0"/><path id="Ad" d="M79.71 71.707c.063-.094.063-.109.063-.281h-1.828c-.281 0-.359-.016-.609-.031-.359-.031-.375-.078-.391-.187h-.234l-.25 1.484h.234c.016-.109.094-.562.203-.641.047-.031.625-.031.719-.031h1.516l-.719.922c-.906 1.188-1 2.297-1 2.703 0 .078 0 .406.328.406.344 0 .344-.312.344-.406v-.281c0-1.344.281-1.969.578-2.344zm0 0"/><path id="Ae" d="M102.651 73.394c.547-.266.891-.594.891-1.078 0-.672-.703-1.031-1.375-1.031-.766 0-1.391.5-1.391 1.156 0 .328.156.563.281.703.125.156.172.188.578.422-.391.172-1.078.547-1.078 1.281 0 .766.797 1.203 1.594 1.203.891 0 1.609-.562 1.609-1.312 0-.469-.266-.859-.672-1.094-.094-.062-.328-.187-.437-.25zm-1.125-.656c-.187-.109-.375-.297-.375-.562 0-.437.5-.687 1-.687.547 0 1.031.344 1.031.828 0 .625-.734.938-.734.938-.016 0-.031 0-.078-.031zm.328.969l.969.547c.172.109.516.313.516.719 0 .531-.578.859-1.172.859-.641 0-1.187-.422-1.187-.984 0-.516.375-.922.875-1.141zm0 0"/><path id="Af" d="M48.985 81.258c-.047-.109-.078-.187-.219-.187s-.156.047-.219.203l-1.922 5.328c-.109.297-.312.609-1 .609v.281c.328-.031.578-.031.906-.031l1.016.031v-.281c-.516 0-.672-.281-.672-.453 0-.078.031-.125.047-.172l.422-1.156h2.313l.484 1.359c.047.078.047.109.047.156 0 .266-.5.266-.734.266v.281c.406-.031.875-.031 1.281-.031l1.172.031v-.281h-.141c-.562 0-.656-.078-.75-.328zm.578 3.891h-2.125l1.063-2.937zm0 0"/><path id="Ag" d="M55.483 83.961c-.187.047-.375.172-.375.422a.42.42 0 0 0 .422.422c.234 0 .422-.156.422-.437 0-.547-.625-.891-1.422-.891-1.141 0-2 .953-2 2.078 0 1.156.922 2.031 1.984 2.031 1.25 0 1.531-1.078 1.531-1.156 0-.109-.094-.109-.125-.109-.094 0-.094.016-.156.172a1.18 1.18 0 0 1-1.156.844c-.578 0-1.312-.469-1.312-1.797 0-1.391.719-1.812 1.25-1.812.125 0 .609.016.938.234zm0 0"/><path id="Ah" d="M59.9 84.32c-.422-.719-.937-.797-1.25-.797a2.04 2.04 0 0 0-2.031 2.047c0 1.125.906 2.016 1.953 2.016.375 0 .844-.125 1.219-.625v1.578c0 .422-.094.422-.687.422v.266l1.031-.016 1.016.016v-.266c-.594 0-.687 0-.687-.422v-5.016h-.234zm-.078 1.938c0 .156 0 .188-.141.438-.219.391-.594.672-1.062.672-.672 0-1.234-.797-1.234-1.797 0-1.047.641-1.797 1.328-1.797.703 0 1.109.75 1.109 1.25zm0 0"/><path id="Ai" d="M64.712 85.992c0 .797-.437 1.375-1.094 1.375-.734 0-.781-.391-.781-.875v-2.969l-1.359.109v.266c.688 0 .688.031.688.828v1.344c0 .594 0 .969.422 1.281.25.172.625.234.984.234.469 0 .906-.203 1.156-.734h.016v.734l1.328-.094v-.281c-.609 0-.687-.062-.687-.5v-3.187l-1.359.109v.266c.609 0 .688.063.688.516zm0 0"/><path id="Aj" d="M67.932 83.523l-1.297.109v.266c.578 0 .656.063.656.5v2.406c0 .406-.094.406-.687.406v.281l.984-.031.953.031v-.281c-.578 0-.609-.047-.609-.391zm.016-1.562c0-.266-.203-.484-.484-.484a.5.5 0 0 0-.484.484c0 .266.219.484.484.484.281 0 .484-.203.484-.484zm0 0"/><path id="Ak" d="M71.91 83.711c0-.156 0-.234-.094-.234-.047 0-.062 0-.187.109-.016.016-.094.094-.156.141-.266-.203-.547-.25-.859-.25-1.187 0-1.469.656-1.469 1.109 0 .281.125.516.328.719.297.281.641.344 1.094.422.469.094.609.109.813.266.094.078.313.25.313.578 0 .797-.906.797-1.031.797-.906 0-1.141-.766-1.25-1.25-.031-.094-.047-.141-.141-.141-.125 0-.125.078-.125.234v1.141c0 .156 0 .234.094.234.063 0 .063 0 .234-.172a1.18 1.18 0 0 1 .172-.219c.375.375.797.391 1.016.391 1.109 0 1.484-.641 1.484-1.234 0-.406-.172-.656-.375-.859-.297-.297-.625-.359-1.281-.484-.234-.047-.891-.156-.891-.672 0-.281.203-.672 1.016-.672.969 0 1.031.75 1.047.969.016.109.016.172.125.172.125 0 .125-.062.125-.234zm0 0"/><path id="Al" d="M77.94 83.898v-.266h-1.312v-1.656h-.25c0 .75-.312 1.672-1.187 1.703v.219h.781v2.484c0 1 .719 1.203 1.203 1.203.594 0 .906-.562.906-1.203v-.516h-.25v.484c0 .672-.281.984-.594.984-.609 0-.609-.781-.609-.953v-2.484zm0 0"/><path id="Am" d="M85.495 85.586c0-1.172-.937-2.109-2.031-2.109-1.141 0-2.047.953-2.047 2.109 0 1.109.922 2 2.031 2 1.141 0 2.047-.906 2.047-2zm-2.031 1.75c-.453 0-.828-.219-1.031-.562-.234-.391-.25-.859-.25-1.266 0-.344 0-.844.219-1.219a1.22 1.22 0 0 1 1.047-.594c.516 0 .875.297 1.063.594.203.375.203.828.203 1.219 0 .328 0 .844-.219 1.234a1.18 1.18 0 0 1-1.031.594zm0 0"/><path id="An" d="M87.423 85.164c0-.953.672-1.406 1.234-1.406.531 0 .641.438.641.969v2.078c0 .406-.094.406-.687.406v.281l1.031-.031 1.016.031v-.281c-.453 0-.687 0-.687-.281v-1.719c0-.734 0-1-.25-1.312-.203-.25-.547-.375-1-.375-.828 0-1.219.625-1.344.875h-.016v-.875l-1.297.109v.266c.609 0 .688.063.688.516v2.391c0 .406-.094.406-.687.406v.281l1.031-.031 1.016.031v-.281c-.594 0-.687 0-.687-.406zm0 0"/><path id="Ao" d="M16.377 63.085v-.25h-.781v-3.109c0-.141 0-.203-.141-.203-.094 0-.125 0-.187.109l-2.312 3.203v.25h2.063v.563c0 .25 0 .328-.578.328h-.187v.25l1.047-.031 1.062.031v-.25h-.187c-.578 0-.578-.078-.578-.328v-.562zm-1.312-2.797v2.547h-1.844zm0 0"/><path id="Ap" d="M18.239 63.835a.4.4 0 0 0-.391-.406.4.4 0 0 0-.406.391.4.4 0 0 0 .391.406.4.4 0 0 0 .406-.391zm0 0"/><path id="Aq" d="M6.306 48.551c.375-.047.688-.312.688-.703a.77.77 0 0 0-.844-.781h-.5v.25h.484c.109 0 .547 0 .547.328 0 .313-.422.313-.562.313H4.541c-.516 0-.812 0-1.187.406-.297.328-.422.766-.422 1.219 0 .75.375 1.375.953 1.375a.4.4 0 0 0 .422-.422c0-.234-.172-.406-.406-.406-.391 0-.437.391-.437.406-.234-.25-.312-.687-.312-.937 0-.453.344-.969 1.141-.969h.281c.031.484.063 1.156.359 1.75.313.656.781.844 1.141.844.734 0 .969-.859.969-1.469a1.3 1.3 0 0 0-.734-1.203zm-.625.078a1.06 1.06 0 0 1 1.141 1.063c0 .422-.312.813-.75.813-.594 0-1.219-.5-1.281-1.875zm0 0"/><path id="Ar" d="M106.246 24.141a2.25 2.25 0 0 0 1.582-.656 2.24 2.24 0 0 0 .652-1.582c0-.594-.234-1.16-.652-1.582s-.988-.652-1.582-.652a2.24 2.24 0 0 0-1.582.652 2.25 2.25 0 0 0-.656 1.582 2.24 2.24 0 0 0 2.238 2.238zm0 0"/><path id="As" d="M213.762 57.934v2.484h7.262l2.422-.168h12.102l2.422-.07 2.418-.156 2.422-.176h4.84l2.422-.176h4.84l2.422-.051h7.262l2.418-.027h19.367v-2.52h-19.367l-2.418.031h-7.262l-2.422.039h-4.84l-2.422.254h-4.84l-2.422.141-2.418.176-2.422.051h-12.102l-2.422.168zm0 0"/><path id="At" d="M123.695 57.934v2.484h.008v-.168h.008l.004-.07v-.156l.004-.176h.004v-.176h.004l.004-.051h.004v-.027h.016v-2.52h-.016v.031h-.004l-.004.039h-.004v.254h-.004l-.004.141v.176l-.004.051h-.008v.168zm0 0"/><path id="Au" d="M123.695 57.934v2.484l1.418-3.168 1.516-3.301 1.59-1.437 1.648-1.82 1.711-1.883 1.75-1.492 1.801-2.172 1.84-.988 1.879-2.16 1.93-.23 1.977-.469 2.02-.41 2.066-.211 2.117-.035 2.16-.066 2.203-.352 2.324-.156 2.406-.273 2.484-.211 2.566-.164 2.637-.172 2.688-.215 2.75-.109 2.793-.199 2.863-.047 2.91-.043h2.965l3.027-.137 3.098-.031 3.148-.086V34.66l-3.148.082-3.098.051-3.027.137h-2.965l-2.91.055-2.863.043-2.793.156-2.75.098-2.687.207-2.637.168-2.566.133-2.484.168-2.406.324-2.324.188-2.203.371-2.16.066-2.117.035-2.066.172-2.02.621-1.977.586-1.93.227-1.879 2.238-1.84 1.203-1.801 2.375-1.75 1.559-1.711 1.773-1.648 1.98-1.59 1.488-1.516 3.434zm0 0"/><path id="Av" d="M127.072 73.801c0-.609-.297-.969-1.047-.969-.625 0-.969.375-1.125.641v-2.406l-1.047.078v.25c.469 0 .531.063.531.391v3.578c0 .297-.078.297-.531.297v.25l.797-.031.797.031v-.25c-.453 0-.516 0-.516-.297v-1.266c0-.719.578-1.062 1.031-1.062.484 0 .547.375.547.734v1.594c0 .297-.062.297-.516.297v.25l.797-.031.797.031v-.25c-.453 0-.516 0-.516-.297zm0 0"/><path id="Aw" d="M146.043 71.473c0-.187 0-.187-.203-.187-.453.438-1.078.438-1.359.438v.25c.156 0 .625 0 1-.187v3.547c0 .234 0 .328-.687.328h-.266v.25l1.234-.031 1.25.031v-.25h-.266c-.703 0-.703-.094-.703-.328zm0 0"/><path id="Ax" d="M139.492 81.414h-5.625l-.187 2.031h.25c.125-1.484.313-1.75 1.656-1.75l.516.016c.172.047.172.125.172.359v4.703c0 .313 0 .438-.937.438h-.359v.281c.328-.031 1.313-.031 1.703-.031l1.688.031v-.281h-.344c-.937 0-.937-.125-.937-.437V82.07c0-.234 0-.312.188-.359.094-.016.328-.016.484-.016 1.359 0 1.531.266 1.656 1.75h.25zm0 0"/><path id="Ay" d="M144.231 85.164c0-.969.703-1.406 1.234-1.406.5 0 .656.344.656.969v2.078c0 .406-.094.406-.687.406v.281l1.016-.031 1.031.031v-.281c-.594 0-.703 0-.703-.406v-1.641c0-.969.703-1.406 1.25-1.406.484 0 .641.344.641.969v2.078c0 .406-.094.406-.687.406v.281l1.031-.031 1.016.031v-.281c-.453 0-.672 0-.687-.281v-1.719c0-.781 0-1.031-.297-1.359-.187-.219-.547-.328-.953-.328-.656 0-1.094.375-1.344.859-.109-.531-.469-.859-1.219-.859-.719 0-1.156.469-1.344.891h-.016v-.891l-1.297.109v.266c.609 0 .688.063.688.516v2.391c0 .406-.094.406-.687.406v.281l1.031-.031 1.016.031v-.281c-.594 0-.687 0-.687-.406zm0 0"/><path id="Az" d="M153.828 85.445c.188 0 .234 0 .234-.203 0-.922-.5-1.766-1.656-1.766-1.062 0-1.906.938-1.906 2.047 0 1.172.938 2.063 2.031 2.063s1.531-.953 1.531-1.156c0-.062-.047-.125-.125-.125-.094 0-.109.063-.125.109-.297.906-1.109.922-1.234.922a1.19 1.19 0 0 1-1-.547c-.297-.437-.312-.969-.312-1.344zm-2.547-.219c.078-1.391.875-1.531 1.125-1.531.5 0 1.031.375 1.047 1.531zm0 0"/><path id="BA" d="M163.157 81.273l-1.328.094v.281c.609 0 .688.063.688.5v4.656c0 .406-.094.406-.687.406v.281l1-.031 1.016.031v-.281c-.594 0-.687 0-.687-.406zm0 0"/><path id="BB" d="M167.12 86.851c.047.375.313.688.703.688a.77.77 0 0 0 .781-.844v-.5h-.25v.484c0 .109 0 .547-.328.547-.312 0-.312-.422-.312-.562v-1.578c0-.516 0-.812-.406-1.187-.328-.297-.766-.422-1.219-.422-.75 0-1.375.375-1.375.953a.4.4 0 0 0 .422.422c.234 0 .406-.172.406-.406 0-.391-.391-.437-.406-.437.25-.234.688-.312.938-.312.453 0 .969.344.969 1.141v.281c-.484.031-1.156.063-1.75.359-.656.313-.844.781-.844 1.141 0 .734.859.969 1.469.969a1.3 1.3 0 0 0 1.203-.734zm-.078-.625a1.06 1.06 0 0 1-1.062 1.141c-.422 0-.812-.312-.812-.75 0-.594.5-1.219 1.875-1.281zm0 0"/><path id="BC" d="M170.282 84.476c.297-.516.797-.703 1.172-.703.703 0 1.234.813 1.234 1.781 0 1.016-.609 1.813-1.328 1.813-.406 0-.75-.234-.969-.547-.109-.187-.109-.203-.109-.375zm0 2.578c.234.234.531.531 1.125.531 1.078 0 2.063-.859 2.063-2.031 0-1.125-.891-2.031-1.937-2.031-.484 0-.937.203-1.281.563v-.562l-1.328.109v.266c.641 0 .688.063.688.453v4.188c0 .422-.094.422-.687.422v.266l1.031-.016 1.016.016v-.266c-.594 0-.687 0-.687-.422zm0 0"/><path id="BD" d="M184.98 86.414c0 .156 0 .188-.125.375-.281.406-.703.578-1.047.578-.391 0-.75-.219-.984-.594-.234-.391-.25-.906-.25-1.203 0-.422.047-.891.281-1.25.203-.297.563-.562 1.047-.562a1.17 1.17 0 0 1 .969.531.34.34 0 0 1 .109.313zm.031-2.359c-.047-.047-.453-.531-1.141-.531-1.109 0-2.062.891-2.062 2.047 0 1.109.891 2.016 1.953 2.016a1.59 1.59 0 0 0 1.219-.562v.563l1.359-.094v-.281c-.609 0-.687-.062-.687-.5v-5.437l-1.328.094v.281c.609 0 .688.063.688.5zm0 0"/><path id="BE" d="M303.828 57.934v2.484-.168h.004v-.578l.004-.051v-.027h.004v-2.52h-.004v.031l-.004.039v.621h-.004zm0 0"/><path id="BF" d="M303.828 57.934v2.484l1.285-10.828 1.27-5.762 1.27-2.363 1.266-1.594 1.273-1.289 1.27-1.277 1.27-.57 1.27-.891 1.27-.512 1.27-.547 1.27-.953 1.27-.367 1.27-.922 1.273-.578 1.27-.898 1.27-.648 1.27-.742 1.27-.566 1.266-1.465 1.273-.285 1.27-.766 1.27-.977 1.27-.629 1.27-.172 1.27-.391 1.27-.309 1.27-.242 1.27-.062 1.27-.102 1.27-.258v-3.969l-1.27.313-1.27.125-1.27.07-1.27.281-1.27.367-1.27.383-1.27.234-1.27.73-1.27.836-1.27.699-1.273.309-1.266 1.32-1.27.59-1.27.73-1.27.547-1.27.887-1.273.512-1.27.727-1.27.391-1.27.906-1.27.543-1.27.586-1.27 1.105-1.27.668-1.27 1.508-1.273 1.527-1.266 1.738-1.27 2.859-1.27 5.957zm0 0"/><path id="BG" d="M303.828 57.934v2.484l1.246-10.395 1.352-4.98 1.422-4.082 1.48-2.59 1.539-1.82 1.578-2.078 1.625-1.789 1.668-2.258 1.711-1.445 1.758-.492 1.801-.551 1.848-1.137 1.895-.355 1.934-.672 1.988-.465 2.035-.094 2.148-.066 2.23-.262 2.316-.168 2.395-.109 2.469-.168 2.52-.16 2.582-.055 2.625-.207 2.688-.187 2.738-.066 2.805-.02 2.863-.203 2.93-.039 2.98-.043V18.77l-2.98.051-2.93.039-2.863.223-2.805.02-2.738.078-2.687.211-2.625.203-2.582.051-2.52.145-2.469.145-2.395.113-2.316.141-2.23.211-2.148.063-2.035.098-1.988.563-1.934.75-1.895.398-1.848 1.164-1.801.5-1.758.598-1.711 1.43-1.668 2.246-1.625 1.734-1.578 2.145-1.539 2.008-1.48 2.871-1.422 4.613-1.352 5.559zm0 0"/><path id="BH" d="M77.818 4.619c0-.969.703-1.406 1.234-1.406.5 0 .656.344.656.969V6.26c0 .406-.094.406-.687.406v.281l1.016-.031 1.031.031v-.281c-.594 0-.703 0-.703-.406V4.619c0-.969.703-1.406 1.25-1.406.484 0 .641.344.641.969V6.26c0 .406-.094.406-.687.406v.281l1.031-.031 1.016.031v-.281c-.453 0-.672 0-.687-.281V4.666c0-.781 0-1.031-.297-1.359-.187-.219-.547-.328-.953-.328-.656 0-1.094.375-1.344.859-.109-.531-.469-.859-1.219-.859-.719 0-1.156.469-1.344.891h-.016v-.891l-1.297.109v.266c.609 0 .688.063.688.516V6.26c0 .406-.094.406-.687.406v.281l1.031-.031 1.016.031v-.281c-.594 0-.687 0-.687-.406zm0 0"/><path id="BI" d="M86.884 6.306c.047.375.313.688.703.688a.77.77 0 0 0 .781-.844v-.5h-.25v.484c0 .109 0 .547-.328.547-.312 0-.312-.422-.312-.562V4.541c0-.516 0-.812-.406-1.187-.328-.297-.766-.422-1.219-.422-.75 0-1.375.375-1.375.953a.4.4 0 0 0 .422.422c.234 0 .406-.172.406-.406 0-.391-.391-.437-.406-.437.25-.234.688-.312.938-.312.453 0 .969.344.969 1.141v.281c-.484.031-1.156.063-1.75.359-.656.313-.844.781-.844 1.141 0 .734.859.969 1.469.969a1.3 1.3 0 0 0 1.203-.734zm-.078-.625a1.06 1.06 0 0 1-1.062 1.141c-.422 0-.812-.312-.812-.75 0-.594.5-1.219 1.875-1.281zm0 0"/><path id="BJ" d="M90.077.728l-1.328.094v.281c.609 0 .688.063.688.5V6.26c0 .406-.094.406-.687.406v.281l1-.031 1.016.031v-.281c-.594 0-.687 0-.687-.406zm0 0"/><path id="BK" d="M124.189 5.447c0 .797-.437 1.375-1.094 1.375-.734 0-.781-.391-.781-.875V2.978l-1.359.109v.266c.688 0 .688.031.688.828v1.344c0 .594 0 .969.422 1.281.25.172.625.234.984.234.469 0 .906-.203 1.156-.734h.016v.734l1.328-.094v-.281c-.609 0-.687-.062-.687-.5V2.978l-1.359.109v.266c.609 0 .688.063.688.516zm0 0"/><path id="BL" d="M128.675 3.353v-.266h-1.312V1.431h-.25c0 .75-.312 1.672-1.187 1.703v.219h.781v2.484c0 1 .719 1.203 1.203 1.203.594 0 .906-.562.906-1.203v-.516h-.25v.484c0 .672-.281.984-.594.984-.609 0-.609-.781-.609-.953V3.353zm0 0"/><path id="BM" d="M138.531 1.463c0-.297.016-.359.438-.359h1.172c.875 0 1.25.703 1.25 1.234 0 .688-.609 1.313-1.453 1.313h-1.406zm2.203 2.281c.891-.172 1.516-.75 1.516-1.406 0-.797-.859-1.516-2.047-1.516h-3.328v.281h.203c.688 0 .703.094.703.422v4.719c0 .328-.016.422-.703.422h-.203v.281h3.578c1.219 0 2.063-.797 2.063-1.625 0-.812-.781-1.469-1.781-1.578zm-1.766 2.922c-.422 0-.437-.062-.437-.359V3.869h1.703c1.031 0 1.391.875 1.391 1.422 0 .703-.547 1.375-1.469 1.375zm0 0"/><path id="BN" d="M151.613 5.869c0 .156 0 .188-.125.375-.281.406-.703.578-1.047.578-.391 0-.75-.219-.984-.594-.234-.391-.25-.906-.25-1.203 0-.422.047-.891.281-1.25.203-.297.563-.562 1.047-.562a1.17 1.17 0 0 1 .969.531.34.34 0 0 1 .109.313zm.031-2.359c-.047-.047-.453-.531-1.141-.531-1.109 0-2.062.891-2.062 2.047 0 1.109.891 2.016 1.953 2.016a1.59 1.59 0 0 0 1.219-.562v.563l1.359-.094v-.281c-.609 0-.687-.062-.687-.5V.728l-1.328.094v.281c.609 0 .688.063.688.5zm0 0"/><path id="BO" d="M154.365 5.338c.219.141.5.281.906.281.859 0 1.5-.609 1.5-1.312 0-.437-.25-.75-.359-.875.359-.328.781-.328.875-.328-.031.031-.109.078-.109.234 0 .109.063.266.266.266.125 0 .266-.078.266-.266 0-.172-.125-.453-.484-.453a1.38 1.38 0 0 0-.969.422c-.25-.203-.594-.328-.969-.328-.859 0-1.5.609-1.5 1.328 0 .453.266.781.406.906-.016.016-.266.328-.266.75 0 .297.141.625.391.781-.453.156-.812.484-.812.906 0 .641.875 1.141 2.031 1.141 1.109 0 2.047-.469 2.047-1.156 0-.375-.172-.766-.5-.984-.5-.312-1.031-.312-1.875-.312-.187 0-.469 0-.547-.016-.25-.062-.422-.297-.422-.578 0-.156.047-.281.125-.406zm.906.047c-.797 0-.797-.891-.797-1.078 0-.25.016-.547.172-.766a.79.79 0 0 1 .625-.312c.813 0 .813.859.813 1.078 0 .203 0 1.078-.812 1.078zm.422 1.516c.281 0 1.391.016 1.391.734 0 .516-.703.922-1.531.922-.891 0-1.547-.422-1.547-.922 0-.141.094-.734.859-.734zm0 0"/><path id="BP" d="M98.979 101.853c0-.781-.75-1.172-1.484-1.172-.656 0-1.25.25-1.25.781a.36.36 0 0 0 .375.375.35.35 0 0 0 .375-.375c0-.187-.109-.328-.297-.359.297-.203.734-.203.781-.203.453 0 .891.313.891.969v.234c-.453.031-.984.047-1.547.281-.703.313-.844.766-.844 1.031 0 .688.813.891 1.359.891.578 0 .938-.328 1.125-.641.031.297.234.609.594.609.078 0 .75-.031.75-.766v-.437h-.25v.438c0 .328-.109.453-.281.453-.297 0-.297-.359-.297-.453zm-.609 1.25c0 .781-.641.984-.969.984-.406 0-.766-.281-.766-.672 0-.516.5-1.062 1.734-1.094zm0 0"/><path id="BQ" d="M125.239 100.9c-.516-.109-.891-.516-.891-1 0-.547.469-1.047 1.156-1.047 1.375 0 1.563 1.297 1.609 1.594.016.094.016.141.125.141.125 0 .125-.047.125-.203v-1.562c0-.125 0-.203-.109-.203-.062 0-.078.016-.125.109l-.281.453c-.406-.437-.906-.562-1.344-.562-.953 0-1.656.719-1.656 1.531 0 .609.344.938.5 1.094.281.281.547.344 1.406.547.688.156.797.188 1.063.469.078.078.281.344.281.734a1.13 1.13 0 0 1-1.172 1.141c-.875 0-1.781-.422-1.828-1.531-.016-.125-.016-.187-.125-.187-.125 0-.125.063-.125.219v1.547c0 .141 0 .219.109.219.063 0 .063-.016.125-.094.031-.047.063-.125.281-.453.5.438 1.094.547 1.578.547.984 0 1.656-.797 1.656-1.641a1.62 1.62 0 0 0-1.266-1.594zm0 0"/><path id="BR" d="M196.376 102.65c0-.312.031-.359.594-.359v-.266l-1.094.031c-.328 0-.984 0-1.297-.031v.266h.281c.766 0 .781.094.781.391v.516c0 .156 0 .484-.422.719-.391.219-.844.219-.937.219-.812 0-2.25-.5-2.25-2.625 0-2.172 1.453-2.625 2.188-2.625.797 0 1.688.578 1.891 1.891.016.078.016.125.125.125.141 0 .141-.047.141-.203v-1.875c0-.125 0-.203-.109-.203-.047 0-.062 0-.125.109l-.406.594c-.344-.375-.875-.703-1.594-.703-1.594 0-2.937 1.281-2.937 2.891 0 1.578 1.313 2.891 2.969 2.891.609 0 1.297-.187 1.609-.656.156.219.422.484.5.484.094 0 .094-.094.094-.203zm0 0"/></defs><path d="M33.629 61.805h72.617V16.566H33.629zm0 0" class="U"/><g clip-path="url(#A)" class="K L"><use xlink:href="#AY"/></g><g clip-path="url(#B)" class="B C D H I M"><use xlink:href="#AY"/></g><g clip-path="url(#C)" class="B C H L M O R"><path d="M33.629 57.934v2.484l2.422-3.066 2.418-2.754 2.422-2.406 2.422-.898 2.418-1.437 2.422-.445 2.422-.66 2.418-.469 2.422-.664 2.422-.191 2.418-.922 2.422-.937 2.422-.258 2.418-.457 2.422-.137 2.422-.238 2.418-.258 2.422-.184 2.422-.258 2.418-.43 4.844-.32 2.418-.277 2.422-.371 2.422-.605 2.418-.211 2.422-.301 2.422-.383 2.418-.523 2.422-.277v-3.937l-2.422.297-2.418.582-2.422.391-2.422.313-2.418.207-2.422.539-2.422.328-2.418.246-2.422.148-2.422.184-2.418.418-2.422.262-2.422.207-2.418.266-2.422.25-2.422.215-2.418.508-2.422.305-2.422.84-2.418.992-2.422.254-2.422.711-2.418.508-2.422.684-2.422.426-2.418 1.641-2.422 1.238-2.422 2.578-2.418 2.949zm0 0"/></g><g clip-path="url(#D)" class="B C H L M P S"><path d="M33.629 57.934v2.484l2.422-3.168 2.418-3.301 2.422-1.437 2.422-1.82 2.418-1.883 2.422-1.492 2.422-2.172 2.418-.988 2.422-2.16 2.422-.23 2.418-.469 2.422-.41 2.422-.211 2.418-.035 2.422-.066 2.422-.352 2.418-.156 2.422-.273 2.422-.211 2.418-.164 2.422-.172 2.422-.215 2.418-.109 2.422-.199 2.422-.047 2.418-.043h2.422l2.422-.137 2.418-.031 2.422-.086V34.66l-2.422.082-2.418.051-2.422.137h-2.422l-2.418.055-2.422.043-2.422.156-2.418.098-2.422.207-2.422.168-2.418.133-2.422.168-2.422.324-2.418.188-2.422.371-2.422.066-2.418.035-2.422.172-2.422.621-2.418.586-2.422.227-2.422 2.238-2.418 1.203-2.422 2.375-2.422 1.559-2.418 1.773-2.422 1.98-2.422 1.488-2.418 3.434zm0 0"/></g><g clip-path="url(#E)" class="B C H L M Q T"><path d="M33.629 57.934v2.484l2.422-6.555 2.418-5.645 2.422-3.176 2.422-3.121 2.418-2.758 2.422-2.309 2.422-2.629 2.418-1.875 2.422-1.648 2.422-.805 2.418-.418 2.422-.449 2.422-.734 2.418-.398 2.422-.418 2.422-.727 2.418-.445 2.422-.187 2.422-.148 2.418-.289 2.422-.387 2.422-.238 2.418-.211 2.422-.09 2.422-.277 2.418-.184 2.422-.133 2.422-.078 2.418-.031 2.422-.043v-4.219l-2.422.047-2.418.039-2.422.098-2.422.148-2.418.234-2.422.313-2.422.094-2.418.242-2.422.305-2.422.465-2.418.289-2.422.176-2.422.211-2.418.52-2.422.738-2.422.445-2.418.422-2.422.715-2.422.453-2.418.414-2.422.805-2.422 1.688-2.418 2.035-2.422 2.863-2.422 2.316-2.418 2.926-2.422 3.121-2.422 3.328-2.418 5.91zm0 0"/></g><g clip-path="url(#F)" class="B C D F G H J"><path d="M33.629 61.805V16.566"/></g><path d="M33.629 64.066v3.5" class="B C D G I"/><g class="K"><use xlink:href="#AZ"/><use xlink:href="#Aa"/><use xlink:href="#Ab"/></g><g clip-path="url(#G)" class="B C D F G H J"><path d="M57.836 61.805V16.566"/></g><path d="M57.836 64.066v3.5" class="B C D G I"/><g class="K"><use xlink:href="#Ac"/><use xlink:href="#Aa" x="24.205"/><use xlink:href="#Ab" x="24.205"/></g><g clip-path="url(#H)" class="B C D F G H J"><path d="M82.039 61.805V16.566"/></g><path d="M82.039 64.066v3.5" class="B C D G I"/><g class="K"><use xlink:href="#Ad"/><use xlink:href="#Aa" x="48.41"/><use xlink:href="#Ab" x="48.41"/></g><g clip-path="url(#I)" class="B C D F G H J"><path d="M106.246 61.805V16.566"/></g><path d="M106.246 64.066v3.5" class="B C D G I"/><g class="K"><use xlink:href="#Ae"/><use xlink:href="#Aa" x="72.616"/><use xlink:href="#Ab" x="72.616"/><use xlink:href="#Af"/><use xlink:href="#Ag"/><use xlink:href="#Ah"/><use xlink:href="#Ai"/><use xlink:href="#Aj"/><use xlink:href="#Ak"/><use xlink:href="#Aj" x="6.187"/><use xlink:href="#Al"/><use xlink:href="#Aj" x="12.32"/><use xlink:href="#Am"/><use xlink:href="#An"/><use xlink:href="#Ak" x="22.03"/></g><g clip-path="url(#J)" class="B C D F G H J"><path d="M33.629 61.805h72.617"/></g><path d="M30 61.805h-3.5" class="B C D G I"/><g class="K"><use xlink:href="#Ao"/><use xlink:href="#Ap"/><use xlink:href="#Aa" x="-12.507" y="-11.684"/></g><g clip-path="url(#K)" class="B C D F G H J"><path d="M33.629 50.496h72.617"/></g><path d="M30 50.496h-3.5" class="B C D G I"/><g class="K"><use xlink:href="#Ao" y="-11.309"/><use xlink:href="#Ap" y="-11.309"/><use xlink:href="#AZ" x="-8.538" y="-22.993"/></g><g clip-path="url(#L)" class="B C D F G H J"><path d="M33.629 39.188h72.617"/></g><path d="M30 39.188h-3.5" class="B C D G I"/><g class="K"><use xlink:href="#AZ" x="-14.875" y="-34.302"/><use xlink:href="#Ap" y="-22.618"/><use xlink:href="#Aa" x="-12.507" y="-34.302"/></g><g clip-path="url(#M)" class="B C D F G H J"><path d="M33.629 27.879h72.617"/></g><path d="M30 27.879h-3.5" class="B C D G I"/><g class="K"><use xlink:href="#AZ" x="-14.875" y="-45.611"/><use xlink:href="#Ap" y="-33.927"/><use xlink:href="#AZ" x="-8.538" y="-45.611"/></g><g clip-path="url(#N)" class="B C D F G H J"><path d="M33.629 16.566h72.617"/></g><path d="M30 16.566h-3.5" class="B C D G I"/><g class="K"><use xlink:href="#Ac" x="-39.081" y="-56.92"/><use xlink:href="#Ap" y="-45.236"/><use xlink:href="#Aa" x="-12.507" y="-56.92"/><path d="M1.119 53.644h5.125c.328 0 .422.016.422.703v.203h.281l-.031-1.266.031-1.281h-.281v.203c0 .688-.094.703-.422.703H1.525c-.328 0-.422-.016-.422-.703v-.203H.822v1.5c0 .188 0 .25.156.313l5.094 2.016-5.047 2c-.187.078-.203.078-.203.328v1.5h.281v-.203c0-.687.094-.703.422-.703h4.469c.25 0 .672 0 .672.906h.281l-.031-1.047.031-1.062h-.281c0 .922-.422.922-.672.922H1.197l-.016-.016 5.563-2.203c.125-.047.203-.078.203-.187 0-.094-.078-.141-.156-.172zm0 0"/><use xlink:href="#Aq"/><path d="M4.931 44.279c-.078.063-.094.063-.094.063-.031 0-.875-.703-.953-.766-.297-.281-.516-.594-.531-1.141h-.266l.016.766-.016.859h.266c.031-.125.094-.25.281-.25.141 0 .234.078.297.125l.703.578-.891.703c-.078.063-.094.078-.156.078-.109 0-.219-.109-.234-.312h-.266l.016.984-.016.875h.266c0-.625.031-.641.547-1.047l1.156-.922 1.063.859c.531.453.547.969.547 1.156h.281c-.031-.266-.031-.5-.031-.766l.031-.859h-.281c-.031.219-.172.25-.266.25-.031 0-.156 0-.312-.125l-.812-.687.906-.703c.188-.172.203-.172.266-.172.094 0 .219.094.219.313h.281l-.031-.984.031-.875h-.281c0 .359 0 .625-.25.828zM3.76 37.472c-.047.016-.109.047-.172.047-.234 0-.234-.328-.234-.5h-.266l.016.984-.016.906h.266c0-.422 0-.594.344-.734l3.172-1.312c.156-.047.172-.125.172-.203s-.016-.156-.172-.219l-2.937-1.219a.84.84 0 0 1-.578-.812h-.266l.016.688-.016.781h.266c.031-.266.156-.406.391-.406.094 0 .109 0 .203.047l2.266.922zm0 0"/><use xlink:href="#Aq" y="-16.879"/><path d="M.728 28.478l.094 1.328h.281c0-.609.063-.687.5-.687H6.26c.406 0 .406.094.406.688h.281l-.031-1 .031-1.016h-.281c0 .594 0 .688-.406.688zm4.719-4.447c.797 0 1.375.438 1.375 1.094 0 .734-.391.781-.875.781H2.978l.109 1.359h.266c0-.687.031-.687.828-.687h1.344c.594 0 .969 0 1.281-.422.172-.25.234-.625.234-.984 0-.469-.203-.906-.734-1.156V24h.734l-.094-1.328h-.281c0 .609-.062.688-.5.688H2.978l.109 1.359h.266c0-.609.063-.687.516-.687zM4.9 18.874c0-.187 0-.234-.203-.234-.922 0-1.766.5-1.766 1.656 0 1.063.938 1.906 2.047 1.906 1.172 0 2.063-.937 2.063-2.031s-.953-1.531-1.156-1.531c-.062 0-.125.047-.125.125 0 .094.063.109.109.125.906.297.922 1.109.922 1.234a1.19 1.19 0 0 1-.547 1c-.437.297-.969.313-1.344.313zm-.219 2.547c-1.391-.078-1.531-.875-1.531-1.125 0-.5.375-1.031 1.531-1.047zm0 0"/></g><g clip-path="url(#O)" class="B C D F I N"><path d="M33.629 59.176h7.262l2.422-.168h12.102l2.422-.059 2.418-.168 2.422-.16h4.84l2.422-.215h4.84l2.422-.043h7.262l2.422-.027h19.363"/></g><g clip-path="url(#P)" class="B C D F N O"><path d="M33.629 59.176l2.422-3.187 2.418-2.852 2.422-2.492 2.422-1.07 2.418-1.539 2.422-.434 2.422-.672 2.418-.488 2.422-.687 2.422-.223 2.418-.957 2.422-.891 2.422-.281 2.418-.48 2.422-.176 2.422-.242 2.418-.266 2.422-.195 2.422-.258 2.418-.422 2.422-.176 2.422-.152 2.418-.262 2.422-.348 2.422-.574 2.418-.211 2.422-.305 2.422-.387 2.418-.551 2.422-.289"/></g><g clip-path="url(#Q)" class="B C D F N P"><path d="M33.629 59.176l2.422-3.254 2.418-3.367 2.422-1.461 2.422-1.902 2.418-1.824 2.422-1.527 2.422-2.273 2.418-1.098 2.422-2.195 2.422-.23 2.418-.527L62.676 39l2.422-.191 2.418-.035 2.422-.066 2.422-.363 2.418-.168 2.422-.301 2.422-.187 2.418-.148 2.422-.172 2.422-.211 2.418-.102 2.422-.18 2.422-.043 2.418-.051h2.422l2.422-.137 2.418-.043 2.422-.082"/></g><g clip-path="url(#R)" class="B C D F N Q"><path d="M33.629 59.176l2.422-6.668 2.418-5.777 2.422-3.254 2.422-3.117 2.418-2.844 2.422-2.312 2.422-2.746 2.418-1.953 2.422-1.672 2.422-.801 2.418-.418 2.422-.453 2.422-.723 2.418-.41 2.422-.43 2.422-.734 2.418-.484 2.422-.199 2.422-.16 2.418-.289 2.422-.426 2.422-.273 2.418-.227 2.422-.09 2.422-.297 2.418-.207 2.422-.141 2.422-.086 2.418-.039 2.422-.043"/></g><path d="M30 61.805V16.566m3.629 47.5h72.617" class="B D F I V"/><g class="C B"><path d="M106.246 61.496l1.898-3.16-1.898-3.164-1.898 3.164zm0 0" class="I K"/><path d="M106.246 35.875l-2.238 4.473h4.473zm0 0" class="O R"/><path d="M104.008 38.754h4.473v-4.469h-4.473zm0 0" class="P S"/><use xlink:href="#Ar" class="Q T"/></g><path d="M213.762 61.805h72.617V16.566h-72.617zm0 0" class="U"/><g clip-path="url(#S)" class="K L"><use xlink:href="#As"/></g><g clip-path="url(#T)" class="B C D H I M"><use xlink:href="#As"/></g><g clip-path="url(#U)" class="B C H L M O R"><path d="M213.762 57.934v2.484l2.422-10.828 2.418-5.762 2.422-2.363 2.422-1.594 2.418-1.289 2.422-1.277 2.422-.57 2.418-.891 2.422-.512 2.422-.547 2.418-.953 2.422-.367 2.418-.922 2.422-.578 2.422-.898 2.418-.648 2.422-.742 2.422-.566 2.418-1.465 2.422-.285 2.422-.766 2.418-.977 2.422-.629 2.422-.172 2.418-.391 2.422-.309 2.422-.242 2.418-.062 2.422-.102 2.422-.258v-3.969l-2.422.313-2.422.125-2.418.07-2.422.281-2.422.367-2.418.383-2.422.234-2.422.73-2.418.836-2.422.699-2.422.309-2.418 1.32-2.422.59-2.422.73-2.418.547-2.422.887-2.422.512-2.418.727-2.422.391-2.418.906-2.422.543-2.422.586-2.418 1.105-2.422.668-2.422 1.508-2.418 1.527-2.422 1.738-2.422 2.859-2.418 5.957zm0 0"/></g><g clip-path="url(#V)" class="B C H L M P S"><path d="M213.762 57.934v2.484l2.422-10.395 2.418-4.98 2.422-4.082 2.422-2.59 2.418-1.82 2.422-2.078 2.422-1.789 2.418-2.258 2.422-1.445 2.422-.492 2.418-.551 2.422-1.137 2.418-.355 2.422-.672 2.422-.465 2.418-.094 2.422-.066 2.422-.262 2.418-.168 2.422-.109 2.422-.168 2.418-.16 2.422-.055 2.422-.207 2.418-.187 2.422-.066 2.422-.02 2.418-.203 2.422-.039 2.422-.043V18.77l-2.422.051-2.422.039-2.418.223-2.422.02-2.422.078-2.418.211-2.422.203-2.422.051-2.418.145-2.422.145-2.422.113-2.418.141-2.422.211-2.422.063-2.418.098-2.422.563-2.422.75-2.418.398-2.422 1.164-2.418.5-2.422.598-2.422 1.43-2.418 2.246-2.422 1.734-2.422 2.145-2.418 2.008-2.422 2.871-2.422 4.613-2.418 5.559zm0 0"/></g><g clip-path="url(#W)" class="B C H L M Q T"><path d="M213.762 57.934v2.484l2.422-10.125 2.418-5.234 2.422-4.641 2.422-2.621 2.418-3.312 2.422-3.051 2.422-1.801 2.418-1.676 2.422-1.004 2.422-1.258 2.418-.402 2.422-.371 2.418-.242 2.422-.371 2.422-.281 2.418-.273 2.422-.258 2.422-.785 2.418-.273 2.422-.125 2.422-.246 2.418-.031 2.422-.074 2.422-.102 2.418-.102 2.422-.07 2.422-.02 2.418-.187 2.422-.031 2.422-.09v-4.516l-2.422.07-2.422.027-2.418.203-2.422.023-2.422.07-2.418.129-2.422.105-2.422.102-2.418.035-2.422.297-2.422.156-2.418.332-2.422.898-2.422.277-2.418.32-2.422.32-2.422.445-2.418.25-2.422.414-2.418.418-2.422 1.277-2.422.973-2.418 1.832-2.422 1.793-2.422 3.406-2.418 3.449-2.422 2.563-2.422 5-2.418 5.488zm0 0"/></g><g clip-path="url(#X)" class="B C D F G H J"><path d="M213.762 61.805V16.566"/></g><path d="M213.762 64.066v3.5" class="B C D G I"/><g class="K"><use xlink:href="#AZ" x="180.132"/><use xlink:href="#Aa" x="180.131"/><use xlink:href="#Ab" x="180.132"/></g><g clip-path="url(#Y)" class="B C D F G H J"><path d="M237.969 61.805V16.566"/></g><path d="M237.969 64.066v3.5" class="B C D G I"/><g class="K"><use xlink:href="#Ac" x="180.132"/><use xlink:href="#Aa" x="204.337"/><use xlink:href="#Ab" x="204.337"/></g><g clip-path="url(#Z)" class="B C D F G H J"><path d="M262.172 61.805V16.566"/></g><path d="M262.172 64.066v3.5" class="B C D G I"/><g class="K"><use xlink:href="#Ad" x="180.132"/><use xlink:href="#Aa" x="228.542"/><use xlink:href="#Ab" x="228.542"/></g><g clip-path="url(#a)" class="B C D F G H J"><path d="M286.379 61.805V16.566"/></g><path d="M286.379 64.066v3.5" class="B C D G I"/><g class="K"><use xlink:href="#Ae" x="180.132"/><use xlink:href="#Aa" x="252.748"/><use xlink:href="#Ab" x="252.748"/><use xlink:href="#Af" x="180.132"/><use xlink:href="#Ag" x="180.132"/><use xlink:href="#Ah" x="180.131"/><use xlink:href="#Ai" x="180.132"/><use xlink:href="#Aj" x="180.132"/><use xlink:href="#Ak" x="180.132"/><use xlink:href="#Aj" x="186.319"/><use xlink:href="#Al" x="180.132"/><use xlink:href="#Aj" x="192.452"/><use xlink:href="#Am" x="180.132"/><use xlink:href="#An" x="180.132"/><use xlink:href="#Ak" x="202.162"/></g><g clip-path="url(#b)" class="B C D F G H J"><path d="M213.762 61.805h72.617"/></g><g clip-path="url(#c)" class="B C D F G H J"><path d="M213.762 50.496h72.617"/></g><g clip-path="url(#d)" class="B C D F G H J"><path d="M213.762 39.188h72.617"/></g><g clip-path="url(#e)" class="B C D F G H J"><path d="M213.762 27.879h72.617"/></g><g clip-path="url(#f)" class="B C D F G H J"><path d="M213.762 16.566h72.617"/></g><g clip-path="url(#g)" class="B C D F I N"><path d="M213.762 59.176h7.262l2.422-.168h12.102l2.422-.059 2.418-.168 2.422-.16h4.84l2.422-.215h4.84l2.422-.043h7.262l2.418-.027h19.367"/></g><g clip-path="url(#h)" class="B C D F N"><path d="M213.762 59.176l2.422-10.914 2.418-5.859 2.422-2.613 2.422-1.664 2.418-1.41 2.422-1.391 2.422-.621 2.418-.996 2.422-.551 2.422-.543 2.418-.93 2.422-.379 2.418-.824 2.422-.547 2.422-.891 2.418-.598 2.422-.734 2.422-.582 2.418-1.391 2.422-.297 2.422-.734 2.418-.906 2.422-.676 2.422-.207 2.418-.383 2.422-.34 2.422-.262 2.418-.066 2.422-.113 2.422-.285" class="O"/><path d="M213.762 59.176l2.422-10.594 2.418-5.273 2.422-4.348 2.422-2.727 2.418-1.914 2.422-2.113 2.422-1.762 2.418-2.254 2.422-1.434 2.422-.547 2.418-.527 2.422-1.148 2.418-.375 2.422-.711 2.422-.516 2.418-.094 2.422-.066 2.422-.234 2.418-.156 2.422-.113 2.422-.156 2.418-.148 2.422-.055 2.422-.203 2.418-.199 2.422-.074 2.422-.02 2.418-.215 2.422-.035 2.422-.051" class="P"/></g><g clip-path="url(#i)" class="B C D F N Q"><path d="M213.762 59.176l2.422-10.27 2.418-5.359 2.422-4.82 2.422-2.594 2.418-3.379 2.422-3.23 2.422-1.797 2.418-1.754 2.422-.988 2.422-1.27 2.418-.41 2.422-.391 2.418-.246 2.422-.41 2.422-.297 2.418-.301 2.422-.266 2.422-.844 2.418-.301 2.422-.141 2.422-.27 2.418-.035 2.422-.09 2.422-.102 2.418-.113 2.422-.074 2.422-.02 2.418-.195 2.422-.031 2.422-.078"/></g><g class="B I"><path d="M213.762 64.066h72.617" class="D F V"/><path d="M286.379 61.496l1.895-3.16-1.895-3.164-1.898 3.164zm0 0" class="C K"/></g><path d="M286.379 19.234l-2.238 4.469h4.473zm0 0" class="B C O R"/><path d="M284.141 23.352h4.473v-4.473h-4.473zm0 0" class="B C P S"/><path d="M286.379 21.336c.59 0 1.16-.234 1.578-.652a2.23 2.23 0 0 0 0-3.164c-.418-.418-.988-.652-1.578-.652a2.24 2.24 0 0 0-1.582.652 2.25 2.25 0 0 0 0 3.164 2.24 2.24 0 0 0 1.582.652zm0 0" class="B C Q T"/><path d="M123.695 61.805h72.617V16.566h-72.617zm0 0" class="U"/><g clip-path="url(#j)" class="K L"><use xlink:href="#At"/></g><g clip-path="url(#k)" class="B C D H I M"><use xlink:href="#At"/></g><g clip-path="url(#l)" class="B C H L M O R"><path d="M123.695 57.934v2.484l1.391-3.066 1.324-2.754 1.32-2.406 1.328-.898 1.324-1.437 1.324-.445 1.324-.66 1.324-.469 1.328-.664 1.328-.191 1.332-.922 1.324-.937 1.328-.258 1.324-.457 1.328-.137 1.328-.238 1.328-.258 1.328-.184 1.332-.258 1.328-.43 2.664-.32 1.328-.277 1.332-.371 1.332-.605 1.336-.211 1.332-.301 1.332-.383 1.336-.523 1.336-.277v-3.937l-1.336.297-1.336.582-1.332.391-1.332.313-1.336.207-1.332.539-1.332.328-1.328.246-1.332.148-1.332.184-1.328.418-1.332.262-1.328.207-1.328.266-1.328.25-1.328.215-1.324.508-1.328.305-1.324.84-1.332.992-1.328.254-1.328.711-1.324.508-1.324.684-1.324.426-1.324 1.641-1.328 1.238-1.32 2.578-1.324 2.949zm0 0"/></g><g clip-path="url(#m)" class="L S"><use xlink:href="#Au"/></g><g clip-path="url(#n)" class="B C D H M P"><use xlink:href="#Au"/></g><g clip-path="url(#o)" class="B C H L M Q T"><path d="M123.695 57.934v2.484l1.445-6.555 1.469-5.645 1.469-3.176 1.512-3.121 1.535-2.758 1.551-2.309 1.57-2.629 1.594-1.875 1.613-1.648 1.637-.805 1.645-.418 1.676-.449 1.699-.734 1.719-.398 1.73-.418 1.754-.727 1.793-.445 1.824-.187 1.832-.148 1.863-.289 1.883-.387 1.902-.238 1.922-.211 1.941-.09 1.98-.277 1.988-.184 1.992-.133 2.031-.078 2.063-.031 2.07-.043v-4.219l-2.07.047-2.062.039-2.031.098-1.992.148-1.988.234-1.98.313-1.941.094-1.922.242-1.902.305-1.883.465-1.863.289-1.832.176-1.824.211-1.793.52-1.754.738-1.73.445-1.719.422-1.699.715-1.676.453-1.645.414-1.637.805-1.613 1.688-1.594 2.035-1.57 2.863-1.551 2.316-1.535 2.926-1.512 3.121-1.469 3.328-1.469 5.91zm0 0"/></g><g clip-path="url(#p)" class="B C D F G H J"><path d="M123.695 61.805V16.566"/></g><path d="M123.695 64.066v3.5" class="B C D G I"/><g class="K"><use xlink:href="#Aa" x="87.976"/><use xlink:href="#Av"/></g><g clip-path="url(#q)" class="B C D F G H J"><path d="M147.902 61.805V16.566"/></g><path d="M147.902 64.066v3.5" class="B C D G I"/><g class="K"><use xlink:href="#Aw"/><use xlink:href="#Av" x="24.205"/></g><g clip-path="url(#r)" class="B C D F G H J"><path d="M172.105 61.805V16.566"/></g><path d="M172.105 64.066v3.5" class="B C D G I"/><g class="K"><path d="M171.437 74.644h-.234c-.016.156-.094.563-.187.625-.047.047-.578.047-.687.047h-1.281l1.391-1.172c.516-.406 1-.844 1-1.5 0-.844-.734-1.359-1.625-1.359-.859 0-1.453.609-1.453 1.25 0 .344.297.391.375.391.156 0 .359-.125.359-.375 0-.125-.047-.375-.406-.375.219-.484.688-.641 1.016-.641.703 0 1.063.547 1.063 1.109 0 .609-.437 1.078-.656 1.328l-1.672 1.672c-.078.063-.078.078-.078.266h2.875zm0 0"/><use xlink:href="#Av" x="48.411"/></g><g clip-path="url(#s)" class="B C D F G H J"><path d="M196.313 61.805V16.566"/></g><path d="M196.313 64.066v3.5" class="B C D G I"/><g class="K"><path d="M194.032 73.582c.547 0 .938.375.938 1.125 0 .859-.516 1.125-.906 1.125-.281 0-.906-.078-1.187-.5.328 0 .406-.234.406-.391 0-.219-.172-.375-.391-.375a.38.38 0 0 0-.391.406c0 .656.719 1.078 1.563 1.078.969 0 1.641-.656 1.641-1.344 0-.547-.437-1.094-1.203-1.25.719-.266.984-.781.984-1.219 0-.547-.625-.953-1.406-.953-.766 0-1.359.375-1.359.938 0 .234.156.359.359.359a.34.34 0 0 0 .359-.344c0-.203-.141-.359-.359-.375.25-.297.719-.375.984-.375.313 0 .75.156.75.75 0 .297-.094.625-.281.828-.219.266-.422.281-.766.313l-.219.016c-.016 0-.078.016-.078.094 0 .094.063.094.188.094zm0 0"/><use xlink:href="#Av" x="72.616"/><use xlink:href="#Ax"/><use xlink:href="#Aj" x="73.728"/><use xlink:href="#Ay"/><use xlink:href="#Az"/><use xlink:href="#Az" x="7.17"/><use xlink:href="#BA"/><use xlink:href="#BB"/><use xlink:href="#BC"/><use xlink:href="#Ak" x="104.935"/><use xlink:href="#Az" x="27.165"/><use xlink:href="#BD"/></g><g clip-path="url(#t)" class="B C D F G H J"><path d="M123.695 61.805h72.617"/></g><g clip-path="url(#u)" class="B C D F G H J"><path d="M123.695 50.496h72.617"/></g><g clip-path="url(#v)" class="B C D F G H J"><path d="M123.695 39.188h72.617"/></g><g clip-path="url(#w)" class="B C D F G H J"><path d="M123.695 27.879h72.617"/></g><g clip-path="url(#x)" class="B C D F G H J"><path d="M123.695 16.566h72.617"/></g><g clip-path="url(#y)" class="B C D F I N"><path d="M123.695 59.176h.008v-.168h.008l.004-.059v-.168l.004-.16h.004v-.215h.004l.004-.043h.004v-.027h.016"/></g><g clip-path="url(#z)" class="B C D F N O"><path d="M123.695 59.176l1.391-3.187 1.324-2.852 1.32-2.492 1.328-1.07 1.324-1.539 1.324-.434 1.324-.672 1.324-.488 1.328-.687 1.328-.223 1.332-.957 1.324-.891 1.328-.281 1.324-.48 1.328-.176 1.328-.242 1.328-.266 1.328-.195 1.332-.258 1.328-.422 1.332-.176 1.332-.152 1.328-.262 1.332-.348 1.332-.574 1.336-.211 1.332-.305 1.332-.387 1.336-.551 1.336-.289"/></g><g clip-path="url(#AA)" class="B C D F N P"><path d="M123.695 59.176l1.418-3.254 1.516-3.367 1.59-1.461 1.648-1.902 1.711-1.824 1.75-1.527 1.801-2.273 1.84-1.098 1.879-2.195 1.93-.23 1.977-.527 2.02-.516 2.066-.191 2.117-.035 2.16-.066 2.203-.363 2.324-.168 2.406-.301 2.484-.187 2.566-.148 2.637-.172 2.688-.211 2.75-.102 2.793-.18 2.863-.043 2.91-.051h2.965l3.027-.137 3.098-.043 3.148-.082"/></g><g clip-path="url(#AB)" class="B C D F N Q"><path d="M123.695 59.176l1.445-6.668 1.469-5.777 1.469-3.254 1.512-3.117 1.535-2.844 1.551-2.312 1.57-2.746 1.594-1.953 1.613-1.672 1.637-.801 1.645-.418 1.676-.453 1.699-.723 1.719-.41 1.73-.43 1.754-.734 1.793-.484 1.824-.199 1.832-.16 1.863-.289 1.883-.426 1.902-.273 1.922-.227 1.941-.09 1.98-.297 1.988-.207 1.992-.141 2.031-.086 2.063-.039 2.07-.043"/></g><g class="B I"><path d="M123.695 64.066h72.617" class="D F V"/><path d="M123.75 61.496l1.898-3.16-1.898-3.164-1.898 3.164zm0 0" class="C K"/></g><path d="M163.621 35.875l-2.238 4.473h4.473zm0 0" class="B C O R"/><path d="M189.746 38.754h4.473v-4.469h-4.473zm0 0" class="B C P S"/><use xlink:href="#Ar" x="70.152" class="B C Q T"/><path d="M303.828 61.805h72.617V16.566h-72.617zm0 0" class="U"/><g clip-path="url(#AC)" class="K L"><use xlink:href="#BE"/></g><g clip-path="url(#AD)" class="B C D H I M"><use xlink:href="#BE"/></g><g clip-path="url(#AE)" class="L R"><use xlink:href="#BF"/></g><g clip-path="url(#AF)" class="B C D H M O"><use xlink:href="#BF"/></g><g clip-path="url(#AG)" class="L S"><use xlink:href="#BG"/></g><g clip-path="url(#AH)" class="B C D H M P"><use xlink:href="#BG"/></g><g clip-path="url(#AI)" class="B C H L M Q T"><path d="M303.828 57.934v2.484l1.133-10.125 1.156-5.234 1.156-4.641 1.191-2.621 1.203-3.312 1.23-3.051 1.234-1.801 1.266-1.676 1.281-1.004 1.301-1.258 1.301-.402 1.344-.371 1.344-.242 1.363-.371 1.359-.281 1.398-.273 1.422-.258 1.441-.785 1.445-.273 1.484-.125 1.504-.246 1.512-.031 1.52-.074 1.555-.102 1.563-.102 1.59-.07 1.586-.02 1.629-.187 1.641-.031 1.648-.09v-4.516l-1.648.07-1.641.027-1.629.203-1.586.023-1.59.07-1.562.129-1.555.105-1.52.102-1.512.035-1.504.297-1.484.156-1.445.332-1.441.898-1.422.277-1.398.32-1.359.32-1.363.445-1.344.25-1.344.414-1.301.418-1.301 1.277-1.281.973-1.266 1.832-1.234 1.793-1.23 3.406-1.203 3.449-1.191 2.563-1.156 5-1.156 5.488zm0 0"/></g><g clip-path="url(#AJ)" class="B C D F G H J"><path d="M303.828 61.805V16.566"/></g><path d="M303.828 64.066v3.5" class="B C D G I"/><g class="K"><use xlink:href="#Aa" x="268.108"/><use xlink:href="#Av" x="180.132"/></g><g clip-path="url(#AK)" class="B C D F G H J"><path d="M328.031 61.805V16.566"/></g><path d="M328.031 64.066v3.5" class="B C D G I"/><g class="K"><use xlink:href="#AZ" x="296.282"/><use xlink:href="#Av" x="204.337"/></g><g clip-path="url(#AL)" class="B C D F G H J"><path d="M352.238 61.805V16.566"/></g><path d="M352.238 64.066v3.5" class="B C D G I"/><g class="K"><use xlink:href="#Aw" x="202.352"/><use xlink:href="#Aa" x="318.501"/><use xlink:href="#Av" x="230.525"/></g><g clip-path="url(#AM)" class="B C D F G H J"><path d="M376.445 61.805V16.566"/></g><path d="M376.445 64.066v3.5" class="B C D G I"/><g class="K"><use xlink:href="#Aw" x="226.557"/><use xlink:href="#AZ" x="346.675"/><use xlink:href="#Av" x="254.731"/><use xlink:href="#Ax" x="180.132"/><use xlink:href="#Aj" x="253.86"/><use xlink:href="#Ay" x="180.132"/><use xlink:href="#Az" x="180.132"/><use xlink:href="#Az" x="187.302"/><use xlink:href="#BA" x="180.132"/><use xlink:href="#BB" x="180.132"/><use xlink:href="#BC" x="180.131"/><use xlink:href="#Ak" x="285.067"/><use xlink:href="#Az" x="207.297"/><use xlink:href="#BD" x="180.132"/></g><g clip-path="url(#AN)" class="B C D F G H J"><path d="M303.828 61.805h72.617"/></g><g clip-path="url(#AO)" class="B C D F G H J"><path d="M303.828 50.496h72.617"/></g><g clip-path="url(#AP)" class="B C D F G H J"><path d="M303.828 39.188h72.617"/></g><g clip-path="url(#AQ)" class="B C D F G H J"><path d="M303.828 27.879h72.617"/></g><g clip-path="url(#AR)" class="B C D F G H J"><path d="M303.828 16.566h72.617"/></g><g clip-path="url(#AS)" class="B C D F I N"><path d="M303.828 59.176v-.168h.004v-.602l.004-.043v-.027h.004"/></g><g clip-path="url(#AT)" class="B C D F N O"><path d="M303.828 59.176l1.285-10.914 1.27-5.859 1.27-2.613 1.266-1.664 1.273-1.41 1.27-1.391 1.27-.621 1.27-.996 1.27-.551 1.27-.543 1.27-.93 1.27-.379 1.27-.824 1.273-.547 1.27-.891 1.27-.598 1.27-.734 1.27-.582 1.266-1.391 1.273-.297 1.27-.734 1.27-.906 1.27-.676 1.27-.207 1.27-.383 1.27-.34 1.27-.262 1.27-.066 1.27-.113 1.27-.285"/></g><g clip-path="url(#AU)" class="B C D F N P"><path d="M303.828 59.176l1.246-10.594 1.352-5.273 1.422-4.348 1.48-2.727 1.539-1.914 1.578-2.113 1.625-1.762 1.668-2.254 1.711-1.434 1.758-.547 1.801-.527 1.848-1.148 1.895-.375 1.934-.711 1.988-.516 2.035-.094 2.148-.066 2.23-.234 2.316-.156 2.395-.113 2.469-.156 2.52-.148 2.582-.055 2.625-.203 2.688-.199 2.738-.074 2.805-.02 2.863-.215 2.93-.035 2.98-.051"/></g><g clip-path="url(#AV)" class="B C D F N Q"><path d="M303.828 59.176l1.133-10.27 1.156-5.359 1.156-4.82 1.191-2.594 1.203-3.379 1.23-3.23 1.234-1.797 1.266-1.754 1.281-.988 1.301-1.27 1.301-.41 1.344-.391 1.344-.246 1.363-.41 1.359-.297 1.398-.301 1.422-.266 1.441-.844 1.445-.301 1.484-.141 1.504-.27 1.512-.035 1.52-.09 1.555-.102 1.563-.113 1.59-.074 1.586-.02 1.629-.195 1.641-.031 1.648-.078"/></g><g class="B I"><path d="M303.828 64.066h72.617" class="D F V"/><path d="M303.84 61.496l1.895-3.16-1.895-3.164-1.898 3.164zm0 0" class="C K"/></g><path d="M341.934 19.234l-2.234 4.469h4.473zm0 0" class="B C O R"/><path d="M364.758 23.352h4.473v-4.473h-4.473zm0 0" class="B C P S"/><path d="M345.629 21.336a2.24 2.24 0 0 0 1.582-.652 2.25 2.25 0 0 0 0-3.164 2.24 2.24 0 0 0-1.582-.652 2.23 2.23 0 0 0-2.234 2.234 2.23 2.23 0 0 0 2.234 2.234zm0 0" class="B C Q T"/><g class="K"><path d="M73.066 3.197c-.719-.172-.953-.75-.953-1.141 0-.609.484-1.187 1.25-1.187 1.156 0 1.625.875 1.75 1.766.016.172.031.219.141.219.125 0 .125-.062.125-.25V.869c0-.172 0-.25-.109-.25-.062 0-.078.016-.141.125-.109.156-.016.047-.312.516-.156-.187-.625-.641-1.469-.641-1.047 0-1.797.828-1.797 1.734a1.69 1.69 0 0 0 .469 1.172c.391.406.563.438 1.625.703.734.156.813.188 1.109.484 0 .016.313.344.313.875 0 .609-.437 1.281-1.266 1.281-.687 0-1.937-.297-2-1.766-.016-.141-.016-.187-.125-.187-.125 0-.125.063-.125.25V6.9c0 .172 0 .25.109.25.063 0 .063-.016.125-.125.125-.156.031-.047.328-.516.547.547 1.266.641 1.703.641 1.094 0 1.813-.906 1.813-1.859 0-.516-.187-.906-.391-1.172-.391-.5-.797-.594-1.375-.734zm0 0"/><use xlink:href="#BH"/><use xlink:href="#BI"/><use xlink:href="#BJ"/><use xlink:href="#BJ" x="2.555"/><path d="M102.025 1.4c-.281-.281-.797-.781-1.703-.781-1.734 0-3.203 1.453-3.203 3.266 0 1.844 1.484 3.266 3.203 3.266 1.484 0 2.422-1.234 2.422-2.281 0-.094 0-.172-.125-.172s-.125.063-.125.141c-.078 1.359-1.156 2.031-2.078 2.031-.766 0-2.391-.484-2.391-2.984S99.666.9 100.4.9c.891 0 1.828.672 2.047 2.125.016.125.031.156.141.156.156 0 .156-.031.156-.219V.853c0-.156 0-.234-.109-.234-.062 0-.094.031-.141.109zm0 0"/><use xlink:href="#Am" x="22.105" y="-80.545"/><use xlink:href="#BH" x="31.71"/><use xlink:href="#BC" x="-53.126" y="-80.545"/><use xlink:href="#BK"/><use xlink:href="#BL"/><use xlink:href="#Az" x="-20.903" y="-80.545"/><use xlink:href="#BM"/><use xlink:href="#BK" x="22.377"/><use xlink:href="#BN"/><use xlink:href="#BO"/><use xlink:href="#Az" x="7.606" y="-80.545"/><use xlink:href="#BL" x="36.185"/><path d="M255.386 4.635h-.25c-.094.906-.219 2.031-1.828 2.031h-.781c-.422 0-.437-.062-.437-.359V1.541c0-.328.031-.437.859-.437h.281V.822c-.312.031-1.125.031-1.484.031-.422 0-.969 0-1.375-.031v.281h.203c.688 0 .703.094.703.422v4.719c0 .328-.016.422-.703.422h-.203v.281h4.766zm0 0"/><use xlink:href="#BI" x="171.962"/><path d="M261.977 4.9c0-.375.094-1.687 1.125-1.687-.016.016-.156.125-.156.328a.39.39 0 0 0 .391.406.39.39 0 0 0 .391-.406c0-.281-.266-.562-.672-.562-.531 0-.906.375-1.125.938v-.937l-1.281.109v.266c.609 0 .688.063.688.516V6.26c0 .406-.094.406-.687.406v.281l1.047-.031 1.141.031v-.281h-.172c-.656 0-.687-.094-.687-.422zm0 0"/><use xlink:href="#BO" x="110.748"/><use xlink:href="#Az" x="118.353" y="-80.545"/><path d="M281.179 1.4c-.281-.281-.797-.781-1.703-.781-1.734 0-3.203 1.453-3.203 3.266 0 1.844 1.484 3.266 3.203 3.266 1.484 0 2.422-1.234 2.422-2.281 0-.094 0-.172-.125-.172s-.125.063-.125.141c-.078 1.359-1.156 2.031-2.078 2.031-.766 0-2.391-.484-2.391-2.984S278.82.9 279.554.9c.891 0 1.828.672 2.047 2.125.016.125.031.156.141.156.156 0 .156-.031.156-.219V.853c0-.156 0-.234-.109-.234-.062 0-.094.031-.141.109zm0 0"/><use xlink:href="#Am" x="201.259" y="-80.545"/><use xlink:href="#BH" x="210.864"/><use xlink:href="#BC" x="126.028" y="-80.545"/><use xlink:href="#BK" x="179.154"/><use xlink:href="#BL" x="179.153"/><use xlink:href="#Az" x="158.25" y="-80.545"/><use xlink:href="#BM" x="179.153"/><use xlink:href="#BK" x="201.53"/><use xlink:href="#BN" x="179.154"/><use xlink:href="#BO" x="179.154"/><use xlink:href="#Az" x="186.759" y="-80.545"/><path d="M344.013 3.353v-.266H342.7V1.431h-.25c0 .75-.312 1.672-1.187 1.703v.219h.781v2.484c0 1 .719 1.203 1.203 1.203.594 0 .906-.562.906-1.203v-.516h-.25v.484c0 .672-.281.984-.594.984-.609 0-.609-.781-.609-.953V3.353zm0 0"/></g><path d="M67.012 101.43h16" class="B C D F I W"/><path d="M75.012 105.672l2.543-4.242-2.543-4.246-2.547 4.246zm0 0" class="K"/><g clip-path="url(#AW)" class="B D I"><path d="M75.012 105.672l2.543-4.242-2.543-4.246-2.547 4.246zm0 0"/></g><g class="K"><path d="M93.191 101.525c.625-.172 1.375-.625 1.375-1.312 0-.781-1-1.422-2.187-1.422h-2.609v.266h.188c.609 0 .625.078.625.375v4.156c0 .297-.016.375-.625.375h-.187v.266l1.156-.031 1.172.031v-.266h-.172c-.625 0-.641-.078-.641-.375v-1.969h1.016c.578 0 .844.297.906.359.234.25.234.406.234.938 0 .5 0 .844.328 1.141.344.297.781.344 1.016.344.672 0 .828-.656.828-.891 0-.047 0-.156-.125-.156s-.125.094-.125.141c-.047.5-.312.672-.547.672-.422 0-.469-.359-.609-1.375-.062-.453-.141-1-1.016-1.266zm-.922-.141h-.984v-2.016c0-.203.016-.281.203-.312h.484c.719 0 1.766 0 1.766 1.156 0 .891-.625 1.172-1.469 1.172zm0 0"/><use xlink:href="#BP"/><path d="M103.742 101.806c0-.656-.312-1.094-1.141-1.094a1.38 1.38 0 0 0-1.25.766v-.766l-1.156.094v.266c.547 0 .609.047.609.438v2.094c0 .359-.094.359-.609.359v.266c.344-.031.688-.031.906-.031l.906.031v-.266c-.5 0-.609 0-.609-.359v-1.437c0-.844.641-1.234 1.125-1.234s.609.344.609.844v1.828c0 .359-.094.359-.609.359v.266c.344-.031.703-.031.906-.031l.922.031v-.266c-.516 0-.609 0-.609-.359zm3.452-3.015v.266c.531 0 .609.047.609.438v1.688a1.41 1.41 0 0 0-1.078-.469c-1 0-1.875.781-1.875 1.797a1.8 1.8 0 0 0 1.797 1.797 1.55 1.55 0 0 0 1.125-.5v.5l1.219-.078v-.266c-.547 0-.609-.047-.609-.437v-4.828zm.578 4.453c0 .141 0 .172-.125.328-.219.328-.578.516-.953.516s-.687-.187-.875-.484c-.219-.312-.266-.703-.266-1.078 0-.469.078-.797.266-1.062.188-.297.547-.531.953-.531.375 0 .766.203 1 .609zm5.484-.719c0-.984-.828-1.844-1.875-1.844s-1.875.859-1.875 1.844c0 1 .859 1.781 1.875 1.781 1.031 0 1.875-.781 1.875-1.781zm-1.875 1.531c-.422 0-.766-.203-.937-.484-.203-.328-.219-.719-.219-1.109 0-.312 0-.781.234-1.125a1.14 1.14 0 0 1 .922-.437c.422 0 .766.203.938.469.219.344.234.766.234 1.094 0 .359-.016.797-.25 1.141-.203.313-.562.453-.922.453zm8.342-2.25c0-.641-.281-1.094-1.141-1.094-.734 0-1.109.5-1.234.734-.141-.578-.594-.734-1.109-.734a1.37 1.37 0 0 0-1.25.766v-.766l-1.156.094v.266c.547 0 .609.047.609.438v2.094c0 .359-.094.359-.609.359v.266c.344-.031.688-.031.906-.031l.906.031v-.266c-.5 0-.609 0-.609-.359v-1.437c0-.844.641-1.234 1.141-1.234.516 0 .609.406.609.844v1.828c0 .359-.109.359-.609.359v.266c.344-.031.688-.031.906-.031l.906.031v-.266c-.516 0-.609 0-.609-.359v-1.437c0-.844.641-1.234 1.141-1.234.516 0 .609.406.609.844v1.828c0 .359-.109.359-.609.359v.266c.344-.031.688-.031.906-.031l.906.031v-.266c-.516 0-.609 0-.609-.359zm0 0"/><use xlink:href="#BQ"/><path d="M131.38 102.416c.172 0 .219 0 .219-.187 0-.703-.391-1.547-1.516-1.547-.984 0-1.766.813-1.766 1.797 0 1.031.859 1.828 1.875 1.828 1 0 1.406-.844 1.406-1.031a.12.12 0 0 0-.125-.109c-.094 0-.109.047-.125.094-.281.781-.969.797-1.109.797-.359 0-.734-.156-.969-.531-.234-.359-.234-.875-.234-1.109zm-2.344-.219c.078-1.109.75-1.297 1.047-1.297.938 0 .969 1.125.969 1.297zm0 0"/><use xlink:href="#BP" x="36.209"/><path d="M137.546 102.416c0-.609.25-1.469 1.016-1.484-.047.031-.141.094-.141.281 0 .25.203.359.359.359.188 0 .359-.125.359-.359 0-.281-.25-.5-.609-.5-.516 0-.875.391-1.031.844h-.016v-.844l-1.125.094v.266c.547 0 .609.047.609.438v2.094c0 .359-.109.359-.609.359v.266c.313-.031.75-.031.938-.031l1 .031v-.266h-.156c-.578 0-.594-.078-.594-.375zm4.768-1.344c-.234.063-.266.25-.266.344a.36.36 0 0 0 .375.375c.219 0 .375-.141.375-.391 0-.484-.531-.719-1.281-.719-1.109 0-1.859.875-1.859 1.828 0 1.016.828 1.797 1.828 1.797 1.125 0 1.406-.937 1.406-1.031s-.109-.094-.125-.094c-.062 0-.094 0-.125.078a1.07 1.07 0 0 1-1.078.797c-.484 0-1.203-.375-1.203-1.562 0-1.141.594-1.578 1.172-1.578.078 0 .5 0 .781.156zm4.464.734c0-.656-.312-1.094-1.141-1.094-.703 0-1.062.453-1.219.703v-2.719l-1.187.094v.266c.547 0 .609.047.609.438v4.109c0 .359-.094.359-.609.359v.266c.344-.031.688-.031.906-.031l.906.031v-.266c-.5 0-.609 0-.609-.359v-1.437c0-.844.641-1.234 1.125-1.234s.609.344.609.844v1.828c0 .359-.094.359-.609.359v.266c.344-.031.703-.031.906-.031l.922.031v-.266c-.516 0-.609 0-.609-.359zm0 0"/></g><g class="B C Q"><path d="M163.633 101.43h16" class="D F W"/><path d="M171.633 104.43a3 3 0 0 0 2.121-.879c.563-.562.879-1.328.879-2.121s-.316-1.562-.879-2.125-1.324-.875-2.121-.875-1.559.313-2.121.875-.879 1.328-.879 2.125.316 1.559.879 2.121a3 3 0 0 0 2.121.879zm0 0" class="T"/></g><g class="K"><use xlink:href="#BQ" x="62.653"/><use xlink:href="#BR"/><path d="M197.734 98.791v.266h.188c.609 0 .625.078.625.375v4.156c0 .297-.016.375-.625.375h-.187v.266h3.031c1.438 0 2.594-1.187 2.594-2.672 0-1.531-1.156-2.766-2.594-2.766zm1.906 5.172c-.375 0-.391-.047-.391-.328v-4.266c0-.266.016-.312.391-.312h.906c.625 0 1.141.25 1.5.641.5.609.5 1.469.5 1.859 0 .406 0 1.188-.5 1.766-.266.328-.781.641-1.5.641zm0 0"/></g><g class="B P"><path d="M219.844 101.43h16" class="C D F W"/><path d="M224.844 104.43h6v-6h-6zm0 0" class="S"/></g><g class="K"><path d="M247.887 98.822c0-.125 0-.203-.109-.203-.062 0-.062 0-.141.109l-.406.594c-.281-.312-.812-.703-1.578-.703-1.594 0-2.937 1.281-2.937 2.891s1.328 2.891 2.953 2.891c1.328 0 2.219-1.062 2.219-2.031 0-.078 0-.156-.141-.156-.078 0-.109.047-.109.125-.062 1.219-1.062 1.797-1.906 1.797-.672 0-2.187-.422-2.187-2.625 0-2.156 1.438-2.625 2.188-2.625s1.672.531 1.891 1.906c0 .063.016.109.125.109.141 0 .141-.047.141-.203zm0 0"/><use xlink:href="#BR" x="57.624"/></g><path d="M271.004 101.43h16" class="B C D F O W"/><path d="M279.004 98.43l-3 6h6zm0 0" class="R"/><g clip-path="url(#AX)" class="B D O"><path d="M279.004 98.43l-3 6h6zm0 0"/></g><g class="K"><use xlink:href="#BQ" x="170.025"/><path d="M303.388 99.587c.219-.531.719-.531.875-.531v-.266l-.781.016c-.156 0-.516 0-.875-.016v.266c.344 0 .531.172.531.375 0 .078 0 .094-.047.188l-1.578 3.859-1.656-4.062c-.031-.078-.047-.109-.047-.141 0-.219.422-.219.609-.219v-.266l-1.109.016c-.375 0-.625 0-1.031-.016v.266c.484 0 .656 0 .781.297l2 4.859c.063.156.125.188.203.188.156 0 .172-.062.219-.187zm0 0"/><use xlink:href="#BR" x="113.473"/><path d="M312.753 101.744h1.453c.969 0 1.922-.625 1.922-1.469 0-.781-.844-1.484-1.984-1.484h-2.937v.266h.188c.609 0 .625.078.625.375v4.156c0 .297-.016.375-.625.375h-.187v.266l1.172-.031 1.172.031v-.266h-.172c-.609 0-.625-.078-.625-.375zm-.031-.234v-2.141c0-.266.016-.312.391-.312h.828c1.359 0 1.359.859 1.359 1.219 0 .344 0 1.234-1.359 1.234zm0 0"/></g></svg>