<svg xmlns="http://www.w3.org/2000/svg" width="353.2" height="197.5" xmlns:v="https://vecta.io/nano"><style><![CDATA[.I{fill:#0d0887}.J{fill:#4c02a1}.K{fill:#5e01a6}.L{fill:#d24f71}]]></style><clipPath id="A"><path d="M10.8 210.6h203.04V10.8H10.8z"/></clipPath><g clip-path="url(#A)" transform="translate(62.538 -9.249)"><g class="I"><path d="M157.147 98.24l-13.1 29.77-32.37-3.477-7.045-31.662L132.6 76.495z"/><path d="M69.614 133.982l24.406 8.48 17.666-17.928-7.045-31.662-23.644-8.886-18.544 17.87z"/><path d="M111.686 124.533l32.37 3.477 9.843 21.083-17.498 19.14-32.953-3.766-9.43-22.006zm20.922-48.038L104.64 92.87l-23.644-8.886-.743-23.7 28.4-16.9 24.017 10.093z"/><path d="M157.147 98.24l-13.1 29.77 9.843 21.083 22.287-3.4 13.57-30.526-11.43-21.328z"/><path d="M157.147 98.24l-24.54-21.744.05-22.998 21.777-5.795L179.73 69.96l-1.404 23.868zm-87.533 35.742l-18.163 15.18 9.927 21.832 24.62 9.437 17.45-15.965-9.43-22.006zm-7.16-32.126l-22.87-5.892-.227-23.7 18.33-18.877 22.568 6.907.743 23.7z"/><path d="M32.35 125.553l19.1 23.6 18.163-15.18-7.16-32.126-22.87-5.892zm76.513 69.2l-22.865-14.3 17.45-15.965 32.953 3.766 4.205 18.605z"/></g><path d="M57.685 53.388l14.8-22.055 32.195-6.094 3.973 18.165-28.4 16.9z" class="J"/><path d="M140.607 186.838l22.007-4.08 18.903-18.938-5.33-18.138-22.287 3.4-17.498 19.14z" class="I"/><path d="M151.704 29.512l2.732 18.2-21.777 5.795-24.017-10.093-3.973-18.165 21.827-5.042z" class="K"/><g class="I"><path d="M204.444 88.75L193.85 66.507l-14.116 3.453-1.404 23.868 11.43 21.328 14.4-2.095z"/><path d="M181.517 163.82l-5.33-18.138 13.57-30.526 14.4-2.095-4.987 30.683z"/></g><path d="M176.38 40.932l-24.676-11.42 2.732 18.2 25.297 22.258 14.116-3.453z" class="J"/><g class="I"><path d="M25.756 127.234l8.56 23.292L54.12 174.66l7.258-3.665-9.927-21.832-19.1-23.6z"/><path d="M25.756 127.234l-2.093-24.425 7.642-30.4 8.05-.144.227 23.7-7.232 29.6zm83.107 67.508l-5.456 2.788-26.314-8.2-22.972-14.68 7.258-3.665L86 180.432z"/></g><path d="M46.03 50.012L31.305 72.4l8.05-.144 18.33-18.877 14.8-22.055-6.038.214z" class="K"/><path d="M158.902 186.915l3.712-4.157-22.007 4.08-31.744 7.904-5.456 2.788 22.604-2.37z" class="I"/><path d="M121.466 18.45l5.03 1.747-21.827 5.042-32.195 6.094-6.038.214 21.648-6.82z" class="L"/><path d="M158.902 186.915l3.712-4.157 18.903-18.938 17.664-20.076-4.107 2.02-18.4 20.884z" class="I"/><path d="M146.35 30.03l25.552 11.273 4.477-.372-24.676-11.42-25.208-9.315-5.03-1.747z" class="L"/><path d="M195.074 145.765l1.93-24.7 5.22-31.562 2.22-.753-.276 24.3-4.987 30.683z" class="I"/><path d="M171.903 41.304l12.285 21.966 18.036 26.234 2.22-.753-10.595-22.244-17.47-25.575z" class="K"/><path d="M44.63 149.432l-10.312 1.094L54.12 174.66l22.972 14.68-5.207-15.213z" class="I"/><path d="M47.9 66.6L46.028 50 31.305 72.4l-7.642 30.4 9.978-2.6z" class="J"/><g class="I"><path d="M25.756 127.234l8.56 23.292 10.312-1.094-.23-25.602L33.64 100.2l-9.978 2.6zM126 195.16l-22.604 2.37-26.314-8.2-5.207-15.213 23.275-4.477 27.06 10.342z"/></g><path d="M71.056 61.435l20.17-20.72-3.143-15.987-21.648 6.82L46.03 50.012 47.9 66.6z" class="L"/><path d="M158.902 186.915l-32.9 8.244-3.8-15.168 32.1-18.178 22.352 4.836z" class="I"/><path d="M91.227 40.714l36.964 3.462 18.16-14.145-24.885-11.58-33.382 6.277z" fill="#f0f921"/><path d="M202.224 89.504L184.188 63.27l-17.265 15.083 8.135 36.653 21.947 6.06z" class="J"/><path d="M195.074 145.765l-18.4 20.884-22.352-4.836.13-26.04 20.595-20.768 21.947 6.06z" class="I"/><path d="M139.428 68.1L128.2 44.176l18.16-14.145 25.552 11.273 12.285 21.966-17.265 15.083z" class="L"/><path d="M44.4 123.83l.23 25.602 27.257 24.694 23.275-4.477-.498-25.015-28.198-25.362z" class="I"/><path d="M44.4 123.83L33.642 100.2 47.9 66.6l23.145-5.166L81.318 84.7l-14.852 34.562z" class="K"/><path d="M95.16 169.65l27.06 10.342 32.1-18.178.13-26.04-27.13-9.968-32.668 18.828z" class="I"/><path d="M71.056 61.435l20.17-20.72 36.964 3.462L139.428 68.1 119.042 88.53 81.318 84.7z" class="L"/><path d="M154.463 135.774l-27.13-9.968-8.3-37.277L139.428 68.1l27.495 10.252 8.135 36.653z" class="K"/><path d="M94.664 144.634l32.668-18.828-8.3-37.277-37.724-3.82-14.852 34.562z" class="J"/></g></svg>