<svg xmlns="http://www.w3.org/2000/svg" xmlns:xlink="http://www.w3.org/1999/xlink" width="489.6" height="296.6" viewBox="0 0 244.8 148.3" xmlns:v="https://vecta.io/nano"><style><![CDATA[.B{stroke-miterlimit:10}.C{stroke-linejoin:round}.D{stroke-opacity:.5}.E{fill:none}.F{stroke-linecap:square}.G{stroke:rgb(0%, 0%, 0%)}.H{stroke-width:.5}.I{fill:rgb(0%, 0%, 0%)}.J{clip-rule:nonzero}.K{stroke-width:1.3}.L{stroke:rgb(50.195312%, 50.195312%, 50.195312%)}.M{stroke-opacity:.35}.N{fill:rgb(100%, 49.803162%, 5.490112%)}.O{stroke:rgb(100%, 49.803162%, 5.490112%)}.P{stroke-width:.8}]]></style><defs><clipPath id="A"><path d="M60.852 17.109H62v95.125h-1.148zm0 0" class="J"/></clipPath><clipPath id="B"><path d="M67 17.109h3v95.125h-3zm0 0" class="J"/></clipPath><clipPath id="C"><path d="M143 17.109h3v95.125h-3zm0 0" class="J"/></clipPath><clipPath id="D"><path d="M219 17.109h3v95.125h-3zm0 0" class="J"/></clipPath><clipPath id="E"><path d="M226 17.109h1.824v95.125H226zm0 0" class="J"/></clipPath><clipPath id="F"><path d="M60.852 111h166.973v1.234H60.852zm0 0" class="J"/></clipPath><clipPath id="G"><path d="M60.852 87h166.973v3H60.852zm0 0" class="J"/></clipPath><clipPath id="H"><path d="M60.852 63h166.973v3H60.852zm0 0" class="J"/></clipPath><clipPath id="I"><path d="M60.852 39h166.973v3H60.852zm0 0" class="J"/></clipPath><clipPath id="J"><path d="M60.852 17.109h166.973V19H60.852zm0 0" class="J"/></clipPath><path id="K" d="M57.936 127.481h1.094c.234 0 .344 0 .344-.203 0-.141-.062-.141-.312-.141h-1.047l.438-1.734c.047-.172.047-.203.047-.281 0-.187-.141-.297-.297-.297-.109 0-.375.031-.469.422l-.469 1.891h-1.125c-.234 0-.344 0-.344.234 0 .109.078.109.313.109h1.063l-.797 3.156-.125.703c0 .563.391 1.078 1.063 1.078 1.203 0 1.859-1.75 1.859-1.828s-.062-.109-.125-.109c-.031 0-.078 0-.094.047-.016.016-.031.016-.109.219-.25.594-.797 1.422-1.5 1.422-.359 0-.375-.297-.375-.562 0 0 0-.234.031-.375zm0 0"/><path id="L" d="M71.141 128.418c.172 0 .391 0 .391-.219s-.203-.219-.391-.219h-7.031c-.172 0-.391 0-.391.219s.203.219.391.219zm0 2.219c.172 0 .391 0 .391-.203 0-.234-.203-.234-.391-.234h-7.031c-.172 0-.391 0-.391.219s.203.219.391.219zm0 0"/><path id="M" d="M80.855 128.465c0-.984-.062-1.953-.5-2.859-.484-1-1.344-1.266-1.937-1.266-.687 0-1.531.344-1.984 1.344-.328.75-.453 1.5-.453 2.781 0 1.156.094 2.031.516 2.891a2.13 2.13 0 0 0 1.922 1.188c1.031 0 1.625-.625 1.984-1.312.422-.891.453-2.062.453-2.766zm-2.437 3.844c-.391 0-1.172-.219-1.391-1.516-.125-.719-.125-1.625-.125-2.469 0-.984 0-1.859.188-2.562.203-.812.813-1.172 1.328-1.172.453 0 1.141.266 1.375 1.297.156.688.156 1.625.156 2.438 0 .797 0 1.703-.141 2.438-.219 1.313-.984 1.547-1.391 1.547zm0 0"/><path id="N" d="M230.726 124.637c0-.281 0-.297-.234-.297-.281.328-.891.766-2.109.766v.344c.266 0 .859 0 1.531-.297v6.219c0 .438-.047.578-1.094.578h-.375v.344c.328-.031 1.484-.031 1.875-.031l1.875.031v-.344h-.375c-1.047 0-1.094-.141-1.094-.578zm0 0"/><path id="O" d="M38.228 113.636c.203 0 .422 0 .422-.234 0-.25-.219-.25-.422-.25h-6.469c-.203 0-.422 0-.422.25 0 .234.219.234.422.234zm0 0"/><path id="P" d="M44.918 114.37h-.266c-.047.203-.141.875-.25 1.063-.094.109-.766.109-1.125.109h-2.219c.328-.281 1.063-1.047 1.359-1.328 1.828-1.672 2.5-2.297 2.5-3.484 0-1.375-1.094-2.297-2.484-2.297-1.375 0-2.203 1.188-2.203 2.219a.55.55 0 0 0 .563.609c.266 0 .563-.187.563-.562 0-.344-.219-.562-.562-.562-.094 0-.125 0-.156.016.219-.812.875-1.375 1.641-1.375 1.016 0 1.641.859 1.641 1.953 0 1.016-.578 1.906-1.266 2.672l-2.422 2.703v.281h4.375zm0 0"/><path id="Q" d="M26.271 84.122c-.031 0-.062 0-.266.203-1.203 1.203-3.172 1.875-5.609 1.875-2.328 0-4.328-.562-5.734-1.953-.109-.125-.125-.125-.172-.125-.062 0-.094.063-.094.109 0 .156.859 1.141 2.031 1.719 1.219.609 2.484.891 3.969.891 1.063 0 2.484-.172 3.75-.781 1.438-.719 2.219-1.687 2.219-1.828 0-.047-.031-.109-.094-.109zm0 0"/><path id="R" d="M20.396 54.935c-.922 0-2.391.125-3.781.797-1.437.703-2.219 1.688-2.219 1.813 0 .047.031.109.094.109.047 0 .063 0 .266-.203 1.203-1.203 3.188-1.859 5.625-1.859 2.313 0 4.313.563 5.719 1.938.109.125.141.125.172.125.063 0 .094-.062.094-.109 0-.156-.859-1.141-2.031-1.719-1.219-.609-2.516-.891-3.937-.891zm0 0"/><path id="S" d="M172.044 25.352c.125 0 .172 0 .172-.141 0-.453-.25-1.172-1.25-1.172-.844 0-1.453.641-1.453 1.359 0 .75.688 1.375 1.531 1.375.875 0 1.172-.656 1.172-.781 0-.031-.016-.094-.109-.094-.078 0-.094.031-.109.109-.187.438-.641.547-.906.547-.328 0-.609-.141-.781-.359-.219-.281-.219-.672-.219-.844zm-1.937-.172c.063-.797.609-.953.859-.953.766 0 .813.781.813.953zm0 0"/><path id="T" d="M175.338 24.93c0-.562-.562-.891-1.234-.891-.297 0-1 .031-1 .531 0 .172.109.297.297.297a.27.27 0 0 0 .281-.281c0-.109-.047-.219-.156-.266.203-.094.5-.094.563-.094.422 0 .75.266.75.719v.156c-.266 0-.75.016-1.187.172-.391.141-.766.406-.766.813 0 .531.625.688 1.094.688.5 0 .797-.25.938-.484.031.313.234.453.438.453.031 0 .672 0 .672-.562v-.344h-.219v.328c0 .063 0 .328-.234.328s-.234-.266-.234-.328zm-.5.938c0 .609-.609.719-.812.719-.312 0-.625-.203-.625-.5 0-.344.328-.781 1.438-.812zm0 0"/><path id="U" d="M179.413 24.899c0-.578-.328-.828-.937-.828-.516 0-.844.281-1.031.563v-.562l-.922.063v.234c.422 0 .469.047.469.344v1.516c0 .25-.047.25-.469.25v.234l.719-.031.719.031v-.234c-.406 0-.469 0-.469-.25v-1.062c0-.656.563-.906.938-.906.406 0 .5.25.5.625v1.344c0 .25-.062.25-.484.25v.234l.719-.031.734.031v-.234c-.422 0-.484 0-.484-.25zm0 0"/><path id="V" d="M181.737 30.917l-.937.063v.234c.406 0 .469.047.469.344v3.031c0 .25-.062.25-.469.25v.234l.703-.031.703.031v-.234c-.406 0-.469 0-.469-.25zm0 0"/><path id="W" d="M188.193 32.573c0-.109 0-.172-.094-.172-.031 0-.047 0-.125.078-.016.016-.031.016-.109.094-.234-.156-.531-.172-.656-.172-.937 0-1.125.469-1.125.75 0 .578.703.688 1.172.766.266.047.781.125.781.516 0 .234-.172.516-.781.516-.578 0-.812-.344-.937-.797-.016-.047-.031-.078-.109-.078-.125 0-.125.047-.125.172v.719c0 .109 0 .172.094.172.047 0 .047-.016.156-.109l.141-.156c.297.266.656.266.781.266.875 0 1.109-.484 1.109-.828 0-.25-.109-.422-.25-.531-.25-.234-.484-.266-.844-.328-.453-.078-.859-.141-.859-.453 0-.172.172-.422.797-.422.406 0 .734.156.766.578 0 .078.016.125.109.125.109 0 .109-.047.109-.156zm0 0"/><path id="X" d="M182.084 39.749c0-.172-.156-.359-.359-.359-.187 0-.359.141-.359.359s.172.359.359.359c.203 0 .359-.172.359-.359zm-.953 1.109v.234c.391 0 .453.047.453.344v1.516c0 .25-.062.25-.469.25v.234l.688-.031.672.031v-.234c-.375 0-.422 0-.422-.25v-2.156zm0 0"/></defs><path fill="rgb(100%, 100%, 100%)" d="M60.852 112.234h166.973V17.109H60.852zm0 0"/><path fill-opacity=".07" stroke-opacity=".07" d="M68.441 64.629v.086l1.535.281 1.531.082 1.535-.055 1.531-.316 1.535-.633 1.531-.949 1.535-1.023 1.531-1.133 1.535-1.051 1.535-1.48 1.531-1.449 1.535-1.352 1.531-1.375 1.535-1.492 1.531-1.863 1.535-1.645 1.531-1.187 1.535-.941 1.531-.84 1.535-.203 1.531.566 1.535.848 1.531 1.09 1.535 1.305 1.531 1.324 1.535 1.391 1.531 1.539 1.535 1.781 1.531 2.082 1.535 2.09 1.531 1.906 1.535 2.121 1.531 3.051 1.535 3.418 1.531 3.359 1.535 2.922 1.531 2.605 1.535 2.188 1.531 1.906 1.535 1.574 1.531 1.219 1.535 1.039 1.531 1.156 1.535 1.297 1.531 1.082 1.535.766 1.531.609 1.535.262 1.531-.113 1.535-.875 1.531-1.305 1.535-1.43 1.531-1.445 1.535-1.512 1.531-1.59 1.535-1.746 1.535-2.207 1.531-2.098 1.531-1.891 1.535-1.023 1.535-.555 1.531-.398 1.531-.258 1.535-.254 1.535.211 1.531.422 1.535.145 1.531.473 1.535.227 1.531.449 1.535.348 1.531.371 1.535.508 1.531.348 1.535.176 1.531-.012 1.535-.199 1.531-.355 1.535-.363 1.531-.102 1.535-.148 1.531-.199 1.535-.242 1.531-.176 1.535-.227 1.531-.332 1.535.117 1.531-.098 1.535-.754 1.531-.668 1.535-.766 1.531-.93 1.535-1.047 1.531-.922 1.535-.941 1.531-1.082 1.535-1.164 1.531-1.172 1.535-1.055v-.098l-1.535-1.133-1.531-1.254-1.535-1.285-1.531-1.262-1.535-1.168-1.531-1.031-1.535-.859-1.531-.957-1.535-.652-1.531-.598-1.535-.129-1.531.004-1.535.035-1.531-.437-1.535-1.043-1.531-.977-1.535-.449-1.531.352-1.535.742-1.531.641-1.535.527-1.531.23-1.535-.367-1.531-.344-1.535-.266-1.531-.145-1.535.035-1.531.52-1.535.859-1.531 1.074-1.535 1.363-1.531 1.809-1.535 2.023-1.531 2.051-1.535 1.918-1.535 2.039-1.531 1.973-1.531 2.297-1.535 2.133-1.535 1.387-1.531.688-1.531.582-1.535.691-1.535.805-1.531 1.102-1.535 1.363-1.531 1.141-1.535 1.262-1.531.754-1.535.941-1.531.941-1.535.961-1.531.906-1.535.648-1.531.289-1.535-.266-1.531-.848-1.535-1.633-1.531-2.086-1.535-2.371-1.531-2.699-1.535-2.781-1.531-2.641-1.535-2.457-1.531-2.152-1.535-2.062-1.531-2.539-1.535-2.98-1.531-2.937-1.535-2.527-1.531-2.211-1.535-1.965-1.531-1.773-1.535-1.598-1.531-1.285-1.535-.77-1.531-.516-1.535-.105-1.531.195-1.535-.297-1.531-.336-1.535.004-1.531.129-1.535.383-1.531.375-1.535.156-1.531.484-1.535.598-1.531.836-1.535 1.438-1.535 1.324-1.531 1.285-1.535 1.516-1.531 1.91-1.535 2.047-1.531 2.031-1.535 2.141-1.531 2.184zm0 0" class="B C N O"/><g clip-path="url(#A)" class="B C E F K L M"><path d="M60.852 112.234V17.109"/></g><path d="M60.852 116.992v3.5" class="B C E G H"/><g clip-path="url(#B)" class="B C E F K L M"><path d="M68.441 112.234V17.109"/></g><path d="M68.441 116.992v3.5" class="B C E G H"/><g class="I"><use xlink:href="#K"/><use xlink:href="#L"/><use xlink:href="#M"/></g><g clip-path="url(#C)" class="B C E F K L M"><path d="M144.34 112.234V17.109"/></g><path d="M144.34 116.992v3.5" class="B C E G H"/><g class="I"><path d="M129.279 127.481h1.094c.234 0 .344 0 .344-.203 0-.141-.062-.141-.312-.141h-1.047l.438-1.734c.047-.172.047-.203.047-.281 0-.187-.141-.297-.297-.297-.109 0-.375.031-.469.422l-.469 1.891h-1.125c-.234 0-.344 0-.344.234 0 .109.078.109.313.109h1.062l-.797 3.156-.125.703c0 .563.391 1.078 1.062 1.078 1.203 0 1.859-1.75 1.859-1.828s-.062-.109-.125-.109c-.031 0-.078 0-.094.047-.016.016-.031.016-.109.219-.25.594-.797 1.422-1.5 1.422-.359 0-.375-.297-.375-.562 0 0 0-.234.031-.375zm0 0"/><use xlink:href="#L" x="71.343"/><use xlink:href="#M" x="71.344"/><path d="M154.902 131.715c0-.344-.297-.578-.578-.578-.344 0-.578.281-.578.578 0 .344.281.578.563.578a.59.59 0 0 0 .594-.578zm2.58-6.266a3.88 3.88 0 0 0 1.063.172c1.344 0 2.219-.984 2.219-1.156 0-.047-.031-.109-.109-.109-.016 0-.047 0-.156.047a3.99 3.99 0 0 1-1.547.328c-.781 0-1.344-.25-1.578-.344-.078-.031-.109-.031-.125-.031-.094 0-.094.078-.094.266v3.547c0 .219 0 .281.141.281.063 0 .078 0 .203-.156.328-.484.891-.766 1.484-.766.641 0 .953.578 1.047.781.203.469.219 1.063.219 1.516s0 1.125-.344 1.672c-.266.422-.719.719-1.25.719-.797 0-1.562-.531-1.781-1.406.063.031.125.031.188.031.203 0 .531-.109.531-.516 0-.344-.234-.531-.531-.531-.219 0-.531.109-.531.578 0 1.016.828 2.172 2.141 2.172 1.359 0 2.547-1.141 2.547-2.656 0-1.422-.969-2.609-2.219-2.609a2.08 2.08 0 0 0-1.516.641zm0 0"/></g><g clip-path="url(#D)" class="B C E F K L M"><path d="M220.234 112.234V17.109"/></g><path d="M220.234 116.992v3.5" class="B C E G H"/><g class="I"><use xlink:href="#K" x="151.791"/><path d="M222.932 128.418c.172 0 .391 0 .391-.219s-.203-.219-.391-.219H215.9c-.172 0-.391 0-.391.219s.203.219.391.219zm0 2.219c.172 0 .391 0 .391-.203 0-.234-.203-.234-.391-.234H215.9c-.172 0-.391 0-.391.219s.203.219.391.219zm0 0"/><use xlink:href="#N"/></g><g clip-path="url(#E)" class="B C E F K L M"><path d="M227.824 112.234V17.109"/></g><path d="M227.824 116.992v3.5" class="B C E G H"/><g clip-path="url(#F)" class="B C E F K L M"><path d="M60.852 112.234h166.973"/></g><path d="M52.504 112.234h-3.5" class="B C E G H"/><g class="I"><use xlink:href="#O"/><use xlink:href="#P"/></g><g clip-path="url(#G)" class="B C E F K L M"><path d="M60.852 88.453h166.973"/></g><path d="M52.504 88.453h-3.5" class="B C E G H"/><g class="I"><use xlink:href="#O" y="-23.781"/><use xlink:href="#N" x="-187.636" y="-39.688"/></g><g clip-path="url(#H)" class="B C E F K L M"><path d="M60.852 64.672h166.973"/></g><path d="M52.504 64.672h-3.5" class="B C E G H"/><use xlink:href="#M" x="-35.844" y="-63.469" class="I"/><g clip-path="url(#I)" class="B C E F K L M"><path d="M60.852 40.891h166.973"/></g><path d="M52.504 40.891h-3.5" class="B C E G H"/><use xlink:href="#N" x="-187.636" y="-87.25" class="I"/><g clip-path="url(#J)" class="B C E F K L M"><path d="M60.852 17.109h166.973"/></g><path d="M52.504 17.109h-3.5" class="B C E G H"/><g class="I"><use xlink:href="#P" y="-95.124"/><use xlink:href="#Q"/><path d="M18.553 78.133c0-.234 0-.344-.219-.344-.125 0-.125.109-.125.313v.969l-2.453-.484c-.297-.078-.562-.328-.562-.641 0-.25.109-.5.219-.609.047.453.391.609.594.609.234 0 .375-.187.375-.406a.63.63 0 0 0-.656-.609c-.5 0-.781.5-.781 1.031 0 .516.391 1.016.859 1.25.422.219.844.344 2.406.609v.813c0 .219 0 .344.219.344.125 0 .125-.078.125-.312V79.9l5.094.984c1.047.203 1.922.375 1.922.969 0 .047 0 .391-.234.609-.047-.609-.562-.609-.578-.609-.25 0-.391.172-.391.406s.203.594.656.594c.516 0 .781-.531.781-1 0-1.219-2.187-1.719-2.781-1.844l-4.469-.859zm-3.719-6.945c-.219 0-.437 0-.437.25 0 .234.219.234.438.234h11.094c.203 0 .422 0 .422-.234 0-.25-.219-.25-.422-.25zm4.734-11.47l-.984-.219c-.25 0-.531.188-.531.563 0 .188.109.625.641.781l2.719.688.844.172c.281.219.781.688.781 1.297 0 .703-.609.719-.875.719-.734 0-1.672-.375-2.531-.703-.312-.125-.391-.156-.594-.156-.687 0-1.078.688-1.078 1.344 0 1.266 1.625 1.875 1.875 1.875.156 0 .156-.187.156-.297 0-.141 0-.219-.156-.266-1.328-.406-1.437-1.047-1.437-1.234 0-.094 0-.203.25-.203.266 0 .609.141.75.188 1.25.5 1.922.734 2.516.734 1.359 0 1.547-1.203 1.547-1.906 0-.344-.047-.875-.656-1.516.594-.391.656-1.078.656-1.359 0-.453-.25-.797-.672-1.047-.484-.297-1.125-.453-1.187-.453-.172 0-.172.188-.172.281 0 .141 0 .188.063.25.016.016.047.016.344.094.938.234 1.203.5 1.203.813 0 .172-.125.266-.453.266-.203 0-.391-.047-.875-.156l-1.062-.266zm0 0"/><use xlink:href="#R"/><use xlink:href="#Q" y="-34.246"/><path d="M20.381 46.909c-.344 0-.641.281-.641.641 0 .344.297.625.641.625s.625-.281.625-.625a.63.63 0 0 0-.625-.641zm0 0"/><use xlink:href="#R" y="-12.425"/></g><g class="B C E F"><path stroke-width="1.2" d="M68.441 64.672l1.535-.867 1.531-.969 1.535-1.062 1.531-1.141 1.535-1.211 1.531-1.266 1.535-1.305 1.531-1.328 1.535-1.336 1.535-1.32 1.531-1.289 1.535-1.23 1.531-1.156 1.535-1.059 1.531-.93 1.535-.785 1.531-.609 1.535-.418 1.531-.199 1.535.031 1.531.281 1.535.527 1.531.781 1.535 1.02 1.531 1.262 1.535 1.484 1.531 1.703 1.535 1.902 1.531 2.094 1.535 2.27 1.531 2.418 1.535 2.551 1.531 2.645 1.535 2.703 1.531 2.719 1.535 2.68 1.531 2.594 1.535 2.449 1.531 2.258 1.535 2.016 1.531 1.73 1.535 1.41 1.531 1.07 1.535.73 1.531.395 1.535.078 1.531-.203 1.535-.465 1.531-.684 1.535-.871 1.531-1.027 1.535-1.152 1.531-1.238 1.535-1.297 1.531-1.328 1.535-1.336 1.535-1.32 1.531-1.285 1.531-1.227 1.535-1.164 1.535-1.086 1.531-1.008 1.531-.926 1.535-.844 1.535-.762 1.531-.687 1.535-.613 1.531-.551 1.535-.484 1.531-.426 1.535-.375 1.531-.328 1.535-.285 1.531-.246 1.535-.211 1.531-.18 1.535-.152 1.531-.133 1.535-.105 1.531-.09 1.535-.074 1.531-.059 1.535-.047 1.531-.035 1.535-.031 1.531-.02 1.535-.012 1.531-.008 1.535-.004 1.531-.004 1.535.004 1.531.004 1.535.008 1.531.008 1.535.008 1.531.008 4.602.023" class="G"/><g class="H O D"><path d="M68.441 64.656l1.535-1.297 1.531-1.215 1.535-1.141 1.531-1.102 1.535-1.094 1.531-1.117 1.535-1.164 1.531-1.219 1.535-1.266 1.535-1.277 1.531-1.254 1.535-1.199 1.531-1.102 1.535-.988 1.531-.863 1.535-.727 1.531-.598 1.535-.449 1.531-.289 1.535-.098 1.531.129 1.535.398 1.531.695 1.535 1.012 1.531 1.32 1.535 1.613 1.531 1.863 1.535 2.063 1.531 2.211 1.535 2.316 1.531 2.395 1.535 2.461 1.531 2.523 1.535 2.586 1.531 2.641 1.535 2.676 1.531 2.656 1.535 2.566 1.531 2.383 1.535 2.102 1.531 1.723 1.535 1.277 1.531.801 1.535.328 1.531-.082 1.535-.418 1.531-.652 1.535-.793 1.531-.863 1.535-.875 1.531-.875 1.535-.871 1.531-.891 1.535-.93 1.531-.996 1.535-1.062 1.535-1.129 1.531-1.172 1.531-1.199 1.535-1.195 1.535-1.187 3.063-2.344 1.535-1.187L168.105 68l1.531-1.242 1.535-1.266 1.531-1.258 1.535-1.211 1.531-1.125 1.535-.992 1.531-.832 1.535-.664 1.531-.492 1.535-.352 1.531-.242 1.535-.172 1.531-.133 1.535-.121 1.531-.113 1.535-.102 1.531-.09 1.535-.055 1.531-.016 1.535.031 1.531.074 1.535.117 1.531.156 1.535.207 1.531.266 1.535.348 1.531.453 1.535.574 1.531.695 1.535.809 1.531.879 1.535.902 1.531.859 1.535.762"/><path d="M68.441 64.645l1.535-1.148 1.531-1.242 1.535-1.363 1.531-1.48 1.535-1.578 1.531-1.637 1.535-1.629 1.531-1.57 1.535-1.457 1.535-1.305 1.531-1.133 1.535-.961 1.531-.789 1.535-.637 1.531-.496 1.535-.363 1.531-.238 1.535-.098 1.531.051 1.535.211 1.531.391 1.535.582 1.531.777 1.535.977 1.531 1.172 1.535 1.375 1.531 1.57 1.535 1.773 1.531 1.98 1.535 2.188 1.531 2.391 1.535 2.578 1.531 2.734 1.535 2.844 1.531 2.875 1.535 2.832 1.531 2.703 1.535 2.496 1.531 2.211 1.535 1.867 1.531 1.488 1.535 1.086 1.531.688 1.535.316h1.531l1.535-.266 1.531-.469 1.535-.617 1.531-.719 1.535-.785 1.531-.836 1.535-.883 1.531-.934 1.535-1 1.531-1.074 1.535-1.16 1.535-1.238 1.531-1.297 1.531-1.324 1.535-1.309 1.535-1.234 1.531-1.113 1.531-.941 1.535-.742 1.535-.52 1.531-.305 1.535-.105 1.531.059 1.535.188 1.531.277 1.535.348 1.531.395 1.535.438 1.531.477 1.535.52 1.531.563 1.535.59 1.531.605 1.535.59 1.531.539 1.535.465 1.531.367 1.535.258 1.531.156 1.535.07h1.531l1.535-.047 1.531-.086 1.535-.137 1.531-.219 1.535-.344 1.531-.531 1.535-.758 1.531-1.023 1.535-1.289 1.531-1.516 1.535-1.676 1.531-1.73 1.535-1.676"/><path d="M68.441 64.684l1.535-.926 1.531-1.199 1.535-1.387 1.531-1.48 1.535-1.48 1.531-1.418 1.535-1.305 1.531-1.184 1.535-1.078 1.535-1.004 1.531-.965 1.535-.953 1.531-.949 1.535-.93 1.531-.867 1.535-.762 1.531-.605 1.535-.41 1.531-.191 1.535.031 1.531.238 1.535.422 1.531.59 1.535.75 1.531.926 1.535 1.133 1.531 1.395 1.535 1.695 1.531 2.035 1.535 2.379 1.531 2.695 1.535 2.938 1.531 3.09 1.535 3.117 1.531 3.039 1.535 2.852 1.531 2.609 1.535 2.336 1.531 2.066 1.535 1.824 1.531 1.605 1.535 1.406 1.531 1.207 1.535.977 1.531.711 1.535.383h1.531l1.535-.418 1.531-.836 1.535-1.219 1.531-1.516 1.535-1.707 1.531-1.766 1.535-1.711 1.531-1.555 1.535-1.332 1.535-1.09 1.531-.852 1.531-.652 1.535-.508 1.535-.41 1.531-.344 1.531-.301 1.535-.262 1.535-.227 1.531-.191 1.535-.16 1.531-.156 1.535-.187 1.531-.266 1.535-.379 1.531-.512 1.535-.652 1.531-.758 1.535-.812 1.531-.789 1.535-.691 1.531-.535 1.535-.336 1.531-.133 1.535.039 1.531.156 1.535.199 1.531.168 1.535.086 1.531-.035 1.535-.156 1.531-.258 1.535-.316 1.531-.324 1.535-.301 1.531-.246 1.535-.187 1.531-.148 1.535-.125 1.531-.133 1.535-.16 1.531-.18 1.535-.191"/><path d="M68.441 64.672l1.535-.75 1.531-.883 1.535-.977 1.531-1.051 1.535-1.098 1.531-1.133 1.535-1.156 1.531-1.176 1.535-1.191 1.535-1.199 1.531-1.199 1.535-1.191 1.531-1.164 1.535-1.117 1.531-1.051 1.535-.953 1.531-.836 1.535-.68 1.531-.496 1.535-.277 1.531-.031 1.535.246 1.531.539 1.535.848 1.531 1.16 1.535 1.473 1.531 1.762 1.535 2.031 1.531 2.266 1.535 2.461 1.531 2.613 1.535 2.719 1.531 2.785 1.535 2.805 1.531 2.781 1.535 2.719 1.531 2.617 1.535 2.484 1.531 2.328 1.535 2.133 1.531 1.922 1.535 1.68 1.531 1.422 1.535 1.152 1.531.879 1.535.594 1.531.305 1.535.016 1.531-.289 1.535-.59 1.531-.883 1.535-1.172 1.531-1.43 1.535-1.656 1.531-1.832 1.535-1.941 1.535-1.992 1.531-1.969 1.531-1.875 1.535-1.719 1.535-1.516 1.531-1.281 1.531-1.027 1.535-.781 1.535-.547 1.531-.352 1.535-.187 1.531-.082 1.535-.02 1.531-.012 1.535-.043 1.531-.109 1.535-.195 1.531-.285 1.535-.355 1.531-.402 1.535-.402 1.531-.359 1.535-.27 1.531-.141 1.535.012 1.531.168 1.535.301 1.531.398 1.535.445 1.531.426 1.535.348 1.531.227 1.535.074 1.531-.098 1.535-.25 1.531-.383 1.535-.473 1.531-.52 1.535-.523 1.531-.496 1.535-.441 1.531-.363 1.535-.277"/><path d="M68.441 64.691l1.535-2.207 1.531-2.281 1.535-2.281 1.531-2.199 1.535-2.051 1.531-1.828 1.535-1.57 1.531-1.293 1.535-1.012 1.535-.758 1.531-.547 1.535-.375 1.531-.25 1.535-.168 1.531-.098 1.535-.047 1.531.012 1.535.086 1.531.184 1.535.301 1.531.441 1.535.594 1.531.754 1.535.926 1.531 1.098 1.535 1.285 1.531 1.488 1.535 1.699 1.531 1.922 1.535 2.148 1.531 2.363 1.535 2.559 1.531 2.715 1.535 2.816 1.531 2.852 1.535 2.805 1.531 2.684 1.535 2.48 1.531 2.199 1.535 1.859 1.531 1.465 1.535 1.047 1.531.621 1.535.207 1.531-.168 1.535-.496 1.531-.758 1.535-.949 1.531-1.074 1.535-1.133 1.531-1.137 1.535-1.098 1.531-1.031 1.535-.957 1.531-.879 1.535-.824 1.535-.777 1.531-.758 1.531-.75 1.535-.75 1.535-.746 1.531-.738 1.531-.711 1.535-.676 1.535-.633 1.531-.59 1.535-.555 1.531-.535 1.535-.531 1.531-.551 1.535-.578 1.531-.605 1.535-.613 1.531-.598 1.535-.543 1.531-.445 1.535-.312 1.531-.156 1.535.02 1.531.176 1.535.316 1.531.418 1.535.473 1.531.484 1.535.461 1.531.402 1.535.336 1.531.258 1.535.184 1.531.113 1.535.043 1.531-.027 1.535-.105 1.531-.195 1.535-.289 1.531-.391 1.535-.488 1.531-.57 1.535-.633"/><path d="M68.441 64.711l1.535.336 1.531.102 1.535-.141 1.531-.375 1.535-.582 1.531-.781 1.535-.977 1.531-1.18 1.535-1.395 1.535-1.617 1.531-1.824 1.535-1.984 1.531-2.051 1.535-2.008 1.531-1.82 1.535-1.504 1.531-1.062 1.535-.559 1.531-.023 1.535.461 1.531.867 1.535 1.152 1.531 1.313 1.535 1.367 1.531 1.359 1.535 1.332 1.531 1.328 1.535 1.391 1.531 1.527 1.535 1.738 1.531 1.996 1.535 2.262 1.531 2.496 1.535 2.652 1.531 2.715 1.535 2.691 1.531 2.582 1.535 2.418 1.531 2.23 1.535 2.027 1.531 1.816 1.535 1.605 1.531 1.367 1.535 1.105 1.531.805 1.535.469 1.531.09 1.535-.293 1.531-.672 1.535-.996 1.531-1.25 1.535-1.41 1.531-1.488 1.535-1.492 1.531-1.457 1.535-1.426 1.535-1.422 1.531-1.465 1.531-1.559 1.535-1.68 1.535-1.797 1.531-1.871 1.531-1.859 1.535-1.75 1.535-1.523 1.531-1.199 1.535-.812 1.531-.418 1.535-.059 1.531.227 1.535.41 1.531.488 1.535.473 1.531.406 1.535.309 1.531.215 1.535.152 1.531.113 1.535.098 1.531.09 1.535.063h1.531l1.535-.09 1.531-.215 1.535-.344 1.531-.445 1.535-.496 1.531-.48 1.535-.387 1.531-.234 1.535-.035 1.531.156 1.535.316 1.531.41 1.535.422 1.531.352 1.535.219 1.531.051 1.535-.113"/><path d="M68.441 64.652l1.535-.93 1.531-1.055 1.535-1.176 1.531-1.285 1.535-1.375 1.531-1.449 1.535-1.488 1.531-1.504 1.535-1.492 1.535-1.457 1.531-1.398 1.535-1.309 1.531-1.195 1.535-1.047 1.531-.871 1.535-.66 1.531-.422 1.535-.156 1.531.121 1.535.406 1.531.672 1.535.918 1.531 1.125 1.535 1.293 1.531 1.43 1.535 1.539 1.531 1.625 1.535 1.715 1.531 1.813 1.535 1.926 1.531 2.059 1.535 2.215 1.531 2.371 1.535 2.516 1.531 2.629 1.535 2.688 1.531 2.684 1.535 2.609 1.531 2.449 1.535 2.215 1.531 1.914 1.535 1.555 1.531 1.16 1.535.754 1.531.363 1.535.004 1.531-.316 1.535-.578 1.531-.797 1.535-.961 1.531-1.078 1.535-1.16 1.531-1.211 1.535-1.25 1.531-1.27 1.535-1.289 1.535-1.301 1.531-1.309 1.531-1.312 1.535-1.301 1.535-1.281 1.531-1.246 1.531-1.203 1.535-1.148 1.535-1.09 1.531-1.027 1.535-.969 1.531-.922 1.535-.887 1.531-.855 1.535-.84 1.531-.816 1.535-.793 1.531-.762 1.535-.715 1.531-.645 1.535-.559 1.531-.457 1.535-.34 1.531-.215 1.535-.09 1.531.039 1.535.156 1.531.266 1.535.363 1.531.441 1.535.5 1.531.543 1.535.563 1.531.566 1.535.551 1.531.527 1.535.496 1.531.461 1.535.438 1.531.418 1.535.406 1.531.41 1.535.418"/><path d="M68.441 64.676l1.535-.227 1.531-.254 1.535-.355 1.531-.516 1.535-.699 1.531-.887 1.535-1.059 1.531-1.191 1.535-1.293 1.535-1.359 1.531-1.406L86.844 54l1.531-1.445 1.535-1.441 1.531-1.418 1.535-1.363 1.531-1.262 1.535-1.102 1.531-.875 1.535-.582 1.531-.242 1.535.145 1.531.547 1.535.949 1.531 1.34 1.535 1.695 1.531 2.012 1.535 2.289 1.531 2.52 1.535 2.703 1.531 2.844 1.535 2.938 1.531 2.988 1.535 2.98 1.531 2.914 1.535 2.789 1.531 2.602 1.535 2.363 1.531 2.066 1.535 1.734 1.531 1.375 1.535 1 1.531.637 1.535.293 1.531-.004 1.535-.254 1.531-.453 1.535-.605 1.531-.719 1.535-.797 1.531-.859 1.535-.906 1.531-.957 1.535-1.012 1.531-1.066 1.535-1.125 1.535-1.187 1.531-1.234 1.531-1.266 1.535-1.273 1.535-1.262 1.531-1.219 1.531-1.16 1.535-1.086 1.535-1.008 1.531-.926 1.535-.848 1.531-.766 1.535-.68 1.531-.582 1.535-.469 1.531-.332 1.535-.191 1.531-.039 1.535.098 1.531.199 1.535.25 1.531.234 1.535.156 1.531.02 1.535-.148 1.531-.332 1.535-.477 1.531-.566 1.535-.582 1.531-.504 1.535-.359 1.531-.156 1.535.063 1.531.258 1.535.41 1.531.484 1.535.488 1.531.43 1.535.336 1.531.234 1.535.164 1.531.129 1.535.152"/><path d="M68.441 64.676l1.535-.332 1.531-.437 1.535-.477 1.531-.488 1.535-.5 1.531-.547 1.535-.66 1.531-.844 1.535-1.098 1.535-1.383 1.531-1.652 1.535-1.863 1.531-1.965 1.535-1.93 1.531-1.754 1.535-1.453 1.531-1.059 1.535-.633 1.531-.219 1.535.129 1.531.391 1.535.57 1.531.676 1.535.762 1.531.867 1.535 1.031 1.531 1.293 1.535 1.645 1.531 2.059 1.535 2.492 1.531 2.891 1.535 3.188 1.531 3.348 1.535 3.34 1.531 3.176 1.535 2.887 1.531 2.516 1.535 2.129 1.531 1.773 1.535 1.488 1.531 1.281 1.535 1.129 1.531 1.016 1.535.883 1.531.711 1.535.453 1.531.121 1.535-.285 1.531-.711 1.535-1.121 1.531-1.445 1.535-1.66 1.531-1.742 1.535-1.691 1.531-1.547 1.535-1.352 1.535-1.16 1.531-1.02 1.531-.965 1.535-.996 1.535-1.102 1.531-1.234 1.531-1.352 1.535-1.41 1.535-1.367 1.531-1.211 1.535-.965 1.531-.645 1.535-.312 1.531-.016 1.535.199 1.531.305 1.535.301 1.531.195 1.535.035 1.531-.133 1.535-.27 1.531-.332 1.535-.309 1.531-.199 1.535-.031 1.531.164 1.535.328 1.531.441 1.535.457 1.531.391 1.535.234 1.531.027 1.535-.191 1.531-.387 1.535-.512 1.531-.551 1.535-.5 1.531-.363 1.535-.168 1.531.051 1.535.254 1.531.414 1.535.512"/><path d="M68.441 64.664l1.535-1.984 1.531-2.141 1.535-2.172 1.531-2.082 1.535-1.91 1.531-1.687 1.535-1.453 1.531-1.254 1.535-1.098 1.535-.996 1.531-.93 1.535-.883 1.531-.812 1.535-.707 1.531-.543 1.535-.324 1.531-.074 1.535.191 1.531.43 1.535.617 1.531.75 1.535.816 1.531.848 1.535.871 1.531.941 1.535 1.086 1.531 1.324 1.535 1.656 1.531 2.055 1.535 2.48 1.531 2.867 1.535 3.172 1.531 3.336 1.535 3.348 1.531 3.191 1.535 2.918 1.531 2.555 1.535 2.168 1.531 1.793 1.535 1.477 1.531 1.219 1.535 1.02 1.531.844 1.535.672 1.531.461 1.535.195 1.531-.129 1.535-.496 1.531-.871 1.535-1.207 1.531-1.465 1.535-1.609 1.531-1.621L151.238 80l1.531-1.32 1.535-1.078 1.535-.832 1.531-.633 1.531-.504 3.07-.898 1.531-.484 1.531-.516 1.535-.508 1.535-.437 1.531-.312 1.535-.129 1.531.059 1.535.234 1.531.352 1.535.383 1.531.34 1.535.211 1.531.051 1.535-.121 1.531-.25 1.535-.316 1.531-.309 1.535-.219 1.531-.086 1.535.059 1.531.176 1.535.227 1.531.191 1.535.063 1.531-.137 1.535-.391 1.531-.641 1.535-.863 1.531-1.016 1.535-1.086 1.531-1.066 1.535-.969 1.531-.824 1.535-.648 1.531-.477 1.535-.324 1.531-.199 1.535-.094"/><path d="M68.441 64.68l1.535-1.332 1.531-1.305 1.535-1.297 1.531-1.301 1.535-1.336 1.531-1.379 1.535-1.426 1.531-1.461 1.535-1.461 1.535-1.426 1.531-1.336 1.535-1.203 1.531-1.035 1.535-.844 1.531-.648 1.535-.449 1.531-.27 1.535-.098 1.531.063 1.535.227 1.531.395 1.535.582 1.531.777 1.535 1 1.531 1.234 1.535 1.473 1.531 1.707 1.535 1.922 1.531 2.121 1.535 2.285 1.531 2.418 1.535 2.516 1.531 2.582 1.535 2.617 1.531 2.613 1.535 2.57 1.531 2.5 1.535 2.375 1.531 2.211 1.535 1.996L131.305 85l1.535 1.441 1.531 1.109 1.535.766 1.531.414 1.535.07 1.531-.262 1.535-.566 1.531-.836 1.535-1.066 1.531-1.242 1.535-1.367 1.531-1.434 1.535-1.43 1.531-1.363 1.535-1.242 1.535-1.074 1.531-.883 1.531-.684 1.535-.504 1.535-.355 1.531-.27 1.531-.234 1.535-.254 1.535-.309 1.531-.379 1.535-.445 1.531-.473 1.535-.457 1.531-.379 1.535-.25 1.531-.082 1.535.102 1.531.27 1.535.402 1.531.48 1.535.5 1.531.453 1.535.359 1.531.246 1.535.121 1.531.008 1.535-.078 1.531-.137 1.535-.172 1.531-.199 1.535-.238 1.531-.285 1.535-.371 1.531-.473 1.535-.602 1.531-.727 1.535-.836 1.531-.914 1.535-.945 1.531-.926 1.535-.863 1.531-.773 1.535-.672"/><path d="M68.441 64.68l1.535-.906 1.531-1.262 1.535-1.578 1.531-1.812 1.535-1.93 1.531-1.93 1.535-1.816 1.531-1.629 1.535-1.41 1.535-1.195 1.531-1.008 1.535-.867 1.531-.766 1.535-.672 1.531-.57 1.535-.43 1.531-.246 1.535-.004 1.531.262 1.535.539 1.531.789 1.535.996 1.531 1.129 1.535 1.211 1.531 1.254 1.535 1.289 1.531 1.355 1.535 1.477 1.531 1.668 1.535 1.93 1.531 2.242 1.535 2.566 1.531 2.855 1.535 3.066 1.531 3.16 1.535 3.125 1.531 2.949 1.535 2.656 1.531 2.266 1.535 1.801 1.531 1.297 1.535.773 1.531.27 1.535-.211 1.531-.629 1.535-.98 1.531-1.25 1.535-1.422 1.531-1.496 1.535-1.465 1.531-1.348 1.535-1.152 1.531-.918 1.535-.676 1.531-.469 1.535-.32 1.535-.242 1.531-.234 1.531-.277 1.535-.336 1.535-.371 1.531-.355 1.531-.262 1.535-.078 1.535.164 1.531.445 1.535.723 1.531.945 1.535 1.094 1.531 1.141 1.535 1.102 1.531.992 1.535.844 1.531.695 1.535.57 1.531.477 1.535.41 1.531.352 1.535.273 1.531.141 1.535-.062 1.531-.336 1.535-.66 1.531-1 1.535-1.309 1.531-1.535 1.535-1.664 1.531-1.664 1.535-1.562 1.531-1.379 1.535-1.164 1.531-.969 1.535-.816 1.531-.742 1.535-.73 1.531-.773 1.535-.812 1.531-.828 1.535-.777"/><path d="M68.441 64.707l1.535-1.012 1.531-1.16 1.535-1.266 1.531-1.312 1.535-1.277 1.531-1.18 1.535-1.039 1.531-.883 1.535-.758 1.535-.699 1.531-.715 1.535-.801 1.531-.937 1.535-1.086 1.531-1.195 1.535-1.23 1.531-1.16 1.535-.969 1.531-.664 1.535-.281 1.531.152 1.535.578 1.531.977 1.535 1.309 1.531 1.57 1.535 1.766 1.531 1.91 1.535 2.02 1.531 2.109 1.535 2.195 1.531 2.281 1.535 2.359 1.531 2.422 1.535 2.469 1.531 2.484 1.535 2.469 1.531 2.418 1.535 2.344 1.531 2.238 1.535 2.105 1.531 1.945 1.535 1.746 1.531 1.504 1.535 1.227 1.531.906 1.535.547 1.531.172 1.535-.219 1.531-.586 1.535-.922 1.531-1.203 1.535-1.418 1.531-1.574 1.535-1.664 1.531-1.707 1.535-1.715 1.535-1.691 1.531-1.641 1.531-1.559 1.535-1.437 1.535-1.27 1.531-1.055 1.531-.801 1.535-.516 1.535-.234 1.531.016 1.535.195 1.531.293 1.535.285 1.531.188 1.535.023 1.531-.16 1.535-.336 1.531-.457 1.535-.5 1.531-.457 1.535-.344 1.531-.191 1.535-.043 1.531.07 1.535.109 1.531.07 1.535-.035 1.531-.191 1.535-.352 1.531-.477 1.535-.535 1.531-.516 1.535-.426 1.531-.277 1.535-.117 1.531.02 1.535.094 1.531.09 1.535.008 1.531-.129 1.535-.305 1.531-.465 1.535-.594"/><path d="M68.441 64.66l1.535-.375 1.531-.66 1.535-.969 1.531-1.277 1.535-1.527 1.531-1.707 1.535-1.777 1.531-1.758 1.535-1.645 1.535-1.484 1.531-1.293 1.535-1.105 1.531-.941 1.535-.805 1.531-.695 1.535-.594 1.531-.48 1.535-.332 1.531-.148 1.535.09 1.531.363 1.535.656 1.531.949 1.535 1.215 1.531 1.449 1.535 1.629 1.531 1.77 1.535 1.875 1.531 1.961 1.535 2.043 1.531 2.141 1.535 2.254 1.531 2.383 1.535 2.512 1.531 2.621 1.535 2.688 1.531 2.688 1.535 2.602 1.531 2.418 1.535 2.137 1.531 1.766 1.535 1.332 1.531.863 1.535.398 1.531-.02 1.535-.375 1.531-.648 1.535-.824 1.531-.926 1.535-.957 1.531-.945 1.535-.91 1.531-.879 1.535-.863 1.531-.867 1.535-.891 1.535-.926 1.531-.965 1.531-.977 1.535-.973 1.535-.93 1.531-.863 1.531-.785 1.535-.699 1.535-.637 1.531-.605 1.535-.605 1.531-.633 1.535-.676 1.531-.711 1.535-.707 1.531-.656 1.535-.535 1.531-.359 1.535-.133 1.531.102 1.535.324 1.531.484 1.535.57 1.531.555 1.535.465 1.531.305 1.535.125 1.531-.039 1.535-.156 1.531-.199 1.535-.16 1.531-.066 1.535.059 1.531.176 1.535.23 1.531.207 1.535.09 1.531-.113 1.535-.367 1.531-.621 1.535-.832 1.531-.941 1.535-.934"/><path d="M68.441 64.68l1.535-.246 1.531-.504 1.535-.691 1.531-.801 1.535-.84 1.531-.824 1.535-.781 1.531-.75 1.535-.758 1.535-.824 1.531-.945 1.535-1.109 1.531-1.285 1.535-1.437 1.531-1.531 1.535-1.527 1.531-1.422 1.535-1.207 1.531-.906 1.535-.543 1.531-.152 1.535.234 1.531.586 1.535.898 1.531 1.168 1.535 1.41 1.531 1.633 1.535 1.848 1.531 2.07 1.535 2.285 1.531 2.492 1.535 2.676 1.531 2.813 1.535 2.887 1.531 2.887 1.535 2.809 1.531 2.668 1.535 2.477 1.531 2.242 1.535 1.984 1.531 1.707 1.535 1.41 1.531 1.105 1.535.789 1.531.473 1.535.145 1.531-.168 1.535-.469 1.531-.742 1.535-.965 1.531-1.141 1.535-1.254 1.531-1.32 1.535-1.348 1.531-1.348 1.535-1.344 1.535-1.348 1.531-1.355 1.531-1.371 1.535-1.371 1.535-1.348 1.531-1.27 1.531-1.145 1.535-.957 1.535-.727 1.531-.469 1.535-.219 1.531-.008 1.535.148 1.531.227 1.535.234 1.531.195 1.535.129 1.531.063 1.535.027 1.531.039 1.535.102 1.531.184 1.535.277 1.531.34 1.535.344 1.531.27 1.535.117 1.531-.102 1.535-.355 1.531-.602 1.535-.805 1.531-.926 1.535-.953 1.531-.875 1.535-.723 1.531-.508 1.535-.289 1.531-.09 1.535.063 1.531.148 1.535.168 1.531.141 1.535.078"/><path d="M68.441 64.664l1.535-.359 1.531-.352 1.535-.383 1.531-.453 1.535-.578 1.531-.746 1.535-.949 1.531-1.176 1.535-1.406 1.535-1.598 1.531-1.742 1.535-1.805 1.531-1.762 1.535-1.629 1.531-1.395 1.535-1.102 1.531-.766 1.535-.43 1.531-.129 1.535.121 1.531.313 1.535.441 1.531.539 1.535.641 1.531.773 1.535.977 1.531 1.25 1.535 1.609 1.531 2.012 1.535 2.43 1.531 2.816 1.535 3.117 1.531 3.297 1.535 3.336 1.531 3.223 1.535 3 1.531 2.691 1.535 2.352 1.531 2.016 1.535 1.723 1.531 1.477 1.535 1.277 1.531 1.102 1.535.934 1.531.738 1.535.496 1.531.195 1.535-.156 1.531-.547 1.535-.937 1.531-1.285 1.535-1.566 1.531-1.746 1.535-1.82 1.531-1.805 1.535-1.711 1.535-1.578 1.531-1.43 1.531-1.285 1.535-1.172 1.535-1.078 1.531-.992 1.531-.902 1.535-.785 1.535-.625 1.531-.414 1.535-.164 1.531.098 1.535.352 1.531.555 1.535.684 1.531.715 1.535.648 1.531.484 1.535.254 1.531-.012 1.535-.277 1.531-.508 1.535-.672 1.531-.758 1.535-.762 1.531-.687 1.535-.551 1.531-.383 1.535-.203 1.531-.047 1.535.066 1.531.129 1.535.125 1.531.063 1.535-.047 1.531-.184 1.535-.328 1.531-.457 1.535-.539 1.531-.57 1.535-.543 1.531-.453 1.535-.316"/><path d="M68.441 64.695l1.535-.805 1.531-.973 1.535-1.105 1.531-1.191 1.535-1.219 1.531-1.195 1.535-1.16 1.531-1.121 1.535-1.117 1.535-1.152 1.531-1.223 1.535-1.309 1.531-1.375 1.535-1.383 1.531-1.301 1.535-1.113 1.531-.828 1.535-.465 1.531-.062 1.535.324 1.531.656 1.535.906 1.531 1.07 1.535 1.156 1.531 1.219 1.535 1.281 1.531 1.402 1.535 1.598 1.531 1.859 1.535 2.18 1.531 2.508 1.535 2.797 1.531 3 1.535 3.082 1.531 3.035 1.535 2.863 1.531 2.605 1.535 2.301 1.531 1.98 1.535 1.684 1.531 1.418 1.535 1.172 1.531.926 1.535.664 1.531.355h1.535l1.531-.398 1.535-.809 1.531-1.187 1.535-1.488 1.531-1.676 1.535-1.711 1.531-1.613 1.535-1.398 1.531-1.113 1.535-.816 1.535-.566 1.531-.398 1.531-.328 1.535-.352 1.535-.437 1.531-.547 1.531-.629 1.535-.66 1.535-.609 1.531-.492 1.535-.324 1.531-.141 1.535.02 1.531.137 1.535.191 1.531.191 1.535.148 1.531.086 1.535.035 1.531.008h1.535l1.531.004 1.535.004 1.531-.039 1.535-.125 1.531-.273 1.535-.461 1.531-.668 1.535-.848 1.531-.973 1.535-1.004 1.531-.934 1.535-.766 1.531-.539 1.535-.285 1.531-.059 1.535.105 1.531.18 1.535.156 1.531.063 1.535-.074 1.531-.219 1.535-.332"/><path d="M68.441 64.668l1.535-.926 1.531-1.078 1.535-1.203 1.531-1.301 1.535-1.371 1.531-1.395 1.535-1.371 1.531-1.297 1.535-1.184 1.535-1.031 1.531-.871 1.535-.727 1.531-.617 1.535-.559 1.531-.566 1.535-.609 1.531-.676 1.535-.723 1.531-.715 1.535-.613 1.531-.402 1.535-.086 1.531.324 1.535.781 1.531 1.242 1.535 1.664 1.531 2.004 1.535 2.238 1.531 2.367 1.535 2.41 1.531 2.398 1.535 2.367 1.531 2.348 1.535 2.359 1.531 2.41 1.535 2.477 1.531 2.539 1.535 2.563 1.531 2.516 1.535 2.379 1.531 2.145 1.535 1.836 1.531 1.473 1.535 1.102 1.531.754 1.535.449 1.531.195 1.535-.012 1.531-.199 1.535-.402 1.531-.629 1.535-.906 1.531-1.215 1.535-1.539 1.531-1.848 1.535-2.09 1.535-2.227 1.531-2.227 1.531-2.086 1.535-1.82 1.535-1.461 1.531-1.051 1.531-.648 1.535-.301 1.535-.035 1.531.129 1.535.203 1.531.203 1.535.16 1.531.109 1.535.066 1.531.063 1.535.082 1.531.133 1.535.184 1.531.223 1.535.242 1.531.223 1.535.164 1.531.086 1.535-.016 1.531-.109 1.535-.207 1.531-.289 1.535-.359 1.531-.422 1.535-.488 1.531-.547 1.535-.613 1.531-.668 1.535-.703 1.531-.715 1.535-.687 1.531-.613 1.535-.508 1.531-.371 1.535-.223 1.531-.082 1.535.031"/><path d="M68.441 64.648l1.535-1.496 1.531-1.504 1.535-1.484 1.531-1.461 1.535-1.43 1.531-1.391 1.535-1.352 1.531-1.301 1.535-1.238 1.535-1.156 1.531-1.066 1.535-.961 1.531-.859 1.535-.762 1.531-.664 1.535-.562 1.531-.457 1.535-.32 1.531-.145 1.535.074 1.531.344 1.535.652 1.531.969 1.535 1.289 1.531 1.574 1.535 1.797 1.531 1.957 1.535 2.047 1.531 2.074 1.535 2.066 1.531 2.043 1.535 2.039 1.531 2.07 1.535 2.141 1.531 2.242 1.535 2.355 1.531 2.445 1.535 2.488 1.531 2.438 1.535 2.289 1.531 2.035 1.535 1.691 1.531 1.289 1.535.859 1.531.453 1.535.094 1.531-.203 1.535-.43 1.531-.602 1.535-.73 1.531-.844 1.535-.949 1.531-1.059 1.535-1.168 1.531-1.27 1.535-1.34 1.535-1.367 1.531-1.328 1.531-1.238 1.535-1.086 1.535-.902 1.531-.711 1.531-.531 1.535-.398 1.535-.328 1.531-.32 1.535-.375 1.531-.469 1.535-.594 1.531-.723 1.535-.832 1.531-.922 1.535-.977 1.531-.996 1.535-.992 1.531-.965 1.535-.914 1.531-.852 1.535-.766 1.531-.656 1.535-.539 1.531-.395 1.535-.246 1.531-.098 1.535.039 1.531.156 1.535.238 1.531.289 1.535.316 1.531.32 1.535.32 1.531.32 1.535.332 1.531.359 1.535.395 1.531.438 1.535.469 1.531.484 1.535.488"/><path d="M68.441 64.652l1.535-2.559 1.531-2.777 1.535-2.883 1.531-2.84 1.535-2.641 1.531-2.32 1.535-1.91 1.531-1.465 1.535-1.047 1.535-.695 1.531-.43 1.535-.254 1.531-.148 1.535-.074 1.531.004 1.535.105 1.531.25 1.535.438 1.531.637 1.535.832 1.531.984 1.535 1.086 1.531 1.125 1.535 1.137 1.531 1.137 1.535 1.184 1.531 1.297 1.535 1.508 1.531 1.797 1.535 2.148 1.531 2.508 1.535 2.836 1.531 3.074 1.535 3.184 1.531 3.152 1.535 3 1.531 2.734 1.535 2.41 1.531 2.055 1.535 1.715 1.531 1.387 1.535 1.09 1.531.801 1.535.508 1.531.203 1.535-.137 1.531-.488 1.535-.836 1.531-1.145 1.535-1.383 1.531-1.516 1.535-1.531 1.531-1.437 1.535-1.258 1.531-1.039 1.535-.812 1.535-.641 1.531-.531 1.531-.5 1.535-.531 1.535-.59 1.531-.648 1.531-.668 1.535-.629 1.535-.543 1.531-.414 1.535-.289 1.531-.195 1.535-.176 1.531-.23 1.535-.367 1.531-.551 1.535-.73 1.531-.871 1.535-.922 1.531-.859 1.535-.687 1.531-.426 1.535-.121 1.531.18 1.535.414 1.531.563 1.535.602 1.531.539 1.535.406 1.531.254 1.535.109 1.531.008 1.535-.035 1.531-.035 1.535-.012h1.531l1.535-.035 1.531-.129 1.535-.293 1.531-.5 1.535-.715 1.531-.902 1.535-1.016"/><path d="M68.441 64.664l1.535-.82 1.531-1.102 1.535-1.32 1.531-1.445 1.535-1.477 1.531-1.434 1.535-1.34 1.531-1.234 1.535-1.156 1.535-1.117 1.531-1.129 1.535-1.168 1.531-1.215 1.535-1.227 1.531-1.172 1.535-1.023 1.531-.773 1.535-.445 1.531-.051 1.535.355 1.531.738 1.535 1.051 1.531 1.285 1.535 1.434 1.531 1.516 1.535 1.57 1.531 1.621 1.535 1.707 1.531 1.84 1.535 2.016 1.531 2.223 1.535 2.434 1.531 2.617 1.535 2.742 1.531 2.793 1.535 2.766 1.531 2.652 1.535 2.477 1.531 2.242 1.535 1.973 1.531 1.672 1.535 1.348 1.531 1 1.535.641 1.531.262 1.535-.117 1.531-.484 1.535-.816 1.531-1.082 1.535-1.273 1.531-1.367 1.535-1.359 1.531-1.273 1.535-1.133 1.531-.969 1.535-.824 1.535-.73 1.531-.691 1.531-.723 1.535-.801 1.535-.895 1.531-.984 1.531-1.047 1.535-1.055 1.535-1.023 1.531-.957 1.535-.891 1.531-.848 1.535-.859 1.531-.926 1.535-1.047 1.531-1.199 1.535-1.352 1.531-1.457 1.535-1.488 1.531-1.422 1.535-1.258 1.531-1.012 1.535-.715 1.531-.41 1.535-.137 1.531.082 1.535.227 1.531.301 1.535.332 1.531.344 1.535.359 1.531.41 1.535.496 1.531.621 1.535.758 1.531.883 1.535.969 1.531.996 1.535.961 1.531.859 1.535.719 1.531.566 1.535.422"/><path d="M68.441 64.668l1.535-1.215 1.531-1.383 1.535-1.492 1.531-1.496 1.535-1.398 1.531-1.207 1.535-.961 1.531-.727 1.535-.543 1.535-.457 1.531-.488 1.535-.617 1.531-.805 1.535-1.004 1.531-1.152 1.535-1.195 1.531-1.113 1.535-.895 1.531-.57 1.535-.168 1.531.246 1.535.637 1.531.953 1.535 1.199 1.531 1.367 1.535 1.484 1.531 1.59 1.535 1.703 1.531 1.848 1.535 2.039 1.531 2.254 1.535 2.477 1.531 2.672 1.535 2.801 1.531 2.848 1.535 2.801 1.531 2.656 1.535 2.434 1.531 2.152 1.535 1.824 1.531 1.477 1.535 1.105 1.531.73 1.535.352 1.531-.016 1.535-.359 1.531-.664 1.535-.922 1.531-1.105 1.535-1.207 1.531-1.215 1.535-1.152 1.531-1.035 1.535-.906 1.531-.793 1.535-.734 1.535-.75 1.531-.84 1.531-.98 1.535-1.145 1.535-1.289 1.531-1.375 1.531-1.383 1.535-1.301 1.535-1.156 1.531-.973 1.535-.809 1.531-.695 1.535-.672 1.531-.738 1.535-.875 1.531-1.047 1.535-1.203 1.531-1.281 1.535-1.246 1.531-1.09 1.535-.812 1.531-.461 1.535-.094 1.531.23 1.535.457 1.531.555 1.535.523 1.531.391 1.535.211 1.531.039 1.535-.059 1.531-.059 1.535.066 1.531.281 1.535.555 1.531.82 1.535 1.023 1.531 1.121 1.535 1.094 1.531.949 1.535.719 1.531.449 1.535.199"/><path d="M68.441 64.656l1.535.527 1.531.395 1.535.191 1.531-.062 1.535-.344 1.531-.621 1.535-.883 1.531-1.125 1.535-1.328 1.535-1.5 1.531-1.641 1.535-1.746 1.531-1.816 1.535-1.844 1.531-1.809 1.535-1.703 1.531-1.523 1.535-1.254 1.531-.918 1.535-.516 1.531-.078 1.535.363 1.531.789 1.535 1.16 1.531 1.473 1.535 1.719 1.531 1.891 1.535 2.016 1.531 2.098 1.535 2.152 1.531 2.203 1.535 2.262 1.531 2.324 1.535 2.398 1.531 2.465 1.535 2.523 1.531 2.555 1.535 2.547 1.531 2.488 1.535 2.363 1.531 2.172 1.535 1.91 1.531 1.594 1.535 1.227 1.531.836 1.535.434 1.531.043 1.535-.332 1.531-.676 1.535-.965 1.531-1.211 1.535-1.398 1.531-1.523 1.535-1.594 1.531-1.609 1.535-1.574 1.535-1.492 1.531-1.363 1.531-1.203 1.535-1.016 1.535-.809 1.531-.598 1.531-.398 1.535-.219 1.535-.074 1.531.027 1.535.094 1.531.125 1.535.129 1.531.125 1.535.133 1.531.152 1.535.207 1.531.277 1.535.363 1.531.434 1.535.477 1.531.461 1.535.391 1.531.246 1.535.043 1.531-.187 1.535-.426 1.531-.625 1.535-.766 1.531-.832 1.535-.812 1.531-.734 1.535-.613 1.531-.492 1.535-.402 1.531-.367 1.535-.41 1.531-.52 1.535-.676 1.531-.852 1.535-1.008 1.531-1.117 1.535-1.148"/><path d="M68.441 64.734l1.535-1.391 1.531-1.664 1.535-1.867 1.531-1.957 1.535-1.941 1.531-1.809 1.535-1.586 1.531-1.305 1.535-1.016 1.535-.742 1.531-.531 1.535-.391 1.531-.332 1.535-.332 1.531-.375 1.535-.426 1.531-.453 1.535-.43 1.531-.352 1.535-.207 1.531.004 1.535.254 1.531.539 1.535.84 1.531 1.145 1.535 1.445 1.531 1.734 1.535 2.012 1.531 2.266 1.535 2.496 1.531 2.688 1.535 2.828 1.531 2.91 1.535 2.926 1.531 2.875 1.535 2.75 1.531 2.57 1.535 2.34 1.531 2.074 1.535 1.793 1.531 1.492 1.535 1.199 1.531.91 1.535.629 1.531.371 1.535.129 1.531-.102 1.535-.309 1.531-.5 1.535-.676 1.531-.832 1.535-.973 1.531-1.098 1.535-1.215 1.531-1.312 1.535-1.406 1.535-1.473 1.531-1.523 1.531-1.531 1.535-1.504 1.535-1.43 1.531-1.309 1.531-1.152 1.535-.98 1.535-.816 1.531-.672 1.535-.582 1.531-.547 1.535-.574 1.531-.648 1.535-.738 1.531-.824 1.535-.871 1.531-.844 1.535-.738 1.531-.551 1.535-.293h1.531l1.535.301 1.531.57 1.535.773 1.531.898 1.535.941 1.531.906 1.535.82 1.531.699 1.535.57 1.531.445 1.535.332 1.531.23 1.535.129 1.531.012 1.535-.117 1.531-.27 1.535-.437 1.531-.594 1.535-.727 1.531-.824 1.535-.867"/><path d="M68.441 64.711l1.535-.543 1.531-.5 1.535-.5 1.531-.535L76.109 62l1.531-.781 1.535-.961 1.531-1.168 1.535-1.363 1.535-1.531 1.531-1.648 1.535-1.691 1.531-1.664 1.535-1.555 1.531-1.371 1.535-1.133 1.531-.848 1.535-.531 1.531-.215 1.535.105 1.531.41 1.535.676 1.531.914 1.535 1.121 1.531 1.301 1.535 1.461 1.531 1.613 1.535 1.762 1.531 1.906 1.535 2.047 1.531 2.191 1.535 2.328 1.531 2.449 1.535 2.547 1.531 2.617 1.535 2.641 1.531 2.621 1.535 2.543 1.531 2.402 1.535 2.211 1.531 1.953 1.535 1.645 1.531 1.297 1.535.93 1.531.543 1.535.172 1.531-.187 1.535-.52 1.531-.812 1.535-1.059 1.531-1.254 1.535-1.395 1.531-1.484 1.535-1.516 1.531-1.504 1.535-1.461 1.535-1.387 1.531-1.309 1.531-1.223 1.535-1.16 1.535-1.102 1.531-1.078 1.531-1.062 3.07-2.117 1.531-1.039 1.535-1.008 1.531-.953 1.535-.867 1.531-.773 1.535-.672 1.531-.574 1.535-.496 1.531-.449 1.535-.426 1.531-.437 1.535-.457 1.531-.477 1.535-.48 1.531-.453 1.535-.371 1.531-.246 1.535-.078 1.531.121 1.535.332 1.531.52 1.535.68 1.531.781 1.535.824 1.531.797 1.535.727 1.531.613 1.535.48 1.531.352 1.535.23 1.531.137 1.535.059h1.531l1.535-.051"/></g></g><g class="G B E F"><path d="M52.504 112.234V17.109m8.348 99.883h166.973" class="P"/><path stroke-width="1.2" d="M145.914 24.609h12" class="C"/></g><g class="I"><path d="M164.465 22.758c-.062-.141-.109-.141-.234-.141h-1.094v.234h.156c.484 0 .484.078.484.281v2.922c0 .156 0 .422-.641.422v.234l.75-.031.766.031v-.234c-.641 0-.641-.266-.641-.422v-3.141h.016l1.625 3.656c.031.047.063.141.172.141.094 0 .141-.094.156-.141l1.656-3.719h.016v3.359c0 .188 0 .266-.484.266h-.156v.234l.891-.031.906.031v-.234h-.156c-.469 0-.469-.078-.469-.266v-3.078c0-.203 0-.281.469-.281h.156v-.234h-1.078c-.125 0-.187 0-.25.141l-1.5 3.391zm0 0"/><use xlink:href="#S"/><use xlink:href="#T"/><use xlink:href="#U"/></g><path d="M145.914 32.973h12" class="B C D E F H O"/><g class="I"><path d="M166.09 31.026c0-.094 0-.172-.094-.172-.031 0-.062 0-.109.078l-.219.344c-.344-.328-.781-.422-1.125-.422-.781 0-1.359.531-1.359 1.156 0 .297.141.563.359.766.266.25.469.297 1.141.438.625.125.766.156.953.328.063.078.266.266.266.578 0 .422-.375.844-1 .844-.516 0-1.453-.156-1.5-1.109 0-.094 0-.141-.094-.141-.125 0-.125.063-.125.172v1.141c0 .109 0 .172.094.172.063 0 .078-.016.109-.078a5.64 5.64 0 0 0 .219-.328c.438.359 1.016.406 1.297.406.828 0 1.375-.594 1.375-1.219 0-.422-.234-.719-.312-.797-.312-.312-.484-.344-1.234-.5l-.562-.125c-.312-.109-.594-.375-.594-.703 0-.406.391-.781.984-.781.313 0 .609.094.859.281.359.281.422.719.438.859.016.094.031.125.125.125.109 0 .109-.047.109-.156zm0 0"/><use xlink:href="#T" x="-5.744" y="8.362"/><path d="M175.621 33.261c0-.609-.359-.828-.953-.828-.562 0-.891.313-1.016.547-.141-.547-.75-.547-.922-.547-.531 0-.875.297-1.016.547h-.016v-.547l-.922.063v.234c.422 0 .469.047.469.344v1.516c0 .25-.047.25-.469.25v.234l.719-.031.719.031v-.234c-.406 0-.469 0-.469-.25v-1.062c0-.656.578-.906.938-.906.406 0 .5.266.5.641v1.328c0 .25-.062.25-.469.25v.234l.719-.031.719.031v-.234c-.406 0-.469 0-.469-.25v-1.062c0-.656.563-.906.938-.906.406 0 .5.266.5.641v1.328c0 .25-.062.25-.469.25v.234l.719-.031.719.031v-.234c-.422 0-.469 0-.469-.25zm2.55 2.734c-.422 0-.484 0-.484-.25v-.953c.25.234.531.344.859.344.828 0 1.547-.594 1.547-1.359 0-.719-.625-1.344-1.453-1.344-.547 0-.891.266-.969.359v-.359l-.953.063v.234c.406 0 .469 0 .469.281v2.734c0 .25-.047.25-.469.25v.234l.719-.016.734.016zm-.484-2.906c.203-.281.531-.437.891-.437.547 0 .938.516.938 1.125 0 .672-.469 1.172-1 1.172-.469 0-.734-.328-.828-.516zm0 0"/><use xlink:href="#V"/><use xlink:href="#S" x="13.276" y="8.362"/><use xlink:href="#W"/></g><path d="M151.914 44.836a3.5 3.5 0 0 0 2.477-1.023c.656-.66 1.023-1.547 1.023-2.477a3.5 3.5 0 0 0-3.5-3.5 3.5 3.5 0 0 0-2.473 1.023c-.656.656-1.027 1.547-1.027 2.477a3.51 3.51 0 0 0 1.027 2.477 3.5 3.5 0 0 0 2.473 1.023zm0 0" class="B C G N P"/><g class="I"><path d="M164.34 39.858c0-.203 0-.281.5-.281h.172v-.234c-.172.016-.672.031-.969.031-.312 0-.812-.016-.969-.031v.234h.172c.484 0 .484.078.484.281v3.078c0 .188 0 .266-.484.266h-.172v.234l.969-.031.969.031v-.234h-.172c-.5 0-.5-.078-.5-.266zm0 0"/><use xlink:href="#U" x="-10.79" y="16.725"/><path d="M171.673 39.342v.234c.406 0 .469.047.469.344v1.219c-.266-.234-.562-.344-.891-.344-.828 0-1.531.594-1.531 1.359 0 .734.656 1.344 1.469 1.344a1.33 1.33 0 0 0 .922-.375v.375l.969-.062v-.234c-.422 0-.469-.047-.469-.328V39.28zm.438 3.328c0 .109 0 .125-.094.25-.297.359-.687.391-.797.391-.25 0-.5-.109-.703-.328-.187-.234-.234-.562-.234-.828 0-1.094.797-1.172 1.016-1.172.203 0 .5.078.734.328.078.109.078.125.078.234zm3.613-1.812v.234c.422 0 .484.047.484.344v1c0 .547-.375.875-.844.875-.562 0-.594-.266-.594-.547v-1.969l-.969.063v.234c.469 0 .469.063.469.406v.938c0 .406 0 .672.281.875.219.156.516.188.766.188.391 0 .703-.156.906-.5v.5l.953-.062v-.234c-.422 0-.484-.047-.484-.328v-2.078zm4.191.172c-.062.031-.125.109-.125.234 0 .156.109.297.281.297.188 0 .297-.141.297-.297 0-.484-.625-.5-1.016-.5-1.094 0-1.562.797-1.562 1.375 0 .75.656 1.359 1.5 1.359.953 0 1.156-.719 1.156-.781 0-.078-.094-.078-.109-.078-.078 0-.094.031-.109.078-.047.094-.109.266-.312.406-.125.094-.328.156-.562.156-.453 0-1-.328-1-1.141 0-.266.047-.594.266-.844.266-.312.578-.312.766-.312.172 0 .375 0 .531.047zm0 0"/><use xlink:href="#X"/><use xlink:href="#U" x="6.677" y="16.725"/><path d="M187.811 42.389a1.4 1.4 0 0 0 .672.172c.672 0 1.125-.422 1.125-.875 0-.344-.25-.562-.25-.578a1.14 1.14 0 0 1 .609-.187c-.016.031-.047.047-.047.141s.078.188.203.188c.141 0 .203-.094.203-.203 0-.125-.109-.312-.375-.312a1.11 1.11 0 0 0-.734.281c-.203-.141-.469-.219-.719-.219-.656 0-1.125.422-1.125.891 0 .188.078.391.281.594-.125.172-.172.344-.172.484 0 .328.219.5.25.531-.234.063-.594.266-.594.594 0 .469.719.781 1.547.781.766 0 1.547-.281 1.547-.797 0-.141-.047-.531-.531-.719-.344-.156-.672-.156-1.234-.156h-.437a.38.38 0 0 1-.297-.391c0-.125.063-.203.078-.219zm.688-.031c-.5 0-.625-.359-.625-.672 0-.109 0-.687.609-.687.531 0 .625.422.625.672 0 .125 0 .688-.609.688zm.328 1.078c.188 0 1.016 0 1.016.453 0 .297-.484.578-1.156.578-.656 0-1.156-.266-1.156-.578 0-.156.125-.453.625-.453zm8.596-3.484c.141-.297.406-.375.703-.375v-.234c-.203.031-.422.031-.625.031-.25 0-.656-.016-.734-.031v.234c.297 0 .422.141.422.281 0 .047-.016.078-.031.125l-1.297 2.875-1.344-3.016c-.031-.062-.031-.078-.031-.094 0-.172.297-.172.484-.172v-.234a14.27 14.27 0 0 1-.937.031c-.219 0-.594-.016-.797-.031v.234h.109c.375 0 .438.047.531.234l1.609 3.609a.17.17 0 0 0 .203.141c.094 0 .141-.047.172-.125zm0 0"/><use xlink:href="#T" x="25.282" y="16.725"/><path d="M202.725 42.092c0-.547.281-1.094.813-1.109-.047.063-.078.125-.078.203a.27.27 0 0 0 .281.281.26.26 0 0 0 .281-.281c0-.234-.219-.391-.484-.391-.359 0-.672.219-.859.625v-.625l-.906.063v.234c.422 0 .469.047.469.344v1.516c0 .25-.047.25-.469.25v.234a12.05 12.05 0 0 1 .734-.031l.797.031v-.234h-.125c-.453 0-.453-.062-.453-.266zm0 0"/><use xlink:href="#X" x="23.579"/><use xlink:href="#T" x="33.908" y="16.725"/><path d="M211.351 39.28l-.953.063v.234c.422 0 .469.047.469.344v3.516h.234l.203-.359c.203.234.516.422.922.422.828 0 1.547-.594 1.547-1.359 0-.719-.656-1.344-1.469-1.344-.328 0-.672.094-.953.359zm.016 2.172a1.07 1.07 0 0 1 .891-.469.89.89 0 0 1 .703.328c.188.234.234.516.234.828 0 1.141-.859 1.172-1 1.172a.89.89 0 0 1-.734-.375c-.094-.125-.094-.141-.094-.25zm0 0"/><use xlink:href="#V" x="33.68" y="8.363"/><use xlink:href="#S" x="46.956" y="16.725"/><use xlink:href="#W" x="33.68" y="8.363"/></g><g class="B C G N P"><path d="M68.441 68.207c.937 0 1.84-.371 2.5-1.035a3.55 3.55 0 0 0 1.035-2.5 3.53 3.53 0 0 0-3.535-3.535 3.55 3.55 0 0 0-3.535 3.535 3.54 3.54 0 0 0 1.035 2.5c.66.66 1.563 1.035 2.5 1.035zm151.793 0a3.53 3.53 0 0 0 3.535-3.535 3.53 3.53 0 0 0-1.035-2.5 3.55 3.55 0 0 0-5 0c-.664.664-1.035 1.563-1.035 2.5s.371 1.84 1.035 2.5a3.55 3.55 0 0 0 2.5 1.035zM99.129 48.762c.937 0 1.84-.371 2.5-1.035a3.55 3.55 0 0 0 1.035-2.5 3.53 3.53 0 0 0-3.535-3.535 3.53 3.53 0 0 0-2.5 1.035 3.55 3.55 0 0 0 0 5c.664.664 1.563 1.035 2.5 1.035zm0 0"/><path d="M117.59 67.191a3.55 3.55 0 0 0 2.5-1.035 3.53 3.53 0 0 0 1.035-2.5c0-.938-.371-1.84-1.035-2.5a3.55 3.55 0 0 0-2.5-1.035 3.53 3.53 0 0 0-2.5 1.035c-.664.664-1.035 1.563-1.035 2.5s.371 1.836 1.035 2.5a3.55 3.55 0 0 0 2.5 1.035zm15.43 23.207c.937 0 1.84-.371 2.5-1.035a3.53 3.53 0 0 0 1.039-2.5c0-.938-.375-1.836-1.039-2.5a3.53 3.53 0 0 0-2.5-1.035 3.55 3.55 0 0 0-3.535 3.535c0 .937.375 1.84 1.035 2.5s1.563 1.035 2.5 1.035zm26.496-11.781c.938 0 1.84-.371 2.5-1.035a3.53 3.53 0 0 0 1.039-2.5c0-.938-.375-1.836-1.039-2.5a3.53 3.53 0 0 0-2.5-1.035 3.55 3.55 0 0 0-3.535 3.535c0 .937.375 1.84 1.035 2.5s1.563 1.035 2.5 1.035zm0 0"/></g></svg>