<svg xmlns="http://www.w3.org/2000/svg" xmlns:xlink="http://www.w3.org/1999/xlink" viewBox="77.508 62.398 456.984 189.191" width="873.968" height="338.382" xmlns:v="https://vecta.io/nano"><style><![CDATA[.B{fill:none}.C{stroke:rgb(0%, 0%, 0%)}.D{stroke-miterlimit:10}.E{fill:rgb(0%, 0%, 0%)}.F{stroke-width:.299}.G{stroke-width:.797}.H{stroke-width:.498}]]></style><path d="M87.508 72.398h436.984" class="B C D G"/><g class="E"><path d="M101.407 89.156c0-.187-.141-.203-.234-.203-.203 0-.219.125-.219.203-.047.438-.328.625-.578.625-.547 0-.609-.547-.719-1.312-.094-.656-.156-1.141-1.047-1.484.766-.203 1.5-.687 1.5-1.437 0-.937-1.062-1.672-2.766-1.672H93.86v.438h.969v5.281h-.969v.438C94.188 90 95.079 90 95.454 90l1.594.031v-.437h-.969V87.14h1.094c.375 0 .625.078.875.344.25.25.25.469.25 1.063 0 .563 0 .984.547 1.313.391.219.953.281 1.453.281.953 0 1.109-.781 1.109-.984zm-2.719-3.609c0 .516-.016 1.234-1.5 1.234h-1.109v-2.469h1.125c1.469 0 1.484.703 1.484 1.234zm0 0"/><use xlink:href="#B"/><path d="M112.272 88.047c0-1.219-.875-2.047-2.187-2.047-.719 0-1.203.297-1.375.422v-2.609l-1.594.063v.438c.531 0 .609 0 .609.359v5.359h.453l.422-.516c.281.297.719.563 1.359.563 1.406 0 2.313-.844 2.313-2.031zm-1.187-.031c0 .391 0 .844-.187 1.172-.297.5-.844.531-1.031.531-.547 0-.906-.328-1.094-.625v-2.172c.219-.281.656-.562 1.203-.562 1.109 0 1.109 1.078 1.109 1.656zm0 0"/><use xlink:href="#B" x="11.49"/><path d="M121.761 88.922v-.469h-.469v.453c0 .625-.312.797-.547.797-.516 0-.516-.547-.516-.75v-2.469h1.359v-.437h-1.359v-1.703h-.453c-.016.828-.437 1.766-1.344 1.781v.359h.75v2.438c0 1.031.891 1.156 1.438 1.156a1.09 1.09 0 0 0 1.141-1.156zm19.217-1.36h-.453c-.187 1.141-.391 2.031-2.125 2.031h-1.437v-2.5h.531c.875 0 .969.391.969 1.047h.453v-2.547h-.453c0 .656-.094 1.063-.969 1.063h-.531v-2.281h1.422c1.422 0 1.703.609 1.844 1.734h.469l-.281-2.172h-5.719v.438h.969v5.219h-.969v.438h5.875zm5.964 2.469v-.437h-.609v-2.297c0-1.062-.656-1.297-1.437-1.297-1.094 0-1.531.797-1.594.938h-.016V86l-1.547.063v.438c.531 0 .609 0 .609.359v2.734h-.609v.438l1.125-.031 1.141.031v-.437h-.609V87.75c0-1 .828-1.391 1.359-1.391.344 0 .516.188.516.859v2.375h-.609v.438l1.141-.031zm5.299-3.547v-.437c-.25.031-.469.031-.719.031-.266 0-.547 0-.812-.031v.438c.25 0 .328.047.406.078 0 .047 0 .063-.047.125l-1.078 2.234-1.172-2.437h.469v-.437l-1.109.031c-.328 0-.5 0-1.031-.031v.438h.563l1.609 3.344c.078.172.156.25.375.25s.297-.078.375-.25l1.516-3.156c.063-.125.094-.187.656-.187zm21.856 3.547v-.437h-.969v-5.281h.969v-.437h-2c-.187 0-.312 0-.422.234l-2.203 4.75-2.203-4.75c-.109-.234-.234-.234-.422-.234h-2v.438h.969v5.016c0 .203-.016.203-.266.234-.219.031-.234.031-.469.031h-.234v.438l1.219-.031 1.234.031v-.437h-.234c-.25 0-.266 0-.484-.031-.25-.031-.25-.031-.25-.234V84.44l2.484 5.359c.031.078.109.234.313.234s.266-.141.313-.234l2.531-5.469h.016v5.266h-.969v.438c.313-.031 1.172-.031 1.531-.031l1.547.031zm163.972-11.863c0-.984-.906-1.766-2.437-1.766h-3.828v.438h.969v5.281h-.969v.438c.313-.031 1.25-.031 1.609-.031l1.625.031v-.437h-.969v-2.25h1.656c1.281 0 2.344-.656 2.344-1.703zm-1.406 0c0 .625 0 1.313-1.375 1.313h-1.266V76.84h1.266c1.375 0 1.375.688 1.375 1.328zm4.698 4.391v-.437h-.609V76.34l-1.609.063v.438c.531 0 .609 0 .609.359v4.922h-.609v.438l1.094-.031zm5.368-.219c0-.219-.156-.219-.234-.219-.578-.016-.578-.094-.578-.312v-1.922c0-.797-.641-1.391-2.031-1.391-.5 0-1.656.016-1.656.844a.57.57 0 0 0 .578.594c.313 0 .594-.219.594-.578 0-.266-.156-.422-.187-.453.094-.016.313-.047.641-.047.641 0 1.016.328 1.016 1.031v.281c-1.484 0-3 .391-3 1.391 0 .891 1.125 1.047 1.766 1.047.688 0 1.156-.281 1.391-.703 0 .219 0 .656.969.656h.438c.172 0 .297 0 .297-.219zm-1.859-1.031c0 .938-1.047.938-1.078.938-.453 0-.828-.281-.828-.687 0-.297.156-1 1.906-1.078zm0 0"/><use xlink:href="#C"/><use xlink:href="#C" x="5.894"/><path d="M363.13 81.512c0-.172-.172-.172-.234-.172-.156 0-.172.047-.234.172-.203.469-.75.719-1.312.719-1.281 0-1.297-1.156-1.297-1.594h2.781c.188 0 .297 0 .297-.25 0-.203-.016-1-.594-1.484-.406-.328-.953-.406-1.391-.406-1.531 0-2.281.969-2.281 2.047 0 1.172.891 2.063 2.406 2.063 1.484 0 1.859-.937 1.859-1.094zm-.875-1.203h-2.203c.016-.406.063-1.453 1.094-1.453 1.047 0 1.094 1.094 1.109 1.453zm5.259-1.031c0-.453-.469-.75-1-.75-.625 0-1 .453-1.203.969h-.016v-.969l-1.484.063v.438c.531 0 .609 0 .609.359v2.734h-.609v.438l1.141-.031 1.219.031v-.437h-.766v-1.516c0-.656.25-1.703 1.109-1.719-.094.094-.141.25-.141.391a.56.56 0 0 0 .563.578c.297 0 .578-.203.578-.578zm4.126 2.031c0-.469-.266-.75-.422-.891-.406-.328-.687-.375-1.391-.5-.437-.062-1-.156-1-.562 0-.531.828-.531 1.031-.531 1 0 1.031.531 1.063.766 0 .125.125.125.219.125.219 0 .234-.047.234-.266v-.687c0-.172 0-.266-.187-.266-.078 0-.234.078-.391.156-.281-.125-.641-.156-.937-.156-.266 0-1.703 0-1.703 1.188 0 .938 1.188 1.141 1.5 1.188.734.125 1.328.219 1.328.734 0 .641-.844.641-1.047.641-.453 0-1.047-.109-1.297-.937-.047-.156-.062-.172-.25-.172-.234 0-.234.047-.234.266v.953c0 .156 0 .25.188.25.063 0 .078 0 .281-.125l.234-.141c.422.266.906.266 1.078.266.266 0 1.703 0 1.703-1.297zm0 0"/></g><path d="M190.887 87.414h333.605" class="B C D F"/><g class="E"><path d="M206.17 93.73v-.266l-.687.016c-.25 0-.531 0-.781-.016v.266c.266.031.406.156.406.391 0 .094 0 .109-.047.203l-.922 2.266-1.031-2.453c-.016-.047-.047-.109-.047-.172 0-.234.328-.234.5-.234v-.266l-.984.016c-.312 0-.578 0-.906-.016v.266c.422 0 .594 0 .734.344l1.313 3.172c.047.156.125.172.203.172s.156-.016.219-.172l1.219-2.937c.188-.453.5-.562.813-.578zm6.957 1.422v-.281l-1.156.016c-.344 0-1.109 0-1.437-.016v.281h.297c.828 0 .859.094.859.438v.563c0 1.094-1.359 1.094-1.484 1.094-.734 0-2.422-.437-2.422-2.984 0-2.5 1.641-2.984 2.375-2.984.891 0 1.828.672 2.047 2.125.016.125.031.156.141.156.156 0 .156-.031.156-.219V91.23c0-.156 0-.234-.109-.234-.062 0-.094.031-.141.109l-.469.672c-.281-.281-.797-.781-1.703-.781-1.734 0-3.203 1.453-3.203 3.266 0 1.828 1.453 3.266 3.219 3.266.844 0 1.484-.328 1.734-.766.156.234.484.547.563.547.109 0 .109-.078.109-.219v-1.547c0-.359.031-.391.625-.391zm0 0"/><use xlink:href="#D"/><use xlink:href="#E"/><use xlink:href="#D" x="14.717"/><path d="M240.711 99.465c0-.047-.031-.078-.078-.141-1.156-1.062-1.516-2.672-1.516-4.25 0-1.375.266-3.062 1.531-4.266.047-.047.063-.062.063-.109 0-.062-.047-.109-.109-.109-.109 0-.922.656-1.406 1.625-.422.859-.641 1.797-.641 2.859 0 .641.078 1.672.578 2.719.531 1.109 1.359 1.766 1.469 1.766.063 0 .109-.031.109-.094zm0 0"/><use xlink:href="#F"/><path d="M250.746 97.324v-.281c-.609 0-.687-.062-.687-.5v-3.187l-1.359.109v.266c.609 0 .688.063.688.516v1.578c0 .797-.437 1.375-1.094 1.375-.734 0-.781-.391-.781-.875v-2.969l-1.359.109v.266c.688 0 .688.031.688.828v1.344c0 .594 0 .969.422 1.281.25.172.625.234.984.234.469 0 .906-.203 1.156-.734h.016v.734zm0 0"/><use xlink:href="#G"/><path d="M257.876 96.183c0-.406-.172-.656-.375-.859-.297-.297-.625-.359-1.281-.484-.234-.047-.891-.156-.891-.672 0-.281.203-.672 1.016-.672.969 0 1.031.75 1.047.969.016.109.016.172.125.172.125 0 .125-.062.125-.234v-.859c0-.156 0-.234-.094-.234-.047 0-.062 0-.187.109a1.81 1.81 0 0 1-.156.141c-.266-.203-.547-.25-.859-.25-1.187 0-1.469.656-1.469 1.109 0 .281.125.516.328.719.297.281.641.344 1.094.422.469.094.609.109.813.266.094.078.313.25.313.578 0 .797-.906.797-1.031.797-.906 0-1.141-.766-1.25-1.25-.031-.094-.047-.141-.141-.141-.125 0-.125.078-.125.234v1.141c0 .156 0 .234.094.234.063 0 .063 0 .234-.172a1.18 1.18 0 0 1 .172-.219c.375.375.797.391 1.016.391 1.109 0 1.484-.641 1.484-1.234zm2.995-1.109c0-.734-.109-1.719-.578-2.719-.531-1.109-1.359-1.766-1.469-1.766-.094 0-.109.078-.109.109 0 .047.016.063.078.125.531.469 1.516 1.688 1.516 4.25 0 1.281-.234 3.063-1.531 4.281-.016.016-.062.063-.062.109 0 .016.016.094.109.094.109 0 .922-.641 1.406-1.625.422-.859.641-1.781.641-2.859zm0 0"/><use xlink:href="#H"/><use xlink:href="#H" x="6.783"/><path d="M303.378 93.277l-.172-2.031h-5.625l-.187 2.031h.25c.125-1.484.313-1.75 1.656-1.75l.516.016c.172.047.172.125.172.359v4.703c0 .313 0 .438-.937.438h-.359v.281c.328-.031 1.313-.031 1.703-.031l1.688.031v-.281h-.344c-.937 0-.937-.125-.937-.437v-4.703c0-.234 0-.312.188-.359.094-.016.328-.016.484-.016 1.359 0 1.531.266 1.656 1.75zm2.906 2.391v-.562h-2.469v.563zm0 0"/><use xlink:href="#I"/><use xlink:href="#F" x="69.657"/><use xlink:href="#J"/><use xlink:href="#J" x="5.119"/><path d="M329.564 96.262c0-.062-.047-.125-.125-.125-.094 0-.109.063-.125.109-.297.906-1.109.922-1.234.922a1.19 1.19 0 0 1-1-.547c-.297-.437-.312-.969-.312-1.344h2.563c.188 0 .234 0 .234-.203 0-.922-.5-1.766-1.656-1.766-1.062 0-1.906.938-1.906 2.047 0 1.172.938 2.063 2.031 2.063s1.531-.953 1.531-1.156zm-.609-1.203h-2.172c.078-1.391.875-1.531 1.125-1.531.5 0 1.031.375 1.047 1.531zm0 0"/><use xlink:href="#I" x="23.043"/><path d="M336.994 96.215v-.516h-.25v.484c0 .672-.281.984-.594.984-.609 0-.609-.781-.609-.953V93.73h1.313v-.266h-1.312v-1.656h-.25c0 .75-.312 1.672-1.187 1.703v.219h.781v2.484c0 1 .719 1.203 1.203 1.203.594 0 .906-.562.906-1.203zm0 0"/><use xlink:href="#K"/><path d="M375.508 95.699c0-.812-.781-1.469-1.781-1.578.891-.172 1.516-.75 1.516-1.406 0-.797-.859-1.516-2.047-1.516h-3.328v.281h.203c.688 0 .703.094.703.422v4.719c0 .328-.016.422-.703.422h-.203v.281h3.578c1.219 0 2.063-.797 2.063-1.625zm-1.125-2.984c0 .688-.609 1.313-1.453 1.313h-1.406V91.84c0-.297.016-.359.438-.359h1.172c.875 0 1.25.703 1.25 1.234zm.234 2.953c0 .703-.547 1.375-1.469 1.375h-1.187c-.422 0-.437-.062-.437-.359v-2.437h1.703c1.031 0 1.391.875 1.391 1.422zm8.168 1.656v-.281c-.562 0-.687-.078-.969-.484l-2.109-2.984 1.688-1.547c.563-.531 1.125-.547 1.266-.547V91.2c-.25.031-.703.031-.797.031l-1.109-.031v.281c.25 0 .391.125.391.297 0 .063-.031.141-.078.203l-2.984 2.766v-2.844c0-.328.016-.422.703-.422h.219V91.2c-.406.031-.906.031-1.328.031-.406 0-.906 0-1.312-.031v.281h.203c.688 0 .703.094.703.422v4.719c0 .328-.016.422-.703.422h-.203v.281c.406-.031.906-.031 1.313-.031l1.328.031v-.281h-.219c-.687 0-.703-.094-.703-.422v-1.547l1.094-1 1.672 2.375c.078.109.156.234.156.344 0 .25-.344.25-.516.25v.281c.406-.031.844-.031 1.25-.031l1.047.031zm0 0"/><use xlink:href="#D" x="169.592"/><use xlink:href="#L"/><use xlink:href="#M"/><use xlink:href="#N"/><use xlink:href="#M" x="12.927"/><use xlink:href="#N" x="52.664"/><path d="M464.936 97.324v-.281h-.203c-.687 0-.703-.094-.703-.422v-4.719c0-.328.016-.422.703-.422h.203v-.281c-.406.031-.906.031-1.312.031-.422 0-.922 0-1.328-.031v.281h.219c.688 0 .703.094.703.422v2.094h-2.781v-2.094c0-.328.016-.422.703-.422h.219v-.281c-.406.031-.906.031-1.328.031-.406 0-.906 0-1.312-.031v.281h.203c.688 0 .703.094.703.422v4.719c0 .328-.016.422-.703.422h-.203v.281c.406-.031.906-.031 1.313-.031l1.328.031v-.281h-.219c-.687 0-.703-.094-.703-.422v-2.344h2.781v2.344c0 .328-.016.422-.703.422h-.219v.281c.406-.031.906-.031 1.328-.031l1.313.031zm6.988-3.047c0-1.828-1.391-3.281-3.062-3.281s-3.062 1.469-3.062 3.281c0 1.828 1.391 3.25 3.063 3.25s3.063-1.422 3.063-3.25zm-.906-.125c0 2.313-1.25 3.094-2.156 3.094s-2.156-.781-2.156-3.094c0-2.187 1.281-2.906 2.156-2.906s2.156.719 2.156 2.906zm0 0"/><use xlink:href="#E" x="252.587"/><use xlink:href="#D" x="267.304"/></g><path d="M87.508 102.277h436.984" class="B C D H"/><g class="E"><path d="M99.11 133.117l-.25-2.016h-5.031v.266h.203c.688 0 .703.109.703.438v4.688c0 .328-.016.422-.703.422h-.203v.281c.406-.031.953-.031 1.375-.031l1.484.031v-.281h-.281c-.828 0-.859-.109-.859-.437v-2.203h.813c.859 0 .969.297.969 1.063h.25v-2.391h-.25c0 .766-.109 1.063-.969 1.063h-.812v-2.266c0-.312.016-.375.438-.375h1.125c1.375 0 1.609.516 1.75 1.75zm0 0"/><use xlink:href="#G" x="-152.222" y="39.871"/><use xlink:href="#O"/><use xlink:href="#J" x="-208.547" y="39.871"/><path d="M116.772 137.195v-.281c-.297 0-.516 0-.844-.437l-1.266-1.734c.875-.75 1.297-1.109 1.906-1.141v-.266l-.672.016-.984-.016v.266c.141.016.234.078.234.219 0 .172-.141.297-.219.359l-1.266 1.063v-4.266l-1.328.094v.281c.609 0 .688.063.688.5v4.656c0 .406-.094.406-.687.406v.281l1-.031 1 .031v-.281c-.594 0-.703 0-.703-.406v-.906l.578-.484.875 1.172c.141.203.219.313.219.438 0 .078-.031.188-.312.188v.281l.969-.031.813.031zm0 0"/><use xlink:href="#O" x="14.591"/><use xlink:href="#L" x="-255.14" y="24.928"/><use xlink:href="#P"/><use xlink:href="#I" x="-135.7" y="14.965"/><use xlink:href="#I" x="-131.605" y="14.965"/><use xlink:href="#Q"/><use xlink:href="#R"/><use xlink:href="#R" x="5.3"/><use xlink:href="#S"/><use xlink:href="#Q" x="79.243"/><use xlink:href="#R" x="79.243"/><use xlink:href="#R" x="84.542"/><use xlink:href="#S" x="79.242"/><use xlink:href="#T"/><use xlink:href="#T" x="4.6"/><use xlink:href="#U"/><use xlink:href="#T" x="11.775"/><use xlink:href="#V"/><use xlink:href="#W"/><use xlink:href="#X"/><use xlink:href="#T" x="86.182"/><use xlink:href="#U" x="81.583"/><use xlink:href="#Y"/><use xlink:href="#Z"/><use xlink:href="#W" x="81.582"/><use xlink:href="#E" x="-55.43" y="24.928"/><use xlink:href="#a"/><use xlink:href="#K" x="-184.582" y="24.928"/><use xlink:href="#b"/><use xlink:href="#U" x="-168.504" y="9.963"/><use xlink:href="#c"/><use xlink:href="#d"/><use xlink:href="#e"/><use xlink:href="#b" x="27.646"/><use xlink:href="#U" x="-140.858" y="9.963"/><use xlink:href="#X" x="-210.666" y="9.963"/><use xlink:href="#f"/><use xlink:href="#X" x="-166.237" y="9.963"/><use xlink:href="#U" x="-89.262" y="9.963"/><use xlink:href="#X" x="-159.07" y="9.963"/><use xlink:href="#Z" x="-170.844" y="9.963"/><use xlink:href="#e" x="79.243"/><use xlink:href="#X" x="-138.591" y="9.963"/><use xlink:href="#U" x="-61.615" y="9.963"/><use xlink:href="#Z" x="-147.798" y="9.963"/><use xlink:href="#c" x="111.488"/><use xlink:href="#X" x="-89.263" y="9.963"/><use xlink:href="#U" x="-12.287" y="9.963"/><use xlink:href="#T" x="-0.512" y="9.963"/><use xlink:href="#b" x="167.985"/><use xlink:href="#e" x="156.217"/><use xlink:href="#b" x="183.864"/><use xlink:href="#U" x="15.359" y="9.963"/><use xlink:href="#f" x="151.617"/><use xlink:href="#T" x="31.734" y="9.963"/><use xlink:href="#Y" x="-19.455" y="9.963"/><use xlink:href="#U" x="69.296" y="9.963"/><use xlink:href="#V" x="64.696" y="9.963"/><use xlink:href="#Z" x="-12.287" y="9.963"/><use xlink:href="#e" x="237.8"/><use xlink:href="#X" x="19.966" y="9.963"/><use xlink:href="#U" x="96.942" y="9.963"/><use xlink:href="#V" x="92.342" y="9.963"/><use xlink:href="#d" x="265.446"/><use xlink:href="#E" x="-55.43" y="34.89"/><use xlink:href="#g"/><use xlink:href="#h"/><use xlink:href="#Q" x="-8.841" y="19.925"/><use xlink:href="#i"/><use xlink:href="#Q" x="-0.589" y="19.925"/><use xlink:href="#j"/><use xlink:href="#k"/><use xlink:href="#Q" x="22.989" y="19.925"/><use xlink:href="#i" x="31.83"/><use xlink:href="#j" x="26.531"/><use xlink:href="#l"/><use xlink:href="#m"/><use xlink:href="#X" x="-164.957" y="19.925"/><use xlink:href="#X" x="-160.358" y="19.925"/><use xlink:href="#U" x="-83.374" y="19.925"/><use xlink:href="#T" x="-71.599" y="19.925"/><use xlink:href="#X" x="-148.582" y="19.925"/><use xlink:href="#e" x="85.13" y="9.962"/><use xlink:href="#n"/><use xlink:href="#U" x="-55.728" y="19.925"/><use xlink:href="#b" x="119.944" y="9.962"/><use xlink:href="#n" x="11.767"/><use xlink:href="#m" x="76.975"/><use xlink:href="#X" x="-87.983" y="19.925"/><use xlink:href="#f" x="122.683" y="9.962"/><use xlink:href="#U" x="-6.399" y="19.925"/><use xlink:href="#Y" x="-87.982" y="19.925"/><use xlink:href="#n" x="61.095"/><use xlink:href="#e" x="162.105" y="9.962"/><use xlink:href="#f" x="150.337" y="9.962"/><use xlink:href="#U" x="21.247" y="19.925"/><use xlink:href="#d" x="185.152" y="9.962"/><use xlink:href="#d" x="189.752" y="9.962"/><use xlink:href="#m" x="160.861"/><use xlink:href="#V" x="61.112" y="19.925"/><use xlink:href="#U" x="72.88" y="19.925"/><use xlink:href="#b" x="248.551" y="9.962"/><use xlink:href="#d" x="241.384" y="9.962"/><use xlink:href="#e" x="241.384" y="9.962"/><use xlink:href="#Z" x="7.176" y="19.925"/><use xlink:href="#U" x="100.526" y="19.925"/><use xlink:href="#V" x="95.926" y="19.925"/><use xlink:href="#f" x="241.383" y="9.962"/></g><path d="M128.34 137.066h396.152" class="B C D F"/><g class="E"><use xlink:href="#o"/><use xlink:href="#P" y="34.69"/><use xlink:href="#I" x="-135.7" y="49.655"/><use xlink:href="#I" x="-131.605" y="49.655"/><use xlink:href="#T" x="-156.217" y="34.69"/><use xlink:href="#X" x="-233.201" y="34.69"/><use xlink:href="#U" x="-156.217" y="34.69"/><use xlink:href="#T" x="-144.442" y="34.69"/><use xlink:href="#X" x="-221.425" y="34.69"/><use xlink:href="#W" x="-156.218" y="34.69"/><use xlink:href="#Q" x="79.243" y="34.69"/><use xlink:href="#R" x="79.243" y="34.69"/><use xlink:href="#R" x="84.542" y="34.69"/><use xlink:href="#S" x="79.242" y="34.69"/><use xlink:href="#Q" x="156.218" y="34.69"/><use xlink:href="#R" x="156.218" y="34.69"/><use xlink:href="#R" x="161.517" y="34.69"/><use xlink:href="#S" x="156.217" y="34.69"/><use xlink:href="#X" y="34.69"/><use xlink:href="#f" x="210.665" y="24.727"/><use xlink:href="#U" x="81.583" y="34.69"/><use xlink:href="#d" x="245.488" y="24.727"/><use xlink:href="#f" x="222.44" y="24.727"/><use xlink:href="#W" x="81.582" y="34.69"/><use xlink:href="#E" x="-55.43" y="59.618"/><use xlink:href="#a" y="34.69"/><use xlink:href="#K" x="-184.582" y="59.618"/><use xlink:href="#b" y="34.69"/><use xlink:href="#U" x="-168.504" y="44.653"/><use xlink:href="#Z" x="-254.686" y="44.653"/><use xlink:href="#Y" x="-245.488" y="44.653"/><use xlink:href="#e" y="34.69"/><use xlink:href="#X" x="-217.834" y="44.653"/><use xlink:href="#U" x="-140.858" y="44.653"/><use xlink:href="#T" x="-129.083" y="44.653"/><use xlink:href="#Z" x="-222.44" y="44.653"/><use xlink:href="#b" x="79.243" y="34.69"/><use xlink:href="#U" x="-89.262" y="44.653"/><use xlink:href="#X" x="-159.07" y="44.653"/><use xlink:href="#Y" x="-166.245" y="44.653"/><use xlink:href="#e" x="79.243" y="34.69"/><use xlink:href="#b" x="106.889" y="34.69"/><use xlink:href="#U" x="-61.615" y="44.653"/><use xlink:href="#Y" x="-143.199" y="44.653"/><use xlink:href="#V" x="-61.616" y="44.653"/><use xlink:href="#b" x="156.217" y="34.69"/><use xlink:href="#U" x="-12.287" y="44.653"/><use xlink:href="#b" x="163.385" y="34.69"/><use xlink:href="#X" x="-77.495" y="44.653"/><use xlink:href="#e" x="156.217" y="34.69"/><use xlink:href="#b" x="183.864" y="34.69"/><use xlink:href="#U" x="15.359" y="44.653"/><use xlink:href="#X" x="-54.449" y="44.653"/><use xlink:href="#V" x="15.359" y="44.653"/><use xlink:href="#X" x="-7.68" y="44.653"/><use xlink:href="#U" x="69.296" y="44.653"/><use xlink:href="#b" x="244.968" y="34.69"/><use xlink:href="#c" x="242.399" y="34.69"/><use xlink:href="#e" x="237.8" y="34.69"/><use xlink:href="#b" x="265.446" y="34.69"/><use xlink:href="#U" x="96.942" y="44.653"/><use xlink:href="#Y" x="15.359" y="44.653"/><use xlink:href="#X" x="31.733" y="44.653"/><use xlink:href="#E" x="-55.43" y="69.581"/><use xlink:href="#g" y="34.691"/><use xlink:href="#h" y="34.691"/><use xlink:href="#p"/><use xlink:href="#i" y="34.691"/><use xlink:href="#j" x="-5.299" y="34.691"/><use xlink:href="#p" x="13.551"/><use xlink:href="#k" y="34.691"/><path d="M246.362 161.311c0-.266-.031-.312-.297-.312-.219 0-.234.016-.328.141l-3.187 3.938v.438h2.656v.953h-1.031v.438c.328-.031 1.219-.031 1.578-.031l1.5.031v-.437h-.891v-.953h.891v-.437h-.891zm-1.047.969v2.797h-2.25zm0 0"/><use xlink:href="#i" x="31.83" y="34.691"/><use xlink:href="#p" x="40.082"/><use xlink:href="#q"/><use xlink:href="#m" x="-2.304" y="34.691"/><use xlink:href="#T" x="-85.678" y="54.616"/><use xlink:href="#f" x="43.405" y="44.653"/><use xlink:href="#U" x="-85.678" y="54.616"/><use xlink:href="#f" x="50.58" y="44.653"/><use xlink:href="#b" x="94.594" y="44.653"/><use xlink:href="#e" x="82.826" y="44.653"/><use xlink:href="#X" x="-135.007" y="54.616"/><use xlink:href="#T" x="-48.825" y="54.616"/><use xlink:href="#U" x="-53.424" y="54.616"/><use xlink:href="#Z" x="-139.606" y="54.616"/><use xlink:href="#n" x="14.071" y="34.691"/><use xlink:href="#m" x="72.367" y="34.691"/><use xlink:href="#X" x="-92.59" y="54.616"/><use xlink:href="#X" x="-87.99" y="54.616"/><use xlink:href="#Z" x="-99.765" y="54.616"/><use xlink:href="#U" x="-6.399" y="54.616"/><use xlink:href="#d" x="157.506" y="44.653"/><use xlink:href="#T" x="9.975" y="54.616"/><use xlink:href="#e" x="162.105" y="44.653"/><use xlink:href="#b" x="189.751" y="44.653"/><use xlink:href="#Y" x="-62.904" y="54.616"/><use xlink:href="#U" x="25.855" y="54.616"/><use xlink:href="#Y" x="-55.728" y="54.616"/><use xlink:href="#d" x="194.359" y="44.653"/><use xlink:href="#m" x="156.254" y="34.691"/><use xlink:href="#n" x="123.999" y="34.691"/><use xlink:href="#c" x="234.208" y="44.653"/><use xlink:href="#U" x="72.88" y="54.616"/><use xlink:href="#f" x="209.137" y="44.653"/><use xlink:href="#c" x="245.983" y="44.653"/><use xlink:href="#e" x="241.384" y="44.653"/><use xlink:href="#X" x="23.55" y="54.616"/><use xlink:href="#b" x="273.63" y="44.653"/><use xlink:href="#U" x="105.133" y="54.616"/><use xlink:href="#c" x="273.637" y="44.653"/><use xlink:href="#c" x="278.237" y="44.653"/></g><path d="M87.508 171.859h436.984" class="B C D H"/><g class="E"><path d="M100.048 200.932v-.281l-1.047.031c-.437 0-.562-.016-1.062-.031v.281c.922 0 .922.422.922.672v3.109c0 1.219-.875 1.984-1.781 1.984-.516 0-1.531-.312-1.531-1.937v-3.406c0-.328.016-.422.703-.422h.219v-.281c-.406.031-.906.031-1.328.031-.406 0-.906 0-1.312-.031v.281h.203c.688 0 .703.094.703.422v3.359c0 1.313 1.094 2.266 2.328 2.266 1.313 0 2.078-1.234 2.078-2.125v-3.234c0-.266 0-.687.906-.687zm7.097 5.047c0-.062 0-.156-.125-.156s-.125.078-.125.141c-.047.578-.328.781-.609.781s-.391-.172-.453-.328c-.078-.203-.156-.812-.219-1.203-.078-.562-.156-1.156-1.141-1.484.844-.234 1.547-.766 1.547-1.469 0-.891-1.094-1.609-2.406-1.609h-2.859v.281h.203c.688 0 .719.094.719.422v4.719c0 .328-.031.422-.719.422h-.203v.281l1.297-.031 1.313.031v-.281h-.203c-.687 0-.719-.094-.719-.422v-2.25h1.078c.656 0 .938.344.969.375.281.328.281.469.281 1.109 0 .594 0 1 .422 1.328.422.344.969.344 1.063.344.75 0 .891-.781.891-1zm-2.047-3.719c0 .781-.391 1.344-1.609 1.344h-1.047v-2.312c0-.234.031-.312.203-.344.078-.016.359-.016.547-.016.766 0 1.906 0 1.906 1.328zm5.957 4.516v-.281h-.281c-.844 0-.875-.109-.875-.437v-5.016c0-.219 0-.234-.219-.234-.562.563-1.391.563-1.672.563v.281c.172 0 .719 0 1.203-.234v4.641c0 .328-.016.438-.859.438h-.281v.281c.313-.031 1.125-.031 1.484-.031l1.5.031zm4.981-2.875c0-.594-.031-1.375-.344-2.047-.406-.844-1.078-1.047-1.594-1.047a1.68 1.68 0 0 0-1.625 1.078c-.281.609-.328 1.344-.328 2.016 0 .594.016 1.453.406 2.172.422.75 1.125.906 1.531.906a1.71 1.71 0 0 0 1.625-1.078c.266-.609.328-1.281.328-2zm-.781-.109c0 .563 0 1.313-.094 1.844-.187 1.031-.844 1.109-1.062 1.109-.281 0-.922-.125-1.094-1.141-.094-.516-.094-1.297-.094-1.812 0-.609 0-1.312.109-1.812.188-.797.75-.953 1.063-.953.344 0 .906.188 1.078 1.016.094.484.094 1.188.094 1.75zm0 0"/><use xlink:href="#L" x="-255.14" y="94.508"/><use xlink:href="#P" y="69.58"/><use xlink:href="#I" x="-135.7" y="84.545"/><use xlink:href="#I" x="-131.605" y="84.545"/><use xlink:href="#Q" y="69.58"/><use xlink:href="#R" y="69.58"/><use xlink:href="#R" x="5.3" y="69.58"/><use xlink:href="#S" y="69.58"/><use xlink:href="#V" x="-93.35" y="69.58"/><path d="M305.541 176.4c.078-.094.078-.125.078-.312H303.4c-1.141 0-1.172-.109-1.187-.281h-.25l-.297 1.875h.25c.031-.203.109-.703.219-.812.063-.062.781-.062.906-.062h1.875l-.859 1.172c-1.172 1.609-1.281 3.078-1.281 3.578 0 .109 0 .516.422.516s.422-.406.422-.516v-.437c0-1.328.188-2.359.672-3.016zm0 0"/><use xlink:href="#U" x="-76.974" y="69.58"/><use xlink:href="#b" x="98.697" y="59.617"/><use xlink:href="#b" x="103.297" y="59.617"/><use xlink:href="#W" x="-76.975" y="69.58"/><use xlink:href="#T" y="69.58"/><use xlink:href="#Z" x="-93.357" y="69.58"/><use xlink:href="#U" y="69.58"/><use xlink:href="#X" x="-69.808" y="69.58"/><use xlink:href="#X" x="-65.208" y="69.58"/><use xlink:href="#W" y="69.58"/><use xlink:href="#X" y="69.58"/><use xlink:href="#X" x="4.599" y="69.58"/><use xlink:href="#U" x="81.583" y="69.58"/><use xlink:href="#X" x="11.775" y="69.58"/><use xlink:href="#X" x="16.374" y="69.58"/><use xlink:href="#W" x="81.582" y="69.58"/><use xlink:href="#E" x="-55.43" y="94.508"/><use xlink:href="#a" y="69.58"/><use xlink:href="#K" x="-184.582" y="94.508"/><use xlink:href="#X" x="-245.48" y="79.543"/><use xlink:href="#U" x="-168.504" y="79.543"/><use xlink:href="#Z" x="-254.686" y="79.543"/><use xlink:href="#n" x="-101.01" y="59.618"/><use xlink:href="#e" y="69.58"/><use xlink:href="#X" x="-217.834" y="79.543"/><use xlink:href="#U" x="-140.858" y="79.543"/><use xlink:href="#Y" x="-222.441" y="79.543"/><use xlink:href="#V" x="-140.858" y="79.543"/><use xlink:href="#b" x="79.243" y="69.58"/><use xlink:href="#U" x="-89.262" y="79.543"/><use xlink:href="#f" x="46.996" y="69.58"/><use xlink:href="#b" x="91.01" y="69.58"/><use xlink:href="#e" x="79.243" y="69.58"/><use xlink:href="#b" x="106.889" y="69.58"/><use xlink:href="#U" x="-61.615" y="79.543"/><use xlink:href="#d" x="102.289" y="69.58"/><use xlink:href="#d" x="106.889" y="69.58"/><use xlink:href="#f" x="116.803" y="69.58"/><use xlink:href="#U" x="-12.287" y="79.543"/><use xlink:href="#Y" x="-93.87" y="79.543"/><use xlink:href="#n" x="55.208" y="59.618"/><use xlink:href="#e" x="156.217" y="69.58"/><use xlink:href="#f" x="144.45" y="69.58"/><use xlink:href="#U" x="15.359" y="79.543"/><use xlink:href="#n" x="78.254" y="59.618"/><use xlink:href="#c" x="188.463" y="69.58"/><use xlink:href="#Y" x="-19.455" y="79.543"/><use xlink:href="#U" x="69.296" y="79.543"/><use xlink:href="#b" x="244.968" y="69.58"/><use xlink:href="#Y" x="-7.688" y="79.543"/><use xlink:href="#e" x="237.8" y="69.58"/><use xlink:href="#Y" x="8.191" y="79.543"/><use xlink:href="#U" x="96.942" y="79.543"/><use xlink:href="#f" x="233.2" y="69.58"/><use xlink:href="#c" x="270.045" y="69.58"/><use xlink:href="#E" x="-55.43" y="104.471"/><use xlink:href="#g" y="69.581"/><use xlink:href="#h" x="-5.305" y="69.581"/><use xlink:href="#r"/><use xlink:href="#p" x="-0.006" y="34.89"/><use xlink:href="#i" y="69.581"/><use xlink:href="#R" x="-5.888" y="89.506"/><use xlink:href="#l" x="-31.83" y="69.581"/><use xlink:href="#k" y="69.581"/><use xlink:href="#Q" x="22.989" y="89.506"/><use xlink:href="#Q" x="28.288" y="89.506"/><use xlink:href="#i" x="37.135" y="69.581"/><use xlink:href="#s"/><use xlink:href="#p" x="50.686" y="34.89"/><use xlink:href="#m" x="-4.608" y="69.581"/><use xlink:href="#b" x="75.915" y="79.543"/><use xlink:href="#T" x="-83.382" y="89.506"/><use xlink:href="#X" x="-160.366" y="89.506"/><use xlink:href="#U" x="-83.374" y="89.506"/><use xlink:href="#T" x="-71.599" y="89.506"/><use xlink:href="#f" x="57.484" y="79.543"/><use xlink:href="#e" x="85.13" y="79.543"/><use xlink:href="#b" x="112.777" y="79.543"/><use xlink:href="#b" x="117.376" y="79.543"/><use xlink:href="#U" x="-51.12" y="89.506"/><use xlink:href="#V" x="-55.72" y="89.506"/><use xlink:href="#X" x="-116.329" y="89.506"/><use xlink:href="#m" x="72.367" y="69.581"/><use xlink:href="#f" x="113.476" y="79.543"/><use xlink:href="#c" x="150.322" y="79.543"/><use xlink:href="#V" x="-18.183" y="89.506"/><use xlink:href="#U" x="-6.399" y="89.506"/><use xlink:href="#c" x="162.105" y="79.543"/><use xlink:href="#n" x="61.095" y="69.581"/><use xlink:href="#e" x="162.105" y="79.543"/><use xlink:href="#n" x="76.974" y="69.581"/><use xlink:href="#d" x="182.584" y="79.543"/><use xlink:href="#U" x="25.855" y="89.506"/><use xlink:href="#d" x="189.76" y="79.543"/><use xlink:href="#b" x="206.126" y="79.543"/><use xlink:href="#m" x="149.342" y="69.581"/><use xlink:href="#d" x="218.098" y="79.543"/><use xlink:href="#V" x="54.192" y="89.506"/><use xlink:href="#f" x="199.65" y="79.543"/><use xlink:href="#Y" x="-13.591" y="89.506"/><use xlink:href="#U" x="75.183" y="89.506"/><use xlink:href="#c" x="243.687" y="79.543"/><use xlink:href="#c" x="248.287" y="79.543"/><use xlink:href="#e" x="243.687" y="79.543"/><use xlink:href="#X" x="25.854" y="89.506"/><use xlink:href="#Y" x="18.679" y="89.506"/><use xlink:href="#T" x="116.636" y="89.506"/><use xlink:href="#U" x="112.045" y="89.506"/><use xlink:href="#n" x="174.94" y="69.581"/><use xlink:href="#X" x="46.836" y="89.506"/></g><path d="M128.34 206.648h396.152" class="B C D F"/><g class="E"><use xlink:href="#o" y="69.581"/><use xlink:href="#P" y="104.271"/><use xlink:href="#I" x="-135.7" y="119.236"/><use xlink:href="#I" x="-131.605" y="119.236"/><use xlink:href="#s" x="-40.672" y="14.765"/><use xlink:href="#q" x="-35.367" y="49.655"/><use xlink:href="#i" x="10.02" y="84.346"/><use xlink:href="#s" x="-27.115" y="14.765"/><path d="M238.761 214.544h-.453c-.016.125-.094.766-.234.828-.109.047-.781.047-.937.047h-1.281l1.469-1.125c.75-.531 1.438-1.016 1.438-1.891 0-1.047-.953-1.734-2.25-1.734-1.109 0-1.984.531-1.984 1.359 0 .469.359.688.672.688a.65.65 0 0 0 .656-.672c0-.203-.078-.531-.469-.641.313-.25.719-.281.891-.281.734 0 1.203.547 1.203 1.281 0 .656-.375 1.234-.859 1.719l-2 1.984c-.094.094-.094.109-.094.281v.172h3.969zm0 0"/><use xlink:href="#S" x="4.132" y="104.271"/><use xlink:href="#T" x="-76.975" y="104.271"/><use xlink:href="#d" x="79.755" y="94.308"/><use xlink:href="#U" x="-76.974" y="104.271"/><use xlink:href="#f" x="59.283" y="94.308"/><use xlink:href="#d" x="91.53" y="94.308"/><use xlink:href="#W" x="-76.975" y="104.271"/><use xlink:href="#X" x="-81.583" y="104.271"/><use xlink:href="#Z" x="-93.357" y="104.271"/><use xlink:href="#U" y="104.271"/><use xlink:href="#n" x="62.895" y="84.346"/><use xlink:href="#Z" x="-81.582" y="104.271"/><use xlink:href="#W" y="104.271"/><use xlink:href="#X" y="104.271"/><use xlink:href="#T" x="86.182" y="104.271"/><use xlink:href="#U" x="81.583" y="104.271"/><use xlink:href="#X" x="11.775" y="104.271"/><use xlink:href="#T" x="97.957" y="104.271"/><use xlink:href="#W" x="81.582" y="104.271"/><use xlink:href="#E" x="-55.43" y="129.199"/><use xlink:href="#a" y="104.271"/><use xlink:href="#K" x="-184.582" y="129.199"/><use xlink:href="#n" x="-112.777" y="94.309"/><use xlink:href="#U" x="-168.504" y="114.234"/><use xlink:href="#V" x="-173.104" y="114.234"/><use xlink:href="#d" y="104.271"/><use xlink:href="#e" y="104.271"/><use xlink:href="#X" x="-217.834" y="114.234"/><use xlink:href="#U" x="-140.858" y="114.234"/><use xlink:href="#V" x="-145.458" y="114.234"/><use xlink:href="#X" x="-206.066" y="114.234"/><use xlink:href="#X" x="-166.237" y="114.234"/><use xlink:href="#U" x="-89.262" y="114.234"/><use xlink:href="#T" x="-77.487" y="114.234"/><use xlink:href="#b" x="91.01" y="104.271"/><use xlink:href="#e" x="79.243" y="104.271"/><use xlink:href="#b" x="106.889" y="104.271"/><use xlink:href="#U" x="-61.615" y="114.234"/><use xlink:href="#b" x="114.056" y="104.271"/><use xlink:href="#b" x="118.656" y="104.271"/><use xlink:href="#Y" x="-101.038" y="114.234"/><use xlink:href="#U" x="-12.287" y="114.234"/><use xlink:href="#V" x="-16.887" y="114.234"/><use xlink:href="#n" x="55.208" y="94.309"/><use xlink:href="#e" x="156.217" y="104.271"/><use xlink:href="#X" x="-61.616" y="114.234"/><use xlink:href="#U" x="15.359" y="114.234"/><use xlink:href="#d" x="179.264" y="104.271"/><use xlink:href="#Z" x="-66.223" y="114.234"/><use xlink:href="#Y" x="-19.455" y="114.234"/><use xlink:href="#U" x="69.296" y="114.234"/><use xlink:href="#d" x="233.201" y="104.271"/><use xlink:href="#d" x="237.8" y="104.271"/><use xlink:href="#e" x="237.8" y="104.271"/><use xlink:href="#Y" x="8.191" y="114.234"/><use xlink:href="#U" x="96.942" y="114.234"/><use xlink:href="#V" x="92.342" y="114.234"/><use xlink:href="#Y" x="19.958" y="114.234"/><use xlink:href="#E" x="-55.43" y="139.161"/><use xlink:href="#g" y="104.271"/><use xlink:href="#h" y="104.271"/><use xlink:href="#j" x="-13.551" y="104.271"/><use xlink:href="#i" y="104.271"/><use xlink:href="#Q" x="-0.589" y="124.196"/><use xlink:href="#R" x="-0.589" y="124.196"/><use xlink:href="#k" y="104.271"/><use xlink:href="#r" x="37.136" y="34.69"/><use xlink:href="#i" x="31.83" y="104.271"/><use xlink:href="#r" x="45.388" y="34.69"/><use xlink:href="#r" x="50.687" y="34.69"/><use xlink:href="#m" x="-2.304" y="104.271"/><use xlink:href="#f" x="38.805" y="114.233"/><use xlink:href="#b" x="82.819" y="114.233"/><use xlink:href="#U" x="-85.678" y="124.196"/><use xlink:href="#d" x="78.227" y="114.233"/><use xlink:href="#Z" x="-167.26" y="124.196"/><use xlink:href="#e" x="82.826" y="114.233"/><use xlink:href="#X" x="-135.007" y="124.196"/><use xlink:href="#n" x="2.295" y="104.271"/><use xlink:href="#U" x="-53.424" y="124.196"/><use xlink:href="#Y" x="-135.007" y="124.196"/><use xlink:href="#n" x="14.071" y="104.271"/><use xlink:href="#m" x="76.975" y="104.271"/><use xlink:href="#b" x="157.497" y="114.233"/><use xlink:href="#Z" x="-99.757" y="124.196"/><use xlink:href="#U" x="-6.399" y="124.196"/><use xlink:href="#f" x="129.859" y="114.233"/><use xlink:href="#T" x="9.975" y="124.196"/><use xlink:href="#e" x="162.105" y="114.233"/><use xlink:href="#V" x="9.479" y="124.196"/><use xlink:href="#U" x="21.247" y="124.196"/><use xlink:href="#V" x="16.647" y="124.196"/><use xlink:href="#c" x="194.351" y="114.233"/><use xlink:href="#m" x="158.557" y="104.271"/><use xlink:href="#d" x="227.313" y="114.233"/><use xlink:href="#T" x="79.783" y="124.196"/><use xlink:href="#U" x="75.183" y="124.196"/><use xlink:href="#d" x="239.088" y="114.233"/><use xlink:href="#n" x="142.678" y="104.271"/><use xlink:href="#e" x="243.687" y="114.233"/><use xlink:href="#Z" x="9.48" y="124.196"/><use xlink:href="#U" x="102.829" y="124.196"/><use xlink:href="#d" x="266.734" y="114.233"/><use xlink:href="#T" x="119.204" y="124.196"/></g><path d="M87.508 241.59h436.984" class="B C D G"/><defs ><path id="B" d="M106.435 88.078c0-1.172-.828-2.109-2.344-2.109-1.578 0-2.359.984-2.359 2.109 0 1.109.813 2 2.344 2 1.609 0 2.359-.937 2.359-2zm-1.187-.094c0 .766 0 1.719-1.156 1.719-1.172 0-1.172-.953-1.172-1.719s0-1.656 1.156-1.656c1.172 0 1.172.891 1.172 1.656zm0 0"/><path id="C" d="M352.434 82.559v-.437h-.609v-2.297c0-1.062-.656-1.297-1.437-1.297-1.094 0-1.531.797-1.594.938h-.016v-.937l-1.547.063v.438c.531 0 .609 0 .609.359v2.734h-.609v.438l1.125-.031 1.141.031v-.437h-.609v-1.844c0-1 .828-1.391 1.359-1.391.344 0 .516.188.516.859v2.375h-.609v.438l1.141-.031zm0 0"/><path id="D" d="M219.343 92.871c0-.891-.922-1.672-2.172-1.672h-3.219v.281h.203c.688 0 .719.094.719.422v4.719c0 .328-.031.422-.719.422h-.203v.281c.406-.031.906-.031 1.313-.031l1.328.031v-.281h-.203c-.703 0-.719-.094-.719-.422v-2.109h1.5c1.25 0 2.172-.781 2.172-1.641zm-.922 0c0 .406 0 1.391-1.484 1.391h-1.297V91.84c0-.297.031-.359.453-.359h.859c1.469 0 1.469.984 1.469 1.391zm0 0"/><path id="E" d="M227.911 97.324v-.281h-.203c-.687 0-.703-.094-.703-.422v-4.719c0-.328.016-.422.703-.422h.203v-.281h-1.5c-.187 0-.25 0-.312.156l-2.016 5.094-2-5.047c-.078-.187-.078-.203-.328-.203h-1.5v.281h.203c.688 0 .703.094.703.422v4.469c0 .25 0 .672-.906.672v.281l1.047-.031 1.063.031v-.281c-.922 0-.922-.422-.922-.672v-4.797l.016-.016 2.203 5.563c.047.125.078.203.188.203.094 0 .141-.078.172-.156l2.25-5.672v5.125c0 .328-.016.422-.703.422h-.203v.281l1.266-.031 1.281.031zm0 0"/><path id="F" d="M245.576 95.418c0-1.172-.937-2.109-2.031-2.109-1.141 0-2.047.953-2.047 2.109 0 1.109.922 2 2.031 2 1.141 0 2.047-.906 2.047-2zm-.781-.078c0 .328 0 .844-.219 1.234a1.18 1.18 0 0 1-1.031.594c-.453 0-.828-.219-1.031-.562-.234-.391-.25-.859-.25-1.266 0-.344 0-.844.219-1.219a1.22 1.22 0 0 1 1.047-.594c.516 0 .875.297 1.063.594.203.375.203.828.203 1.219zm0 0"/><path id="G" d="M254.303 93.918c0-.281-.266-.562-.672-.562-.531 0-.906.375-1.125.938v-.937l-1.281.109v.266c.609 0 .688.063.688.516v2.391c0 .406-.094.406-.687.406v.281l1.047-.031 1.141.031v-.281h-.172c-.656 0-.687-.094-.687-.422v-1.344c0-.375.094-1.687 1.125-1.687-.016.016-.156.125-.156.328a.39.39 0 0 0 .391.406.39.39 0 0 0 .391-.406zm0 0"/><path id="H" d="M291.011 96.527c0-.062 0-.156-.125-.156s-.125.078-.125.141c-.047.578-.328.781-.609.781s-.391-.172-.453-.328c-.078-.203-.156-.812-.219-1.203-.078-.562-.156-1.156-1.141-1.484.844-.234 1.547-.766 1.547-1.469 0-.891-1.094-1.609-2.406-1.609h-2.859v.281h.203c.688 0 .719.094.719.422v4.719c0 .328-.031.422-.719.422h-.203v.281l1.297-.031 1.313.031v-.281h-.203c-.687 0-.719-.094-.719-.422v-2.25h1.078c.656 0 .938.344.969.375.281.328.281.469.281 1.109 0 .594 0 1 .422 1.328.422.344.969.344 1.063.344.75 0 .891-.781.891-1zm-2.047-3.719c0 .781-.391 1.344-1.609 1.344h-1.047V91.84c0-.234.031-.312.203-.344.078-.016.359-.016.547-.016.766 0 1.906 0 1.906 1.328zm0 0"/><path id="I" d="M310.621 96.262c0-.109-.094-.109-.125-.109-.094 0-.094.016-.156.172a1.18 1.18 0 0 1-1.156.844c-.578 0-1.312-.469-1.312-1.797 0-1.391.719-1.812 1.25-1.812.125 0 .609.016.938.234-.187.047-.375.172-.375.422a.42.42 0 0 0 .422.422c.234 0 .422-.156.422-.437 0-.547-.625-.891-1.422-.891-1.141 0-2 .953-2 2.078 0 1.156.922 2.031 1.984 2.031 1.25 0 1.531-1.078 1.531-1.156zm0 0"/><path id="J" d="M320.403 97.324v-.281c-.453 0-.687 0-.687-.281v-1.719c0-.734 0-1-.25-1.312-.203-.25-.547-.375-1-.375-.828 0-1.219.625-1.344.875h-.016v-.875l-1.297.109v.266c.609 0 .688.063.688.516v2.391c0 .406-.094.406-.687.406v.281l1.031-.031 1.016.031v-.281c-.594 0-.687 0-.687-.406v-1.641c0-.953.672-1.406 1.234-1.406.531 0 .641.438.641.969v2.078c0 .406-.094.406-.687.406v.281l1.031-.031 1.016.031zm0 0"/><path id="K" d="M369.092 95.012h-.25c-.094.906-.219 2.031-1.828 2.031h-.781c-.422 0-.437-.062-.437-.359v-4.766c0-.328.031-.437.859-.437h.281v-.281c-.312.031-1.125.031-1.484.031-.422 0-.969 0-1.375-.031v.281h.203c.688 0 .703.094.703.422v4.719c0 .328-.016.422-.703.422h-.203v.281h4.766zm0 0"/><path id="L" d="M392.472 97.324v-.281h-.219c-.719 0-.734-.109-.734-.422v-4.719c0-.312.016-.422.734-.422h.219v-.281c-.359.031-.969.031-1.359.031-.375 0-1 0-1.359-.031v.281h.219c.719 0 .734.109.734.422v4.719c0 .313-.016.422-.734.422h-.219v.281c.359-.031.984-.031 1.359-.031l1.359.031zm0 0"/><path id="M" d="M398.782 95.012h-.25c-.219 1.391-.453 2.031-1.984 2.031h-1.266c-.422 0-.437-.062-.437-.359v-2.391h.828c.891 0 1 .281 1 1.047h.25v-2.375h-.25c0 .766-.109 1.047-1 1.047h-.828v-2.141c0-.312.016-.375.438-.375h1.203c1.406 0 1.656.484 1.797 1.75h.25l-.25-2.016h-5.156v.266h.203c.688 0 .703.109.703.438v4.688c0 .328-.016.422-.703.422h-.203v.281h5.266zm0 0"/><path id="N" d="M405.194 95.246c0-.094 0-.172-.125-.172s-.125.063-.125.141c-.078 1.359-1.156 2.031-2.078 2.031-.766 0-2.391-.484-2.391-2.984s1.641-2.984 2.375-2.984c.891 0 1.828.672 2.047 2.125.016.125.031.156.141.156.156 0 .156-.031.156-.219V91.23c0-.156 0-.234-.109-.234-.062 0-.094.031-.141.109l-.469.672c-.281-.281-.797-.781-1.703-.781-1.734 0-3.203 1.453-3.203 3.266 0 1.844 1.484 3.266 3.203 3.266 1.484 0 2.422-1.234 2.422-2.281zm0 0"/><path id="O" d="M106.795 136.398v-.5h-.25v.484c0 .109 0 .547-.312.547-.328 0-.328-.422-.328-.562v-1.578c0-.516 0-.812-.406-1.187-.328-.297-.766-.422-1.203-.422-.766 0-1.391.375-1.391.953a.4.4 0 0 0 .422.422c.25 0 .422-.172.422-.406 0-.391-.406-.437-.406-.437.234-.234.672-.312.922-.312.469 0 .969.344.969 1.141v.281c-.484.031-1.156.063-1.75.359-.641.313-.844.781-.844 1.141 0 .734.875.969 1.469.969a1.31 1.31 0 0 0 1.219-.734c.031.375.297.688.688.688a.77.77 0 0 0 .781-.844zm-1.562-.469a1.06 1.06 0 0 1-1.062 1.141c-.422 0-.812-.312-.812-.75 0-.594.516-1.219 1.875-1.281zm0 0"/><path id="P" d="M171.028 112.289v-.281h-.141c-.562 0-.656-.078-.75-.328l-2.031-5.625c-.047-.109-.078-.187-.219-.187s-.156.047-.219.203l-1.922 5.328c-.109.297-.312.609-1 .609v.281c.328-.031.578-.031.906-.031l1.016.031v-.281c-.516 0-.672-.281-.672-.453 0-.078.031-.125.047-.172l.422-1.156h2.313l.484 1.359c.047.078.047.109.047.156 0 .266-.5.266-.734.266v.281c.406-.031.875-.031 1.281-.031zm-2.344-2.344h-2.125l1.063-2.937zm0 0"/><path id="Q" d="M222.53 106.695c0-.187 0-.297-.266-.297-.109 0-.125 0-.203.063-.687.516-1.656.516-1.828.516h-.172v.438h.172a4.16 4.16 0 0 0 1.203-.172v4.609h-1.281v.438c.344-.031 1.422-.031 1.828-.031l1.844.031v-.437h-1.297zm0 0"/><path id="R" d="M229.454 109.43c0-.922-.031-3.031-2.234-3.031-2.187 0-2.25 2.047-2.25 3.031 0 .938.031 2.969 2.234 2.969 2.188 0 2.25-1.969 2.25-2.969zm-2.234 2.609c-.25 0-.859-.109-.984-.937-.062-.469-.062-1.281-.062-1.781l.063-1.734c.141-.719.734-.828.969-.828.297 0 .859.156.984.844.063.438.063 1.203.063 1.719 0 .703 0 1.766-.141 2.109a.96.96 0 0 1-.891.609zm0 0"/><path id="S" d="M242.412 106.086c.094-.109.109-.141.109-.234 0-.172-.125-.297-.281-.297a.3.3 0 0 0-.219.109 2.33 2.33 0 0 1-1.875.859c-.484 0-1.219-.125-2.047-.687-.141-.125-.375-.281-.766-.281-.797 0-1.578.594-1.578 1.813 0 1.266.813 1.813 1.578 1.813.719 0 1.359-.578 1.359-1.812 0-.125 0-.5-.125-.859a3.81 3.81 0 0 0 1.594.359c.266 0 .563-.016 1.016-.172l-4.422 5.563c-.062.078-.125.141-.125.25 0 .156.141.281.297.281.078 0 .172-.047.266-.156zm-5.047 2.734c-.656 0-.656-.891-.656-1.453s0-1.453.656-1.453c.328 0 .875.328.875 1.453 0 1.188-.578 1.453-.875 1.453zm6.047 2.172c0-1.281-.687-1.812-1.375-1.812-.797 0-1.578.578-1.578 1.797 0 1.281.813 1.813 1.578 1.813.719 0 1.375-.578 1.375-1.797zm-1.344 1.438c-.656 0-.656-.891-.656-1.437 0-.578 0-1.453.656-1.453.344 0 .875.313.875 1.438 0 1.188-.562 1.453-.875 1.453zm0 0"/><path id="T" d="M375.072 108.211c-.266-.172-.484-.406-.484-.734 0-.594.625-.937 1.219-.937.703 0 1.25.484 1.25 1.109s-.531 1.047-.891 1.25zm1.313.828c.453-.219 1.109-.656 1.109-1.391 0-.844-.844-1.328-1.656-1.328-.937 0-1.672.672-1.672 1.5 0 .328.125.656.344.922.141.172.203.203.719.531-.781.375-1.312.922-1.312 1.656 0 .953.938 1.563 1.906 1.563 1.047 0 1.922-.734 1.922-1.703 0-.875-.672-1.312-.891-1.453l-.469-.297zm-.906.391l1.125.703c.203.125.656.422.656.969 0 .703-.719 1.141-1.422 1.141-.781 0-1.437-.562-1.437-1.312 0-.641.438-1.172 1.078-1.5zm0 0"/><path id="U" d="M384.506 111.805c0-.266-.219-.484-.484-.484-.281 0-.484.219-.484.484s.203.484.484.484c.266 0 .484-.219.484-.484zm0 0"/><path id="V" d="M393.306 109.461v.203c0 2.188-1 2.578-1.516 2.578-.203 0-.656-.047-.891-.344h.031c.078.016.422-.047.422-.406 0-.234-.156-.406-.406-.406a.39.39 0 0 0-.422.422c0 .594.469.984 1.281.984 1.156 0 2.313-1.187 2.313-3.156 0-2.422-1.078-3.016-1.891-3.016-1.031 0-1.937.828-1.937 2 0 1.141.813 2 1.828 2 .656 0 1.016-.469 1.188-.859zm-1.156.641c-.156 0-.594 0-.875-.562-.172-.328-.172-.781-.172-1.203 0-.437 0-.875.188-1.219.266-.453.625-.578.938-.578.609 0 .859.625.891.703.125.344.156.891.156 1.266 0 .656-.297 1.594-1.125 1.594zm0 0"/><path id="W" d="M400.813 105.914c.047-.062.078-.094.078-.156 0-.125-.109-.203-.187-.203-.109 0-.156.063-.203.141a2.14 2.14 0 0 1-1.734.859c-.875 0-1.453-.437-1.766-.734-.234-.219-.469-.266-.641-.266-.687 0-1.344.75-1.344 1.813 0 1.094.672 1.813 1.344 1.813s1.203-.797 1.203-1.812c0-.125 0-.531-.172-.969.547.313 1.063.375 1.375.375.391 0 .797-.094 1.172-.297l.016.016-4.094 5.922c0 .016-.078.109-.078.188 0 .109.094.188.203.188.094 0 .141-.062.188-.141zm-4.422 3.031c-.203 0-.781-.109-.781-1.578s.578-1.578.781-1.578c.469 0 .922.656.922 1.578 0 .953-.469 1.578-.922 1.578zm5.266 2.047c0-1.047-.547-1.812-1.203-1.812-.687 0-1.359.734-1.359 1.797 0 1.094.688 1.813 1.359 1.813s1.203-.781 1.203-1.797zm-1.187 1.578c-.187 0-.781-.125-.781-1.578 0-1.484.594-1.594.781-1.594.484 0 .938.672.938 1.578 0 .953-.469 1.594-.937 1.594zm0 0"/><path id="X" d="M457.827 106.555c0-.219 0-.234-.219-.234-.562.563-1.391.563-1.672.563v.281c.172 0 .719 0 1.203-.234v4.641c0 .328-.016.438-.859.438h-.281v.281c.313-.031 1.125-.031 1.484-.031l1.5.031v-.281h-.281c-.844 0-.875-.109-.875-.437zm0 0"/><path id="Y" d="M471.133 109.414c0-.594-.031-1.375-.344-2.047-.406-.844-1.078-1.047-1.594-1.047a1.68 1.68 0 0 0-1.625 1.078c-.281.609-.328 1.344-.328 2.016 0 .594.016 1.453.406 2.172.422.75 1.125.906 1.531.906a1.71 1.71 0 0 0 1.625-1.078c.266-.609.328-1.281.328-2zm-1.937 2.844c-.281 0-.922-.125-1.094-1.141-.094-.516-.094-1.297-.094-1.812 0-.609 0-1.312.109-1.812.188-.797.75-.953 1.063-.953.344 0 .906.188 1.078 1.016.094.484.094 1.188.094 1.75s0 1.313-.094 1.844c-.187 1.031-.844 1.109-1.062 1.109zm0 0"/><path id="Z" d="M472.685 109.32c0-.922.094-1.422.344-1.891.172-.375.609-.891 1.281-.891.172 0 .594.031.797.359-.328 0-.484.172-.484.406a.41.41 0 0 0 .422.422c.25 0 .422-.172.422-.437 0-.5-.359-.969-1.172-.969-1.156 0-2.422 1.141-2.422 3.141 0 2.422 1.094 3.031 1.938 3.031.984 0 1.891-.844 1.891-2.031 0-1.125-.828-2-1.844-2-.531 0-.922.328-1.172.859zm1.109 2.922c-.516 0-.812-.422-.906-.687-.172-.406-.187-1.156-.187-1.297 0-.594.281-1.562 1.141-1.562.141 0 .578 0 .875.547.172.344.172.781.172 1.219 0 .422 0 .875-.172 1.203-.281.516-.672.578-.922.578zm0 0"/><path id="a" d="M178.63 117.799c0-.891-.922-1.672-2.172-1.672h-3.219v.281h.203c.688 0 .719.094.719.422v4.719c0 .328-.031.422-.719.422h-.203v.281c.406-.031.906-.031 1.313-.031l1.328.031v-.281h-.203c-.703 0-.719-.094-.719-.422v-2.109h1.5c1.25 0 2.172-.781 2.172-1.641zm-.922 0c0 .406 0 1.391-1.484 1.391h-1.297v-2.422c0-.297.031-.359.453-.359h.859c1.469 0 1.469.984 1.469 1.391zm0 0"/><path id="b" d="M213.769 120.658h-.25c-.016.125-.094.656-.203.797-.062.078-.672.078-.859.078h-1.594l.891-.844c1.469-1.266 2.016-1.75 2.016-2.656 0-1.031-.844-1.75-1.953-1.75-1.031 0-1.734.813-1.734 1.625 0 .453.391.5.469.5.203 0 .469-.141.469-.469a.45.45 0 0 0-.469-.469c-.047 0-.062 0-.109.016a1.35 1.35 0 0 1 1.281-.922c.906 0 1.219.844 1.219 1.469 0 .906-.687 1.656-1.109 2.125l-1.641 1.766c-.109.109-.109.125-.109.328h3.438zm0 0"/><path id="c" d="M221.187 116.783c.078-.094.078-.125.078-.312h-2.219c-1.141 0-1.172-.109-1.187-.281h-.25l-.297 1.875h.25c.031-.203.109-.703.219-.812.063-.062.781-.062.906-.062h1.875l-.859 1.172c-1.172 1.609-1.281 3.078-1.281 3.578 0 .109 0 .516.422.516s.422-.406.422-.516v-.437c0-1.328.188-2.359.672-3.016zm0 0"/><path id="d" d="M222.333 119.158c0 .156 0 .266.125.266.063 0 .094-.047.141-.125a1.45 1.45 0 0 1 1.172-.594c.969 0 .969 1.391.969 1.703 0 .281 0 .844-.266 1.25-.234.375-.609.547-.969.547-.516 0-1.125-.344-1.344-1 .016 0 .063.016.125.016.188 0 .453-.109.453-.437 0-.281-.203-.437-.453-.437-.187 0-.437.109-.437.469 0 .813.688 1.641 1.688 1.641 1.078 0 2-.891 2-2 0-1.078-.766-1.969-1.75-1.969-.422 0-.859.141-1.187.469v-1.766c.281.078.563.125.828.125 1.109 0 1.75-.797 1.75-.922 0-.078-.047-.109-.094-.109-.016 0-.031 0-.125.047-.422.156-.828.234-1.203.234-.391 0-.797-.078-1.203-.234-.094-.047-.109-.047-.109-.047-.109 0-.109.078-.109.234zm0 0"/><path id="e" d="M231.84 119.424h2.531c.156 0 .328 0 .328-.187s-.172-.187-.328-.187h-2.531v-2.531c0-.156 0-.359-.203-.359-.187 0-.187.188-.187.313v2.578h-2.547c-.156 0-.328 0-.328.188s.172.188.328.188h2.547v2.5h-2.547c-.156 0-.328 0-.328.188s.172.188.328.188h5.469c.156 0 .328 0 .328-.187s-.172-.187-.328-.187h-2.531zm0 0"/><path id="f" d="M249.308 120.486v.281h2.438v.781c0 .328-.016.422-.687.422h-.203v.281l1.25-.031 1.266.031v-.281h-.203c-.672 0-.703-.094-.703-.422v-.781h.922v-.281h-.922v-4.062c0-.187 0-.25-.172-.25-.109 0-.109.016-.187.141zm.281 0l2.219-3.312v3.313zm0 0"/><path id="g" d="M179.021 130.136c0-.094 0-.172-.125-.172s-.125.063-.125.141c-.078 1.359-1.156 2.031-2.078 2.031-.766 0-2.391-.484-2.391-2.984s1.641-2.984 2.375-2.984c.891 0 1.828.672 2.047 2.125.016.125.031.156.141.156.156 0 .156-.031.156-.219v-2.109c0-.156 0-.234-.109-.234-.062 0-.094.031-.141.109l-.469.672c-.281-.281-.797-.781-1.703-.781-1.734 0-3.203 1.453-3.203 3.266 0 1.844 1.484 3.266 3.203 3.266 1.484 0 2.422-1.234 2.422-2.281zm0 0"/><path id="h" d="M209.123 130.261c.125 0 .406 0 .406-.297 0-.281-.281-.281-.406-.281h-5.656c-.125 0-.422 0-.422.281 0 .297.297.297.422.297zm0 0"/><path id="i" d="M217.9 131.511c0-.391-.312-.719-.703-.719s-.703.328-.703.719a.71.71 0 0 0 .703.703.71.71 0 0 0 .703-.703zm0 0"/><path id="j" d="M229.037 126.87c.078-.094.094-.141.094-.172v-.266h-2.047c-.187 0-1.437-.047-1.547-.078-.172-.047-.187-.109-.203-.203h-.453l-.312 2.297h.453c.094-.75.234-.812.25-.812.125-.047.813-.047.984-.047h1.5l-1.109 1.344c-.734 1.109-.891 2.141-.891 2.75 0 .625.484.641.578.641.234 0 .406-.141.453-.187.125-.187.125-.234.125-.75 0-1.156.109-2.234.688-2.891zm0 0"/><path id="k" d="M236.049 129.386h2.828c.125 0 .422 0 .422-.297 0-.281-.297-.281-.422-.281h-2.828v-2.797c0-.156 0-.453-.281-.453s-.281.266-.281.406v2.844h-2.844c-.125 0-.406 0-.406.281 0 .297.281.297.406.297h2.844v2.672h-2.844c-.125 0-.406 0-.406.281s.281.281.406.281h6.234c.125 0 .422 0 .422-.281s-.297-.281-.422-.281h-2.828zm0 0"/><path id="l" d="M258.257 129.277c1 0 1 .875 1 1.328 0 .406 0 1.313-.953 1.313-.109 0-.734-.016-1.141-.312.406-.109.5-.469.5-.672 0-.422-.297-.703-.719-.703a.67.67 0 0 0-.703.703c0 .844.906 1.391 2.094 1.391 1.641 0 2.328-.906 2.328-1.719 0-.719-.531-1.328-1.547-1.547.906-.312 1.25-.937 1.25-1.484 0-.672-.672-1.25-2-1.25-1.109 0-1.828.594-1.828 1.328 0 .406.281.656.641.656a.63.63 0 0 0 .656-.656c0-.297-.172-.547-.531-.625.063-.062.438-.344 1.016-.344.781 0 .781.594.781.875 0 .5-.187 1.281-.969 1.328a6.7 6.7 0 0 0-.422.031c-.141.016-.141.109-.141.172 0 .188.094.188.266.188zm0 0"/><path id="m" d="M289.03 130.167c.172 0 .344 0 .344-.203 0-.187-.187-.187-.344-.187h-4.937c-.156 0-.344 0-.344.188 0 .203.172.203.344.203zm0 0"/><path id="n" d="M325.139 129.058c.828-.312 1.234-.969 1.234-1.594 0-.687-.766-1.219-1.703-1.219-.922 0-1.625.531-1.625 1.203 0 .297.188.469.453.469s.453-.187.453-.453c0-.312-.219-.437-.531-.437.234-.375.781-.562 1.234-.562.734 0 .875.594.875 1.016 0 .266-.047.703-.266 1.047-.281.391-.594.406-.859.438l-.312.016c-.078 0-.156.016-.156.109 0 .125.078.125.234.125h.406c.781 0 1.125.625 1.125 1.469 0 1.156-.609 1.484-1.062 1.484-.172 0-1.047-.047-1.437-.719.313.047.563-.172.563-.484 0-.297-.219-.484-.484-.484-.219 0-.484.141-.484.516 0 .797.828 1.422 1.875 1.422 1.109 0 1.953-.812 1.953-1.734 0-.781-.625-1.437-1.484-1.625zm0 0"/><path id="o" d="M140.332 155.317c0-.812-.781-1.469-1.781-1.578.891-.172 1.516-.75 1.516-1.406 0-.797-.859-1.516-2.047-1.516h-3.328v.281h.203c.688 0 .703.094.703.422v4.719c0 .328-.016.422-.703.422h-.203v.281h3.578c1.219 0 2.063-.797 2.063-1.625zm-1.125-2.984c0 .688-.609 1.313-1.453 1.313h-1.406v-2.187c0-.297.016-.359.438-.359h1.172c.875 0 1.25.703 1.25 1.234zm.234 2.953c0 .703-.547 1.375-1.469 1.375h-1.187c-.422 0-.437-.062-.437-.359v-2.437h1.703c1.031 0 1.391.875 1.391 1.422zm0 0"/><path id="p" d="M212.126 163.671c0-1.125.219-1.484.313-1.641a1.47 1.47 0 0 1 1.219-.656c.172 0 .453.031.672.234-.359.078-.484.344-.484.563 0 .391.297.594.594.594a.57.57 0 0 0 .578-.609c0-.547-.375-1.141-1.375-1.141-1.297 0-2.781.828-2.781 3.047 0 .438.031 1.313.422 1.953.391.688 1.016 1 1.828 1 1.281 0 2.172-.734 2.172-1.953 0-.484-.094-.969-.609-1.437-.469-.391-.937-.484-1.484-.484-.578 0-.922.406-1.062.688zm.969 2.938c-.531 0-.766-.406-.828-.562-.125-.281-.125-1-.125-1.031 0-.922.391-1.516 1.016-1.516.859 0 .859.656.859 1.547 0 .906 0 1.563-.922 1.563zm0 0"/><path id="q" d="M259.398 164.374c0 .578-.062 1.156-.234 1.531-.109.234-.469.703-1.172.703-.078 0-.453 0-.734-.187a.55.55 0 0 0 .422-.562c0-.375-.281-.578-.578-.578-.25 0-.594.141-.594.594 0 .609.469 1.141 1.5 1.141 1.25 0 2.656-.797 2.656-3.062 0-.469-.031-1.391-.484-2.094-.297-.437-.828-.844-1.719-.844-1.281 0-2.219.719-2.219 1.938 0 1.125.766 1.938 2.094 1.938.406 0 .781-.203 1.063-.687zm-1.031.141c-.859 0-.859-.656-.859-1.531s0-1.609.984-1.609c.563 0 .766.516.797.594.109.297.109.781.109 1.094 0 .406-.172 1.453-1.031 1.453zm0 0"/><path id="r" d="M206.617 197.279c.313.063.453.063.641.063.25 0 .828 0 1.5-.453.203-.125.719-.562.719-.797 0-.031 0-.187-.141-.187-.016 0-.047 0-.141.047-.453.172-.953.25-1.422.25a4.02 4.02 0 0 1-1.391-.25c-.125-.047-.141-.047-.156-.047-.125 0-.125.125-.125.266v2.641c0 .156 0 .281.203.281.125 0 .141 0 .234-.125.375-.422.859-.484 1.219-.484.828 0 .828.781.828 1.484 0 .641 0 1.531-1.125 1.531-.484 0-.922-.234-1.141-.516.375-.047.578-.297.578-.625 0-.437-.344-.625-.625-.625s-.625.172-.625.641c0 .781.719 1.531 1.859 1.531 1.531 0 2.375-.859 2.375-1.906 0-1.031-.719-1.875-2.078-1.875-.422 0-.797.063-1.187.297zm0 0"/><path id="s" d="M259.466 198.483c.641-.312.906-.75.906-1.25 0-.859-.75-1.328-1.891-1.328-1.297 0-1.937.719-1.937 1.594 0 .484.266 1 .859 1.344-.484.25-1.156.609-1.156 1.516 0 1.109 1 1.547 2.203 1.547 1.453 0 2.219-.766 2.219-1.781 0-.953-.734-1.375-1.203-1.641zm-1.828-1c-.047-.016-.391-.203-.391-.516 0-.594.703-.703 1.188-.703.797 0 1.234.391 1.234.969 0 .469-.281.797-.656 1zm.219 1.609l1.203.656c.484.266.797.438.797.859 0 .844-1.047.891-1.391.891-.797 0-1.406-.359-1.406-1.156 0-.406.172-.875.797-1.25zm0 0"/></defs></svg>