<svg xmlns="http://www.w3.org/2000/svg" width="787.68" height="199.3" viewBox="0 0 393.84 99.65" xmlns:v="https://vecta.io/nano"><style><![CDATA[.B{clip-rule:nonzero}.C{stroke-miterlimit:10}.D{fill:none}.E{fill:rgb(0%, 0%, 0%)}.F{stroke-width:.797}.G{stroke-opacity:.038}.H{stroke:rgb(0%, 0%, 0%)}.I{stroke-linecap:square}.J{fill-opacity:.038}.K{stroke-width:.399}.L{stroke-opacity:.1}.M{fill:rgb(100%, 100%, 100%)}.N{stroke:rgb(36.073303%, 78.594971%, 38.780212%)}.O{stroke:rgb(23.165894%, 31.809998%, 54.481506%)}.P{stroke:rgb(12.870789%, 56.324768%, 55.12085%)}.Q{stroke-dasharray:0.79701 0.99628}.R{stroke-width:1.196}.S{stroke-dasharray:1.19553 0.99628}]]></style><defs><path d="M6.563-2.297c.172 0 .359 0 .359-.203 0-.187-.187-.187-.359-.187H1.172c-.172 0-.344 0-.344.188 0 .203.172.203.344.203zm0 0" id="A"/><path d="M1.906-2.5a.52.52 0 0 0-.516-.516c-.297 0-.531.234-.531.516 0 .297.234.531.531.531.281 0 .516-.234.516-.531zm0 0" id="B"/><path d="M2.891-3.516c.813-.266 1.391-.953 1.391-1.75 0-.812-.875-1.375-1.828-1.375-1 0-1.766.594-1.766 1.359a.48.48 0 0 0 .516.516c.297 0 .5-.219.5-.516 0-.484-.469-.484-.609-.484.297-.5.953-.625 1.313-.625.422 0 .969.219.969 1.109 0 .125-.031.703-.281 1.141a.93.93 0 0 1-.891.516 3.29 3.29 0 0 1-.391.031c-.078.016-.141.031-.141.125 0 .109.063.109.234.109h.438c.813 0 1.188.672 1.188 1.656 0 1.359-.687 1.641-1.125 1.641S1.219-.234.875-.812c.344.047.656-.172.656-.547 0-.359-.266-.562-.547-.562a.53.53 0 0 0-.562.578c0 .906.922 1.563 2.016 1.563 1.219 0 2.125-.906 2.125-1.922 0-.812-.641-1.594-1.672-1.812zm0 0" id="C"/><path d="M4.578-3.187c0-.797-.047-1.594-.391-2.328-.453-.969-1.281-1.125-1.687-1.125-.609 0-1.328.266-1.75 1.188-.312.688-.359 1.469-.359 2.266 0 .75.031 1.641.453 2.406a1.83 1.83 0 0 0 1.641 1c.531 0 1.297-.203 1.734-1.156.313-.687.359-1.469.359-2.25zM2.484 0C2.094 0 1.5-.25 1.328-1.203c-.109-.594-.109-1.516-.109-2.109l.078-1.828c.188-1.187.938-1.281 1.188-1.281.328 0 .984.188 1.172 1.172.109.563.109 1.313.109 1.938 0 .75 0 1.422-.109 2.063C3.5-.297 2.938 0 2.484 0zm0 0" id="D"/><path d="M1.266-.766l1.063-1.031c1.547-1.375 2.141-1.906 2.141-2.906 0-1.141-.891-1.937-2.109-1.937C1.234-6.641.5-5.719.5-4.828c0 .547.5.547.531.547.172 0 .516-.109.516-.531a.51.51 0 0 0-.531-.516c-.078 0-.094 0-.125.016.219-.656.766-1.016 1.344-1.016.906 0 1.328.813 1.328 1.625 0 .797-.484 1.578-1.047 2.203L.609-.375C.5-.266.5-.234.5 0h3.703l.266-1.734h-.234C4.172-1.437 4.109-1 4-.844c-.062.078-.719.078-.937.078zm0 0" id="E"/><path d="M2.938-1.641v.859c0 .359-.031.469-.766.469h-.203V0c.406-.031.922-.031 1.344-.031L4.672 0v-.312h-.219c-.734 0-.75-.109-.75-.469v-.859h.984v-.312h-.984v-4.531c0-.203 0-.266-.172-.266-.078 0-.109 0-.187.125L.281-1.953v.313zm.047-.312H.563l2.422-3.719zm0 0" id="F"/><path d="M6.844-3.266c.156 0 .344 0 .344-.187 0-.203-.187-.203-.328-.203H.891c-.141 0-.328 0-.328.203 0 .188.188.188.328.188zm.016 1.938c.141 0 .328 0 .328-.203 0-.187-.187-.187-.344-.187H.891c-.141 0-.328 0-.328.188 0 .203.188.203.328.203zm0 0" id="G"/><path d="M2.938-6.375c0-.25 0-.266-.234-.266C2.078-6 1.203-6 .891-6v.313c.203 0 .781 0 1.297-.266v5.172c0 .359-.031.469-.922.469H.953V0c.344-.031 1.203-.031 1.609-.031L4.172 0v-.312h-.312c-.906 0-.922-.109-.922-.469zm0 0" id="H"/><path d="M4.469-2c0-1.187-.812-2.187-1.891-2.187-.469 0-.906.156-1.266.516v-1.953c.203.063.531.125.844.125 1.234 0 1.938-.906 1.938-1.031 0-.062-.031-.109-.109-.109 0 0-.031 0-.078.031a3.22 3.22 0 0 1-1.359.297c-.391 0-.859-.078-1.328-.281-.078-.031-.094-.031-.109-.031C1-6.625 1-6.547 1-6.391v2.953c0 .172 0 .25.141.25.078 0 .094-.016.141-.078.109-.156.469-.703 1.281-.703.516 0 .766.453.844.641.156.375.188.75.188 1.25 0 .359 0 .953-.25 1.375-.234.391-.609.641-1.062.641-.719 0-1.297-.531-1.469-1.109.031 0 .063.016.172.016a.48.48 0 0 0 .5-.484c0-.25-.172-.5-.5-.5-.141 0-.484.078-.484.531C.5-.75 1.188.219 2.297.219 3.453.219 4.469-.734 4.469-2zm0 0" id="I"/><path d="M-6.734-4.453v.203c.219.047.328.156.328.328 0 .094-.031.266-.109.438-.141.359-.219.734-.219 1.047 0 .438.172.875.453 1.203.313.344.734.531 1.25.531.797 0 1.359-.437 1.938-1.562.375-.719.797-1.234 1.172-1.484.125-.094.344-.141.578-.141.672 0 1.125.5 1.125 1.234 0 .875-.547 1.516-1.766 2.016v.219L.125-.719v-.219c-.187-.016-.328-.125-.328-.281 0-.109.047-.281.109-.469.156-.375.234-.781.234-1.172C.141-4-.641-4.891-1.672-4.891c-.828 0-1.469.547-2.172 1.859-.578 1.047-1.016 1.469-1.562 1.469s-.922-.422-.922-1.047c0-.437.188-.859.547-1.203.313-.312.578-.453 1.172-.609v-.25zm0 0" id="J"/><path d="M-4.484-2.547v1.016h-1.156c-.094 0-.125 0-.125.063.078.078.172.141.266.203.563.375 1.031.813 1.078.969.063.109.141.172.188.172.031 0 .047-.016.063-.047v-.531h3C-.328-.703.094-1 .094-1.578c0-.5-.234-.875-.75-1.203l-.109.125c.25.219.344.391.344.609 0 .359-.266.516-.891.516h-2.859v-1.016zm0 0" id="K"/><path d="M.094-3.422l-.516-1.469h-.156l.016.219c0 .359-.109.438-.578.438h-5.641l-.031.063c.172.469.266.828.438 1.453h.172c-.016-.078-.016-.125-.016-.219 0-.359.094-.453.5-.453h1.563c-.312.375-.422.656-.422 1.047 0 1.141 1.125 2.078 2.531 2.078 1.281 0 2.141-.75 2.141-1.844a1.43 1.43 0 0 0-.656-1.281h.625zm-1.109.031c.063 0 .188.078.297.172.203.172.297.422.297.719 0 .828-.797 1.375-2.016 1.375-1.125 0-1.875-.484-1.875-1.25 0-.531.469-1.016 1-1.016zm0 0" id="L"/><path d="M-1-1.25c0 .297.266.547.578.547a.55.55 0 0 0 .531-.531c0-.312-.25-.562-.531-.562-.312 0-.578.25-.578.547zm0 0" id="M"/><path d="M-1.094-1.031c.719 0 .859.109.906.875H0v-2.828c0-1.156-.328-2.203-.891-2.828-.578-.641-1.469-1.016-2.437-1.016-.906 0-1.672.297-2.219.844-.687.688-1.047 1.766-1.047 3.141v2.688h.188c.063-.797.156-.875.891-.875zm-4.75-1.016c-.312 0-.391-.109-.391-.531 0-.844.156-1.5.5-1.984.547-.766 1.391-1.172 2.469-1.172 1.188 0 2.016.406 2.484 1.203.297.516.406 1.094.406 1.953 0 .406-.078.531-.406.531zm0 0" id="N"/><path d="M-1.641-4.062c.766.469 1.047.906 1.047 1.547 0 .563-.281.984-.859 1.281-.375.172-.703.25-1.312.266v-3.062c-.641.078-.937.172-1.25.422-.359.297-.562.766-.562 1.281 0 .5.172.969.516 1.344.406.469 1.109.734 1.922.734C-.75-.25.094-.969.094-2.109c0-.953-.578-1.703-1.656-2.125zM-3.078-.984c-.781-.109-1.156-.453-1.156-1.062s.281-.844 1.156-.969zm0 0" id="O"/><path d="M-4.484-4.75v1.375h.141c.031-.312.141-.469.328-.469a1.01 1.01 0 0 1 .297.063l2.578.984-2.547 1.016c-.141.063-.281.094-.375.094-.172 0-.25-.109-.281-.453h-.141v1.953h.141c.031-.375.125-.453 1.156-.906l2.859-1.203c.063-.016.125-.047.203-.078.188-.062.266-.125.266-.172 0-.062-.125-.141-.5-.281l-3.203-1.281c-.672-.281-.75-.344-.781-.641zm0 0" id="P"/><path d="M5.953-1.687h-.281C5.172-.609 4.75-.375 3.313-.375h-.266c-.484 0-.906-.047-.969-.109C2.031-.516 2-.625 2-.797v-2.469h1.531c.828 0 .969.141 1.109.969h.219v-2.312h-.219c-.078.406-.109.547-.219.688-.141.172-.422.25-.891.25H2v-2.203c0-.281.063-.344.328-.344h1.344c1.141 0 1.359.141 1.516 1.047h.25l-.031-1.422H.125v.188c.734.063.859.203.859.891v4.422c0 .703-.141.859-.859.906V0H5.5zm0 0" id="Q"/><path d="M2.766 0h2.016v-.156c-.312 0-.516-.156-.828-.594L2.688-2.703l.828-1.187a1.01 1.01 0 0 1 .797-.453v-.141H2.734v.141c.313.031.406.094.406.234 0 .109-.125.328-.375.641l-.297.438-.141-.203c-.281-.422-.453-.75-.453-.875 0-.141.125-.219.422-.234v-.141H.234v.141h.094c.297 0 .453.141.766.609l.938 1.438L.891-.656C.594-.25.5-.172.172-.156V0h1.438v-.156c-.281 0-.391-.047-.391-.172 0-.062.063-.203.203-.406l.781-1.234.906 1.406c.047.047.063.109.063.172 0 .188-.078.219-.406.234zm0 0" id="R"/><path d="M.094-3.922h.25c.328 0 .406.094.406.563v4.672c0 .516-.109.625-.703.688v.156h2.422v-.172c-.75-.016-.891-.125-.891-.75V-.328c.359.328.594.422 1.016.422 1.172 0 2.094-1.109 2.094-2.562 0-1.234-.703-2.109-1.672-2.109-.547 0-.984.234-1.437.781v-.766l-.047-.016-1.437.5zm1.484.594c0-.297.563-.656 1.031-.656.734 0 1.219.75 1.219 1.906 0 1.109-.484 1.859-1.203 1.859-.469 0-1.047-.359-1.047-.656zm0 0" id="S"/><path d="M4.063-1.641c-.469.766-.906 1.047-1.547 1.047-.562 0-.984-.281-1.281-.859-.172-.375-.25-.703-.266-1.312h3.063c-.078-.641-.172-.937-.422-1.25-.297-.359-.766-.562-1.281-.562-.5 0-.969.172-1.344.516C.516-3.656.25-2.953.25-2.141.25-.75.969.094 2.109.094c.953 0 1.703-.578 2.125-1.656zM.984-3.078c.109-.781.453-1.156 1.063-1.156s.844.281.969 1.156zm0 0" id="T"/><path d="M3.969-1.562c-.484.703-.844.938-1.406.938-.906 0-1.547-.797-1.547-1.937 0-1.031.547-1.734 1.359-1.734.359 0 .484.109.578.484l.063.219c.078.281.266.453.469.453.266 0 .484-.187.484-.422 0-.547-.703-1.016-1.531-1.016-.5 0-1 .188-1.406.547-.5.438-.781 1.125-.781 1.906C.25-.828 1.031.094 2.141.094c.453 0 .844-.156 1.203-.469.281-.234.469-.5.766-1.094zm0 0" id="U"/><path d="M2.547-4.484H1.531v-1.156c0-.094 0-.125-.062-.125-.078.078-.141.172-.203.266-.375.563-.812 1.031-.969 1.078-.109.063-.172.141-.172.188 0 .031.016.047.047.063h.531v3c0 .844.297 1.266.875 1.266.5 0 .875-.234 1.203-.75l-.125-.109c-.219.25-.391.344-.609.344-.359 0-.516-.266-.516-.891v-2.859h1.016zm0 0" id="V"/><path d="M3.422.094l1.469-.516v-.156l-.219.016c-.359 0-.437-.109-.437-.578v-5.641l-.062-.031c-.469.172-.828.266-1.453.438v.172c.078-.016.125-.016.219-.016.359 0 .453.094.453.5v1.563c-.375-.312-.656-.422-1.047-.422-1.141 0-2.078 1.125-2.078 2.531 0 1.281.75 2.141 1.844 2.141a1.43 1.43 0 0 0 1.281-.656v.625zm-.031-1.109c0 .063-.078.188-.172.297-.172.203-.422.297-.719.297-.828 0-1.375-.797-1.375-2.016 0-1.125.484-1.875 1.25-1.875.531 0 1.016.469 1.016 1zm0 0" id="W"/><path d="M1.141-1.094c0 .75-.125.875-.969.906V0h2.969v-.187c-.812-.031-.984-.172-.984-.906v-4.422c0-.719.141-.859.984-.891v-.187H.172v.188c.859.047.969.156.969.891zm0 0" id="X"/><path d="M.188-3.969C.313-4 .406-4 .516-4c.25 0 .344.156.344.625v2.531c0 .531-.141.688-.703.688V0h2.219v-.156c-.531-.016-.687-.125-.687-.516v-2.812c0-.016.094-.109.156-.187.25-.219.672-.391 1.031-.391.438 0 .656.344.656 1.047v2.156c0 .563-.109.672-.687.703V0h2.234v-.156c-.562 0-.719-.172-.719-.797v-2.5c.313-.437.641-.609 1.094-.609.563 0 .75.266.75 1.094v2.094c0 .578-.078.656-.656.719V0h2.172v-.156l-.25-.016c-.297-.016-.437-.203-.437-.578v-2.062c0-1.172-.375-1.766-1.156-1.766-.578 0-1.078.25-1.625.828-.172-.562-.516-.828-1.047-.828-.437 0-.719.125-1.547.766v-.75l-.078-.016a12.06 12.06 0 0 1-1.391.438zm0 0" id="Y"/><path d="M.063-3.891c.141-.031.234-.031.359-.031.25 0 .328.156.328.594v2.484c0 .5-.062.578-.703.688V0h2.391v-.156c-.672-.016-.844-.172-.844-.734v-2.25c0-.312.438-.812.703-.812.063 0 .141.047.25.141.172.141.281.203.406.203.234 0 .391-.172.391-.453 0-.328-.219-.516-.547-.516-.422 0-.719.219-1.203.922v-.906l-.047-.016-1.484.531zm0 0" id="Z"/><path d="M2.5-4.578c-1.297 0-2.203.953-2.203 2.328 0 1.344.922 2.344 2.172 2.344 1.266 0 2.219-1.047 2.219-2.422 0-1.312-.922-2.25-2.187-2.25zm-.141.266c.844 0 1.422.969 1.422 2.328 0 1.125-.437 1.813-1.187 1.813-.391 0-.766-.25-.969-.641-.281-.516-.437-1.219-.437-1.922 0-.953.469-1.578 1.172-1.578zm0 0" id="a"/><path d="M4.75-4.484H3.375v.141c.313.031.469.141.469.328a1.01 1.01 0 0 1-.062.297l-.984 2.578-1.016-2.547c-.062-.141-.094-.281-.094-.375 0-.172.109-.25.453-.281v-.141H.188v.141c.375.031.453.125.906 1.156L2.297-.328c.016.063.047.125.078.203.063.188.125.266.172.266.063 0 .141-.125.281-.5l1.281-3.203c.281-.672.344-.75.641-.781zm0 0" id="b"/><path d="M.156-3.969C.219-4 .313-4 .422-4c.281 0 .375.141.375.625v2.484c0 .563-.109.703-.625.734V0h2.125v-.156c-.516-.031-.656-.156-.656-.516v-2.797c.469-.453.688-.562 1.016-.562.5 0 .734.297.734.953v2.094c0 .625-.125.797-.625.828V0h2.063v-.156c-.484-.047-.594-.156-.594-.656v-2.281c0-.937-.453-1.484-1.187-1.484-.453 0-.766.156-1.437.797v-.781l-.078-.016-1.375.438zm0 0" id="c"/><path d="M6.719-5.719v4.516c0 .828-.125.969-.906 1.016V0h2.797v-.187c-.734-.047-.875-.187-.875-.906v-4.422c0-.703.125-.828.875-.891v-.187H6.625L4.422-1.562 2.109-6.594H.141v.188c.813.047.953.172.953.891v4.047C1.094-.437.953-.25.125-.187V0h2.344v-.187c-.781-.047-.937-.266-.937-1.281v-4.016L4.031 0h.141zm0 0" id="d"/><path d="M4.406-.656c-.172.141-.297.188-.437.188-.234 0-.297-.141-.297-.578v-1.937c0-.531-.047-.812-.203-1.047-.219-.359-.641-.547-1.234-.547-.937 0-1.672.484-1.672 1.109a.42.42 0 0 0 .422.422c.234 0 .453-.187.453-.406 0-.047-.016-.094-.016-.172-.031-.078-.031-.156-.031-.234 0-.266.313-.484.719-.484.484 0 .75.281.75.828v.609c-1.531.609-1.703.688-2.125 1.078-.219.188-.359.531-.359.859A1.01 1.01 0 0 0 1.422.094c.438 0 .844-.203 1.453-.719.047.516.219.719.641.719.328 0 .547-.109.891-.5zm-1.547-.562c0 .297-.047.391-.25.516-.25.141-.531.219-.734.219-.344 0-.625-.328-.625-.766v-.031c0-.594.406-.953 1.609-1.391zm0 0" id="e"/><path d="M2.016-2.906a4.95 4.95 0 0 0 .688.031c.781 0 1.313-.094 1.75-.328.594-.328.953-.937.953-1.594 0-.422-.141-.797-.406-1.078-.406-.437-1.266-.719-2.203-.719H.156v.188c.734.078.844.172.844.891v4.313C1-.359.922-.266.156-.187V0h2.797v-.187c-.797-.031-.937-.172-.937-.906zm0-2.984c0-.266.063-.344.344-.344 1.344 0 1.953.469 1.953 1.5 0 .969-.578 1.469-1.734 1.469-.203 0-.328-.016-.562-.031zm0 0" id="f"/><path d="M.172-6.594v.188c.828.047.953.156.953.891v4.422c0 .75-.125.875-.953.906V0H3.5c.781 0 1.484-.203 1.859-.547.359-.328.547-.766.547-1.25 0-.437-.172-.828-.484-1.125-.297-.266-.562-.391-1.219-.547.516-.125.734-.234.969-.437.25-.219.406-.594.406-1 0-1.109-.891-1.687-2.625-1.687zM2.141-3.25c.969 0 1.422.047 1.781.203.578.234.844.641.844 1.266 0 .531-.203.922-.609 1.156-.312.172-.734.25-1.391.25-.484 0-.625-.078-.625-.406zm0-.406v-2.281c0-.203.078-.297.219-.297h.438c1.156 0 1.766.484 1.766 1.375 0 .766-.531 1.203-1.469 1.203zm0 0" id="g"/><path d="M7.063-3.531H4.531v.188c.422.031.547.047.656.141.156.078.219.313.219.734v1.625c0 .313-.609.578-1.328.578-1.625 0-2.625-1.125-2.625-2.984 0-.937.281-1.844.719-2.328.438-.5 1.063-.766 1.734-.766a2.06 2.06 0 0 1 1.438.547c.297.281.453.547.703 1.156h.234l-.078-2.094h-.219a.49.49 0 0 1-.453.328c-.094 0-.25-.031-.437-.109-.453-.141-.906-.219-1.359-.219-1.984 0-3.422 1.453-3.422 3.5 0 .969.281 1.719.828 2.313C1.813-.234 2.766.141 3.875.141c.844 0 2.094-.344 2.5-.703v-2.016c0-.594.109-.719.688-.766zm0 0" id="h"/><path d="M6.188-4.484l-.094-2.25h-.219c-.047.203-.219.328-.406.328-.094 0-.25-.031-.391-.094-.5-.156-.984-.234-1.453-.234-.828 0-1.656.297-2.266.859C.656-5.266.281-4.344.281-3.234c0 .922.297 1.781.813 2.344.594.656 1.516 1.031 2.5 1.031 1.125 0 2.109-.453 2.719-1.266l-.187-.187C5.391-.594 4.734-.297 3.906-.297c-.625 0-1.187-.203-1.609-.578-.547-.484-.859-1.391-.859-2.5 0-1.797.922-2.969 2.375-2.969.563 0 1.078.219 1.484.609.313.328.469.594.656 1.25zm0 0" id="i"/><path d="M4.781-.5h-.062c-.453 0-.562-.109-.562-.562v-3.422H2.578v.172c.625.031.734.125.734.625v2.344c0 .281-.047.422-.187.531-.266.219-.578.328-.875.328-.391 0-.703-.328-.703-.75v-3.25H.094v.141c.469.031.609.172.609.641v2.5c0 .797.484 1.297 1.203 1.297.375 0 .766-.156 1.031-.422l.438-.422v.813l.031.031c.5-.203.859-.312 1.375-.453zm0 0" id="j"/><path d="M.188-6.203H.25l.313-.031c.313 0 .422.141.422.609v4.75c0 .547-.141.672-.781.719V0h2.359v-.156c-.625-.031-.75-.141-.75-.687v-5.937l-.031-.031-1.594.438zm0 0" id="k"/><path d="M1.75-4.578l-1.547.547v.141h.078c.125-.031.25-.031.344-.031.234 0 .328.156.328.594v2.313c0 .719-.109.828-.797.859V0h2.359v-.156c-.656-.047-.734-.141-.734-.859v-3.547zm-.469-2.234c-.281 0-.5.234-.5.516s.219.5.5.5.516-.219.516-.5a.52.52 0 0 0-.516-.516zm0 0" id="l"/><path d="M3.141-3.125l-.047-1.359h-.109l-.016.016c-.094.078-.094.078-.141.078a.7.7 0 0 1-.266-.062 2.01 2.01 0 0 0-.703-.125c-.781 0-1.344.516-1.344 1.234 0 .547.313.953 1.156 1.438l.578.328c.359.188.516.438.516.734 0 .438-.312.719-.828.719-.328 0-.641-.125-.828-.344C.891-.719.813-.953.672-1.516H.516V.047h.125C.719-.062.75-.078.875-.078c.094 0 .234.016.453.078a3.75 3.75 0 0 0 .734.094c.766 0 1.406-.578 1.406-1.266 0-.5-.234-.828-.844-1.187L1.563-3c-.281-.156-.437-.406-.437-.672 0-.406.313-.687.766-.687.578 0 .875.344 1.094 1.234zm0 0" id="m"/><path d="M5.719-1.734c-.172.375-.312.609-.469.781-.344.391-.891.563-1.719.563h-.672C2.141-.391 2-.453 2-.797v-4.719c0-.703.141-.844.938-.891v-.187H.125v.188c.734.063.859.203.859.891v4.422c0 .703-.141.859-.859.906V0h5.359l.484-1.734zm0 0" id="n"/><path d="M4.688-3.875v-.375h-.766c-.203 0-.359-.031-.547-.109l-.219-.078c-.281-.094-.547-.141-.797-.141-.937 0-1.672.703-1.672 1.625 0 .625.266 1 .922 1.328l-.422.406c-.328.281-.453.484-.453.688s.109.328.516.516C.547.516.281.844.281 1.203c0 .531.781.969 1.719.969.75 0 1.531-.266 2.047-.672.375-.312.547-.625.547-1.016 0-.609-.469-1.031-1.203-1.062L2.109-.641c-.531-.016-.781-.109-.781-.266 0-.203.328-.547.594-.625.094 0 .156.016.188.016l.391.031c.359 0 .766-.156 1.063-.422.328-.281.484-.625.484-1.125 0-.281-.047-.516-.187-.844zM1.469.016c.328.078 1.125.141 1.609.141.906 0 1.234.125 1.234.484 0 .578-.75.969-1.875.969-.875 0-1.453-.297-1.453-.734 0-.234.063-.359.484-.859zm.047-3.391c0-.578.281-.937.734-.937.313 0 .578.172.734.469.172.359.297.813.297 1.203 0 .563-.297.906-.75.906-.594 0-1.016-.641-1.016-1.609zm0 0" id="o"/><path d="M6.563-.187c-.375-.031-.578-.125-.859-.469L3.656-3.187c.656-.125.953-.234 1.281-.516.328-.25.516-.672.516-1.141 0-.437-.125-.797-.391-1.094-.375-.406-1.203-.656-2.141-.656H.172v.188c.75.078.844.188.844.891v4.313c0 .828-.094.953-.844 1.016V0h2.766v-.187c-.781-.047-.906-.187-.906-.906v-1.953l.563-.031L4.969 0h1.594zM2.031-5.875c0-.281.109-.359.516-.359 1.234 0 1.813.438 1.813 1.375 0 .5-.203.906-.562 1.094-.453.266-.812.328-1.766.344zm0 0" id="p"/><path d="M3.563-2.906L4.609-.109c.156.219.25.219.531.219h.219c.094-.016.109-.062.109-.094s-.031-.062-.062-.094c-.094-.109-.156-.266-.219-.453L3.156-6.203c-.219-.578-.75-.719-1.219-.719-.047 0-.187 0-.187.109 0 .078.078.109.094.109.328.047.406.109.656.797l.953 2.703L.703-.469c-.109.125-.172.172-.172.313 0 .172.141.281.297.281s.25-.109.328-.203zm0 0" id="q"/><path d="M3.594-2.219c0-.766-.094-1.328-.406-1.812-.219-.312-.656-.594-1.203-.594C.359-4.625.359-2.719.359-2.219S.359.141 1.984.141c1.609 0 1.609-1.859 1.609-2.359zM1.984-.062c-.328 0-.75-.187-.891-.75C1-1.219 1-1.797 1-2.312s0-1.047.094-1.422a.91.91 0 0 1 .891-.703c.375 0 .734.234.859.641.109.375.125.875.125 1.484 0 .516 0 1.031-.094 1.469-.141.641-.609.781-.891.781zm0 0" id="r"/><path d="M1.078-3.891c.359.094.563.094.672.094.922 0 1.469-.625 1.469-.734 0-.078-.047-.094-.078-.094-.016 0-.031 0-.062.016-.172.063-.531.203-1.047.203-.203 0-.562-.016-1.016-.187-.078-.031-.094-.031-.094-.031-.094 0-.094.078-.094.188v2.047c0 .125 0 .203.109.203.063 0 .078 0 .141-.094.297-.375.734-.437.969-.437.422 0 .609.328.641.391.125.234.172.5.172.906 0 .203 0 .609-.219.922-.172.25-.469.422-.812.422-.453 0-.922-.25-1.094-.719.266.016.406-.156.406-.344 0-.297-.266-.344-.359-.344 0 0-.344 0-.344.375 0 .625.578 1.25 1.406 1.25.891 0 1.672-.656 1.672-1.547 0-.781-.594-1.5-1.453-1.5-.312 0-.672.063-.984.328zm0 0" id="s"/><path d="M5.188-1.578c.109 0 .281 0 .281-.156 0-.187-.172-.187-.281-.187H1.031c-.109 0-.281 0-.281.172s.156.172.281.172zm0 0" id="t"/><path d="M3.281-2.594l.938 2.453c.188.234.25.234.531.234h.203c.063 0 .109-.031.109-.094 0-.047-.016-.062-.062-.094-.109-.125-.141-.234-.203-.391L2.891-5.609c-.203-.547-.797-.609-1.125-.609-.078 0-.203 0-.203.109 0 .094.078.094.172.109.281.047.375.297.516.625l.922 2.484L.641-.453c-.078.094-.156.156-.156.297 0 .188.156.266.281.266.156 0 .266-.125.297-.156zm0 0" id="u"/><path d="M6.344-2.969c.125 0 .297 0 .297-.187 0-.203-.187-.203-.328-.203H.844c-.141 0-.328 0-.328.203 0 .188.172.188.297.188zm-.031 1.828c.141 0 .328 0 .328-.203 0-.187-.172-.187-.297-.187H.813c-.125 0-.297 0-.297.188 0 .203.188.203.328.203zm0 0" id="v"/><path d="M2.719-5.734c0-.219 0-.234-.219-.234-.562.563-1.391.563-1.672.563v.281c.172 0 .719 0 1.203-.234v4.641c0 .328-.016.438-.859.438H.891V0c.313-.031 1.125-.031 1.484-.031l1.5.031v-.281h-.281c-.844 0-.875-.109-.875-.437zm0 0" id="w"/><path d="M4.25-2.875c0-.594-.031-1.375-.344-2.047-.406-.844-1.078-1.047-1.594-1.047A1.68 1.68 0 0 0 .688-4.891C.406-4.281.359-3.547.359-2.875c0 .594.016 1.453.406 2.172.422.75 1.125.906 1.531.906A1.71 1.71 0 0 0 3.922-.875c.266-.609.328-1.281.328-2zM2.313-.031c-.281 0-.922-.125-1.094-1.141-.094-.516-.094-1.297-.094-1.812 0-.609 0-1.312.109-1.812.188-.797.75-.953 1.063-.953.344 0 .906.188 1.078 1.016.094.484.094 1.188.094 1.75s0 1.313-.094 1.844C3.188-.109 2.531-.031 2.313-.031zm0 0" id="x"/><path d="M4.766-1.344c.094 0 .25 0 .25-.156s-.156-.156-.25-.156H1c-.109 0-.25 0-.25.156s.141.156.25.156zm0 0" id="y"/><path d="M3.219-1.125H3c-.016.094-.078.484-.156.547-.047.047-.531.047-.625.047H1.109l.766-.625.922-.734c.172-.172.422-.484.422-.906 0-.75-.672-1.187-1.484-1.187-.766 0-1.297.516-1.297 1.078a.32.32 0 0 0 .313.344c.156 0 .328-.109.328-.328a.32.32 0 0 0-.344-.328c.141-.297.5-.531.922-.531.625 0 .953.469.953.953 0 .422-.281.859-.687 1.25L.5-.25C.438-.187.438-.187.438 0h2.594zm0 0" id="z"/><path d="M1.766-1.984c.5 0 .844.344.844.953 0 .656-.391.938-.828.938C1.609-.094 1-.125.734-.469c.234-.031.328-.187.328-.344 0-.203-.141-.344-.344-.344a.34.34 0 0 0-.344.359c0 .594.656.922 1.422.922.891 0 1.469-.562 1.469-1.156 0-.437-.328-.906-1.047-1.078.484-.156.859-.547.859-1.031s-.562-.844-1.281-.844c-.703 0-1.234.328-1.234.813 0 .266.203.328.328.328.156 0 .313-.094.313-.312 0-.187-.125-.297-.297-.312.281-.312.828-.312.891-.312.297 0 .688.141.688.641 0 .328-.187.906-.797.938l-.312.016c-.062.016-.125.016-.125.109s.063.094.156.094zm0 0" id="AA"/><path d="M3.375-.984v-.234h-.703v-2.641c0-.141 0-.187-.141-.187-.109 0-.125.031-.172.094L.281-1.219v.234h1.859V-.5c0 .188 0 .266-.5.266h-.187V0l.953-.031.938.031v-.234h-.172c-.5 0-.5-.078-.5-.266v-.484zM2.172-3.391v2.172H.531zm0 0" id="AB"/><path d="M1.016-3.328a2.04 2.04 0 0 0 .609.078c.141 0 .469 0 .844-.203.109-.062.469-.312.469-.437 0-.078-.047-.094-.078-.094-.016 0-.016 0-.094.031-.203.078-.516.172-.906.172-.297 0-.609-.062-.891-.156-.047-.031-.078-.047-.094-.047-.094 0-.094.078-.094.172v1.797c0 .094 0 .172.109.172.063 0 .078-.031.109-.078.156-.187.422-.391.891-.391.734 0 .734.891.734 1.078 0 .234-.016.578-.219.828a.95.95 0 0 1-.719.313c-.406 0-.828-.219-.969-.578.297 0 .328-.234.328-.297 0-.172-.125-.312-.312-.312-.047 0-.297.031-.297.328C.438-.406.953.125 1.703.125c.828 0 1.516-.578 1.516-1.328A1.3 1.3 0 0 0 1.891-2.5c-.375 0-.687.125-.875.281zm0 0" id="AC"/><path d="M.938-.984c0 .656-.109.766-.797.813V0h2.547c1.047 0 1.984-.297 2.547-.797.578-.531.906-1.328.906-2.203 0-.797-.266-1.5-.766-2-.609-.609-1.578-.937-2.812-.937H.141v.172c.719.063.797.141.797.813zm.906-4.266c0-.281.109-.359.469-.359.766 0 1.359.141 1.781.453.703.484 1.078 1.25 1.078 2.219 0 1.063-.375 1.813-1.094 2.234-.469.266-.984.375-1.766.375-.359 0-.469-.078-.469-.375zm0 0" id="AD"/><path d="M4.266-4.031H3.047v.125c.297 0 .438.078.438.234a.36.36 0 0 1-.047.141l-.859 2.484-1.031-2.266c-.062-.125-.094-.25-.094-.344 0-.172.141-.234.516-.25v-.125H.125v.125c.234.031.391.125.453.281l1.031 2.203.016.078.141.266c.25.453.391.766.391.906s-.203.703-.359.969c-.125.234-.312.406-.437.406-.062 0-.141-.016-.234-.062-.172-.062-.312-.094-.469-.094-.203 0-.391.172-.391.391 0 .297.297.516.672.516.594 0 1.031-.5 1.516-1.797L3.828-3.5c.125-.281.219-.375.438-.406zm0 0" id="AE"/><path d="M.141-3.562c.063-.031.141-.047.25-.047.25 0 .328.141.328.578v2.219c0 .516-.094.641-.562.672V0h1.906v-.141c-.453-.031-.594-.141-.594-.453v-2.531c.438-.406.625-.5.922-.5.438 0 .656.266.656.859v1.875c0 .563-.109.719-.562.75V0h1.859v-.141c-.437-.031-.547-.141-.547-.578v-2.062c0-.844-.391-1.344-1.047-1.344-.422 0-.703.156-1.312.719v-.703l-.062-.016-1.234.406zm0 0" id="AF"/><path d="M3.969-.594c-.156.125-.266.172-.406.172-.203 0-.266-.125-.266-.516v-1.75c0-.469-.047-.734-.172-.937-.203-.328-.594-.5-1.109-.5-.844 0-1.516.438-1.516 1a.41.41 0 0 0 .391.391c.219 0 .406-.187.406-.375 0-.031-.016-.078-.016-.141-.031-.094-.031-.156-.031-.219 0-.25.281-.437.641-.437.438 0 .688.25.688.734v.547c-1.391.563-1.531.641-1.922.969-.203.188-.328.484-.328.781a.92.92 0 0 0 .953.969c.391 0 .75-.187 1.297-.656.047.469.219.656.578.656.313 0 .5-.109.813-.453zm-1.391-.516c0 .281-.047.359-.234.469-.219.125-.469.203-.656.203-.312 0-.562-.297-.562-.687v-.031c0-.531.359-.859 1.453-1.25zm0 0" id="AG"/><path d="M.172-3.562a.96.96 0 0 1 .281-.047c.234 0 .313.141.313.578v2.266c0 .484-.125.625-.625.625V0h2v-.141c-.484-.016-.609-.109-.609-.453v-2.531c0-.016.063-.109.125-.172.234-.203.609-.359.922-.359.406 0 .594.313.594.938v1.953c0 .5-.094.594-.609.625V0h2.016v-.141c-.516 0-.656-.156-.656-.719v-2.25c.281-.391.578-.547.984-.547.516 0 .672.234.672.984v1.891c0 .516-.078.578-.594.641V0h1.969v-.141l-.234-.016c-.266-.016-.391-.172-.391-.531v-1.844c0-1.062-.344-1.594-1.031-1.594-.531 0-.984.234-1.469.75-.156-.516-.469-.75-.953-.75-.391 0-.641.125-1.391.688v-.672l-.062-.016-1.25.406zm0 0" id="AH"/><path d="M1.563-4.125l-1.391.5v.125H.25c.109-.031.219-.031.313-.031.203 0 .297.141.297.531v2.078c0 .656-.094.75-.719.781V0h2.125v-.141c-.594-.031-.656-.125-.656-.781v-3.172zm-.422-2a.45.45 0 0 0-.437.453c0 .25.188.469.438.469a.46.46 0 0 0 .469-.469c0-.25-.203-.453-.469-.453zm0 0" id="AI"/><path d="M3.563-1.406c-.422.641-.75.844-1.25.844-.828 0-1.391-.719-1.391-1.75 0-.922.484-1.547 1.219-1.547.313 0 .438.094.516.422l.063.203c.078.25.234.406.422.406.234 0 .422-.172.422-.375 0-.5-.625-.922-1.375-.922-.437 0-.891.172-1.266.5-.453.391-.703 1-.703 1.719 0 1.156.719 2 1.703 2a1.63 1.63 0 0 0 1.094-.422c.234-.219.406-.469.672-.984zm0 0" id="AJ"/><clipPath id="AK"><path d="M229.777 20.355H309v34.871h-79.223zm0 0" class="B"/></clipPath><clipPath id="AL"><path d="M229.777 20.355H309V55h-79.223zm0 0" class="B"/></clipPath><clipPath id="AM"><path d="M229.777 20.355H309V51h-79.223zm0 0" class="B"/></clipPath><clipPath id="AN"><path d="M229.777 20.355H309V48h-79.223zm0 0" class="B"/></clipPath><clipPath id="AO"><path d="M229.777 20.355H309V55h-79.223zm0 0" class="B"/></clipPath><clipPath id="AP"><path d="M37.008 28.328h40.844v26.227H37.008zm0 0" class="B"/></clipPath><clipPath id="AQ"><path d="M37.008 34H50v20.555H37.008zm0 0" class="B"/></clipPath><clipPath id="AR"><path d="M37.008 28.328H55v26.227H37.008zm0 0" class="B"/></clipPath><clipPath id="AS"><path d="M43 28.328h18v26.227H43zm0 0" class="B"/></clipPath><clipPath id="AT"><path d="M53 28.328h13v26.227H53zm0 0" class="B"/></clipPath><clipPath id="AU"><path d="M61 28.328h11v26.227H61zm0 0" class="B"/></clipPath><clipPath id="AV"><path d="M68 28.328h9v26.227h-9zm0 0" class="B"/></clipPath><clipPath id="AW"><path d="M74 28.328h3.852v26.227H74zm0 0" class="B"/></clipPath><clipPath id="AX"><path d="M91.301 28.328h40.844v26.227H91.301zm0 0" class="B"/></clipPath><clipPath id="AY"><path d="M91.301 38H99v16.555h-7.699zm0 0" class="B"/></clipPath><clipPath id="AZ"><path d="M91.301 28.328H109v26.227H91.301zm0 0" class="B"/></clipPath><clipPath id="Aa"><path d="M92 28.328h27v26.227H92zm0 0" class="B"/></clipPath><clipPath id="Ab"><path d="M102 28.328h27v26.227h-27zm0 0" class="B"/></clipPath><clipPath id="Ac"><path d="M112 28.328h20.145v26.227H112zm0 0" class="B"/></clipPath><clipPath id="Ad"><path d="M122 28.328h10.145V39H122zm0 0" class="B"/></clipPath><clipPath id="Ae"><path d="M145.598 28.328h40.844v26.227h-40.844zm0 0" class="B"/></clipPath><clipPath id="Af"><path d="M145.598 50H164v4.555h-18.402zm0 0" class="B"/></clipPath><clipPath id="Ag"><path d="M145.598 45H185v9.555h-39.402zm0 0" class="B"/></clipPath><clipPath id="Ah"><path d="M145.598 40h40.844v14.555h-40.844zm0 0" class="B"/></clipPath><clipPath id="Ai"><path d="M145.598 35h40.844v16h-40.844zm0 0" class="B"/></clipPath><clipPath id="Aj"><path d="M145.598 31h40.844v15h-40.844zm0 0" class="B"/></clipPath><clipPath id="Ak"><path d="M145.598 28.328h40.844V41h-40.844zm0 0" class="B"/></clipPath><clipPath id="Al"><path d="M152 28.328h34.441V36H152zm0 0" class="B"/></clipPath><clipPath id="Am"><path d="M173 28.328h13.441V32H173zm0 0" class="B"/></clipPath><clipPath id="An"><path d="M229.777 20.355h79.703v34.871h-79.703zm0 0" class="B"/></clipPath><clipPath id="Ao"><path d="M229.777 20.355h79.703V54h-79.703zm0 0" class="B"/></clipPath><clipPath id="Ap"><path d="M229.777 20.355h79.703v34.871h-79.703zm0 0" class="B"/></clipPath><clipPath id="Aq"><path d="M229.777 20.355h79.703V52h-79.703zm0 0" class="B"/></clipPath><clipPath id="Ar"><path d="M229.777 20.355h79.703v34.871h-79.703zm0 0" class="B"/></clipPath><clipPath id="As"><path d="M229.777 20.355h79.703V53h-79.703zm0 0" class="B"/></clipPath><clipPath id="At"><path d="M229.777 20.355h79.703V48h-79.703zm0 0" class="B"/></clipPath><clipPath id="Au"><path d="M229.777 20.355h79.703v34.871h-79.703zm0 0" class="B"/></clipPath><clipPath id="Av"><path d="M229.777 20.355h79.703V54h-79.703zm0 0" class="B"/></clipPath><path id="Aw" d="M37.008 65.457v-4.25m20.422 4.25v-4.25m20.422 4.25v-4.25"/><path id="Ax" d="M98.109 64.039v-2.832m6.809 2.832v-2.832m13.613 2.832v-2.832m6.809 2.832v-2.832"/><path id="Ay" d="M326.715 20.91h17.008"/></defs><g class="D K C H"><g class="I L"><path d="M239.742 55.227V20.355m19.926 34.871V20.355m19.922 34.871V20.355m19.926 34.871V20.355m-69.739 34.872V20.355m19.926 34.871V20.355m19.926 34.871V20.355m19.926 34.871V20.355m19.926 34.871V20.355"/><path d="M229.777 55.227h79.703m-79.703-15.016h79.703m-79.703-8.785h79.703m-79.703-6.234h79.703m-79.703-4.836h79.703"/><path d="M229.777 55.227h79.703m-79.703-34.871h79.703"/></g><path d="M239.742 64.035v-2.832m19.926 2.832v-2.832m19.922 2.832v-2.832m19.926 2.832v-2.832m-69.739 4.246v-4.246m19.926 4.246v-4.246m19.926 4.246v-4.246m19.926 4.246v-4.246m19.926 4.246v-4.246m-88.516-5.976h2.836m-2.836-15.016h2.836m-2.836-8.785h2.836m-2.836-6.234h2.836m-2.836-4.836h2.836m-4.25 34.871h4.25m-4.25-34.871h4.25"/><path d="M229.777 61.203h79.703m-85.679-5.976V20.355" class="I"/></g><g clip-path="url(#AK)" class="J"><path fill="rgb(26.699829%, 0.486755%, 32.940674%)" d="M229.777 24.547l.797.863.797.75.797 1.355.797 1.078.801 1.059.797.816.797.949.797.371.797.441.797.82.797.578.797.375.797.668.797 1.605.797 1.742.797.59.797.371.797.719.797.633.797.313.797.691.797.348.797.594.797.875.797 1 .797.5.797.605.797.852.797.676.797.164.797.508.797.352.797.254.801.063.797.383.797.652.797.66.797.07h.797l.797.52.797.625.797.152h.797l.797.152.797.73.797.328.797.199.797.41h.797l.797.02h.797l.797.344h.797l.797.133.797.539h.797l.797.012.797.008h1.594l.797.043h.797l.801.375.797.25.797.008.797.871.797.707h.797l.797.027h.797l.797.242h.797l.797.293h.797l.797.047h3.188l.797.121.797.023.797.258.797.355h.797l.797.145h1.594l.797.102h1.594l.797.516.801.582h.797l.797.18h.797l.797.172.797.758.797.199.797.211V46.133h-.797l-.797-.359-.797-.141h-1.594l-.797-.152-.797-.055-.801-.059-.797-.293-.797-.066-.797-.402-.797-.078h-.797l-.797-.008-.797-.02-.797-.051h-.797l-.797-.074h-.797l-.797-.609-.797-.105-.797-.605-.797-.07-.797-.168h-.797l-.797-.023-.797-.031-.797-.098-.797-.246-.797-.094-.797-.004-.797-.234-.797-.051h-.797l-.797-.145-.797-.59-.801-.23-.797-.203-.797-.137-.797-.062-.797-.07-.797-.059-.797-.078-.797-.16h-.797l-.797-.703-.797-.125-.797-.273h-.797l-.797-.152-.797-.195-.797-.301-.797-.133h-.797l-.797-.371-.797-.426-.797-.242-.797-.297-.797-.082-.797-.348-.797-.281-.797-.07-.797-.41-.797-.137-.797-.305-.801-.086-.797-.297-.797-.426-.797-.238-.797-.039-.797-.441-.797-.141-.797-.098-.797-.352-.797-.758-.797-.625-.797-.18-.797-.367-.797-.383-.797-.301-.797-.574-.797-.586-.797-.453-.797-.473-.797-.52-.797-.949-.797-.273-.797-.289-.797-.441-.797-.562-.797-.508-.797-.539-.797-.559-.797-.512-.801-.5-.797-.719-.797-.492-.797-.598-.797-.359zm0 0"/></g><g clip-path="url(#AL)" class="J"><path fill="rgb(23.165894%, 31.809998%, 54.481506%)" d="M229.777 24.547l.797 1.098.797.867.797 1.598.797.875.801.582.797 1.238.797.941.797 1.102.797.848.797 1.063.797.777.797.84.797 1.77.797.266.797.324.797 1.707.797.098.797.508.797.168.797.828.797.43.797.59.797.438.797.27.797 1.563.797.633.797.332.797.156.797.691.797.184.797.141.797.387.797.168.801.371.797.211.797.574h.797l.797.574.797.336.797.121.797.27.797.262.797.012.797.137.797.16.797.609.797.004h.797l.797.004.797.02.797.063.797.109.797.004.797.023.797.07h.797l.797.004.797.059h1.594l.797.238.797 1.379h.801l.797.063h2.391l.797.016h1.594l.797.027h1.594l.797.004h3.188l.797.078h.797l.797.066h.797l.797.109.797.027h7.973l.797.078h3.188V42.719h-2.391l-.797-.016-.797-.078h-.797l-.797-.176h-3.191l-.797-.082h-3.984l-.797-.102h-.797l-.797-.016-.797-.047h-.797l-.797-.074-.797-.004h-1.594l-.797-.039h-1.594l-.797-.098h-.797l-.797-.176-.797-.141h-.797l-.797-.039-.797-.062h-1.598l-.797-.004h-.797l-.797-.359h-.797l-.797-.289-.797-.012-.797-.109-.797-.27-.797-.043h-.797l-.797-.07-.797-.445-.797-.074-.797-.168-.797-.082-.797-.074-.797-.141h-.797l-.797-.191-.797-.215-.797-.09-.797-.414-.797-.246-.797-.219h-.797l-.797-.523-.797-.309-.801-.398-.797-.59-.797-.195-.797-.281-.797-.277-.797-.734-.797-.645L250.5 34l-.797-.23-.797-.551-.797-.426-.797-.418-.797-.293-.797-.797-.797-.344-.797-.285-.797-.082-.797-.793-.797-.363-.797-.477-.797-.613-.797-1.105-.797-.531-.797-.469-.797-.32-.797-.754-.797-.332-.797-.648-.797-.461-.801-.82-.797-.434-.797-.699-.797-.449-.797-.492zm0 0"/></g><g clip-path="url(#AM)" class="J"><path fill="rgb(12.870789%, 56.324768%, 55.12085%)" d="M229.777 24.547l.797 1.25.797.887.797 1.512.797.707.801 1.547.797.496.797 1.824.797 1.363.797.582.797 1.859.797 1.473.797.672.797.473.797.773.797 1 .797.879.797.824.797.734.797.762.797.262.797.379.797.559.797.16.797.281.797.215.797.73.797.266.797.262.797.125.797.227.797.059.797.211.797.172.801.176.797.004.797.313.797.148.797.109.797.164.797.121.797.02.797.102.797.227.797.094h1.594l.797.164h3.984l.797.215h1.594l.797.023h1.594l.797.023.797.016h2.395l.797.059.797.043h12.75l.797.133h.797l.797.172h11.957v-9.992h-4.781l-.797-.227h-4.785l-.797-.176h-2.391l-.797-.031h-3.187l-.797-.039h-2.391l-.797-.09h-2.391l-.797-.168h-2.391l-.797-.082h-3.988l-.797-.105-.797-.031h-.797l-.797-.078h-.797l-.797-.004-.797-.012h-.797l-.797-.055h-.797l-.797-.004h-.797l-.797-.012-.797-.141-.797-.137-.797-.004-.797-.133h-.797l-.797-.031-.797-.25-1.594-.008-.797-.016-.797-.145-.797-.238-.801-.07-.797-.055-.797-.137-.797-.262h-.797l-.797-.457-.797-.277-.797-.418-.797-.094-.797-.367-.797-.613-.797-.531-.797-.32-.797-.203-.797-.496-.797-.488-.797-1.02-.797-.379-.797-.246-.797-.777-.797-.816-.797-.906-.797-.723-.797-.82-.797-.488-.797-.922-.797-.641-.797-.461-.797-1.074-.801-.793-.797-.734-.797-.816-.797-.465-.797-.504zm0 0"/></g><g clip-path="url(#AN)" class="J"><path fill="rgb(36.073303%, 78.594971%, 38.780212%)" d="M229.777 24.547l.797 1.23.797 1.402.797 1.59.797 1.68.801 1.441.797 1.551.797.922.797 1.57.797 1.008.797 1.156.797 1.164.797.738.797.438.797.973.797 1.137.797.516.797.461.797.516.797.105.797.52.797.332h.797l.797.262.797.086h.797l.797.242.797.207.797.309h.797l.797.203.797.051.797.02.797.051h1.598l.797.191h1.594l.797.117h.797l.797.086h2.391l.797.191h3.188l.797.082h4.781l.797.035h1.594l.797.012h5.582l.797.004h24.707V36.57h-19.129l-.797-.016h-7.172l-.797-.023h-7.176l-.797-.066h-2.391l-.797-.164h-3.187l-.797-.219-.797-.172h-1.594l-.797-.02h-2.391l-.797-.035h-.797l-.797-.148h-.797l-.801-.129-.797-.062h-.797l-.797-.102h-.797l-.797-.039h-.797l-.797-.023-.797-.043-.797-.082-.797-.266-.797-.023-.797-.18-.797-.09-.797-.187-.797-.266-.797-.078-.797-.781-.797-.828-.797-.367-.797-.535-.797-.848-.797-.766-.797-.672-.797-.836-.797-1.062-.797-.969-.797-.66-.797-1.055-.801-.891-.797-.535-.797-1.227-.797-.727-.797-.566zm0 0"/></g><g clip-path="url(#AO)" class="E J"><path d="M229.777 24.547l.797 1.699.797 1.59.797 2.117.797 1.293.801 1.852.797.684.797 1.223.797.602.797.926.797 1.008.797.879.797.281.797.602.797.473.797.406.797.832.797.613.797.398.797.191.797.363.797.172.797.191.797.488.797.254.797.973.797.48.797.055.797.082.797.172.797.449h.797l.797.367.797.035.801.281.797.766h.797l.797.008h.797l.797.164.797.344.797.035.797.063h.797l.797.051.797.023.797.059.797.43.797.176.797.055.797.008 1.594.203h.797l.797.18.797.051h.797l.797.59 1.594.094.797.117.797.047.797.145.801.078h3.188l.797.102h.797l.797.18.797.336h.797l.797.09.797.078.797.09h.797l.797.367.797.324h.797l.797.449h1.594l.797.555.797.445h.797l.797.059.797.176.797.352.797.027.797.07h.797l.801.031h.797l.797.199h.797l.797.262h.797l.797.016h.797V42.117l-.797-.27h-.797l-.797-.07-.797-.016-.797-.047-.797-.012h-.797l-.801-.023-.797-.059-.797-.082h-.797l-.797-.004-.797-.023-.797-.082-.797-.191-.797-.078-.797-.043-.797-.203-.797-.062-.797-.129h-2.391l-.797-.031h-.797l-.797-.035-.797-.039-.797-.109-.797-.004-.797-.023-.797-.07h-.797l-.797-.133h-.797l-.797-.055-.797-.18h-.801l-.797-.043h-.797l-.797-.031-.797-.039-.797-.09h-1.594l-.797-.18h-.797l-.797-.434-.797-.191-.797-.047-.797-.211-.797-.094-.797-.117-.797-.18-.797-.074-.797-.07-.797-.152-.797-.051-.797-.082-.797-.121-.797-.191-.797-.07-.797-.172-.797-.184-.797-.152-.797-.27-.801-.117-.797-.184-.797-.309-.797-.074-.797-.281-.797-.148-.797-.187-.797-.047-.797-.266-.797-.293-.797-.277-.797-.133-.797-.43-.797-.34-.797-.434-.797-.305-.797-.273-.797-.281-.797-.312-.797-.375-.797-.48-.797-.504-.797-.324-.797-.785-.797-.52-.797-.801-.797-.531-.797-.898-.797-.875-.801-.859-.797-1.398-.797-1-.797-1.246-.797-.695zm0 0"/></g><g class="C D H K"><path d="M43.813 64.039v-2.832m6.809 2.832v-2.832m13.617 2.832v-2.832m6.805 2.832v-2.832"/><use href="#Aw"/><path d="M28.195 48.504h2.832m-2.832-13.453h2.832m-4.25 20.176h4.25m-4.25-13.449h4.25m-4.25-13.449h4.25"/><path d="M37.008 61.207h40.844m-46.825-5.98V28.328" class="I"/></g><g class="E"><use href="#A" x="30.642" y="75.713"/><use href="#C" x="38.39" y="75.713"/><use href="#D" x="54.938" y="75.713"/><use href="#C" x="75.361" y="75.713"/><use href="#D" x="17.961" y="58.438"/><use href="#E" x="17.961" y="44.987"/><use href="#F" x="17.961" y="31.536"/></g><g clip-path="url(#AP)" class="M"><path d="M37.008 54.555h40.844V28.328H37.008zm0 0"/></g><g clip-path="url(#AQ)"><path fill="rgb(28.289795%, 10.539246%, 42.689514%)" d="M37.418 54.555h11.844v-1.059l-.008-.531-.008-.266-.016-.262-.023-.266-.027-.266-.035-.266-.043-.266-.051-.266-.055-.262-.023-.098-.043-.168-.074-.266-.078-.266-.086-.266-.09-.262-.043-.113-.059-.152-.105-.266-.109-.266-.113-.266-.027-.055-.094-.211-.129-.262-.129-.266-.059-.117-.078-.148-.141-.266-.145-.266-.051-.086-.102-.176-.152-.266-.156-.266h-.004l-.328-.531-.082-.129-.09-.137-.172-.262-.152-.227-.023-.039-.367-.531-.02-.031-.168-.234-.191-.262-.055-.078-.141-.187-.195-.266-.074-.102-.125-.164-.203-.266-.086-.109-.121-.156-.211-.262L44.02 42l-.129-.16-.215-.266-.066-.086-.148-.18-.219-.266-.047-.055-.176-.207-.227-.266-.012-.016-.215-.25-.195-.227-.031-.039-.234-.266-.148-.168-.086-.098-.234-.262-.09-.102-.148-.164-.242-.266-.023-.027-.219-.238-.195-.211-.051-.055-.246-.262-.113-.125-.137-.141-.25-.266-.027-.031-.227-.234-.187-.195-.066-.07-.258-.266-.086-.09-.172-.172-.242-.246-.016-.02-.266-.266-.129-.133-.398-.398-.016-.012-.254-.25-.16-.16-.109-.105-.27-.266-.031-.031v20.164zm0 0"/></g><g clip-path="url(#AR)"><path fill="rgb(24.862671%, 27.876282%, 53.45459%)" d="M49.383 54.555h5.324v-2.648l-.004-.266v-.266l-.004-.266-.004-.262-.004-.266-.035-.797-.02-.262-.02-.266-.023-.266-.027-.266-.031-.266-.039-.266-.035-.262-.043-.266-.047-.266-.035-.184-.016-.082-.055-.266-.059-.262-.125-.531-.141-.531-.02-.062-.059-.203-.078-.262-.082-.266-.086-.266-.09-.266-.016-.055-.074-.211-.098-.262-.098-.266-.102-.266-.043-.117-.059-.148-.219-.531-.113-.262-.023-.055-.09-.211-.242-.531-.078-.172-.043-.094-.129-.262-.129-.266-.113-.234-.016-.031-.137-.266-.133-.266-.129-.242-.012-.023-.141-.262-.145-.266-.113-.211-.031-.055-.297-.531-.086-.148-.066-.113-.152-.266-.156-.266-.035-.062-.125-.203-.16-.266-.129-.211-.031-.055-.168-.262-.164-.266-.051-.078-.117-.187-.172-.266-.121-.191-.051-.074-.172-.262-.176-.266-.016-.023-.164-.242-.176-.266-.074-.105-.109-.16-.18-.262-.121-.176-.066-.09-.184-.266-.164-.23-.023-.035-.191-.266-.187-.266-.008-.008-.187-.254-.191-.266-.199-.266-.195-.266-.055-.07-.145-.195-.199-.262-.066-.09-.137-.176-.203-.266-.074-.098-.129-.168-.207-.266-.074-.098-.133-.168-.207-.262-.074-.094-.137-.172-.211-.266-.066-.082-.148-.184h-6.863v6.063l.031.031.27.266.109.105.16.16.254.25.016.012.398.398.129.133.266.266.016.02.242.246.172.172.086.09.258.266.066.07.188.195.227.234.027.031.25.266.137.141.113.125.246.262.051.055.195.211.219.238.023.027.242.266.148.164.09.102.234.262.086.098.148.168.234.266.031.039.195.227.215.25.012.016.227.266.176.207.047.055.219.266.148.18.066.086.215.266.129.16.082.105.211.262.121.156.086.109.203.266.125.164.074.102.195.266.141.188.055.078.191.262.168.234.02.031.367.531.023.039.152.227.172.262.09.137.082.129.328.531h.004l.156.266.152.266.102.176.051.086.145.266.141.266.078.148.059.117.129.266.129.262.094.211.027.055.113.266.109.266.105.266.059.152.043.113.09.262.086.266.078.266.074.266.043.168.023.098.055.262.051.266.043.266.035.266.027.266.023.266.016.262.008.266.008.531v1.059zm0 0"/></g><g clip-path="url(#AS)"><path fill="rgb(18.061829%, 42.996216%, 55.728149%)" d="M54.746 54.555h5.406v-4.504l-.004-.266v-.262l-.004-.266v-.266l-.008-.266-.004-.266-.008-.266-.008-.262-.008-.152-.004-.113-.023-.531-.02-.266-.016-.262-.07-.797-.027-.266-.031-.266-.031-.262-.035-.266-.078-.531-.043-.266-.031-.18-.016-.082-.047-.266-.102-.531-.059-.266-.055-.266-.062-.262-.062-.266-.012-.051-.051-.215-.141-.531-.07-.262-.074-.266-.074-.262-.004-.004-.078-.266-.164-.531-.086-.262-.082-.25-.004-.016-.09-.266-.187-.531-.098-.262-.035-.098-.062-.168-.305-.797-.043-.105-.066-.16-.105-.262-.109-.266-.113-.266-.02-.043-.094-.223-.117-.266-.117-.262-.082-.191-.035-.074-.121-.266-.25-.531-.008-.02-.117-.242-.258-.531-.039-.078-.09-.187-.133-.266-.137-.266-.051-.102-.086-.16-.137-.266-.141-.266-.051-.098-.09-.168-.141-.266-.145-.262-.039-.07-.105-.195-.297-.531-.008-.016-.141-.25-.152-.266-.121-.211-.031-.051-.152-.266-.156-.266-.07-.121-.086-.145h-9.555l.148.184.066.082.211.266.137.172.074.094.207.262.133.168.074.098.207.266.129.168.074.098.203.266.137.176.066.09.199.262.145.195.055.07.195.266.199.266.191.266.188.254.008.008.188.266.191.266.023.035.164.23.184.266.066.09.121.176.18.262.109.16.074.105.176.266.164.242.016.023.176.266.172.262.051.074.121.191.172.266.117.188.051.078.164.266.168.262.031.055.129.211.16.266.125.203.035.063.156.266.152.266.066.113.086.148.297.531.031.055.113.211.145.266.141.262.012.023.129.242.133.266.137.266.016.031.113.234.129.266.129.262.043.094.078.172.242.531.09.211.023.055.113.262.219.531.059.148.043.117.102.266.098.266.098.262.074.211.016.055.09.266.086.266.082.266.078.262.059.203.02.063.141.531.125.531.059.262.055.266.016.082.035.184.047.266.043.266.035.262.039.266.031.266.027.266.023.266.02.266.02.262.035.797.004.266.004.262.004.266v.266l.004.266v2.648zm0 0"/></g><g clip-path="url(#AT)"><path fill="rgb(12.756348%, 56.694031%, 55.055237%)" d="M60.523 54.555h5.074v-6.359l-.004-.262v-.266l-.004-.266v-.266l-.004-.266-.004-.262-.008-.266-.004-.266-.016-.531-.012-.266-.012-.262-.012-.266-.031-.531-.012-.223-.004-.043-.02-.262-.02-.266-.047-.531-.055-.531-.031-.262-.062-.531-.035-.266-.039-.266-.039-.262-.039-.266-.023-.145-.02-.121-.047-.266-.043-.266-.051-.266-.051-.262-.051-.266-.109-.531-.043-.187-.016-.078-.059-.262-.125-.531-.199-.797-.012-.043-.059-.219-.223-.797-.078-.266-.055-.184-.023-.078-.246-.797-.086-.266-.059-.172-.027-.09-.18-.531-.187-.531L63 32.52l-.078-.219-.098-.262-.195-.531-.043-.105-.059-.16-.105-.266-.102-.262-.105-.266-.039-.098-.07-.168-.328-.797-.016-.031-.098-.23-.117-.266-.113-.266-.086-.191-.031-.074h-7.891l.086.145.07.121.156.266.152.266.031.051.121.211.152.266.141.25.008.016.297.531.105.195.039.07.145.262.141.266.09.168.051.098.141.266.137.266.086.16.051.102.137.266.133.266.09.188.039.078.258.531.117.242.008.02.25.531.121.266.035.074.082.191.117.262.117.266.094.223.02.043.113.266.109.266.105.262.066.16.043.105.305.797.063.168.035.098.098.262.188.531.09.266.004.016.082.25.086.262.164.531.078.266.004.004.074.262.074.266.07.262.141.531.051.215.012.051.063.266.063.262.055.266.059.266.102.531.047.266.016.082.031.18.043.266.078.531.035.266.031.262.031.266.027.266.07.797.016.262.02.266.023.531.004.113.008.152.008.262.008.266.004.266.008.266v.266l.004.266v.262l.004.266v4.504zm0 0"/></g><g clip-path="url(#AU)"><path fill="rgb(17.570496%, 69.789124%, 49.102783%)" d="M65.887 54.555h5.156v-8.211l-.004-.266v-.266l-.004-.266v-.266l-.004-.262-.012-.797-.008-.266-.008-.262-.023-.797-.023-.531-.012-.262-.047-.797-.02-.266-.02-.262-.02-.266V40.5l-.023-.25-.047-.531-.027-.266-.027-.262-.027-.266-.031-.266-.035-.266-.031-.266-.035-.262-.039-.266-.035-.266-.039-.266-.016-.09-.027-.176-.043-.266-.043-.262-.094-.531-.051-.266-.047-.266-.055-.262-.051-.266-.004-.008-.051-.258-.059-.266-.055-.266-.062-.262-.059-.266-.125-.531-.133-.531-.066-.262-.211-.797-.004-.004-.07-.262-.074-.262-.234-.797-.031-.109-.051-.156-.078-.266-.086-.262-.082-.266-.086-.266-.031-.094-.055-.172h-6.992l.031.074.086.191.113.266.117.266.098.23.016.031.328.797.07.168.039.098.105.266.102.262.105.266.059.16.043.105.195.531.098.262.078.219.016.047.188.531.18.531.027.09.059.172.086.266.246.797.023.078.055.184.078.266.223.797.059.219.012.043.199.797.125.531.059.262.016.078.043.188.109.531.051.266.051.262.051.266.043.266.047.266.02.121.023.145.039.266.039.262.039.266.035.266.063.531.031.262.055.531.047.531.02.266.02.262.004.043.012.223.031.531.012.266.012.262.012.266.016.531.004.266.008.266.004.262.004.266v.266l.004.266v.266l.004.262v6.359zm0 0"/></g><g clip-path="url(#AV)"><path fill="rgb(44.935608%, 81.376648%, 33.537292%)" d="M71.25 54.555h5.242v-8.477l-.004-.266v-1.324l-.004-.266v-.266l-.004-.262v-.266l-.016-1.062-.004-.262-.008-.266-.004-.266-.016-.531-.008-.262-.012-.266-.008-.266-.023-.531-.016-.266-.012-.262-.031-.531-.02-.266-.016-.266-.02-.262-.023-.266-.02-.266-.023-.266v-.004l-.023-.262-.027-.266-.027-.262-.055-.531-.062-.531-.031-.262-.105-.797-.039-.266-.039-.262-.004-.027-.035-.238-.129-.797-.047-.266-.047-.262-.094-.531-.051-.266-.012-.047-.039-.219-.055-.262-.164-.797-.117-.531-.035-.156-.023-.105-.125-.531-.066-.266h-6.441l.055.172.031.094.086.266.082.266.086.262.078.266.051.156.031.109.234.797.074.262.07.262.004.004.211.797.066.262.133.531.125.531.059.266.063.262.055.266.059.266.051.258.004.008.051.266.055.262.047.266.051.266.094.531.043.262.043.266.027.176.016.09.039.266.035.266.039.266.035.262.031.266.035.266.031.266.027.266.027.262.027.266.047.531.023.25v.016l.02.266.02.262.02.266.047.797.012.262.023.531.023.797.008.262.008.266.012.797.004.262v.266l.004.266v.266l.004.266v8.211zm0 0"/></g><g clip-path="url(#AW)"><path fill="rgb(81.45752%, 88.339233%, 11.03363%)" d="M76.613 54.555h1.238V28.328H74.75l.066.266.125.531.023.105.035.156.117.531.164.797.055.262.039.219.012.047.051.266.094.531.047.262.047.266.129.797.035.238.004.027.039.262.039.266.105.797.031.262.063.531.055.531.027.262.027.266.023.262v.004l.023.266.02.266.023.266.02.262.016.266.02.266.031.531.012.262.016.266.023.531.008.266.012.266.008.262.016.531.004.266.008.266.004.262.016 1.063v.266l.004.262v.266l.004.266v1.324l.004.266v8.477zm0 0"/></g><g class="E"><use href="#J" x="10.39" y="60.308"/><use href="#K" x="10.39" y="54.768"/><use href="#L" x="10.39" y="51.999"/><use href="#M" x="10.39" y="47.017"/><use href="#N" x="10.39" y="41.448"/><use href="#O" x="10.39" y="34.255"/><use href="#P" x="10.39" y="30.071"/><use href="#M" x="10.39" y="25.727"/><use href="#Q" x="38.893" y="10.393"/><use href="#R" x="44.981" y="10.393"/><use href="#S" x="49.962" y="10.393"/><use href="#T" x="54.943" y="10.393"/><use href="#U" x="59.367" y="10.393"/><use href="#V" x="63.79" y="10.393"/><use href="#T" x="66.56" y="10.393"/><use href="#W" x="70.983" y="10.393"/><use href="#X" x="30.739" y="22.349"/><use href="#Y" x="34.057" y="22.349"/><use href="#S" x="41.807" y="22.349"/><use href="#Z" x="46.789" y="22.349"/><use href="#a" x="50.106" y="22.349"/><use href="#b" x="54.948" y="22.349"/><use href="#T" x="59.78" y="22.349"/><use href="#Y" x="64.203" y="22.349"/><use href="#T" x="71.954" y="22.349"/><use href="#c" x="76.378" y="22.349"/><use href="#V" x="81.359" y="22.349"/></g><g class="C D H K"><use href="#Ax"/><use href="#Aw" x="54.293"/><path d="M91.301 61.207h40.844" class="I"/></g><g class="E"><use href="#A" x="84.936" y="75.713"/><use href="#C" x="92.685" y="75.713"/><use href="#D" x="109.233" y="75.713"/><use href="#C" x="129.655" y="75.713"/></g><g clip-path="url(#AX)" class="M"><path d="M91.301 54.555h40.848V28.328H91.301zm0 0"/></g><g clip-path="url(#AY)"><path fill="rgb(28.321838%, 12.077332%, 44.058228%)" d="M91.715 54.555h6.395v-1.59l-.004-.266-.004-.262-.008-.266-.012-.266-.039-.531-.027-.262-.035-.266-.039-.266-.039-.223-.008-.043-.051-.266-.059-.266-.062-.262-.07-.266-.074-.266-.082-.266-.008-.02-.078-.246-.09-.262-.195-.531-.047-.117-.059-.148-.227-.531-.117-.262-.012-.02-.113-.246-.258-.531-.039-.078-.098-.187-.137-.262-.145-.266-.035-.066-.109-.199-.152-.266-.152-.262v-.004l-.156-.266-.16-.262-.094-.156-.07-.109-.164-.266-.172-.266-.008-.012-.164-.254-.176-.262-.074-.109-.102-.156-.184-.266-.125-.184-.059-.082-.184-.266-.172-.238-.02-.027-.191-.262-.191-.266-.008-.012-.191-.254-.398-.531-.203-.262-.035-.043-.172-.223-.211-.266-.027-.039-.18-.227-.215-.266-.02-.023v16.184zm0 0"/></g><g clip-path="url(#AZ)"><path fill="rgb(22.973633%, 32.235718%, 54.570007%)" d="M98.316 54.555h10.004v-1.59l-.004-.266-.004-.262-.008-.266-.012-.266-.016-.266-.023-.266-.027-.262-.008-.07-.027-.195-.039-.266-.047-.266-.051-.266-.059-.266-.062-.262-.07-.266-.059-.207-.016-.059-.082-.266-.086-.266-.09-.262-.094-.266-.047-.117-.055-.148-.105-.266-.109-.266-.117-.266-.023-.055-.094-.207-.25-.531-.07-.137-.062-.129-.137-.266-.137-.262-.078-.141-.066-.125-.145-.266-.152-.266-.047-.082-.105-.184-.156-.266-.152-.25-.008-.012-.328-.531-.074-.117-.098-.148-.172-.266-.145-.219-.031-.043-.176-.266-.18-.266-.027-.035-.16-.23-.184-.266-.066-.094-.125-.172-.191-.262-.098-.137-.094-.129-.199-.266-.117-.16-.082-.105-.199-.266-.133-.172-.07-.09-.207-.266-.137-.172-.07-.094-.211-.266-.129-.16-.086-.105-.215-.266-.113-.137-.102-.125-.219-.266-.094-.109-.129-.156-.223-.266-.059-.07-.168-.195-.227-.262-.02-.023-.207-.242-.203-.234-.027-.031-.234-.266-.152-.172-.082-.094-.234-.266-.098-.105-.141-.156-.242-.266-.027-.031-.215-.234-.199-.219-.043-.047-.246-.266-.125-.133-.121-.129-.246-.266-.043-.047-.414-.437-.043-.047-.254-.266-.113-.117-.141-.148-.258-.262-.016-.016-.242-.25-.172-.176-.086-.09-.262-.266-.062-.066-.992-.992-.246-.242-.023-.023-.27-.266-.121-.117-.148-.148-.262-.258-.008-.004-.273-.266-.133-.129-.141-.137-.273-.262-.004-.004h-.82v10.043l.02.023.215.266.18.227.027.039.211.266.172.223.035.043.203.262.398.531.191.254.008.012.191.266.191.262.02.027.172.238.184.266.059.082.125.184.184.266.102.156.074.109.176.262.164.254.008.012.172.266.164.266.07.109.094.156.16.262.156.266v.004l.152.262.152.266.109.199.035.066.145.266.137.262.098.188.039.078.258.531.113.246.012.02.117.262.227.531.059.148.047.117.195.531.09.262.078.246.008.02.082.266.074.266.07.266.063.262.059.266.051.266.008.043.039.223.039.266.035.266.027.262.039.531.012.266.008.266.004.262.004.266v1.59zm0 0"/></g><g clip-path="url(#Aa)"><path fill="rgb(15.771484%, 48.59314%, 55.799866%)" d="M108.629 54.555h9.902v-1.59l-.004-.266-.004-.262-.008-.266-.012-.266-.016-.266-.023-.266-.027-.262-.035-.266-.039-.266-.047-.266-.051-.266-.059-.266-.062-.262-.023-.098-.047-.168-.074-.266-.082-.266-.086-.266-.09-.262-.035-.102-.059-.164-.102-.266-.105-.266-.109-.266-.039-.086-.078-.18-.117-.262-.125-.266-.09-.195-.301-.602-.113-.211-.027-.051-.289-.531-.098-.168-.055-.098-.152-.266-.156-.266-.047-.078-.113-.184-.164-.266-.137-.219-.027-.047-.344-.531-.039-.062-.133-.199-.18-.266-.102-.148-.078-.117-.184-.266-.152-.211-.035-.055-.191-.266-.184-.258-.008-.004-.191-.266-.199-.266-.016-.023-.184-.242-.199-.266-.031-.035-.172-.227-.207-.266-.031-.043-.176-.223-.211-.266-.027-.031-.187-.234-.215-.266-.008-.012-.414-.5-.012-.016-.223-.266-.18-.211-.043-.055-.223-.266-.145-.168-.086-.094-.227-.266-.102-.117-.129-.148-.234-.266-.051-.055-.184-.211-.227-.254-.008-.012-.238-.262-.168-.184-.074-.082-.242-.266-.094-.105-.148-.16-.246-.266-.02-.02-.227-.242-.187-.203-.059-.062-.25-.266-.102-.109-.148-.156-.254-.266-.012-.012-.242-.254-.172-.172-.086-.09-.258-.266-.066-.07-.191-.195-.223-.227-.039-.039-.262-.266-.793-.793-.145-.141-.41-.41-.254-.246-.16-.156-.109-.105-.273-.266-.027-.027-.246-.238-.168-.16-.109-.105H92.121l.004.004.273.262.141.137.133.129.273.266.008.004.262.258.148.148.121.117.27.266.023.023.246.242.992.992.063.066.262.266.086.09.172.176.242.25.016.016.258.262.141.148.113.117.254.266.043.047.414.438.043.047.246.266.121.129.125.133.246.266.043.047.199.219.215.234.027.031.242.266.141.156.098.105.234.266.082.094.152.172.234.266.027.031.203.234.207.242.02.023.227.262.168.195.059.07.223.266.129.156.094.109.219.266.102.125.113.137.215.266.086.105.129.16.211.266.07.094.137.172.207.266.07.09.133.172.199.266.082.105.117.16.199.266.094.129.098.137.191.262.125.172.066.094.184.266.16.23.027.035.18.266.176.266.031.043.145.219.172.266.098.148.074.117.328.531.008.012.152.25.156.266.105.184.047.082.152.266.145.266.066.125.078.141.137.262.137.266.063.129.07.137.25.531.094.207.023.055.117.266.109.266.105.266.055.148.047.117.094.266.09.262.086.266.082.266.016.059.059.207.07.266.063.262.059.266.051.266.047.266.039.266.027.195.008.07.027.262.023.266.016.266.012.266.008.266.004.262.004.266v1.59zm0 0"/></g><g clip-path="url(#Ab)"><path fill="rgb(12.631226%, 64.4104%, 52.529907%)" d="M118.531 54.555h10.211v-1.59l-.004-.266-.004-.262-.008-.266-.012-.266-.016-.266-.023-.266-.027-.262-.035-.266-.039-.266-.047-.266-.051-.266-.043-.195-.016-.07-.062-.262-.07-.266-.074-.266-.078-.266-.09-.266-.023-.066-.066-.195-.094-.266-.102-.266-.105-.266-.043-.105-.066-.16-.117-.266-.117-.262-.113-.242-.012-.023-.125-.266-.273-.547-.133-.246-.141-.266-.141-.254-.008-.012-.148-.266-.156-.266-.102-.172-.055-.094-.16-.262-.164-.266-.031-.055-.133-.211-.168-.266-.113-.172-.059-.094-.176-.262-.359-.531-.184-.266-.375-.531-.086-.113-.109-.148-.191-.266-.109-.148-.086-.117-.199-.266-.129-.168-.074-.098-.203-.262-.137-.176-.07-.09-.207-.266-.133-.168-.078-.098-.215-.266-.121-.148-.094-.117-.215-.262-.105-.125-.113-.141-.223-.266-.074-.09-.148-.176-.223-.266-.043-.047-.187-.215-.223-.262-.004-.004-.23-.266-.18-.203-.055-.062-.234-.266-.125-.137-.109-.129-.238-.262-.062-.07-.18-.195-.234-.258-.008-.008-.242-.266-.16-.176-.082-.09-.25-.262-.082-.09-.164-.176-.5-.531-.16-.168-.094-.098-.254-.266-.066-.066-.191-.195-.223-.23-.035-.035-.258-.266-.117-.121-.145-.145-.262-.266-.262-.262-.156-.16-.109-.105-.531-.531-.187-.18-.082-.086-.27-.266-.059-.055-.215-.207-.199-.195-.074-.07-.273-.266-.066-.062-.211-.203h-10.211l.109.105.168.16.246.238.027.027.273.266.109.105.16.156.254.246.41.41.145.141.793.793.262.266.039.039.223.227.191.195.066.07.258.266.086.09.172.172.242.254.012.012.254.266.148.156.102.109.25.266.059.063.188.203.227.242.02.02.246.266.148.16.094.105.242.266.074.082.168.184.238.262.008.012.227.254.184.211.051.055.234.266.129.148.102.117.227.266.086.094.145.168.223.266.043.055.18.211.223.266.012.016.414.5.008.012.215.266.188.234.027.031.211.266.176.223.031.043.207.266.172.227.031.035.199.266.184.242.016.023.199.266.191.266.008.004.184.258.191.266.035.055.152.211.184.266.078.117.102.148.18.266.133.199.039.063.344.531.027.047.137.219.164.266.113.184.047.078.156.266.152.266.055.098.098.168.289.531.027.051.113.211.301.602.09.195.125.266.117.262.078.18.039.086.109.266.105.266.102.266.059.164.035.102.09.262.086.266.082.266.074.266.047.168.023.098.063.262.059.266.051.266.047.266.039.266.035.266.027.262.023.266.016.266.012.266.008.266.004.262.004.266zm0 0"/></g><g clip-path="url(#Ac)"><path fill="rgb(36.920166%, 78.887939%, 38.290405%)" d="M128.848 54.555h3.301V38.371l-.195-.242-.219-.262-.219-.266-.195-.234-.023-.031-.227-.266-.16-.191-.062-.074-.227-.262-.125-.145-.105-.121-.23-.266-.074-.086-.16-.18-.234-.266-.02-.023-.215-.242-.199-.219-.039-.043-.238-.266-.133-.145-.109-.121-.246-.266-.059-.066-.184-.199-.23-.242-.016-.02-.25-.266-.145-.156-.105-.109-.25-.266-.059-.059-.195-.207-.215-.227-.039-.039-.258-.262-.117-.125-.141-.141-.258-.266-.016-.016-.242-.25-.168-.168-.094-.098-.266-.262-.797-.797-.082-.078-.187-.187-.227-.219-.043-.047-.273-.262-.094-.094-.18-.172-.234-.23-.039-.035-.273-.266h-10.215l.211.203.066.063.273.266.074.07.199.195.215.207.059.055.27.266.082.086.188.18.531.531.109.105.156.16.262.262.262.266.145.145.117.121.258.266.035.035.223.23.191.195.066.066.254.266.094.098.16.168.5.531.164.176.082.09.25.262.082.09.16.176.242.266.008.008.234.258.18.195.063.07.238.262.109.129.125.137.234.266.055.063.18.203.23.266.004.004.223.262.188.215.043.047.223.266.148.176.074.09.223.266.113.141.105.125.215.262.094.117.121.148.215.266.078.098.133.168.207.266.07.09.137.176.203.262.074.098.129.168.199.266.086.117.109.148.191.266.109.148.086.113.375.531.184.266.359.531.176.262.059.094.113.172.168.266.133.211.031.055.164.266.16.262.055.094.102.172.156.266.148.266.008.012.141.254.141.266.133.246.273.547.125.266.012.023.113.242.117.262.117.266.066.16.043.105.105.266.102.266.094.266.066.195.023.066.09.266.078.266.074.266.07.266.063.262.016.07.043.195.051.266.047.266.039.266.035.266.027.262.023.266.016.266.012.266.008.266.004.262.004.266v1.59zm0 0"/></g><g clip-path="url(#Ad)"><path fill="rgb(78.330994%, 87.927246%, 12.539673%)" d="M132.148 38.371V28.328h-9.391l.273.266.039.035.234.23.18.172.094.094.273.262.043.047.227.219.188.188.082.078.797.797.266.262.094.098.168.168.242.25.016.016.258.266.141.141.117.125.258.262.039.039.215.227.195.207.059.059.25.266.105.109.145.156.25.266.016.02.23.242.184.199.059.066.246.266.109.121.133.145.238.266.039.043.199.219.215.242.02.023.234.266.16.18.074.086.23.266.105.121.125.145.227.262.063.074.16.191.227.266.023.031.195.234.219.266.219.262zm0 0"/></g><g class="E"><use href="#d" x="100.381" y="92.493"/><use href="#T" x="109.238" y="92.493"/><use href="#e" x="113.661" y="92.493"/><use href="#c" x="118.085" y="92.493"/><use href="#f" x="100.376" y="10.394"/><use href="#g" x="105.915" y="10.394"/><use href="#h" x="112.56" y="10.394"/><use href="#X" x="119.753" y="10.394"/><use href="#q" x="94.96" y="22.349"/><use href="#G" x="103.539" y="22.349"/><use href="#H" x="114.039" y="22.349"/><use href="#D" x="119.021" y="22.349"/><use href="#r" x="124.018" y="18.733"/></g><g class="C D H K"><use href="#Ax" x="54.293"/><use href="#Aw" x="108.59"/><path d="M145.598 61.207h40.844" class="I"/></g><g class="E"><use href="#A" x="139.231" y="75.713"/><use href="#C" x="146.979" y="75.713"/><use href="#D" x="163.527" y="75.713"/><use href="#C" x="183.95" y="75.713"/></g><g clip-path="url(#Ae)" class="M"><path d="M145.598 54.555h40.844V28.328h-40.844zm0 0"/></g><g clip-path="url(#Af)"><path fill="rgb(28.231812%, 9.494019%, 41.732788%)" d="M146.008 54.555h17.723l-.395-.105-.41-.109-.18-.051-.234-.062-.414-.109-.352-.094-.059-.012-.828-.219-.129-.031-.281-.074-.414-.105-.332-.086-.078-.02-.828-.211-.129-.035-.281-.07-.414-.105-.352-.09-.059-.016-.414-.102-.414-.105-.164-.043-.246-.059-.414-.105-.398-.098-.016-.004-.41-.105-.414-.102-.223-.055-.187-.047-.828-.203-.055-.016-.355-.09-.414-.102-.305-.074-.109-.027-.41-.102-.414-.098-.145-.039-.266-.062-.414-.102-.402-.102h-.012l-.41-.102-.414-.102-.25-.059-.164-.039-.41-.102-.414-.102-.105-.023-.305-.074-.414-.102-.371-.09-.043-.008-.41-.102-.414-.098-.23-.059-.18-.043v4.547zm0 0"/></g><g clip-path="url(#Ag)"><path fill="rgb(25.895691%, 25.152588%, 52.47345%)" d="M162.926 54.34l.41.109.395.105h20.422l-.187-.051-.41-.109-.387-.105-.027-.008-.414-.109-.41-.109-.148-.039-.266-.066-.41-.109-.34-.086-.074-.02-.414-.109-.41-.105-.129-.031-.285-.074-.414-.105-.336-.086-.074-.02-.414-.105-.41-.102-.148-.039-.266-.066-.414-.105-.371-.094-.039-.008-.414-.105-.414-.102-.191-.047-.219-.055-.414-.105-.41-.102-.02-.004-.395-.098-.414-.102-.262-.066-.148-.035-.414-.105-.414-.102-.098-.023-.312-.078-.414-.102-.352-.086-.059-.012-.828-.203-.195-.051-.215-.051-.414-.102-.41-.098-.047-.012-.367-.09-.414-.102-.309-.074-.102-.023-.828-.203-.41-.098-.414-.102-.41-.098-.027-.008-.387-.094-.414-.098-.301-.074-.109-.023-.414-.102-.414-.098-.164-.039-.246-.062-.414-.098-.41-.098-.035-.008-.379-.094-.414-.098-.312-.074-.098-.023-.828-.195-.187-.047-.223-.055-.414-.098-.41-.098-.066-.016-.348-.082-.414-.098-.352-.086-.059-.012-.414-.098-.41-.098-.234-.055-.18-.043-.414-.098-.41-.098-.117-.027-.297-.07-.414-.098-.41-.098-.414-.098-.41-.098-.297-.07-.117-.027-.414-.098-.41-.094-.187-.047-.227-.051-.414-.098-.41-.098-.074-.016-.34-.082-.41-.098-.379-.086-.035-.008-.414-.098-.41-.098-.273-.062-.141-.035-.414-.094-.41-.098-.168-.039-.246-.059-.41-.094-.414-.098-.062-.016-.352-.082-.41-.094-.375-.09-.039-.008-.41-.098v4.832l.18.043.23.059.414.098.41.102.043.008.371.09.414.102.305.074.105.023.414.102.41.102.164.039.25.059.414.102.41.102h.012l.402.102.414.102.266.063.145.039.414.098.41.102.109.027.305.074.414.102.355.09.055.016.828.203.188.047.223.055.414.102.41.105.016.004.398.098.414.105.246.059.164.043.414.105.414.102.059.016.352.09.414.105.281.07.129.035.828.211.078.02.332.086.414.105.281.074.129.031.828.219.059.012.352.094.414.109.234.063zm0 0"/></g><g clip-path="url(#Ah)"><path fill="rgb(19.941711%, 38.760376%, 55.464172%)" d="M183.555 54.395l.41.109.188.051h2.289v-4.547l-.414-.098-.41-.102-.098-.023-.316-.074-.414-.102-.371-.086-.039-.012-.414-.098-.41-.102-.242-.055-.172-.043-.414-.098-.41-.098-.109-.027-.305-.074-.41-.098-.398-.094-.016-.004-.414-.098-.41-.098-.273-.066-.141-.031-.414-.098-.41-.102-.148-.035-.266-.062-.41-.098-.414-.098-.027-.004-.387-.094-.41-.098-.32-.074-.094-.023-.414-.098-.41-.098-.207-.047-.207-.051-.41-.094-.414-.098-.09-.023-.324-.074-.41-.098-.391-.094-.023-.004-.414-.098-.41-.098-.281-.062-.133-.031-.41-.098-.414-.098-.172-.039-.242-.059-.41-.094-.414-.098-.062-.016-.348-.082-.414-.098-.371-.086-.043-.008-.41-.098-.414-.098-.27-.062-.145-.031-.41-.098-.414-.098-.164-.039-.246-.055-.414-.098-.414-.094-.066-.016-.344-.082-.414-.098-.379-.086-.035-.008-.41-.098-.414-.094-.281-.066-.129-.031-.414-.094-.414-.098-.184-.043-.227-.051-.414-.098-.414-.094-.09-.023-.32-.074-.414-.094-.41-.094v-.004l-.828-.187-.316-.074-.094-.023-.414-.094-.41-.098-.227-.051-.187-.043-.414-.094-.41-.098-.137-.031-.277-.062-.414-.098-.41-.094-.051-.012-.363-.082-.41-.098-.375-.086-.039-.008-.414-.094-.41-.094-.289-.066-.125-.031-.414-.094-.41-.094-.203-.047-.211-.051-.41-.094-.414-.094-.117-.027-.297-.066-.41-.094-.414-.098-.035-.008-.379-.086-.41-.094-.367-.086-.047-.008-.41-.094-.414-.098-.285-.062-.129-.031-.41-.094-.621-.141-.203-.047v4.707l.41.098.039.008.375.09.41.094.352.082.063.016.414.098.41.094.246.059.168.039.41.098.414.094.141.035.273.063.41.098.414.098.035.008.379.086.41.098.34.082.074.016.41.098.414.098.227.051.188.047.41.094.414.098.117.027.297.07.41.098.414.098.41.098.414.098.297.07.117.027.41.098.414.098.18.043.234.055.41.098.414.098.059.012.352.086.414.098.348.082.066.016.41.098.414.098.223.055.188.047.828.195.098.023.313.074.414.098.379.094.035.008.41.098.414.098.246.063.164.039.414.098.414.102.109.023.301.074.414.098.387.094.027.008.41.098.414.102.41.098.828.203.102.023.309.074.414.102.367.09.047.012.41.098.414.102.215.051.195.051.828.203.059.012.352.086.414.102.313.078.098.023.414.102.414.105.148.035.262.066.414.102.395.098.02.004.41.102.414.105.219.055.191.047.414.102.414.105.039.008.371.094.414.105.266.066.148.039.41.102.414.105.074.02.336.086.414.105.285.074.129.031.41.105.414.109.074.02.34.086.41.109.266.066.148.039.41.109.414.109.027.008zm0 0"/></g><g clip-path="url(#Ai)"><path fill="rgb(14.903259%, 50.804138%, 55.723572%)" d="M185.617 49.809l.41.102.414.098v-4.832l-.414-.094-.27-.062-.141-.035-.414-.094-.414-.098-.172-.039-.238-.055-.414-.098-.41-.094-.078-.02-.336-.078-.414-.098-.391-.09-.02-.004-.414-.098-.41-.094-.297-.07-.117-.023-.414-.098-.41-.094-.203-.047-.211-.051-.414-.094-.41-.098-.109-.023-.305-.07-.41-.094-.414-.098-.02-.004-.395-.09-.41-.098-.344-.078-.07-.016-.414-.094-.41-.098-.254-.059-.16-.035-.41-.094-.414-.098-.168-.039-.246-.055-.41-.094-.414-.098-.082-.016-.332-.078-.82-.187H172l-.41-.098-.414-.094-.324-.074-.09-.02-.41-.094-.414-.098-.242-.055-.168-.039-.828-.187-.16-.039-.25-.055-.414-.098-.414-.094-.078-.016-.332-.078-.414-.094-.41-.094h-.004l-.41-.094-.414-.094-.332-.078-.078-.02-.828-.187-.258-.059-.152-.035-.414-.094-.41-.094-.184-.043-.23-.051-.414-.094-.41-.094-.105-.027-.309-.066-.414-.094-.41-.098-.031-.004-.383-.09-.41-.094-.371-.082-.043-.012-.414-.094-.41-.094-.297-.066-.117-.027-.41-.094-.414-.094-.227-.051-.187-.043-.41-.094-.414-.094-.152-.035-.262-.059-.41-.094-.414-.094-.082-.016-.328-.078-.414-.09-.414-.094-.016-.004-.395-.09-.414-.094-.359-.082-.055-.012-.41-.094-.414-.094-.289-.066-.121-.027-.828-.187-.223-.051-.187-.043-.414-.09-.414-.094-.156-.039-.254-.055-.414-.094-.41-.094-.094-.02-.32-.074-.414-.094-.41-.09-.031-.008-.383-.086-.41-.094v4.637l.203.047.621.141.41.094.129.031.285.063.414.098.41.094.047.008.367.086.41.094.379.086.035.008.414.098.41.094.297.066.117.027.414.094.41.094.211.051.203.047.41.094.414.094.125.031.289.066.41.094.414.094.039.008.375.086.41.098.363.082.051.012.41.094.414.098.277.063.137.031.41.098.414.094.188.043.227.051.41.098.414.094.094.023.316.074.828.188v.004l.41.094.414.094.32.074.09.023.414.094.414.098.227.051.184.043.414.098.414.094.129.031.281.066.414.094.41.098.035.008.379.086.414.098.344.082.066.016.414.094.414.098.246.055.164.039.414.098.41.098.145.031.27.063.414.098.41.098.043.008.371.086.414.098.348.082.063.016.414.098.41.094.242.059.172.039.414.098.41.098.133.031.281.063.41.098.414.098.023.004.391.094.41.098.324.074.09.023.414.098.41.094.207.051.207.047.41.098.414.098.094.023.32.074.41.098.387.094.027.004.414.098.41.098.266.063.148.035.41.102.414.098.141.031.273.066.41.098.414.098.016.004.398.094.41.098.305.074.109.027.41.098.414.098.172.043.242.055.41.102.414.098.039.012.371.086.414.102.316.074zm0 0"/></g><g clip-path="url(#Aj)"><path fill="rgb(12.063599%, 62.582397%, 53.347778%)" d="M186.027 45.082l.414.094v-4.707l-.414-.094-.41-.098-.129-.027-.285-.066-.414-.094-.41-.094-.051-.012-.363-.082-.41-.094-.391-.09-.023-.004-.414-.094-.41-.094-.312-.074-.102-.02-.41-.094-.414-.098-.238-.051-.176-.043-.41-.094-.414-.094-.164-.035-.25-.059-.41-.094-.414-.094-.09-.02-.32-.074-.828-.187-.016-.004-.395-.09-.414-.094-.359-.082-.055-.012-.41-.094-.414-.094-.289-.062-.121-.031-.414-.09-.414-.094-.219-.051-.191-.043-.828-.187-.152-.035-.258-.059-.414-.094-.41-.094-.086-.02-.328-.074-.414-.094-.41-.094-.02-.004-.395-.09-.41-.09-.367-.086-.047-.008-.414-.094-.41-.094-.301-.066-.113-.027-.414-.094-.41-.094-.234-.051-.18-.039-.41-.094-.414-.094-.172-.039-.242-.055-.41-.094-.414-.09-.109-.027-.305-.066-.41-.094-.414-.094-.047-.012-.363-.082-.414-.09-.398-.09-.016-.004-.41-.094-.414-.094-.336-.074-.078-.02-.41-.09-.414-.094-.277-.062-.133-.031-.414-.094-.414-.09-.219-.051-.191-.043-.414-.094-.41-.09-.164-.039-.25-.055-.414-.094-.41-.094-.102-.02-.312-.07-.414-.094-.41-.094-.047-.008-.367-.082-.41-.094-.402-.09-.012-.004-.414-.09-.41-.094-.348-.078-.066-.016-.414-.09-.41-.094-.289-.066-.125-.027-.41-.09-.414-.094-.234-.055-.18-.039-.41-.09-.414-.094-.184-.039-.23-.055-.41-.09-.414-.094-.129-.027-.281-.062-.828-.187-.074-.016-.336-.074-.414-.094-.41-.09v4.582l.41.094.383.086.031.008.41.09.414.094.32.074.094.02.41.094.414.094.254.055.156.039.414.094.414.09.188.043.223.051.828.188.121.027.289.066.414.094.41.094.055.012.359.082.414.094.395.09.016.004.414.094.414.09.328.078.082.016.414.094.41.094.262.059.152.035.414.094.41.094.188.043.227.051.414.094.41.094.117.027.297.066.41.094.414.094.043.012.371.082.41.094.383.09.031.004.41.098.414.094.309.066.105.027.41.094.414.094.23.051.184.043.41.094.414.094.152.035.258.059.828.188.078.02.332.078.414.094.41.094h.004l.41.094.414.094.332.078.078.016.414.094.414.098.25.055.16.039.828.188.168.039.242.055.414.098.41.094.09.02.324.074.414.094.41.098h.004l.82.188.332.078.082.016.414.098.41.094.246.055.168.039.414.098.41.094.16.035.254.059.41.098.414.094.07.016.344.078.41.098.395.09.02.004.414.098.41.094.305.07.109.023.41.098.414.094.211.051.203.047.41.094.414.098.117.023.297.07.41.094.414.098.02.004.391.09.414.098.336.078.078.02.41.094.414.098.238.055.172.039.414.098.414.094.141.035zm0 0"/></g><g clip-path="url(#Ak)"><path fill="rgb(24.606323%, 73.890686%, 45.201111%)" d="M185.617 40.277l.41.098.414.094v-4.637l-.379-.086-.035-.008-.41-.094-.414-.094-.316-.07-.098-.02-.41-.094-.414-.094-.254-.059-.156-.035-.414-.094-.414-.09-.191-.043-.219-.051-.414-.094-.41-.094-.133-.027-.281-.062-.414-.094-.41-.094-.074-.016-.34-.078-.414-.09-.41-.094-.012-.004-.402-.09-.41-.094-.367-.082-.047-.008-.414-.094-.41-.094-.309-.066-.105-.027-.414-.09-.41-.094-.254-.055-.16-.039-.41-.09-.414-.094-.195-.043-.219-.051-.41-.09-.414-.094-.141-.031-.273-.062-.41-.09-.414-.094-.082-.02-.328-.074-.414-.09-.414-.094-.027-.008-.383-.086-.414-.09-.387-.086-.023-.008-.414-.09-.414-.094-.332-.074-.078-.02-.414-.09-.414-.094-.281-.062-.129-.027-.414-.094-.41-.094-.234-.051-.18-.039-.414-.094-.41-.09-.18-.043-.234-.051-.414-.094-.41-.09-.129-.027-.285-.066-.41-.09-.414-.094-.078-.016-.336-.074-.41-.094-.414-.09-.031-.008-.383-.086-.41-.09-.395-.09-.02-.004-.41-.094-.414-.09-.344-.078-.07-.016-.41-.09-.414-.094-.297-.066-.113-.023-.414-.094-.414-.09-.25-.055-.16-.039-.414-.09-.414-.094-.203-.043-.621-.141-.41-.09-.16-.035-.254-.059-.414-.09-.41-.094-.113-.023h-7.312v2.922l.41.09.414.094.336.074.074.016.828.188.281.063.129.027.414.094.41.09.23.055.184.039.414.094.41.09.18.039.234.055.414.094.41.09.125.027.289.066.41.094.414.09.066.016.348.078.41.094.414.09.012.004.402.09.41.094.367.082.047.008.41.094.414.094.313.07.102.02.41.094.414.094.25.055.164.039.41.09.414.094.191.043.219.051.414.09.414.094.133.031.277.063.414.094.41.09.078.02.336.074.414.094.41.094.016.004.398.09.414.09.363.082.047.012.414.094.41.094.305.066.109.027.414.09.41.094.242.055.172.039.414.094.41.094.18.039.234.051.41.094.414.094.113.027.301.066.41.094.414.094.047.008.367.086.41.09.395.09.02.004.41.094.414.094.328.074.086.02.41.094.414.094.258.059.152.035.828.188.191.043.219.051.414.094.414.09.121.031.289.063.414.094.41.094.055.012.359.082.414.094.395.09.016.004.828.188.32.074.09.02.414.094.41.094.25.059.164.035.414.094.41.094.176.043.238.051.414.098.41.094.102.02.313.074.41.094.414.094.023.004.391.09.41.094.363.082.051.012.41.094.414.094.285.066zm0 0"/></g><g clip-path="url(#Al)"><path fill="rgb(51.599121%, 83.114624%, 29.426575%)" d="M186.441 35.832V31.25l-.023-.008-.391-.086-.41-.094-.387-.086-.027-.004-.414-.094-.41-.09-.336-.074-.078-.02-.41-.09-.414-.094-.285-.062-.129-.031-.41-.09-.414-.094-.234-.051-.176-.039-.414-.094-.414-.09-.187-.043-.223-.051-.414-.09-.414-.094-.137-.031-.273-.059-.414-.094-.41-.09-.094-.023-.32-.07-.414-.09-.41-.094-.043-.008-.371-.082-.414-.094-.406-.09h-.004l-.414-.094-.41-.09-.363-.082-.051-.012-.414-.09-.41-.094-.32-.07H152.91l.113.023.41.094.414.09.254.059.16.035.41.09.621.141.203.043.414.094.414.09.16.039.25.055.414.09.414.094.113.023.297.066.414.094.41.09.07.016.344.078.414.09.41.094.02.004.395.09.41.09.383.086.031.008.414.09.41.094.336.074.078.016.414.094.41.09.285.066.129.027.41.09.414.094.234.051.18.043.41.09.414.094.18.039.234.051.41.094.414.094.129.027.281.063.414.094.414.09.078.02.332.074.414.094.414.09.023.008.387.086.414.09.383.086.027.008.414.094.414.09.328.074.082.02.414.094.41.09.273.063.141.031.414.094.41.09.219.051.195.043.414.094.41.09.16.039.254.055.41.094.414.09.105.027.309.066.41.094.414.094.047.008.367.082.41.094.402.09.012.004.41.094.414.09.34.078.074.016.41.094.414.094.281.063.133.027.41.094.414.094.219.051.191.043.414.09.414.094.156.035.254.059.414.094.41.094.098.02.316.07.414.094.41.094.035.008zm0 0"/></g><g clip-path="url(#Am)"><path fill="rgb(84.555054%, 88.731384%, 9.970093%)" d="M186.441 31.25v-2.922h-13.109l.32.07.41.094.414.09.051.012.363.082.41.09.414.094h.004l.406.09.414.094.371.082.043.008.41.094.414.09.32.07.094.023.41.09.414.094.273.059.137.031.414.094.414.09.223.051.188.043.414.09.414.094.176.039.234.051.414.094.41.09.129.031.285.063.414.094.41.09.078.02.336.074.41.09.414.094.027.004.387.086.41.094.391.086zm0 0"/></g><g class="E"><use href="#f" x="154.67" y="10.393"/><use href="#g" x="160.21" y="10.393"/><use href="#h" x="166.855" y="10.393"/><use href="#X" x="174.048" y="10.393"/><use href="#q" x="146.141" y="22.349"/><use href="#G" x="154.72" y="22.349"/><use href="#H" x="165.221" y="22.349"/><use href="#D" x="170.202" y="22.349"/><use href="#t" x="175.199" y="18.733"/><use href="#s" x="181.425" y="18.733"/><use href="#D" x="227.288" y="75.703"/><use href="#I" x="244.723" y="75.703"/><use href="#D" x="249.704" y="75.703"/><use href="#H" x="262.157" y="75.703"/><use href="#D" x="267.138" y="75.703"/><use href="#D" x="272.12" y="75.703"/><use href="#H" x="282.082" y="75.703"/><use href="#I" x="287.064" y="75.703"/><use href="#D" x="292.045" y="75.703"/><use href="#E" x="302.008" y="75.703"/><use href="#D" x="306.989" y="75.703"/><use href="#D" x="311.97" y="75.703"/><use href="#H" x="201.282" y="59.281"/><use href="#D" x="206.263" y="59.281"/><use href="#r" x="211.244" y="55.666"/><use href="#I" x="192.426" y="24.412"/><use href="#B" x="198.514" y="24.412"/><use href="#H" x="201.281" y="24.412"/><use href="#D" x="206.263" y="24.412"/><use href="#r" x="211.244" y="20.796"/></g><g clip-path="url(#An)" class="D F C"><g stroke="rgb(26.699829%, 0.486755%, 32.940674%)"><path d="M229.777 24.547l.797.863.797.75.797 1.355.797 1.078.801 1.059.797.816.797.949.797.371.797.441.797.82.797.578.797.375.797.668.797 1.605.797 1.742.797.59.797.371.797.719.797.633.797.313.797.691.797.348.797.594.797.875.797 1 .797.5.797.605.797.852.797.676.797.164.797.508.797.352.797.254.801.063.797.383.797.652.797.66.797.07h.797l.797.52.797.625.797.152h.797l.797.152.797.73.797.328.797.199.797.41h.797l.797.02h.797l.797.344h.797l.797.133.797.539h.797l.797.012.797.008h1.594l.797.043h.797l.801.375.797.25.797.008.797.871.797.707h.797l.797.027h.797l.797.242h.797l.797.293h.797l.797.047h3.188l.797.121.797.023.797.258.797.355h.797l.797.145h1.594l.797.102h1.594l.797.516.801.582h.797l.797.18h.797l.797.172.797.758.797.199.797.211" class="G"/><path d="M229.777 22.367l.797.773.797.512.797.836.797.563.801.836.797.641.797.809.797.637.797.535.797.719.797.453.797.699.797.434.797.637.797.719.797.426.797.406.797 1.02.797.582.797.473.797.664.797.797.797.438.797.664.797.371.797.133.797.82.797.199.797.227.797.457.797.238.797.613.797.203.801.086.797.102.797.383.797.395.797.102.797.578.797.543.797.43.797.145.797.727.797.25.797.008.797.277.797.016.797.703.797.063.797.551.797.102.797.09.797.148.797.004.797.473.797.285.797.031.797.152h.797l.797.582h1.594l.801.027.797.23.797.133h.797l.797.051.797.137.797.094.797.117h1.594l.797.176.797.195.797.086h.797l.797.449.797.094.797.051.797.172.797.063.797.047.797.125.797.012h.797l.797.082.797.301.797.047.797.055.797.035.797.117.801.016h.797l.797.074.797.141.797.016h.797l.797.117.797.082"/><path d="M229.777 20.813l.797.359.797.598.797.492.797.719.801.5.797.512.797.559.797.539.797.508.797.563.797.441.797.289.797.273.797.949.797.52.797.473.797.453.797.586.797.574.797.301.797.383.797.367.797.18.797.625.797.758.797.352.797.098.797.141.797.441.797.039.797.238.797.426.797.297.801.086.797.305.797.137.797.41.797.07.797.281.797.348.797.082.797.297.797.242.797.426.797.371h.797l.797.133.797.301.797.195.797.152h.797l.797.273.797.125.797.703h.797l.797.16.797.078.797.059.797.07.797.063.797.137.797.203.801.23.797.59.797.145h.797l.797.051.797.234.797.004.797.094.797.246.797.098.797.031.797.023h.797l.797.168.797.07.797.605.797.105.797.609h.797l.797.074h.797l.797.051.797.02.797.008h.797l.797.078.797.402.797.066.797.293.801.059.797.055.797.152h1.594l.797.141.797.359h.797" class="G"/></g><g class="O"><path d="M229.777 24.547l.797 1.098.797.867.797 1.598.797.875.801.582.797 1.238.797.941.797 1.102.797.848.797 1.063.797.777.797.84.797 1.77.797.266.797.324.797 1.707.797.098.797.508.797.168.797.828.797.43.797.59.797.438.797.27.797 1.563.797.633.797.332.797.156.797.691.797.184.797.141.797.387.797.168.801.371.797.211.797.574h.797l.797.574.797.336.797.121.797.27.797.262.797.012.797.137.797.16.797.609.797.004h.797l.797.004.797.02.797.063.797.109.797.004.797.023.797.07h.797l.797.004.797.059h1.594l.797.238.797 1.379h.801l.797.063h2.391l.797.016h1.594l.797.027h1.594l.797.004h3.188l.797.078h.797l.797.066h.797l.797.109.797.027h7.973l.797.078h3.188" class="G"/><path d="M229.777 22.367l.797.613.797.859.797 1.301.797.5.801.531.797 1.105.797.922.797.48.797.793.797.859.797.652.797.645.797.52.797 1.141.797.492.797.523.797.672.797.336.797.699.797.504.797.371.797.863.797.156.797.211.797.699.797.668.797.121.797.207.797.355.797.164.797.688.797.547.797.164.801.234.797.242.797.27.797.258.797.52.797.406.797.145.797.191.797.313.797.156.797.031.797.055.797.168h.797l.797.289.797.023.797.172.797.086h.797l.797.063.797.156.797.258.797.035.797.121.797.023.797.148.797.141h.797l.797.234.801.695h3.984l.797.105.797.004h2.391l.797.012.797.004.797.012h.797l.797.047h.797l.797.004h.797l.797.039.797.082h.797l.797.141h3.188l.797.148.797.125h2.395l.797.094h2.391l.797.055"/></g></g><g clip-path="url(#Ao)" class="C D F G O"><path d="M229.777 20.813l.797.492.797.449.797.699.797.434.801.82.797.461.797.648.797.332.797.754.797.32.797.469.797.531.797 1.105.797.613.797.477.797.363.797.793.797.082.797.285.797.344.797.797.797.293.797.418.797.426.797.551.797.23.797.102.797.645.797.734.797.277.797.281.797.195.797.59.801.398.797.309.797.523h.797l.797.219.797.246.797.414.797.09.797.215.797.191h.797l.797.141.797.074.797.082.797.168.797.074.797.445.797.07h.797l.797.043.797.27.797.109.797.012.797.289h.797l.797.359h.797l.797.004h1.598l.797.063.797.039h.797l.797.141.797.176h.797l.797.098h1.594l.797.039h1.594l.797.004.797.074h.797l.797.047.797.016h.797l.797.102h3.984l.797.082h3.191l.797.176h.797l.797.078.797.016h2.391"/></g><g clip-path="url(#Ap)" class="C D F P"><path d="M229.777 24.547l.797 1.25.797.887.797 1.512.797.707.801 1.547.797.496.797 1.824.797 1.363.797.582.797 1.859.797 1.473.797.672.797.473.797.773.797 1 .797.879.797.824.797.734.797.762.797.262.797.379.797.559.797.16.797.281.797.215.797.73.797.266.797.262.797.125.797.227.797.059.797.211.797.172.801.176.797.004.797.313.797.148.797.109.797.164.797.121.797.02.797.102.797.227.797.094h1.594l.797.164h3.984l.797.215h1.594l.797.023h1.594l.797.023.797.016h2.395l.797.059.797.043h12.75l.797.133h.797l.797.172h11.957" class="G"/><path d="M229.777 22.367l.797.836.797.719.797.938.797 1.27.801.863.797 1.035.797.617.797 1.238.797.824.797.813.797.754.797 1.074.797.73.797.949.797.629.797.672.797.441.797.383.797.762.797.875.797.461.797.449.797.48.797.227.797.84.797.254.797.328.797.121.797.086.797.191.797.211.797.039.797.09.801.207.797.109.797.121.797.02.797.172h.797l.797.25.797.117h1.594l.797.129h.797l.797.145h.797l.797.039h.797l.797.07.797.109h2.391l.797.078h3.984l.797.094.797.207h.801l.797.199h7.969l.797.043h2.391l.797.098.797.207h.797l.797.168h7.973l.797.008h.797l.797.035h1.594l.797.039h.797"/></g><g clip-path="url(#Aq)" class="C D F G P"><path d="M229.777 20.813l.797.504.797.465.797.816.797.734.801.793.797 1.074.797.461.797.641.797.922.797.488.797.82.797.723.797.906.797.816.797.777.797.246.797.379.797 1.02.797.488.797.496.797.203.797.32.797.531.797.613.797.367.797.094.797.418.797.277.797.457h.797l.797.262.797.137.797.055.801.07.797.238.797.145.797.016 1.594.008.797.25.797.031h.797l.797.133.797.004.797.137.797.141.797.012h.797l.797.004h.797l.797.055h.797l.797.012.797.004h.797l.797.078h.797l.797.031.797.105h3.988l.797.082h2.391l.797.168h2.391l.797.09h2.391l.797.039h3.187l.797.031h2.391l.797.176h4.785l.797.227h4.781"/></g><g clip-path="url(#Ar)" class="C D F G N"><path d="M229.777 24.547l.797 1.23.797 1.402.797 1.59.797 1.68.801 1.441.797 1.551.797.922.797 1.57.797 1.008.797 1.156.797 1.164.797.738.797.438.797.973.797 1.137.797.516.797.461.797.516.797.105.797.52.797.332h.797l.797.262.797.086h.797l.797.242.797.207.797.309h.797l.797.203.797.051.797.02.797.051h1.598l.797.191h1.594l.797.117h.797l.797.086h2.391l.797.191h3.188l.797.082h4.781l.797.035h1.594l.797.012h5.582l.797.004h24.707"/></g><g clip-path="url(#As)" class="C D F N"><path d="M229.777 22.367l.797.797.797 1.043.797 1.641.797 1.012.801 1.09.797 1.477.797 1.266.797 1.016.797.992.797.52.797.758.797 1.074.797.68.797.52.797.582.797.531.797.465.797.512.797.504.797.109.797.059.797.152.797.16.797.305.797.012.797.27.797.051.797.238h.797l.797.113.797.016h3.191l.797.066.797.063h1.594l1.594.031.797.02h1.594l.797.156h.797l.797.168h3.984l.797.094.797.117h7.973l.797.047h27.098"/></g><g clip-path="url(#At)" class="C D F G N"><path d="M229.777 20.813l.797.566.797.727.797 1.227.797.535.801.891.797 1.055.797.66.797.969.797 1.063.797.836.797.672.797.766.797.848.797.535.797.367.797.828.797.781.797.078.797.266.797.188.797.09.797.18.797.023.797.266.797.082.797.043.797.023h.797l.797.039h.797l.797.102h.797l.797.063.801.129h.797l.797.148h.797l.797.035h2.391l.797.02h1.594l.797.172.797.219h3.188l.797.164h2.391l.797.066h7.176l.797.023h7.172l.797.016h19.129"/></g><g clip-path="url(#Au)" class="C D H"><path d="M229.777 24.547l.797 1.699.797 1.59.797 2.117.797 1.293.801 1.852.797.684.797 1.223.797.602.797.926.797 1.008.797.879.797.281.797.602.797.473.797.406.797.832.797.613.797.398.797.191.797.363.797.172.797.191.797.488.797.254.797.973.797.48.797.055.797.082.797.172.797.449h.797l.797.367.797.035.801.281.797.766h.797l.797.008h.797l.797.164.797.344.797.035.797.063h.797l.797.051.797.023.797.059.797.43.797.176.797.055.797.008 1.594.203h.797l.797.18.797.051h.797l.797.59 1.594.094.797.117.797.047.797.145.801.078h3.188l.797.102h.797l.797.18.797.336h.797l.797.09.797.078.797.09h.797l.797.367.797.324h.797l.797.449h1.594l.797.555.797.445h.797l.797.059.797.176.797.352.797.027.797.07h.797l.801.031h.797l.797.199h.797l.797.262h.797l.797.016h.797" class="F G Q"/><path d="M229.777 22.367l.797 1.055.797 1.605.797 1.066.797 1.566.801 1.012.797 1.184.797 1.328.797.813.797.602.797 1.066.797.281.797.793.797.219.797.34.797.609.797.59.797.27.797.285.797.094.797.297.797.289.797.441.797.313.797.336.797.211.797.27.797.129.797.16.797.234.797.156.797.27.797.508.797.055.801.219.797.133.797.16.797.535.797.055.797.133.797.082.797.191 1.594.313.797.07.797.012.797.004.797.074.797.332h.797l.797.316.797.043.797.266.797.027.797.438.797.113.797.082.797.07.797.176.797.02.797.148.797.004.797.016.801.125h.797l.797.102.797.164.797.145h.797l.797.004.797.07.797.074h1.594l.797.09.797.199h.797l.797.059.797.125h.797l.797.555h.797l.797.082.797.098h.797l.797.043.797.012.797.262h3.188l.801.211.797.086.797.008.797.047h.797l.797.266.797.043.797.129" class="R S"/></g><g clip-path="url(#Av)" class="C D F G H Q"><path d="M229.777 20.813l.797.695.797 1.246.797 1 .797 1.398.801.859.797.875.797.898.797.531.797.801.797.52.797.785.797.324.797.504.797.48.797.375.797.313.797.281.797.273.797.305.797.434.797.34.797.43.797.133.797.277.797.293.797.266.797.047.797.188.797.148.797.281.797.074.797.309.797.184.801.117.797.27.797.152.797.184.797.172.797.07.797.191.797.121.797.082.797.051.797.152.797.07.797.074.797.18.797.117.797.094.797.211.797.047.797.191.797.434h.797l.797.18h1.594l.797.09.797.039.797.031h.797l.797.043h.801l.797.18.797.055h.797l.797.133h.797l.797.07.797.023.797.004.797.109.797.039.797.035h.797l.797.031h2.391l.797.129.797.063.797.203.797.043.797.078.797.191.797.082.797.023.797.004h.797l.797.082.797.059.801.023h.797l.797.012.797.047.797.016.797.07h.797l.797.27"/></g><g class="E"><use href="#i" x="236.2" y="91.93"/><use href="#j" x="242.845" y="91.93"/><use href="#Y" x="247.826" y="91.93"/><use href="#j" x="255.577" y="91.93"/><use href="#k" x="260.558" y="91.93"/><use href="#e" x="263.328" y="91.93"/><use href="#V" x="267.751" y="91.93"/><use href="#l" x="270.521" y="91.93"/><use href="#b" x="273.041" y="91.93"/><use href="#T" x="277.883" y="91.93"/><use href="#i" x="284.787" y="91.93"/><use href="#a" x="291.432" y="91.93"/><use href="#m" x="296.414" y="91.93"/><use href="#V" x="300.289" y="91.93"/><use href="#n" x="247.153" y="10.394"/><use href="#a" x="253.24" y="10.394"/><use href="#o" x="258.222" y="10.394"/><use href="#p" x="265.694" y="10.394"/><use href="#T" x="272.339" y="10.394"/><use href="#o" x="276.623" y="10.394"/><use href="#Z" x="281.604" y="10.394"/><use href="#T" x="284.922" y="10.394"/><use href="#V" x="289.345" y="10.394"/></g><use href="#Ay" stroke="rgb(36.099243%, 78.599548%, 38.798523%)" class="C D F"/><g class="E"><use href="#u" x="348.306" y="23.923"/><use href="#v" x="356.242" y="23.923"/><use href="#w" x="365.961" y="23.923"/><use href="#x" x="370.561" y="23.923"/><use href="#y" x="375.184" y="20.114"/><use href="#z" x="380.94" y="20.114"/></g><use href="#Ay" y="13.281" stroke="rgb(12.89978%, 56.298828%, 55.099487%)" class="C D F"/><g class="E"><use href="#u" x="348.306" y="37.206"/><use href="#v" x="356.242" y="37.206"/><use href="#w" x="365.961" y="37.206"/><use href="#x" x="370.561" y="37.206"/><use href="#y" x="375.184" y="33.397"/><use href="#AA" x="380.94" y="33.397"/></g><use href="#Ay" y="26.567" stroke="rgb(23.199463%, 31.799316%, 54.499817%)" class="C D F"/><g class="E"><use href="#u" x="348.306" y="50.488"/><use href="#v" x="356.242" y="50.488"/><use href="#w" x="365.961" y="50.488"/><use href="#x" x="370.561" y="50.488"/><use href="#y" x="375.184" y="46.679"/><use href="#AB" x="380.94" y="46.679"/></g><use href="#Ay" y="39.848" stroke="rgb(26.699829%, 0.498962%, 32.899475%)" class="C D F"/><g class="E"><use href="#u" x="348.306" y="63.771"/><use href="#v" x="356.242" y="63.771"/><use href="#w" x="365.961" y="63.771"/><use href="#x" x="370.561" y="63.771"/><use href="#y" x="375.184" y="59.962"/><use href="#AC" x="380.94" y="59.962"/></g><use href="#Ay" y="52.414" class="C D H R S"/><g class="E"><use href="#AD" x="348.306" y="75.619"/><use href="#AE" x="354.78" y="75.619"/><use href="#AF" x="359.263" y="75.619"/><use href="#AG" x="363.746" y="75.619"/><use href="#AH" x="367.727" y="75.619"/><use href="#AI" x="374.703" y="75.619"/><use href="#AJ" x="377.196" y="75.619"/><use href="#u" x="383.418" y="75.619"/></g></svg>