<svg xmlns="http://www.w3.org/2000/svg" viewBox="8.1 1.3 136.6 68.3" width="400" height="200" xmlns:v="https://vecta.io/nano"><style><![CDATA[.B{fill:none}.C{stroke-width:.797}.D{stroke-miterlimit:10}.E{clip-rule:nonzero}.F{stroke:rgb(12.156677%, 46.665955%, 70.588684%)}.G{fill:rgb(0%, 0%, 0%)}.H{stroke-width:.399}.I{stroke-opacity:.5}]]></style><defs><clipPath id="A"><path d="M23.59 28.715h24.914v24.902H23.59zm0 0" class="E"/></clipPath><clipPath id="B"><path d="M23.59 28.715H37v24.902H23.59zm0 0" class="E"/></clipPath><clipPath id="C"><path d="M63.938 28.715h24.906v24.906H63.938zm0 0" class="E"/></clipPath><clipPath id="D"><path d="M63.938 28.715H78v24.906H63.938zm0 0" class="E"/></clipPath><clipPath id="E"><path d="M104.289 28.715h24.902v24.906h-24.902zm0 0" class="E"/></clipPath><clipPath id="F"><path d="M104.289 28.715H118v24.906h-13.711zm0 0" class="E"/></clipPath></defs><g fill="rgb(12.156677%, 46.665955%, 70.588684%)"><path fill-opacity=".125" d="M25.668 30.789v1.094 1.09 1.094 1.094 1.09 1.094 1.09 1.094 1.094 1.09 1.094 1.09 1.094 1.094 1.09 1.094 1.09 1.094 1.09-20.75l.016 1.094.063 1.09c.039.305.102.789.234 1.094s.379.789.727 1.094a7.22 7.22 0 0 0 1.785 1.09c.726.301 2.258.789 3.449 1.094l5.137 1.09 5.598 1.094c1.297.305 3.23.789 3.754 1.094s.52.789 0 1.09-2.457.789-3.754 1.094l-5.594 1.09-5.141 1.094c-1.191.305-2.723.789-3.449 1.094a7.53 7.53 0 0 0-1.785 1.09c-.351.301-.59.789-.727 1.094s-.195.789-.234 1.09-.055.789-.062 1.094l-.016 1.09zm40.344 0v1.094 1.094 1.09 1.094 1.094 1.09 1.094 1.094 1.09 1.094 1.094 1.09 1.094 1.094 1.09 1.094 1.094 1.09 1.094-1.094l.012-1.09c.039-.305-.094-.789.246-1.094s.77-.789 2.215-1.094 5.668-.789 8.203-1.09 9.043-.789 10.082-1.094-.699-.789-2.586-1.094-8.66-.789-11.004-1.09-4.914-.789-5.895-1.094-.996-.789-1.172-1.094-.082-.789-.098-1.09-.004-.789-.004-1.094v-1.094-1.09-1.094-1.094-1.09-1.094-1.094zm0 0"/><path fill-opacity=".05" d="M106.363 30.793v1.09 1.094 1.09 1.094 1.094 1.09 1.094 1.094 1.09 1.094 1.094 1.09 1.094 1.094 1.09 1.094 1.094 1.09 1.094h.004s-.043-.789.055-1.094.063-.789.645-1.09 1.828-.793 3.555-1.094 6.598-.789 8.887-1.094l7.609-1.09c.5-.305-2.074-.789-3.992-1.094l-9.836-1.094c-2.125-.301-4.523-.789-5.461-1.09s-1.105-.789-1.309-1.094-.125-.789-.148-1.094-.008-.789-.008-1.09v-1.094-1.094-1.09-1.094-1.094-1.09-1.094-1.09zm0 0"/></g><g stroke="rgb(0%, 0%, 0%)" class="D"><path d="M22.594 53.789V26.891h26.898v26.898zm0 0" class="B C"/><path d="M38.059 26.891c0-1.117-.902-2.02-2.016-2.02a2.02 2.02 0 0 0-2.02 2.02c0 1.113.902 2.016 2.02 2.016s2.016-.902 2.016-2.016zm0 0" class="G H"/><path d="M62.941 53.789V26.891H89.84v26.898zm0 0" class="B C"/><path d="M78.41 26.891a2.02 2.02 0 0 0-2.02-2.02c-1.113 0-2.016.902-2.016 2.02s.902 2.016 2.016 2.016a2.02 2.02 0 0 0 2.02-2.016zm0 0" class="G H"/><path d="M103.289 53.789h26.902V26.891m-26.902 0v26.898m0-26.898l-9.508-9.512m36.41 9.512l9.508-9.512" stroke-linecap="round" class="B C"/></g><g clip-path="url(#A)" class="B C D F"><path d="M25.668 30.789l.016 1.094.063 1.09c.039.305.102.789.234 1.094s.379.789.727 1.094 1.059.789 1.785 1.09 2.258.789 3.449 1.094l5.137 1.09 5.598 1.094c1.297.305 3.23.789 3.754 1.094s.52.789 0 1.09-2.457.789-3.754 1.094l-5.594 1.09-5.141 1.094c-1.191.305-2.723.789-3.449 1.094s-1.434.789-1.785 1.09-.59.789-.727 1.094-.195.789-.234 1.09-.055.789-.062 1.094l-.016 1.09"/></g><g clip-path="url(#B)" class="B C D F I"><path d="M25.668 30.789v1.094 1.09 1.094 1.094 1.09 1.094 1.09 1.094 1.094 1.09 1.094 1.09 1.094 1.094 1.09 1.094 3.273"/></g><g clip-path="url(#C)" class="B C D F"><path d="M66.012 30.789v1.094 1.094 1.09 1.094 1.094 1.09 1.094l.004 1.094c.016.301-.078.789.098 1.09s.191.789 1.172 1.094 3.547.789 5.895 1.094 9.121.789 11.004 1.09 3.625.789 2.586 1.094-7.543.789-10.082 1.094-6.758.789-8.203 1.09-1.871.789-2.215 1.094-.207.789-.246 1.094-.008.789-.012 1.09v1.094"/></g><g clip-path="url(#D)" class="B C D F I"><path d="M66.012 30.789v1.094 1.094 1.09 1.094 1.094 1.09 1.094 1.094 1.09 1.094 1.094 1.09 1.094 1.094 1.09 1.094 3.277"/></g><g clip-path="url(#E)" class="B C D F"><path stroke-opacity=".3" d="M106.363 30.793v1.09 1.094 1.09 1.094 1.094 1.09 1.094 1.094l.008 1.09c.023.305-.051.789.148 1.094s.367.789 1.309 1.094 3.336.789 5.461 1.09l9.836 1.094c1.918.305 4.492.789 3.992 1.094s-5.32.789-7.609 1.09l-8.887 1.094c-1.727.301-2.969.789-3.555 1.094s-.547.789-.645 1.09-.055 1.094-.055 1.094"/></g><g clip-path="url(#F)" class="B C D F"><path stroke-opacity=".15" d="M106.363 30.793v1.09 1.094 1.09 1.094 1.094 1.09 1.094 1.094 1.09 1.094 1.094 1.09 1.094 1.094 1.09 1.094 3.277"/></g><g stroke="rgb(9.118652%, 34.999084%, 52.941895%)" class="C D"><path d="M106.363 47.773h7.719" class="B"/><path fill="rgb(100%, 100%, 100%)" d="M114.082 45.281l1.867 2.492-1.867 2.488-1.871-2.488zm0 0"/></g></svg>