<svg xmlns="http://www.w3.org/2000/svg" viewBox="0 1.3 112.4 68.3" width="329.134" height="200" xmlns:v="https://vecta.io/nano"><style><![CDATA[.E{stroke-width:.797}.F{stroke-miterlimit:10}.G{clip-rule:nonzero}.H{fill:rgb(0%, 0%, 0%)}]]></style><defs><clipPath id="A"><path d="M23.59 28.715h24.914v24.902H23.59zm0 0" class="G"/></clipPath><clipPath id="B"><path d="M23.59 28.715H37v24.902H23.59zm0 0" class="G"/></clipPath><clipPath id="C"><path d="M104.289 28.715H118v24.906h-13.711zm0 0" class="G"/></clipPath></defs><path fill="rgb(12.156677%, 46.665955%, 70.588684%)" fill-opacity=".125" d="M25.668 30.789v1.094 1.09 1.094 1.094 1.09 1.094 1.09 1.094 1.094 1.09 1.094 1.09 1.094 1.094 1.09 1.094 1.09 1.094 1.09-20.75l.016 1.094.063 1.09c.039.305.102.789.234 1.094s.379.789.727 1.094 1.059.789 1.785 1.09 2.258.789 3.449 1.094l5.137 1.09 5.598 1.094c1.297.305 3.23.789 3.754 1.094s.52.789 0 1.09-2.457.789-3.754 1.094l-5.594 1.09-5.141 1.094c-1.191.305-2.723.789-3.449 1.094s-1.434.789-1.785 1.09-.59.789-.727 1.094-.195.789-.234 1.09-.055.789-.062 1.094l-.016 1.09zm0 0"/><g stroke="rgb(0%, 0%, 0%)" stroke-linecap="round" class="F"><path d="M22.594 53.789V26.891h26.898v26.898zm0 0" fill="none" class="E"/><path stroke-width=".399" d="M38.059 26.891c0-1.117-.902-2.02-2.016-2.02a2.02 2.02 0 0 0-2.02 2.02c0 1.113.902 2.016 2.02 2.016s2.016-.902 2.016-2.016zm0 0" class="H"/><path d="M62.908 53.789H89.81V26.891m-26.902 0v26.898m0-26.898L53.4 17.379m36.41 9.512l9.508-9.512" fill="none" class="E"/></g><g fill="none" stroke="rgb(12.156677%, 46.665955%, 70.588684%)" class="E F"><g clip-path="url(#A)"><path d="M25.668 30.789l.016 1.094.063 1.09c.039.305.102.789.234 1.094s.379.789.727 1.094 1.059.789 1.785 1.09 2.258.789 3.449 1.094l5.137 1.09 5.598 1.094c1.297.305 3.23.789 3.754 1.094s.52.789 0 1.09-2.457.789-3.754 1.094l-5.594 1.09-5.141 1.094c-1.191.305-2.723.789-3.449 1.094s-1.434.789-1.785 1.09-.59.789-.727 1.094-.195.789-.234 1.09-.055.789-.062 1.094l-.016 1.09"/></g><g clip-path="url(#B)"><path stroke-opacity=".5" d="M25.668 30.789v1.094 1.09 1.094 1.094 1.09 1.094 1.09 1.094 1.094 1.09 9.829"/></g><g clip-path="url(#C)" transform="translate(-40.381)"><path stroke-opacity=".15" d="M106.363 30.793v1.09 1.094 1.09 1.094 1.094 1.09 1.094 1.094 1.09 1.094 9.833"/></g></g><g stroke="rgb(9.118652%, 34.999084%, 52.941895%)" class="E F"><path d="M65.982 47.773h7.719" fill="none"/><path fill="rgb(100%, 100%, 100%)" d="M73.701 45.281l1.867 2.492-1.867 2.489-1.871-2.489 1.871-2.492zm0 0"/></g><path d="M13.044 39.408h.75c.156 0 .25 0 .25-.156 0-.109-.109-.109-.234-.109h-.719l.297-1.531c.031-.125.047-.219.172-.312.109-.094.172-.109.25-.109a.72.72 0 0 1 .359.094c-.047.016-.094.031-.125.063-.141.078-.234.219-.234.375 0 .188.141.297.313.297.234 0 .453-.203.453-.484 0-.375-.391-.562-.766-.562-.281 0-.781.125-1.031.859-.078.188-.078.203-.281 1.313h-.609c-.156 0-.25 0-.25.156 0 .109.109.109.234.109h.578l-.578 3.094c-.156.797-.266 1.484-.703 1.484-.016 0-.187 0-.328-.094.359-.094.359-.422.359-.437 0-.187-.141-.297-.312-.297-.219 0-.453.188-.453.484 0 .344.344.563.734.563.5 0 .828-.516.938-.703.281-.531.469-1.531.484-1.609zm88.645.235c.031-.125.031-.172.031-.172 0-.188-.156-.25-.25-.25-.187 0-.328.14-.359.312-.062-.125-.312-.469-.781-.469-.953 0-1.985 1.063-1.985 2.219 0 .86.563 1.297 1.157 1.297.359 0 .687-.203.953-.437l-.172.718c-.094.344-.141.578-.453.828-.344.297-.641.297-.844.297s-.391-.015-.578-.047a.47.47 0 0 0 .25-.406c0-.187-.141-.297-.313-.297-.187 0-.437.172-.437.485 0 .453.609.484 1.094.484 1.14 0 1.703-.609 1.812-1.094l.875-3.468zm-1.078 1.89c-.047.219-.234.375-.391.531-.078.047-.375.297-.703.297s-.547-.265-.547-.75c0-.328.188-1.203.407-1.609.25-.453.625-.719.953-.719.531 0 .672.594.672.672l-.016.109-.375 1.469zM37.44 60.828c-.328.031-.437.281-.437.438 0 .234.203.297.313.297.031 0 .438-.031.438-.516s-.516-.687-1-.687c-1.125 0-2.234 1.094-2.234 2.219 0 .75.531 1.375 1.406 1.375 1.266 0 1.922-.797 1.922-.906 0-.078-.078-.125-.125-.125s-.078.016-.109.063c-.625.75-1.531.75-1.672.75-.422 0-.766-.266-.766-.875 0-.344.156-1.187.531-1.687.344-.437.75-.594 1.063-.594.094 0 .453.016.672.25zm0 0" class="H"/></svg>