<svg xmlns="http://www.w3.org/2000/svg" xmlns:xlink="http://www.w3.org/1999/xlink" height="183.6" width="255.3" stroke-linecap="butt" stroke-linejoin="round" xmlns:v="https://vecta.io/nano"><style><![CDATA[.I{clip-path:url(#A)}.J{stroke-opacity:.3}.K{stroke-linecap:butt}.L{stroke-linejoin:round}]]></style><g stroke-width="1.5" stroke-linecap="square" transform="matrix(2.999133 0 0 2.999133 -.038087 -.030043)" fill="none" stroke="#00f" class="J"><path d="M63.668 48.194l1.66 8.764m-1.66-8.764l-5.1 8.73m-6.638-9.42l-.462 8.984m.462-8.984l-7.85 8.074m-2.587-10.295L36.53 54.1m4.963-8.818L29 51.996m4.17-10.143l-11.427 7.284" class="I"/><path d="M33.17 41.853l-18.045 3.582m12.36-7.835L9.662 40.803m15.012-7.88L6.08 35.187m18.63-6.98l-19.33.407m21.983-4.826L8.946 21.275m23.294-1.34L18.6 13.7m20.266 3.15L36.48 7.156m10.2 7.494l-10.2-7.494M55.146 13.4l9.184-9.113m-.555 8.773l.555-8.783m7.778 9.325L64.33 4.277" class="I"/><path d="M79.77 14.918L64.33 4.277" class="I"/></g><g transform="matrix(2.999133 0 0 2.999133 -.038087 -.030043)" class="I"><path d="M79.77 15.784c.23 0 .45-.1.612-.254a.87.87 0 0 0 .254-.612.86.86 0 0 0-.254-.612.87.87 0 0 0-.612-.254.86.86 0 0 0-.612.254.87.87 0 0 0-.254.612.86.86 0 0 0 .254.612.87.87 0 0 0 .612.254z" fill="#440154" stroke="#440154"/><use xlink:href="#B" fill="#481b6d" stroke="#481b6d"/><path d="M63.775 13.927c.23 0 .45-.09.612-.254s.254-.383.254-.612-.09-.45-.254-.612-.383-.254-.612-.254-.45.09-.612.254-.254.383-.254.612.09.45.254.612.383.254.612.254z" fill="#46327e" stroke="#46327e"/><path d="M55.146 14.256c.23 0 .45-.09.612-.254s.254-.383.254-.612-.09-.45-.254-.612-.383-.254-.612-.254-.45.09-.612.254-.254.383-.254.612.09.45.254.612.383.254.612.254z" fill="#3f4788" stroke="#3f4788"/><path d="M46.67 15.516c.23 0 .45-.09.612-.254s.254-.383.254-.612-.09-.45-.254-.612-.383-.254-.612-.254-.45.09-.612.254-.254.383-.254.612.09.45.254.612.383.254.612.254z" fill="#365c8d" stroke="#365c8d"/><path d="M38.856 17.715c.23 0 .45-.09.612-.254s.254-.383.254-.612-.09-.45-.254-.612-.383-.254-.612-.254-.45.09-.612.254-.254.383-.254.612.09.45.254.612.383.254.612.254z" fill="#2e6e8e" stroke="#2e6e8e"/><path d="M32.24 20.802c.23 0 .45-.09.612-.254s.254-.383.254-.612-.09-.45-.254-.612-.383-.254-.612-.254-.45.09-.612.254-.254.383-.254.612.09.45.254.612.383.254.612.254z" fill="#277f8e" stroke="#277f8e"/><path d="M27.363 24.653c.23 0 .45-.09.612-.254s.254-.383.254-.612-.09-.45-.254-.612-.383-.254-.612-.254-.45.09-.612.254-.254.383-.254.612.09.45.254.612.383.254.612.254z" fill="#21918c" stroke="#21918c"/><path d="M24.71 29.072c.23 0 .45-.09.612-.254s.254-.383.254-.612-.09-.45-.254-.612-.383-.254-.612-.254-.45.09-.612.254-.254.383-.254.612.09.45.254.612.383.254.612.254z" fill="#1fa187" stroke="#1fa187"/><path d="M24.674 33.788c.23 0 .45-.09.612-.254s.254-.383.254-.612-.09-.45-.254-.612-.383-.254-.612-.254-.45.09-.612.254-.254.383-.254.612.09.45.254.612.383.254.612.254z" fill="#2db27d" stroke="#2db27d"/><path d="M27.486 38.465c.23 0 .45-.09.612-.254s.254-.383.254-.612-.09-.45-.254-.612-.383-.254-.612-.254-.45.09-.612.254-.254.383-.254.612.09.45.254.612.383.254.612.254z" fill="#4ac16d" stroke="#4ac16d"/><path d="M33.17 42.72c.23 0 .45-.09.612-.254s.254-.383.254-.612-.09-.45-.254-.612-.383-.254-.612-.254-.45.09-.612.254-.254.383-.254.612.09.45.254.612.383.254.612.254z" fill="#73d056" stroke="#73d056"/><path d="M41.493 46.148c.23 0 .45-.09.612-.254s.254-.383.254-.612-.09-.45-.254-.612-.383-.254-.612-.254-.45.09-.612.254-.254.383-.254.612.09.45.254.612.383.254.612.254z" fill="#a0da39" stroke="#a0da39"/><path d="M51.93 48.37c.23 0 .45-.09.612-.254s.254-.383.254-.612-.09-.45-.254-.612-.383-.254-.612-.254-.45.09-.612.254-.254.383-.254.612.09.45.254.612.383.254.612.254z" fill="#d0e11c" stroke="#d0e11c"/><path d="M63.668 49.06c.23 0 .45-.09.612-.254s.254-.383.254-.612-.09-.45-.254-.612-.383-.254-.612-.254-.45.09-.612.254-.254.383-.254.612.09.45.254.612.383.254.612.254z" fill="#fde725" stroke="#fde725"/><path d="M64.33 5.143c.23 0 .45-.09.612-.254s.254-.383.254-.612-.09-.45-.254-.612-.383-.254-.612-.254-.45.09-.612.254-.254.383-.254.612.09.45.254.612.383.254.612.254z" fill="#440154" stroke="#440154"/><path d="M36.48 8.022c.23 0 .45-.09.612-.254s.254-.383.254-.612-.09-.45-.254-.612-.383-.254-.612-.254-.45.09-.612.254-.254.383-.254.612.09.45.254.612.383.254.612.254z" fill="#481b6d" stroke="#481b6d"/><path d="M18.59 14.576c.23 0 .45-.09.612-.254s.254-.383.254-.612-.09-.45-.254-.612-.383-.254-.612-.254-.45.09-.612.254-.254.383-.254.612.09.45.254.612.383.254.612.254z" fill="#46327e" stroke="#46327e"/><path d="M8.946 22.14c.23 0 .45-.09.612-.254s.254-.383.254-.612-.09-.45-.254-.612-.383-.254-.612-.254-.45.09-.612.254-.254.383-.254.612.09.45.254.612.383.254.612.254z" fill="#3f4788" stroke="#3f4788"/><path d="M5.38 29.48c.23 0 .45-.09.612-.254s.254-.383.254-.612-.09-.45-.254-.612-.383-.254-.612-.254-.45.09-.612.254-.254.383-.254.612.09.45.254.612.383.254.612.254z" fill="#365c8d" stroke="#365c8d"/><path d="M6.08 36.053c.23 0 .45-.09.612-.254s.254-.383.254-.612-.09-.45-.254-.612-.383-.254-.612-.254-.45.09-.612.254-.254.383-.254.612.09.45.254.612.383.254.612.254z" fill="#2e6e8e" stroke="#2e6e8e"/><path d="M9.662 41.67c.23 0 .45-.09.612-.254s.254-.383.254-.612-.09-.45-.254-.612-.383-.254-.612-.254-.45.09-.612.254-.254.383-.254.612.09.45.254.612.383.254.612.254z" fill="#277f8e" stroke="#277f8e"/><path d="M15.125 46.3c.23 0 .45-.09.612-.254s.254-.383.254-.612-.09-.45-.254-.612-.383-.254-.612-.254-.45.09-.612.254-.254.383-.254.612.09.45.254.612.383.254.612.254z" fill="#21918c" stroke="#21918c"/><path d="M21.743 50.003c.23 0 .45-.09.612-.254s.254-.383.254-.612-.09-.45-.254-.612-.383-.254-.612-.254-.45.09-.612.254-.254.383-.254.612.09.45.254.612.383.254.612.254z" fill="#1fa187" stroke="#1fa187"/><path d="M29 52.862c.23 0 .45-.09.612-.254s.254-.383.254-.612-.09-.45-.254-.612-.383-.254-.612-.254-.45.09-.612.254-.254.383-.254.612.09.45.254.612.383.254.612.254z" fill="#2db27d" stroke="#2db27d"/><path d="M36.53 54.976c.23 0 .45-.09.612-.254s.254-.383.254-.612-.09-.45-.254-.612-.383-.254-.612-.254-.45.09-.612.254-.254.383-.254.612.09.45.254.612.383.254.612.254z" fill="#4ac16d" stroke="#4ac16d"/><path d="M44.08 56.442c.23 0 .45-.09.612-.254s.254-.383.254-.612-.09-.45-.254-.612-.383-.254-.612-.254-.45.09-.612.254-.254.383-.254.612.09.45.254.612.383.254.612.254z" fill="#73d056" stroke="#73d056"/><path d="M51.47 57.353c.23 0 .45-.09.612-.254s.254-.383.254-.612-.09-.45-.254-.612-.383-.254-.612-.254-.45.09-.612.254-.254.383-.254.612.09.45.254.612.383.254.612.254z" fill="#a0da39" stroke="#a0da39"/><path d="M58.578 57.79c.23 0 .45-.09.612-.254s.254-.383.254-.612-.09-.45-.254-.612-.383-.254-.612-.254-.45.09-.612.254-.254.383-.254.612.09.45.254.612.383.254.612.254z" fill="#d0e11c" stroke="#d0e11c"/><path d="M65.33 57.825c.23 0 .45-.09.612-.254s.254-.383.254-.612-.09-.45-.254-.612-.383-.254-.612-.254-.45.09-.612.254-.254.383-.254.612.09.45.254.612.383.254.612.254z" fill="#fde725" stroke="#fde725"/></g><defs><clipPath id="A"><path d="M.72.72h83.7v59.796H.72z" class="K L"/></clipPath><path id="B" d="M72.108 14.468c.23 0 .45-.09.612-.254s.254-.383.254-.612-.09-.45-.254-.612-.383-.254-.612-.254-.45.09-.612.254-.254.383-.254.612.09.45.254.612.383.254.612.254z"/></defs></svg>