<svg xmlns="http://www.w3.org/2000/svg" xmlns:xlink="http://www.w3.org/1999/xlink" width="466.667" height="266.667" viewBox="0 0 350 200" xmlns:v="https://vecta.io/nano"><style><![CDATA[.B{stroke-linejoin:round}.C{fill:none}.D{stroke-width:.7}.E{stroke-linecap:square}.F{stroke:green}.G{stroke-opacity:.5}]]></style><g transform="matrix(3.997582 0 0 3.997582 -413.424072 -38.063335)"><clipPath id="A"><use xlink:href="#w"/></clipPath><clipPath id="B"><use xlink:href="#w"/></clipPath><clipPath id="C"><use xlink:href="#w"/></clipPath><g clip-path="url(#C)" class="B C D E F G"><path d="M147.3 19.25l-.23 30.58"/></g><clipPath id="D"><use xlink:href="#w"/></clipPath><g clip-path="url(#D)" class="B C D E F G"><path d="M157.488 16.83l-20.586 35.423"/></g><clipPath id="E"><use xlink:href="#w"/></clipPath><g clip-path="url(#E)" class="B C D E F G"><path d="M163.574 27.433L130.816 41.65"/></g><clipPath id="F"><use xlink:href="#w"/></clipPath><g clip-path="url(#F)" class="B C D E F G"><path d="M164.607 40.162l-34.824-11.24"/></g><clipPath id="G"><use xlink:href="#w"/></clipPath><g clip-path="url(#G)" class="B C D E F G"><path d="M162.317 48.138l-30.244-27.192"/></g><clipPath id="H"><use xlink:href="#w"/></clipPath><g clip-path="url(#H)" class="B C D E F G"><path d="M159 49.413l-23.63-29.74"/></g><clipPath id="I"><use xlink:href="#w"/></clipPath><g clip-path="url(#I)" class="B C D E F G"><path d="M156.398 45.247l-18.406-21.4"/></g><clipPath id="J"><use xlink:href="#w"/></clipPath><g clip-path="url(#J)" class="B C D E F G"><path d="M155.306 38.107l-16.222-7.13"/></g><clipPath id="K"><use xlink:href="#w"/></clipPath><g clip-path="url(#K)" class="B C D E F G"><path d="M155.847 30.342l-17.304 8.4"/></g><clipPath id="L"><use xlink:href="#w"/></clipPath><g clip-path="url(#L)" class="B C D E F G"><path d="M157.72 23.61l-21.05 21.866"/></g><clipPath id="M"><use xlink:href="#w"/></clipPath><g clip-path="url(#M)" class="B C D E F G"><path d="M160.476 18.797l-26.562 31.5"/></g><clipPath id="N"><use xlink:href="#w"/></clipPath><g clip-path="url(#N)" class="B C D E F G"><path d="M163.67 16.18l-32.95 36.722"/></g><clipPath id="O"><use xlink:href="#w"/></clipPath><g clip-path="url(#O)" class="B C D E F G"><path d="M166.946 15.64l-39.502 37.803"/></g><clipPath id="P"><use xlink:href="#w"/></clipPath><g clip-path="url(#P)" class="B C D E F G"><path d="M170.055 16.844l-45.72 35.396"/></g><clipPath id="Q"><use xlink:href="#w"/></clipPath><g clip-path="url(#Q)" class="B C D E F G"><path d="M172.845 19.386l-51.3 30.313"/></g><g clip-path="url(#A)"><clipPath id="R"><path d="M170.98 21.252h3.732V17.52h-3.732z"/></clipPath><g clip-path="url(#R)"><use xlink:href="#x" fill="#440154"/><use xlink:href="#x" stroke="#440154" class="B C"/></g><clipPath id="S"><path d="M168.19 18.7h3.732v-3.732h-3.732z"/></clipPath><g clip-path="url(#S)"><path d="M170.055 17.7c.23 0 .45-.09.612-.254s.254-.383.254-.612-.09-.45-.254-.612-.383-.254-.612-.254-.45.09-.612.254-.254.383-.254.612.09.45.254.612.383.254.612.254z" fill="#481b6d"/><path stroke="#481b6d" d="M170.055 17.7c.23 0 .45-.09.612-.254s.254-.383.254-.612-.09-.45-.254-.612-.383-.254-.612-.254-.45.09-.612.254-.254.383-.254.612.09.45.254.612.383.254.612.254z" class="B C"/></g><clipPath id="T"><path d="M165.08 17.507h3.732v-3.732h-3.732z"/></clipPath><g clip-path="url(#T)"><path d="M166.946 16.507c.23 0 .45-.09.612-.254s.254-.383.254-.612-.09-.45-.254-.612-.383-.254-.612-.254-.45.09-.612.254-.254.383-.254.612.09.45.254.612.383.254.612.254z" fill="#46327e"/><path stroke="#46327e" d="M166.946 16.507c.23 0 .45-.09.612-.254s.254-.383.254-.612-.09-.45-.254-.612-.383-.254-.612-.254-.45.09-.612.254-.254.383-.254.612.09.45.254.612.383.254.612.254z" class="B C"/></g><clipPath id="U"><path d="M161.804 18.047h3.732v-3.732h-3.732z"/></clipPath><g clip-path="url(#U)"><path d="M163.67 17.047c.23 0 .45-.09.612-.254s.254-.383.254-.612-.09-.45-.254-.612-.383-.254-.612-.254-.45.09-.612.254-.254.383-.254.612.09.45.254.612.383.254.612.254z" fill="#3f4788"/><path stroke="#3f4788" d="M163.67 17.047c.23 0 .45-.09.612-.254s.254-.383.254-.612-.09-.45-.254-.612-.383-.254-.612-.254-.45.09-.612.254-.254.383-.254.612.09.45.254.612.383.254.612.254z" class="B C"/></g><clipPath id="V"><path d="M158.61 20.663h3.732V16.93h-3.732z"/></clipPath><g clip-path="url(#V)"><path d="M160.475 19.663c.23 0 .45-.09.612-.254s.254-.383.254-.612-.09-.45-.254-.612-.383-.254-.612-.254-.45.09-.612.254-.254.383-.254.612.09.45.254.612.383.254.612.254z" fill="#365c8d"/><path stroke="#365c8d" d="M160.475 19.663c.23 0 .45-.09.612-.254s.254-.383.254-.612-.09-.45-.254-.612-.383-.254-.612-.254-.45.09-.612.254-.254.383-.254.612.09.45.254.612.383.254.612.254z" class="B C"/></g><clipPath id="W"><path d="M155.854 25.475h3.732v-3.732h-3.732z"/></clipPath><g clip-path="url(#W)"><path d="M157.72 24.475c.23 0 .45-.09.612-.254s.254-.383.254-.612-.09-.45-.254-.612-.383-.254-.612-.254-.45.09-.612.254-.254.383-.254.612.09.45.254.612.383.254.612.254z" fill="#2e6e8e"/><path stroke="#2e6e8e" d="M157.72 24.475c.23 0 .45-.09.612-.254s.254-.383.254-.612-.09-.45-.254-.612-.383-.254-.612-.254-.45.09-.612.254-.254.383-.254.612.09.45.254.612.383.254.612.254z" class="B C"/></g><clipPath id="X"><path d="M153.98 32.208h3.732v-3.732h-3.732z"/></clipPath><g clip-path="url(#X)"><path d="M155.846 31.208c.23 0 .45-.09.612-.254s.254-.383.254-.612-.09-.45-.254-.612-.383-.254-.612-.254-.45.09-.612.254-.254.383-.254.612.09.45.254.612.383.254.612.254z" fill="#277f8e"/><path stroke="#277f8e" d="M155.846 31.208c.23 0 .45-.09.612-.254s.254-.383.254-.612-.09-.45-.254-.612-.383-.254-.612-.254-.45.09-.612.254-.254.383-.254.612.09.45.254.612.383.254.612.254z" class="B C"/></g><clipPath id="Y"><path d="M153.44 39.973h3.732V36.24h-3.732z"/></clipPath><g clip-path="url(#Y)"><path d="M155.306 38.973c.23 0 .45-.09.612-.254s.254-.383.254-.612-.09-.45-.254-.612-.383-.254-.612-.254-.45.09-.612.254-.254.383-.254.612.09.45.254.612.383.254.612.254z" fill="#21918c"/><path stroke="#21918c" d="M155.306 38.973c.23 0 .45-.09.612-.254s.254-.383.254-.612-.09-.45-.254-.612-.383-.254-.612-.254-.45.09-.612.254-.254.383-.254.612.09.45.254.612.383.254.612.254z" class="B C"/></g><clipPath id="Z"><path d="M154.532 47.113h3.732V43.38h-3.732z"/></clipPath><g clip-path="url(#Z)"><path d="M156.398 46.113c.23 0 .45-.09.612-.254s.254-.383.254-.612-.09-.45-.254-.612-.383-.254-.612-.254-.45.09-.612.254-.254.383-.254.612.09.45.254.612.383.254.612.254z" fill="#1fa187"/><path stroke="#1fa187" d="M156.398 46.113c.23 0 .45-.09.612-.254s.254-.383.254-.612-.09-.45-.254-.612-.383-.254-.612-.254-.45.09-.612.254-.254.383-.254.612.09.45.254.612.383.254.612.254z" class="B C"/></g><clipPath id="a"><path d="M157.143 51.28h3.732v-3.732h-3.732z"/></clipPath><g clip-path="url(#a)"><path d="M159.01 50.28c.23 0 .45-.09.612-.254s.254-.383.254-.612-.09-.45-.254-.612-.383-.254-.612-.254-.45.09-.612.254-.254.383-.254.612.09.45.254.612.383.254.612.254z" fill="#2db27d"/><path stroke="#2db27d" d="M159.01 50.28c.23 0 .45-.09.612-.254s.254-.383.254-.612-.09-.45-.254-.612-.383-.254-.612-.254-.45.09-.612.254-.254.383-.254.612.09.45.254.612.383.254.612.254z" class="B C"/></g><clipPath id="b"><path d="M160.45 50.004h3.732v-3.732h-3.732z"/></clipPath><g clip-path="url(#b)"><path d="M162.316 49.004c.23 0 .45-.09.612-.254s.254-.383.254-.612-.09-.45-.254-.612-.383-.254-.612-.254-.45.09-.612.254-.254.383-.254.612.09.45.254.612.383.254.612.254z" fill="#4ac16d"/><path stroke="#4ac16d" d="M162.316 49.004c.23 0 .45-.09.612-.254s.254-.383.254-.612-.09-.45-.254-.612-.383-.254-.612-.254-.45.09-.612.254-.254.383-.254.612.09.45.254.612.383.254.612.254z" class="B C"/></g><clipPath id="c"><path d="M162.74 42.028h3.732v-3.732h-3.732z"/></clipPath><g clip-path="url(#c)"><path d="M164.607 41.028c.23 0 .45-.09.612-.254s.254-.383.254-.612-.09-.45-.254-.612-.383-.254-.612-.254-.45.09-.612.254-.254.383-.254.612.09.45.254.612.383.254.612.254z" fill="#73d056"/><path stroke="#73d056" d="M164.607 41.028c.23 0 .45-.09.612-.254s.254-.383.254-.612-.09-.45-.254-.612-.383-.254-.612-.254-.45.09-.612.254-.254.383-.254.612.09.45.254.612.383.254.612.254z" class="B C"/></g><clipPath id="d"><path d="M161.707 29.3h3.732v-3.732h-3.732z"/></clipPath><g clip-path="url(#d)"><path d="M163.573 28.3c.23 0 .45-.09.612-.254s.254-.383.254-.612-.09-.45-.254-.612-.383-.254-.612-.254-.45.09-.612.254-.254.383-.254.612.09.45.254.612.383.254.612.254z" fill="#a0da39"/><path stroke="#a0da39" d="M163.573 28.3c.23 0 .45-.09.612-.254s.254-.383.254-.612-.09-.45-.254-.612-.383-.254-.612-.254-.45.09-.612.254-.254.383-.254.612.09.45.254.612.383.254.612.254z" class="B C"/></g><clipPath id="e"><path d="M155.62 18.696h3.732v-3.732h-3.732z"/></clipPath><g clip-path="url(#e)"><path d="M157.487 17.696c.23 0 .45-.09.612-.254s.254-.383.254-.612-.09-.45-.254-.612-.383-.254-.612-.254-.45.09-.612.254-.254.383-.254.612.09.45.254.612.383.254.612.254z" fill="#d0e11c"/><path stroke="#d0e11c" d="M157.487 17.696c.23 0 .45-.09.612-.254s.254-.383.254-.612-.09-.45-.254-.612-.383-.254-.612-.254-.45.09-.612.254-.254.383-.254.612.09.45.254.612.383.254.612.254z" class="B C"/></g><clipPath id="f"><path d="M145.443 21.117h3.732v-3.732h-3.732z"/></clipPath><g clip-path="url(#f)"><path d="M147.3 20.117c.23 0 .45-.09.612-.254s.254-.383.254-.612-.09-.45-.254-.612-.383-.254-.612-.254-.45.09-.612.254-.254.383-.254.612.09.45.254.612.383.254.612.254z" fill="#fde725"/><path stroke="#fde725" d="M147.3 20.117c.23 0 .45-.09.612-.254s.254-.383.254-.612-.09-.45-.254-.612-.383-.254-.612-.254-.45.09-.612.254-.254.383-.254.612.09.45.254.612.383.254.612.254z" class="B C"/></g></g><g clip-path="url(#B)"><clipPath id="g"><path d="M119.68 51.564h3.732v-3.732h-3.732z"/></clipPath><g clip-path="url(#g)"><path d="M121.545 50.564c.23 0 .45-.09.612-.254s.254-.383.254-.612-.09-.45-.254-.612-.383-.254-.612-.254-.45.09-.612.254-.254.383-.254.612.09.45.254.612.383.254.612.254z" fill="#440154"/><path stroke="#440154" d="M121.545 50.564c.23 0 .45-.09.612-.254s.254-.383.254-.612-.09-.45-.254-.612-.383-.254-.612-.254-.45.09-.612.254-.254.383-.254.612.09.45.254.612.383.254.612.254z" class="B C"/></g><clipPath id="h"><path d="M122.47 54.106h3.732v-3.732h-3.732z"/></clipPath><g clip-path="url(#h)"><path d="M124.335 53.106c.23 0 .45-.09.612-.254s.254-.383.254-.612-.09-.45-.254-.612-.383-.254-.612-.254-.45.09-.612.254-.254.383-.254.612.09.45.254.612.383.254.612.254z" fill="#481b6d"/><path stroke="#481b6d" d="M124.335 53.106c.23 0 .45-.09.612-.254s.254-.383.254-.612-.09-.45-.254-.612-.383-.254-.612-.254-.45.09-.612.254-.254.383-.254.612.09.45.254.612.383.254.612.254z" class="B C"/></g><clipPath id="i"><path d="M125.578 55.31h3.732v-3.732h-3.732z"/></clipPath><g clip-path="url(#i)"><path d="M127.444 54.31c.23 0 .45-.09.612-.254s.254-.383.254-.612-.09-.45-.254-.612-.383-.254-.612-.254-.45.09-.612.254-.254.383-.254.612.09.45.254.612.383.254.612.254z" fill="#46327e"/><path stroke="#46327e" d="M127.444 54.31c.23 0 .45-.09.612-.254s.254-.383.254-.612-.09-.45-.254-.612-.383-.254-.612-.254-.45.09-.612.254-.254.383-.254.612.09.45.254.612.383.254.612.254z" class="B C"/></g><clipPath id="j"><path d="M128.854 54.77h3.732v-3.732h-3.732z"/></clipPath><g clip-path="url(#j)"><path d="M130.72 53.77c.23 0 .45-.09.612-.254s.254-.383.254-.612-.09-.45-.254-.612-.383-.254-.612-.254-.45.09-.612.254-.254.383-.254.612.09.45.254.612.383.254.612.254z" fill="#3f4788"/><path stroke="#3f4788" d="M130.72 53.77c.23 0 .45-.09.612-.254s.254-.383.254-.612-.09-.45-.254-.612-.383-.254-.612-.254-.45.09-.612.254-.254.383-.254.612.09.45.254.612.383.254.612.254z" class="B C"/></g><clipPath id="k"><path d="M132.048 52.153h3.732V48.42h-3.732z"/></clipPath><g clip-path="url(#k)"><path d="M133.915 51.153c.23 0 .45-.09.612-.254s.254-.383.254-.612-.09-.45-.254-.612-.383-.254-.612-.254-.45.09-.612.254-.254.383-.254.612.09.45.254.612.383.254.612.254z" fill="#365c8d"/><path stroke="#365c8d" d="M133.915 51.153c.23 0 .45-.09.612-.254s.254-.383.254-.612-.09-.45-.254-.612-.383-.254-.612-.254-.45.09-.612.254-.254.383-.254.612.09.45.254.612.383.254.612.254z" class="B C"/></g><clipPath id="l"><path d="M134.804 47.34h3.732V43.61h-3.732z"/></clipPath><g clip-path="url(#l)"><path d="M136.67 46.34c.23 0 .45-.09.612-.254s.254-.383.254-.612-.09-.45-.254-.612-.383-.254-.612-.254-.45.09-.612.254-.254.383-.254.612.09.45.254.612.383.254.612.254z" fill="#2e6e8e"/><path stroke="#2e6e8e" d="M136.67 46.34c.23 0 .45-.09.612-.254s.254-.383.254-.612-.09-.45-.254-.612-.383-.254-.612-.254-.45.09-.612.254-.254.383-.254.612.09.45.254.612.383.254.612.254z" class="B C"/></g><clipPath id="m"><path d="M136.678 40.608h3.732v-3.732h-3.732z"/></clipPath><g clip-path="url(#m)"><path d="M138.544 39.608c.23 0 .45-.09.612-.254s.254-.383.254-.612-.09-.45-.254-.612-.383-.254-.612-.254-.45.09-.612.254-.254.383-.254.612.09.45.254.612.383.254.612.254z" fill="#277f8e"/><path stroke="#277f8e" d="M138.544 39.608c.23 0 .45-.09.612-.254s.254-.383.254-.612-.09-.45-.254-.612-.383-.254-.612-.254-.45.09-.612.254-.254.383-.254.612.09.45.254.612.383.254.612.254z" class="B C"/></g><clipPath id="n"><path d="M137.218 32.843h3.732V29.11h-3.732z"/></clipPath><g clip-path="url(#n)"><path d="M139.084 31.843c.23 0 .45-.09.612-.254s.254-.383.254-.612-.09-.45-.254-.612-.383-.254-.612-.254-.45.09-.612.254-.254.383-.254.612.09.45.254.612.383.254.612.254z" fill="#21918c"/><path stroke="#21918c" d="M139.084 31.843c.23 0 .45-.09.612-.254s.254-.383.254-.612-.09-.45-.254-.612-.383-.254-.612-.254-.45.09-.612.254-.254.383-.254.612.09.45.254.612.383.254.612.254z" class="B C"/></g><clipPath id="o"><path d="M136.126 25.703h3.732V21.97h-3.732z"/></clipPath><g clip-path="url(#o)"><path d="M137.992 24.703c.23 0 .45-.09.612-.254s.254-.383.254-.612-.09-.45-.254-.612-.383-.254-.612-.254-.45.09-.612.254-.254.383-.254.612.09.45.254.612.383.254.612.254z" fill="#1fa187"/><path stroke="#1fa187" d="M137.992 24.703c.23 0 .45-.09.612-.254s.254-.383.254-.612-.09-.45-.254-.612-.383-.254-.612-.254-.45.09-.612.254-.254.383-.254.612.09.45.254.612.383.254.612.254z" class="B C"/></g><clipPath id="p"><path d="M133.515 21.537h3.732v-3.732h-3.732z"/></clipPath><g clip-path="url(#p)"><path d="M135.38 20.537c.23 0 .45-.09.612-.254s.254-.383.254-.612-.09-.45-.254-.612-.383-.254-.612-.254-.45.09-.612.254-.254.383-.254.612.09.45.254.612.383.254.612.254z" fill="#2db27d"/><path stroke="#2db27d" d="M135.38 20.537c.23 0 .45-.09.612-.254s.254-.383.254-.612-.09-.45-.254-.612-.383-.254-.612-.254-.45.09-.612.254-.254.383-.254.612.09.45.254.612.383.254.612.254z" class="B C"/></g><clipPath id="q"><path d="M130.207 22.812h3.732V19.08h-3.732z"/></clipPath><g clip-path="url(#q)"><path d="M132.074 21.812c.23 0 .45-.09.612-.254s.254-.383.254-.612-.09-.45-.254-.612-.383-.254-.612-.254-.45.09-.612.254-.254.383-.254.612.09.45.254.612.383.254.612.254z" fill="#4ac16d"/><path stroke="#4ac16d" d="M132.074 21.812c.23 0 .45-.09.612-.254s.254-.383.254-.612-.09-.45-.254-.612-.383-.254-.612-.254-.45.09-.612.254-.254.383-.254.612.09.45.254.612.383.254.612.254z" class="B C"/></g><clipPath id="r"><path d="M127.917 30.788h3.732v-3.732h-3.732z"/></clipPath><g clip-path="url(#r)"><path d="M129.783 29.788c.23 0 .45-.09.612-.254s.254-.383.254-.612-.09-.45-.254-.612-.383-.254-.612-.254-.45.09-.612.254-.254.383-.254.612.09.45.254.612.383.254.612.254z" fill="#73d056"/><path stroke="#73d056" d="M129.783 29.788c.23 0 .45-.09.612-.254s.254-.383.254-.612-.09-.45-.254-.612-.383-.254-.612-.254-.45.09-.612.254-.254.383-.254.612.09.45.254.612.383.254.612.254z" class="B C"/></g><clipPath id="s"><path d="M128.95 43.517h3.732v-3.732h-3.732z"/></clipPath><g clip-path="url(#s)"><path d="M130.817 42.517c.23 0 .45-.09.612-.254s.254-.383.254-.612-.09-.45-.254-.612-.383-.254-.612-.254-.45.09-.612.254-.254.383-.254.612.09.45.254.612.383.254.612.254z" fill="#a0da39"/><path stroke="#a0da39" d="M130.817 42.517c.23 0 .45-.09.612-.254s.254-.383.254-.612-.09-.45-.254-.612-.383-.254-.612-.254-.45.09-.612.254-.254.383-.254.612.09.45.254.612.383.254.612.254z" class="B C"/></g><clipPath id="t"><path d="M135.036 54.12h3.732v-3.732h-3.732z"/></clipPath><g clip-path="url(#t)"><path d="M136.903 53.12c.23 0 .45-.09.612-.254s.254-.383.254-.612-.09-.45-.254-.612-.383-.254-.612-.254-.45.09-.612.254-.254.383-.254.612.09.45.254.612.383.254.612.254z" fill="#d0e11c"/><path stroke="#d0e11c" d="M136.903 53.12c.23 0 .45-.09.612-.254s.254-.383.254-.612-.09-.45-.254-.612-.383-.254-.612-.254-.45.09-.612.254-.254.383-.254.612.09.45.254.612.383.254.612.254z" class="B C"/></g><clipPath id="u"><path d="M145.214 51.7h3.732v-3.732h-3.732z"/></clipPath><g clip-path="url(#u)"><path d="M147.08 50.7c.23 0 .45-.09.612-.254s.254-.383.254-.612-.09-.45-.254-.612-.383-.254-.612-.254-.45.09-.612.254-.254.383-.254.612.09.45.254.612.383.254.612.254z" fill="#fde725"/><path stroke="#fde725" d="M147.08 50.7c.23 0 .45-.09.612-.254s.254-.383.254-.612-.09-.45-.254-.612-.383-.254-.612-.254-.45.09-.612.254-.254.383-.254.612.09.45.254.612.383.254.612.254z" class="B C"/></g></g></g><defs ><path id="w" d="M117.9 56.286h58.6V12.798h-58.6z"/><path id="x" d="M172.845 20.252c.23 0 .45-.09.612-.254s.254-.383.254-.612-.09-.45-.254-.612-.383-.254-.612-.254-.45.09-.612.254-.254.383-.254.612.09.45.254.612.383.254.612.254z"/></defs></svg>