<svg xmlns="http://www.w3.org/2000/svg" width="320" height="231.958" viewBox="365.309 574.434 133.382 102.203" fill="none" stroke-width=".797" stroke-miterlimit="10"  xmlns:v="https://vecta.io/nano"><path d="M375.309 652.453l4.726.871 4.723.715 4.726.551 4.723.394 4.723.239 4.726.078 4.723-.078 4.726-.239 4.723-.394 4.723-.551 4.726-.715 4.723-.871 4.723-1.035 4.726-1.199 4.723-1.367 4.726-1.532 4.723-1.707 4.723-1.883 4.726-2.054 4.723-2.242 4.727-2.426 4.722-2.617 4.723-2.813 4.726-3.016" stroke="rgb(50.196838%,50.196838%,50.196838%)" stroke-dasharray="2.98883,2.98883"/><path d="M403.656 643.961v-59.527m11.34 70.867c0-6.262-5.078-11.34-11.34-11.34a11.34 11.34 0 0 0-11.336 11.34 11.34 11.34 0 0 0 11.336 11.336 11.34 11.34 0 0 0 11.34-11.336zm40.476-21.587l-23.468-49.28m39.684 59.527a11.34 11.34 0 0 0-11.336-11.34c-6.262 0-11.34 5.078-11.34 11.34s5.078 11.34 11.34 11.34a11.34 11.34 0 0 0 11.336-11.34zm0 0" stroke="#000" fill="#fff"/></svg>