<svg xmlns="http://www.w3.org/2000/svg" xmlns:xlink="http://www.w3.org/1999/xlink" width="396.75" height="170.5" viewBox="118.609 116.195 178.742 88.243" xmlns:v="https://vecta.io/nano"><style><![CDATA[.B{stroke:rgb(0%,0%,0%)}.C{stroke-miterlimit:10}.D{fill:rgb(0%,0%,0%)}.E{stroke-width:.797}.F{overflow:visible}.G{stroke:none}.H{fill:rgb(100%,100%,100%)}.I{stroke-dasharray:2.98883,2.98883}.J{stroke-width:.399}]]></style><defs><symbol id="A" class="F"><path d="M2.406-4.812H3.5c.234 0 .344 0 .344-.203 0-.141-.062-.141-.312-.141H2.484l.438-1.734c.047-.172.047-.203.047-.281 0-.187-.141-.297-.297-.297-.109 0-.375.031-.469.422l-.469 1.891H.609c-.234 0-.344 0-.344.234 0 .109.078.109.313.109h1.063L.844-1.656.719-.953c0 .563.391 1.078 1.063 1.078 1.203 0 1.859-1.75 1.859-1.828s-.062-.109-.125-.109c-.031 0-.078 0-.094.047-.016.016-.031.016-.109.219-.25.594-.797 1.422-1.5 1.422-.359 0-.375-.297-.375-.562 0 0 0-.234.031-.375zm0 0" class="G"/></symbol><symbol id="B" class="F"><path d="M3.891-2.547c0-.844-.078-1.359-.344-1.875-.344-.703-1-.875-1.437-.875-1 0-1.375.75-1.484.969C.344-3.75.328-2.953.328-2.547c0 .531.016 1.328.406 1.969.359.594.953.75 1.375.75a1.59 1.59 0 0 0 1.469-.906c.297-.578.313-1.297.313-1.812zM2.109-.062c-.266 0-.812-.125-.984-.953-.094-.453-.094-1.203-.094-1.625 0-.547 0-1.109.094-1.547.172-.812.781-.891.984-.891.266 0 .828.141.984.859.094.438.094 1.047.094 1.578 0 .469 0 1.188-.094 1.641-.172.828-.719.938-.984.938zm0 0" class="G"/></symbol><symbol id="C" class="F"><path d="M3.266-3.047c-.328.031-.437.281-.437.438 0 .234.203.297.313.297.031 0 .438-.031.438-.516s-.516-.687-1-.687C1.453-3.516.344-2.422.344-1.297.344-.547.875.078 1.75.078c1.266 0 1.922-.797 1.922-.906 0-.078-.078-.125-.125-.125s-.078.016-.109.063c-.625.75-1.531.75-1.672.75C1.344-.141 1-.406 1-1.016c0-.344.156-1.187.531-1.687.344-.437.75-.594 1.063-.594.094 0 .453.016.672.25zm0 0" class="G"/></symbol><symbol id="D" class="F"><path d="M2.5-5.078c0-.219-.016-.219-.234-.219-.328.313-.75.5-1.5.5v.266c.219 0 .641 0 1.109-.203v4.078c0 .297-.031.391-.781.391H.813V0c.328-.031 1.016-.031 1.375-.031L3.563 0v-.266h-.281c-.75 0-.781-.094-.781-.391zm0 0" class="G"/></symbol><path id="E" d="M152.422 130.164a3.97 3.97 0 0 0-3.969-3.969 3.97 3.97 0 0 0-3.969 3.969 3.97 3.97 0 0 0 3.969 3.969 3.97 3.97 0 0 0 3.969-3.969zm0 0"/><path id="F" d="M188.141 189.695c-1.066-.203-2.793-.801-3.988-1.496v2.988c1.195-.695 2.922-1.293 3.988-1.492"/></defs><g fill="none" class="B C E"><path d="M148.453 130.164l119.055 39.688" class="I"/><path d="M148.453 130.164v9.23"/></g><path d="M148.453 144.055c.258-1.383 1.035-3.625 1.941-5.18h-3.883c.906 1.555 1.684 3.797 1.941 5.18" class="D"/><use xlink:href="#E" class="B C E H"/><g class="D"><path d="M128.609 150.008h158.742v1.984H128.609"/><use xlink:href="#A" x="143.974" y="192.472"/><use xlink:href="#B" x="148.201" y="194.266"/></g><path d="M158.375 189.691h26.176" fill="none" class="B C J"/><use xlink:href="#F" class="D"/><path d="M198.059 146.039v9.227" fill="none" class="B C E"/><path d="M198.059 159.93c.262-1.383 1.039-3.625 1.945-5.18h-3.887c.906 1.555 1.684 3.797 1.941 5.18" class="D"/><use xlink:href="#E" x="49.605" y="15.875" class="B C E H I"/><g class="D"><use xlink:href="#A" x="193.863" y="192.472"/><use xlink:href="#C" x="198.09" y="194.266"/></g><path d="M207.98 189.691H254" fill="none" class="B C J"/><use xlink:href="#F" x="69.449" class="D"/><path d="M267.508 169.852v7.242" fill="none" class="B C E"/><path d="M267.508 181.758a18.87 18.87 0 0 1 1.945-5.184h-3.887c.906 1.555 1.684 3.801 1.941 5.184" class="D"/><use xlink:href="#E" x="119.055" y="39.688" class="B C E H"/><g class="D"><use xlink:href="#A" x="263.028" y="192.472"/><use xlink:href="#D" x="267.255" y="194.266"/></g></svg>