<svg xmlns="http://www.w3.org/2000/svg" xmlns:xlink="http://www.w3.org/1999/xlink" viewBox="297.078 120.184 238.27 83.677" width="545.75" height="159.25" xmlns:v="https://vecta.io/nano"><style><![CDATA[.B{stroke:rgb(0%,0%,0%)}.C{stroke-miterlimit:10}.D{fill:rgb(0%,0%,0%)}.E{stroke-width:.797}.F{fill:none}.G{overflow:visible}.H{stroke:none}.I{fill:rgb(100%,100%,100%)}.J{stroke-width:.399}]]></style><defs><symbol id="A" class="G"><path d="M2.406-4.812H3.5c.234 0 .344 0 .344-.203 0-.141-.062-.141-.312-.141H2.484l.438-1.734c.047-.172.047-.203.047-.281 0-.187-.141-.297-.297-.297-.109 0-.375.031-.469.422l-.469 1.891H.609c-.234 0-.344 0-.344.234 0 .109.078.109.313.109h1.063L.844-1.656.719-.953c0 .563.391 1.078 1.063 1.078 1.203 0 1.859-1.75 1.859-1.828s-.062-.109-.125-.109c-.031 0-.078 0-.094.047-.016.016-.031.016-.109.219-.25.594-.797 1.422-1.5 1.422-.359 0-.375-.297-.375-.562 0 0 0-.234.031-.375zm0 0" class="H"/></symbol><symbol id="B" class="G"><path d="M3.891-2.547c0-.844-.078-1.359-.344-1.875-.344-.703-1-.875-1.437-.875-1 0-1.375.75-1.484.969C.344-3.75.328-2.953.328-2.547c0 .531.016 1.328.406 1.969.359.594.953.75 1.375.75a1.59 1.59 0 0 0 1.469-.906c.297-.578.313-1.297.313-1.812zM2.109-.062c-.266 0-.812-.125-.984-.953-.094-.453-.094-1.203-.094-1.625 0-.547 0-1.109.094-1.547.172-.812.781-.891.984-.891.266 0 .828.141.984.859.094.438.094 1.047.094 1.578 0 .469 0 1.188-.094 1.641-.172.828-.719.938-.984.938zm0 0" class="H"/></symbol><symbol id="C" class="G"><path d="M5.563-1.812c.141 0 .313 0 .313-.172 0-.187-.172-.187-.312-.187H1c-.125 0-.297 0-.297.188 0 .172.172.172.297.172zm0 0" class="H"/></symbol><symbol id="D" class="G"><path d="M3.266-3.047c-.328.031-.437.281-.437.438 0 .234.203.297.313.297.031 0 .438-.031.438-.516s-.516-.687-1-.687C1.453-3.516.344-2.422.344-1.297.344-.547.875.078 1.75.078c1.266 0 1.922-.797 1.922-.906 0-.078-.078-.125-.125-.125s-.078.016-.109.063c-.625.75-1.531.75-1.672.75C1.344-.141 1-.406 1-1.016c0-.344.156-1.187.531-1.687.344-.437.75-.594 1.063-.594.094 0 .453.016.672.25zm0 0" class="H"/></symbol><symbol id="E" class="G"><path d="M3.469-1.812h2.344c.109 0 .297 0 .297-.172 0-.187-.187-.187-.297-.187H3.469v-2.359c0-.109 0-.281-.172-.281-.187 0-.187.172-.187.281v2.359H.75c-.109 0-.281 0-.281.188 0 .172.172.172.281.172h2.359V.547c0 .109 0 .281.188.281.172 0 .172-.172.172-.281zm0 0" class="H"/></symbol><symbol id="F" class="G"><path d="M2.5-5.078c0-.219-.016-.219-.234-.219-.328.313-.75.5-1.5.5v.266c.219 0 .641 0 1.109-.203v4.078c0 .297-.031.391-.781.391H.813V0c.328-.031 1.016-.031 1.375-.031L3.563 0v-.266h-.281c-.75 0-.781-.094-.781-.391zm0 0" class="H"/></symbol><path id="G" d="M330.887 144.074a3.97 3.97 0 0 0-3.969-3.969 3.97 3.97 0 0 0-3.969 3.969 3.97 3.97 0 0 0 3.969 3.969 3.97 3.97 0 0 0 3.969-3.969zm0 0"/><path id="H" d="M307.078 163.914h39.684v1.988h-39.684"/><path id="I" d="M436.055 187.727c-1.062-.199-2.789-.797-3.984-1.492v2.988a14.37 14.37 0 0 1 3.984-1.496"/></defs><path d="M326.918 144.074v9.227" class="B C E F"/><path d="M326.918 157.965a18.87 18.87 0 0 1 1.945-5.184h-3.887c.906 1.555 1.684 3.801 1.941 5.184" class="D"/><use xlink:href="#G" class="B C E I"/><g class="D"><use xlink:href="#H"/><use xlink:href="#A" x="322.439" y="190.507"/><use xlink:href="#B" x="326.667" y="192.3"/></g><path d="M336.84 187.727h36.102" class="B C F J"/><path d="M376.527 187.727c-1.062-.199-2.789-.797-3.988-1.492v2.988c1.199-.699 2.926-1.297 3.988-1.496" class="D"/><path d="M386.449 159.949v9.227" class="B C E F"/><path d="M386.449 173.836c.258-1.379 1.035-3.625 1.941-5.18h-3.887c.906 1.555 1.684 3.801 1.945 5.18" class="D"/><path d="M390.414 159.949c0-2.195-1.773-3.969-3.965-3.969s-3.969 1.773-3.969 3.969 1.773 3.965 3.969 3.965 3.965-1.773 3.965-3.965zm0 0" class="B C E I"/><g class="D"><use xlink:href="#H" x="59.527"/><use xlink:href="#A" x="380.791" y="190.826"/><use xlink:href="#C" x="385.018" y="186.488"/><use xlink:href="#D" x="385.018" y="193.782"/></g><path d="M396.367 187.727h36.102" class="B C F J"/><use xlink:href="#I" class="D"/><path d="M445.977 159.949v-9.23" class="B C E F"/><path d="M445.977 146.059c-.262 1.379-1.039 3.625-1.945 5.18h3.887c-.906-1.555-1.684-3.801-1.941-5.18" class="D"/><path d="M449.945 159.949a3.97 3.97 0 0 0-3.969-3.969 3.97 3.97 0 0 0-3.969 3.969c0 2.191 1.777 3.965 3.969 3.965s3.969-1.773 3.969-3.965zm0 0" class="B C E I"/><g class="D"><use xlink:href="#H" x="119.055"/><use xlink:href="#A" x="440.318" y="190.826"/><use xlink:href="#E" x="444.545" y="186.488"/><use xlink:href="#D" x="444.545" y="193.782"/></g><path d="M455.898 187.727h36.098" class="B C F J"/><use xlink:href="#I" x="59.527" class="D"/><path d="M505.504 144.074v-9.227" class="B C E F"/><path d="M505.504 130.184c-.258 1.383-1.035 3.625-1.941 5.18h3.883c-.906-1.555-1.684-3.797-1.941-5.18" class="D"/><use xlink:href="#G" x="178.586" class="B C E I"/><g class="D"><path d="M485.66 163.914h39.688v1.988H485.66"/><use xlink:href="#A" x="501.021" y="190.507"/><use xlink:href="#F" x="505.248" y="192.3"/></g></svg>