<svg xmlns="http://www.w3.org/2000/svg" xmlns:xlink="http://www.w3.org/1999/xlink" width="1120" height="240" viewBox="0 0 420 90" xmlns:v="https://vecta.io/nano"><style><![CDATA[.B{fill:rgb(0%,0%,0%)}.C{fill-rule:evenodd}.D{stroke-linejoin:round}.E{fill:none}.F{stroke:rgb(0%,0%,0%)}.G{stroke-width:.75}.H{stroke-width:.281}.I{stroke-width:.751}.J{fill:rgb(100%,100%,100%)}.K{stroke-linecap:round}.L{stroke-width:.425}.M{stroke-width:.567}.N{stroke-dasharray:0.566929,2.267717}.O{stroke-width:.282}.P{stroke-width:.729}.Q{stroke-width:.706}]]></style><path d="M148.156 2.727h20.137v84.172h-20.137zm0 0" class="D F J K L"/><path d="M153.68 62.984v-.031l-.004-.035-.004-.031-.016-.07-.016-.062-.016-.031-.012-.031-.016-.027-.02-.031-.016-.027-.02-.031-.023-.027-.02-.027-.023-.023-.027-.023-.023-.023-.027-.023-.023-.02-.062-.039-.031-.016-.027-.016-.07-.023-.031-.012-.07-.016-.035-.004-.039-.004h-.039a.71.71 0 0 0-.719.707.72.72 0 0 0 .707.707c.453 0 .723-.371.723-.707zm5.578-41.043v.008l-.004.012v.008l-.004.012-.012.059-.008.02-.004.02-.004.023v.008l-.004.008-.004.012v.008l-.004.008v.016l-.004.008v.016l-.004.004v.023c0 .109.086.168.18.168a.25.25 0 0 0 .23-.172 14.02 14.02 0 0 0 .121-.465l.137-.562.105-.422.082-.312c.098-.195.43-.762 1.02-.762.281 0 .34.23.34.438 0 .387-.309 1.188-.406 1.457a.67.67 0 0 0-.062.289.5.5 0 0 0 .512.512c.59 0 .82-.914.82-.961 0-.066-.055-.066-.074-.066-.062 0-.062.02-.094.113-.125.426-.332.777-.641.777-.105 0-.148-.062-.148-.207 0-.156.059-.309.113-.445.117-.332.383-1.02.383-1.375 0-.422-.27-.668-.723-.668-.562 0-.867.398-.973.543-.031-.352-.289-.543-.578-.543s-.406.242-.469.352a3.2 3.2 0 0 0-.191.609c0 .063.063.063.078.063.063 0 .066-.008.105-.145.105-.441.23-.742.457-.742.125 0 .195.078.195.285 0 .133-.02.203-.102.527zm-2.59 50.825l-.004.008v.012l-.004.008v.012l-.004.02-.008.02-.012.059-.004.023-.004.008v.008l-.004.012v.008l-.004.008v.008l-.004.008V73l-.004.008v.012l-.004.004v.012c0 .109.09.168.18.168.078 0 .191-.047.234-.172.008-.016.082-.309.117-.465l.141-.562.105-.422.082-.312c.094-.195.426-.762 1.02-.762.281 0 .34.23.34.438 0 .387-.309 1.188-.41 1.457-.055.145-.062.219-.062.289a.5.5 0 0 0 .516.512c.59 0 .82-.914.82-.961 0-.066-.059-.066-.078-.066-.059 0-.059.02-.09.113-.125.426-.332.777-.641.777-.105 0-.148-.062-.148-.207 0-.156.055-.309.109-.445.121-.332.383-1.02.383-1.375 0-.422-.27-.668-.719-.668-.562 0-.871.398-.977.543-.031-.352-.289-.543-.578-.543s-.406.242-.469.352a3.09 3.09 0 0 0-.187.609c0 .063.063.063.078.063.063 0 .066-.008.105-.145.105-.441.23-.742.457-.742.125 0 .195.078.195.285 0 .133-.023.203-.102.527zm5.297-.918h1.07c.051 0 .125 0 .125-.074s-.074-.078-.125-.078h-1.07v-1.074c0-.051 0-.125-.078-.125s-.074.074-.074.125v1.074h-1.07c-.055 0-.129 0-.129.078s.074.074.129.074h1.07v1.074c0 .051 0 .125.074.125s.078-.074.078-.125zm3.832-2.743v-.043l-.004-.004v-.016l-.004-.004v-.004l-.008-.008v-.004h-.004l-.004-.004h-.008l-.004-.004h-.062c-.215.207-.512.211-.648.211v.117c.082 0 .297 0 .477-.09v1.68c0 .113 0 .152-.328.152h-.125v.121l.59-.016.59.016v-.121h-.125c-.332 0-.332-.039-.332-.152zm0 0" class="B C"/><path d="M164.738 71.941h1.887v-.195h-1.887" class="B"/><path d="M166.359 74.082h-.113c-.012.074-.043.27-.086.301-.027.02-.281.02-.328.02h-.605l.66-.555c.242-.195.473-.398.473-.711 0-.398-.352-.645-.773-.645-.41 0-.687.285-.687.59 0 .168.145.188.176.188.078 0 .176-.059.176-.176 0-.059-.023-.176-.195-.176.102-.234.328-.305.48-.305.332 0 .504.254.504.523 0 .285-.207.512-.312.633l-.793.785c-.035.031-.035.035-.035.129h1.359zm0 0" class="B C"/><path d="M253.395 2.727h20.137v84.172h-20.137zm0 0" class="D F J K L"/><g class="B C"><path d="M261.801 21.941l-.004.012v.008l-.004.008v.012l-.004.02-.008.02-.008.039-.004.023-.004.02-.004.008v.012l-.004.008v.008l-.004.008v.012l-.004.008v.012l-.004.008v.012l-.004.004v.012c0 .113.09.172.18.172.078 0 .191-.051.234-.176a9.26 9.26 0 0 0 .117-.465l.141-.562.105-.422.082-.312c.094-.191.426-.762 1.02-.762.281 0 .34.23.34.438 0 .391-.309 1.188-.41 1.457a.73.73 0 0 0-.059.289.5.5 0 0 0 .512.516c.59 0 .82-.914.82-.965 0-.062-.059-.062-.078-.062-.059 0-.059.02-.09.113-.125.422-.332.773-.641.773-.105 0-.148-.062-.148-.207 0-.156.055-.305.109-.441.121-.332.383-1.02.383-1.379 0-.418-.27-.668-.719-.668-.562 0-.871.398-.977.543-.031-.352-.289-.543-.578-.543s-.406.242-.469.355a3.31 3.31 0 0 0-.187.609c0 .063.063.063.078.063.063 0 .066-.012.105-.148.105-.441.23-.742.457-.742.125 0 .195.078.195.285 0 .133-.023.203-.102.527zm5.543-.867h1.07c.055 0 .125 0 .125-.074s-.07-.078-.125-.078h-1.07v-1.074c0-.051 0-.125-.074-.125s-.078.074-.078.125v1.074h-1.07c-.055 0-.125 0-.125.078s.07.074.125.074h1.07v1.074c0 .051 0 .125.078.125s.074-.074.074-.125zm0 0"/><path d="M271.016 19.539v-.07l-.004-.004v-.004l-.004-.004v-.008l-.012-.012h-.004l-.004-.004h-.008l-.004-.004h-.059c-.262.27-.637.27-.773.27v.133c.086 0 .336 0 .559-.109v2.203c0 .152-.016.203-.395.203h-.137v.133c.148-.012.516-.012.688-.012l.688.012v-.133h-.133c-.383 0-.398-.043-.398-.203zm-12.215 43.539v-.031l-.004-.035-.004-.031-.004-.035-.008-.031-.012-.035-.008-.031-.016-.031-.012-.031-.016-.027-.016-.031-.02-.027-.02-.031-.023-.027-.02-.027-.047-.047-.027-.023-.023-.023-.027-.02-.031-.02-.027-.02-.035-.016-.027-.012-.031-.016-.07-.023-.035-.008-.035-.004-.035-.008h-.039l-.035-.004a.71.71 0 0 0-.723.707.72.72 0 0 0 .707.711c.453 0 .723-.375.723-.711zm2.855 9.649l-.004.008v.012l-.004.008v.012l-.004.02-.008.02-.012.059-.008.02v.012l-.004.008v.008l-.004.012v.008l-.004.008v.023l-.004.008v.012l-.004.004v.012c0 .109.09.168.18.168.078 0 .188-.047.234-.176.008-.012.082-.305.117-.461l.141-.562.105-.422.082-.312c.094-.195.426-.762 1.016-.762.285 0 .344.23.344.434 0 .391-.309 1.191-.41 1.461-.055.145-.062.219-.062.289a.5.5 0 0 0 .516.512c.586 0 .82-.914.82-.965 0-.062-.059-.062-.078-.062-.059 0-.059.02-.09.113-.129.426-.332.777-.641.777-.109 0-.148-.062-.148-.207 0-.156.055-.309.109-.445.121-.332.383-1.02.383-1.375 0-.422-.27-.672-.719-.672-.562 0-.871.402-.977.543-.031-.348-.289-.543-.578-.543s-.406.246-.469.355a3.01 3.01 0 0 0-.187.609c0 .063.063.063.074.063.066 0 .07-.008.105-.145.105-.445.234-.742.461-.742.121 0 .191.078.191.285 0 .133-.02.203-.098.527zm5.297-.918h1.07c.051 0 .125 0 .125-.078s-.074-.074-.125-.074h-1.07v-1.074c0-.051 0-.125-.078-.125s-.074.074-.074.125v1.074h-1.07c-.055 0-.129 0-.129.074s.074.078.129.078h1.07v1.07c0 .055 0 .129.074.129s.078-.074.078-.129zm3.633-1.84h.023l.023.004h.023l.047.008.02.008.023.008.059.023.016.012.02.012.016.016.016.012.02.016.012.016.016.02.016.016.023.039.012.023.008.023.012.02.008.027.008.023.008.027.008.055.008.063v.063c0 .41-.238.531-.426.531-.133 0-.426-.035-.562-.23.152-.008.191-.117.191-.184a.18.18 0 0 0-.184-.184c-.09 0-.184.059-.184.191 0 .313.344.512.742.512.457 0 .777-.309.777-.637 0-.258-.211-.516-.574-.59.344-.125.469-.375.469-.574 0-.262-.297-.457-.664-.457s-.648.18-.648.441c0 .113.074.176.172.176.105 0 .168-.074.168-.168s-.062-.164-.168-.168c.117-.148.344-.184.465-.184.148 0 .359.07.359.359a.63.63 0 0 1-.133.391c-.109.125-.203.133-.367.145l-.105.008c-.008 0-.035.008-.035.043 0 .047.031.047.086.047zm0 0"/></g><path d="M269.73 71.805h1.887v-.191h-1.887" class="B"/><path d="M271.352 73.949h-.113c-.008.07-.043.266-.086.301-.023.02-.277.02-.324.02h-.609l.66-.555c.246-.195.473-.398.473-.715 0-.398-.348-.641-.773-.641-.406 0-.684.285-.684.59 0 .168.141.184.176.184.078 0 .172-.055.172-.176 0-.059-.023-.172-.195-.172.102-.234.328-.309.484-.309.328 0 .5.258.5.523 0 .289-.203.516-.309.633l-.797.789c-.031.027-.031.035-.031.129h1.359zm0 0" class="B C"/><path d="M214.953 28.719h20.207v58.105h-20.207zm0 0" class="D F J K M N"/><path d="M220.363 37.109v-.035l-.004-.035-.004-.031-.008-.035-.016-.062-.012-.031-.012-.035-.012-.027-.02-.031-.016-.027-.02-.031-.016-.031-.023-.023-.02-.027-.027-.023-.023-.027-.023-.023-.027-.02-.027-.023-.027-.02-.031-.016-.031-.02-.062-.023-.035-.016-.031-.012-.035-.008-.039-.004-.031-.004-.078-.008c-.453 0-.723.375-.723.711 0 .359.309.707.711.707.453 0 .723-.371.723-.707zm2.864 9.723l-.004.012v.008l-.004.008v.012l-.004.02-.008.02-.004.02-.004.023-.008.039-.004.008v.012l-.004.008v.008l-.004.008v.012l-.004.008v.012l-.004.008v.012l-.004.004v.012c0 .113.09.172.18.172.078 0 .191-.051.234-.176.008-.016.082-.309.117-.465l.141-.562.105-.422.082-.309c.094-.195.426-.766 1.02-.766.281 0 .34.23.34.438 0 .391-.309 1.191-.41 1.457a.75.75 0 0 0-.062.289.5.5 0 0 0 .516.516c.59 0 .82-.914.82-.965 0-.062-.059-.062-.078-.062-.059 0-.059.02-.09.113-.129.422-.332.773-.641.773-.105 0-.148-.062-.148-.207 0-.156.055-.305.109-.441.121-.332.383-1.02.383-1.379 0-.418-.27-.668-.719-.668-.562 0-.871.398-.977.543-.031-.352-.289-.543-.578-.543s-.406.242-.469.355a3.01 3.01 0 0 0-.187.609c0 .063.063.063.078.063.063 0 .066-.012.105-.148.105-.441.23-.742.457-.742.125 0 .195.082.195.285 0 .133-.023.203-.102.527zm5.296-.914h1.07c.051 0 .125 0 .125-.078s-.074-.078-.125-.078h-1.07v-1.07c0-.055 0-.129-.078-.129s-.074.074-.074.129v1.07h-1.07c-.055 0-.129 0-.129.078s.074.078.129.078h1.07v1.07c0 .055 0 .125.074.125s.078-.07.078-.125zm-1.839-10.898v-.016L226.68 35v-.004l-.004-.004v-.004h-.004v-.004l-.004-.004h-.004l-.008-.008h-.008v-.004h-.02c-.023 0-.027.004-.086.074l-.234.277c-.129-.227-.383-.352-.699-.352-.617 0-1.203.563-1.203 1.152a.7.7 0 0 0 .508.691l.52.137c.184.043.449.117.449.516 0 .441-.398.898-.875.898-.312 0-.855-.109-.855-.711 0-.117.027-.234.031-.266.004-.02.008-.023.008-.035 0-.047-.031-.051-.059-.051s-.035.004-.047.02c-.023.02-.293 1.129-.293 1.145 0 .027.023.047.055.047.023 0 .027-.004.086-.07l.238-.277c.211.281.543.348.824.348.664 0 1.238-.648 1.238-1.25 0-.336-.164-.504-.238-.57-.113-.113-.184-.133-.621-.246l-.324-.086c-.133-.043-.297-.184-.297-.445 0-.395.391-.809.852-.809.406 0 .703.211.703.758 0 .156-.02.242-.02.27 0 .008 0 .051.059.051.047 0 .055-.016.07-.098zm-6.321 33.414v-.031l-.004-.035-.004-.031-.016-.07-.008-.031-.035-.094-.02-.031-.016-.027-.02-.031-.016-.027-.023-.027-.02-.027-.027-.023-.023-.023-.023-.027-.082-.059-.031-.02-.062-.031-.031-.012-.035-.016-.031-.008-.035-.008-.039-.008-.031-.004-.039-.004h-.039c-.453 0-.723.371-.723.707a.72.72 0 0 0 .711.707c.453 0 .723-.371.723-.707zm2.864 9.726l-.004.008v.008l-.004.012v.008l-.004.02-.008.023-.012.059-.008.02v.02l-.004.008v.008l-.004.012v.008l-.004.008v.016l-.004.004v.012l-.004.008v.008c0 .113.09.172.18.172.078 0 .191-.051.234-.176.008-.012.082-.305.117-.465l.141-.562.105-.418.082-.312c.094-.195.426-.766 1.02-.766.281 0 .34.23.34.438 0 .391-.309 1.191-.41 1.461-.055.141-.062.219-.062.289a.5.5 0 0 0 .516.512c.59 0 .82-.914.82-.965 0-.062-.059-.062-.078-.062-.059 0-.059.02-.09.113-.129.426-.332.777-.641.777-.105 0-.148-.066-.148-.207 0-.156.055-.309.109-.445.121-.332.383-1.02.383-1.379 0-.418-.27-.668-.719-.668-.562 0-.871.402-.977.543-.031-.352-.289-.543-.578-.543s-.406.242-.469.355a3.01 3.01 0 0 0-.187.609c0 .063.063.063.078.063.063 0 .066-.008.105-.145.105-.445.23-.746.457-.746.121 0 .195.082.195.289 0 .129-.023.199-.102.523zm5.296-.918h1.07c.051 0 .125 0 .125-.078s-.074-.074-.125-.074h-1.07v-1.074c0-.055 0-.125-.078-.125s-.074.07-.074.125v1.074h-1.07c-.055 0-.129 0-.129.074s.074.078.129.078h1.07v1.07c0 .055 0 .129.074.129s.078-.074.078-.129zm-1.25-10.265v-.016l-.004-.004v-.004l-.004-.004v-.004h-.004v-.004h-.004v-.004h-.004v-.004h-.004l-.004-.004h-.008v-.004h-.016c-.016 0-.02.004-.074.059l-.34.375c-.043-.066-.27-.434-.812-.434-1.086 0-2.184 1.078-2.184 2.207 0 .809.578 1.336 1.324 1.336a1.62 1.62 0 0 0 1.051-.418c.453-.398.535-.844.535-.855 0-.051-.047-.051-.055-.051-.031 0-.055.008-.066.051-.043.141-.156.484-.492.77-.336.27-.645.355-.895.355-.441 0-.957-.254-.957-1.016 0-.277.102-1.066.59-1.637.297-.348.758-.59 1.188-.59.5 0 .785.375.785.941l-.012.246c0 .051.051.051.07.051.063 0 .063-.012.09-.098zm0 0" class="B C"/><g class="F"><path d="M168.391 18.801l83.523.27" class="E I"/><path d="M247.988 17.242l4.918 1.824-4.93 1.797c.789-1.066.793-2.531.012-3.621zm0 0" class="B C D O"/><path d="M235.285 49.02l15.805 11.516" class="E G"/><path d="M248.988 56.758l2.906 4.355-5.035-1.434c1.262-.398 2.117-1.582 2.129-2.922zm0 0" class="B C D H"/><path d="M235.82 76.605l14.734-6.961" class="E G"/><g class="D"><path d="M246.23 69.68l5.219-.469-3.672 3.738c.254-1.301-.375-2.621-1.547-3.27zm0 0" class="B C H"/><path d="M7.609 2.727h20.137v84.172H7.609zm0 0" class="J K L"/></g></g><path d="M15.813 63.25v-.031l-.004-.035-.004-.031-.008-.035-.016-.062-.008-.035-.016-.031-.012-.027-.031-.062-.02-.027-.02-.031-.023-.027-.02-.023-.023-.027-.023-.023-.055-.047-.023-.02-.062-.039-.031-.016-.027-.012-.035-.016-.035-.012-.031-.012-.035-.008-.035-.004-.035-.008h-.039l-.035-.004c-.457 0-.723.375-.723.707a.72.72 0 0 0 .707.711c.453 0 .723-.375.723-.711zm0 0" class="B C"/><path d="M74.465 28.719h20.207v58.105H74.465zm0 0" class="D F J K M N"/><path d="M80.496 36.918v-.031l-.004-.035-.004-.031-.004-.035-.008-.031-.008-.035-.012-.031-.016-.031-.012-.031-.016-.027-.016-.031-.02-.027-.02-.031-.02-.027-.023-.027-.07-.07-.027-.023-.027-.02-.031-.02-.027-.02-.035-.016-.027-.012-.031-.016-.07-.023-.031-.008-.039-.004-.035-.008h-.039l-.035-.004c-.453 0-.723.371-.723.707a.72.72 0 0 0 .707.711c.453 0 .723-.375.723-.711zm7.484 9h1.066c.055 0 .129 0 .129-.078s-.074-.078-.129-.078H87.98v-1.07c0-.055 0-.129-.078-.129s-.074.074-.074.129v1.07h-1.074c-.055 0-.125 0-.125.078s.07.078.125.078h1.074v1.07c0 .055 0 .129.074.129s.078-.074.078-.129zm3.833-2.742v-.031l-.004-.004v-.027l-.004-.004v-.004h-.004v-.004l-.004-.004v-.004h-.004l-.004-.004h-.004l-.004-.004h-.016v-.004h-.055c-.211.211-.512.211-.645.211v.121c.078 0 .297 0 .477-.094v1.684c0 .109 0 .152-.328.152h-.125v.117l.586-.012.59.012v-.117h-.125c-.328 0-.328-.043-.328-.152zm0 0" class="B C"/><path d="M90.75 46.008h1.887v-.191H90.75" class="B"/><path d="M92.371 48.152h-.113c-.008.07-.043.266-.086.301-.023.02-.277.02-.324.02h-.609l.66-.555c.246-.195.473-.398.473-.715 0-.398-.348-.645-.773-.645-.406 0-.684.289-.684.594 0 .168.141.184.176.184.078 0 .172-.059.172-.176 0-.059-.023-.172-.195-.172.105-.234.328-.309.484-.309.328 0 .5.258.5.523 0 .289-.203.516-.309.633l-.797.789c-.031.027-.031.035-.031.129h1.359zm-6.23-13.132v-.004l-.004-.004V35h-.004v-.008h-.004v-.004h-.004v-.004l-.008-.008h-.004l-.004-.004h-.012v-.004h-.012c-.023 0-.031.004-.09.074l-.234.277c-.125-.227-.379-.352-.695-.352-.621 0-1.203.563-1.203 1.152a.69.69 0 0 0 .504.691l.523.137c.18.043.449.117.449.516 0 .441-.402.898-.879.898-.312 0-.852-.109-.852-.711 0-.117.023-.234.027-.266.004-.02.012-.023.012-.031 0-.051-.035-.055-.059-.055s-.035.004-.051.02a25.92 25.92 0 0 0-.293 1.145c0 .027.027.047.055.047s.031-.004.086-.07l.242-.277c.207.281.539.348.82.348.664 0 1.242-.645 1.242-1.25 0-.336-.168-.504-.238-.57-.113-.113-.187-.133-.621-.246l-.328-.086c-.133-.043-.297-.184-.297-.441 0-.398.391-.812.855-.812.406 0 .699.211.699.758 0 .156-.02.242-.02.27 0 .008 0 .051.059.051.051 0 .055-.016.074-.098zm-5.778 32.957v-.031l-.004-.035-.004-.031-.016-.07-.016-.062-.016-.031-.012-.031-.016-.027-.02-.031-.016-.031-.02-.027-.023-.027-.02-.027-.023-.023-.027-.023-.023-.023-.027-.023-.055-.039-.031-.02-.031-.016-.027-.016-.07-.023-.031-.012-.07-.016-.035-.004-.039-.004h-.039a.71.71 0 0 0-.719.707.72.72 0 0 0 .707.707c.453 0 .723-.371.723-.707zm7.617 9.265h1.066c.055 0 .129 0 .129-.078s-.074-.074-.129-.074H87.98v-1.074c0-.051 0-.125-.078-.125s-.074.074-.074.125v1.074h-1.074c-.055 0-.125 0-.125.074s.07.078.125.078h1.074v1.07c0 .055 0 .129.074.129s.078-.074.078-.129zm3.829-2.742v-.062h-.004v-.004l-.004-.004v-.004l-.008-.008h-.004v-.004h-.008l-.004-.004h-.023l-.004-.004h-.039c-.211.211-.512.215-.645.215v.117c.078 0 .297 0 .477-.094v1.684c0 .109 0 .152-.328.152h-.125v.121l.586-.016.59.016v-.121h-.125c-.332 0-.332-.043-.332-.152zm0 0" class="C B"/><path d="M90.75 77.336h1.887v-.195H90.75" class="B"/><path d="M92.371 79.477h-.113c-.008.074-.043.27-.086.301-.023.02-.277.02-.324.02h-.609l.66-.555c.246-.195.473-.398.473-.711 0-.402-.348-.645-.773-.645-.406 0-.684.285-.684.59 0 .168.141.184.176.184.078 0 .172-.055.172-.176 0-.059-.023-.172-.195-.172.105-.234.328-.305.484-.305.328 0 .5.254.5.523 0 .285-.203.512-.309.633l-.797.785c-.031.027-.031.035-.031.129h1.359zm-5.641-12.5v-.012h-.004v-.012h-.004v-.004l-.016-.016h-.004l-.004-.004h-.008l-.004-.004h-.012c-.012 0-.02.004-.074.059l-.34.375c-.043-.066-.266-.434-.809-.434-1.086 0-2.184 1.078-2.184 2.211a1.27 1.27 0 0 0 1.32 1.332c.426 0 .793-.191 1.055-.418.453-.398.535-.844.535-.855 0-.051-.051-.051-.059-.051-.027 0-.055.012-.062.051a1.58 1.58 0 0 1-.492.77c-.336.273-.645.355-.898.355-.437 0-.953-.254-.953-1.016 0-.277.102-1.066.586-1.637.301-.348.758-.59 1.191-.59.5 0 .785.375.785.941 0 .195-.016.199-.016.25s.055.047.074.047c.063 0 .063-.012.086-.098zm0 0" class="C B"/><g class="F"><path d="M27.348 66.105l44.734 8.035" class="E G"/><path d="M68.539 71.66l4.52 2.648-5.16.91c.965-.91 1.219-2.348.641-3.559zm0 0" class="B C D H"/><g class="E"><path d="M12.609 22.988s-.535 44.785 54.387 50.098" class="P"/><path d="M27.617 61.82l45.535-16.07" class="G"/></g><path d="M68.848 45.344l5.238.066-4.035 3.344c.387-1.27-.105-2.645-1.203-3.41zm0 0" class="B C D H"/><g class="E"><path d="M17.422 23.25S28.41 61.262 69.148 47.246" class="Q"/><path d="M15.695 59.801S36.18 19.055 94.848 19.055" class="I"/></g></g><path d="M83.914 44.281v-.062l-.004-.004v-.016l-.004-.004v-.004h-.004v-.004l-.012-.012h-.012v-.004h-.039l-.008-.004h-.016c-.262.273-.637.273-.773.273v.133c.086 0 .336 0 .555-.109v2.203c0 .152-.012.203-.395.203h-.137v.133c.152-.016.52-.016.691-.016l.688.016v-.133h-.137c-.383 0-.395-.047-.395-.203zm0 31.442v-.059l-.004-.004v-.016l-.004-.004v-.008l-.012-.012h-.004v-.004h-.012v-.004h-.02l-.004-.004h-.039c-.266.273-.641.273-.773.273v.133c.086 0 .336 0 .555-.113v2.207c0 .152-.012.203-.395.203h-.137v.133c.148-.016.52-.016.691-.016l.688.016v-.133h-.137c-.383 0-.395-.047-.395-.203zm0 0" class="B C"/><path d="M28.039 18.801l66.293.27" class="E F I"/><path d="M106.074 18.957v-.047l-.004-.055-.008-.047-.008-.051-.012-.047-.031-.094-.02-.047-.016-.043-.023-.043-.023-.039-.027-.043-.055-.078-.035-.035-.031-.035-.039-.035-.031-.027-.039-.031-.078-.055-.043-.027-.047-.02-.039-.02-.047-.02-.051-.016-.043-.016-.051-.012-.047-.008-.051-.008-.051-.004h-.051a1.01 1.01 0 0 0-1 1 1.01 1.01 0 0 0 1 1 1.01 1.01 0 0 0 1-1zm8.364 0v-.047l-.004-.055-.008-.047-.008-.051-.012-.047-.047-.141-.02-.043-.023-.043-.023-.039-.027-.043-.055-.078-.07-.07-.031-.035-.035-.027-.039-.031-.043-.027-.035-.027-.043-.027-.047-.02-.039-.02-.047-.02-.094-.031-.051-.012-.047-.008-.051-.008-.051-.004h-.051a1.01 1.01 0 0 0-1 1 1.01 1.01 0 0 0 1 1c.551 0 1-.453 1-1zm8.359 0v-.047l-.004-.055-.008-.047-.008-.051-.012-.047-.016-.047-.012-.047-.016-.047-.047-.086-.023-.039-.027-.043-.023-.039-.031-.039-.031-.035-.035-.035-.031-.035-.039-.027-.039-.031-.035-.027-.086-.055-.039-.02-.094-.039-.043-.016-.051-.016-.051-.012-.047-.008-.051-.008-.047-.004h-.055c-.543 0-1 .457-1 1a1.01 1.01 0 0 0 1 1 1 1 0 0 0 1-1zm-16.723 48.145v-.047L106.07 67l-.008-.051-.008-.047-.012-.047-.031-.094-.02-.047-.039-.086-.023-.043-.082-.117-.035-.035-.031-.035-.039-.035-.031-.031-.117-.082-.043-.027-.047-.023-.039-.016-.047-.02-.051-.016-.043-.016-.051-.012-.051-.008-.047-.008-.051-.004h-.051a1.01 1.01 0 0 0-1 1 1.01 1.01 0 0 0 1 1 1.01 1.01 0 0 0 1-1zm8.364 0v-.047l-.004-.055-.008-.051-.008-.047-.012-.047-.031-.094-.02-.047-.016-.043-.047-.086-.027-.039-.031-.039-.023-.039-.137-.137-.039-.027-.043-.027-.035-.027-.043-.027-.047-.023-.039-.016-.047-.02-.051-.016-.043-.016-.051-.012-.047-.008-.051-.008-.051-.004h-.051a1.01 1.01 0 0 0-1 1 1.01 1.01 0 0 0 1 1 1.01 1.01 0 0 0 1-1zm8.359 0v-.047l-.004-.055-.008-.051-.008-.047-.012-.047-.031-.094-.012-.047-.07-.129-.082-.117-.031-.035-.035-.035-.031-.035-.039-.031-.117-.082-.043-.027-.043-.023-.043-.016-.047-.02-.043-.016-.051-.016-.051-.012-.047-.008-.051-.008-.051-.004h-.051c-.543 0-1 .457-1 1a1.01 1.01 0 0 0 1 1c.551 0 1-.453 1-1zm0 0" class="B C"/><g class="F"><path d="M129.953 49.02l15.801 11.516" class="E G"/><path d="M143.652 56.758l2.91 4.359-5.039-1.438c1.266-.398 2.121-1.582 2.129-2.922zm0 0" class="B C D H"/><path d="M130.488 76.609l14.73-6.965" class="E G"/><path d="M140.898 69.68l5.215-.465-3.672 3.734c.254-1.301-.375-2.621-1.543-3.27zm0 0" class="B C D H"/><path d="M129.879 18.766l16.508.266" class="E I"/><g class="D"><path d="M142.484 17.148l4.895 1.891-4.953 1.73c.805-1.055.824-2.516.059-3.621zm0 0" class="B C O"/><path d="M394.047 2.723h20.137v84.176h-20.137zm0 0" class="J K L"/></g></g><path d="M399.887 62.469v-.031l-.004-.035-.004-.031-.008-.035-.008-.031-.008-.035-.023-.062-.016-.031-.016-.027-.016-.031-.02-.027-.016-.031-.023-.027-.02-.027-.027-.023-.047-.047-.027-.023-.055-.039-.031-.02-.031-.016-.031-.012-.031-.016-.035-.012-.031-.012-.035-.008-.039-.004-.035-.008h-.035l-.039-.004c-.453 0-.723.371-.723.707 0 .363.309.711.711.711.453 0 .723-.375.723-.711zm7.972 9.379h1.066c.055 0 .129 0 .129-.078s-.074-.078-.129-.078h-1.066v-1.07c0-.055 0-.129-.078-.129s-.074.074-.074.129v1.07h-1.074c-.055 0-.125 0-.125.078s.07.078.125.078h1.074v1.07c0 .055 0 .129.074.129s.078-.074.078-.129zm3.829-2.743v-.059h-.004v-.012h-.004v-.004l-.004-.004v-.004h-.004l-.004-.004h-.004l-.004-.004h-.016v-.004h-.055c-.211.211-.512.211-.645.211v.121c.078 0 .297 0 .477-.094v1.684c0 .109 0 .152-.332.152h-.121v.117l.586-.012.59.012v-.117h-.125c-.332 0-.332-.043-.332-.152zm0 0" class="B C"/><path d="M410.629 71.938h1.887v-.191h-1.887" class="B"/><g class="C B"><use xlink:href="#B"/><path d="M352.07 18.957v-.047l-.004-.055-.008-.047-.008-.051-.008-.047-.031-.094-.02-.047-.02-.043-.023-.043-.023-.039-.023-.043-.027-.039-.031-.039-.035-.035-.027-.035-.039-.035-.035-.027-.039-.031-.035-.027-.086-.055-.129-.059-.051-.016-.047-.016-.047-.012-.102-.016-.047-.004h-.055c-.543 0-1 .457-1 1a1.01 1.01 0 0 0 1 1c.551 0 1-.453 1-1zm8.364 0v-.047l-.004-.055-.008-.047-.004-.051-.012-.047-.031-.094-.02-.047-.02-.043-.023-.043-.02-.039-.027-.043-.031-.039-.027-.039-.035-.035-.031-.035-.035-.035-.035-.027-.035-.031-.043-.027-.078-.055-.047-.02-.086-.039-.051-.016-.047-.016-.047-.012-.051-.008-.047-.008-.051-.004h-.055c-.543 0-1 .457-1 1a1.01 1.01 0 0 0 1 1c.551 0 1-.453 1-1zm8.359 0v-.102l-.008-.047-.008-.051-.012-.047-.047-.141-.047-.086-.02-.039-.027-.043-.027-.039-.031-.039-.027-.035-.07-.07-.039-.027-.035-.031-.039-.027-.043-.027-.039-.027-.043-.02-.047-.02-.043-.02-.047-.016-.051-.016-.047-.012-.051-.008-.047-.008-.051-.004h-.055c-.539 0-1 .457-1 1s.461 1 1 1a1 1 0 0 0 1-1zM352.07 67.102v-.047l-.004-.055-.008-.051-.008-.047-.023-.094-.016-.047-.02-.047-.02-.043-.047-.086-.023-.039-.027-.039-.031-.039-.035-.035-.027-.035-.039-.035-.035-.031-.039-.027-.035-.027-.086-.055-.043-.023-.043-.016-.047-.02-.094-.031-.047-.012-.102-.016-.047-.004h-.055c-.543 0-1 .457-1 1a1.01 1.01 0 0 0 1 1c.551 0 1-.453 1-1zm8.364 0v-.047L360.43 67l-.008-.051-.008-.047-.023-.094-.016-.047-.02-.047-.02-.043-.047-.086-.023-.039-.031-.039-.027-.039-.035-.035-.031-.035-.035-.035-.035-.031-.117-.082-.043-.027-.043-.023-.043-.016-.047-.02-.094-.031-.047-.012-.102-.016-.047-.004h-.055c-.543 0-1 .457-1 1a1.01 1.01 0 0 0 1 1c.551 0 1-.453 1-1zm8.359 0v-.047l-.004-.055-.008-.051-.004-.047-.012-.047-.047-.141-.047-.086-.02-.043-.055-.078-.031-.039-.062-.07-.035-.035-.039-.031-.035-.027-.039-.027-.043-.027-.039-.027-.043-.023-.047-.016-.043-.02-.047-.016-.051-.016-.047-.012-.051-.008-.047-.008-.051-.004h-.055c-.539 0-1 .457-1 1s.461 1 1 1a1 1 0 0 0 1-1zm0 0"/></g><g class="F"><path d="M375.949 49.02l15.805 11.516" class="E G"/><path d="M389.652 56.758l2.906 4.359-5.035-1.437c1.262-.398 2.117-1.582 2.129-2.922zm0 0" class="B C D H"/><path d="M376.484 76.609l14.734-6.965" class="E G"/><path d="M386.895 69.68l5.219-.465-3.672 3.734c.254-1.301-.375-2.621-1.547-3.27zm0 0" class="B C D H"/><path d="M375.879 18.766l16.504.266" class="E I"/><path d="M388.484 17.148l4.895 1.891-4.953 1.73c.805-1.055.824-2.516.059-3.621zm0 0" class="B C D O"/></g><path d="M408.117 20.125l.012-.047.004-.012.008-.016.004-.016.008-.012.004-.016.016-.023.008-.016.008-.012.012-.012.008-.012.012-.008.012-.012.016-.008.012-.012.016-.008.016-.012.016-.004.016-.008.039-.016.023-.004.02-.008.023-.004.027-.004.023-.004.027-.004h.063c.02 0 .07-.008.07-.086 0-.004 0-.047-.055-.047l-.418.016c-.145 0-.289-.016-.426-.016-.023 0-.074 0-.074.086 0 .047.043.047.074.047.238 0 .281.09.281.18a.65.65 0 0 1-.012.086l-.465 1.848-.918-2.164c-.031-.074-.035-.082-.129-.082h-.559c-.082 0-.121 0-.121.086 0 .047.039.047.117.047.02 0 .281 0 .281.035l-.555 2.23c-.043.164-.113.297-.449.309-.023 0-.07.004-.07.082 0 .031.02.047.055.047l.414-.012.426.012c.023 0 .074 0 .074-.082 0-.043-.035-.047-.078-.047-.242-.008-.277-.098-.277-.18 0-.031.004-.051.02-.098l.547-2.191c.016.023.016.031.039.074l1.031 2.445c.027.07.039.078.078.078.047 0 .047-.012.066-.086zm-3.375 50.531l.012-.047.008-.012.008-.031.008-.012.004-.016.016-.023.008-.016.008-.012.012-.012.008-.012.012-.008.012-.012.016-.008.012-.012.063-.031.039-.016.023-.004.02-.008.023-.004.027-.004.023-.004.027-.004h.063c.02 0 .07-.004.07-.086 0-.004 0-.043-.055-.043l-.418.012c-.141 0-.289-.012-.426-.012-.023 0-.074 0-.074.082 0 .047.043.047.074.047.238 0 .285.09.285.18a.6.6 0 0 1-.016.09l-.461 1.844-.918-2.164c-.035-.074-.039-.078-.133-.078h-.559c-.082 0-.121 0-.121.082 0 .047.039.047.117.047.02 0 .281 0 .281.035l-.555 2.23c-.043.164-.113.297-.449.309-.023 0-.07.004-.07.086 0 .027.02.043.055.043l.414-.012.43.012c.02 0 .074 0 .074-.082 0-.043-.039-.047-.082-.047-.242-.008-.277-.098-.277-.18 0-.031.004-.051.02-.098l.547-2.191.039.074 1.031 2.445c.031.07.043.078.078.078.047 0 .047-.012.066-.086zm0 0" class="B C"/><path d="M320.594 28.719h20.211v58.105h-20.211zm0 0" class="D F J K M N"/><g class="B C"><path d="M325.906 37.031V37l-.004-.035-.004-.031-.008-.035-.008-.031-.008-.035-.008-.031-.016-.031-.012-.031-.016-.027-.02-.031-.016-.027-.02-.031-.023-.027-.02-.027-.023-.023-.027-.023-.023-.023-.027-.023-.023-.02-.062-.039-.031-.016-.027-.012-.035-.016-.035-.012-.031-.012-.07-.016-.035-.004-.039-.004h-.039a.71.71 0 0 0-.719.707.72.72 0 0 0 .707.711c.453 0 .723-.375.723-.711zm8.16 9h1.07c.055 0 .125 0 .125-.078s-.07-.078-.125-.078h-1.07v-1.07c0-.055 0-.129-.074-.129s-.078.074-.078.129v1.07h-1.07c-.055 0-.125 0-.125.078s.07.078.125.078h1.07v1.07c0 .055 0 .125.078.125s.074-.07.074-.125zm0 0"/><path d="M332.227 35.133v-.016l-.004-.004v-.004l-.004-.004v-.004h-.004v-.004l-.004-.004h-.004l-.008-.008h-.008v-.004h-.02c-.023 0-.027.004-.086.074l-.234.277c-.129-.227-.379-.352-.699-.352-.617 0-1.203.563-1.203 1.152a.7.7 0 0 0 .508.691l.52.137c.184.043.453.117.453.516 0 .441-.402.898-.879.898-.312 0-.855-.109-.855-.711 0-.117.027-.234.031-.266.004-.02.008-.023.008-.035 0-.047-.031-.051-.059-.051s-.031.004-.047.02a25.92 25.92 0 0 0-.293 1.145c0 .027.023.047.055.047.023 0 .027-.004.086-.07l.238-.277c.211.281.543.348.824.348.664 0 1.238-.648 1.238-1.25 0-.336-.164-.504-.238-.57-.109-.113-.184-.133-.617-.246l-.328-.086c-.133-.043-.297-.184-.297-.445 0-.395.391-.809.852-.809.406 0 .703.211.703.758 0 .156-.02.242-.02.27 0 .008 0 .051.059.051.051 0 .055-.016.074-.098zm-6.512 33.222v-.066l-.008-.031-.004-.035-.016-.062-.012-.035-.012-.031-.016-.027-.031-.062-.02-.027-.02-.031-.02-.027-.023-.023-.023-.027-.047-.047-.027-.023-.027-.02-.031-.02-.027-.02-.031-.016-.031-.012-.031-.016-.035-.012-.031-.012-.035-.008-.039-.004-.035-.008h-.035l-.039-.004c-.453 0-.723.375-.723.707a.72.72 0 0 0 .707.711c.457 0 .723-.375.723-.711zm8.351 9h1.07c.055 0 .125 0 .125-.078s-.07-.074-.125-.074h-1.07v-1.074c0-.055 0-.125-.074-.125s-.078.07-.078.125v1.074h-1.07c-.055 0-.129 0-.129.074s.074.078.129.078h1.07v1.07c0 .055 0 .129.078.129s.074-.074.074-.129zm-1.25-10.265v-.016l-.004-.004v-.004l-.004-.004v-.004l-.008-.008h-.004v-.004h-.004v-.004h-.012v-.004h-.016c-.016 0-.02.004-.074.059l-.34.375c-.043-.066-.27-.434-.809-.434-1.09 0-2.187 1.078-2.187 2.207 0 .809.578 1.336 1.324 1.336a1.62 1.62 0 0 0 1.051-.418c.453-.398.535-.844.535-.855 0-.051-.047-.051-.055-.051-.031 0-.055.008-.066.051-.043.141-.156.484-.492.77-.336.27-.645.355-.895.355-.441 0-.957-.254-.957-1.016 0-.277.102-1.066.59-1.637.297-.348.758-.59 1.188-.59.5 0 .789.375.789.941 0 .195-.016.199-.016.246s.051.051.074.051c.063 0 .063-.012.086-.098zm0 0"/></g><path d="M273.938 18.801l66.484.27" class="E F I"/><path d="M328.547 46.68v.008l-.004.008v.012l-.004.008-.008.039-.004.023-.004.02-.008.02-.004.02v.012l-.008.016v.008l-.004.012v.016l-.004.008v.02l-.004.004v.016c0 .113.086.172.18.172a.25.25 0 0 0 .23-.176 10 10 0 0 0 .121-.465l.137-.562.105-.418.086-.312c.094-.195.426-.766 1.016-.766.281 0 .34.23.34.438 0 .391-.309 1.191-.406 1.461-.055.141-.062.219-.062.289a.5.5 0 0 0 .512.512c.59 0 .82-.914.82-.965 0-.062-.055-.062-.074-.062-.062 0-.062.02-.094.113-.125.426-.332.773-.641.773-.105 0-.148-.062-.148-.203 0-.16.059-.309.113-.445.117-.332.383-1.02.383-1.379 0-.418-.27-.668-.723-.668-.562 0-.867.398-.973.543-.031-.352-.289-.543-.578-.543s-.406.242-.469.355a3.15 3.15 0 0 0-.191.609c0 .063.066.063.078.063.063 0 .066-.008.105-.145.105-.445.23-.746.457-.746.125 0 .195.082.195.289 0 .129-.02.199-.102.523zm0 31.437l-.004.012v.008l-.004.012v.008l-.008.039-.004.023-.008.02-.008.039-.004.012v.008l-.004.008v.008l-.004.012v.008l-.004.008v.02l-.004.008v.02c0 .113.086.172.18.172.074 0 .188-.051.23-.176a11.76 11.76 0 0 0 .121-.465l.137-.562.105-.422.082-.309c.094-.195.426-.766 1.02-.766.281 0 .34.23.34.438 0 .391-.309 1.191-.41 1.457a.73.73 0 0 0-.059.289.5.5 0 0 0 .512.516c.59 0 .82-.914.82-.965 0-.062-.059-.062-.078-.062-.059 0-.059.02-.09.113-.125.426-.332.773-.641.773-.105 0-.148-.062-.148-.203 0-.16.055-.309.109-.445.121-.332.387-1.02.387-1.379 0-.418-.273-.668-.723-.668-.562 0-.871.398-.977.543-.031-.352-.289-.543-.578-.543s-.406.242-.469.355a3.31 3.31 0 0 0-.187.609c0 .063.063.063.078.063.063 0 .066-.008.105-.145.105-.445.23-.746.457-.746.125 0 .195.082.195.285 0 .133-.02.203-.102.527zm0 0" class="B C"/><g class="F"><path d="M167.836 66.105l44.734 8.035" class="E G"/><path d="M209.027 71.66l4.52 2.648-5.156.91c.961-.91 1.215-2.348.637-3.559zm0 0" class="B C D H"/><g class="E"><path d="M153.098 22.988s-.535 44.785 54.387 50.098" class="P"/><path d="M168.105 61.82l45.535-16.07" class="G"/></g><path d="M209.336 45.344l5.238.066-4.035 3.344c.387-1.27-.105-2.645-1.203-3.41zm0 0" class="B C D H"/><g class="E"><path d="M157.91 23.25s10.988 38.012 51.727 23.996" class="Q"/><path d="M156.184 59.801s20.484-40.746 79.152-40.746" class="I"/><path d="M273.48 66.105l44.73 8.035" class="G"/></g><path d="M314.672 71.66l4.52 2.648-5.16.91c.961-.91 1.215-2.348.641-3.559zm0 0" class="B C D H"/><g class="E"><path d="M258.742 22.988s-.535 44.785 54.387 50.098" class="P"/><path d="M273.746 61.82l45.535-16.07" class="G"/></g><path d="M314.98 45.344l5.238.066-4.035 3.344c.383-1.27-.105-2.645-1.203-3.41zm0 0" class="B C D H"/><g class="E"><path d="M263.555 23.25s10.988 38.012 51.723 23.996" class="Q"/><path d="M261.824 59.801s20.488-40.746 79.156-40.746" class="I"/></g></g><path d="M20.633 21.113v-.184l-.008-.125-.004-.059-.016-.125-.008-.059-.012-.059-.016-.062-.031-.117-.02-.059-.023-.059-.016-.027-.012-.027a.76.76 0 0 0-.699-.465c-.246 0-.547.109-.719.492-.129.285-.152.605-.152.934 0 .309.02.68.188.992a.75.75 0 0 0 .68.418v-.09c-.16 0-.406-.105-.48-.5-.043-.246-.043-.625-.043-.871l.031-.754c.078-.492.387-.527.492-.527.137 0 .406.07.484.48.043.23.043.543.043.801 0 .313 0 .59-.047.855-.062.391-.297.516-.48.516v.09c.223 0 .535-.086.715-.48.133-.281.152-.602.152-.93zm-.676 47.016v-.059h-.004v-.012l-.008-.008v-.004h-.004l-.004-.004h-.004l-.004-.004h-.016l-.004-.004h-.051c-.211.207-.512.211-.645.211v.117c.078 0 .297 0 .477-.09v1.684c0 .109 0 .152-.332.152h-.121v.117l.586-.012.59.012v-.117h-.125c-.332 0-.332-.043-.332-.152zm0 0" class="B C"/><path d="M18.898 70.961h1.887v-.191h-1.887" class="B"/><path d="M20.52 73.105h-.113c-.008.07-.043.266-.086.301-.023.016-.277.016-.324.016h-.609l.66-.551c.246-.195.473-.398.473-.715 0-.398-.348-.645-.773-.645-.406 0-.687.289-.687.59 0 .172.145.188.18.188.074 0 .172-.059.172-.176 0-.059-.023-.172-.195-.172.102-.234.328-.309.484-.309.328 0 .5.258.5.523 0 .289-.203.516-.309.633l-.797.785c-.035.031-.035.039-.035.129h1.363zm211.089-28.914h.023l.023.004h.023l.023.004.02.008.023.004.078.031.039.023.016.016.016.012.031.031.016.02.012.016.016.02.012.02.008.023.012.023.012.02.008.027.008.023.004.027.008.027.004.027.004.031v.031l.004.031v.031c0 .41-.238.531-.43.531-.129 0-.422-.035-.559-.23a.18.18 0 0 0 .191-.184.18.18 0 0 0-.184-.184c-.09 0-.184.059-.184.191 0 .313.344.512.742.512.457 0 .773-.305.773-.637 0-.258-.207-.516-.574-.59.348-.125.473-.371.473-.574 0-.262-.301-.457-.664-.457s-.648.18-.648.445c0 .109.074.172.172.172s.168-.074.168-.168-.066-.164-.168-.168c.117-.148.344-.184.465-.184.148 0 .355.07.355.359a.62.62 0 0 1-.129.391c-.109.129-.203.137-.367.145l-.105.008c-.008 0-.035.008-.035.043 0 .047.031.047.086.047zm0 0" class="C B"/><path d="M230.754 46.031h1.887v-.195h-1.887" class="B"/><path d="M232.375 48.172h-.113c-.008.07-.043.27-.086.301-.027.02-.281.02-.324.02h-.609l.66-.555c.242-.195.473-.398.473-.715 0-.398-.352-.641-.773-.641-.41 0-.687.285-.687.59 0 .168.145.184.176.184.078 0 .176-.055.176-.176 0-.059-.023-.172-.195-.172.102-.234.328-.309.48-.309.332 0 .504.258.504.523 0 .289-.203.516-.312.633l-.793.789c-.035.027-.035.035-.035.129h1.359zm-.766 27.359h.047l.07.012.02.008.023.008.02.004.02.012.02.008.016.012.02.012.016.016.02.012.031.031.012.02.016.016.023.039.012.023.008.02.012.023.008.027.008.023.008.027.008.055.008.063v.031l.004.031c0 .41-.242.531-.43.531-.133 0-.426-.035-.562-.23.152-.008.191-.117.191-.184 0-.105-.078-.184-.184-.184-.09 0-.184.059-.184.191 0 .313.344.512.742.512.457 0 .777-.309.777-.637 0-.258-.211-.516-.574-.59.344-.129.473-.375.473-.574 0-.262-.301-.457-.668-.457s-.648.18-.648.441c0 .113.074.176.172.176.105 0 .168-.074.168-.168s-.062-.164-.168-.172c.117-.145.344-.18.465-.18.148 0 .359.07.359.359a.63.63 0 0 1-.133.391c-.109.125-.203.133-.367.145l-.105.008c-.008 0-.035.008-.035.043 0 .047.031.047.086.047zm0 0" class="C B"/><path d="M230.754 77.367h1.887v-.191h-1.887" class="B"/><g class="C B"><use xlink:href="#B" x="-179.875" y="5.43"/><path d="M337.004 43.5l.031.008.012.004.016.004h.016l.023.008h.016l.023.008h.023l.012.004h.02l.012.004h.035l.008.004h.074c.434 0 .691-.297.691-.348 0-.035-.023-.047-.039-.047-.008 0-.012 0-.027.012-.078.027-.254.094-.496.094-.094 0-.27-.004-.484-.09-.031-.016-.039-.016-.043-.016-.043 0-.043.039-.043.09v.973c0 .059 0 .098.055.098.027 0 .031-.008.066-.047.141-.18.344-.207.457-.207.199 0 .289.156.305.184.059.109.078.234.078.426 0 .098 0 .293-.102.438-.078.121-.223.199-.383.199-.215 0-.437-.117-.52-.336.125.008.188-.074.188-.16 0-.141-.121-.168-.164-.168-.004 0-.164 0-.164.176 0 .297.27.594.664.594.426 0 .793-.312.793-.727 0-.375-.285-.719-.691-.719-.145 0-.316.035-.461.164zm0 0"/></g><path d="M336.535 46.078h1.887v-.195h-1.887" class="B"/><path d="M338.156 48.219h-.109c-.012.07-.047.27-.086.301-.027.02-.281.02-.328.02h-.609l.66-.555c.246-.195.473-.398.473-.715 0-.398-.348-.641-.77-.641-.41 0-.687.285-.687.59 0 .168.141.184.176.184.078 0 .176-.055.176-.176 0-.059-.027-.172-.195-.172.102-.234.324-.309.48-.309.332 0 .5.258.5.523 0 .289-.203.516-.309.633l-.793.789c-.035.027-.035.035-.035.129h1.359zm-1.152 26.605l.047.012.012.004.016.004h.012l.016.004.012.004h.012l.012.004h.012l.012.004h.023l.008.004h.02l.012.004h.098c.434 0 .691-.297.691-.348 0-.035-.02-.043-.039-.043-.008 0-.012 0-.023.008-.082.031-.258.098-.5.098a1.33 1.33 0 0 1-.484-.09c-.031-.016-.039-.016-.043-.016-.043 0-.043.035-.043.086v.977c0 .055 0 .094.055.094.031 0 .031-.004.066-.043.145-.184.344-.211.461-.211.195 0 .285.16.301.188.059.105.078.23.078.426 0 .098 0 .293-.098.438a.47.47 0 0 1-.387.199c-.211 0-.434-.121-.52-.34.129.012.188-.07.188-.16 0-.141-.121-.168-.16-.168-.008 0-.168 0-.168.176 0 .301.27.598.668.598.422 0 .789-.316.789-.73 0-.375-.281-.715-.691-.715-.145 0-.316.035-.461.16zm0 0" class="C B"/><path d="M336.539 77.402h1.887v-.195h-1.887" class="B"/><g class="C B"><path d="M338.156 79.543h-.109c-.012.074-.043.27-.086.301-.027.02-.281.02-.328.02h-.605l.66-.555c.242-.195.469-.398.469-.711 0-.398-.348-.645-.77-.645-.41 0-.687.285-.687.59 0 .168.141.188.176.188.078 0 .176-.059.176-.176 0-.059-.023-.176-.195-.176.102-.234.328-.305.48-.305.332 0 .504.254.504.523 0 .285-.207.512-.312.633l-.793.785c-.035.031-.035.035-.035.129h1.359zM15.934 19.516l.117-.047.211-.105.102-.059.094-.062.09-.062.086-.066.078-.07.074-.07.07-.074.066-.074.063-.078.059-.082.055-.078.051-.082.047-.086.043-.086.039-.082.035-.086.063-.172.027-.09.023-.086.02-.086.016-.09.016-.082.023-.172.008-.082.004-.082.004-.078v-.082c0-1.648-1.109-2.73-2.805-2.73l-.008.305c.414 0 1.012.152 1.375.801.289.512.313 1.168.313 1.617 0 .426 0 1.566-.73 2.07-.168-.25-.445-.656-.957-.656-.387 0-.738.258-.738.625h.273c0-.207.223-.348.473-.348.215 0 .477.082.629.563a1.58 1.58 0 0 1-.629.121c-.418 0-.473-.246-.473-.336h-.273c0 .047.008.129.023.168-.941-.449-.961-1.609-.961-2.207 0-.305 0-1.031.281-1.57.398-.734 1.051-.848 1.395-.848l.008-.305c-1.746 0-2.809 1.125-2.809 2.73 0 1.559 1.039 2.672 2.809 2.672a3.59 3.59 0 0 0 .727-.07c.215.867.367 1.469 1.078 1.469.777 0 1.047-.902 1.047-1.418 0-.062 0-.199-.141-.199-.113 0-.129.098-.137.148-.043.293-.52.301-.648.301-.176 0-.402 0-.703-.449zm.402 51.375l.117-.047.211-.105.102-.059.094-.062.09-.062.082-.066.082-.07.074-.07.07-.074.066-.074.063-.078.059-.082.055-.078.051-.082.047-.086.043-.086.039-.082.035-.086.063-.172.027-.09.023-.086.02-.086.016-.09.016-.082.012-.086.008-.086.016-.164.004-.078v-.082c0-1.648-1.109-2.73-2.805-2.73l-.008.305a1.53 1.53 0 0 1 1.375.801c.289.512.313 1.168.313 1.617 0 .426 0 1.566-.73 2.07-.168-.25-.445-.656-.957-.656-.387 0-.738.258-.738.625h.273c0-.207.219-.348.473-.348.215 0 .473.082.629.563a1.58 1.58 0 0 1-.629.121c-.418 0-.473-.246-.473-.336h-.273c0 .047.008.129.023.168-.941-.449-.961-1.609-.961-2.207 0-.305 0-1.031.281-1.57a1.54 1.54 0 0 1 1.395-.848l.008-.305c-1.746 0-2.809 1.125-2.809 2.73 0 1.559 1.039 2.672 2.809 2.672a3.59 3.59 0 0 0 .727-.07c.215.867.367 1.469 1.078 1.469.777 0 1.047-.902 1.047-1.418 0-.062 0-.199-.141-.199-.113 0-.129.098-.137.148-.043.293-.52.301-.648.301-.176 0-.406 0-.703-.449zm38.367-33.043h-6.055v.473h1.082v5.859h-1.082v.473c.383-.031 1.391-.031 1.832-.031l2.02.031v-.473h-1.352v-2.703h.504c.961 0 1.051.43 1.051 1.172h.473v-2.812h-.473c0 .742-.082 1.172-1.051 1.172h-.504V38.32h1.402c1.613 0 1.844.766 1.992 1.938h.469zm0 0"/><path d="M51.188 76.887h1.133v-.469c-.41.031-1.379.031-1.836.031s-1.43 0-1.836-.031v.469h1.133v5.871h-1.133v.465c.406-.031 1.379-.031 1.836-.031l1.836.031v-.465h-1.133zm29.835-32.379l.117-.051.109-.051.102-.055.102-.059.094-.059.09-.062.082-.07.082-.066.145-.145.066-.078.063-.078.059-.078.055-.082.051-.082.047-.082.043-.086.039-.082.035-.086.031-.09.031-.086.027-.086.023-.086.02-.086.016-.09.016-.086.012-.082.008-.086.016-.164.004-.082v-.078c0-1.652-1.109-2.734-2.805-2.734l-.008.305c.414 0 1.008.156 1.375.805.289.512.313 1.168.313 1.617 0 .426 0 1.566-.73 2.07-.168-.254-.445-.656-.957-.656-.387 0-.738.258-.738.625h.273c0-.207.219-.352.473-.352.215 0 .473.086.629.566-.191.082-.422.121-.629.121-.418 0-.473-.246-.473-.336h-.273c0 .047.008.129.023.168-.941-.449-.961-1.609-.961-2.207 0-.309 0-1.031.281-1.574a1.55 1.55 0 0 1 1.395-.848l.008-.305c-1.746 0-2.809 1.129-2.809 2.734 0 1.559 1.039 2.672 2.809 2.672a3.59 3.59 0 0 0 .727-.07c.215.867.367 1.469 1.078 1.469.777 0 1.047-.902 1.047-1.418 0-.062 0-.199-.141-.199-.113 0-.129.098-.137.148-.043.293-.52.301-.648.301-.176 0-.406 0-.703-.449zm-.402 30.937l.117-.051.109-.051.102-.055.102-.059.094-.059.09-.062.086-.07.078-.066.145-.145.066-.078.063-.078.059-.078.055-.082.051-.082.047-.082.043-.086.039-.082.035-.086.031-.09.031-.086.027-.086.023-.086.02-.086.016-.09.016-.086.012-.082.012-.086.008-.082.008-.164v-.078c0-1.652-1.109-2.734-2.805-2.734l-.008.305c.414 0 1.012.156 1.375.805.289.512.313 1.168.313 1.617 0 .426 0 1.566-.73 2.07-.168-.254-.445-.656-.957-.656-.387 0-.738.258-.738.625h.273c0-.207.223-.352.473-.352.215 0 .477.086.629.566-.191.082-.422.121-.629.121-.418 0-.473-.246-.473-.336h-.273c0 .047.008.129.023.168-.941-.449-.961-1.609-.961-2.207 0-.309 0-1.031.281-1.574a1.55 1.55 0 0 1 1.395-.848l.008-.305c-1.746 0-2.809 1.129-2.809 2.734 0 1.559 1.039 2.672 2.809 2.672a3.59 3.59 0 0 0 .727-.07c.215.867.367 1.469 1.078 1.469.777 0 1.047-.902 1.047-1.418 0-.062 0-.199-.141-.199-.113 0-.129.098-.137.148-.043.293-.52.301-.648.301-.176 0-.402 0-.703-.449zm75.781-55.632l.117-.047.105-.051.105-.055.102-.059.094-.062.09-.062.082-.066.082-.07.074-.07.07-.074.066-.074.063-.078.059-.078.055-.082.051-.082.047-.086.043-.082.039-.086.035-.086.063-.172.027-.086.023-.09.02-.086.031-.172.012-.086.016-.164.008-.086.004-.078v-.078c0-1.652-1.109-2.734-2.805-2.734l-.008.305a1.53 1.53 0 0 1 1.375.801c.289.512.313 1.172.313 1.621 0 .426 0 1.566-.73 2.066-.168-.25-.445-.656-.957-.656-.387 0-.738.262-.738.625h.273c0-.203.219-.348.473-.348.215 0 .473.086.629.566-.191.082-.422.121-.629.121-.418 0-.473-.246-.473-.34h-.273c0 .047.008.129.023.168-.941-.449-.961-1.609-.961-2.203 0-.309 0-1.031.281-1.574a1.55 1.55 0 0 1 1.395-.848l.008-.305c-1.75 0-2.809 1.129-2.809 2.734 0 1.559 1.039 2.672 2.809 2.672a3.59 3.59 0 0 0 .727-.07c.215.863.363 1.469 1.074 1.469.781 0 1.047-.902 1.047-1.422 0-.062 0-.199-.137-.199-.113 0-.129.098-.137.152-.047.293-.52.301-.648.301-.176 0-.406 0-.703-.453zm-2.136 50.867l.113-.047.109-.051.105-.055.098-.059.094-.062.09-.062.086-.066.078-.07.074-.07.141-.148.117-.156.055-.082.051-.082.047-.086.043-.082.039-.086.07-.172.055-.172.023-.09.02-.086.031-.172.012-.086.012-.082.008-.082.004-.086.004-.078v-.078c0-1.652-1.109-2.734-2.801-2.734l-.008.305c.41 0 1.008.152 1.375.801.289.512.313 1.172.313 1.621 0 .426 0 1.566-.734 2.066-.168-.25-.441-.656-.953-.656-.391 0-.742.262-.742.625h.277c0-.203.219-.348.473-.348.211 0 .473.086.625.566-.191.082-.418.121-.625.121-.422 0-.473-.246-.473-.34h-.277c0 .047.008.129.023.168-.941-.449-.961-1.609-.961-2.203 0-.309 0-1.031.281-1.574a1.56 1.56 0 0 1 1.398-.848l.008-.305c-1.75 0-2.812 1.129-2.812 2.734 0 1.559 1.039 2.672 2.813 2.672a3.52 3.52 0 0 0 .723-.07c.215.863.367 1.469 1.078 1.469.777 0 1.047-.902 1.047-1.422 0-.062 0-.199-.141-.199-.109 0-.129.098-.137.152-.043.293-.52.301-.648.301-.172 0-.402 0-.699-.453zm41.73-32.832h-6.051v.469h1.082v5.863h-1.082v.473c.379-.031 1.391-.031 1.828-.031l2.023.031v-.473h-1.352v-2.703h.5c.961 0 1.051.43 1.051 1.172h.473v-2.812h-.473c0 .742-.078 1.172-1.051 1.172h-.5v-2.691h1.402c1.609 0 1.844.77 1.988 1.941h.469zm-3.512 39.039h1.133v-.469c-.41.027-1.379.027-1.836.027s-1.43 0-1.836-.027v.469h1.133v5.871h-1.133v.465c.406-.031 1.375-.031 1.836-.031l1.836.031v-.465h-1.133zm28.239-32.266l.113-.047.109-.051.105-.055.098-.059.094-.062.09-.062.086-.066.156-.141.07-.074.066-.074.063-.078.055-.082.059-.078.051-.082.043-.086.043-.082.078-.172.063-.172.023-.09.023-.086.039-.172.012-.086.016-.086.008-.082.008-.086.008-.082v-.16c0-1.648-1.105-2.73-2.801-2.73l-.008.305c.41 0 1.008.152 1.375.801.289.512.313 1.168.313 1.617 0 .43 0 1.566-.734 2.07-.168-.25-.441-.656-.953-.656-.391 0-.742.258-.742.625h.277c0-.203.219-.348.473-.348.215 0 .473.082.625.566-.191.082-.418.121-.625.121-.422 0-.473-.25-.473-.34h-.277c0 .047.008.129.027.168-.941-.449-.965-1.609-.965-2.207 0-.305 0-1.031.281-1.57a1.55 1.55 0 0 1 1.398-.848l.008-.305c-1.75 0-2.809 1.129-2.809 2.73 0 1.559 1.039 2.676 2.809 2.676a3.5 3.5 0 0 0 .723-.07c.219.863.367 1.465 1.078 1.465.777 0 1.047-.902 1.047-1.418 0-.062 0-.199-.141-.199-.109 0-.129.098-.137.152-.043.293-.52.297-.648.297-.172 0-.402 0-.699-.449zm0 0"/><path d="M220.531 76.254l.117-.051.109-.051.102-.055.102-.059.094-.059.09-.062.082-.07.082-.066.074-.074.07-.074.066-.074.063-.078.059-.078.055-.082.051-.082.047-.082.043-.086.039-.086.035-.086.063-.172.027-.086.023-.09.02-.086.031-.172.012-.082.008-.086.016-.164.004-.082v-.078c0-1.652-1.109-2.734-2.805-2.734l-.008.305c.414 0 1.008.156 1.375.805.289.512.313 1.168.313 1.617 0 .426 0 1.566-.73 2.066-.168-.25-.445-.652-.957-.652-.387 0-.738.258-.738.625h.273c0-.207.219-.352.473-.352.215 0 .473.086.629.566-.191.082-.422.121-.629.121-.418 0-.473-.246-.473-.336h-.273c0 .043.008.129.023.164-.941-.449-.961-1.609-.961-2.203 0-.309 0-1.031.281-1.574a1.55 1.55 0 0 1 1.395-.848l.008-.305c-1.746 0-2.809 1.129-2.809 2.734 0 1.559 1.039 2.672 2.809 2.672a3.59 3.59 0 0 0 .727-.07c.215.867.367 1.469 1.078 1.469.777 0 1.047-.902 1.047-1.418 0-.066 0-.199-.141-.199-.113 0-.129.098-.137.148-.043.293-.52.301-.648.301-.176 0-.406 0-.703-.449zm38.664-56.504l.113-.047.109-.055.105-.055.098-.055.094-.062.09-.062.086-.07.078-.066.145-.145.07-.078.117-.156.055-.078.051-.086.047-.082.043-.086.039-.082.035-.086.035-.09.055-.172.023-.086.02-.086.016-.09.016-.086.012-.082.012-.086.008-.082.008-.164v-.078c0-1.652-1.109-2.734-2.801-2.734l-.008.305a1.53 1.53 0 0 1 1.371.805c.293.512.316 1.168.316 1.617 0 .426 0 1.566-.734 2.07-.168-.254-.441-.656-.953-.656-.391 0-.742.258-.742.625h.277c0-.207.219-.352.473-.352.211 0 .473.086.625.566-.191.082-.422.121-.625.121-.422 0-.473-.246-.473-.336h-.277c0 .047.008.129.023.168-.941-.449-.961-1.609-.961-2.207 0-.305 0-1.031.281-1.574a1.56 1.56 0 0 1 1.398-.848l.008-.305c-1.75 0-2.812 1.129-2.812 2.734 0 1.559 1.039 2.672 2.812 2.672a3.52 3.52 0 0 0 .723-.07c.215.867.367 1.469 1.078 1.469.777 0 1.047-.902 1.047-1.418 0-.062 0-.199-.141-.199-.109 0-.129.098-.137.148-.043.293-.52.301-.648.301-.172 0-.402 0-.699-.449zm-.047 50.906l.113-.047.109-.051.105-.055.098-.059.094-.059.09-.062.086-.07.078-.066.078-.074.07-.074.066-.074.063-.078.059-.078.055-.082.051-.082.043-.082.086-.172.035-.086.063-.172.023-.086.023-.09.039-.172.016-.086.012-.086.016-.164.008-.086v-.156c0-1.652-1.105-2.734-2.801-2.734l-.008.305c.41 0 1.008.152 1.375.801.289.512.313 1.172.313 1.621 0 .426 0 1.566-.734 2.066-.168-.25-.441-.656-.953-.656-.387 0-.742.262-.742.629h.277c0-.207.219-.352.473-.352.215 0 .473.086.625.566-.191.082-.418.121-.625.121-.422 0-.473-.246-.473-.336h-.277a.48.48 0 0 0 .027.164c-.941-.449-.965-1.609-.965-2.203 0-.309 0-1.031.281-1.574a1.56 1.56 0 0 1 1.398-.848l.008-.305c-1.75 0-2.809 1.129-2.809 2.734 0 1.559 1.039 2.672 2.809 2.672a3.5 3.5 0 0 0 .723-.07c.219.867.367 1.469 1.078 1.469.777 0 1.047-.902 1.047-1.422 0-.062 0-.199-.141-.199-.109 0-.129.102-.137.152-.043.293-.52.301-.645.301-.176 0-.406 0-.703-.453zm41.313-32.808h-6.055v.469h1.086v5.863h-1.086v.473c.383-.031 1.395-.031 1.832-.031l2.023.031v-.473h-1.352v-2.703h.5c.961 0 1.051.43 1.051 1.172h.473v-2.812h-.473c0 .742-.082 1.172-1.051 1.172h-.5v-2.691h1.398c1.613 0 1.844.77 1.992 1.941h.469zm-3.516 39.039h1.133v-.469c-.41.027-1.379.027-1.836.027s-1.43 0-1.836-.027v.469h1.133v5.871h-1.133v.465c.406-.031 1.379-.031 1.836-.031l1.836.031v-.465h-1.133zm29.325-32.059l.117-.047.109-.051.102-.055.102-.059.094-.059.09-.066.164-.133.074-.074.07-.074.066-.074.063-.078.059-.078.055-.082.051-.082.047-.086.043-.082.039-.086.035-.086.063-.172.027-.086.023-.09.02-.086.031-.172.012-.086.016-.164.008-.086.004-.078v-.078c0-1.652-1.109-2.734-2.805-2.734l-.008.305a1.53 1.53 0 0 1 1.375.801c.289.512.313 1.172.313 1.621 0 .426 0 1.566-.73 2.066-.168-.25-.445-.656-.957-.656-.387 0-.738.262-.738.629h.273c0-.207.219-.352.473-.352.215 0 .473.086.629.566-.191.082-.422.121-.629.121-.418 0-.473-.246-.473-.336h-.273c0 .043.008.125.023.164-.941-.449-.961-1.609-.961-2.203 0-.309 0-1.031.281-1.574a1.55 1.55 0 0 1 1.395-.848l.008-.305c-1.746 0-2.809 1.129-2.809 2.734 0 1.559 1.039 2.672 2.809 2.672a3.59 3.59 0 0 0 .727-.07c.215.867.367 1.469 1.078 1.469.777 0 1.047-.902 1.047-1.422 0-.062 0-.199-.141-.199-.113 0-.129.102-.137.152-.043.293-.52.301-.648.301-.176 0-.406 0-.703-.453zm-.313 31.164l.113-.047.109-.051.105-.055.098-.059.188-.125.082-.066.156-.141.07-.074.066-.074.063-.078.059-.082.055-.078.051-.082.043-.086.043-.082.043-.086.035-.086.063-.172.023-.09.023-.086.039-.172.016-.086.012-.086.008-.082.008-.086.008-.082v-.16c0-1.648-1.105-2.73-2.801-2.73l-.008.305c.41 0 1.008.152 1.375.801.289.512.313 1.172.313 1.621 0 .426 0 1.563-.734 2.066-.164-.25-.441-.656-.953-.656-.387 0-.742.262-.742.625h.277c0-.203.219-.348.473-.348.215 0 .473.082.625.566-.191.082-.418.121-.625.121-.422 0-.473-.25-.473-.34h-.277c0 .047.008.129.027.168-.941-.449-.965-1.609-.965-2.203 0-.309 0-1.035.281-1.574a1.55 1.55 0 0 1 1.398-.848l.008-.305c-1.75 0-2.809 1.129-2.809 2.73 0 1.559 1.039 2.676 2.809 2.676a3.5 3.5 0 0 0 .723-.07c.219.863.367 1.469 1.078 1.469.781 0 1.047-.906 1.047-1.422 0-.062 0-.199-.137-.199-.113 0-.129.098-.137.152-.047.293-.52.301-.648.301-.176 0-.406 0-.703-.453zm77.285-57.203l.117-.047.211-.105.102-.059.094-.062.09-.062.082-.066.082-.07.145-.145.066-.078.063-.078.059-.078.055-.078.051-.086.047-.082.043-.086.039-.082.035-.086.031-.09.031-.086.027-.086.023-.086.02-.086.016-.09.016-.086.012-.082.008-.086.016-.164.004-.082v-.078c0-1.652-1.109-2.734-2.805-2.734l-.008.309a1.53 1.53 0 0 1 1.375.801c.289.512.313 1.168.313 1.617 0 .426 0 1.566-.73 2.07-.168-.254-.445-.656-.957-.656-.387 0-.738.258-.738.625h.273c0-.207.219-.352.473-.352.215 0 .473.086.629.566-.191.082-.422.121-.629.121-.418 0-.473-.246-.473-.336h-.273c0 .047.008.129.023.168-.941-.449-.961-1.609-.961-2.207 0-.305 0-1.031.281-1.57a1.54 1.54 0 0 1 1.395-.848l.008-.309c-1.746 0-2.809 1.129-2.809 2.734 0 1.559 1.039 2.672 2.809 2.672a3.59 3.59 0 0 0 .727-.07c.215.867.367 1.469 1.078 1.469.777 0 1.047-.902 1.047-1.418 0-.062 0-.199-.141-.199-.113 0-.129.098-.137.148-.043.293-.52.301-.648.301-.176 0-.406 0-.703-.449zm-2.933 51.141l.117-.047.109-.051.102-.055.102-.059.094-.062.09-.062.086-.066.078-.07.074-.07.07-.074.066-.074.063-.078.059-.082.055-.078.051-.082.047-.086.043-.082.039-.086.035-.086.063-.172.027-.09.023-.086.02-.086.031-.172.023-.172.008-.082.004-.082.004-.078v-.082c0-1.648-1.109-2.73-2.805-2.73l-.008.305c.414 0 1.012.152 1.375.801.289.512.313 1.168.313 1.617 0 .426 0 1.566-.73 2.07-.168-.25-.445-.656-.957-.656-.387 0-.738.258-.738.625h.273c0-.203.223-.348.473-.348.215 0 .477.082.629.563a1.58 1.58 0 0 1-.629.121c-.418 0-.473-.246-.473-.336h-.273c0 .047.008.129.023.168-.941-.449-.961-1.609-.961-2.207 0-.305 0-1.031.281-1.57.398-.734 1.051-.848 1.395-.848l.008-.305c-1.746 0-2.809 1.129-2.809 2.73 0 1.559 1.039 2.676 2.809 2.676.168 0 .422-.008.727-.074.215.867.367 1.469 1.078 1.469.777 0 1.047-.902 1.047-1.418 0-.062 0-.199-.141-.199-.113 0-.129.098-.137.148-.043.293-.52.301-.648.301-.176 0-.402 0-.703-.449zm0 0"/></g><defs ><path id="B" d="M412.25 74.082h-.113c-.008.07-.043.266-.086.301-.023.02-.277.02-.324.02h-.609l.66-.555c.246-.195.473-.398.473-.715 0-.398-.348-.645-.773-.645-.406 0-.684.289-.684.594 0 .168.141.184.176.184.078 0 .172-.055.172-.176 0-.059-.023-.172-.195-.172.105-.234.328-.309.484-.309.328 0 .5.258.5.523 0 .289-.203.516-.309.633l-.797.789c-.031.027-.031.035-.031.129h1.359zm0 0"/></defs></svg>